<?xml version="1.0" encoding="UTF-8" standalone="no"?>
<svg width="20px" height="20px" viewBox="0 0 20 20" version="1.1" xmlns="http://www.w3.org/2000/svg" xmlns:xlink="http://www.w3.org/1999/xlink">
    <!-- Generator: Sketch 45.2 (43514) - http://www.bohemiancoding.com/sketch -->
    <title>Glyph/tools/annotation</title>
    <desc>Created with Sketch.</desc>
    <defs></defs>
    <g id="Symbols" stroke="none" stroke-width="1" fill="none" fill-rule="evenodd">
        <g id="Glyph/tools/annotation">
            <g id="Page-1-Copy" transform="translate(2.000000, 0.000000)">
                <path d="M-3.94430453e-31,19 C3,19 5.3294,17.7503 6.9084,16.6503 C7.0854,16.5263 7.2754,16.3943 7.4914,16.3973 C7.9704,16.4043 8.1644,17.0173 8.5424,17.3113 C8.9984,17.6653 9.6824,17.5003 10.1454,17.1553 C10.6084,16.8123 10.9424,16.3203 11.3864,15.9523 C11.8304,15.5853 12.4764,15.3503 12.9814,15.6283 C13.1284,15.7103 13.2614,15.8333 13.4274,15.8583 C13.5594,15.8793 13.6924,15.8343 13.8144,15.7803 C14.3664,15.5363 14.8274,15.0873 15.0844,14.5403" id="Stroke-4" stroke="#009ec0" stroke-width="2" stroke-linecap="round" stroke-linejoin="round"></path>
                <path d="M16.374,0.298735396 C15.992,-0.0802646036 15.384,-0.101264604 14.978,0.250735396 L6.599,7.5537354 C6.172,7.9257354 6.129,8.5737354 6.501,8.9997354 C6.516,9.0167354 6.531,9.0327354 6.547,9.0487354 L7.624,10.1247354 C7.816,10.3167354 8.076,10.4237354 8.347,10.4237354 L8.382,10.4237354 C8.665,10.4147354 8.932,10.2877354 9.118,10.0747354 L16.422,1.6957354 C16.775,1.2897354 16.754,0.679735396 16.374,0.298735396 M4.174,10.4117354 C3.249,10.4137354 2.437,11.0257354 2.18,11.9147354 C2.18,11.9237354 2.166,11.9297354 2.162,11.9397354 C1.785,13.1247354 1.427,14.1417354 0.327,14.6247354 L0.303,14.6367354 L0.278,14.6497354 C0.108,14.7397354 0.002,14.9157354 0,15.1067354 C0,15.3947354 0.234,15.6287354 0.522,15.6287354 C2.337,15.7547354 4.133,15.1957354 5.556,14.0637354 C5.562,14.0567354 5.563,14.0497354 5.57,14.0437354 C6.427,13.2797354 6.503,11.9657354 5.739,11.1077354 C5.341,10.6617354 4.771,10.4077354 4.174,10.4117354" id="Fill-1" fill="#009ec0"></path>
            </g>
        </g>
    </g>
</svg>