<svg xmlns="http://www.w3.org/2000/svg" viewBox="0 0 17 20"><g fill="#019ec0"><path d="M15.2 4.4c-1 0-1.4-.5-1.9-1.2-.1-.2-.3-.4-.5-.6-.1-.2-.6-.6-1.9.1-.3.2-.7 0-.9-.3-.2-.4 0-.8.3-1 1.9-1 2.9-.5 3.5.1.3.3.4.5.6.8.5.6.6.7 1.5.5.4-.1.7.1.8.5.1.4-.1.8-.5.9-.4.1-.7.2-1 .2zM13 13.8l-.5-3.2c-.1-1.2-.9-2.1-2-2.4 0-.1 0-.2-.1-.3L8.6 1.4c-.4-1.6-1.7-1.6-2.2 0L4.8 7.8c0 .1-.1.3-.1.4-1.1.4-1.9 1.3-2 2.4l-.6 3.1c-.5.7-.8 1.5-.8 2.3v2.2c0 1 .8 1.8 1.8 1.8h8.4c1.1 0 2-.9 2-2v-2c.1-.8-.1-1.6-.5-2.2zm-2 .5H4.1l.6-3.4c0-.5.5-.9 1-.9h3.7c.5 0 1 .3 1 .9l.6 3.4zM3.4 18v-1.7h8.2V18H3.4z"/></g></svg>