<?xml version="1.0" encoding="utf-8"?>
<!-- Generator: Adobe Illustrator 21.1.0, SVG Export Plug-In . SVG Version: 6.00 Build 0)  -->
<svg version="1.1" id="Layer_1" xmlns="http://www.w3.org/2000/svg" xmlns:xlink="http://www.w3.org/1999/xlink" x="0px" y="0px"
	 viewBox="0 0 20 20" style="enable-background:new 0 0 20 20;" xml:space="preserve">
<style type="text/css">
	.st0{fill:none;stroke:#019ec0;stroke-width:1.5;stroke-linecap:round;}
	.st1{fill:none;stroke:#019ec0;stroke-width:2;}
	.st2{filter:url(#Adobe_OpacityMaskFilter);}
	.st3{fill:#FFFFFF;}
	.st4{mask:url(#mask-2);fill:#019ec0;}
</style>
<g id="Symbols">
	<g id="Glyph_x2F_tools_x2F_pen">
		<path id="Path-3" class="st0" d="M13,2c1.3-0.7,2.3-0.7,3,0c1,1,1,2,3,1.5"/>
		<g id="Page-1" transform="translate(4.000000, -1.500000)">
			<path id="Stroke-1" class="st1" d="M11.2,15.6l-0.7-3.4c-0.1-1-1.1-1.7-2.3-1.7l-4.5,0c-1.2,0-2.2,0.8-2.3,1.8l-0.7,3.3
				C0.3,16.1,0,16.7,0,17.5v2.2c0,0.4,0.4,0.8,0.9,0.8h9.9c0.6,0,1.2-0.4,1.2-1v-2C12,16.8,11.7,16.1,11.2,15.6z"/>
			<g id="Group-5" transform="translate(2.000000, 0.780600)">
				<g id="Clip-4">
				</g>
				<defs>
					<filter id="Adobe_OpacityMaskFilter" filterUnits="userSpaceOnUse" x="-3.6" y="-4.8" width="14.7" height="20.5">
						<feColorMatrix  type="matrix" values="1 0 0 0 0  0 1 0 0 0  0 0 1 0 0  0 0 0 1 0"/>
					</filter>
				</defs>
				<mask maskUnits="userSpaceOnUse" x="-3.6" y="-4.8" width="14.7" height="20.5" id="mask-2">
					<g class="st2">
						<path id="path-1" class="st3" d="M2.7,2L1,8.5c-0.2,0.6-0.1,1.2,0,1.7c0.2-0.1,0.5-0.2,0.7-0.2l4.1,0c0.2,0,0.5,0.1,0.7,0.2
							c0.1-0.5,0.2-1.1,0-1.7L4.8,2C4.6,1.1,4.2,0.7,3.8,0.7C3.3,0.7,2.9,1.1,2.7,2z"/>
					</g>
				</mask>
				<polygon id="Fill-3" class="st4" points="-3.6,15.8 11.1,15.8 11.1,-4.8 -3.6,-4.8 				"/>
			</g>
		</g>
	</g>
</g>
</svg>
