<?xml version="1.0" encoding="UTF-8" standalone="no"?>
<svg width="20px" height="20px" viewBox="0 0 20 20" version="1.1" xmlns="http://www.w3.org/2000/svg" xmlns:xlink="http://www.w3.org/1999/xlink">
    <!-- Generator: Sketch 45.2 (43514) - http://www.bohemiancoding.com/sketch -->
    <title>Glyph/tools/highlight</title>
    <desc>Created with Sketch.</desc>
    <defs></defs>
    <g id="Symbols" stroke="none" stroke-width="1" fill="none" fill-rule="evenodd">
        <g id="Glyph/tools/highlight" fill="#009ec0">
            <g id="Page-1" transform="translate(0.000000, 0.500000)">
                <path d="M16.9075,4.239 L12.2225,11.312 C12.1425,11.433 12.0455,11.536 11.9275,11.619 C11.2355,12.106 8.8565,13.62 7.8035,14.188 C7.6985,14.246 7.5845,14.273 7.4715,14.273 C7.2855,14.273 7.1025,14.199 6.9675,14.057 L5.9175,12.966 C5.7215,12.761 5.6845,12.455 5.8315,12.214 C6.0445,11.863 6.3955,11.343 6.7725,10.801 L8.2455,12.098 C8.3875,12.223 8.5645,12.286 8.7415,12.286 C8.9495,12.286 9.1555,12.2 9.3035,12.031 C9.5785,11.72 9.5485,11.246 9.2375,10.973 L7.6435,9.568 C8.0155,9.049 8.3275,8.622 8.4505,8.454 C8.4875,8.404 8.5265,8.362 8.5725,8.32 L14.7915,2.649 C14.8645,2.551 14.9775,2.5 15.0925,2.5 C15.1705,2.5 15.2495,2.524 15.3165,2.574 L16.8335,3.714 C16.9985,3.838 17.0315,4.074 16.9075,4.239 M18.3365,1.717 L16.8185,0.576 C16.3245,0.204 15.7115,-1.03028697e-13 15.0925,-1.03028697e-13 C14.3085,-1.03028697e-13 13.5565,0.324 13.0185,0.881 L6.8875,6.473 C6.7185,6.628 6.5705,6.791 6.4365,6.973 C6.4165,7.001 4.4235,9.715 3.6935,10.917 C3.0185,12.031 3.1235,13.436 3.9135,14.449 L2.3995,16.207 C2.1515,16.611 2.4425,17.133 2.9185,17.133 L4.4965,17.133 C4.6565,17.133 4.8095,17.07 4.9235,16.958 L5.7355,16.25 C6.2505,16.583 6.8525,16.773 7.4715,16.773 C8.0005,16.773 8.5255,16.64 8.9915,16.388 C10.1545,15.76 12.6375,14.176 13.3665,13.664 C13.7365,13.402 14.0535,13.076 14.3075,12.692 L18.9695,5.654 C19.8455,4.393 19.5735,2.648 18.3365,1.717" id="Fill-1"></path>
                <path d="M16.800332,19.5011914 L1.07811912,19.545932 L1.07811912,19.545932 C0.826859349,19.546647 0.622593431,19.3435404 0.621878422,19.0922806 C0.621540992,18.9737047 0.667512004,18.8596826 0.75,18.7745 L1.20528065,18.3043468 L1.20528065,18.3043468 C1.39365615,18.1098178 1.65286908,18 1.92365847,18 L17.6382428,18 L17.6382428,18 C17.8819429,18 18.0795008,18.197558 18.0795008,18.4412581 C18.0795008,18.5566914 18.034267,18.6675286 17.9535,18.75 L17.5119372,19.200881 L17.5119372,19.200881 C17.3245268,19.3922463 17.0681803,19.5004292 16.800332,19.5011914 Z" id="Fill-3"></path>
            </g>
        </g>
    </g>
</svg>