<?xml version="1.0" encoding="utf-8"?>
<!-- Generator: Adobe Illustrator 21.1.0, SVG Export Plug-In . SVG Version: 6.00 Build 0)  -->
<svg version="1.1" id="Layer_1" xmlns="http://www.w3.org/2000/svg" xmlns:xlink="http://www.w3.org/1999/xlink" x="0px" y="0px"
	 viewBox="0 0 20 20" style="enable-background:new 0 0 20 20;" xml:space="preserve">
<style type="text/css">
	.st0{fill:#F4C61E;}
	.st1{fill:#3E3D40;}
</style>
<rect id="Rectangle-8" x="13" class="st0" width="6.6" height="3"/>
<path class="st1" d="M14.2,9.9V8.6c0-1.8-1-3.4-2.4-4.2V0.2c0-0.1-0.1-0.2-0.2-0.2L7.9,1.3c-0.1,0-0.2,0.1-0.2,0.2v3
	C6.3,5.2,5.3,6.8,5.3,8.6v1.2c-1.4,1-2.3,2.7-2.3,4.5v4.6c0,0.3,0.1,0.5,0.3,0.7C3.4,19.9,3.7,20,4,20l11.6,0c0.6,0,1-0.5,1-1.1
	v-4.6C16.5,12.5,15.6,10.8,14.2,9.9z M14.5,17.9l-9.6,0v-2.1h9.6V17.9z M14.5,14.7H5v-0.4c0-1.2,0.7-2.4,1.8-2.9
	c0.4-0.2,0.6-0.5,0.6-1V8.6C7.3,7.2,8.4,6,9.8,6c1.3,0,2.4,1.2,2.4,2.6v1.9c0,0.4,0.2,0.8,0.6,1c1.1,0.5,1.8,1.7,1.8,2.9V14.7z"/>
</svg>
