<?xml version="1.0" encoding="utf-8"?>
<!-- Generator: Adobe Illustrator 21.1.0, SVG Export Plug-In . SVG Version: 6.00 Build 0)  -->
<svg version="1.1" id="Layer_1" xmlns="http://www.w3.org/2000/svg" xmlns:xlink="http://www.w3.org/1999/xlink" x="0px" y="0px"
	 viewBox="0 0 17 20" style="enable-background:new 0 0 17 20;" xml:space="preserve">
<style type="text/css">
	.st0{fill:#3E3D40;}
	.st1{fill:#3D3D3F;}
</style>
<g id="Annotation">
	<path class="st0" d="M15.2,4.4c-1,0-1.4-0.5-1.9-1.2c-0.1-0.2-0.3-0.4-0.5-0.6c-0.1-0.2-0.6-0.6-1.9,0.1c-0.3,0.2-0.7,0-0.9-0.3
		c-0.2-0.4,0-0.8,0.3-1c1.9-1,2.9-0.5,3.5,0.1c0.3,0.3,0.4,0.5,0.6,0.8C14.9,2.9,15,3,15.9,2.8c0.4-0.1,0.7,0.1,0.8,0.5
		c0.1,0.4-0.1,0.8-0.5,0.9C15.8,4.3,15.5,4.4,15.2,4.4z"/>
	<path class="st1" d="M13,13.8l-0.5-3.2c-0.1-1.2-0.9-2.1-2-2.4c0-0.1,0-0.2-0.1-0.3L8.6,1.4c-0.4-1.6-1.7-1.6-2.2,0L4.8,7.8
		c0,0.1-0.1,0.3-0.1,0.4c-1.1,0.4-1.9,1.3-2,2.4l-0.6,3.1c-0.5,0.7-0.8,1.5-0.8,2.3v2.2c0,1,0.8,1.8,1.8,1.8h8.4c1.1,0,2-0.9,2-2v-2
		C13.6,15.2,13.4,14.4,13,13.8z M11,14.3H4.1l0.6-3.4c0-0.5,0.5-0.9,1-0.9h3.7c0.5,0,1,0.3,1,0.9L11,14.3z M3.4,18v-1.7h8.2V18H3.4z
		"/>
</g>
</svg>
