<svg xmlns="http://www.w3.org/2000/svg" viewBox="0 0 20 20" enable-background="new 0 0 20 20"><path d="M13 2c1.3-.7 2.3-.7 3 0 1 1 1 2 3 1.5" fill="none" stroke="#019ec0" stroke-width="1.5" stroke-linecap="round"/><path d="M15.2 14.1l-.7-3.4c-.1-1-1.1-1.7-2.3-1.7H7.7c-1.2 0-2.2.8-2.3 1.8l-.7 3.3c-.4.5-.7 1.1-.7 1.9v2.2c0 .4.4.8.9.8h9.9c.6 0 1.2-.4 1.2-1v-2c0-.7-.3-1.4-.8-1.9z" fill="none" stroke="#019ec0" stroke-width="2"/><g transform="translate(6 -.72)"><defs><filter id="a" filterUnits="userSpaceOnUse" x="-3.6" y="-4.8" width="14.7" height="20.5"><feColorMatrix values="1 0 0 0 0 0 1 0 0 0 0 0 1 0 0 0 0 0 1 0"/></filter></defs><mask maskUnits="userSpaceOnUse" x="-3.6" y="-4.8" width="14.7" height="20.5" id="b"><path d="M2.7 2L1 8.5c-.2.6-.1 1.2 0 1.7.2-.1.5-.2.7-.2h4.1c.2 0 .5.1.7.2.1-.5.2-1.1 0-1.7L4.8 2c-.2-.9-.6-1.3-1-1.3-.5 0-.9.4-1.1 1.3z" fill="#fff" filter="url(#a)"/></mask><path mask="url(#b)" fill="#019ec0" d="M-3.6 15.8h14.7V-4.8H-3.6z"/></g></svg>