<?xml version="1.0" encoding="UTF-8" standalone="no"?>
<svg width="20px" height="20px" viewBox="0 0 20 20" version="1.1" xmlns="http://www.w3.org/2000/svg" xmlns:xlink="http://www.w3.org/1999/xlink">
    <!-- Generator: Sketch 45.2 (43514) - http://www.bohemiancoding.com/sketch -->
    <title>Glyph/tools/pen</title>
    <desc>Created with Sketch.</desc>
    <defs>
        <polygon id="path-1" points="0 3.44894232 0 0.823856829 2.625453 0.823856829 2.625453 3.44894232 1.75299855e-16 3.44894232"></polygon>
    </defs>
    <g id="Symbols" stroke="none" stroke-width="1" fill="none" fill-rule="evenodd">
        <g id="Glyph/tools/pen">
            <g id="Page-1" transform="translate(2.000000, 0.500000)">
                <path d="M1.29374713,18.3482975 C3.2888121,18.0322372 5.17887365,17.2982633 6.8599784,16.1421757 C7.0689352,16.0382223 7.27894204,15.8282154 7.48894888,15.8282154 C8.01396598,15.8282154 8.22502285,16.4571859 8.64398649,16.7732462 C9.16900359,17.1922099 9.80007414,16.982203 10.3250912,16.5632394 C10.8501083,16.1421757 11.1640686,15.723212 11.5851323,15.3031984 C12.0040959,14.8821346 12.7391199,14.6731778 13.2641369,14.9881881 C13.3691404,15.0921415 13.5791472,15.1981949 13.6852007,15.1981949 C13.789154,15.1981949 14.0002109,15.1981949 14.1041643,15.0921415 C14.7352349,14.8821346 15.1541985,14.3571175 15.4692088,13.8321004" id="Stroke-1" stroke="#009ec0" stroke-width="1.5" stroke-linecap="round" stroke-linejoin="round"></path>
                <path d="M7.08941087,11.3815306 L4.78773591,9.07985569 C4.72788396,9.02000374 4.72788396,8.92235056 4.78773591,8.86249861 L13.6101232,0.153514999 C13.8148799,-0.0512416687 14.1487908,-0.0512416687 14.3524974,0.153514999 L16.1291552,1.93017286 C16.334962,2.13492952 16.334962,2.46779036 16.1291552,2.67359707 L7.30676795,11.3815306 C7.24586596,11.4424326 7.14926282,11.4424326 7.08941087,11.3815306" id="Fill-3" fill="#009ec0"></path>
                <path d="M4.26744397,9.71418134 L6.56911892,12.0158563 C6.62897087,12.0757082 6.62897087,12.1733614 6.56911892,12.2332134 L4.06898751,14.7333448 C3.37281484,15.4295175 2.24507811,15.4295175 1.54890544,14.7333448 C0.853782804,14.0382222 0.853782804,12.9104854 1.54890544,12.2143128 L4.05008689,9.71418134 C4.10993884,9.65432939 4.20654199,9.65432939 4.26744397,9.71418134" id="Fill-5" fill="#009ec0"></path>
                <g id="Group-9" transform="translate(0.000000, 12.835198)">
                    <mask id="mask-2" fill="white">
                        <use xlink:href="#path-1"></use>
                    </mask>
                    <g id="Clip-8"></g>
                    <path d="M0.177035765,3.27253657 L0.177035765,3.27253657 C0.412243425,3.50774423 0.797605974,3.50774423 1.0317636,3.27253657 L2.44825973,1.85604044 C2.68451742,1.62188282 2.68451742,1.23652027 2.44825973,1.00026257 C2.21305207,0.765054914 1.82768952,0.765054914 1.59248186,1.00026257 L0.177035765,2.4167587 C-0.0592219286,2.65196636 -0.0592219286,3.03627888 0.177035765,3.27253657" id="Fill-7" fill="#009ec0" mask="url(#mask-2)"></path>
                </g>
            </g>
        </g>
    </g>
</svg>