<svg width="1230" height="342" xmlns="http://www.w3.org/2000/svg"><defs><path id="a" d="M176.408 0v37.604H0V0z"/><path id="c" d="M136.885 0v29.18H0V0z"/></defs><g fill="none" fill-rule="evenodd"><path d="M3 66.694h42.328S32.086 37.132 60.203 33.311c25.077-3.41 34.99 22.325 34.99 22.325s2.974-14.848 17.888-12.007c14.703 2.801 25.562 26.421 25.562 26.421h36.861" fill="#A1F5FD" fill-rule="nonzero"/><g transform="translate(2.59 24.12)"><mask id="b" fill="#fff"><use href="#a"/></mask><path d="M44.282 37.606H1.954a1.95 1.95 0 1 1 0-3.902h39.49c-1.652-4.866-4.219-15.207.282-23.296C44.816 4.85 50.592 1.464 58.891.336 78.62-2.388 89.567 12.113 93.838 19.613c2.653-5.315 8.39-10.891 18.56-8.94 13.629 2.595 23.811 18.274 26.323 22.48h35.733a1.95 1.95 0 1 1 0 3.902h-36.862a1.958 1.958 0 0 1-1.711-1.006c-.102-.191-10.597-18.95-24.214-21.544-12.89-2.49-15.5 9.943-15.61 10.473a1.95 1.95 0 0 1-1.746 1.561 1.963 1.963 0 0 1-1.989-1.24c-.387-.988-9.694-24.245-32.903-21.1-7.006.956-11.808 3.68-14.27 8.093-5.025 9.007.856 22.434.918 22.567a1.954 1.954 0 0 1-1.786 2.747" fill="#04BFD3" fill-rule="nonzero" mask="url(#b)"/></g><path d="M3.907 73.804a3.901 3.901 0 1 1 0-7.804h174.454a3.904 3.904 0 0 1 3.908 3.902 3.904 3.904 0 0 1-3.908 3.902H3.907zm1048.421 57.325h32.845s-10.276-22.94 11.542-25.904c19.459-2.646 27.15 17.323 27.15 17.323s2.308-11.521 13.88-9.317c11.41 2.174 19.836 20.502 19.836 20.502h28.603" fill="#A1F5FD" fill-rule="nonzero"/><g transform="translate(1052.01 98.093)"><mask id="d" fill="#fff"><use href="#c"/></mask><path d="M34.36 29.18H1.517a1.514 1.514 0 1 1 0-3.027H32.16c-1.282-3.776-3.274-11.8.219-18.077 2.398-4.312 6.88-6.94 13.319-7.815C61.005-1.853 69.5 9.399 72.814 15.219c2.059-4.124 6.51-8.451 14.402-6.937 10.575 2.013 18.476 14.18 20.426 17.444h27.727a1.514 1.514 0 1 1 0 3.028h-28.603a1.52 1.52 0 0 1-1.328-.782c-.08-.148-8.223-14.703-18.79-16.717-10.001-1.932-12.027 7.715-12.112 8.127a1.513 1.513 0 0 1-1.355 1.211 1.523 1.523 0 0 1-1.543-.963c-.3-.766-7.522-18.812-25.532-16.372-5.436.742-9.162 2.856-11.072 6.28-3.9 6.989.664 17.408.712 17.51a1.516 1.516 0 0 1-1.386 2.132" fill="#04BFD3" fill-rule="nonzero" mask="url(#d)"/></g><path d="M1053.032 136.646a3.027 3.027 0 1 1 0-6.056H1188.4a3.03 3.03 0 1 1 0 6.056h-135.37z" fill="#A1F5FD" fill-rule="nonzero"/><path d="M95.907 21.804A3.904 3.904 0 0 1 92 17.902 3.904 3.904 0 0 1 95.907 14h250.201a3.904 3.904 0 0 1 3.908 3.902 3.904 3.904 0 0 1-3.908 3.902h-250.2zm89.047-17.902A1.953 1.953 0 0 1 183 1.952C183 .873 183.875 0 184.954 0h120.134c1.078 0 1.954.874 1.954 1.951a1.953 1.953 0 0 1-1.954 1.951H184.954zm981.081 321.902H928.907a3.901 3.901 0 1 1 0-7.804h237.128a3.904 3.904 0 0 1 3.907 3.902 3.904 3.904 0 0 1-3.907 3.902m-32.092-20.902h-104.99a1.953 1.953 0 0 1-1.953-1.95c0-1.078.875-1.952 1.954-1.952h104.99c1.078 0 1.953.874 1.953 1.951a1.953 1.953 0 0 1-1.954 1.951m93.877 37H870.955a1.953 1.953 0 0 1-1.954-1.95c0-1.078.875-1.952 1.954-1.952h356.867c1.078 0 1.953.874 1.953 1.951a1.953 1.953 0 0 1-1.953 1.951" fill-rule="nonzero" fill="#04BFD3"/></g></svg>