<svg width="436" height="458" xmlns="http://www.w3.org/2000/svg"><defs><path id="a" d="M0 0h254v154H0z"/><path id="c" d="M0 0h84.762v81.384H0z"/><path d="M78.762 67.402C78.762 56.76 62.009 0 39.38 0S0 56.76 0 67.402c0 10.642 78.762 10.642 78.762 0z" id="e"/><path id="g" d="M0 0h254v154H0z"/><path id="i" d="M0 0h254v154H0z"/><path id="k" d="M0 0h254v154H0z"/><path id="m" d="M0 0h254v154H0z"/><path id="o" d="M0 0h254v154H0z"/><path id="q" d="M0 0h254v154H0z"/><path id="s" d="M93.506 0v20.2H0V0z"/></defs><g fill="none" fill-rule="evenodd"><g fill-rule="nonzero"><path d="M2.38 64.927v327.09c0 6.463 5.599 11.706 12.502 11.706h406.122c6.904 0 12.503-5.239 12.503-11.707V65.613L2.379 64.927z" fill="#5EE0ED"/><path d="M4.472 67.016v325c0 5.305 4.667 9.62 10.408 9.62H421c5.742 0 10.417-4.315 10.417-9.62v-325H4.472zm416.53 338.8H14.88c-8.046 0-14.59-6.188-14.59-13.8V62.835H435.6v329.18c0 7.612-6.55 13.8-14.599 13.8z" fill="#04BFD3"/><path d="M433.505 62.976V15.574c0-7.446-6.038-13.483-13.486-13.483H15.863c-7.447 0-13.485 6.037-13.485 13.483v49.354h431.127v-1.952z" fill="#04D1E6"/><path d="M4.472 62.835h426.946V15.571c-.004-6.28-5.119-11.388-11.4-11.388H15.868c-6.281 0-11.395 5.109-11.395 11.388v47.264zm431.127 4.181H.29V15.571C.29 6.988 7.278.002 15.867.002h404.152c8.584 0 15.576 6.986 15.58 15.57v51.444z" fill="#04BFD3"/><path d="M29.406 65.614v298.275c0 6.041 4.897 10.941 10.935 10.941h355.202c6.038 0 10.935-4.9 10.935-10.941V65.614H29.406z" fill="#A1F7FF"/><rect fill="#5FDFEC" opacity=".329" x="46" y="85" width="343.111" height="62.837" rx="2"/><rect fill="#5FDFEC" opacity=".329" x="46" y="171" width="59" height="76.449" rx="2"/><rect fill="#5FDFEC" opacity=".329" x="46" y="263" width="59" height="20.59" rx="2"/><rect fill="#5FDFEC" opacity=".329" x="46" y="297" width="59" height="20.59" rx="2"/><rect fill="#5FDFEC" opacity=".329" x="46" y="330" width="59" height="20.59" rx="2"/><path d="M31.497 67.706v296.18c0 4.884 3.968 8.856 8.844 8.856h355.206c4.876 0 8.84-3.972 8.84-8.855V67.706H31.497zm364.05 309.217H40.341c-7.184 0-13.025-5.845-13.025-13.036V63.525h381.253v300.362c0 7.19-5.846 13.036-13.022 13.036zM37.666 24.565a9.106 9.106 0 0 1 9.108 9.106c0 5.025-4.077 9.101-9.108 9.101-5.03 0-9.107-4.076-9.107-9.101a9.106 9.106 0 0 1 9.107-9.106m29.371 0a9.106 9.106 0 0 1 9.108 9.106c0 5.025-4.077 9.101-9.108 9.101-5.03 0-9.107-4.076-9.107-9.101a9.106 9.106 0 0 1 9.107-9.106m252.459 19.399H116.387c-5.44 0-9.856-4.411-9.856-9.854v-.883c0-5.439 4.416-9.854 9.856-9.854h203.109c5.444 0 9.856 4.415 9.856 9.854v.883c0 5.443-4.412 9.854-9.856 9.854m49.351-19.399a9.106 9.106 0 0 1 9.108 9.106c0 5.025-4.077 9.101-9.108 9.101-5.03 0-9.107-4.076-9.107-9.101a9.106 9.106 0 0 1 9.107-9.106m29.371 0a9.106 9.106 0 0 1 9.108 9.106c0 5.025-4.077 9.101-9.108 9.101-5.03 0-9.107-4.076-9.107-9.101a9.106 9.106 0 0 1 9.107-9.106" fill="#04BFD3"/></g><path d="M57.5 444.09c0 7.28 71.402 13.184 159.48 13.184 88.08 0 159.482-5.905 159.482-13.185s-71.402-13.184-159.481-13.184c-88.08 0-159.481 5.904-159.481 13.184" fill="#03C0D3" fill-rule="nonzero"/><g fill-opacity=".7" fill-rule="nonzero" fill="#8AE1E9"><path d="M195.556 116.932c2.366.021 15.595 5.006 23.379 30.197 7.576 24.65 27.854 12.376 22.416 47.751-1.127 7.71-40.58 34.31-50.2 32.585-2.847-.456-48.668-38.758-49.457-75.613-.256-12.133 16.629-36.11 53.862-34.92z"/><path d="M193.78 137.384c1.072-.478 1.951-1.027 2.847-1.901l12.1-12.507c3.39-3.566 3.209-9.023-.163-12.269-3.565-3.317-9.08-3.077-12.395.298l-12.1 12.507c-3.39 3.566-3.21 9.023.163 12.268 2.559 2.5 6.33 3.036 9.547 1.604z"/></g><g transform="scale(-1 1) rotate(19 -394.789 -560.386)" fill-rule="nonzero"><path d="M30.478 34.918c-1.174 0-2.2-.145-3.375-.578l-16.14-6.505c-4.548-1.879-6.602-6.938-4.841-11.274 1.907-4.48 7.042-6.504 11.444-4.77l16.14 6.505c4.548 1.879 6.603 6.938 4.842 11.274-1.32 3.324-4.549 5.348-8.07 5.348z" fill="#009EC0"/><ellipse fill-opacity=".185" fill="#000" cx="42.718" cy="129.057" rx="42.55" ry="6.36"/><path d="M64.572 33.601c-2.934 0-5.869-1.445-7.483-4.047L46.82 13.366C44.179 9.318 45.5 3.97 49.607 1.369c4.109-2.602 9.538-1.301 12.179 2.746l10.27 16.189c2.641 4.047 1.32 9.395-2.787 11.996a9.206 9.206 0 0 1-4.696 1.301z" fill="#009EC0"/><path d="M22.522 14.684c-2.2.867-12.765 10.262-11.004 36.569 1.76 25.728-21.569 21.537-3.815 52.613 3.815 6.793 50.18 17.49 58.544 12.43 2.494-1.445 31.546-53.624 19.074-88.314C81.213 16.563 56.856.23 22.522 14.684z" fill="#009EC0"/><path d="M8.012 80.712s-2.641 17.49-1.614 26.162c1.027 8.673 3.375 13.442 4.989 12.575 1.76-.867 6.309-26.306 6.309-26.306l-9.684-12.43zm66.097 15.745s-5.43 16.911-10.271 24.283c-4.695 7.371-9.097 10.551-10.27 9.106-1.175-1.446 6.308-26.307 6.308-26.307l14.233-7.082zM27.47 13.4c7.778-3.902 28.76-2.6 38.444-4.047 5.135-.722 19.074 1.446 19.074 1.446l-6.016 3.035 8.217 1.3-4.548 3.759 1.76 7.227-1.32-.723L36.86 12.822l-9.39.578z" fill="#009EC0"/><path d="M29.194 23.97c-8.363 5.493-3.228 71.404 2.641 78.631 9.537 11.563 31.693 9.106 34.628 3.036 1.027-2.313 25.97-47.41 14.232-78.486-2.935-8.095-22.45-22.26-51.5-3.18z" fill="#00C6DB"/><path d="M43.605 38.098c.88.145 1.32 1.012 1.174 1.88l-.88 3.468c-.147.867-1.028 1.301-1.908 1.156-.88-.144-1.32-1.011-1.174-1.879l.88-3.469c.294-.867 1.174-1.3 1.908-1.156zm31.299.704c.88.144 1.32 1.012 1.174 1.879l-.88 3.469c-.147.867-1.028 1.3-1.908 1.156-.88-.144-1.32-1.011-1.174-1.879l.88-3.469a1.468 1.468 0 0 1 1.908-1.156z" fill="#363959"/><path d="M42.382 51.448c-.44 0-1.027 0-1.467-.144-3.521-.868-4.695-3.903-4.695-4.047-.294-.723.147-1.59.88-1.88.734-.289 1.614.145 1.908.868 0 .144.733 1.734 2.64 2.168 1.908.434 3.229-.723 3.375-.867a1.433 1.433 0 0 1 2.055 0c.586.578.586 1.445 0 2.023-.294.29-1.908 1.88-4.696 1.88zm31.965-3.936c-.44 0-1.027 0-1.467-.144-3.521-.868-4.695-3.903-4.695-4.048-.294-.722.146-1.59.88-1.879.734-.289 1.614.145 1.908.868 0 .144.733 1.734 2.64 2.168 1.908.433 3.375-.723 3.375-.723a1.433 1.433 0 0 1 2.054 0c.587.578.587 1.445 0 2.024-.293.144-2.054 1.734-4.695 1.734zM50.248 63.188c-.734 0-1.467-.578-1.467-1.3 0-.868.587-1.446 1.32-1.59 8.804-.723 17.167-2.458 18.047-3.759 1.028-1.59 1.174-3.902 1.174-4.047 0-.723.734-1.3 1.468-1.3.733 0 1.467.577 1.467 1.3.147 1.3.587 3.324 1.174 4.047 1.027 1.301 2.347 1.301 2.347 1.301.88 0 1.467.578 1.614 1.3 0 .868-.587 1.446-1.32 1.59-1.027 0-3.228-.288-4.842-2.312-.147-.144-.294-.433-.44-.578 0 .145-.147.145-.147.29-2.054 3.179-14.82 4.624-20.395 5.058z" fill="#009EC0"/><g fill="#363959"><path d="M65.858 50.135c-1.174.722 5.282 3.902 6.162 3.902 1.32 0 7.777-2.746 7.483-4.914-.146-1.156-9.243-1.88-13.645 1.012z"/><path d="M72.02 55.483c-1.173 0-7.042-2.602-7.63-4.626-.146-.722 0-1.445.734-1.879 4.109-2.746 12.179-2.601 14.673-1.59 1.027.434 1.174 1.012 1.32 1.59.147.868-.293 1.735-1.027 2.602-1.907 1.88-6.456 3.903-8.07 3.903zm-3.961-4.915c1.32.723 3.375 1.735 3.961 1.88 1.174-.145 4.402-1.59 5.576-2.747-1.907-.289-6.31-.434-9.537.867z"/></g><path d="M52.383 62.688l-1.174 3.614c-1.027 3.035.734 6.36 3.815 7.227 3.081 1.012 6.456-.723 7.336-3.758l2.935-9.106-12.912 2.023z" fill="#FF1AD9"/><path fill="#E100BB" d="M64.552 62.968l.743-2.303-12.912 2.023-.764 2.352z"/><path d="M56.229 70.348h-.294c-.44-.145-.587-.579-.44-.868l2.201-6.649c.147-.433.587-.578.88-.433.44.144.587.578.44.867l-2.2 6.649c0 .289-.294.434-.587.434z" fill="#E100BB"/><path d="M106.132 91.31s-7.923 3.18-8.07 5.78c-.147 2.747 8.217 5.927 11.738.724 3.521-5.204-2.348-7.083-3.668-6.505zM24.149 59.063s.733 5.782 4.401 8.962c3.669 3.18-4.695 7.95-4.401 15.177.44 7.371 0-24.139 0-24.139z" fill="#009EC0"/></g><path d="M100.967 223.38c3.256.933 8.576 1.579 16.978.69 15.41-1.518 31.323-22.459 33.098-24.808 1.396-1.798 1.078-4.528-.927-5.982-1.802-1.396-4.535-1.08-5.99.92-4.247 5.599-17.28 20.33-27.28 21.42-10.933 1.263-14.973-.775-14.973-.775-1.801-1.396-4.534-1.08-5.93.717-1.397 1.799-1.079 4.528.723 5.924.552.379 1.86 1.193 4.301 1.893" fill-rule="nonzero" fill="#009EC0"/><path d="M144 200.003c0-1.106.89-2.003 1.995-2.003h216.957c1.102 0 1.995.904 1.995 2.003v149.994c0 1.106-.89 2.003-1.995 2.003H145.995a2.004 2.004 0 0 1-1.995-2.003V200.003z" fill="#8AE1E9" fill-rule="nonzero"/><path d="M128 192h254v154H128z" fill-rule="nonzero" fill="#FFF"/><g transform="translate(128 192)"><mask id="b" fill="#fff"><use href="#a"/></mask><g mask="url(#b)"><g transform="translate(85 86)"><mask id="d" fill="#fff"><use href="#c"/></mask><path d="M81.762 70.402C81.762 59.76 65.009 3 42.38 3S3 59.76 3 70.402c0 10.642 78.762 10.642 78.762 0z" stroke="#C6F1F6" stroke-width="6" fill="#E9FDFF" mask="url(#d)"/></g><g transform="translate(88 89)"><mask id="f" fill="#fff"><use href="#e"/></mask><path d="M78.762 67.402C78.762 56.76 62.009 0 39.38 0S0 56.76 0 67.402c0 10.642 78.762 10.642 78.762 0z" stroke="#FFF" stroke-width="4" mask="url(#f)"/></g></g></g><g transform="translate(128 192)"><mask id="h" fill="#fff"><use href="#g"/></mask><g fill="#04BFD3" fill-rule="nonzero" mask="url(#h)"><path d="M-329.093 153.804a3.904 3.904 0 0 1-3.907-3.902 3.904 3.904 0 0 1 3.907-3.902h250.201a3.904 3.904 0 0 1 3.908 3.902 3.904 3.904 0 0 1-3.908 3.902h-250.2zm89.047-17.902a1.953 1.953 0 0 1-1.954-1.95c0-1.078.875-1.952 1.954-1.952h120.134c1.078 0 1.954.874 1.954 1.951a1.953 1.953 0 0 1-1.954 1.951h-120.134z"/></g></g><g transform="translate(128 192)"><mask id="j" fill="#fff"><use href="#i"/></mask><g mask="url(#j)"><path d="M262 152.545c0-15.272-31.5-117.09-63-117.09s-63 101.818-63 117.09c0 15.273 126 15.273 126 0z" fill="#E9FDFF"/><path d="M263.5 152.545c0-9.168-9.104-40.065-19.81-64.867-14.374-33.296-29.788-53.723-44.69-53.723-14.902 0-30.316 20.427-44.69 53.723-10.706 24.802-19.81 55.7-19.81 64.867 0 8.494 27.605 12.955 64.5 12.955 36.895 0 64.5-4.461 64.5-12.955z" stroke="#C6F1F6" stroke-width="3"/><path d="M260.5 152.545c0 5.507-27.52 9.955-61.5 9.955-33.98 0-61.5-4.448-61.5-9.955 0-8.65 9.009-39.225 19.565-63.678C170.939 56.728 185.859 36.955 199 36.955c13.14 0 28.061 19.773 41.935 51.912 10.556 24.453 19.565 55.028 19.565 63.678z" stroke="#FFF" stroke-width="3"/></g></g><g transform="translate(128 192)"><mask id="l" fill="#fff"><use href="#k"/></mask><g fill-rule="nonzero" mask="url(#l)"><path d="M39.237 119.929c-.683 0-1.237-.634-1.237-1.42 0-.784.554-1.418 1.237-1.418h79.214c.683 0 1.237.634 1.237 1.419s-.554 1.419-1.237 1.419H39.237z" fill="#C8F2F7"/><path d="M67.43 113.419c-.342 0-.62-.318-.62-.71 0-.391.278-.709.62-.709h38.034c.342 0 .619.318.619.71 0 .391-.277.709-.619.709H67.43z" fill="#C6F1F6"/></g></g><g transform="translate(128 192)"><mask id="n" fill="#fff"><use href="#m"/></mask><g fill-rule="nonzero" mask="url(#n)"><path d="M136.77 134.929c-.425 0-.77-.634-.77-1.42 0-.784.345-1.418.77-1.418h49.267c.425 0 .77.634.77 1.419s-.345 1.419-.77 1.419h-49.268z" fill="#C8F2F7"/><path d="M154.304 128.419c-.213 0-.385-.318-.385-.71 0-.391.172-.709.385-.709h23.655c.213 0 .385.318.385.71 0 .391-.172.709-.385.709h-23.655z" fill="#C6F1F6"/></g></g><g transform="translate(128 192)"><mask id="p" fill="#fff"><use href="#o"/></mask><g stroke-linecap="square" stroke-linejoin="round" stroke-dasharray="1.080000042915344,21.04000091552734" mask="url(#p)"><mask id="r" fill="#fff"><use href="#q"/></mask><path stroke="#04D1E6" stroke-width="6" mask="url(#r)" d="M0 0h254v154H0z"/></g></g><g opacity=".24"><path d="M205.59 234.935h22.436s-7.019-15.88 7.885-17.933c13.292-1.832 18.547 11.993 18.547 11.993s1.576-7.977 9.481-6.45c7.794 1.505 13.55 14.193 13.55 14.193h19.538" fill="#A1F5FD" fill-rule="nonzero"/><g transform="translate(205.373 212.064)"><mask id="t" fill="#fff"><use href="#s"/></mask><path d="M23.472 20.202H1.036A1.04 1.04 0 0 1 0 19.154a1.04 1.04 0 0 1 1.036-1.048h20.932c-.876-2.614-2.237-8.17.15-12.515 1.637-2.985 4.698-4.805 9.097-5.41 10.457-1.464 16.26 6.326 18.524 10.355 1.407-2.855 4.447-5.85 9.838-4.802C66.801 7.128 72.198 15.55 73.53 17.81h18.94c.572 0 1.036.47 1.036 1.048a1.04 1.04 0 0 1-1.036 1.048H72.931c-.377 0-.724-.207-.907-.54-.054-.103-5.617-10.18-12.834-11.574-6.833-1.337-8.216 5.341-8.274 5.626-.09.457-.468.8-.926.839a1.04 1.04 0 0 1-1.054-.667c-.205-.53-5.139-13.024-17.44-11.334-3.714.513-6.26 1.977-7.565 4.347-2.663 4.839.454 12.052.487 12.123.141.325.112.7-.079.998a1.03 1.03 0 0 1-.867.478" fill="#04BFD3" fill-rule="nonzero" mask="url(#t)"/></g><path d="M206.071 238.755a2.082 2.082 0 0 1-2.071-2.096c0-1.16.926-2.097 2.071-2.097h92.47c1.143 0 2.071.937 2.071 2.097 0 1.159-.928 2.096-2.07 2.096h-92.47z" fill="#A1F5FD" fill-rule="nonzero"/></g><circle stroke="#04D1E6" stroke-width="3" fill="#FFF" fill-rule="nonzero" cx="132" cy="341" r="10"/><circle stroke="#04D1E6" stroke-width="3" fill="#FFF" fill-rule="nonzero" cx="379" cy="341" r="10"/><circle stroke="#04D1E6" stroke-width="3" fill="#FFF" fill-rule="nonzero" cx="379" cy="195" r="10"/><g fill-rule="nonzero"><path d="M105.84 234.709l10.954-6.367 35.393 62.25c2.882 5.2 1.294 11.4-3.429 14.61-.452.25-.804.15-1.054-.302l-41.863-70.191z" fill="#C8C8CC"/><path d="M116.492 308.31c-.101.351-.553.602-1.256.4-5.195-2.44-7.65-8.468-5.46-14.116l25.975-66.711 11.645 4.48-30.904 75.947z" fill="#E1E1E6"/><path d="M169.91 214.86c-1.578-4.446-4.839-7.663-9.08-9.45-2.008-.956-4.217-1.209-6.402-.885-6.805.521-12.86 5.06-15.453 12.113-.327.476-.302 1.054-.629 1.53l-8.457 21.535c-.427.828-.378 1.983.123 2.888.501.904 1.229 1.683 1.932 1.884l7.178 2.82c.476.326 1.054.302 1.631.277.578-.024.804-.15 1.256-.4.905-.502 1.684-1.23 1.885-1.932l2.517-6.124 1.054.302c2.008.956 4.217 1.21 6.402.885 6.804-.52 12.86-5.06 15.452-12.112 2.138-4.14 2.168-8.886.59-13.332zm-7.167 11.065c-1.56 4.116-5.254 7.05-8.945 7.323-1.155.05-2.084-.027-3.264-.555-3.413-1.36-5.543-5.203-5.364-9.145.052-1.506.68-3.037 1.286-5.146 1.81-3.664 4.951-5.996 8.416-6.143 1.155-.05 2.084.027 3.264.555 2.234.831 3.814 2.615 4.615 5.127 1.128 2.035 1.024 5.047-.008 7.984zm-38.201 13.195l-11.505-20.222-.752-1.357c-3.51-6.33-10.034-10.103-16.612-9.707-2.31.098-4.596.774-6.63 1.902-7.914 4.386-10.234 15.13-5.346 23.947 3.509 6.33 10.033 10.103 16.612 9.708 2.31-.098 4.595-.774 6.63-1.902l.904-.501 3.259 5.878c.752 1.356 1.931 1.885 3.438 1.937.577-.025 1.03-.276 1.482-.526l6.782-3.76c.905-.501 1.332-1.33 1.76-2.158.629-1.53.48-2.334-.022-3.239zm-24.427-3.01c-3.691.272-7.606-1.991-9.736-5.835-2.883-5.2-1.873-11.375 2.423-13.757 1.13-.626 2.16-.901 3.315-.95 3.465-.148 6.903 1.789 9.11 4.703 1.002 1.809 1.528 3.29 2.054 4.773.75 4.018-.585 8.008-3.976 9.888-.78.728-2.035 1.128-3.19 1.177z" fill="#FA0"/><path d="M130.643 265.59c-2.16.902-4.52-.155-5.296-2.09-.902-2.16.155-4.518 2.09-5.295 2.16-.902 4.518.155 5.295 2.09.902 2.16-.155 4.518-2.09 5.295z" fill="#C8C8CC"/></g><path d="M107.645 212.147s-11.43 4.65-11.642 8.454c-.212 4.016 11.853 8.665 16.934 1.057 5.08-7.609-3.387-10.356-5.292-9.51m81.249-.87c18.808-12.685 17.028-51.12 17.04-52.806-.182-1.974-1.822-3.384-3.889-3.039-2.066.346-3.671 2.057-3.49 4.032.534 10.335-.918 39.206-14.498 46.688-17.153 9.683-28.617 11.976-28.775 12.083-2.103-.05-3.805 1.518-4.134 3.417-.231 2.044 1.094 3.667 3.197 3.716.51.075 13.663-2.1 32.969-13.025" fill="#009EC0" fill-rule="nonzero"/></g></svg>