<?xml version="1.0" encoding="utf-8"?>
<!-- Generator: Adobe Illustrator 21.0.0, SVG Export Plug-In . SVG Version: 6.00 Build 0)  -->
<svg version="1.1" id="Layer_1" xmlns="http://www.w3.org/2000/svg" x="0px" y="0px"
	 viewBox="0 0 42 42" style="enable-background:new 0 0 42 42;" xml:space="preserve">
<style type="text/css">
	.st0{fill:#FFFFFF;}
	.st1{fill:#D5393A;}
</style>
<circle class="st0" cx="21" cy="21" r="21"/>
<path id="Shape" class="st1" d="M42,21c0,3.8-0.9,7.3-2.8,10.5s-4.4,5.8-7.6,7.6S24.8,42,21,42c-2,0-4-0.3-6-0.9
	c1.1-1.7,1.8-3.2,2.1-4.5c0.2-0.6,0.7-2.5,1.5-5.8c0.4,0.7,1,1.3,2,1.8s2,0.8,3.1,0.8c2.2,0,4.2-0.6,5.9-1.9c1.7-1.2,3.1-3,4-5.2
	s1.4-4.6,1.4-7.4c0-2.1-0.5-4-1.6-5.9s-2.7-3.3-4.7-4.5s-4.4-1.7-7-1.7c-1.9,0-3.7,0.3-5.4,0.8s-3.1,1.2-4.2,2.1s-2.2,1.9-3,3
	s-1.4,2.3-1.8,3.5S6.8,19,6.8,20.2c0,1.9,0.4,3.6,1.1,5s1.8,2.5,3.2,3c0.5,0.2,0.9,0,1-0.5c0-0.1,0.1-0.4,0.2-0.8s0.2-0.7,0.2-0.8
	c0.1-0.4,0-0.8-0.3-1.2c-0.9-1.1-1.4-2.5-1.4-4.1c0-2.8,1-5.1,2.9-7.1s4.4-3,7.5-3c2.8,0,4.9,0.7,6.4,2.2s2.3,3.4,2.3,5.8
	c0,3.1-0.6,5.7-1.9,7.9s-2.8,3.3-4.8,3.3c-1.1,0-2-0.4-2.7-1.2s-0.9-1.7-0.6-2.9c0.1-0.6,0.4-1.5,0.7-2.6s0.6-2,0.8-2.8
	s0.3-1.5,0.3-2.1c0-0.9-0.2-1.7-0.7-2.3s-1.2-0.9-2.1-0.9c-1.1,0-2.1,0.5-2.9,1.6c-0.8,1-1.2,2.3-1.2,3.9c0,1.3,0.2,2.4,0.7,3.3
	l-2.7,11.4c-0.3,1.3-0.4,2.9-0.4,4.8c-3.8-1.7-6.8-4.2-9.1-7.7S0,25.2,0,21c0-3.8,0.9-7.3,2.8-10.5s4.4-5.8,7.6-7.6S17.2,0,21,0
	s7.3,0.9,10.5,2.8s5.8,4.4,7.6,7.6S42,17.2,42,21z"/>
</svg>
