<svg xmlns="http://www.w3.org/2000/svg" viewBox="0 0 42 42"><circle cx="21" cy="21" r="21" fill="#fff"/><path d="M42 21c0 3.8-.9 7.3-2.8 10.5s-4.4 5.8-7.6 7.6S24.8 42 21 42c-2 0-4-.3-6-.9 1.1-1.7 1.8-3.2 2.1-4.5.2-.6.7-2.5 1.5-5.8.4.7 1 1.3 2 1.8s2 .8 3.1.8c2.2 0 4.2-.6 5.9-1.9 1.7-1.2 3.1-3 4-5.2s1.4-4.6 1.4-7.4c0-2.1-.5-4-1.6-5.9s-2.7-3.3-4.7-4.5-4.4-1.7-7-1.7c-1.9 0-3.7.3-5.4.8s-3.1 1.2-4.2 2.1-2.2 1.9-3 3-1.4 2.3-1.8 3.5-.5 2.8-.5 4c0 1.9.4 3.6 1.1 5s1.8 2.5 3.2 3c.5.2.9 0 1-.5 0-.1.1-.4.2-.8s.2-.7.2-.8c.1-.4 0-.8-.3-1.2-.9-1.1-1.4-2.5-1.4-4.1 0-2.8 1-5.1 2.9-7.1s4.4-3 7.5-3c2.8 0 4.9.7 6.4 2.2s2.3 3.4 2.3 5.8c0 3.1-.6 5.7-1.9 7.9s-2.8 3.3-4.8 3.3c-1.1 0-2-.4-2.7-1.2s-.9-1.7-.6-2.9c.1-.6.4-1.5.7-2.6s.6-2 .8-2.8.3-1.5.3-2.1c0-.9-.2-1.7-.7-2.3s-1.2-.9-2.1-.9c-1.1 0-2.1.5-2.9 1.6-.8 1-1.2 2.3-1.2 3.9 0 1.3.2 2.4.7 3.3l-2.7 11.4c-.3 1.3-.4 2.9-.4 4.8-3.8-1.7-6.8-4.2-9.1-7.7S0 25.2 0 21c0-3.8.9-7.3 2.8-10.5s4.4-5.8 7.6-7.6S17.2 0 21 0s7.3.9 10.5 2.8 5.8 4.4 7.6 7.6S42 17.2 42 21z" fill="#d5393a"/></svg>