<?xml version="1.0" encoding="utf-8"?>
<!-- Generator: Adobe Illustrator 21.0.0, SVG Export Plug-In . SVG Version: 6.00 Build 0)  -->
<svg version="1.1" id="Layer_1" xmlns="http://www.w3.org/2000/svg" xmlns:xlink="http://www.w3.org/1999/xlink" x="0px" y="0px"
	 viewBox="0 0 42 42" style="enable-background:new 0 0 42 42;" xml:space="preserve">
<style type="text/css">
	.st0{fill:#00BBF1;}
	.st1{fill:#FFFFFF;}
</style>
<path id="path-1_1_" class="st0" d="M0,21C0,9.4,9.4,0,21,0c11.6,0,21,9.4,21,21c0,11.6-9.4,21-21,21C9.4,42,0,32.6,0,21z"/>
<path class="st1" d="M25,12c0.1-0.2,0.3-0.5,0.3-0.8c-0.9,0.6-1.7,1.4-2.3,2.3c-1.2,1.7-1.9,3.6-2.7,5.4c-0.7-0.7-1.5-1.5-2.4-2
	c-2.6-1.4-5.3-2.6-8.1-3.6c-0.1,1.8,1.2,3.2,2.7,4c-0.6,0-1.3,0.1-1.9,0.2c0.1,0.7,0.5,1.4,1,1.9c0.7,0.7,1.6,1,2.5,1.3
	c-0.8,0.1-1.6,0.3-2.1,0.9c0.7,1.4,2.4,2.1,3.9,1.9c-0.5,0.2-1,0.5-1.2,1c-0.2,0.4-0.1,0.9,0.2,1.2c0.5,0.5,1.2,0.6,1.9,0.6
	c-1.1,1.1-2.4,1.9-3.8,2.3C10.7,29.3,8,28.8,6,27.4c-0.2-0.1-0.4-0.3-0.6-0.5c2.6,3.6,6.9,5.8,11.3,6.1c4.6,0.3,9.3-1.2,12.7-4.3
	c1.8-1.6,3.1-3.7,3.7-6.1c1.4,0,2.8-0.4,3.8-1.4c-1.2,0.1-2.4,0.1-3.5-0.4c1.3-0.1,2.8-0.7,3.4-2c-1.2,0.5-2.5,0.7-3.7,0.4
	c-0.3-1.8-1.3-3.4-2.6-4.6c-1.2-1-2.7-1.6-4.2-1.4c0.7-0.4,1.6-0.4,2.3-0.8c0.2-0.1,0.5-0.3,0.4-0.6c-0.1-0.2-0.3-0.2-0.5-0.2
	c-0.7,0-1.3,0.3-1.9,0.5c0.4-0.2,0.9-0.5,1-1C26.5,11.1,25.7,11.5,25,12z"/>
</svg>
