<?xml version="1.0" encoding="UTF-8" standalone="no"?>
<svg width="20px" height="20px" viewBox="0 0 20 20" version="1.1" xmlns="http://www.w3.org/2000/svg" xmlns:xlink="http://www.w3.org/1999/xlink">
    <!-- Generator: Sketch 39.1 (31720) - http://www.bohemiancoding.com/sketch -->
    <title>Combined Shape</title>
    <desc>Created with Sketch.</desc>
    <defs></defs>
    <g id="Page-1" stroke="none" stroke-width="1" fill="none" fill-rule="evenodd">
        <g id="Artboard" fill="#333333">
            <path d="M10,20 C15.5228475,20 20,15.5228475 20,10 C20,4.4771525 15.5228475,0 10,0 C4.4771525,0 0,4.4771525 0,10 C0,15.5228475 4.4771525,20 10,20 Z M7.27916131,15.2881596 C7.67163094,15.6812982 8.30035294,15.6897542 8.69368894,15.2968194 L17.2961015,6.70318058 C17.6848539,6.31482467 17.6875,5.6875 17.2892435,5.28924346 L16.7107565,4.71075654 C16.3182165,4.31821654 15.6859903,4.31360948 15.2891473,4.70994663 L7.98979044,12 L4.70411029,8.70591205 C4.31524091,8.31604759 3.6875,8.3125 3.28924346,8.71075654 L2.71075654,9.28924346 C2.31821654,9.68178346 2.32203715,10.3225861 2.71062913,10.7118404 L7.27916131,15.2881596 Z" id="Combined-Shape"></path>
        </g>
    </g>
</svg>
