<!DOCTYPE svg PUBLIC "-//W3C//DTD SVG 1.1//EN" "http://www.w3.org/Graphics/SVG/1.1/DTD/svg11.dtd">

<!-- This Source Code Form is subject to the terms of the Mozilla Public
   - License, v. 2.0. If a copy of the MPL was not distributed with this
   - file, You can obtain one at http://mozilla.org/MPL/2.0/. -->

<svg version="1.1"
     xmlns="http://www.w3.org/2000/svg"
     xmlns:xlink="http://www.w3.org/1999/xlink"
     width="21"
     height="21"
     viewBox="0 0 21 21"
     fill="#858585">

  <path d="M10.5,-1.77635684e-15 C4.7105862,-1.77635684e-15 -1.77635684e-15,4.71006678 -1.77635684e-15,10.5 C-1.77635684e-15,16.2899332 4.7105862,21 10.5,21 C16.2894138,21 21,16.2894138 21,10.5 C21,4.7105862 16.2894138,-1.77635684e-15 10.5,-1.77635684e-15 L10.5,-1.77635684e-15 Z M10.5,19.8946822 C5.31986149,19.8946822 1.10531783,15.6806579 1.10531783,10.5 C1.10531783,5.31934207 5.31986149,1.10531783 10.5,1.10531783 C15.6801385,1.10531783 19.8946822,5.31986149 19.8946822,10.5 C19.8946822,15.6801385 15.6801385,19.8946822 10.5,19.8946822 Z M9.94734108,9.94734108 L7.43076923,9.94734108 L7.43076923,11.0526589 L11.0526589,11.0526589 L11.0526589,5.10066782 L9.94734108,5.10066782 L9.94734108,9.94734108 Z M10.1686124,1.7203067 L10.831907,1.7203067 L10.831907,3.60422953 L10.1686124,3.60422953 L10.1686124,1.7203067 Z M10.1686124,17.526144 L10.831907,17.526144 L10.831907,19.4100668 L10.1686124,19.4100668 L10.1686124,17.526144 Z M17.4606975,10.2335395 L19.3446203,10.2335395 L19.3446203,10.896834 L17.4606975,10.896834 L17.4606975,10.2335395 Z M1.65486025,10.2335395 L3.53878308,10.2335395 L3.53878308,10.896834 L1.65486025,10.896834 L1.65486025,10.2335395 Z M6.72545782,4.70856401 L5.78085891,3.07859397 L6.35474139,2.74601807 L7.29934029,4.3759881 L6.72545782,4.70856401 Z M14.2741421,16.4215323 L15.218741,18.0515023 L14.6448586,18.3840783 L13.7002597,16.7541082 L14.2741421,16.4215323 Z M16.6885212,7.3620596 L16.3562106,6.78804447 L17.9865574,5.84419913 L18.318868,6.41821426 L16.6885212,7.3620596 Z M4.31151358,13.7681287 L4.64382417,14.3421438 L3.01347735,15.2859891 L2.68116677,14.711974 L4.31151358,13.7681287 Z M4.29510107,7.39094538 L2.66060962,6.45407055 L2.99020771,5.87904682 L4.62469916,6.81592164 L4.29510107,7.39094538 Z M16.7031451,13.7386511 L18.3382756,14.6755957 L18.0087438,15.2506858 L16.3736133,14.3137411 L16.7031451,13.7386511 Z M14.2491052,4.68965538 L13.674214,4.35992474 L14.6114656,2.72581008 L15.1863568,3.05554072 L14.2491052,4.68965538 Z M6.75103143,16.4400216 L7.32592261,16.7697522 L6.38867101,18.4038669 L5.81377983,18.0741362 L6.75103143,16.4400216 Z"/>

</svg>
