<svg xmlns="http://www.w3.org/2000/svg" width="95" height="95"><defs><rect id="a" width="94.602" height="94.602" rx="47.301"/></defs><g fill="none" fill-rule="evenodd"><mask id="b" fill="#fff"><use href="#a"/></mask><use fill="#E1E1E6" href="#a"/><path fill="#C8C8CC" d="M55.913 26.328h.006-.006zm0-2.328c-.177 0-.355.04-.52.122-.087.044-8.607 4.288-12.448 4.837-2.835.404-10.467 2.551-15.197 3.926l-1.843-1.844a8.095 8.095 0 0 0-5.761-2.387 8.092 8.092 0 0 0-5.761 2.386c-3.176 3.176-3.178 8.346-.001 11.521l2.82 2.823c-.701 6.229-.898 16.878-.514 28.116-1.906 2.551-4.635 7.172-3.6 11.676.407 1.775 1.561 4.193 4.722 5.918.693 7.02 1.953 15.954 4.1 20.25.44 2.13.905 3.901 1.384 5.268.819 2.33 3.73 9.938 6.856 9.938.436 0 .846-.146 1.184-.42.538-.438 1.092-.89.913-10.14 4.661.62 10.593.973 16.54.973 4.061 0 9.776-.166 14.82-.913-.176 9.192.378 9.643.914 10.08.338.274.748.42 1.184.42 3.127 0 6.038-7.607 6.857-9.938.724-2.061 1.406-5.014 2.028-8.778 1.049-4.402 2.151-10.589 3.036-17.041 2.494-2.312 4.114-5.128 4.469-7.785.554-4.152-1.335-7.011-2.763-8.53.81-11.344.72-21.428-.271-29.99l1.538-1.54a8.09 8.09 0 0 0 2.387-5.76 8.09 8.09 0 0 0-2.387-5.76 8.09 8.09 0 0 0-5.76-2.386 8.09 8.09 0 0 0-5.76 2.387l-.869.868-8.224-2.207v-1.726c0-.365-.172-.71-.465-.932a1.165 1.165 0 0 0-1.027-.184L55.943 28l1.036-2.368A1.164 1.164 0 0 0 55.913 24zm-2.037 5.82l4.946-1.456v2.62l9.736 2.61 1.344-1.342a6.956 6.956 0 0 1 4.937-2.046c1.788 0 3.575.682 4.937 2.046a6.98 6.98 0 0 1 0 9.874l-1.937 1.938c1.18 9.73 1.046 20.649.294 30.857 1.698 1.63 3.291 4.31 2.808 7.933-.34 2.552-2.032 5.26-4.41 7.361-.994 7.337-2.153 13.492-3.084 17.39-.523 3.178-1.184 6.346-1.984 8.621-2.066 5.887-4.437 9.16-5.758 9.16a.697.697 0 0 1-.449-.158c-.556-.453-.58-5.454-.454-10.55-4.425.777-10.201 1.121-16.014 1.121-6.474 0-12.991-.427-17.735-1.155.127 5.108.103 10.13-.454 10.584a.692.692 0 0 1-.45.158c-1.32 0-3.692-3.274-5.757-9.16-.513-1.465-.972-3.3-1.372-5.27-1.887-3.641-3.238-11.448-4.112-20.606-3.145-1.511-4.3-3.753-4.686-5.434-.987-4.3 1.97-8.876 3.644-11.041-.412-11.604-.193-22.818.559-28.915l-3.22-3.222a6.984 6.984 0 0 1 9.877-9.874l2.33 2.331c4.466-1.303 12.776-3.667 15.698-4.085 4.074-.582 12.803-4.946 12.803-4.946l-2.037 4.655z" mask="url(#b)"/><path fill="#E9E9ED" d="M55.922 26.275h.006-.006zm-2.04 3.495l4.953-1.456v2.621l9.746 2.615 1.345-1.345a6.964 6.964 0 0 1 4.943-2.048c1.79 0 3.578.683 4.942 2.048a6.987 6.987 0 0 1 0 9.885l-1.94 1.94c1.183 9.74 1.048 20.672.295 30.89 1.7 1.633 3.295 4.315 2.812 7.942-.34 2.555-2.035 5.267-4.416 7.37-.995 7.344-2.155 13.506-3.087 17.408-.524 3.181-1.186 6.353-1.986 8.63-2.068 5.894-4.442 9.17-5.764 9.17a.698.698 0 0 1-.45-.158c-.557-.454-.581-5.46-.454-10.562-4.43.778-10.212 1.123-16.032 1.123-6.48 0-13.005-.428-17.754-1.157.127 5.114.104 10.141-.454 10.596a.693.693 0 0 1-.45.158c-1.323 0-3.697-3.277-5.764-9.17-.514-1.466-.973-3.304-1.374-5.275-1.888-3.646-3.241-11.461-4.116-20.628-3.148-1.514-4.305-3.758-4.69-5.44-.989-4.305 1.972-8.887 3.647-11.054-.412-11.616-.193-22.842.56-28.946l-3.224-3.225a6.992 6.992 0 0 1 9.888-9.885l2.332 2.334c4.471-1.305 12.79-3.671 15.716-4.09 4.077-.582 12.816-4.951 12.816-4.951l-2.04 4.66z" mask="url(#b)"/><g mask="url(#b)"><path fill="#F0F0F0" d="M26.4 43.745c-8.47 5.664-3.176 58.885 2.235 65.493 8.823 10.857 35.762 10.031 40.938-2.124.823-2.006 8.94-40.122 2.823-61.127-2-6.727-25.645-15.695-45.996-2.242z"/><path fill="#C8C8CC" fill-rule="nonzero" d="M42.6 64.233a.87.87 0 0 1 .93-.991c.096.022 5.483 1.156 6.238-.379.572-1.175.407-2.04.407-2.04.015-.5.41-.911.835-1.014.52-.081.93.315 1.032.74.205.853.584 2.248.994 2.644.82.792 2.92-.127 4.82-.59 0 0 1.027-.132 1.104.859.114.53-.441 1.002-.857 1.109-2.029.799-5.26 1.192-6.489.003-.073-.117-.314-.374-.314-.374-1.793 2.504-7.33.965-7.52.921-.19-.044-.98-.123-1.18-.888z"/><path fill="#C8C8CC" d="M45.437 58.327c-.647.691 4.252 1.853 4.878 1.719.933-.2 4.936-3.19 4.405-4.636-.285-.775-6.726.184-9.283 2.917"/><path fill="#C8C8CC" d="M45.546 58.433h.01-.01zm1.613-.027c1.053.362 2.684.743 3.133.72.633-.201 2.667-1.837 3.333-2.834-1.414.062-4.5.72-6.466 2.114zm3.23 2.78c-1.21 0-5.111-.83-5.774-2.004a1.221 1.221 0 0 1 .173-1.459c2.427-2.594 8.007-3.815 9.869-3.434.739.15 1.03.556 1.145.87.214.581.124 1.236-.266 1.946-.935 1.694-3.816 3.83-4.895 4.061a1.27 1.27 0 0 1-.252.02zm-13.96-6.035c2.552 0 3.844 1.946 3.898 2.03a1.038 1.038 0 0 1-1.742 1.128c-.006-.011-.741-1.083-2.156-1.083-1.393 0-2.122 1.036-2.161 1.092a1.038 1.038 0 1 1-1.736-1.137c.054-.084 1.346-2.03 3.897-2.03zm27.887 0c2.551 0 3.843 1.946 3.897 2.03a1.038 1.038 0 0 1-1.742 1.128c-.006-.011-.74-1.083-2.155-1.083-1.394 0-2.122 1.036-2.162 1.092a1.038 1.038 0 1 1-1.736-1.137c.054-.084 1.346-2.03 3.898-2.03zm-28.193-7.042c.67 0 1.216.616 1.216 1.375v3.08c0 .76-.545 1.376-1.216 1.376-.67 0-1.216-.617-1.216-1.375v-3.081c-.003-.759.54-1.375 1.216-1.375m29.409 1.375v3.08c0 .76-.545 1.376-1.216 1.376-.67 0-1.216-.617-1.216-1.375v-3.081c0-.759.54-1.375 1.216-1.375.67 0 1.216.616 1.216 1.375z"/></g></g></svg>