<?xml version="1.0" encoding="UTF-8" standalone="no"?>
<svg width="20px" height="20px" viewBox="0 0 20 20" version="1.1" xmlns="http://www.w3.org/2000/svg" xmlns:xlink="http://www.w3.org/1999/xlink" xmlns:sketch="http://www.bohemiancoding.com/sketch/ns">
    <!-- Generator: Sketch 3.2.2 (9983) - http://www.bohemiancoding.com/sketch -->
    <title>delete-thumbnail</title>
    <desc>Created with Sketch.</desc>
    <defs></defs>
    <g id="Page-1" stroke="none" stroke-width="1" fill="none" fill-rule="evenodd" sketch:type="MSPage">
        <path d="M5.00502525,14.0050253 L4.51005051,14.5 L5.5,15.4899495 L5.99497475,14.9949747 L14.9949747,5.99497475 L15.4899495,5.5 L14.5,4.51005051 L14.0050253,5.00502525 L5.00502525,14.0050253 Z" id="Line" fill="#FF0000" sketch:type="MSShapeGroup"></path>
        <path d="M5.99497475,5.00502525 L5.5,4.51005051 L4.51005051,5.5 L5.00502525,5.99497475 L14.0050253,14.9949747 L14.5,15.4899495 L15.4899495,14.5 L14.9949747,14.0050253 L5.99497475,5.00502525 Z" id="Line-2" fill="#FF0000" sketch:type="MSShapeGroup"></path>
        <path d="M20,10 C20,4.4771525 15.5228475,0 10,0 C4.4771525,0 0,4.4771525 0,10 C0,15.5228475 4.4771525,20 10,20 C15.5228475,20 20,15.5228475 20,10 Z M1.5,10 C1.5,5.30557963 5.30557963,1.5 10,1.5 C14.6944204,1.5 18.5,5.30557963 18.5,10 C18.5,14.6944204 14.6944204,18.5 10,18.5 C5.30557963,18.5 1.5,14.6944204 1.5,10 Z" id="Oval-1" fill="#FF0000" sketch:type="MSShapeGroup"></path>
    </g>
</svg>