<svg width="120" height="40" xmlns="http://www.w3.org/2000/svg"><g fill="none"><path d="M19.1 22l-4.2-4.1c-.5-.5-1.3-.5-1.8 0s-.5 1.3 0 1.8l6.2 6.2c.5.5 1.3.5 1.8 0l6.2-6.2c.5-.5.5-1.3 0-1.8s-1.3-.5-1.8 0L21.6 22V11.2c0-.6-.6-1.2-1.3-1.2-.7 0-1.2.6-1.2 1.2V22zM14 30c-.7 0-1.2-.6-1.2-1.2s.6-1.2 1.2-1.2h12.5c.7 0 1.2.6 1.2 1.2s-.5 1.2-1.2 1.2H14z" fill="#3E3D40"/><path d="M59.1 22l-4.2-4.1c-.5-.5-1.3-.5-1.8 0s-.5 1.3 0 1.8l6.2 6.2c.5.5 1.3.5 1.8 0l6.2-6.2c.5-.5.5-1.3 0-1.8s-1.3-.5-1.8 0L61.6 22V11.2c0-.6-.6-1.2-1.3-1.2-.7 0-1.2.6-1.2 1.2V22zM54 30c-.7 0-1.2-.6-1.2-1.2s.6-1.2 1.2-1.2h12.5c.7 0 1.2.6 1.2 1.2s-.5 1.2-1.2 1.2H54z" fill="#00D1E6"/><path d="M99.1 22l-4.2-4.1c-.5-.5-1.3-.5-1.8 0s-.5 1.3 0 1.8l6.2 6.2c.5.5 1.3.5 1.8 0l6.2-6.2c.5-.5.5-1.3 0-1.8s-1.3-.5-1.8 0l-3.9 4.1V11.2c0-.6-.6-1.2-1.3-1.2-.7 0-1.2.6-1.2 1.2V22zM94 30c-.7 0-1.2-.6-1.2-1.2s.6-1.2 1.2-1.2h12.5c.7 0 1.2.6 1.2 1.2s-.5 1.2-1.2 1.2H94z" fill="#009EC0"/></g></svg>