<?xml version="1.0" encoding="UTF-8"?>
<svg width="120px" height="40px" viewBox="0 0 120 40" version="1.1" xmlns="http://www.w3.org/2000/svg" xmlns:xlink="http://www.w3.org/1999/xlink">
    <!-- Generator: Sketch 46.1 (44463) - http://www.bohemiancoding.com/sketch -->
    <title>dl-sprite</title>
    <desc>Created with Sketch.</desc>
    <defs></defs>
    <g id="Page-1" stroke="none" stroke-width="1" fill="none" fill-rule="evenodd">
        <g id="dl-sprite" fill-rule="nonzero">
            <g id="download-dark" transform="translate(12.000000, 10.000000)" fill="#3E3D40">
                <path d="M7.1,12 L2.9,7.9 C2.4,7.4 1.6,7.4 1.1,7.9 C0.6,8.4 0.6,9.2 1.1,9.7 L7.3,15.9 C7.8,16.4 8.6,16.4 9.1,15.9 L15.3,9.7 C15.8,9.2 15.8,8.4 15.3,7.9 C14.8,7.4 14,7.4 13.5,7.9 L9.6,12 L9.6,1.2 C9.6,0.6 9,0 8.3,0 C7.6,0 7.1,0.6 7.1,1.2 L7.1,12 Z M2,20 C1.3,20 0.8,19.4 0.8,18.8 C0.8,18.2 1.4,17.6 2,17.6 L14.5,17.6 C15.2,17.6 15.7,18.2 15.7,18.8 C15.7,19.4 15.2,20 14.5,20 L2,20 Z" id="Combined-Shape"></path>
            </g>
            <g id="download-active" transform="translate(52.000000, 10.000000)" fill="#00D1E6">
                <path d="M7.1,12 L2.9,7.9 C2.4,7.4 1.6,7.4 1.1,7.9 C0.6,8.4 0.6,9.2 1.1,9.7 L7.3,15.9 C7.8,16.4 8.6,16.4 9.1,15.9 L15.3,9.7 C15.8,9.2 15.8,8.4 15.3,7.9 C14.8,7.4 14,7.4 13.5,7.9 L9.6,12 L9.6,1.2 C9.6,0.6 9,0 8.3,0 C7.6,0 7.1,0.6 7.1,1.2 L7.1,12 Z M2,20 C1.3,20 0.8,19.4 0.8,18.8 C0.8,18.2 1.4,17.6 2,17.6 L14.5,17.6 C15.2,17.6 15.7,18.2 15.7,18.8 C15.7,19.4 15.2,20 14.5,20 L2,20 Z" id="Combined-Shape"></path>
            </g>
            <g id="download-hover" transform="translate(92.000000, 10.000000)" fill="#009EC0">
                <path d="M7.1,12 L2.9,7.9 C2.4,7.4 1.6,7.4 1.1,7.9 C0.6,8.4 0.6,9.2 1.1,9.7 L7.3,15.9 C7.8,16.4 8.6,16.4 9.1,15.9 L15.3,9.7 C15.8,9.2 15.8,8.4 15.3,7.9 C14.8,7.4 14,7.4 13.5,7.9 L9.6,12 L9.6,1.2 C9.6,0.6 9,0 8.3,0 C7.6,0 7.1,0.6 7.1,1.2 L7.1,12 Z M2,20 C1.3,20 0.8,19.4 0.8,18.8 C0.8,18.2 1.4,17.6 2,17.6 L14.5,17.6 C15.2,17.6 15.7,18.2 15.7,18.8 C15.7,19.4 15.2,20 14.5,20 L2,20 Z" id="Combined-Shape"></path>
            </g>
        </g>
    </g>
</svg>