<?xml version="1.0" encoding="utf-8"?>
<!-- Generator: Adobe Illustrator 21.1.0, SVG Export Plug-In . SVG Version: 6.00 Build 0)  -->
<svg version="1.1" id="Layer_1" xmlns="http://www.w3.org/2000/svg" xmlns:xlink="http://www.w3.org/1999/xlink" x="0px" y="0px"
	 viewBox="0 0 15 15" style="enable-background:new 0 0 15 15;" xml:space="preserve">
<style type="text/css">
	.st0{fill:#F9F9FA;}
	.st1{fill:#00FEFF;}
	.st2{fill:#005A71;}
</style>
<circle id="Oval" class="st0" cx="7.5" cy="7.5" r="7.5"/>
<circle id="Oval_1_" class="st1" cx="7.5" cy="7.5" r="5.6"/>
<path id="Fill-1" class="st2" d="M7.5,2.8c0.3,0,0.7,0.2,0.8,0.7L8.7,5l0.1,0.3l0.3-0.1l1.5-0.5c0.1,0,0.2,0,0.3,0
	c0.3,0,0.6,0.2,0.8,0.5c0.1,0.3,0.1,0.7-0.2,0.9l-1.2,1.1l-0.2,0.2l0.2,0.2l1.2,1.1c0.3,0.2,0.3,0.6,0.2,0.9
	c-0.1,0.3-0.4,0.5-0.8,0.5c-0.1,0-0.2,0-0.3,0L9.1,9.8L8.8,9.7L8.7,10l-0.4,1.5c-0.1,0.5-0.5,0.7-0.8,0.7S6.8,12,6.7,11.5L6.3,10
	L6.2,9.7L5.9,9.8l-1.5,0.5c-0.1,0-0.2,0-0.3,0c-0.3,0-0.6-0.2-0.8-0.5C3.2,9.4,3.3,9.1,3.6,8.8l1.2-1.1l0.2-0.2L4.7,7.3L3.6,6.2
	C3.3,5.9,3.2,5.6,3.3,5.3c0.1-0.3,0.4-0.5,0.8-0.5c0.1,0,0.2,0,0.3,0l1.5,0.5l0.3,0.1L6.3,5l0.4-1.5C6.8,3,7.2,2.8,7.5,2.8"/>
</svg>
