<svg xmlns="http://www.w3.org/2000/svg" viewBox="0 0 15 15"><circle cx="7.5" cy="7.5" r="7.5" fill="#f9f9fa"/><circle cx="7.5" cy="7.5" r="5.6" fill="#00feff"/><path d="M7.5 2.8c.3 0 .7.2.8.7L8.7 5l.1.3.3-.1 1.5-.5h.3c.3 0 .6.2.8.5.1.3.1.7-.2.9l-1.2 1.1-.2.2.2.2 1.2 1.1c.3.2.3.6.2.9-.1.3-.4.5-.8.5h-.3l-1.5-.3-.3-.1-.1.3-.4 1.5c-.1.5-.5.7-.8.7s-.7-.2-.8-.7L6.3 10l-.1-.3-.3.1-1.5.5h-.3c-.3 0-.6-.2-.8-.5-.1-.4 0-.7.3-1l1.2-1.1.2-.2-.3-.2-1.1-1.1c-.3-.3-.4-.6-.3-.9.1-.3.4-.5.8-.5h.3l1.5.5.3.1.1-.4.4-1.5c.1-.5.5-.7.8-.7" fill="#005a71"/></svg>