<svg xmlns="http://www.w3.org/2000/svg" width="16" height="16"><path d="M13.223 0H3.777A2.777 2.777 0 0 0 1 2.777v1.281a3.487 3.487 0 0 0 0 4.889v.276a2.75 2.75 0 0 0 .11.731 3.492 3.492 0 1 0 5.862 2.826l1.966 1.966a2.931 2.931 0 0 0 4.145 0l.049-.049.707-.707-.707-.707L11.849 12h1.374A2.777 2.777 0 0 0 16 9.223V2.777A2.777 2.777 0 0 0 13.223 0zM11.01 14.6a1.936 1.936 0 0 1-.369-.035 1.942 1.942 0 0 0 .369.035z" fill="#008ea4"/><g fill="#fff"><path d="M8.587 10.153l-1.4 1.426 2.461 2.461a1.931 1.931 0 0 0 2.731 0l.049-.049z"/><path d="M12.308 5.108l-.049-.049a1.931 1.931 0 0 0-2.731 0L6.511 8.076l-.683-.683a2.508 2.508 0 1 0-1.4 1.425l.672.672-.686.686a2.518 2.518 0 1 0 1.413 1.415zM3.5 7.625A1.125 1.125 0 1 1 4.625 6.5 1.125 1.125 0 0 1 3.5 7.625zm0 6A1.125 1.125 0 1 1 4.625 12.5 1.125 1.125 0 0 1 3.5 13.625z"/></g><g fill="#fff"><path opacity=".6" d="M6 1h2v1H6zm3 0h2v1H9z"/><path d="M4 1.03a2 2 0 0 0-2.027 1.942l1 .028A1 1 0 0 1 4 2.028V2h1V1H4z" fill-rule="evenodd" opacity=".6"/><path opacity=".6" d="M14 5h1v2h-1z"/><path d="M14 9a1 1 0 0 1-1 1h-1v1h1a2 2 0 0 0 2-2V8h-1zm-1-8h-1v1h1a1 1 0 0 1 1 1v1h1V3a2 2 0 0 0-2-2z" fill-rule="evenodd" opacity=".6"/></g></svg>