<svg xmlns="http://www.w3.org/2000/svg" width="16" height="16" viewBox="0 0 16 16">
  <title>screenshotsfav</title>
  <g>
    <path d="M13.223,0H3.777A2.777,2.777,0,0,0,1,2.777V4.058A3.487,3.487,0,0,0,1,8.947v.276a2.75,2.75,0,0,0,.11.731A3.492,3.492,0,1,0,6.972,12.78l1.966,1.966a2.931,2.931,0,0,0,4.145,0l.049-.049.707-.707-.707-.707L11.849,12h1.374A2.777,2.777,0,0,0,16,9.223V2.777A2.777,2.777,0,0,0,13.223,0ZM11.01,14.6a1.936,1.936,0,0,1-.369-.035,1.942,1.942,0,0,0,.369.035Z" fill="#008ea4"/>
    <g>
      <path d="M8.587,10.153l-1.4,1.426,2.461,2.461a1.931,1.931,0,0,0,2.731,0l.049-.049Z" fill="#fff"/>
      <path d="M12.308,5.108l-.049-.049a1.931,1.931,0,0,0-2.731,0L6.511,8.076l-.683-.683a2.508,2.508,0,1,0-1.4,1.425l.672.672-.686.686a2.518,2.518,0,1,0,1.413,1.415ZM3.5,7.625A1.125,1.125,0,1,1,4.625,6.5,1.125,1.125,0,0,1,3.5,7.625Zm0,6A1.125,1.125,0,1,1,4.625,12.5,1.125,1.125,0,0,1,3.5,13.625Z" fill="#fff"/>
    </g>
    <g>
      <rect x="6" y="1" width="2" height="1" fill="#fff" opacity="0.6"/>
      <rect x="9" y="1" width="2" height="1" fill="#fff" opacity="0.6"/>
      <path d="M4,1.03A2,2,0,0,0,1.973,2.972l1,.028A1,1,0,0,1,4,2.028V2H5V1H4Z" fill="#fff" fill-rule="evenodd" opacity="0.6"/>
      <rect x="14" y="5" width="1" height="2" fill="#fff" opacity="0.6"/>
      <path d="M14,9a1,1,0,0,1-1,1H12v1h1a2,2,0,0,0,2-2V8H14Z" fill="#fff" fill-rule="evenodd" opacity="0.6"/>
      <path d="M13,1H12V2h1a1,1,0,0,1,1,1V4h1V3A2,2,0,0,0,13,1Z" fill="#fff" fill-rule="evenodd" opacity="0.6"/>
    </g>
  </g>
</svg>
