<svg xmlns="http://www.w3.org/2000/svg" width="24" height="24"><defs><radialGradient id="a" cx="82.859%" cy="18.698%" r="181.023%" fx="82.859%" fy="18.698%" gradientTransform="matrix(1 0 0 .36288 0 .12)"><stop offset="0%" stop-color="#FFDE00"/><stop offset="28%" stop-color="#FFBF00"/><stop offset="42.9%" stop-color="#FF8E00"/><stop offset="76.9%" stop-color="#FF272D"/><stop offset="87.2%" stop-color="#E0255A"/><stop offset="95.3%" stop-color="#CC2477"/><stop offset="100%" stop-color="#C42482"/></radialGradient><radialGradient id="b" cx="70.449%" cy="13.007%" r="109.56%" fx="70.449%" fy="13.007%" gradientTransform="matrix(.99993 -.01161 .01167 .99463 -.001 .009)"><stop offset="0%" stop-color="#00CCDA"/><stop offset="22%" stop-color="#0083FF"/><stop offset="26.1%" stop-color="#007AF9"/><stop offset="33%" stop-color="#0060E8"/><stop offset="33.3%" stop-color="#005FE7"/><stop offset="43.8%" stop-color="#2639AD"/><stop offset="52.2%" stop-color="#401E84"/><stop offset="100%" stop-color="#4A1475"/></radialGradient><linearGradient id="c" x1="57.339%" x2="35.146%" y1="75.22%" y2="6.805%"><stop offset="0%" stop-color="#000F43" stop-opacity=".4"/><stop offset="48.5%" stop-color="#001962" stop-opacity=".173"/><stop offset="100%" stop-color="#002079" stop-opacity="0"/></linearGradient><radialGradient id="d" cx="130.293%" cy="-15.673%" r="139.815%" fx="130.293%" fy="-15.673%" gradientTransform="matrix(.92332 0 0 1 .1 0)"><stop offset="0%" stop-color="#FFEA00"/><stop offset="49.7%" stop-color="#FF272D"/><stop offset="100%" stop-color="#C42482"/></radialGradient><linearGradient id="e" x1="109.638%" x2="58.396%" y1="-16.193%" y2="74.642%"><stop offset="0%" stop-color="#FF9714"/><stop offset="100%" stop-color="#FF2530"/></linearGradient><radialGradient id="f" cx="100%" cy="16.872%" r="198.414%" fx="100%" fy="16.872%" gradientTransform="matrix(-.504 .32778 -.17486 -.94475 1.534 0)"><stop offset="0%" stop-color="#C6237F"/><stop offset="100%" stop-color="#620500"/></radialGradient><radialGradient id="g" cx="79.667%" cy="34.895%" r="89.668%" fx="79.667%" fy="34.895%" gradientTransform="matrix(1 0 0 .95947 0 .014)"><stop offset="0%" stop-color="#FFEA00"/><stop offset="23.1%" stop-color="#FFDE00"/><stop offset="36.5%" stop-color="#FFBF00"/><stop offset="54.1%" stop-color="#FF8E00"/><stop offset="76.3%" stop-color="#FF272D"/><stop offset="79.6%" stop-color="#F92433"/><stop offset="84.1%" stop-color="#E91C45"/><stop offset="89.3%" stop-color="#CF0E62"/><stop offset="100%" stop-color="#B5007F"/></radialGradient><linearGradient id="h" x1="20.213%" x2="33.813%" y1="3.248%" y2="97.268%"><stop offset="0%" stop-color="#FFEA00"/><stop offset="38.164%" stop-color="#FD0"/><stop offset="64.693%" stop-color="#FFBA00"/><stop offset="88.066%" stop-color="#FF9100"/><stop offset="100%" stop-color="#FF4A1D"/></linearGradient><linearGradient id="i" x1="-121.603%" x2="143.041%" y1="64.455%" y2="27.48%"><stop offset="0%" stop-color="#C42482" stop-opacity=".5"/><stop offset="47.4%" stop-color="#FF272D" stop-opacity=".5"/><stop offset="48.6%" stop-color="#FF2C2C" stop-opacity=".513"/><stop offset="67.5%" stop-color="#FF7A1A" stop-opacity=".72"/><stop offset="82.9%" stop-color="#FFB20D" stop-opacity=".871"/><stop offset="94.2%" stop-color="#FFD605" stop-opacity=".964"/><stop offset="100%" stop-color="#FFE302"/></linearGradient><linearGradient id="j" x1="56.498%" x2="19.49%" y1="94.893%" y2="5.478%"><stop offset="0%" stop-color="#891551" stop-opacity=".6"/><stop offset="100%" stop-color="#C42482" stop-opacity="0"/></linearGradient><linearGradient id="k" x1="8.239%" x2="47.914%" y1="6.892%" y2="47.886%"><stop offset="0%" stop-color="#891551" stop-opacity=".5"/><stop offset="48.4%" stop-color="#FF272D" stop-opacity=".5"/><stop offset="100%" stop-color="#FF272D" stop-opacity="0"/></linearGradient><linearGradient id="l" x1="47.509%" x2="50%" y1="102.675%" y2="32.97%"><stop offset="0%" stop-color="#C42482"/><stop offset="8.3%" stop-color="#C42482" stop-opacity=".81"/><stop offset="20.6%" stop-color="#C42482" stop-opacity=".565"/><stop offset="32.8%" stop-color="#C42482" stop-opacity=".362"/><stop offset="44.7%" stop-color="#C42482" stop-opacity=".204"/><stop offset="56.2%" stop-color="#C42482" stop-opacity=".091"/><stop offset="67.3%" stop-color="#C42482" stop-opacity=".023"/><stop offset="100%" stop-color="#C42482" stop-opacity="0"/></linearGradient><linearGradient id="m" x1="6.334%" x2="58.667%" y1="1.647%" y2="101.667%"><stop offset="0%" stop-color="#FFF14F"/><stop offset="26.8%" stop-color="#FFEE4C"/><stop offset="47.997%" stop-color="#FFE421"/><stop offset="64.365%" stop-color="#FD0"/><stop offset="100%" stop-color="#FF9100"/></linearGradient><linearGradient id="n" x1="71.789%" x2="42.746%" y1="7.159%" y2="81.948%"><stop offset="0%" stop-color="#FF8E00"/><stop offset="4%" stop-color="#FF8E00" stop-opacity=".858"/><stop offset="8.4%" stop-color="#FF8E00" stop-opacity=".729"/><stop offset="13%" stop-color="#FF8E00" stop-opacity=".628"/><stop offset="17.8%" stop-color="#FF8E00" stop-opacity=".557"/><stop offset="22.7%" stop-color="#FF8E00" stop-opacity=".514"/><stop offset="28.2%" stop-color="#FF8E00" stop-opacity=".5"/><stop offset="38.9%" stop-color="#FF8E00" stop-opacity=".478"/><stop offset="52.4%" stop-color="#FF8E00" stop-opacity=".416"/><stop offset="67.6%" stop-color="#FF8E00" stop-opacity=".314"/><stop offset="83.8%" stop-color="#FF8E00" stop-opacity=".172"/><stop offset="100%" stop-color="#FF8E00" stop-opacity="0"/></linearGradient></defs><g fill="none"><path fill="url(#a)" d="M18.787 2.233c-.584.68-.856 2.21-.263 3.762.592 1.552 1.5 1.215 2.065 2.797.747 2.088.4 4.893.4 4.893s.898 2.6 1.523-.162c1.385-5.188-3.725-10.012-3.725-11.29z" transform="translate(.365)"/><path fill="url(#b)" d="M11.66 23.772c5.982 0 10.827-4.872 10.827-10.88 0-6.006-4.845-10.878-10.82-10.878C5.69 2.014.844 6.886.844 12.893c-.011 6.013 4.84 10.879 10.815 10.879z" transform="translate(.365)"/><path fill="url(#c)" d="M19.773 19.6c-.234.166-.48.314-.735.444.338-.495.65-1.007.934-1.535.23-.256.442-.504.614-.772a7.2 7.2 0 0 0 .279-.484c.608-1.095 1.278-2.867 1.297-4.687v-.139a6.283 6.283 0 0 0-.14-1.36c.006.035.01.07.014.105l-.015-.081.024.146c.124 1.054.035 2.082-.407 2.84l-.022.032c.23-1.152.307-2.424.051-3.697 0 0-.102-.62-.862-2.499-.438-1.082-1.216-1.969-1.903-2.615-.602-.745-1.149-1.245-1.45-1.562-.63-.663-.894-1.16-1.003-1.485-.094-.047-1.296-1.215-1.391-1.259-.525.813-2.175 3.358-1.39 5.735.356 1.078 1.255 2.196 2.197 2.823.041.047.56.61.807 1.882.255 1.313.12 2.338-.404 3.853-.616 1.33-2.196 2.644-3.676 2.778-3.163.288-4.32-1.588-4.32-1.588 1.13.452 2.38.358 3.139-.11.766-.475 1.23-.826 1.605-.687.37.137.666-.263.401-.678a1.915 1.915 0 0 0-1.936-.843c-.767.125-1.47.732-2.474.144a2.086 2.086 0 0 1-.188-.124c-.067-.043.215.067.15.017a4.91 4.91 0 0 1-.632-.42c-.015-.013.152.053.137.04-.94-.774-.822-1.296-.793-1.624.024-.262.194-.598.482-.734.139.075.225.133.225.133l-.09-.185c.01-.004.021-.003.032-.008.114.055.366.198.498.285.172.121.227.23.227.23s.046-.025.012-.131a.682.682 0 0 0-.235-.322l.01.002c.103.058.2.125.29.2.048-.175.135-.357.116-.685-.012-.23-.007-.29-.047-.378-.036-.076.02-.106.083-.027a.8.8 0 0 0-.054-.18l.001-.006c.079-.274 1.665-.987 1.78-1.07.19-.135.349-.308.467-.508.088-.14.154-.338.17-.637.009-.215-.091-.359-1.695-.527-.439-.043-.696-.36-.842-.654a4.277 4.277 0 0 0-.081-.178 1.415 1.415 0 0 1-.063-.205c.263-.753.703-1.39 1.35-1.871.036-.032-.14.008-.105-.024.041-.038.31-.146.36-.17.063-.03-.265-.168-.554-.135-.294.034-.357.069-.514.135.066-.065.273-.15.224-.15-.317.05-.711.234-1.049.443 0-.036.007-.073.02-.106-.156.067-.542.336-.654.564.004-.043.007-.087.006-.131-.12.1-.228.212-.322.337l-.006.005c-.91-.367-1.713-.39-2.391-.226-.149-.15-.221-.04-.559-.782-.023-.045.018.044 0 0-.055-.144.034.192 0 0-.568.448-1.315.955-1.674 1.314-.004.014.419-.12 0 0-.146.042-.136.129-.159.915-.005.06 0 .126-.005.18-.286.365-.482.674-.555.834-.371.638-.78 1.634-1.175 3.209.175-.427.385-.839.63-1.23-.33.836-.648 2.148-.711 4.17.08-.417.181-.83.305-1.236-.077 1.677.212 3.35.848 4.904.227.557.603 1.401 1.244 2.327a11 11 0 0 0 7.997 3.436 11.01 11.01 0 0 0 8.255-3.716z" transform="translate(.365)"/><path fill="url(#d)" d="M17.344 21.14c3.972-.46 5.73-4.554 3.473-4.635-2.04-.065-5.355 4.851-3.473 4.634z" transform="translate(.365)"/><path fill="url(#e)" d="M21.103 15.669c2.733-1.59 2.02-5.026 2.02-5.026s-1.055 1.225-1.771 3.178c-.708 1.934-1.893 2.809-.25 1.848z" transform="translate(.365)"/><path fill="url(#f)" d="M12.426 23.172c3.81 1.216 7.086-1.786 5.067-2.788-1.836-.904-6.875 2.213-5.067 2.788z" transform="translate(.365)"/><path fill="url(#g)" d="M21.387 17.128c.092-.131.218-.55.328-.737.673-1.086.678-1.952.678-1.972.406-2.03.37-2.858.12-4.391-.202-1.234-1.082-3.002-1.844-3.854-.785-.877-.232-.591-.992-1.232-.667-.739-1.313-1.47-1.665-1.765C15.469 1.051 15.526.6 15.575.522a2.95 2.95 0 0 0-.036.04c-.03-.12-.051-.22-.051-.22s-1.39 1.39-1.683 3.707c-.191 1.512.375 3.09 1.195 4.097.427.523.91.997 1.439 1.415.62.889.96 1.987.96 3.168a5.356 5.356 0 0 1-6.555 5.22c-1.396-.266-2.202-.97-2.604-1.449a2.694 2.694 0 0 1-.329-.473c1.251.448 2.634.354 3.475-.11.848-.47 1.36-.819 1.777-.681.41.136.736-.26.443-.672-.287-.41-1.034-1-2.143-.836-.848.123-1.626.726-2.738.142a2.35 2.35 0 0 1-.208-.122c-.073-.043.238.066.165.016a5.518 5.518 0 0 1-.698-.416c-.017-.014.168.053.151.039-1.04-.767-.91-1.285-.877-1.61a.933.933 0 0 1 .533-.728c.154.075.25.132.25.132l-.101-.183c.012-.005.024-.004.036-.008.126.054.404.195.551.282.19.12.252.228.252.228s.05-.025.013-.13c-.014-.043-.072-.18-.26-.319l.011.002c.112.057.22.123.32.199.054-.174.15-.355.129-.68-.013-.228-.007-.287-.052-.375-.04-.076.022-.105.092-.026a.733.733 0 0 0-.06-.18l.001-.005c.087-.272 1.842-.98 1.97-1.062.206-.129.382-.3.517-.503.097-.14.17-.335.189-.631.006-.134-.036-.24-.5-.341-.28-.06-.711-.12-1.377-.182-.485-.043-.77-.358-.932-.65a4 4 0 0 0-.09-.175 1.295 1.295 0 0 1-.069-.204c.29-.76.814-1.41 1.495-1.855.039-.032-.156.008-.117-.024.045-.037.343-.145.399-.169.069-.029-.294-.167-.614-.133-.325.033-.395.068-.568.134.072-.065.301-.15.247-.149-.35.049-.787.232-1.16.439a.22.22 0 0 1 .022-.105c-.174.066-.601.333-.725.56a.963.963 0 0 0 .007-.131c-.131.097-.25.21-.356.334l-.007.005c-1.008-.364-1.896-.387-2.647-.224-.164-.148-.428-.371-.802-1.107-.025-.045-.039.091-.058.047-.146-.337-.233-.888-.219-1.269 0 0-.3.137-.55.709-.045.103-.075.16-.104.216-.014.017.03-.188.023-.177-.043.073-.155.176-.204.308-.034.098-.081.153-.111.275l-.007.012c-.003-.036.009-.149 0-.126a5.759 5.759 0 0 0-.3.728 6.76 6.76 0 0 0-.314 1.819c-.006.059 0 .125-.006.178-.317.362-.533.669-.615.828-.41.633-.862 1.62-1.3 3.182.195-.427.428-.835.696-1.22-.364.83-.716 2.131-.786 4.136.088-.415.201-.824.338-1.226a10.38 10.38 0 0 0 .938 4.863c.502 1.1 1.657 3.333 4.479 5.076 0 0 .96.715 2.61 1.25.122.045.245.088.371.13a2.451 2.451 0 0 1-.115-.05c1.099.33 2.239.497 3.386.498 4.272.004 5.532-1.712 5.532-1.712l-.012.009c.06-.057.118-.116.174-.177-.674.637-2.213.679-2.788.633.981-.288 1.627-.532 2.883-1.013.147-.054.297-.116.45-.186l.05-.023.092-.042a8.517 8.517 0 0 0 1.713-1.073c1.261-1.008 1.536-1.99 1.68-2.637-.02.062-.083.207-.127.3-.325.695-1.045 1.121-1.827 1.487a16.91 16.91 0 0 0 1.034-1.523c.255-.253.335-.65.526-.915z" transform="translate(.365)"/><path fill="url(#h)" d="M19.852 19.536a8.08 8.08 0 0 0 1.325-1.95c.9-1.893 2.292-5.039 1.196-8.325-.866-2.597-2.056-4.017-3.566-5.404C16.355 1.604 15.67.598 15.67 0c0 0-2.831 3.156-1.603 6.448 1.228 3.292 3.743 3.172 5.407 6.607 1.958 4.043-1.584 8.454-4.514 9.689.18-.04 6.512-1.473 6.845-5.095-.008.067-.15 1.068-1.953 1.887z" transform="translate(.365)"/><path fill="url(#i)" d="M11.649 7.79c.01-.214-.102-.358-1.87-.524-.728-.067-1.007-.74-1.092-1.023-.259.672-.366 1.378-.308 2.231.039.56.415 1.16.594 1.512 0 0 .04-.052.058-.071.338-.352 1.755-.889 1.888-.965.147-.092.705-.5.73-1.16z" transform="translate(.365)"/><path fill="url(#j)" d="M3.861 3.816c-.025-.044-.039.092-.058.048-.145-.337-.234-.883-.213-1.269 0 0-.3.137-.549.71-.046.102-.076.159-.105.215-.014.017.03-.187.023-.176-.043.073-.155.175-.203.302-.04.103-.082.158-.113.287-.01.034.01-.155.002-.132-.579 1.118-.69 2.808-.628 2.737C3.248 5.223 4.659 4.91 4.659 4.91c-.15-.11-.476-.43-.798-1.095z" transform="translate(.365)"/><path fill="url(#k)" d="M8.533 17.563c-1.7-.726-3.634-1.75-3.561-4.076.1-3.064 2.857-2.458 2.857-2.458-.104.025-.382.223-.48.434-.105.264-.295.86.28 1.486.905.98-1.858 2.325 2.407 4.867.108.059-1-.035-1.503-.253z" transform="translate(.365)"/><path fill="url(#l)" d="M7.929 16.037c1.206.42 2.61.346 3.451-.119.563-.313 1.286-.815 1.73-.691-.385-.153-.676-.224-1.027-.241a1.9 1.9 0 0 1-.196-.008c-.128 0-.257.007-.384.021-.217.02-.458.157-.677.135-.012-.001.213-.092.194-.088-.116.024-.242.03-.375.046-.084.01-.157.02-.24.024-2.513.213-4.635-1.362-4.635-1.362-.181.609.809 1.813 2.159 2.283z" transform="translate(.365)"/><path fill="url(#m)" d="M19.847 19.552c2.54-2.494 3.826-5.526 3.283-8.927 0 0 .217 1.744-.606 3.528.395-1.742.441-3.906-.61-6.146-1.402-2.991-3.708-4.565-4.588-5.222C15.992 1.79 15.439.777 15.429.568c-.399.817-1.604 3.615-.13 6.025 1.382 2.257 3.558 2.927 5.081 4.998 2.807 3.816-.533 7.961-.533 7.961z" transform="translate(.365)"/><path fill="url(#n)" d="M19.483 13.062c-.888-1.834-1.996-2.634-3.044-3.501.122.17.152.231.22.341.922.984 2.283 3.382 1.295 6.393-1.86 5.668-9.296 3-10.076 2.25.315 3.28 5.806 4.85 9.38 2.722 2.035-1.926 3.68-5.199 2.225-8.205z" transform="translate(.365)"/></g></svg>