<?xml version="1.0" encoding="utf-8"?>
<!-- Generator: Adobe Illustrator 20.1.0, SVG Export Plug-In . SVG Version: 6.00 Build 0)  -->
<svg version="1.1" id="Layer_1" xmlns="http://www.w3.org/2000/svg" xmlns:xlink="http://www.w3.org/1999/xlink" x="0px" y="0px"
	 viewBox="0 0 20 20" style="enable-background:new 0 0 20 20;" xml:space="preserve">
<style type="text/css">
	.st0{fill:#3E3D40;}
</style>
<path id="Page-1" class="st0" d="M15,9.6V10c0,0-0.5,0.3-0.9,0.4c-0.9,0.2-2.3,0.5-3.7,0c-1-0.3-2-0.5-3-0.5c-0.5,0-1.1,0.1-1.6,0.2
	L5,10.3v-5L6.1,5c1.3-0.3,2.6-0.2,3.9,0.3l0.1,0c1.6,0.6,2.8,1.5,4.5,1.1L15,6.3V9.6z M16,3.8l-1.4,0.3c-1.4,0.3-2.9-0.6-4.2-1.1
	C8.9,2.5,7.3,2.4,5.8,2.7L5,2.9V2c0-0.4-0.2-1-1-1S3.1,1.5,3,1.8c0,0.1,0,0.8,0,0.9v1V11v7c0,0.4,0.3,1,1,1s1-0.6,1-1v-5v-0.5
	l1.1-0.2c1.3-0.3,2.6-0.2,3.9,0.3L9,12.3c0.9,0.3,3.9,0.4,5.3,0.3c1-0.1,2.2-0.7,2.2-0.7c0.3-0.1,0.3-0.6,0.3-0.9V4.5
	c0-0.2-0.1-0.4-0.3-0.5C16.4,3.8,16.2,3.8,16,3.8z"/>
</svg>
