<svg xmlns="http://www.w3.org/2000/svg" xmlns:xlink="http://www.w3.org/1999/xlink" width="409" height="295"><defs><path id="a" d="M0 0h27.373v25.57H0z"/><path id="c" d="M0 0h27.373v25.57H0z"/><path id="e" d="M0 0h34.109v32.053H0z"/><path id="g" d="M0 0h34.109v32.053H0z"/><path id="i" d="M0 0h34.109v32.053H0z"/></defs><g fill="none" fill-rule="evenodd"><path stroke="#C8C8CC" stroke-dasharray="3.6 7.2" stroke-linecap="round" stroke-linejoin="round" stroke-width="1.8" d="M232.774 264.387c-88.42 0-160.099-55.628-160.099-124.25 0-68.62 71.679-124.249 160.099-124.249 88.42 0 160.099 55.628 160.099 124.25 0 68.62-71.68 124.25-160.1 124.25z" opacity=".6"/><g transform="translate(356.495 96.56)"><rect width="51.304" height="94.052" fill="#E1E1E6" stroke="#C8C8CC" stroke-width="1.8" rx="3.6"/><path fill="#FFF" d="M7.51 6.508l36.12-.05a1.8 1.8 0 0 1 1.802 1.797l.102 72.938a1.8 1.8 0 0 1-1.797 1.802l-36.12.05a1.8 1.8 0 0 1-1.803-1.797L5.712 8.31a1.8 1.8 0 0 1 1.797-1.802z"/><g transform="translate(11.886 13.325)"><mask id="b" fill="#fff"><use xlink:href="#a"/></mask><path stroke="#C8C8CC" stroke-width="1.037" d="M-.518-.518h28.41v26.607H-.518z"/><g fill-rule="nonzero" mask="url(#b)"><g transform="translate(-2.772 -1.037)"><path fill="#E1E1E6" d="M.266.276v23.808h32.907V.276z"/><path fill="#FFF" d="M3.118 18.39L8.614 6.878a.726.726 0 0 1 1.205-.16l5.662 6.575 3.076-3.48a.726.726 0 0 1 1.1.013l7.208 8.564H3.118z"/><circle cx="24.082" cy="6.393" r="3.629" fill="#FFF"/></g></g><path fill="#FFF" fill-rule="nonzero" mask="url(#b)" d="M0 18.659h27.373v6.911H0z"/><rect width="19.057" height="1.382" x="2.772" y="21.424" fill="#C8C8CC" fill-rule="nonzero" rx=".691"/></g><g transform="translate(11.886 44.658)"><mask id="d" fill="#fff"><use xlink:href="#c"/></mask><path stroke="#C8C8CC" stroke-width="1.037" d="M-.518-.518h28.41v26.607H-.518z"/><g fill-rule="nonzero" mask="url(#d)"><g transform="translate(-2.772 -1.037)"><path fill="#E1E1E6" d="M.266.276v23.808h32.907V.276z"/><path fill="#FFF" d="M3.118 18.39L8.614 6.878a.726.726 0 0 1 1.205-.16l5.662 6.575 3.076-3.48a.726.726 0 0 1 1.1.013l7.208 8.564H3.118z"/><circle cx="24.082" cy="6.393" r="3.629" fill="#FFF"/></g></g><path fill="#FFF" fill-rule="nonzero" mask="url(#d)" d="M0 18.659h27.373v6.911H0z"/><rect width="19.057" height="1.382" x="2.772" y="21.424" fill="#C8C8CC" fill-rule="nonzero" rx=".691"/></g><ellipse cx="25.497" cy="88.239" fill="#C8C8CC" rx="3.166" ry="3.245" transform="rotate(-.08 25.497 88.239)"/><g fill="#C8C8CC" transform="translate(18.73 2.521)"><circle cx=".846" cy=".846" r="1" transform="rotate(-.08 .846 .846)"/><path d="M2.88.366L11.98.354c.199 0 .36.16.36.36v.252a.36.36 0 0 1-.359.36l-9.098.013a.36.36 0 0 1-.36-.36V.727c-.001-.199.16-.36.359-.36z"/></g></g><path fill="#E1E1E6" d="M125.43 174.398s5.043 34.642 34.646 46.15l-59.898.082-59.897.083c29.556-11.59 34.523-46.246 34.523-46.246l50.626-.069z"/><path fill="#F5F5F5" d="M40.29 220.708l119.794-.168.008 5.647-119.795.168z"/><path stroke="#C8C8CC" stroke-linecap="round" stroke-linejoin="round" stroke-width="1.8" d="M160.06 220.54h.024l.008 5.648-119.795.167-.008-5.642h-.008l.008-.005c29.55-11.594 34.515-46.241 34.515-46.241l50.626-.069s5.04 34.63 34.63 46.143z"/><path fill="#E1E1E6" d="M4.876 53.548h189.99a3.872 3.872 0 0 1 3.871 3.872v108.158H1V57.42a3.871 3.871 0 0 1 3.876-3.872z"/><path fill="#F5F5F5" d="M185.198 183.557l-170.133.234a13.803 13.803 0 0 1-13.82-13.783v-4.682l197.737-.274v4.682a13.8 13.8 0 0 1-13.784 13.823z"/><path stroke="#C8C8CC" stroke-width="1.8" d="M1 165.578v-.111l197.737-.274v4.682a13.8 13.8 0 0 1-13.784 13.822l-170.133.234A13.803 13.803 0 0 1 1 170.15V57.419a3.871 3.871 0 0 1 3.876-3.87h189.99a3.872 3.872 0 0 1 3.871 3.87v108.16H1z"/><path fill="#FFF" d="M10.725 62.707h178.94v90.439H10.725z"/><g transform="translate(31.615 92.239)"><mask id="f" fill="#fff"><use xlink:href="#e"/></mask><path stroke="#C8C8CC" stroke-width="1.296" d="M-.648-.648h35.405v33.349H-.648z"/><g fill-rule="nonzero" mask="url(#f)"><g transform="translate(-3.454 -1.3)"><path fill="#E1E1E6" d="M.332.347V30.19h41.004V.347z"/><path fill="#FFF" d="M3.886 23.052L10.73 8.627a.907.907 0 0 1 1.508-.201l7.052 8.237 3.828-4.358a.907.907 0 0 1 1.378.017l8.979 10.73H3.886z"/><circle cx="30.007" cy="8.013" r="4.536" fill="#FFF"/></g></g><path fill="#FFF" fill-rule="nonzero" mask="url(#f)" d="M0 23.39h34.109v8.663H0z"/><rect width="23.747" height="1.733" x="3.454" y="26.855" fill="#C8C8CC" fill-rule="nonzero" rx=".866"/><g transform="translate(51.38)"><mask id="h" fill="#fff"><use xlink:href="#g"/></mask><path stroke="#C8C8CC" stroke-width="1.296" d="M-.648-.648h35.405v33.349H-.648z"/><g fill-rule="nonzero" mask="url(#h)"><g transform="translate(-3.454 -1.3)"><path fill="#E1E1E6" d="M.332.347V30.19h41.004V.347z"/><path fill="#FFF" d="M3.886 23.052L10.73 8.627a.907.907 0 0 1 1.508-.201l7.052 8.237 3.828-4.358a.907.907 0 0 1 1.378.017l8.979 10.73H3.886z"/><circle cx="30.007" cy="8.013" r="4.536" fill="#FFF"/></g></g><path fill="#FFF" fill-rule="nonzero" mask="url(#h)" d="M0 23.39h34.109v8.663H0z"/><rect width="23.747" height="1.733" x="3.454" y="26.855" fill="#C8C8CC" fill-rule="nonzero" rx=".866"/></g><g transform="translate(102.758)"><mask id="j" fill="#fff"><use xlink:href="#i"/></mask><path stroke="#C8C8CC" stroke-width="1.296" d="M-.648-.648h35.405v33.349H-.648z"/><g fill-rule="nonzero" mask="url(#j)"><g transform="translate(-3.454 -1.3)"><path fill="#E1E1E6" d="M.332.347V30.19h41.004V.347z"/><path fill="#FFF" d="M3.886 23.052L10.73 8.627a.907.907 0 0 1 1.508-.201l7.052 8.237 3.828-4.358a.907.907 0 0 1 1.378.017l8.979 10.73H3.886z"/><circle cx="30.007" cy="8.013" r="4.536" fill="#FFF"/></g></g><path fill="#FFF" fill-rule="nonzero" mask="url(#j)" d="M0 23.39h34.109v8.663H0z"/><rect width="23.747" height="1.733" x="3.454" y="26.855" fill="#C8C8CC" fill-rule="nonzero" rx=".866"/></g></g><g fill-rule="nonzero" transform="translate(136.427 136.537)"><ellipse cx="101.75" cy="148.199" fill="#EDEDF2" rx="68.073" ry="10.264"/><path fill="#00EAE8" stroke="#00B3D0" stroke-width="1.8" d="M58.997 72.704C50.552 67.94 19.853 48.08 19.853 48.08l-4.67 4.594c-3.69 3.698-7.6 2.528-9.18 1.437l-2.328.857c-1.134.384-2.652-.366-3.036-1.5-.383-1.134.368-2.652 1.502-3.036l1.055-.389c-.908-.225-1.684-.948-1.82-1.889-.18-1.251.69-2.566 1.941-2.746l4.98-.83c1.2-2.438 2.578-4.598 3.77-5.287 2.762-10.25 43.635 22.512 44.51 23.09a58.33 58.33 0 0 1 2.175 1.503c-.27-14.314.12-27.43 1.072-34.97l-4.523-4.513c-3.941-3.933-3.941-10.431 0-14.535 3.942-3.933 10.453-3.933 14.566 0l3.46 3.453c6.618-1.94 18.668-5.361 22.93-5.847 5.997-.684 18.85-7.182 18.85-7.182l-3.085 6.84 7.197-2.052V8.84l14.252 3.904 2.198-2.194c3.942-3.933 10.453-3.933 14.566 0 3.941 3.933 3.941 10.43 0 14.535l-3.036 3.03c1.17 9.913 1.418 20.666 1.086 31.319a55.506 55.506 0 0 1 2.894-1.743c.915-.515 47.319-33.165 49.36-22.746 1.14.77 2.364 3.021 3.391 5.537l4.91 1.175c1.237.267 2.011 1.64 1.744 2.875-.2.929-1.025 1.597-1.946 1.758l1.025.461c1.105.462 1.748 2.029 1.286 3.133-.461 1.105-2.028 1.747-3.133 1.285l-2.263-1.018c-1.652.98-5.633 1.873-9.056-2.073l-4.339-4.91s-35.315 20.291-44.252 24.686c-1.217 20.838-4.348 40.305-6.735 51.108-.82 5.378-1.912 11.007-3.274 14.88-3.427 9.747-7.368 14.535-9.082 13.167-.82-.654-.855-7.997-.67-15.48-13.695 2.46-36.401 2.045-49.726.019.186 7.477.15 14.808-.67 15.461-1.713 1.368-5.654-3.42-9.082-13.167-.712-2.026-1.35-4.533-1.915-7.233-4.451-7.815-6.918-31.232-7.755-53.906z"/><path fill="#72FFFF" d="M72.095 21.837c-12.338 8.208-4.627 85.33 3.256 94.906 12.852 15.732 52.093 14.535 59.633-3.078 1.2-2.907 13.023-58.14 4.113-88.58-2.914-9.746-37.357-22.742-67.002-3.248z"/><path fill="#525A83" d="M77.407 31.755a1.9 1.9 0 0 1 1.885 1.881v4.104a1.9 1.9 0 0 1-1.885 1.881 1.9 1.9 0 0 1-1.885-1.88v-4.105a1.9 1.9 0 0 1 1.885-1.881zm46.096 0a1.9 1.9 0 0 1 1.885 1.881v4.104a1.9 1.9 0 0 1-1.885 1.881 1.9 1.9 0 0 1-1.885-1.88v-4.105a1.9 1.9 0 0 1 1.885-1.881z"/><path fill="#00DCDB" d="M77.458 38.658c4.284 0 6.34 3.25 6.512 3.42.514.855.342 1.881-.514 2.394-.857.513-1.885.342-2.4-.513 0-.17-1.199-1.88-3.598-1.88-2.4 0-3.599 1.71-3.599 1.71-.514.854-1.542 1.025-2.399.512-.856-.513-1.028-1.539-.514-2.394.172 0 2.228-3.249 6.512-3.249zM124.08 38.561c4.283 0 6.34 3.25 6.511 3.42.514.855.343 1.881-.514 2.394-.857.513-1.885.342-2.399-.513 0-.17-1.2-1.88-3.599-1.88s-3.598 1.71-3.598 1.71c-.514.854-1.542 1.025-2.4.512-.856-.513-1.027-1.539-.513-2.394.171 0 2.399-3.249 6.511-3.249zM92.952 52.366c-.141-.91.591-1.794 1.632-1.73.167.038 9.618 2.023 10.942-.656 1.002-2.05.71-3.56.71-3.56.027-.872.72-1.59 1.466-1.77.912-.14 1.63.552 1.81 1.295.36 1.487 1.027 3.922 1.746 4.614 1.438 1.384 5.122-.219 8.453-1.025 0 0 1.804-.23 1.94 1.5.2.925-.775 1.748-1.504 1.935-3.558 1.392-9.224 2.076-11.382 0-.128-.205-.552-.654-.552-.654-3.143 4.37-12.856 1.679-13.19 1.602-.334-.077-1.718-.217-2.071-1.55z"/><g fill="#525A83"><path d="M98.998 43.041c-1.028 1.197 7.026 3.078 8.054 2.907 1.542-.342 8.225-5.3 7.197-7.695-.343-1.368-11.138.342-15.251 4.788z"/><path d="M106.88 47.487c-2.056 0-8.396-1.368-9.596-3.249-.514-.855-.342-1.71.343-2.394 3.941-4.275 13.195-6.327 16.28-5.643 1.199.171 1.713.855 1.884 1.368.343 1.026.172 2.052-.514 3.25-1.542 2.735-6.34 6.326-8.054 6.668h-.342zm-5.312-4.446c1.714.513 4.456 1.197 5.141 1.197 1.028-.342 4.456-3.078 5.484-4.617-2.228 0-7.369 1.026-10.625 3.42z"/></g></g><g fill-rule="nonzero" transform="rotate(13 151.35 1139.696)"><ellipse cx="22.685" cy="22.685" fill="#00EAE8" rx="22.331" ry="22.329"/><path fill="#FFF" d="M29.124 18.204h-3.077a1.12 1.12 0 1 0 0 2.24h5.323c.773 0 1.4-.627 1.4-1.4v-5.322a1.12 1.12 0 0 0-2.24 0v2.625a10.086 10.086 0 0 0-17.85 5.079 1.12 1.12 0 1 0 2.222.278 7.845 7.845 0 0 1 14.222-3.5zm3.568 5.74a1.12 1.12 0 1 0-2.223-.277 7.845 7.845 0 0 1-14.222 3.5h3.077a1.12 1.12 0 1 0 0-2.24H14c-.773 0-1.4.627-1.4 1.4v5.322a1.12 1.12 0 0 0 2.24 0v-2.625a10.086 10.086 0 0 0 17.85-5.079z"/></g></g></svg>