<svg xmlns="http://www.w3.org/2000/svg" viewBox="0 0 24 24"><defs><style>.cls-1{fill:#fff;fill-rule:evenodd;}</style></defs><title>github-icon</title><g id="Layer_2" data-name="Layer 2"><g id="Layer_1-2" data-name="Layer 1"><path class="cls-1" d="M21.75,0H2.25A2.25,2.25,0,0,0,0,2.25v19.5A2.25,2.25,0,0,0,2.25,24H8.54A.58.58,0,0,0,9,23.42c0-.29,0-1.06,0-2.08-3.4.74-4.12-1.64-4.12-1.64a3.24,3.24,0,0,0-1.36-1.79c-1.11-.76.08-.74.08-.74a2.57,2.57,0,0,1,1.87,1.26,2.6,2.6,0,0,0,3.56,1,2.61,2.61,0,0,1,.78-1.63c-2.71-.31-5.56-1.36-5.56-6A4.72,4.72,0,0,1,5.46,8.5a4.39,4.39,0,0,1,.12-3.23s1-.33,3.36,1.25a11.58,11.58,0,0,1,6.12,0c2.33-1.58,3.36-1.25,3.36-1.25a4.39,4.39,0,0,1,.12,3.23,4.71,4.71,0,0,1,1.26,3.28c0,4.69-2.86,5.73-5.58,6A2.92,2.92,0,0,1,15,20.07c0,1.63,0,3,0,3.35a.57.57,0,0,0,.43.58h6.29A2.25,2.25,0,0,0,24,21.75V2.25A2.25,2.25,0,0,0,21.75,0Z"/></g></g></svg>