<?xml version="1.0" encoding="utf-8"?>
<!DOCTYPE svg PUBLIC "-//W3C//DTD SVG 1.1//EN" "http://www.w3.org/Graphics/SVG/1.1/DTD/svg11.dtd">

<svg version="1.1"
     xmlns="http://www.w3.org/2000/svg"
     x="0"
     y="0"
     width="16"
     height="16"
     viewBox="0 0 16 16">

  <use href="defs.svg"/>

  <g id="icon-history">
  	<path class="icon-toolbar" d="M8,15.1c-4,0-7.2-3.2-7.2-7.2C0.8,4,4,0.8,8,0.8S15.2,4,15.2,8C15.2,11.9,12,15.1,8,15.1z M8,3C5.2,3,3,5.2,3,8 c0,2.7,2.2,5,5,5s5-2.2,5-5S10.8,3,8,3z M7.7,8.9C7.3,8.8,7,8.4,7,8V5c0-0.6,0.4-1,1-1s1,0.4,1,1v2.8c1.1,1.1,2,3.2,2,3.2 S8.8,10,7.7,8.9z"/>
  </g>

</svg>
