<svg xmlns="http://www.w3.org/2000/svg" width="16" height="16"><path fill="#3e3d40" d="M4 0a2 2 0 0 0-2 2h2zm6 0H8v2h2zm4 0v2h2a2 2 0 0 0-2-2zM7 0H5v2h2zm6 0h-2v2h2zm1 5h2V3h-2zm0 6a2 2 0 0 0 2-2h-2zm0-3h2V6h-2zm-.441-2.167a2 2 0 0 0-2.785-.492L6.939 8.172l-1.968-1.38A2.457 2.457 0 0 0 5 6.5a2.488 2.488 0 0 0-1-1.989V3H2v1.05a2.5 2.5 0 1 0 1.958 4.474l1.242.869-1.4.982A2.494 2.494 0 1 0 5 12.5a2.508 2.508 0 0 0-.05-.492zM2.5 7.75A1.25 1.25 0 1 1 3.75 6.5 1.25 1.25 0 0 1 2.5 7.75zm0 6a1.25 1.25 0 1 1 1.25-1.25 1.25 1.25 0 0 1-1.25 1.25zm5.4-2.429l3.017 2.3a2 2 0 0 0 2.785-.492L9.64 10.1z"/></svg>