<svg width="480" height="40" viewBox="0 0 480 40" xmlns="http://www.w3.org/2000/svg"><title>icon-sprite</title><g fill-rule="nonzero" fill="none"><path d="M466 19.6v.4s-.5.3-.9.4c-.9.2-2.3.5-3.7 0-1-.3-2-.5-3-.5-.5 0-1.1.1-1.6.2l-.8.2v-5l1.1-.3c1.3-.3 2.6-.2 3.9.3h.1c1.6.6 2.8 1.5 4.5 1.1l.4-.1v3.3zm1-5.8l-1.4.3c-1.4.3-2.9-.6-4.2-1.1-1.5-.5-3.1-.6-4.6-.3l-.8.2V12c0-.4-.2-1-1-1s-.9.5-1 .8V28c0 .4.3 1 1 1s1-.6 1-1v-5.5l1.1-.2c1.3-.3 2.6-.2 3.9.3l-1-.3c.9.3 3.9.4 5.3.3 1-.1 2.2-.7 2.2-.7.3-.1.3-.6.3-.9v-6.5c0-.2-.1-.4-.3-.5-.1-.2-.3-.2-.5-.2z" fill="#009EC0"/><path d="M386 19.6v.4s-.5.3-.9.4c-.9.2-2.3.5-3.7 0-1-.3-2-.5-3-.5-.5 0-1.1.1-1.6.2l-.8.2v-5l1.1-.3c1.3-.3 2.6-.2 3.9.3h.1c1.6.6 2.8 1.5 4.5 1.1l.4-.1v3.3zm1-5.8l-1.4.3c-1.4.3-2.9-.6-4.2-1.1-1.5-.5-3.1-.6-4.6-.3l-.8.2V12c0-.4-.2-1-1-1s-.9.5-1 .8V28c0 .4.3 1 1 1s1-.6 1-1v-5.5l1.1-.2c1.3-.3 2.6-.2 3.9.3l-1-.3c.9.3 3.9.4 5.3.3 1-.1 2.2-.7 2.2-.7.3-.1.3-.6.3-.9v-6.5c0-.2-.1-.4-.3-.5-.1-.2-.3-.2-.5-.2z" fill="#3E3D40"/><path d="M426 19.6v.4s-.5.3-.9.4c-.9.2-2.3.5-3.7 0-1-.3-2-.5-3-.5-.5 0-1.1.1-1.6.2l-.8.2v-5l1.1-.3c1.3-.3 2.6-.2 3.9.3h.1c1.6.6 2.8 1.5 4.5 1.1l.4-.1v3.3zm1-5.8l-1.4.3c-1.4.3-2.9-.6-4.2-1.1-1.5-.5-3.1-.6-4.6-.3l-.8.2V12c0-.4-.2-1-1-1s-.9.5-1 .8V28c0 .4.3 1 1 1s1-.6 1-1v-5.5l1.1-.2c1.3-.3 2.6-.2 3.9.3l-1-.3c.9.3 3.9.4 5.3.3 1-.1 2.2-.7 2.2-.7.3-.1.3-.6.3-.9v-6.5c0-.2-.1-.4-.3-.5-.1-.2-.3-.2-.5-.2zM301.3 12.5h7.5c.7 0 1.3.6 1.3 1.3-.1.7-.7 1.2-1.4 1.2h-.9l-1.5 12.6c0 1.4-1.2 2.4-2.5 2.4h-7.5c-1.3 0-2.5-1-2.6-2.4L292 15h-.7c-.7 0-1.3-.5-1.3-1.2s.6-1.3 1.3-1.3h7.5v-1.2c-.1-.7.5-1.3 1.2-1.3s1.3.6 1.3 1.3v1.2zm4.1 2.5h-10.9l1.6 12.3c0 .1.1.2.2.2h7.5l.1-.1 1.5-12.4z" fill="#00D1E6"/><path d="M261.3 12.5h7.5c.7 0 1.3.6 1.3 1.3-.1.7-.7 1.2-1.4 1.2h-.9l-1.5 12.6c0 1.4-1.2 2.4-2.5 2.4h-7.5c-1.3 0-2.5-1-2.6-2.4L252 15h-.7c-.7 0-1.3-.5-1.3-1.2s.6-1.3 1.3-1.3h7.5v-1.2c-.1-.7.5-1.3 1.2-1.3s1.3.6 1.3 1.3v1.2zm4.1 2.5h-10.9l1.6 12.3c0 .1.1.2.2.2h7.5l.1-.1 1.5-12.4z" fill="#3E3D40"/><path d="M341.3 12.5h7.5c.7 0 1.3.6 1.3 1.3-.1.7-.7 1.2-1.4 1.2h-.9l-1.5 12.6c0 1.4-1.2 2.4-2.5 2.4h-7.5c-1.3 0-2.5-1-2.6-2.4L332 15h-.7c-.7 0-1.3-.5-1.3-1.2s.6-1.3 1.3-1.3h7.5v-1.2c-.1-.7.5-1.3 1.2-1.3s1.3.6 1.3 1.3v1.2zm4.1 2.5h-10.9l1.6 12.3c0 .1.1.2.2.2h7.5l.1-.1 1.5-12.4z" fill="#009EC0"/><path d="M171 22.5c0-.7.6-1.2 1.3-1.2.7 0 1.3.6 1.3 1.2v3.8c0 .7.6 1.2 1.3 1.2h10.3c.7 0 1.3-.6 1.3-1.2v-3.8c0-.7.6-1.2 1.3-1.2.7 0 1.3.6 1.3 1.2v5c0 1.4-1.2 2.5-2.6 2.5h-12.9c-1.4 0-2.6-1.1-2.6-2.5v-5zm10.3-8.2v9.5c0 .7-.6 1.2-1.3 1.2-.7 0-1.3-.6-1.3-1.2v-9.5l-3 2.9c-.5.5-1.3.5-1.8 0s-.5-1.3 0-1.8l5.2-5c.5-.5 1.3-.5 1.8 0l5.1 5c.5.5.5 1.3 0 1.8s-1.3.5-1.8 0l-2.9-2.9z" fill="#00D1E6"/><path d="M131 22.5c0-.7.6-1.2 1.3-1.2.7 0 1.3.6 1.3 1.2v3.8c0 .7.6 1.2 1.3 1.2h10.3c.7 0 1.3-.6 1.3-1.2v-3.8c0-.7.6-1.2 1.3-1.2.7 0 1.3.6 1.3 1.2v5c0 1.4-1.2 2.5-2.6 2.5h-12.9c-1.4 0-2.6-1.1-2.6-2.5v-5zm10.3-8.2v9.5c0 .7-.6 1.2-1.3 1.2-.7 0-1.3-.6-1.3-1.2v-9.5l-3 2.9c-.5.5-1.3.5-1.8 0s-.5-1.3 0-1.8l5.2-5c.5-.5 1.3-.5 1.8 0l5.1 5c.5.5.5 1.3 0 1.8s-1.3.5-1.8 0l-2.9-2.9z" fill="#3E3D40"/><path d="M211 22.5c0-.7.6-1.2 1.3-1.2.7 0 1.3.6 1.3 1.2v3.8c0 .7.6 1.2 1.3 1.2h10.3c.7 0 1.3-.6 1.3-1.2v-3.8c0-.7.6-1.2 1.3-1.2.7 0 1.3.6 1.3 1.2v5c0 1.4-1.2 2.5-2.6 2.5h-12.9c-1.4 0-2.6-1.1-2.6-2.5v-5zm10.3-8.2v9.5c0 .7-.6 1.2-1.3 1.2-.7 0-1.3-.6-1.3-1.2v-9.5l-3 2.9c-.5.5-1.3.5-1.8 0s-.5-1.3 0-1.8l5.2-5c.5-.5 1.3-.5 1.8 0l5.1 5c.5.5.5 1.3 0 1.8s-1.3.5-1.8 0l-2.9-2.9z" fill="#009EC0"/><path d="M19.1 22l-4.2-4.1c-.5-.5-1.3-.5-1.8 0s-.5 1.3 0 1.8l6.2 6.2c.5.5 1.3.5 1.8 0l6.2-6.2c.5-.5.5-1.3 0-1.8s-1.3-.5-1.8 0L21.6 22V11.2c0-.6-.6-1.2-1.3-1.2-.7 0-1.2.6-1.2 1.2V22zM14 30c-.7 0-1.2-.6-1.2-1.2s.6-1.2 1.2-1.2h12.5c.7 0 1.2.6 1.2 1.2s-.5 1.2-1.2 1.2H14z" fill="#3E3D40"/><path d="M59.1 22l-4.2-4.1c-.5-.5-1.3-.5-1.8 0s-.5 1.3 0 1.8l6.2 6.2c.5.5 1.3.5 1.8 0l6.2-6.2c.5-.5.5-1.3 0-1.8s-1.3-.5-1.8 0L61.6 22V11.2c0-.6-.6-1.2-1.3-1.2-.7 0-1.2.6-1.2 1.2V22zM54 30c-.7 0-1.2-.6-1.2-1.2s.6-1.2 1.2-1.2h12.5c.7 0 1.2.6 1.2 1.2s-.5 1.2-1.2 1.2H54z" fill="#00D1E6"/><path d="M99.1 22l-4.2-4.1c-.5-.5-1.3-.5-1.8 0s-.5 1.3 0 1.8l6.2 6.2c.5.5 1.3.5 1.8 0l6.2-6.2c.5-.5.5-1.3 0-1.8s-1.3-.5-1.8 0l-3.9 4.1V11.2c0-.6-.6-1.2-1.3-1.2-.7 0-1.2.6-1.2 1.2V22zM94 30c-.7 0-1.2-.6-1.2-1.2s.6-1.2 1.2-1.2h12.5c.7 0 1.2.6 1.2 1.2s-.5 1.2-1.2 1.2H94z" fill="#009EC0"/></g></svg>