<?xml version="1.0" encoding="utf-8"?>
<!-- Generator: Adobe Illustrator 21.0.0, SVG Export Plug-In . SVG Version: 6.00 Build 0)  -->
<svg version="1.1" id="Layer_1" xmlns="http://www.w3.org/2000/svg" x="0px" y="0px"
	 viewBox="0 0 20 20" style="enable-background:new 0 0 20 20;" xml:space="preserve">
<style type="text/css">
	.st0{fill:#858585;}
</style>
<path class="st0" d="M18.8,16.7l-5.1-5.1C14.5,10.4,15,9,15,7.5C15,3.4,11.6,0,7.5,0S0,3.4,0,7.5S3.4,15,7.5,15
	c1.5,0,2.9-0.5,4.1-1.2l5.1,5.1c0.6,0.6,1.5,0.6,2.1,0C19.4,18.3,19.4,17.3,18.8,16.7z M2.5,7.5c0-2.8,2.2-5,5-5s5,2.2,5,5
	s-2.2,5-5,5S2.5,10.3,2.5,7.5z"/>
</svg>
