<svg xmlns="http://www.w3.org/2000/svg" width="20" height="20"><path fill="#3e3d40" d="M8.321 14.844l8.85-8.85c.931-.931.931-2.434 0-3.365s-2.434-.931-3.365 0l-8.85 8.85 3.365 3.365zm-.674 2.02l-4.712-4.712a.952.952 0 0 1 0-1.347l9.524-9.524c1.675-1.675 4.383-1.675 6.059 0s1.675 4.383 0 6.059l-9.524 9.524a.952.952 0 0 1-1.347 0z"/><path fill="#3e3d40" d="M6.2 15.517l-1.861-1.861-1.572 2.05 1.382 1.382 2.05-1.572zm-3.164 3.151L.83 16.462a.952.952 0 0 1-.082-1.253l2.234-2.914c.391-.788 1.42-.999 2.158-.507l.145.119 2.707 2.707c.698.698.39 1.926-.511 2.32L4.59 19.151a.955.955 0 0 1-1.461-.39l-.093-.093z"/><path fill="#3e3d40" d="M.702 19.499l-.301-.301c-.501-.501-.501-1.404 0-1.905l1.002-1.002 2.206 2.206L2.607 19.5c-.602.501-1.404.501-1.905 0z"/></svg>