<?xml version="1.0" encoding="utf-8"?>
<!-- Generator: Adobe Illustrator 21.1.0, SVG Export Plug-In . SVG Version: 6.00 Build 0)  -->
<svg version="1.1" id="Layer_1" xmlns="http://www.w3.org/2000/svg" xmlns:xlink="http://www.w3.org/1999/xlink" x="0px" y="0px"
	 viewBox="0 0 20 20" style="enable-background:new 0 0 20 20;" xml:space="preserve">
<style type="text/css">
	.st0{fill:#3E3D40;}
</style>
<path id="Fill-1" class="st0" d="M17,18H4c-0.5,0-1,0.5-1,1c0,0.6,0.5,1,1,1h13c0.5,0,1-0.4,1-1C18,18.4,17.5,18,17,18"/>
<path id="Fill-3" class="st0" d="M9.8,15.9C9.8,15.9,9.8,15.9,9.8,15.9C9.9,16,10,16.1,10,16.1c0,0,0,0,0.1,0
	c0.1,0.1,0.3,0.1,0.4,0.1h0c0,0,0,0,0,0c0.3,0,0.5-0.1,0.7-0.3c0,0,0,0,0,0l6.4-6.4c0.4-0.4,0.4-1,0-1.4c-0.4-0.4-1-0.4-1.4,0
	l-4.8,4.8V1c0-0.6-0.5-1-1-1c-0.5,0-1,0.4-1,1v11.8L4.7,8.1c-0.4-0.4-1-0.4-1.4,0c-0.4,0.4-0.4,1,0,1.4L9.8,15.9z"/>
</svg>
