<svg xmlns="http://www.w3.org/2000/svg" width="20" height="20"><path fill="#3E3D40" d="M10 20a1 1 0 0 1-1-1v-3.083c-.893-.15-1.74-.5-2.477-1.026l-2.18 2.18a1 1 0 0 1-1.414-1.414l2.18-2.18A5.967 5.967 0 0 1 4.083 11H1a1 1 0 0 1 0-2h3.083c.15-.893.5-1.74 1.026-2.477l-2.18-2.18A1 1 0 0 1 4.343 2.93l2.18 2.18A5.968 5.968 0 0 1 9 4.083V1a1 1 0 1 1 2 0v3.083c.892.15 1.74.5 2.476 1.026l2.18-2.18a1 1 0 1 1 1.415 1.414l-2.18 2.18A5.966 5.966 0 0 1 15.917 9H19a1 1 0 0 1 0 2h-3.083c-.15.892-.5 1.74-1.026 2.476l2.18 2.18a1 1 0 0 1-1.414 1.415l-2.18-2.18A5.966 5.966 0 0 1 11 15.917V19a1 1 0 0 1-1 1zM6 10a4 4 0 1 0 8 0 4 4 0 0 0-8 0z"/></svg>