<!-- Generated by IcoMoon.io -->
<svg version="1.1" xmlns="http://www.w3.org/2000/svg" width="20" height="20" viewBox="0 0 20 20">
<title>edit</title>
<path fill="#3e3d40" d="M8.321 14.844l8.85-8.85c0.931-0.931 0.931-2.434 0-3.365s-2.434-0.931-3.365 0l-8.85 8.85 3.365 3.365zM7.647 16.864l-4.712-4.712c-0.372-0.372-0.372-0.975 0-1.347l9.524-9.524c1.675-1.675 4.383-1.675 6.059 0s1.675 4.383 0 6.059l-9.524 9.524c-0.372 0.372-0.975 0.372-1.347 0z"></path>
<path fill="#3e3d40" d="M6.2 15.517l-1.861-1.861-1.572 2.050 1.382 1.382 2.050-1.572zM3.036 18.668l-2.206-2.206c-0.338-0.338-0.373-0.874-0.082-1.253l2.234-2.914c0.391-0.788 1.42-0.999 2.158-0.507l0.145 0.119 2.707 2.707c0.698 0.698 0.39 1.926-0.511 2.32l-2.891 2.217c-0.521 0.4-1.236 0.157-1.461-0.39-0.023-0.023-0.053-0.053-0.093-0.093z"></path>
<path fill="#3e3d40" d="M0.702 19.499l-0.301-0.301c-0.501-0.501-0.501-1.404 0-1.905l1.002-1.002 2.206 2.206-1.002 1.003c-0.602 0.501-1.404 0.501-1.905 0z"></path>
</svg>
