<?xml version="1.0" encoding="utf-8"?>
<!-- Generator: Adobe Illustrator 21.1.0, SVG Export Plug-In . SVG Version: 6.00 Build 0)  -->
<svg version="1.1" id="Layer_1" xmlns="http://www.w3.org/2000/svg" xmlns:xlink="http://www.w3.org/1999/xlink" x="0px" y="0px"
	 viewBox="0 0 20 20" style="enable-background:new 0 0 20 20;" xml:space="preserve">
<style type="text/css">
	.st0{fill:#3E3D40;}
</style>
<path id="Combined-Shape" class="st0" d="M9.3,3.4L5.5,7.2c-0.4,0.4-1,0.4-1.4,0c-0.4-0.4-0.4-1,0-1.4c3.7-3.7,5.5-5.5,5.5-5.5
	C9.7,0.1,10,0,10.3,0c0.1,0,0.3,0,0.4,0.1c0,0,0,0,0.1,0c0.1,0,0.2,0.1,0.3,0.2l5.5,5.5c0.4,0.4,0.4,1,0,1.4s-1,0.4-1.4,0l-3.8-3.8
	V14c0,0.5-0.4,1-1,1s-1-0.5-1-1V3.4z M16.5,12c0-0.6,0.4-1,1-1s1,0.4,1,1v4.2c0,2-1.6,3.6-3.6,3.6H5.6c-2,0-3.6-1.6-3.6-3.6V12
	c0-0.6,0.4-1,1-1s1,0.4,1,1v4.2c0,0.9,0.7,1.6,1.6,1.6h9.3c0.9,0,1.6-0.7,1.6-1.6V12z"/>
</svg>
