<?xml version="1.0" encoding="utf-8"?>
<!-- Generator: Adobe Illustrator 21.1.0, SVG Export Plug-In . SVG Version: 6.00 Build 0)  -->
<svg version="1.1" id="Layer_1" xmlns="http://www.w3.org/2000/svg" xmlns:xlink="http://www.w3.org/1999/xlink" x="0px" y="0px"
	 viewBox="0 0 20 20" style="enable-background:new 0 0 20 20;" xml:space="preserve">
<style type="text/css">
	.st0{filter:url(#Adobe_OpacityMaskFilter);}
	.st1{fill:#FFFFFF;}
	.st2{mask:url(#mask-2);fill:#3E3D40;}
	.st3{fill:#3E3D40;}
</style>
<g id="Page-1" transform="translate(2.000000, -1.000000)">
	<defs>
		<filter id="Adobe_OpacityMaskFilter" filterUnits="userSpaceOnUse" x="0" y="1" width="16.2" height="19.9">
			<feColorMatrix  type="matrix" values="1 0 0 0 0  0 1 0 0 0  0 0 1 0 0  0 0 0 1 0"/>
		</filter>
	</defs>
	<mask maskUnits="userSpaceOnUse" x="0" y="1" width="16.2" height="19.9" id="mask-2">
		<g class="st0">
			<polygon id="path-1" class="st1" points="16.2,20.9 16.2,1 0,1 0,20.9 			"/>
		</g>
	</mask>
	<path id="Fill-1" class="st2" d="M13,17c0,1.1-0.8,1.9-1.9,1.9h-6c-1,0-1.9-0.9-1.9-1.9V5.5H13V17z M8.1,2.2c0.8,0,1.5,0.5,1.8,1.3
		H6.3C6.6,2.8,7.3,2.2,8.1,2.2L8.1,2.2z M15.2,3.5h-4C10.9,2.1,9.7,1,8.1,1C6.6,1,5.3,2.1,5,3.5H1c-0.6,0-1,0.5-1,1s0.5,1,1,1h0.3
		v11.4c0,2.2,1.7,4,3.9,4h6c2.1,0,3.9-1.8,3.9-4V5.5h0.3c0.6,0,1-0.4,1-1S15.8,3.5,15.2,3.5L15.2,3.5z"/>
	<path id="Fill-4" class="st3" d="M5.7,16.4c0.3,0,0.6-0.3,0.6-0.6V8.3C6.3,8,6,7.7,5.7,7.7C5.3,7.7,5,8,5,8.3v7.5
		C5,16.2,5.3,16.4,5.7,16.4"/>
	<path id="Fill-6" class="st3" d="M8.2,16.4c0.3,0,0.6-0.3,0.6-0.6V8.3c0-0.3-0.3-0.6-0.6-0.6C7.8,7.7,7.5,8,7.5,8.3v7.5
		C7.5,16.2,7.8,16.4,8.2,16.4"/>
	<path id="Fill-8" class="st3" d="M10.7,16.4c0.3,0,0.6-0.3,0.6-0.6V8.3c0-0.3-0.3-0.6-0.6-0.6C10.3,7.7,10,8,10,8.3v7.5
		C10,16.2,10.3,16.4,10.7,16.4"/>
</g>
</svg>
