<svg xmlns="http://www.w3.org/2000/svg" width="30" height="30"><path fill="#FFF" d="M7.517 1A3.748 3.748 0 0 0 3.77 4.75h3.747V1zM18.76 1H15.01v3.75h3.748V1zm7.494 0v3.75H30C30 2.679 28.322 1 26.253 1zM13.138 1H9.39v3.75h3.747V1zm11.241 0h-3.747v3.75h3.747V1zm1.874 9.374H30v-3.75h-3.747v3.75zm0 11.249A3.748 3.748 0 0 0 30 17.873h-3.747v3.75zm0-5.625H30v-3.75h-3.747v3.75zm-.826-4.062a3.746 3.746 0 0 0-5.218-.923l-7.185 5.308-3.688-2.587a4.65 4.65 0 0 0 .055-.548 4.666 4.666 0 0 0-1.874-3.729V6.624H3.77v1.969a4.688 4.688 0 0 0-1.584 8.561 4.681 4.681 0 0 0 5.252-.173l2.327 1.629-2.623 1.841a4.67 4.67 0 0 0-5.838.806A4.678 4.678 0 0 0 .9 27.141a4.67 4.67 0 0 0 5.672 1.6 4.676 4.676 0 0 0 2.726-5.228l16.13-11.577zM4.707 15.53a2.343 2.343 0 1 1 .001-4.686 2.343 2.343 0 0 1-.001 4.686zm0 11.249a2.343 2.343 0 1 1 .001-4.686 2.343 2.343 0 0 1-.001 4.686zm10.117-4.554l5.653 4.312a3.746 3.746 0 0 0 5.218-.923l-7.61-5.678-3.26 2.289z"/></svg>