<svg xmlns="http://www.w3.org/2000/svg" width="20" height="20" viewBox="0 0 20 20"><title>flag</title><path fill="#3e3d40" d="M15 9.6v.4s-.5.3-.9.4c-.9.2-2.3.5-3.7 0-1-.3-2-.5-3-.5-.5 0-1.1.1-1.6.2l-.8.2v-5L6.1 5c1.3-.3 2.6-.2 3.9.3h.1c1.6.6 2.8 1.5 4.5 1.1l.4-.1v3.3zm1-5.8l-1.4.3c-1.4.3-2.9-.6-4.2-1.1-1.5-.5-3.1-.6-4.6-.3l-.8.2V2c0-.4-.2-1-1-1s-.9.5-1 .8V18c0 .4.3 1 1 1s1-.6 1-1v-5.5l1.1-.2c1.3-.3 2.6-.2 3.9.3l-1-.3c.9.3 3.9.4 5.3.3 1-.1 2.2-.7 2.2-.7.3-.1.3-.6.3-.9V4.5c0-.2-.1-.4-.3-.5-.1-.2-.3-.2-.5-.2z"/></svg>