<svg id="Layer_1" xmlns="http://www.w3.org/2000/svg" viewBox="0 0 20 20" enable-background="new 0 0 20 20"><style>.st3{fill:#3e3d40}</style><g id="Page-1" transform="translate(2 -1)"><defs><filter id="Adobe_OpacityMaskFilter" filterUnits="userSpaceOnUse" x="0" y="1" width="16.2" height="19.9"><feColorMatrix values="1 0 0 0 0 0 1 0 0 0 0 0 1 0 0 0 0 0 1 0"/></filter></defs><mask maskUnits="userSpaceOnUse" x="0" y="1" width="16.2" height="19.9" id="mask-2"><g filter="url(#Adobe_OpacityMaskFilter)"><path id="path-1" fill="#fff" d="M16.2 20.9V1H0v19.9z"/></g></mask><path id="Fill-1" d="M13 17c0 1.1-.8 1.9-1.9 1.9h-6c-1 0-1.9-.9-1.9-1.9V5.5H13V17zM8.1 2.2c.8 0 1.5.5 1.8 1.3H6.3c.3-.7 1-1.3 1.8-1.3zm7.1 1.3h-4C10.9 2.1 9.7 1 8.1 1 6.6 1 5.3 2.1 5 3.5H1c-.6 0-1 .5-1 1s.5 1 1 1h.3v11.4c0 2.2 1.7 4 3.9 4h6c2.1 0 3.9-1.8 3.9-4V5.5h.3c.6 0 1-.4 1-1s-.6-1-1.2-1z" mask="url(#mask-2)" fill="#3e3d40"/><path id="Fill-4" class="st3" d="M5.7 16.4c.3 0 .6-.3.6-.6V8.3c0-.3-.3-.6-.6-.6-.4 0-.7.3-.7.6v7.5c0 .4.3.6.7.6"/><path id="Fill-6" class="st3" d="M8.2 16.4c.3 0 .6-.3.6-.6V8.3c0-.3-.3-.6-.6-.6-.4 0-.7.3-.7.6v7.5c0 .4.3.6.7.6"/><path id="Fill-8" class="st3" d="M10.7 16.4c.3 0 .6-.3.6-.6V8.3c0-.3-.3-.6-.6-.6-.4 0-.7.3-.7.6v7.5c0 .4.3.6.7.6"/></g></svg>