<?xml version="1.0" encoding="utf-8"?>
<!-- Generator: Adobe Illustrator 20.0.0, SVG Export Plug-In . SVG Version: 6.00 Build 0)  -->
<!DOCTYPE svg PUBLIC "-//W3C//DTD SVG 1.1//EN" "http://www.w3.org/Graphics/SVG/1.1/DTD/svg11.dtd">
<svg version="1.1" id="Layer_1" xmlns="http://www.w3.org/2000/svg" x="0px" y="0px"
	 viewBox="0 0 216 216" style="enable-background:new 0 0 216 216;" xml:space="preserve">
<style type="text/css">
	.st0{fill:#30334F;}
	.st1{fill:#FFFFFF;}
	.st2{fill:#737EB3;}
	.st3{fill:#535A80;}
	.st4{fill:#2BB0CC;}
	.st5{fill:#5CE6E6;}
	.st6{fill:#99FFFF;}
	.st7{fill:#CCFFFF;}
	.st8{fill:#0F8099;}
</style>
<g>
	<g>
		<path class="st0" d="M184,88.5h-60.7c-0.6,0-1-0.4-1-1s0.4-1,1-1H184c0.6,0,1,0.4,1,1S184.6,88.5,184,88.5z"/>
	</g>
	<g>
		<path class="st0" d="M80.8,76.3H49c-0.6,0-1-0.4-1-1s0.4-1,1-1h31.8c0.6,0,1,0.4,1,1S81.3,76.3,80.8,76.3z"/>
	</g>
	<g>
		<path class="st0" d="M65.3,71.6h-9c-0.3,0-0.5-0.2-0.5-0.5s0.2-0.5,0.5-0.5h9c0.3,0,0.5,0.2,0.5,0.5S65.6,71.6,65.3,71.6z"/>
	</g>
	<g>
		<path class="st0" d="M87.8,116.6h-64c-0.3,0-0.5-0.2-0.5-0.5s0.2-0.5,0.5-0.5h64c0.3,0,0.5,0.2,0.5,0.5S88.1,116.6,87.8,116.6z"/>
	</g>
	<g>
		<path class="st0" d="M77.3,112.6H46.6c-0.3,0-0.5-0.2-0.5-0.5s0.2-0.5,0.5-0.5h30.7c0.3,0,0.5,0.2,0.5,0.5S77.6,112.6,77.3,112.6z
			"/>
	</g>
	<g>
		<path class="st0" d="M175.8,83.2h-26.9c-0.3,0-0.5-0.2-0.5-0.5s0.2-0.5,0.5-0.5h26.9c0.3,0,0.5,0.2,0.5,0.5S176,83.2,175.8,83.2z"
			/>
	</g>
	<path class="st1" d="M149,29.6L149,29.6C148.9,29.6,148.9,29.6,149,29.6z"/>
	<g>
		<path class="st0" d="M199.7,92.7h-91.3c-0.3,0-0.5-0.2-0.5-0.5s0.2-0.5,0.5-0.5h91.3c0.3,0,0.5,0.2,0.5,0.5S199.9,92.7,199.7,92.7
			z"/>
	</g>
	<g>
		<path class="st0" d="M71.1,151.4H24c-0.6,0-1-0.4-1-1s0.4-1,1-1h47.1c0.6,0,1,0.4,1,1S71.7,151.4,71.1,151.4z"/>
	</g>
	<path class="st2" d="M123.6,55.3h19.5c0,0-6.1-13.6,6.8-15.4c11.5-1.6,16.1,10.3,16.1,10.3s1.4-6.8,8.2-5.5
		c6.8,1.3,11.8,12.2,11.8,12.2h17"/>
	<g>
		<path class="st3" d="M203.4,53.6h-17c-0.2,0-0.4-0.1-0.4-0.3c0-0.1-5-9.7-11.4-10.9c-6.3-1.2-7.6,4.9-7.6,5.1
			c0,0.2-0.2,0.4-0.4,0.4c-0.2,0-0.4-0.1-0.5-0.3c0,0-1.1-2.9-3.6-5.6c-3.3-3.5-7.3-5-11.9-4.4c-3.4,0.5-5.7,1.8-6.9,3.9
			c-2.4,4.3,0.4,10.7,0.4,10.8c0.1,0.2,0.1,0.3,0,0.5c-0.1,0.1-0.2,0.2-0.4,0.2H124c-0.3,0-0.5-0.2-0.5-0.5s0.2-0.5,0.5-0.5h18.7
			c-0.7-1.9-2.3-7-0.1-10.9c1.4-2.4,3.9-3.9,7.6-4.4c9.6-1.3,14.5,6.4,16.1,9.4c0.8-2,3.1-5.7,8.4-4.7c6.4,1.2,11.1,9.5,12,11.2
			h16.7c0.3,0,0.5,0.2,0.5,0.5S203.6,53.6,203.4,53.6z"/>
	</g>
	<g>
		<path class="st2" d="M203.9,57.1h-80.3c-0.6,0-1-0.4-1-1s0.4-1,1-1h80.3c0.6,0,1,0.4,1,1S204.5,57.1,203.9,57.1z"/>
	</g>
	<path class="st2" d="M36.7,43h10.8c0,0-3.4-7.6,3.8-8.6c6.4-0.9,9,5.7,9,5.7s0.8-3.8,4.6-3.1c3.8,0.7,6.5,6.8,6.5,6.8h9.4"/>
	<g>
		<path class="st3" d="M47.9,41.8H37.1c-0.3,0-0.5-0.2-0.5-0.5s0.2-0.5,0.5-0.5h10.1c-0.4-1.2-1.1-3.9,0.1-6
			c0.8-1.4,2.3-2.3,4.4-2.6c5.1-0.7,7.9,3,8.9,4.9c0.7-1.4,2.1-2.8,4.7-2.3c3.5,0.7,6.1,4.7,6.7,5.8h9.1c0.3,0,0.5,0.2,0.5,0.5
			s-0.2,0.5-0.5,0.5h-9.4c-0.2,0-0.3-0.1-0.4-0.3c0,0-2.7-4.9-6.2-5.5c-3.3-0.6-4,2.6-4,2.7c0,0.2-0.2,0.4-0.4,0.4
			c-0.2,0-0.4-0.1-0.5-0.3c-0.1-0.3-2.5-6.2-8.4-5.4c-1.8,0.2-3,0.9-3.7,2.1c-1.3,2.3,0.2,5.7,0.2,5.8c0.1,0.2,0.1,0.3,0,0.5
			C48.2,41.7,48.1,41.8,47.9,41.8z"/>
	</g>
	<g>
		<path class="st2" d="M81.6,44.9H36.9c-0.6,0-1-0.4-1-1s0.4-1,1-1h44.6c0.6,0,1,0.4,1,1S82.1,44.9,81.6,44.9z"/>
	</g>
	<g>
		<path class="st0" d="M188.9,151.4h-47.4c-0.6,0-1-0.4-1-1s0.4-1,1-1h47.4c0.6,0,1,0.4,1,1S189.4,151.4,188.9,151.4z"/>
	</g>
	<g>
		<g>
			<path class="st3" d="M169.9,197.1h-3c-0.6,0-1-0.4-1-1s0.4-1,1-1h2v-2c0-0.6,0.4-1,1-1s1,0.4,1,1v3
				C170.9,196.7,170.5,197.1,169.9,197.1z"/>
		</g>
		<g>
			<path class="st3" d="M161.1,197.1h-5.8c-0.6,0-1-0.4-1-1s0.4-1,1-1h5.8c0.6,0,1,0.4,1,1S161.7,197.1,161.1,197.1z M149.5,197.1
				h-5.8c-0.6,0-1-0.4-1-1s0.4-1,1-1h5.8c0.6,0,1,0.4,1,1S150.1,197.1,149.5,197.1z M137.9,197.1h-5.8c-0.6,0-1-0.4-1-1s0.4-1,1-1
				h5.8c0.6,0,1,0.4,1,1S138.5,197.1,137.9,197.1z M126.4,197.1h-5.8c-0.6,0-1-0.4-1-1s0.4-1,1-1h5.8c0.6,0,1,0.4,1,1
				S126.9,197.1,126.4,197.1z M114.8,197.1H109c-0.6,0-1-0.4-1-1s0.4-1,1-1h5.8c0.6,0,1,0.4,1,1S115.3,197.1,114.8,197.1z
				 M103.2,197.1h-5.8c-0.6,0-1-0.4-1-1s0.4-1,1-1h5.8c0.6,0,1,0.4,1,1S103.7,197.1,103.2,197.1z M91.6,197.1h-5.8c-0.6,0-1-0.4-1-1
				s0.4-1,1-1h5.8c0.6,0,1,0.4,1,1S92.1,197.1,91.6,197.1z M80,197.1h-5.8c-0.6,0-1-0.4-1-1s0.4-1,1-1H80c0.6,0,1,0.4,1,1
				S80.5,197.1,80,197.1z M68.4,197.1h-5.8c-0.6,0-1-0.4-1-1s0.4-1,1-1h5.8c0.6,0,1,0.4,1,1S68.9,197.1,68.4,197.1z M56.8,197.1H51
				c-0.6,0-1-0.4-1-1s0.4-1,1-1h5.8c0.6,0,1,0.4,1,1S57.3,197.1,56.8,197.1z"/>
		</g>
		<g>
			<path class="st3" d="M45.2,197.1h-3c-0.6,0-1-0.4-1-1v-3c0-0.6,0.4-1,1-1s1,0.4,1,1v2h2c0.6,0,1,0.4,1,1S45.7,197.1,45.2,197.1z"
				/>
		</g>
		<g>
			<path class="st3" d="M42.2,188.2c-0.6,0-1-0.4-1-1v-6c0-0.6,0.4-1,1-1s1,0.4,1,1v6C43.2,187.7,42.7,188.2,42.2,188.2z
				 M42.2,176.2c-0.6,0-1-0.4-1-1v-6c0-0.6,0.4-1,1-1s1,0.4,1,1v6C43.2,175.8,42.7,176.2,42.2,176.2z M42.2,164.3c-0.6,0-1-0.4-1-1
				v-6c0-0.6,0.4-1,1-1s1,0.4,1,1v6C43.2,163.8,42.7,164.3,42.2,164.3z M42.2,152.4c-0.6,0-1-0.4-1-1v-6c0-0.6,0.4-1,1-1s1,0.4,1,1
				v6C43.2,151.9,42.7,152.4,42.2,152.4z M42.2,140.4c-0.6,0-1-0.4-1-1v-6c0-0.6,0.4-1,1-1s1,0.4,1,1v6
				C43.2,140,42.7,140.4,42.2,140.4z M42.2,128.5c-0.6,0-1-0.4-1-1v-6c0-0.6,0.4-1,1-1s1,0.4,1,1v6C43.2,128,42.7,128.5,42.2,128.5z
				 M42.2,116.5c-0.6,0-1-0.4-1-1v-6c0-0.6,0.4-1,1-1s1,0.4,1,1v6C43.2,116.1,42.7,116.5,42.2,116.5z M42.2,104.6c-0.6,0-1-0.4-1-1
				v-6c0-0.6,0.4-1,1-1s1,0.4,1,1v6C43.2,104.2,42.7,104.6,42.2,104.6z M42.2,92.7c-0.6,0-1-0.4-1-1v-6c0-0.6,0.4-1,1-1s1,0.4,1,1v6
				C43.2,92.2,42.7,92.7,42.2,92.7z M42.2,80.7c-0.6,0-1-0.4-1-1v-6c0-0.6,0.4-1,1-1s1,0.4,1,1v6C43.2,80.3,42.7,80.7,42.2,80.7z
				 M42.2,68.8c-0.6,0-1-0.4-1-1v-6c0-0.6,0.4-1,1-1s1,0.4,1,1v6C43.2,68.4,42.7,68.8,42.2,68.8z M42.2,56.9c-0.6,0-1-0.4-1-1v-6
				c0-0.6,0.4-1,1-1s1,0.4,1,1v6C43.2,56.4,42.7,56.9,42.2,56.9z M42.2,44.9c-0.6,0-1-0.4-1-1v-6c0-0.6,0.4-1,1-1s1,0.4,1,1v6
				C43.2,44.5,42.7,44.9,42.2,44.9z M42.2,33c-0.6,0-1-0.4-1-1v-6c0-0.6,0.4-1,1-1s1,0.4,1,1v6C43.2,32.6,42.7,33,42.2,33z"/>
		</g>
		<g>
			<path class="st3" d="M42.2,21.1c-0.6,0-1-0.4-1-1v-3c0-0.6,0.4-1,1-1h3c0.6,0,1,0.4,1,1s-0.4,1-1,1h-2v2
				C43.2,20.6,42.7,21.1,42.2,21.1z"/>
		</g>
		<g>
			<path class="st3" d="M161.1,18.1h-5.8c-0.6,0-1-0.4-1-1s0.4-1,1-1h5.8c0.6,0,1,0.4,1,1S161.7,18.1,161.1,18.1z M149.5,18.1h-5.8
				c-0.6,0-1-0.4-1-1s0.4-1,1-1h5.8c0.6,0,1,0.4,1,1S150.1,18.1,149.5,18.1z M137.9,18.1h-5.8c-0.6,0-1-0.4-1-1s0.4-1,1-1h5.8
				c0.6,0,1,0.4,1,1S138.5,18.1,137.9,18.1z M126.4,18.1h-5.8c-0.6,0-1-0.4-1-1s0.4-1,1-1h5.8c0.6,0,1,0.4,1,1
				S126.9,18.1,126.4,18.1z M114.8,18.1H109c-0.6,0-1-0.4-1-1s0.4-1,1-1h5.8c0.6,0,1,0.4,1,1S115.3,18.1,114.8,18.1z M103.2,18.1
				h-5.8c-0.6,0-1-0.4-1-1s0.4-1,1-1h5.8c0.6,0,1,0.4,1,1S103.7,18.1,103.2,18.1z M91.6,18.1h-5.8c-0.6,0-1-0.4-1-1s0.4-1,1-1h5.8
				c0.6,0,1,0.4,1,1S92.1,18.1,91.6,18.1z M80,18.1h-5.8c-0.6,0-1-0.4-1-1s0.4-1,1-1H80c0.6,0,1,0.4,1,1S80.5,18.1,80,18.1z
				 M68.4,18.1h-5.8c-0.6,0-1-0.4-1-1s0.4-1,1-1h5.8c0.6,0,1,0.4,1,1S68.9,18.1,68.4,18.1z M56.8,18.1H51c-0.6,0-1-0.4-1-1
				s0.4-1,1-1h5.8c0.6,0,1,0.4,1,1S57.3,18.1,56.8,18.1z"/>
		</g>
		<g>
			<path class="st3" d="M169.9,21.1c-0.6,0-1-0.4-1-1v-2h-2c-0.6,0-1-0.4-1-1s0.4-1,1-1h3c0.6,0,1,0.4,1,1v3
				C170.9,20.6,170.5,21.1,169.9,21.1z"/>
		</g>
		<g>
			<path class="st3" d="M169.9,188.2c-0.6,0-1-0.4-1-1v-6c0-0.6,0.4-1,1-1s1,0.4,1,1v6C170.9,187.7,170.5,188.2,169.9,188.2z
				 M169.9,176.2c-0.6,0-1-0.4-1-1v-6c0-0.6,0.4-1,1-1s1,0.4,1,1v6C170.9,175.8,170.5,176.2,169.9,176.2z M169.9,164.3
				c-0.6,0-1-0.4-1-1v-6c0-0.6,0.4-1,1-1s1,0.4,1,1v6C170.9,163.8,170.5,164.3,169.9,164.3z M169.9,152.4c-0.6,0-1-0.4-1-1v-6
				c0-0.6,0.4-1,1-1s1,0.4,1,1v6C170.9,151.9,170.5,152.4,169.9,152.4z M169.9,140.4c-0.6,0-1-0.4-1-1v-6c0-0.6,0.4-1,1-1s1,0.4,1,1
				v6C170.9,140,170.5,140.4,169.9,140.4z M169.9,128.5c-0.6,0-1-0.4-1-1v-6c0-0.6,0.4-1,1-1s1,0.4,1,1v6
				C170.9,128,170.5,128.5,169.9,128.5z M169.9,116.5c-0.6,0-1-0.4-1-1v-6c0-0.6,0.4-1,1-1s1,0.4,1,1v6
				C170.9,116.1,170.5,116.5,169.9,116.5z M169.9,104.6c-0.6,0-1-0.4-1-1v-6c0-0.6,0.4-1,1-1s1,0.4,1,1v6
				C170.9,104.2,170.5,104.6,169.9,104.6z M169.9,92.7c-0.6,0-1-0.4-1-1v-6c0-0.6,0.4-1,1-1s1,0.4,1,1v6
				C170.9,92.2,170.5,92.7,169.9,92.7z M169.9,80.7c-0.6,0-1-0.4-1-1v-6c0-0.6,0.4-1,1-1s1,0.4,1,1v6
				C170.9,80.3,170.5,80.7,169.9,80.7z M169.9,68.8c-0.6,0-1-0.4-1-1v-6c0-0.6,0.4-1,1-1s1,0.4,1,1v6
				C170.9,68.4,170.5,68.8,169.9,68.8z M169.9,56.9c-0.6,0-1-0.4-1-1v-6c0-0.6,0.4-1,1-1s1,0.4,1,1v6
				C170.9,56.4,170.5,56.9,169.9,56.9z M169.9,44.9c-0.6,0-1-0.4-1-1v-6c0-0.6,0.4-1,1-1s1,0.4,1,1v6
				C170.9,44.5,170.5,44.9,169.9,44.9z M169.9,33c-0.6,0-1-0.4-1-1v-6c0-0.6,0.4-1,1-1s1,0.4,1,1v6C170.9,32.6,170.5,33,169.9,33z"
				/>
		</g>
	</g>
	<ellipse class="st0" cx="104.9" cy="165.9" rx="26.6" ry="5.7"/>
	<g id="Layer_2_2_">
		<path class="st4" d="M117.8,114.3c-3.1,3.1-6.9,7.2-7.3,12.5c0.5,5.3,4.2,9.4,7.3,12.5c4.2,3.7,6.9,9.1,6.9,15.1c0,0,0,0,0,0h0
			v8.5H84.9v-8.5h0c0,0,0,0,0,0c0-6,2.7-11.4,6.9-15.1c3.1-3.1,6.9-7.2,7.3-12.5c-0.5-5.3-4.2-9.4-7.3-12.5
			c-4.2-3.7-6.9-9.1-6.9-15.1v-8.6h39.8v8.6C124.7,105.3,122,110.7,117.8,114.3z"/>
	</g>
	<g id="Layer_2_1_">
		<path class="st5" d="M115.4,113.3c-2.5,3.1-6.6,8.2-6.9,13.5c0.4,5.3,4.4,10.4,6.9,13.5c3.4,3.7,5.6,8.1,5.6,14.1c0,0,0,0,0,0h0
			v8.5H88.7v-8.5h0c0,0,0,0,0,0c0-6,2.2-10.4,5.6-14.1c2.5-3.1,6.6-8.2,6.9-13.5c-0.4-5.3-4.4-10.4-6.9-13.5
			c-3.4-3.7-5.6-8.1-5.6-14.1v-1.6c0,0,7.5,2,17,2s15.4-2,15.4-2v1.6C121.1,105.3,118.9,109.7,115.4,113.3z"/>
	</g>
	<g id="Layer_4_1_">
		<path class="st4" d="M124.7,92.8H84.9c-1.2,0-2.2-1-2.2-2.2s1-2.2,2.2-2.2h39.8c1.2,0,2.2,1,2.2,2.2S126,92.8,124.7,92.8z
			 M127,162.9c0-1.2-1-2.2-2.2-2.2H84.9c-1.2,0-2.2,1-2.2,2.2c0,1.2,1,2.2,2.2,2.2h39.8C126,165.1,127,164.1,127,162.9z"/>
	</g>
	<ellipse class="st4" cx="104.8" cy="163.7" rx="21.9" ry="4.3"/>
	<ellipse class="st4" cx="104.8" cy="160.7" rx="20" ry="3"/>
	<path class="st6" d="M101.7,121.8c0,0,1.5,3.1,3.2,3.2s3.4-3.3,3.4-3.3L101.7,121.8z"/>
	<path class="st6" d="M104.8,141.6c5.7,0,16,17.6,16,17.6s-0.6,2-15.1,2s-16.9-2-16.9-2S99.2,141.6,104.8,141.6z"/>
	<ellipse class="st4" cx="105" cy="92.2" rx="21.4" ry="3"/>
	<ellipse class="st5" cx="104.9" cy="89.2" rx="21.3" ry="3"/>
	<ellipse class="st7" cx="105.1" cy="121.7" rx="3.3" ry="0.5"/>
	<circle class="st6" cx="104.9" cy="128.1" r="0.9"/>
	<circle class="st6" cx="104.6" cy="134.1" r="0.9"/>
	<circle class="st6" cx="104" cy="141.4" r="0.9"/>
	<circle class="st6" cx="106.4" cy="138.7" r="0.9"/>
	<g>
		<path class="st7" d="M93.7,104.3c-0.1,0-0.1,0-0.2,0c-0.1,0-0.1,0-0.2-0.1c-0.1,0-0.1-0.1-0.2-0.1c0,0-0.1-0.1-0.1-0.1
			c-0.2-0.2-0.3-0.4-0.3-0.7c0-0.1,0-0.3,0.1-0.4c0-0.1,0.1-0.2,0.2-0.3c0-0.1,0.1-0.1,0.1-0.1c0.1,0,0.1-0.1,0.2-0.1
			c0.1,0,0.1,0,0.2,0c0.3-0.1,0.7,0,0.9,0.3c0.1,0.1,0.2,0.2,0.2,0.3c0.1,0.1,0.1,0.2,0.1,0.4c0,0.3-0.1,0.5-0.3,0.7
			C94.2,104.2,94,104.3,93.7,104.3z"/>
	</g>
	<g>
		<path class="st7" d="M93.5,156.7c-0.5,0-1-0.4-1-1c-0.2-6.4,2.2-10.2,2.3-10.4c0.3-0.5,0.9-0.6,1.4-0.3c0.5,0.3,0.6,0.9,0.3,1.4
			c0,0.1-2.2,3.6-2,9.3C94.5,156.2,94.1,156.6,93.5,156.7C93.6,156.7,93.5,156.7,93.5,156.7z"/>
	</g>
	<g>
		<path class="st7" d="M100.2,115.3c-0.3,0-0.6-0.1-0.8-0.3c-2-2.4-5-7.1-5.1-7.3c-0.3-0.5-0.1-1.1,0.3-1.4c0.5-0.3,1.1-0.1,1.4,0.3
			c0,0,3,4.8,4.9,7c0.4,0.4,0.3,1.1-0.1,1.4C100.7,115.2,100.4,115.3,100.2,115.3z"/>
	</g>
	<path class="st8" d="M105,86.2c11.1,0,20.2,1.2,21.1,2.8c0.5,0.4,0.8,1,0.8,1.7c0,0.5-0.2,1-0.5,1.4c0,0,0,0.1,0,0.1
		c0,0.4-0.6,0.8-1.7,1.2v5.9c0,6-2.7,11.4-6.9,15.1c-3.1,3.1-6.8,7.2-7.3,12.5c0.5,5.3,4.2,9.4,7.3,12.5c4.2,3.7,6.9,9.1,6.9,15.1
		c0,0,0,0,0,0h0v6.3h0c1.2,0,2.2,1,2.2,2.2c0,0.3-0.1,0.7-0.2,0.9c-0.4,2.3-10,4.1-21.8,4.1c-11.9,0-21.6-1.9-21.8-4.2
		c-0.1-0.3-0.2-0.6-0.2-0.9c0-1.2,1-2.2,2.2-2.2v-6.3h0c0,0,0,0,0,0c0-6,2.7-11.4,6.9-15.1c3.1-3.1,6.8-7.2,7.3-12.5
		c-0.5-5.3-4.2-9.4-7.3-12.5c-4.2-3.7-6.9-9.1-6.9-15.1v-6.1c-0.5-0.2-0.9-0.4-1.1-0.6c-0.7-0.4-1.1-1.1-1.1-1.9
		c0-0.9,0.5-1.7,1.3-2C86,87.2,94.6,86.2,105,86.2 M105,85.2c-8.8,0-18.7,0.8-21.3,2.6c-1.1,0.5-1.8,1.7-1.8,2.9
		c0,1.1,0.6,2.2,1.5,2.7c0.2,0.2,0.4,0.3,0.7,0.5v5.4c0,6.1,2.6,11.8,7.2,15.8c3.1,3.2,6.5,6.9,7,11.8c-0.5,4.8-3.8,8.6-7,11.8
		c-4.6,4-7.2,9.7-7.2,15.8c0,0,0,0,0,0.1l0,5.4c-1.3,0.4-2.2,1.6-2.2,3.1c0,0.4,0.1,0.8,0.2,1.2c0.8,3.8,14.7,4.9,22.8,4.9
		c8.1,0,21.8-1,22.8-4.8c0.2-0.4,0.3-0.8,0.3-1.3c0-1.4-0.9-2.6-2.2-3.1l0-5.4c0,0,0,0,0,0c0-6.1-2.6-11.9-7.2-15.8
		c-3.1-3.2-6.5-6.9-7-11.8c0.5-4.8,3.8-8.6,7-11.8c4.6-4,7.2-9.7,7.2-15.8V94c0.7-0.3,1.6-0.8,1.7-1.7c0.3-0.5,0.5-1.1,0.5-1.7
		c0-0.9-0.4-1.8-1.1-2.4C124.5,85.2,107,85.2,105,85.2L105,85.2z"/>
	<g>
		<path class="st8" d="M104.7,164.8c-1.3,0-2.1,0-2.1,0c-0.3,0-0.5-0.2-0.5-0.5c0-0.3,0.3-0.5,0.5-0.5c0.1,0,7.2,0.3,14.9-1
			c4.6-0.8,7.4-2.9,7.4-2.9c0.2-0.2,0.5-0.1,0.7,0.1c0.2,0.2,0.1,0.5-0.1,0.7c-0.1,0.1-3,2.3-7.9,3.1
			C112.4,164.7,107.4,164.8,104.7,164.8z"/>
	</g>
	<g>
		<path class="st8" d="M90.1,163.4c0,0-0.1,0-0.1,0c-0.2,0-4-0.9-5.4-2.4c-0.2-0.2-0.2-0.5,0-0.7c0.2-0.2,0.5-0.2,0.7,0
			c1,1.1,3.9,1.9,4.9,2.1c0.3,0.1,0.4,0.3,0.4,0.6C90.5,163.3,90.3,163.4,90.1,163.4z"/>
	</g>
	<g>
		<path class="st8" d="M101.5,96.8c-2.2,0-12-0.2-17.3-2.9c-0.2-0.1-0.3-0.4-0.2-0.7c0.1-0.2,0.4-0.3,0.7-0.2
			c5.7,2.9,17.1,2.8,17.3,2.8c0,0,0,0,0,0c0.3,0,0.5,0.2,0.5,0.5c0,0.3-0.2,0.5-0.5,0.5C101.9,96.8,101.7,96.8,101.5,96.8z"/>
	</g>
	<g>
		<path class="st8" d="M114.9,96.4c-0.3,0-0.5-0.2-0.5-0.5c0-0.3,0.2-0.5,0.5-0.5c0.1,0,7.4-0.7,11.5-2.9c0.2-0.1,0.5,0,0.7,0.2
			c0.1,0.2,0,0.5-0.2,0.7C122.6,95.7,115.3,96.4,114.9,96.4C114.9,96.4,114.9,96.4,114.9,96.4z"/>
	</g>
</g>
</svg>
