<svg id="Layer_1" xmlns="http://www.w3.org/2000/svg" viewBox="0 0 216 216"><style>.st0{fill:#30334f}.st2{fill:#737eb3}.st3{fill:#535a80}.st4{fill:#2bb0cc}.st5{fill:#5ce6e6}.st6{fill:#9ff}.st7{fill:#cff}.st8{fill:#0f8099}</style><path class="st0" d="M184 88.5h-60.7c-.6 0-1-.4-1-1s.4-1 1-1H184c.6 0 1 .4 1 1s-.4 1-1 1zM80.8 76.3H49c-.6 0-1-.4-1-1s.4-1 1-1h31.8c.6 0 1 .4 1 1s-.5 1-1 1zm-15.5-4.7h-9c-.3 0-.5-.2-.5-.5s.2-.5.5-.5h9c.3 0 .5.2.5.5s-.2.5-.5.5zm22.5 45h-64c-.3 0-.5-.2-.5-.5s.2-.5.5-.5h64c.3 0 .5.2.5.5s-.2.5-.5.5zm-10.5-4H46.6c-.3 0-.5-.2-.5-.5s.2-.5.5-.5h30.7c.3 0 .5.2.5.5s-.2.5-.5.5zm98.5-29.4h-26.9c-.3 0-.5-.2-.5-.5s.2-.5.5-.5h26.9c.3 0 .5.2.5.5s-.3.5-.5.5z"/><path d="M149 29.6c-.1 0-.1 0 0 0z" fill="#fff"/><path class="st0" d="M199.7 92.7h-91.3c-.3 0-.5-.2-.5-.5s.2-.5.5-.5h91.3c.3 0 .5.2.5.5s-.3.5-.5.5zM71.1 151.4H24c-.6 0-1-.4-1-1s.4-1 1-1h47.1c.6 0 1 .4 1 1s-.4 1-1 1z"/><path class="st2" d="M123.6 55.3h19.5s-6.1-13.6 6.8-15.4c11.5-1.6 16.1 10.3 16.1 10.3s1.4-6.8 8.2-5.5C181 46 186 56.9 186 56.9h17"/><path class="st3" d="M203.4 53.6h-17c-.2 0-.4-.1-.4-.3 0-.1-5-9.7-11.4-10.9-6.3-1.2-7.6 4.9-7.6 5.1 0 .2-.2.4-.4.4s-.4-.1-.5-.3c0 0-1.1-2.9-3.6-5.6-3.3-3.5-7.3-5-11.9-4.4-3.4.5-5.7 1.8-6.9 3.9-2.4 4.3.4 10.7.4 10.8.1.2.1.3 0 .5-.1.1-.2.2-.4.2H124c-.3 0-.5-.2-.5-.5s.2-.5.5-.5h18.7c-.7-1.9-2.3-7-.1-10.9 1.4-2.4 3.9-3.9 7.6-4.4 9.6-1.3 14.5 6.4 16.1 9.4.8-2 3.1-5.7 8.4-4.7 6.4 1.2 11.1 9.5 12 11.2h16.7c.3 0 .5.2.5.5s-.3.5-.5.5z"/><path class="st2" d="M203.9 57.1h-80.3c-.6 0-1-.4-1-1s.4-1 1-1h80.3c.6 0 1 .4 1 1s-.4 1-1 1zM36.7 43h10.8s-3.4-7.6 3.8-8.6c6.4-.9 9 5.7 9 5.7s.8-3.8 4.6-3.1c3.8.7 6.5 6.8 6.5 6.8h9.4"/><path class="st3" d="M47.9 41.8H37.1c-.3 0-.5-.2-.5-.5s.2-.5.5-.5h10.1c-.4-1.2-1.1-3.9.1-6 .8-1.4 2.3-2.3 4.4-2.6 5.1-.7 7.9 3 8.9 4.9.7-1.4 2.1-2.8 4.7-2.3 3.5.7 6.1 4.7 6.7 5.8h9.1c.3 0 .5.2.5.5s-.2.5-.5.5h-9.4c-.2 0-.3-.1-.4-.3 0 0-2.7-4.9-6.2-5.5-3.3-.6-4 2.6-4 2.7 0 .2-.2.4-.4.4s-.4-.1-.5-.3c-.1-.3-2.5-6.2-8.4-5.4-1.8.2-3 .9-3.7 2.1-1.3 2.3.2 5.7.2 5.8.1.2.1.3 0 .5-.1.1-.2.2-.4.2z"/><path class="st2" d="M81.6 44.9H36.9c-.6 0-1-.4-1-1s.4-1 1-1h44.6c.6 0 1 .4 1 1s-.4 1-.9 1z"/><path class="st0" d="M188.9 151.4h-47.4c-.6 0-1-.4-1-1s.4-1 1-1h47.4c.6 0 1 .4 1 1s-.5 1-1 1z"/><path class="st3" d="M169.9 197.1h-3c-.6 0-1-.4-1-1s.4-1 1-1h2v-2c0-.6.4-1 1-1s1 .4 1 1v3c0 .6-.4 1-1 1zm-8.8 0h-5.8c-.6 0-1-.4-1-1s.4-1 1-1h5.8c.6 0 1 .4 1 1s-.4 1-1 1zm-11.6 0h-5.8c-.6 0-1-.4-1-1s.4-1 1-1h5.8c.6 0 1 .4 1 1s-.4 1-1 1zm-11.6 0h-5.8c-.6 0-1-.4-1-1s.4-1 1-1h5.8c.6 0 1 .4 1 1s-.4 1-1 1zm-11.5 0h-5.8c-.6 0-1-.4-1-1s.4-1 1-1h5.8c.6 0 1 .4 1 1s-.5 1-1 1zm-11.6 0H109c-.6 0-1-.4-1-1s.4-1 1-1h5.8c.6 0 1 .4 1 1s-.5 1-1 1zm-11.6 0h-5.8c-.6 0-1-.4-1-1s.4-1 1-1h5.8c.6 0 1 .4 1 1s-.5 1-1 1zm-11.6 0h-5.8c-.6 0-1-.4-1-1s.4-1 1-1h5.8c.6 0 1 .4 1 1s-.5 1-1 1zm-11.6 0h-5.8c-.6 0-1-.4-1-1s.4-1 1-1H80c.6 0 1 .4 1 1s-.5 1-1 1zm-11.6 0h-5.8c-.6 0-1-.4-1-1s.4-1 1-1h5.8c.6 0 1 .4 1 1s-.5 1-1 1zm-11.6 0H51c-.6 0-1-.4-1-1s.4-1 1-1h5.8c.6 0 1 .4 1 1s-.5 1-1 1zm-11.6 0h-3c-.6 0-1-.4-1-1v-3c0-.6.4-1 1-1s1 .4 1 1v2h2c.6 0 1 .4 1 1s-.5 1-1 1zm-3-8.9c-.6 0-1-.4-1-1v-6c0-.6.4-1 1-1s1 .4 1 1v6c0 .5-.5 1-1 1zm0-12c-.6 0-1-.4-1-1v-6c0-.6.4-1 1-1s1 .4 1 1v6c0 .6-.5 1-1 1zm0-11.9c-.6 0-1-.4-1-1v-6c0-.6.4-1 1-1s1 .4 1 1v6c0 .5-.5 1-1 1zm0-11.9c-.6 0-1-.4-1-1v-6c0-.6.4-1 1-1s1 .4 1 1v6c0 .5-.5 1-1 1zm0-12c-.6 0-1-.4-1-1v-6c0-.6.4-1 1-1s1 .4 1 1v6c0 .6-.5 1-1 1zm0-11.9c-.6 0-1-.4-1-1v-6c0-.6.4-1 1-1s1 .4 1 1v6c0 .5-.5 1-1 1zm0-12c-.6 0-1-.4-1-1v-6c0-.6.4-1 1-1s1 .4 1 1v6c0 .6-.5 1-1 1zm0-11.9c-.6 0-1-.4-1-1v-6c0-.6.4-1 1-1s1 .4 1 1v6c0 .6-.5 1-1 1zm0-11.9c-.6 0-1-.4-1-1v-6c0-.6.4-1 1-1s1 .4 1 1v6c0 .5-.5 1-1 1zm0-12c-.6 0-1-.4-1-1v-6c0-.6.4-1 1-1s1 .4 1 1v6c0 .6-.5 1-1 1zm0-11.9c-.6 0-1-.4-1-1v-6c0-.6.4-1 1-1s1 .4 1 1v6c0 .6-.5 1-1 1zm0-11.9c-.6 0-1-.4-1-1v-6c0-.6.4-1 1-1s1 .4 1 1v6c0 .5-.5 1-1 1zm0-12c-.6 0-1-.4-1-1v-6c0-.6.4-1 1-1s1 .4 1 1v6c0 .6-.5 1-1 1zm0-11.9c-.6 0-1-.4-1-1v-6c0-.6.4-1 1-1s1 .4 1 1v6c0 .6-.5 1-1 1zm0-11.9c-.6 0-1-.4-1-1v-3c0-.6.4-1 1-1h3c.6 0 1 .4 1 1s-.4 1-1 1h-2v2c0 .5-.5 1-1 1zm118.9-3h-5.8c-.6 0-1-.4-1-1s.4-1 1-1h5.8c.6 0 1 .4 1 1s-.4 1-1 1zm-11.6 0h-5.8c-.6 0-1-.4-1-1s.4-1 1-1h5.8c.6 0 1 .4 1 1s-.4 1-1 1zm-11.6 0h-5.8c-.6 0-1-.4-1-1s.4-1 1-1h5.8c.6 0 1 .4 1 1s-.4 1-1 1zm-11.5 0h-5.8c-.6 0-1-.4-1-1s.4-1 1-1h5.8c.6 0 1 .4 1 1s-.5 1-1 1zm-11.6 0H109c-.6 0-1-.4-1-1s.4-1 1-1h5.8c.6 0 1 .4 1 1s-.5 1-1 1zm-11.6 0h-5.8c-.6 0-1-.4-1-1s.4-1 1-1h5.8c.6 0 1 .4 1 1s-.5 1-1 1zm-11.6 0h-5.8c-.6 0-1-.4-1-1s.4-1 1-1h5.8c.6 0 1 .4 1 1s-.5 1-1 1zm-11.6 0h-5.8c-.6 0-1-.4-1-1s.4-1 1-1H80c.6 0 1 .4 1 1s-.5 1-1 1zm-11.6 0h-5.8c-.6 0-1-.4-1-1s.4-1 1-1h5.8c.6 0 1 .4 1 1s-.5 1-1 1zm-11.6 0H51c-.6 0-1-.4-1-1s.4-1 1-1h5.8c.6 0 1 .4 1 1s-.5 1-1 1zm113.1 3c-.6 0-1-.4-1-1v-2h-2c-.6 0-1-.4-1-1s.4-1 1-1h3c.6 0 1 .4 1 1v3c0 .5-.4 1-1 1zm0 167.1c-.6 0-1-.4-1-1v-6c0-.6.4-1 1-1s1 .4 1 1v6c0 .5-.4 1-1 1zm0-12c-.6 0-1-.4-1-1v-6c0-.6.4-1 1-1s1 .4 1 1v6c0 .6-.4 1-1 1zm0-11.9c-.6 0-1-.4-1-1v-6c0-.6.4-1 1-1s1 .4 1 1v6c0 .5-.4 1-1 1zm0-11.9c-.6 0-1-.4-1-1v-6c0-.6.4-1 1-1s1 .4 1 1v6c0 .5-.4 1-1 1zm0-12c-.6 0-1-.4-1-1v-6c0-.6.4-1 1-1s1 .4 1 1v6c0 .6-.4 1-1 1zm0-11.9c-.6 0-1-.4-1-1v-6c0-.6.4-1 1-1s1 .4 1 1v6c0 .5-.4 1-1 1zm0-12c-.6 0-1-.4-1-1v-6c0-.6.4-1 1-1s1 .4 1 1v6c0 .6-.4 1-1 1zm0-11.9c-.6 0-1-.4-1-1v-6c0-.6.4-1 1-1s1 .4 1 1v6c0 .6-.4 1-1 1zm0-11.9c-.6 0-1-.4-1-1v-6c0-.6.4-1 1-1s1 .4 1 1v6c0 .5-.4 1-1 1zm0-12c-.6 0-1-.4-1-1v-6c0-.6.4-1 1-1s1 .4 1 1v6c0 .6-.4 1-1 1zm0-11.9c-.6 0-1-.4-1-1v-6c0-.6.4-1 1-1s1 .4 1 1v6c0 .6-.4 1-1 1zm0-11.9c-.6 0-1-.4-1-1v-6c0-.6.4-1 1-1s1 .4 1 1v6c0 .5-.4 1-1 1zm0-12c-.6 0-1-.4-1-1v-6c0-.6.4-1 1-1s1 .4 1 1v6c0 .6-.4 1-1 1zm0-11.9c-.6 0-1-.4-1-1v-6c0-.6.4-1 1-1s1 .4 1 1v6c0 .6-.4 1-1 1z"/><ellipse class="st0" cx="104.9" cy="165.9" rx="26.6" ry="5.7"/><path class="st4" d="M117.8 114.3c-3.1 3.1-6.9 7.2-7.3 12.5.5 5.3 4.2 9.4 7.3 12.5 4.2 3.7 6.9 9.1 6.9 15.1v8.5H84.9v-8.5c0-6 2.7-11.4 6.9-15.1 3.1-3.1 6.9-7.2 7.3-12.5-.5-5.3-4.2-9.4-7.3-12.5-4.2-3.7-6.9-9.1-6.9-15.1v-8.6h39.8v8.6c0 6.1-2.7 11.5-6.9 15.1z" id="Layer_2_2_"/><path class="st5" d="M115.4 113.3c-2.5 3.1-6.6 8.2-6.9 13.5.4 5.3 4.4 10.4 6.9 13.5 3.4 3.7 5.6 8.1 5.6 14.1v8.5H88.7v-8.5c0-6 2.2-10.4 5.6-14.1 2.5-3.1 6.6-8.2 6.9-13.5-.4-5.3-4.4-10.4-6.9-13.5-3.4-3.7-5.6-8.1-5.6-14.1v-1.6s7.5 2 17 2 15.4-2 15.4-2v1.6c0 6.1-2.2 10.5-5.7 14.1z" id="Layer_2_1_"/><path class="st4" d="M124.7 92.8H84.9c-1.2 0-2.2-1-2.2-2.2s1-2.2 2.2-2.2h39.8c1.2 0 2.2 1 2.2 2.2s-.9 2.2-2.2 2.2zm2.3 70.1c0-1.2-1-2.2-2.2-2.2H84.9c-1.2 0-2.2 1-2.2 2.2 0 1.2 1 2.2 2.2 2.2h39.8c1.3 0 2.3-1 2.3-2.2z" id="Layer_4_1_"/><ellipse class="st4" cx="104.8" cy="163.7" rx="21.9" ry="4.3"/><ellipse class="st4" cx="104.8" cy="160.7" rx="20" ry="3"/><path class="st6" d="M101.7 121.8s1.5 3.1 3.2 3.2 3.4-3.3 3.4-3.3l-6.6.1zm3.1 19.8c5.7 0 16 17.6 16 17.6s-.6 2-15.1 2-16.9-2-16.9-2 10.4-17.6 16-17.6z"/><ellipse class="st4" cx="105" cy="92.2" rx="21.4" ry="3"/><ellipse class="st5" cx="104.9" cy="89.2" rx="21.3" ry="3"/><ellipse class="st7" cx="105.1" cy="121.7" rx="3.3" ry=".5"/><circle class="st6" cx="104.9" cy="128.1" r=".9"/><circle class="st6" cx="104.6" cy="134.1" r=".9"/><circle class="st6" cx="104" cy="141.4" r=".9"/><circle class="st6" cx="106.4" cy="138.7" r=".9"/><path class="st7" d="M93.7 104.3h-.2c-.1 0-.1 0-.2-.1-.1 0-.1-.1-.2-.1l-.1-.1c-.2-.2-.3-.4-.3-.7 0-.1 0-.3.1-.4 0-.1.1-.2.2-.3 0-.1.1-.1.1-.1.1 0 .1-.1.2-.1h.2c.3-.1.7 0 .9.3.1.1.2.2.2.3.1.1.1.2.1.4 0 .3-.1.5-.3.7-.2.1-.4.2-.7.2zM93.5 156.7c-.5 0-1-.4-1-1-.2-6.4 2.2-10.2 2.3-10.4.3-.5.9-.6 1.4-.3.5.3.6.9.3 1.4 0 .1-2.2 3.6-2 9.3 0 .5-.4.9-1 1 .1 0 0 0 0 0zM100.2 115.3c-.3 0-.6-.1-.8-.3-2-2.4-5-7.1-5.1-7.3-.3-.5-.1-1.1.3-1.4.5-.3 1.1-.1 1.4.3 0 0 3 4.8 4.9 7 .4.4.3 1.1-.1 1.4-.1.2-.4.3-.6.3z"/><path class="st8" d="M105 86.2c11.1 0 20.2 1.2 21.1 2.8.5.4.8 1 .8 1.7 0 .5-.2 1-.5 1.4v.1c0 .4-.6.8-1.7 1.2v5.9c0 6-2.7 11.4-6.9 15.1-3.1 3.1-6.8 7.2-7.3 12.5.5 5.3 4.2 9.4 7.3 12.5 4.2 3.7 6.9 9.1 6.9 15.1v6.3c1.2 0 2.2 1 2.2 2.2 0 .3-.1.7-.2.9-.4 2.3-10 4.1-21.8 4.1-11.9 0-21.6-1.9-21.8-4.2-.1-.3-.2-.6-.2-.9 0-1.2 1-2.2 2.2-2.2v-6.3c0-6 2.7-11.4 6.9-15.1 3.1-3.1 6.8-7.2 7.3-12.5-.5-5.3-4.2-9.4-7.3-12.5-4.2-3.7-6.9-9.1-6.9-15.1v-6.1c-.5-.2-.9-.4-1.1-.6-.7-.4-1.1-1.1-1.1-1.9 0-.9.5-1.7 1.3-2 1.8-1.4 10.4-2.4 20.8-2.4m0-1c-8.8 0-18.7.8-21.3 2.6-1.1.5-1.8 1.7-1.8 2.9 0 1.1.6 2.2 1.5 2.7.2.2.4.3.7.5v5.4c0 6.1 2.6 11.8 7.2 15.8 3.1 3.2 6.5 6.9 7 11.8-.5 4.8-3.8 8.6-7 11.8-4.6 4-7.2 9.7-7.2 15.8v5.5c-1.3.4-2.2 1.6-2.2 3.1 0 .4.1.8.2 1.2.8 3.8 14.7 4.9 22.8 4.9 8.1 0 21.8-1 22.8-4.8.2-.4.3-.8.3-1.3 0-1.4-.9-2.6-2.2-3.1v-5.4c0-6.1-2.6-11.9-7.2-15.8-3.1-3.2-6.5-6.9-7-11.8.5-4.8 3.8-8.6 7-11.8 4.6-4 7.2-9.7 7.2-15.8V94c.7-.3 1.6-.8 1.7-1.7.3-.5.5-1.1.5-1.7 0-.9-.4-1.8-1.1-2.4-2.4-3-19.9-3-21.9-3z"/><path class="st8" d="M104.7 164.8h-2.1c-.3 0-.5-.2-.5-.5s.3-.5.5-.5c.1 0 7.2.3 14.9-1 4.6-.8 7.4-2.9 7.4-2.9.2-.2.5-.1.7.1.2.2.1.5-.1.7-.1.1-3 2.3-7.9 3.1-5.2.9-10.2 1-12.9 1zM90.1 163.4H90c-.2 0-4-.9-5.4-2.4-.2-.2-.2-.5 0-.7.2-.2.5-.2.7 0 1 1.1 3.9 1.9 4.9 2.1.3.1.4.3.4.6-.1.3-.3.4-.5.4zM101.5 96.8c-2.2 0-12-.2-17.3-2.9-.2-.1-.3-.4-.2-.7.1-.2.4-.3.7-.2 5.7 2.9 17.1 2.8 17.3 2.8.3 0 .5.2.5.5s-.2.5-.5.5h-.5zM114.9 96.4c-.3 0-.5-.2-.5-.5s.2-.5.5-.5c.1 0 7.4-.7 11.5-2.9.2-.1.5 0 .7.2.1.2 0 .5-.2.7-4.3 2.3-11.6 3-12 3z"/></svg>