<?xml version="1.0" encoding="utf-8"?>
<!-- Generator: Adobe Illustrator 20.0.0, SVG Export Plug-In . SVG Version: 6.00 Build 0)  -->
<!DOCTYPE svg PUBLIC "-//W3C//DTD SVG 1.1//EN" "http://www.w3.org/Graphics/SVG/1.1/DTD/svg11.dtd">
<svg version="1.1" id="Layer_1" xmlns="http://www.w3.org/2000/svg" x="0px" y="0px"
	 viewBox="0 0 216 216" style="enable-background:new 0 0 216 216;" xml:space="preserve">
<style type="text/css">
	.st0{fill:#E1E1E6;}
	.st1{fill:#FFFFFF;}
	.st2{fill:#5CE6E6;}
	.st3{fill:#EDEDF2;}
	.st4{fill:#99FFFF;}
	.st5{fill:#363959;stroke:#70C7DD;stroke-width:11;stroke-linecap:round;stroke-linejoin:round;stroke-miterlimit:10;}
	.st6{fill:#535A80;}
	.st7{fill:#57D9D9;}
	.st8{fill:#66BDFF;}
	.st9{fill:#2BB0CC;}
</style>
<g>
	<g>
		<path class="st0" d="M186.7,89H126c-0.6,0-1-0.4-1-1s0.4-1,1-1h60.7c0.6,0,1,0.4,1,1S187.2,89,186.7,89z"/>
	</g>
	<g>
		<path class="st0" d="M83.5,76.8H51.6c-0.6,0-1-0.4-1-1s0.4-1,1-1h31.8c0.6,0,1,0.4,1,1S84,76.8,83.5,76.8z"/>
	</g>
	<g>
		<path class="st0" d="M68,72.2h-9c-0.3,0-0.5-0.2-0.5-0.5s0.2-0.5,0.5-0.5h9c0.3,0,0.5,0.2,0.5,0.5S68.2,72.2,68,72.2z"/>
	</g>
	<g>
		<path class="st0" d="M90.5,117.7h-64c-0.6,0-1-0.4-1-1s0.4-1,1-1h64c0.6,0,1,0.4,1,1S91,117.7,90.5,117.7z"/>
	</g>
	<g>
		<path class="st0" d="M80,113.1H49.3c-0.3,0-0.5-0.2-0.5-0.5s0.2-0.5,0.5-0.5H80c0.3,0,0.5,0.2,0.5,0.5S80.3,113.1,80,113.1z"/>
	</g>
	<g>
		<path class="st0" d="M178.4,83.8h-26.9c-0.3,0-0.5-0.2-0.5-0.5s0.2-0.5,0.5-0.5h26.9c0.3,0,0.5,0.2,0.5,0.5S178.7,83.8,178.4,83.8
			z"/>
	</g>
	<path class="st1" d="M151.6,30.2L151.6,30.2C151.6,30.1,151.6,30.1,151.6,30.2z"/>
	<g>
		<path class="st0" d="M202.3,93.2H111c-0.3,0-0.5-0.2-0.5-0.5s0.2-0.5,0.5-0.5h91.3c0.3,0,0.5,0.2,0.5,0.5S202.6,93.2,202.3,93.2z"
			/>
	</g>
	<g>
		<path class="st0" d="M73.8,151.9H26.6c-0.6,0-1-0.4-1-1s0.4-1,1-1h47.1c0.6,0,1,0.4,1,1S74.3,151.9,73.8,151.9z"/>
	</g>
	<g>
		<path class="st1" d="M126.3,55.8h19.5c0,0-6.1-13.6,6.8-15.4c11.5-1.6,16.1,10.3,16.1,10.3s1.4-6.8,8.2-5.5
			c6.8,1.3,11.8,12.2,11.8,12.2h17"/>
		<g>
			<path class="st0" d="M206,54.2h-17c-0.2,0-0.4-0.1-0.4-0.3c0-0.1-5-9.7-11.4-10.9c-6.3-1.2-7.6,4.9-7.6,5.1
				c0,0.2-0.2,0.4-0.4,0.4c-0.2,0-0.4-0.1-0.5-0.3c0,0-1.1-2.9-3.6-5.6c-3.3-3.5-7.3-5-11.9-4.4c-3.4,0.5-5.7,1.8-6.9,3.9
				c-2.4,4.3,0.4,10.7,0.4,10.8c0.1,0.2,0.1,0.3,0,0.5c-0.1,0.1-0.2,0.2-0.4,0.2h-19.5c-0.3,0-0.5-0.2-0.5-0.5s0.2-0.5,0.5-0.5h18.7
				c-0.7-1.9-2.3-7-0.1-10.9c1.4-2.4,3.9-3.9,7.6-4.4c9.6-1.3,14.5,6.4,16.1,9.4c0.8-2,3.1-5.7,8.4-4.7c6.4,1.2,11.1,9.5,12,11.2
				H206c0.3,0,0.5,0.2,0.5,0.5S206.3,54.2,206,54.2z"/>
		</g>
		<g>
			<path class="st1" d="M206.6,57.7h-80.3c-0.6,0-1-0.4-1-1s0.4-1,1-1h80.3c0.6,0,1,0.4,1,1S207.2,57.7,206.6,57.7z"/>
		</g>
	</g>
	<g>
		<path class="st1" d="M39.4,43.5h10.8c0,0-3.4-7.6,3.8-8.6c6.4-0.9,9,5.7,9,5.7s0.8-3.8,4.6-3.1c3.8,0.7,6.5,6.8,6.5,6.8h9.4"/>
		<g>
			<path class="st0" d="M50.6,42.3H39.7c-0.3,0-0.5-0.2-0.5-0.5s0.2-0.5,0.5-0.5h10.1c-0.4-1.2-1.1-3.9,0.1-6
				c0.8-1.4,2.3-2.3,4.4-2.6c5.1-0.7,7.9,3,8.9,4.9c0.7-1.4,2.1-2.8,4.8-2.3c3.5,0.7,6.1,4.7,6.7,5.8h9.1c0.3,0,0.5,0.2,0.5,0.5
				s-0.2,0.5-0.5,0.5h-9.4c-0.2,0-0.3-0.1-0.4-0.3c0,0-2.7-4.9-6.2-5.5c-3.3-0.6-4,2.5-4,2.7c0,0.2-0.2,0.4-0.4,0.4
				c-0.2,0-0.4-0.1-0.5-0.3c-0.1-0.3-2.5-6.2-8.4-5.4c-1.8,0.2-3,0.9-3.7,2.1c-1.3,2.3,0.2,5.7,0.2,5.8c0.1,0.2,0.1,0.3,0,0.5
				C50.9,42.2,50.7,42.3,50.6,42.3z"/>
		</g>
		<g>
			<path class="st1" d="M84.2,45.4H39.6c-0.6,0-1-0.4-1-1s0.4-1,1-1h44.6c0.6,0,1,0.4,1,1S84.8,45.4,84.2,45.4z"/>
		</g>
	</g>
	<g>
		<path class="st0" d="M191.5,151.9h-47.4c-0.6,0-1-0.4-1-1s0.4-1,1-1h47.4c0.6,0,1,0.4,1,1S192.1,151.9,191.5,151.9z"/>
	</g>
	<g>
		<g>
			<path class="st0" d="M172.6,197.7h-3c-0.6,0-1-0.4-1-1s0.4-1,1-1h2v-2c0-0.6,0.4-1,1-1s1,0.4,1,1v3
				C173.6,197.2,173.2,197.7,172.6,197.7z"/>
		</g>
		<g>
			<path class="st0" d="M163.8,197.7H158c-0.6,0-1-0.4-1-1s0.4-1,1-1h5.8c0.6,0,1,0.4,1,1S164.4,197.7,163.8,197.7z M152.2,197.7
				h-5.8c-0.6,0-1-0.4-1-1s0.4-1,1-1h5.8c0.6,0,1,0.4,1,1S152.8,197.7,152.2,197.7z M140.6,197.7h-5.8c-0.6,0-1-0.4-1-1s0.4-1,1-1
				h5.8c0.6,0,1,0.4,1,1S141.2,197.7,140.6,197.7z M129,197.7h-5.8c-0.6,0-1-0.4-1-1s0.4-1,1-1h5.8c0.6,0,1,0.4,1,1
				S129.6,197.7,129,197.7z M117.4,197.7h-5.8c-0.6,0-1-0.4-1-1s0.4-1,1-1h5.8c0.6,0,1,0.4,1,1S118,197.7,117.4,197.7z M105.8,197.7
				H100c-0.6,0-1-0.4-1-1s0.4-1,1-1h5.8c0.6,0,1,0.4,1,1S106.4,197.7,105.8,197.7z M94.2,197.7h-5.8c-0.6,0-1-0.4-1-1s0.4-1,1-1h5.8
				c0.6,0,1,0.4,1,1S94.8,197.7,94.2,197.7z M82.6,197.7h-5.8c-0.6,0-1-0.4-1-1s0.4-1,1-1h5.8c0.6,0,1,0.4,1,1
				S83.2,197.7,82.6,197.7z M71,197.7h-5.8c-0.6,0-1-0.4-1-1s0.4-1,1-1H71c0.6,0,1,0.4,1,1S71.6,197.7,71,197.7z M59.4,197.7h-5.8
				c-0.6,0-1-0.4-1-1s0.4-1,1-1h5.8c0.6,0,1,0.4,1,1S60,197.7,59.4,197.7z"/>
		</g>
		<g>
			<path class="st0" d="M47.8,197.7h-3c-0.6,0-1-0.4-1-1v-3c0-0.6,0.4-1,1-1s1,0.4,1,1v2h2c0.6,0,1,0.4,1,1S48.4,197.7,47.8,197.7z"
				/>
		</g>
		<g>
			<path class="st0" d="M44.8,188.7c-0.6,0-1-0.4-1-1v-6c0-0.6,0.4-1,1-1s1,0.4,1,1v6C45.8,188.2,45.4,188.7,44.8,188.7z
				 M44.8,176.7c-0.6,0-1-0.4-1-1v-6c0-0.6,0.4-1,1-1s1,0.4,1,1v6C45.8,176.3,45.4,176.7,44.8,176.7z M44.8,164.8c-0.6,0-1-0.4-1-1
				v-6c0-0.6,0.4-1,1-1s1,0.4,1,1v6C45.8,164.4,45.4,164.8,44.8,164.8z M44.8,152.9c-0.6,0-1-0.4-1-1v-6c0-0.6,0.4-1,1-1s1,0.4,1,1
				v6C45.8,152.4,45.4,152.9,44.8,152.9z M44.8,140.9c-0.6,0-1-0.4-1-1v-6c0-0.6,0.4-1,1-1s1,0.4,1,1v6
				C45.8,140.5,45.4,140.9,44.8,140.9z M44.8,129c-0.6,0-1-0.4-1-1v-6c0-0.6,0.4-1,1-1s1,0.4,1,1v6C45.8,128.6,45.4,129,44.8,129z
				 M44.8,117.1c-0.6,0-1-0.4-1-1v-6c0-0.6,0.4-1,1-1s1,0.4,1,1v6C45.8,116.6,45.4,117.1,44.8,117.1z M44.8,105.1c-0.6,0-1-0.4-1-1
				v-6c0-0.6,0.4-1,1-1s1,0.4,1,1v6C45.8,104.7,45.4,105.1,44.8,105.1z M44.8,93.2c-0.6,0-1-0.4-1-1v-6c0-0.6,0.4-1,1-1s1,0.4,1,1v6
				C45.8,92.8,45.4,93.2,44.8,93.2z M44.8,81.3c-0.6,0-1-0.4-1-1v-6c0-0.6,0.4-1,1-1s1,0.4,1,1v6C45.8,80.8,45.4,81.3,44.8,81.3z
				 M44.8,69.3c-0.6,0-1-0.4-1-1v-6c0-0.6,0.4-1,1-1s1,0.4,1,1v6C45.8,68.9,45.4,69.3,44.8,69.3z M44.8,57.4c-0.6,0-1-0.4-1-1v-6
				c0-0.6,0.4-1,1-1s1,0.4,1,1v6C45.8,56.9,45.4,57.4,44.8,57.4z M44.8,45.5c-0.6,0-1-0.4-1-1v-6c0-0.6,0.4-1,1-1s1,0.4,1,1v6
				C45.8,45,45.4,45.5,44.8,45.5z M44.8,33.5c-0.6,0-1-0.4-1-1v-6c0-0.6,0.4-1,1-1s1,0.4,1,1v6C45.8,33.1,45.4,33.5,44.8,33.5z"/>
		</g>
		<g>
			<path class="st0" d="M44.8,21.6c-0.6,0-1-0.4-1-1v-3c0-0.6,0.4-1,1-1h3c0.6,0,1,0.4,1,1s-0.4,1-1,1h-2v2
				C45.8,21.1,45.4,21.6,44.8,21.6z"/>
		</g>
		<g>
			<path class="st0" d="M163.8,18.6H158c-0.6,0-1-0.4-1-1s0.4-1,1-1h5.8c0.6,0,1,0.4,1,1S164.4,18.6,163.8,18.6z M152.2,18.6h-5.8
				c-0.6,0-1-0.4-1-1s0.4-1,1-1h5.8c0.6,0,1,0.4,1,1S152.8,18.6,152.2,18.6z M140.6,18.6h-5.8c-0.6,0-1-0.4-1-1s0.4-1,1-1h5.8
				c0.6,0,1,0.4,1,1S141.2,18.6,140.6,18.6z M129,18.6h-5.8c-0.6,0-1-0.4-1-1s0.4-1,1-1h5.8c0.6,0,1,0.4,1,1S129.6,18.6,129,18.6z
				 M117.4,18.6h-5.8c-0.6,0-1-0.4-1-1s0.4-1,1-1h5.8c0.6,0,1,0.4,1,1S118,18.6,117.4,18.6z M105.8,18.6H100c-0.6,0-1-0.4-1-1
				s0.4-1,1-1h5.8c0.6,0,1,0.4,1,1S106.4,18.6,105.8,18.6z M94.2,18.6h-5.8c-0.6,0-1-0.4-1-1s0.4-1,1-1h5.8c0.6,0,1,0.4,1,1
				S94.8,18.6,94.2,18.6z M82.6,18.6h-5.8c-0.6,0-1-0.4-1-1s0.4-1,1-1h5.8c0.6,0,1,0.4,1,1S83.2,18.6,82.6,18.6z M71,18.6h-5.8
				c-0.6,0-1-0.4-1-1s0.4-1,1-1H71c0.6,0,1,0.4,1,1S71.6,18.6,71,18.6z M59.4,18.6h-5.8c-0.6,0-1-0.4-1-1s0.4-1,1-1h5.8
				c0.6,0,1,0.4,1,1S60,18.6,59.4,18.6z"/>
		</g>
		<g>
			<path class="st0" d="M172.6,21.6c-0.6,0-1-0.4-1-1v-2h-2c-0.6,0-1-0.4-1-1s0.4-1,1-1h3c0.6,0,1,0.4,1,1v3
				C173.6,21.1,173.2,21.6,172.6,21.6z"/>
		</g>
		<g>
			<path class="st0" d="M172.6,188.7c-0.6,0-1-0.4-1-1v-6c0-0.6,0.4-1,1-1s1,0.4,1,1v6C173.6,188.2,173.2,188.7,172.6,188.7z
				 M172.6,176.7c-0.6,0-1-0.4-1-1v-6c0-0.6,0.4-1,1-1s1,0.4,1,1v6C173.6,176.3,173.2,176.7,172.6,176.7z M172.6,164.8
				c-0.6,0-1-0.4-1-1v-6c0-0.6,0.4-1,1-1s1,0.4,1,1v6C173.6,164.4,173.2,164.8,172.6,164.8z M172.6,152.9c-0.6,0-1-0.4-1-1v-6
				c0-0.6,0.4-1,1-1s1,0.4,1,1v6C173.6,152.4,173.2,152.9,172.6,152.9z M172.6,140.9c-0.6,0-1-0.4-1-1v-6c0-0.6,0.4-1,1-1s1,0.4,1,1
				v6C173.6,140.5,173.2,140.9,172.6,140.9z M172.6,129c-0.6,0-1-0.4-1-1v-6c0-0.6,0.4-1,1-1s1,0.4,1,1v6
				C173.6,128.6,173.2,129,172.6,129z M172.6,117.1c-0.6,0-1-0.4-1-1v-6c0-0.6,0.4-1,1-1s1,0.4,1,1v6
				C173.6,116.6,173.2,117.1,172.6,117.1z M172.6,105.1c-0.6,0-1-0.4-1-1v-6c0-0.6,0.4-1,1-1s1,0.4,1,1v6
				C173.6,104.7,173.2,105.1,172.6,105.1z M172.6,93.2c-0.6,0-1-0.4-1-1v-6c0-0.6,0.4-1,1-1s1,0.4,1,1v6
				C173.6,92.8,173.2,93.2,172.6,93.2z M172.6,81.3c-0.6,0-1-0.4-1-1v-6c0-0.6,0.4-1,1-1s1,0.4,1,1v6
				C173.6,80.8,173.2,81.3,172.6,81.3z M172.6,69.3c-0.6,0-1-0.4-1-1v-6c0-0.6,0.4-1,1-1s1,0.4,1,1v6
				C173.6,68.9,173.2,69.3,172.6,69.3z M172.6,57.4c-0.6,0-1-0.4-1-1v-6c0-0.6,0.4-1,1-1s1,0.4,1,1v6
				C173.6,56.9,173.2,57.4,172.6,57.4z M172.6,45.5c-0.6,0-1-0.4-1-1v-6c0-0.6,0.4-1,1-1s1,0.4,1,1v6
				C173.6,45,173.2,45.5,172.6,45.5z M172.6,33.5c-0.6,0-1-0.4-1-1v-6c0-0.6,0.4-1,1-1s1,0.4,1,1v6
				C173.6,33.1,173.2,33.5,172.6,33.5z"/>
		</g>
	</g>
</g>
<g>
	<path class="st2" d="M95.8,104.9c-1.5,0-3.1-0.6-4.2-1.8l-9.3-9.3c-2.3-2.3-2.3-6.1,0-8.5c2.3-2.3,6.1-2.3,8.5,0l9.3,9.3
		c2.3,2.3,2.3,6.1,0,8.5C98.9,104.3,97.3,104.9,95.8,104.9z"/>
</g>
<g>
	<path class="st2" d="M124.1,105.2c-1.5,0-3.1-0.6-4.2-1.8c-2.3-2.3-2.3-6.1,0-8.5l9.3-9.3c2.3-2.3,6.1-2.3,8.5,0
		c2.3,2.3,2.3,6.1,0,8.5l-9.3,9.3C127.2,104.6,125.7,105.2,124.1,105.2z"/>
</g>
<ellipse class="st3" cx="110.9" cy="165.5" rx="29" ry="4.4"/>
<path class="st2" d="M86.1,92.6c-3,1.9-2.4,58,4.1,62.3c4.5,3,36,4,40.8-0.7c1.4-1.4,8.2-35.7,4.8-60
	C134.9,87.9,97.1,85.6,86.1,92.6z"/>
<path class="st2" d="M87.1,139.9c0,0,1,12.2,3,17.9s4.3,8.5,5.3,7.7c1-0.8,0-18.7,0-18.7L87.1,139.9z"/>
<path class="st2" d="M133.6,139.9c0,0-1,12.2-3,17.9s-4.3,8.5-5.3,7.7c-1-0.8,0-18.7,0-18.7L133.6,139.9z"/>
<path class="st2" d="M90.2,88.1c0,0,12.5-3.8,16-4.2s11-4.2,11-4.2l-1.8,4l4.2-1.2v2.2l10.2,2.8l-2.2,3H94.4L90.2,88.1z"/>
<path class="st4" d="M92.1,92.3c-7.2,4.8-2.7,49.9,1.9,55.5c7.5,9.2,30.4,8.5,34.8-1.8c0.7-1.7,7.6-34,2.4-51.8
	C129.5,88.5,109.4,80.8,92.1,92.3z"/>
<g>
	<path class="st5" d="M125.1,100.3"/>
</g>
<g>
	<path class="st5" d="M98.2,100.3"/>
</g>
<path class="st2" d="M134.2,115.8c0,0-0.5,4-3,6.2s3.2,5.5,3,10.5C133.9,137.6,134.2,115.8,134.2,115.8z"/>
<path class="st2" d="M87.1,113.6c0,0,0.5,4,3,6.2s-3.2,5.5-3,10.5C87.3,135.3,87.1,113.6,87.1,113.6z"/>
<g>
	<g>
		<path class="st6" d="M101.2,98c0.6,0,1.1,0.5,1.1,1.1v2.4c0,0.6-0.5,1.1-1.1,1.1l0,0c-0.6,0-1.1-0.5-1.1-1.1v-2.4
			C100.1,98.5,100.6,98,101.2,98L101.2,98z"/>
	</g>
	<g>
		<path class="st6" d="M128.1,98c0.6,0,1.1,0.5,1.1,1.1v2.4c0,0.6-0.5,1.1-1.1,1.1l0,0c-0.6,0-1.1-0.5-1.1-1.1v-2.4
			C127,98.5,127.5,98,128.1,98L128.1,98z"/>
	</g>
	<g>
		<path class="st7" d="M115.8,111.9c-0.3,0-0.6-0.2-0.8-0.4c-0.1-0.2-1.2-1.8-0.7-4.5c0.5-2.4,2.3-5.1,2.4-5.2
			c0.2-0.2,0.4-0.4,0.7-0.4c0.3,0,0.6,0.1,0.8,0.2c0.1,0.1,1.9,1.7,2.9,2.8c2.2,2.6,0.8,5.6,0.7,5.8c-0.2,0.5-0.8,0.7-1.3,0.4
			s-0.7-0.8-0.4-1.3c0-0.1,0.9-2-0.5-3.6c-0.5-0.5-1.2-1.3-1.8-1.8c-0.5,0.9-1.2,2.2-1.4,3.5c-0.3,1.9,0.3,3,0.4,3
			c0.3,0.5,0.2,1.1-0.3,1.4C116.2,111.8,116,111.9,115.8,111.9z"/>
	</g>
	<g>
		<path class="st6" d="M112.8,102.6c-0.6,0.7,4.1,1.8,4.7,1.7c0.9-0.2,4.8-3.1,4.2-4.5C121.5,99.1,115.3,100,112.8,102.6z"/>
		<path class="st6" d="M117.5,105.3c-1.2,0-4.9-0.8-5.6-1.9c-0.3-0.5-0.2-1,0.2-1.4l0,0c2.3-2.5,7.7-3.7,9.5-3.3
			c0.7,0.1,1,0.5,1.1,0.8c0.2,0.6,0.1,1.2-0.3,1.9c-0.9,1.6-3.7,3.7-4.7,3.9C117.7,105.3,117.6,105.3,117.5,105.3z M114.4,102.6
			c1,0.3,2.6,0.7,3,0.7c0.6-0.2,2.6-1.8,3.2-2.7C119.2,100.6,116.3,101.3,114.4,102.6z"/>
	</g>
	<g>
		<path class="st8" d="M103.1,104.6c-0.3,0-0.6-0.2-0.8-0.4c0-0.1-0.7-1.1-2.1-1.1c-1.4,0-2.1,1-2.1,1c-0.3,0.5-0.9,0.6-1.4,0.3
			c-0.5-0.3-0.6-0.9-0.3-1.4c0.1-0.1,1.3-2,3.8-2c2.5,0,3.7,1.9,3.8,2c0.3,0.5,0.2,1.1-0.3,1.4C103.5,104.5,103.3,104.6,103.1,104.6
			z"/>
	</g>
	<g>
		<path class="st8" d="M124.3,104.5c-0.2,0-0.4-0.1-0.5-0.2c-0.5-0.3-0.6-0.9-0.3-1.4c0.1-0.1,1.3-1.9,3.7-1.9s3.6,1.8,3.7,1.9
			c0.3,0.5,0.2,1.1-0.3,1.4c-0.5,0.3-1.1,0.2-1.4-0.3c0-0.1-0.7-1-2-1c-1.3,0-2,1-2,1C124.9,104.4,124.6,104.5,124.3,104.5z"/>
	</g>
	<g>
		<path class="st8" d="M128.5,113.7c-0.6,0-1-0.4-1-1v-9.3c0-0.6,0.4-1,1-1s1,0.4,1,1v9.3C129.5,113.3,129,113.7,128.5,113.7z"/>
	</g>
	<g>
		<path class="st8" d="M98.6,108.3c-0.6,0-1-0.4-1-1v-4.1c0-0.6,0.4-1,1-1s1,0.4,1,1v4.1C99.6,107.8,99.1,108.3,98.6,108.3z"/>
	</g>
</g>
<g>
	<path class="st2" d="M91.8,136.9c-1.9,0-3.8-0.3-5.8-1.1c-3.2-1.3-4.3-3.4-4.7-5c-1.1-4.8,3.5-10,4-10.5c0.9-1,2.5-1.1,3.5-0.2
		c1,0.9,1.1,2.5,0.2,3.5l0,0c-1.4,1.5-3.2,4.5-2.8,6.1c0,0.2,0.2,0.9,1.7,1.4c5.1,2,11.2-0.7,15.2-2.6c1.1-0.5,2-0.9,2.8-1.2
		c5.6-2,10-2.2,13.1-0.6c2.7,1.4,3.4,3.8,3.4,4.1l-4.9,1.2c0,0,0,0,0,0.1c-0.4-1.1-3-2.6-10-0.1c-0.6,0.2-1.4,0.6-2.4,1
		C101.9,134.7,97,136.9,91.8,136.9z"/>
</g>
<g>
	<path class="st2" d="M126.9,138.7c-1.8,0-3.7-0.5-5.4-1.4c-16.4-9-21.8-4.9-21.9-4.8l0.1-0.1l-3.5-3.6c0.7-0.7,7.9-6.7,27.7,4.1
		c1.9,1.1,3.9,1.1,5.9,0.1c2.3-1.2,3.8-3.3,3.9-4.5c0.3-1.9-1.3-2.9-1.5-3c-1.2-0.7-1.6-2.2-0.9-3.4c0.7-1.2,2.1-1.6,3.3-1
		c1.8,1,4.6,3.7,4,8c-0.4,3.1-3.1,6.5-6.6,8.3C130.4,138.2,128.7,138.7,126.9,138.7z"/>
</g>
<g>
	<path class="st8" d="M98.7,112c-0.3,0-0.5-0.1-0.7-0.3c-0.2-0.2-0.3-0.4-0.3-0.7c0-0.3,0.1-0.5,0.3-0.7c0.4-0.4,1-0.4,1.4,0
		c0.2,0.2,0.3,0.4,0.3,0.7c0,0.3-0.1,0.5-0.3,0.7C99.2,111.9,99,112,98.7,112z"/>
</g>
<g>
	<path class="st8" d="M128.3,117.6c-0.6,0-1-0.4-1-1V116c0-0.6,0.4-1,1-1s1,0.4,1,1v0.6C129.3,117.2,128.9,117.6,128.3,117.6z"/>
</g>
<path class="st9" d="M117.2,79.6l-1.8,4l4.2-1.2v2.2l8.4,2.2l1.2-1.2c1.2-1.2,2.7-1.8,4.2-1.8s3.1,0.6,4.2,1.8
	c2.3,2.3,2.3,6.1,0,8.5l-1.7,1.7c1,8.4,0.9,17.7,0.3,26.5c1.5,1.4,2.8,3.7,2.4,6.8c-0.3,2.2-1.7,4.5-3.8,6.3
	c-0.9,6.3-1.8,11.6-2.6,14.9c-0.5,2.7-1,5.5-1.7,7.4c-1.8,5.1-3.8,7.9-4.9,7.9c-0.1,0-0.3,0-0.4-0.1c-0.5-0.4-0.5-4.7-0.4-9.1
	c-3.8,0.7-8.8,1-13.8,1c-5.6,0-11.2-0.4-15.2-1c0.1,4.4,0.1,8.7-0.4,9.1c-0.1,0.1-0.2,0.1-0.4,0.1c-1.1,0-3.2-2.8-4.9-7.9
	c-0.4-1.3-0.8-2.8-1.2-4.5c-1.6-3.1-2.8-9.8-3.5-17.7c-2.7-1.3-3.7-3.2-4-4.7c-0.8-3.7,1.7-7.6,3.1-9.5c-0.4-10-0.2-19.6,0.5-24.8
	l-2.8-2.8c-2.3-2.3-2.3-6.1,0-8.5c1.2-1.2,2.7-1.8,4.2-1.8c1.5,0,3.1,0.6,4.2,1.8l2,2c3.8-1.1,11-3.2,13.5-3.5
	C109.7,83.4,117.2,79.6,117.2,79.6 M117.2,78.6c-0.2,0-0.3,0-0.4,0.1c-0.1,0-7.4,3.7-10.7,4.2c-2.4,0.3-9,2.2-13.1,3.4l-1.6-1.6
	c-1.3-1.3-3.1-2.1-5-2.1c-1.9,0-3.6,0.7-4.9,2c-2.7,2.7-2.7,7.2,0,9.9l2.4,2.4c-0.6,5.4-0.8,14.5-0.4,24.2c-1.6,2.2-4,6.2-3.1,10
	c0.3,1.5,1.3,3.6,4.1,5.1c0.6,6,1.7,13.7,3.5,17.4c0.4,1.8,0.8,3.4,1.2,4.5c0.7,2,3.2,8.5,5.9,8.5c0.4,0,0.7-0.1,1-0.4
	c0.5-0.4,0.9-0.8,0.8-8.7c4,0.5,9.1,0.8,14.2,0.8c3.5,0,8.4-0.1,12.7-0.8c-0.2,7.9,0.3,8.3,0.8,8.7c0.3,0.2,0.6,0.4,1,0.4
	c2.7,0,5.2-6.5,5.9-8.5c0.6-1.8,1.2-4.3,1.7-7.5c0.9-3.8,1.8-9.1,2.6-14.6c2.1-2,3.5-4.4,3.8-6.7c0.5-3.6-1.1-6-2.4-7.3
	c0.7-9.7,0.6-18.4-0.2-25.8l1.3-1.3c1.3-1.3,2.1-3.1,2.1-4.9s-0.7-3.6-2.1-4.9c-1.3-1.3-3.1-2.1-4.9-2.1c-1.9,0-3.6,0.7-4.9,2.1
	l-0.7,0.7l-7.1-1.9v-1.5c0-0.3-0.1-0.6-0.4-0.8c-0.2-0.1-0.4-0.2-0.6-0.2c-0.1,0-0.2,0-0.3,0l-2.2,0.6l0.9-2
	c0.2-0.4,0.1-0.8-0.2-1.1C117.7,78.7,117.4,78.6,117.2,78.6L117.2,78.6z M117.2,80.6L117.2,80.6L117.2,80.6L117.2,80.6z"/>
<g>
	<path class="st9" d="M87.3,92.4C87.3,92.4,87.2,92.4,87.3,92.4c-0.4-0.1-0.5-0.3-0.5-0.6c0-0.2,0.8-4.2,6.1-5.6
		c0.3-0.1,0.5,0.1,0.6,0.4c0.1,0.3-0.1,0.5-0.4,0.6c-4.7,1.2-5.4,4.6-5.4,4.8C87.7,92.3,87.5,92.4,87.3,92.4z"/>
</g>
<g>
	<path class="st9" d="M133,91c-0.2,0-0.4-0.1-0.5-0.4c0-0.1-0.8-2.8-4.7-3.8c-0.3-0.1-0.4-0.4-0.3-0.6c0.1-0.3,0.3-0.4,0.6-0.3
		c4.4,1.2,5.3,4.4,5.3,4.5c0.1,0.3-0.1,0.5-0.3,0.6C133.1,91,133.1,91,133,91z"/>
</g>
<g>
	<path class="st9" d="M91.4,137.5c-2,0-4.3-0.3-6.6-1c-0.3-0.1-0.4-0.4-0.3-0.6s0.4-0.4,0.6-0.3c8.5,2.6,15.7-1.1,15.8-1.1
		c0.2-0.1,0.5,0,0.7,0.2c0.1,0.2,0,0.5-0.2,0.7C101.1,135.4,97.1,137.5,91.4,137.5z"/>
</g>
<g>
	<path class="st9" d="M127.6,139.3c-0.2,0-0.4,0-0.7,0c-3.4-0.2-5.1-1.2-8.1-2.7c-1.4-0.7-3.2-1.6-5.5-2.7
		c-7.1-3.2-14.5-2.5-14.6-2.5c-0.3,0-0.5-0.2-0.5-0.5c0-0.3,0.2-0.5,0.5-0.5c0.3,0,7.8-0.6,15.1,2.6c2.4,1.1,4.2,2,5.6,2.7
		c2.9,1.5,4.5,2.3,7.7,2.6c4.6,0.3,8.3-3.2,8.4-3.2c0.2-0.2,0.5-0.2,0.7,0c0.2,0.2,0.2,0.5,0,0.7C135.9,136,132.3,139.3,127.6,139.3
		z"/>
</g>
<g>
	<path class="st9" d="M119.8,134.4c-0.1,0-0.2,0-0.3,0c-2.4-0.2-4.1-2.1-5.4-3.9c-1.4-1.8-4-2.6-4.1-2.6c-0.3-0.1-0.4-0.3-0.4-0.6
		c0.1-0.3,0.3-0.4,0.6-0.4c0.1,0,3,0.8,4.6,2.9c1.5,2,2.9,3.4,4.7,3.6c1.8,0.1,2.6-1.5,2.7-1.6c0.1-0.2,0.4-0.3,0.7-0.2
		c0.2,0.1,0.3,0.4,0.2,0.7C123.1,132.3,122.1,134.4,119.8,134.4z"/>
</g>
<g>
	<path class="st9" d="M96.6,157.7C96.6,157.7,96.6,157.7,96.6,157.7c-3.2-0.5-4.9-2.4-5-2.5c-0.2-0.2-0.2-0.5,0.1-0.7
		c0.2-0.2,0.5-0.2,0.7,0c0,0,1.5,1.7,4.3,2.2c0.3,0,0.5,0.3,0.4,0.6C97.1,157.5,96.9,157.7,96.6,157.7z"/>
</g>
<g>
	<path class="st9" d="M123.9,157.8c-0.2,0-0.5-0.2-0.5-0.4c0-0.3,0.2-0.5,0.4-0.6c2.8-0.3,4.8-1.7,4.9-1.7c0.2-0.1,0.5-0.1,0.7,0.1
		c0.2,0.2,0.1,0.5-0.1,0.7C129.1,156,126.9,157.4,123.9,157.8C123.9,157.8,123.9,157.8,123.9,157.8z"/>
</g>
</svg>
