<svg id="Layer_1" xmlns="http://www.w3.org/2000/svg" viewBox="0 0 216 216"><style>.st0{fill:#fff}.st2{fill:#e1e1e6}.st3{fill:#c8c8cc}.st4{fill:#5ce6e6}.st8{fill:#535a80}.st9{fill:#57d9d9}.st10{fill:#2bb0cc}.st11{fill:#fa0}</style><path class="st0" d="M152.7 29.1zM22.3 48.5h19.5s-6.1-13.6 6.8-15.4c11.5-1.6 16.1 10.3 16.1 10.3s1.4-6.8 8.2-5.5C79.8 39.1 84.8 50 84.8 50h17"/><path class="st2" d="M102.1 46.8h-17c-.2 0-.4-.1-.4-.3 0-.1-5-9.7-11.4-10.9-6.3-1.2-7.6 4.9-7.6 5.1 0 .2-.2.4-.4.4s-.4-.1-.5-.3c0 0-1.1-2.9-3.6-5.6-3.3-3.5-7.3-5-11.9-4.4-3.4.5-5.7 1.8-6.9 3.9-2.4 4.3.4 10.7.4 10.8.1.2.1.3 0 .5-.1.1-.2.2-.4.2H22.7c-.3 0-.5-.2-.5-.5s.2-.5.5-.5h18.7c-.7-1.9-2.3-7-.1-10.9 1.4-2.4 3.9-3.9 7.6-4.4 9.6-1.3 14.5 6.4 16.1 9.4.8-2 3.1-5.7 8.4-4.7 6.4 1.2 11.1 9.5 12 11.2h16.7c.3 0 .5.2.5.5s-.3.5-.5.5z"/><path class="st0" d="M102.6 50.4H22.3c-.6 0-1-.4-1-1s.4-1 1-1h80.3c.6 0 1 .4 1 1s-.4 1-1 1z"/><path class="st2" d="M182.3 89.3h-60.7c-.6 0-1-.4-1-1s.4-1 1-1h60.7c.6 0 1 .4 1 1s-.5 1-1 1zM79.1 77.1H47.3c-.6 0-1-.4-1-1s.4-1 1-1h31.8c.6 0 1 .4 1 1s-.5 1-1 1zm-15.5-4.7h-9c-.3 0-.5-.2-.5-.5s.2-.5.5-.5h9c.3 0 .5.2.5.5s-.2.5-.5.5zm22.5 45.5H22c-.6 0-1-.4-1-1s.4-1 1-1h64c.6 0 1 .4 1 1s-.4 1-.9 1zm-10.5-4.5H44.9c-.3 0-.5-.2-.5-.5s.2-.5.5-.5h30.7c.3 0 .5.2.5.5s-.2.5-.5.5zm98.5-29.3h-26.9c-.3 0-.5-.2-.5-.5s.2-.5.5-.5h26.9c.3 0 .5.2.5.5s-.3.5-.5.5zm23.9 9.4h-91.3c-.3 0-.5-.2-.5-.5s.2-.5.5-.5H198c.3 0 .5.2.5.5s-.3.5-.5.5z"/><path class="st0" d="M155.9 60.8h10.8s-3.4-7.6 3.8-8.6c6.4-.9 9 5.7 9 5.7s.8-3.8 4.6-3.1c3.8.7 6.5 6.8 6.5 6.8h9.4"/><path class="st2" d="M167.1 59.7h-10.8c-.3 0-.5-.2-.5-.5s.2-.5.5-.5h10.1c-.4-1.2-1.1-3.9.1-6 .8-1.4 2.3-2.3 4.4-2.6 5.1-.7 7.9 3 8.9 4.9.7-1.4 2.1-2.8 4.7-2.3 3.5.7 6.1 4.7 6.7 5.8h9.1c.3 0 .5.2.5.5s-.2.5-.5.5h-9.4c-.2 0-.4-.1-.4-.3 0 0-2.7-4.9-6.2-5.5-3.3-.6-4 2.5-4 2.7 0 .2-.2.4-.4.4s-.4-.1-.5-.3c-.1-.3-2.5-6.2-8.4-5.4-1.8.2-3 .9-3.7 2.1-1.3 2.3.2 5.7.2 5.8.1.2.1.3 0 .5-.1.1-.3.2-.4.2z"/><path class="st0" d="M200.7 62.7h-44.6c-.6 0-1-.4-1-1s.4-1 1-1h44.6c.6 0 1 .4 1 1s-.4 1-1 1z"/><path class="st2" d="M77.2 149.5H25.5c-.6 0-1-.4-1-1s.4-1 1-1h51.7c.6 0 1 .4 1 1s-.5 1-1 1zm115.5 0h-56.4c-.6 0-1-.4-1-1s.4-1 1-1h56.4c.6 0 1 .4 1 1s-.5 1-1 1zm-22.8 49.1h-3c-.6 0-1-.4-1-1s.4-1 1-1h2v-2c0-.6.4-1 1-1s1 .4 1 1v3c0 .5-.4 1-1 1zm-8.8 0h-5.8c-.6 0-1-.4-1-1s.4-1 1-1h5.8c.6 0 1 .4 1 1s-.4 1-1 1zm-11.6 0h-5.8c-.6 0-1-.4-1-1s.4-1 1-1h5.8c.6 0 1 .4 1 1s-.4 1-1 1zm-11.6 0h-5.8c-.6 0-1-.4-1-1s.4-1 1-1h5.8c.6 0 1 .4 1 1s-.4 1-1 1zm-11.6 0h-5.8c-.6 0-1-.4-1-1s.4-1 1-1h5.8c.6 0 1 .4 1 1s-.4 1-1 1zm-11.6 0h-5.8c-.6 0-1-.4-1-1s.4-1 1-1h5.8c.6 0 1 .4 1 1s-.4 1-1 1zm-11.6 0h-5.8c-.6 0-1-.4-1-1s.4-1 1-1h5.8c.6 0 1 .4 1 1s-.4 1-1 1zm-11.6 0h-5.8c-.6 0-1-.4-1-1s.4-1 1-1h5.8c.6 0 1 .4 1 1s-.4 1-1 1zm-11.6 0h-5.8c-.6 0-1-.4-1-1s.4-1 1-1h5.8c.6 0 1 .4 1 1s-.4 1-1 1zm-11.6 0h-5.8c-.6 0-1-.4-1-1s.4-1 1-1h5.8c.6 0 1 .4 1 1s-.4 1-1 1zm-11.6 0h-5.8c-.6 0-1-.4-1-1s.4-1 1-1h5.8c.6 0 1 .4 1 1s-.4 1-1 1zm-11.6 0h-3c-.6 0-1-.4-1-1v-3c0-.6.4-1 1-1s1 .4 1 1v2h2c.6 0 1 .4 1 1s-.4 1-1 1z"/><path class="st2" d="M42.1 189.6c-.6 0-1-.4-1-1v-6c0-.6.4-1 1-1s1 .4 1 1v6c0 .6-.4 1-1 1zm0-11.9c-.6 0-1-.4-1-1v-6c0-.6.4-1 1-1s1 .4 1 1v6c0 .5-.4 1-1 1zm0-12c-.6 0-1-.4-1-1v-6c0-.6.4-1 1-1s1 .4 1 1v6c0 .6-.4 1-1 1zm0-11.9c-.6 0-1-.4-1-1v-6c0-.6.4-1 1-1s1 .4 1 1v6c0 .5-.4 1-1 1zm0-11.9c-.6 0-1-.4-1-1v-6c0-.6.4-1 1-1s1 .4 1 1v6c0 .5-.4 1-1 1zm0-12c-.6 0-1-.4-1-1v-6c0-.6.4-1 1-1s1 .4 1 1v6c0 .6-.4 1-1 1zm0-11.9c-.6 0-1-.4-1-1v-6c0-.6.4-1 1-1s1 .4 1 1v6c0 .5-.4 1-1 1zm0-11.9c-.6 0-1-.4-1-1v-6c0-.6.4-1 1-1s1 .4 1 1v6c0 .5-.4 1-1 1zm0-12c-.6 0-1-.4-1-1v-6c0-.6.4-1 1-1s1 .4 1 1v6c0 .6-.4 1-1 1zm0-11.9c-.6 0-1-.4-1-1v-6c0-.6.4-1 1-1s1 .4 1 1v6c0 .5-.4 1-1 1zm0-12c-.6 0-1-.4-1-1v-6c0-.6.4-1 1-1s1 .4 1 1v6c0 .6-.4 1-1 1zm0-11.9c-.6 0-1-.4-1-1v-6c0-.6.4-1 1-1s1 .4 1 1v6c0 .6-.4 1-1 1zm0-11.9c-.6 0-1-.4-1-1v-6c0-.6.4-1 1-1s1 .4 1 1v6c0 .5-.4 1-1 1zm0-12c-.6 0-1-.4-1-1v-6c0-.6.4-1 1-1s1 .4 1 1v6c0 .6-.4 1-1 1zm0-11.9c-.6 0-1-.4-1-1v-3c0-.6.4-1 1-1h3c.6 0 1 .4 1 1s-.4 1-1 1h-2v2c0 .6-.4 1-1 1zm119-3h-5.8c-.6 0-1-.4-1-1s.4-1 1-1h5.8c.6 0 1 .4 1 1s-.4 1-1 1zm-11.6 0h-5.8c-.6 0-1-.4-1-1s.4-1 1-1h5.8c.6 0 1 .4 1 1s-.4 1-1 1zm-11.6 0h-5.8c-.6 0-1-.4-1-1s.4-1 1-1h5.8c.6 0 1 .4 1 1s-.4 1-1 1zm-11.6 0h-5.8c-.6 0-1-.4-1-1s.4-1 1-1h5.8c.6 0 1 .4 1 1s-.4 1-1 1zm-11.6 0h-5.8c-.6 0-1-.4-1-1s.4-1 1-1h5.8c.6 0 1 .4 1 1s-.4 1-1 1zm-11.6 0h-5.8c-.6 0-1-.4-1-1s.4-1 1-1h5.8c.6 0 1 .4 1 1s-.4 1-1 1zm-11.6 0h-5.8c-.6 0-1-.4-1-1s.4-1 1-1h5.8c.6 0 1 .4 1 1s-.4 1-1 1zm-11.6 0h-5.8c-.6 0-1-.4-1-1s.4-1 1-1h5.8c.6 0 1 .4 1 1s-.4 1-1 1zm-11.6 0h-5.8c-.6 0-1-.4-1-1s.4-1 1-1h5.8c.6 0 1 .4 1 1s-.4 1-1 1zm-11.6 0h-5.8c-.6 0-1-.4-1-1s.4-1 1-1h5.8c.6 0 1 .4 1 1s-.4 1-1 1zm113.2 3c-.6 0-1-.4-1-1v-2h-2c-.6 0-1-.4-1-1s.4-1 1-1h3c.6 0 1 .4 1 1v3c0 .6-.4 1-1 1zm0 167.1c-.6 0-1-.4-1-1v-6c0-.6.4-1 1-1s1 .4 1 1v6c0 .6-.4 1-1 1zm0-11.9c-.6 0-1-.4-1-1v-6c0-.6.4-1 1-1s1 .4 1 1v6c0 .5-.4 1-1 1zm0-12c-.6 0-1-.4-1-1v-6c0-.6.4-1 1-1s1 .4 1 1v6c0 .6-.4 1-1 1zm0-11.9c-.6 0-1-.4-1-1v-6c0-.6.4-1 1-1s1 .4 1 1v6c0 .5-.4 1-1 1zm0-11.9c-.6 0-1-.4-1-1v-6c0-.6.4-1 1-1s1 .4 1 1v6c0 .5-.4 1-1 1zm0-12c-.6 0-1-.4-1-1v-6c0-.6.4-1 1-1s1 .4 1 1v6c0 .6-.4 1-1 1zm0-11.9c-.6 0-1-.4-1-1v-6c0-.6.4-1 1-1s1 .4 1 1v6c0 .5-.4 1-1 1zm0-11.9c-.6 0-1-.4-1-1v-6c0-.6.4-1 1-1s1 .4 1 1v6c0 .5-.4 1-1 1zm0-12c-.6 0-1-.4-1-1v-6c0-.6.4-1 1-1s1 .4 1 1v6c0 .6-.4 1-1 1zm0-11.9c-.6 0-1-.4-1-1v-6c0-.6.4-1 1-1s1 .4 1 1v6c0 .5-.4 1-1 1zm0-12c-.6 0-1-.4-1-1v-6c0-.6.4-1 1-1s1 .4 1 1v6c0 .6-.4 1-1 1zm0-11.9c-.6 0-1-.4-1-1v-6c0-.6.4-1 1-1s1 .4 1 1v6c0 .6-.4 1-1 1zm0-11.9c-.6 0-1-.4-1-1v-6c0-.6.4-1 1-1s1 .4 1 1v6c0 .5-.4 1-1 1zm0-12c-.6 0-1-.4-1-1v-6c0-.6.4-1 1-1s1 .4 1 1v6c0 .6-.4 1-1 1z"/><path class="st4" d="M116.2 99.3c-.8 0-1.5-.1-2.3-.4l-11-4.5c-3.1-1.3-4.5-4.8-3.3-7.8 1.3-3.1 4.8-4.5 7.8-3.3l11 4.5c3.1 1.3 4.5 4.8 3.3 7.8-.9 2.3-3.2 3.7-5.5 3.7z"/><ellipse cx="124.8" cy="164.6" rx="29" ry="4.4" fill="#ededf2"/><path class="st4" d="M139.4 98.5c-2 0-4-1-5.1-2.8l-7-11.2c-1.8-2.8-.9-6.5 1.9-8.3 2.8-1.8 6.5-.9 8.3 1.9l7 11.2c1.8 2.8.9 6.5-1.9 8.3-1 .6-2.1.9-3.2.9z"/><path class="st4" d="M110.7 84.9c-1.5.6-8.7 7.1-7.5 25.3 1.2 17.8-14.7 14.9-2.6 36.4 2.6 4.7 34.2 12.1 39.9 8.6 1.7-1 21.5-37.1 13-61.1-2.8-7.9-19.4-19.2-42.8-9.2z"/><path class="st4" d="M100.9 131.3s-1.8 12.1-1.1 18.1 2.3 9.3 3.4 8.7c1.2-.6 4.3-18.2 4.3-18.2l-6.6-8.6zm45.3 10.5s-3.7 11.7-7 16.8c-3.2 5.1-6.2 7.3-7 6.3-.8-1 4.3-18.2 4.3-18.2l9.7-4.9zM114 84.6c5.3-2.7 19.6-1.8 26.2-2.8 3.5-.5 13 1 13 1l-4.1 2.1 5.6.9-3.1 2.6 1.2 5-.9-.5-31.5-8.7-6.4.4zM167.1 143.2c-1.6 0-4.1-.4-7.8-1.9-6.8-2.7-11.3-14.3-11.8-15.6-.4-1 .1-2.2 1.2-2.6 1-.4 2.2.1 2.6 1.2 1.2 3.1 5.2 11.5 9.6 13.3 4.8 2 6.9 1.6 6.9 1.6 1-.4 2.2.1 2.6 1.1s-.1 2.2-1.1 2.6c-.4.1-1.1.3-2.2.3z"/><path d="M115.3 92c-5.7 3.8-2.2 49.4 1.8 54.4 6.5 8 21.6 6.3 23.6 2.1.7-1.6 17.7-32.8 9.7-54.3-2-5.6-15.2-15.4-35.1-2.2z" fill="#9ff"/><path class="st8" d="M125.5 101.5c.6.1.9.7.8 1.3l-.6 2.4c-.1.6-.7.9-1.3.8-.6-.1-.9-.7-.8-1.3l.6-2.4c.1-.6.7-.9 1.3-.8zM146.6 102.2c.6.1.9.7.8 1.3l-.6 2.4c-.1.6-.7.9-1.3.8-.6-.1-.9-.7-.8-1.3l.6-2.4c.2-.6.7-.9 1.3-.8z"/><path class="st9" d="M124.5 110.9c-.3 0-.7 0-1-.1-2.4-.6-3.2-2.7-3.2-2.8-.2-.5.1-1.1.6-1.3.5-.2 1.1.1 1.3.6 0 .1.5 1.2 1.8 1.5 1.3.3 2.3-.5 2.3-.5.4-.4 1-.4 1.4 0 .4.4.4 1 0 1.4-.2.1-1.4 1.2-3.2 1.2zM146.1 108c-.3 0-.7 0-1-.1-2.4-.6-3.2-2.7-3.2-2.8-.2-.5.1-1.1.6-1.3.5-.2 1.1.1 1.3.6 0 .1.5 1.2 1.8 1.5 1.3.3 2.2-.5 2.3-.6.4-.4 1-.4 1.4 0 .4.4.4 1 0 1.4-.2.2-1.4 1.3-3.2 1.3z"/><path class="st10" d="M132.4 75.3c2 0 4 1 5.1 2.8l2.3 3.8h.3c.5-.1 1.2-.1 1.9-.1 4.2 0 11.1 1.1 11.1 1.1L149 85l5.6.9-3.1 2.6.9 3.6c.4.7.7 1.3 1 2 3.6 10.2 2.1 22.5-.9 33.4 1.8 3.8 4.9 8.8 8.2 10.1 3.5 1.4 5.5 1.6 6.4 1.6h.5c.2-.1.5-.1.8-.1.8 0 1.5.5 1.9 1.2.4 1-.1 2.2-1.1 2.6-.3.1-1 .3-2.1.3-1.6 0-4.1-.4-7.8-1.9-3.4-1.4-6.3-5-8.4-8.5-3 9.1-6.8 16.7-8.9 20.2-.9 2.1-1.9 4.1-2.8 5.5-2.7 4.3-5.2 6.6-6.4 6.6-.2 0-.4-.1-.5-.2-.4-.5.6-4.6 1.7-8.8-8.2-.3-21.1-3.3-28.3-6.3-.9 4.1-1.8 8.1-2.4 8.3-.1 0-.2.1-.3.1-1.1 0-2.6-3.2-3.2-8.8-.1-1.3-.2-2.8-.1-4.4-10.4-19.8 4.6-17.4 3.5-34.8-.4-6.4.2-11.4 1.3-15.2l-1.5-.6c-3.1-1.3-4.5-4.8-3.3-7.8 1-2.3 3.2-3.7 5.6-3.7.8 0 1.5.1 2.3.4l3.7 1.5c5.5-2.3 10.7-3.4 15.4-3.7.1-1.9 1.1-3.8 2.8-4.9.8-.6 1.9-.9 2.9-.9m0-1c-1.3 0-2.6.4-3.7 1.1-1.7 1.1-2.9 2.8-3.2 4.8-4.7.4-9.6 1.6-14.5 3.6l-3.3-1.3c-.8-.3-1.7-.5-2.6-.5-2.9 0-5.4 1.7-6.5 4.4-1.5 3.6.3 7.7 3.8 9.1l.7.3c-1.1 4.3-1.4 9.2-1.1 14.7.5 7-1.8 10.5-3.9 14-2.9 4.7-5.7 9.2.4 21 0 1.7 0 3.1.1 4.3.2 2.3 1.3 9.7 4.2 9.7.2 0 .5-.1.7-.2.5-.3 1.1-.5 2.6-7.9 7.2 2.8 18.6 5.3 26.3 5.8-1.9 7.6-1.5 8-1.2 8.5.3.4.8.6 1.3.6 2.6 0 6.2-5.4 7.3-7 .9-1.3 1.8-3.2 2.8-5.6 2.1-3.6 5.5-10.4 8.3-18.4 2.5 3.6 5 6 7.7 7.1 3.2 1.3 6 2 8.2 2 1.3 0 2-.2 2.5-.4 1.5-.6 2.3-2.4 1.7-3.9-.5-1.1-1.6-1.9-2.8-1.9-.3 0-.7.1-1 .2h-.3c-.7 0-2.6-.1-6-1.5-2.3-.9-5-4.3-7.5-9.3 3.7-13.4 3.9-24.8.8-33.7-.2-.6-.6-1.3-1-2l-.7-2.9 2.6-2.2c.3-.3.4-.7.3-1-.1-.4-.4-.7-.8-.7l-2.6-.4 1.4-.7c.4-.2.6-.6.5-1-.1-.4-.4-.8-.8-.8-.3 0-7-1.1-11.2-1.1-.6 0-1.2 0-1.7.1l-2-3.2c-1.1-2.4-3.3-3.7-5.8-3.7z"/><path class="st9" d="M129.8 118.8c-.5 0-1-.4-1-.9 0-.6.4-1 .9-1.1 6-.5 11.7-1.7 12.3-2.6.7-1.1.8-2.7.8-2.8 0-.5.5-.9 1-.9s1 .4 1 .9c.1.9.4 2.3.8 2.8.7.9 1.6.8 1.6.9.6 0 1 .4 1.1.9 0 .6-.4 1-.9 1.1-.7 0-2.2-.2-3.3-1.6-.1-.1-.2-.3-.3-.4 0 .1-.1.1-.1.2-1.4 2.3-10.2 3.2-13.9 3.5z"/><path class="st8" d="M140.5 110c-.8.5 3.6 2.7 4.2 2.7.9 0 5.3-1.9 5.1-3.4 0-.8-6.3-1.3-9.3.7z"/><path class="st8" d="M144.8 113.7c-.1 0-.1 0 0 0-.8 0-4.8-1.8-5.2-3.2-.2-.5 0-1 .5-1.3 2.8-1.9 8.3-1.8 10-1.1.7.3.8.7.9 1.1.1.6-.2 1.2-.7 1.8-1.3 1.3-4.5 2.7-5.5 2.7zm-2.7-3.4c.9.6 2.4 1.3 2.8 1.4.6 0 2.9-1.1 3.7-1.9-1.3-.3-4.4-.4-6.5.5zm-1 .5z"/><path class="st3" d="M169.5 134.9l-4.9.1-.3-27.7c0-2.3 1.7-4.1 3.9-4.3.2 0 .3.1.3.3l1 31.6z" id="Layer_2_71_"/><path class="st2" d="M179.8 108c.1-.1.3-.1.5.1 1.3 1.8 1 4.3-.8 5.8l-21.3 17.7-3.1-3.7 24.7-19.9z" id="Layer_3_101_"/><path class="st11" d="M144.2 129.6c-.3 1.8.2 3.5 1.3 4.9.5.7 1.2 1.2 2 1.5 2.4 1.1 5.3.7 7.5-1.2.2-.1.3-.3.5-.4l6.9-5.7c.3-.2.5-.6.5-1s-.1-.8-.3-1l-1.9-2.3c-.1-.2-.3-.3-.5-.4-.2-.1-.3-.1-.5-.1-.4 0-.8.1-1 .3l-2 1.6-.3-.3c-.5-.7-1.2-1.2-2-1.5-2.4-1.1-5.3-.7-7.5 1.2-1.5 1-2.5 2.6-2.7 4.4zm4.4-2.3c1.3-1.1 3.1-1.4 4.4-.8.4.2.7.4 1 .8.9 1.1.9 2.8.1 4.1-.3.5-.8.9-1.4 1.5-1.3.9-2.8 1.1-4 .5-.4-.2-.7-.4-1-.8-.6-.7-.8-1.6-.6-2.6.1-1 .6-2 1.5-2.7z" id="Layer_4_71_"/><path class="st11" d="M164.1 129.9l.1 9v.6c0 2.8 1.5 5.3 3.8 6.4.8.4 1.7.6 2.6.6 3.5 0 6.3-3.2 6.3-7.1 0-2.8-1.5-5.3-3.8-6.4-.8-.4-1.7-.6-2.6-.6h-.4v-2.6c0-.6-.3-1-.8-1.3-.2-.1-.4-.1-.6-.1h-3c-.4 0-.7.2-1 .4-.5.4-.6.7-.6 1.1zm7.7 5.7c1.3.6 2.2 2.1 2.2 3.8 0 2.3-1.5 4.2-3.4 4.2-.5 0-.9-.1-1.3-.3-1.2-.6-2-1.9-2.2-3.3 0-.8.1-1.4.2-2 .5-1.5 1.7-2.6 3.2-2.6.4-.1.8 0 1.3.2z" id="Layer_5_91_"/><path class="st3" d="M167 119.8c.9.1 1.5.9 1.4 1.7-.1.9-.9 1.5-1.7 1.4-.9-.1-1.5-.9-1.4-1.7.1-.8.8-1.5 1.7-1.4z" id="Layer_6_67_"/><defs><path id="XMLID_40_" d="M131 118.7l-.8 2.5c-.7 2.1.5 4.4 2.6 5s4.4-.5 5-2.6l2-6.3-8.8 1.4z"/></defs><use href="#XMLID_40_" overflow="visible" fill="#ff99f8"/><clipPath id="XMLID_2_"><use href="#XMLID_40_" overflow="visible"/></clipPath><path clip-path="url(#XMLID_2_)" fill="#ff66ed" d="M128.8 120.7l12.3-2.1.8-3.3-8.2-1.2z"/><path d="M133.7 124h-.2c-.3-.1-.4-.4-.3-.6l1.5-4.6c.1-.3.4-.4.6-.3.3.1.4.4.3.6l-1.5 4.6c0 .2-.2.3-.4.3z" fill="#ff66ed"/><path class="st4" d="M131.2 138.5c-11.9 0-22.4-18.9-22.9-19.7-.5-1-.2-2.2.8-2.7s2.2-.2 2.7.8c2.8 5.1 11.9 18.4 20 17.6 10.3-.9 15.2-4.7 15.3-4.7.9-.7 2.1-.5 2.8.3s.6 2.1-.3 2.8c-.2.2-5.8 4.6-17.4 5.6h-1z"/><path class="st4" d="M167.8 138.3s-5.4 2.2-5.5 4c-.1 1.9 5.6 4.1 8 .5 2.5-3.6-1.5-4.9-2.5-4.5zM112 116.2s.5 4 3 6.2-3.2 5.5-3 10.5 0-16.7 0-16.7z"/><g><path class="st10" d="M131.2 139h-.7c-9.3-.3-17.5-12.2-17.8-12.7-.2-.2-.1-.5.1-.7.2-.2.5-.1.7.1.1.1 8.2 12 17 12.3 8.7.2 17.2-4.2 18.4-5.2.4-.3.6-1.8.1-2.5s-1.6-.2-2.4.3c-.2.1-.5.1-.7-.2-.1-.2-.1-.5.2-.7 2.3-1.4 3.3-.6 3.8 0 .8 1.1.5 3.2-.3 3.9-.8.7-9.1 5.4-18.4 5.4z"/></g><g><path class="st10" d="M166.6 145.4c-.9 0-1.9-.2-3-.9-1.3-.7-1.9-1.5-1.8-2.4.1-1.8 3.2-3.1 3.6-3.2.3-.1.5 0 .6.3.1.3 0 .5-.3.6-1.1.4-2.9 1.4-2.9 2.4 0 .6.7 1.1 1.3 1.5 1.5.8 2.9 1 4.2.4 1.4-.7 2.1-1.9 2.2-2.2.1-.4.3-1.6-.3-2.3-.5-.6-1.4-.8-2.8-.6-.3 0-.5-.2-.5-.5s.2-.5.5-.5c1.7-.2 2.9.2 3.6 1 1 1.1.7 2.7.6 3.2-.1.6-1.1 2.2-2.7 2.9-.7.1-1.4.3-2.3.3z"/></g><g><path class="st10" d="M132.9 157.1c-.3 0-.5-.2-.5-.5s.2-.5.5-.5c2.2 0 5.5-.7 5.6-.7.3-.1.5.1.6.4.1.3-.1.5-.4.6-.2.1-3.6.7-5.8.7z"/></g><g><path class="st10" d="M106.6 89.3h-.1c-.3-.1-.4-.3-.4-.6.1-.5 1.6-3.4 5.3-5 .3-.1.5 0 .7.3.1.3 0 .5-.3.7-3.2 1.4-4.6 3.9-4.7 4.3-.1.1-.3.3-.5.3z"/></g><g><path class="st10" d="M138.4 82c-6.1 0-12.4-.8-12.5-.8-.3 0-.5-.3-.4-.6 0-.3.3-.5.6-.4.1 0 9.6 1.2 16.4.7.3 0 .5.2.5.5s-.2.5-.5.5c-1.3.1-2.7.1-4.1.1z"/></g><g><path class="st10" d="M151.7 132.3h-.2c-.3-.1-.4-.4-.3-.6l1.3-4.1c.1-.3.4-.4.6-.3.3.1.4.4.3.6l-1.3 4.1c0 .1-.2.3-.4.3z"/></g><g><path class="st10" d="M105.5 152.8c-.4-.1-.5-.3-.5-.6l1.2-5.8c.1-.3.3-.4.6-.4.3.1.4.3.4.6l-1.2 5.8c0 .2-.2.4-.5.4z"/></g></svg>