<svg id="Layer_1" xmlns="http://www.w3.org/2000/svg" viewBox="0 0 216 216"><style>.st0{fill:#e1e1e6}.st1{fill:#fff}.st2{fill:#5ce6e6}.st6{fill:#535a80}.st8{fill:#66bdff}.st9{fill:#2bb0cc}</style><path class="st0" d="M186.7 89H126c-.6 0-1-.4-1-1s.4-1 1-1h60.7c.6 0 1 .4 1 1s-.5 1-1 1zM83.5 76.8H51.6c-.6 0-1-.4-1-1s.4-1 1-1h31.8c.6 0 1 .4 1 1s-.4 1-.9 1zM68 72.2h-9c-.3 0-.5-.2-.5-.5s.2-.5.5-.5h9c.3 0 .5.2.5.5s-.3.5-.5.5zm22.5 45.5h-64c-.6 0-1-.4-1-1s.4-1 1-1h64c.6 0 1 .4 1 1s-.5 1-1 1zM80 113.1H49.3c-.3 0-.5-.2-.5-.5s.2-.5.5-.5H80c.3 0 .5.2.5.5s-.2.5-.5.5zm98.4-29.3h-26.9c-.3 0-.5-.2-.5-.5s.2-.5.5-.5h26.9c.3 0 .5.2.5.5s-.2.5-.5.5z"/><path class="st1" d="M151.6 30.2c0-.1 0-.1 0 0z"/><path class="st0" d="M202.3 93.2H111c-.3 0-.5-.2-.5-.5s.2-.5.5-.5h91.3c.3 0 .5.2.5.5s-.2.5-.5.5zM73.8 151.9H26.6c-.6 0-1-.4-1-1s.4-1 1-1h47.1c.6 0 1 .4 1 1s-.4 1-.9 1z"/><path class="st1" d="M126.3 55.8h19.5s-6.1-13.6 6.8-15.4c11.5-1.6 16.1 10.3 16.1 10.3s1.4-6.8 8.2-5.5c6.8 1.3 11.8 12.2 11.8 12.2h17"/><path class="st0" d="M206 54.2h-17c-.2 0-.4-.1-.4-.3 0-.1-5-9.7-11.4-10.9-6.3-1.2-7.6 4.9-7.6 5.1 0 .2-.2.4-.4.4s-.4-.1-.5-.3c0 0-1.1-2.9-3.6-5.6-3.3-3.5-7.3-5-11.9-4.4-3.4.5-5.7 1.8-6.9 3.9-2.4 4.3.4 10.7.4 10.8.1.2.1.3 0 .5-.1.1-.2.2-.4.2h-19.5c-.3 0-.5-.2-.5-.5s.2-.5.5-.5h18.7c-.7-1.9-2.3-7-.1-10.9 1.4-2.4 3.9-3.9 7.6-4.4 9.6-1.3 14.5 6.4 16.1 9.4.8-2 3.1-5.7 8.4-4.7 6.4 1.2 11.1 9.5 12 11.2H206c.3 0 .5.2.5.5s-.2.5-.5.5z"/><path class="st1" d="M206.6 57.7h-80.3c-.6 0-1-.4-1-1s.4-1 1-1h80.3c.6 0 1 .4 1 1s-.4 1-1 1zM39.4 43.5h10.8s-3.4-7.6 3.8-8.6c6.4-.9 9 5.7 9 5.7s.8-3.8 4.6-3.1c3.8.7 6.5 6.8 6.5 6.8h9.4"/><path class="st0" d="M50.6 42.3H39.7c-.3 0-.5-.2-.5-.5s.2-.5.5-.5h10.1c-.4-1.2-1.1-3.9.1-6 .8-1.4 2.3-2.3 4.4-2.6 5.1-.7 7.9 3 8.9 4.9.7-1.4 2.1-2.8 4.8-2.3 3.5.7 6.1 4.7 6.7 5.8h9.1c.3 0 .5.2.5.5s-.2.5-.5.5h-9.4c-.2 0-.3-.1-.4-.3 0 0-2.7-4.9-6.2-5.5-3.3-.6-4 2.5-4 2.7 0 .2-.2.4-.4.4s-.4-.1-.5-.3c-.1-.3-2.5-6.2-8.4-5.4-1.8.2-3 .9-3.7 2.1-1.3 2.3.2 5.7.2 5.8.1.2.1.3 0 .5-.1.1-.3.2-.4.2z"/><path class="st1" d="M84.2 45.4H39.6c-.6 0-1-.4-1-1s.4-1 1-1h44.6c.6 0 1 .4 1 1s-.4 1-1 1z"/><path class="st0" d="M191.5 151.9h-47.4c-.6 0-1-.4-1-1s.4-1 1-1h47.4c.6 0 1 .4 1 1s-.4 1-1 1zm-18.9 45.8h-3c-.6 0-1-.4-1-1s.4-1 1-1h2v-2c0-.6.4-1 1-1s1 .4 1 1v3c0 .5-.4 1-1 1zm-8.8 0H158c-.6 0-1-.4-1-1s.4-1 1-1h5.8c.6 0 1 .4 1 1s-.4 1-1 1zm-11.6 0h-5.8c-.6 0-1-.4-1-1s.4-1 1-1h5.8c.6 0 1 .4 1 1s-.4 1-1 1zm-11.6 0h-5.8c-.6 0-1-.4-1-1s.4-1 1-1h5.8c.6 0 1 .4 1 1s-.4 1-1 1zm-11.6 0h-5.8c-.6 0-1-.4-1-1s.4-1 1-1h5.8c.6 0 1 .4 1 1s-.4 1-1 1zm-11.6 0h-5.8c-.6 0-1-.4-1-1s.4-1 1-1h5.8c.6 0 1 .4 1 1s-.4 1-1 1zm-11.6 0H100c-.6 0-1-.4-1-1s.4-1 1-1h5.8c.6 0 1 .4 1 1s-.4 1-1 1zm-11.6 0h-5.8c-.6 0-1-.4-1-1s.4-1 1-1h5.8c.6 0 1 .4 1 1s-.4 1-1 1zm-11.6 0h-5.8c-.6 0-1-.4-1-1s.4-1 1-1h5.8c.6 0 1 .4 1 1s-.4 1-1 1zm-11.6 0h-5.8c-.6 0-1-.4-1-1s.4-1 1-1H71c.6 0 1 .4 1 1s-.4 1-1 1zm-11.6 0h-5.8c-.6 0-1-.4-1-1s.4-1 1-1h5.8c.6 0 1 .4 1 1s-.4 1-1 1zm-11.6 0h-3c-.6 0-1-.4-1-1v-3c0-.6.4-1 1-1s1 .4 1 1v2h2c.6 0 1 .4 1 1s-.4 1-1 1zm-3-9c-.6 0-1-.4-1-1v-6c0-.6.4-1 1-1s1 .4 1 1v6c0 .5-.4 1-1 1zm0-12c-.6 0-1-.4-1-1v-6c0-.6.4-1 1-1s1 .4 1 1v6c0 .6-.4 1-1 1zm0-11.9c-.6 0-1-.4-1-1v-6c0-.6.4-1 1-1s1 .4 1 1v6c0 .6-.4 1-1 1zm0-11.9c-.6 0-1-.4-1-1v-6c0-.6.4-1 1-1s1 .4 1 1v6c0 .5-.4 1-1 1zm0-12c-.6 0-1-.4-1-1v-6c0-.6.4-1 1-1s1 .4 1 1v6c0 .6-.4 1-1 1zm0-11.9c-.6 0-1-.4-1-1v-6c0-.6.4-1 1-1s1 .4 1 1v6c0 .6-.4 1-1 1zm0-11.9c-.6 0-1-.4-1-1v-6c0-.6.4-1 1-1s1 .4 1 1v6c0 .5-.4 1-1 1zm0-12c-.6 0-1-.4-1-1v-6c0-.6.4-1 1-1s1 .4 1 1v6c0 .6-.4 1-1 1zm0-11.9c-.6 0-1-.4-1-1v-6c0-.6.4-1 1-1s1 .4 1 1v6c0 .6-.4 1-1 1zm0-11.9c-.6 0-1-.4-1-1v-6c0-.6.4-1 1-1s1 .4 1 1v6c0 .5-.4 1-1 1zm0-12c-.6 0-1-.4-1-1v-6c0-.6.4-1 1-1s1 .4 1 1v6c0 .6-.4 1-1 1zm0-11.9c-.6 0-1-.4-1-1v-6c0-.6.4-1 1-1s1 .4 1 1v6c0 .5-.4 1-1 1zm0-11.9c-.6 0-1-.4-1-1v-6c0-.6.4-1 1-1s1 .4 1 1v6c0 .5-.4 1-1 1zm0-12c-.6 0-1-.4-1-1v-6c0-.6.4-1 1-1s1 .4 1 1v6c0 .6-.4 1-1 1zm0-11.9c-.6 0-1-.4-1-1v-3c0-.6.4-1 1-1h3c.6 0 1 .4 1 1s-.4 1-1 1h-2v2c0 .5-.4 1-1 1zm119-3H158c-.6 0-1-.4-1-1s.4-1 1-1h5.8c.6 0 1 .4 1 1s-.4 1-1 1zm-11.6 0h-5.8c-.6 0-1-.4-1-1s.4-1 1-1h5.8c.6 0 1 .4 1 1s-.4 1-1 1zm-11.6 0h-5.8c-.6 0-1-.4-1-1s.4-1 1-1h5.8c.6 0 1 .4 1 1s-.4 1-1 1zm-11.6 0h-5.8c-.6 0-1-.4-1-1s.4-1 1-1h5.8c.6 0 1 .4 1 1s-.4 1-1 1zm-11.6 0h-5.8c-.6 0-1-.4-1-1s.4-1 1-1h5.8c.6 0 1 .4 1 1s-.4 1-1 1zm-11.6 0H100c-.6 0-1-.4-1-1s.4-1 1-1h5.8c.6 0 1 .4 1 1s-.4 1-1 1zm-11.6 0h-5.8c-.6 0-1-.4-1-1s.4-1 1-1h5.8c.6 0 1 .4 1 1s-.4 1-1 1zm-11.6 0h-5.8c-.6 0-1-.4-1-1s.4-1 1-1h5.8c.6 0 1 .4 1 1s-.4 1-1 1zm-11.6 0h-5.8c-.6 0-1-.4-1-1s.4-1 1-1H71c.6 0 1 .4 1 1s-.4 1-1 1zm-11.6 0h-5.8c-.6 0-1-.4-1-1s.4-1 1-1h5.8c.6 0 1 .4 1 1s-.4 1-1 1zm113.2 3c-.6 0-1-.4-1-1v-2h-2c-.6 0-1-.4-1-1s.4-1 1-1h3c.6 0 1 .4 1 1v3c0 .5-.4 1-1 1z"/><path class="st0" d="M172.6 188.7c-.6 0-1-.4-1-1v-6c0-.6.4-1 1-1s1 .4 1 1v6c0 .5-.4 1-1 1zm0-12c-.6 0-1-.4-1-1v-6c0-.6.4-1 1-1s1 .4 1 1v6c0 .6-.4 1-1 1zm0-11.9c-.6 0-1-.4-1-1v-6c0-.6.4-1 1-1s1 .4 1 1v6c0 .6-.4 1-1 1zm0-11.9c-.6 0-1-.4-1-1v-6c0-.6.4-1 1-1s1 .4 1 1v6c0 .5-.4 1-1 1zm0-12c-.6 0-1-.4-1-1v-6c0-.6.4-1 1-1s1 .4 1 1v6c0 .6-.4 1-1 1zm0-11.9c-.6 0-1-.4-1-1v-6c0-.6.4-1 1-1s1 .4 1 1v6c0 .6-.4 1-1 1zm0-11.9c-.6 0-1-.4-1-1v-6c0-.6.4-1 1-1s1 .4 1 1v6c0 .5-.4 1-1 1zm0-12c-.6 0-1-.4-1-1v-6c0-.6.4-1 1-1s1 .4 1 1v6c0 .6-.4 1-1 1zm0-11.9c-.6 0-1-.4-1-1v-6c0-.6.4-1 1-1s1 .4 1 1v6c0 .6-.4 1-1 1zm0-11.9c-.6 0-1-.4-1-1v-6c0-.6.4-1 1-1s1 .4 1 1v6c0 .5-.4 1-1 1zm0-12c-.6 0-1-.4-1-1v-6c0-.6.4-1 1-1s1 .4 1 1v6c0 .6-.4 1-1 1zm0-11.9c-.6 0-1-.4-1-1v-6c0-.6.4-1 1-1s1 .4 1 1v6c0 .5-.4 1-1 1zm0-11.9c-.6 0-1-.4-1-1v-6c0-.6.4-1 1-1s1 .4 1 1v6c0 .5-.4 1-1 1zm0-12c-.6 0-1-.4-1-1v-6c0-.6.4-1 1-1s1 .4 1 1v6c0 .6-.4 1-1 1z"/><path class="st2" d="M95.8 104.9c-1.5 0-3.1-.6-4.2-1.8l-9.3-9.3c-2.3-2.3-2.3-6.1 0-8.5 2.3-2.3 6.1-2.3 8.5 0l9.3 9.3c2.3 2.3 2.3 6.1 0 8.5-1.2 1.2-2.8 1.8-4.3 1.8zm28.3.3c-1.5 0-3.1-.6-4.2-1.8-2.3-2.3-2.3-6.1 0-8.5l9.3-9.3c2.3-2.3 6.1-2.3 8.5 0 2.3 2.3 2.3 6.1 0 8.5l-9.3 9.3c-1.2 1.2-2.7 1.8-4.3 1.8z"/><ellipse cx="110.9" cy="165.5" rx="29" ry="4.4" fill="#ededf2"/><path class="st2" d="M86.1 92.6c-3 1.9-2.4 58 4.1 62.3 4.5 3 36 4 40.8-.7 1.4-1.4 8.2-35.7 4.8-60-.9-6.3-38.7-8.6-49.7-1.6z"/><path class="st2" d="M87.1 139.9s1 12.2 3 17.9 4.3 8.5 5.3 7.7c1-.8 0-18.7 0-18.7l-8.3-6.9zm46.5 0s-1 12.2-3 17.9-4.3 8.5-5.3 7.7c-1-.8 0-18.7 0-18.7l8.3-6.9zM90.2 88.1s12.5-3.8 16-4.2 11-4.2 11-4.2l-1.8 4 4.2-1.2v2.2l10.2 2.8-2.2 3H94.4l-4.2-2.4z"/><path d="M92.1 92.3c-7.2 4.8-2.7 49.9 1.9 55.5 7.5 9.2 30.4 8.5 34.8-1.8.7-1.7 7.6-34 2.4-51.8-1.7-5.7-21.8-13.4-39.1-1.9z" fill="#9ff"/><path class="st2" d="M134.2 115.8s-.5 4-3 6.2 3.2 5.5 3 10.5c-.3 5.1 0-16.7 0-16.7zm-47.1-2.2s.5 4 3 6.2-3.2 5.5-3 10.5c.2 5 0-16.7 0-16.7z"/><path class="st6" d="M101.2 98c.6 0 1.1.5 1.1 1.1v2.4c0 .6-.5 1.1-1.1 1.1-.6 0-1.1-.5-1.1-1.1v-2.4c0-.6.5-1.1 1.1-1.1zm26.9 0c.6 0 1.1.5 1.1 1.1v2.4c0 .6-.5 1.1-1.1 1.1-.6 0-1.1-.5-1.1-1.1v-2.4c0-.6.5-1.1 1.1-1.1z"/><path d="M115.8 111.9c-.3 0-.6-.2-.8-.4-.1-.2-1.2-1.8-.7-4.5.5-2.4 2.3-5.1 2.4-5.2.2-.2.4-.4.7-.4.3 0 .6.1.8.2.1.1 1.9 1.7 2.9 2.8 2.2 2.6.8 5.6.7 5.8-.2.5-.8.7-1.3.4s-.7-.8-.4-1.3c0-.1.9-2-.5-3.6-.5-.5-1.2-1.3-1.8-1.8-.5.9-1.2 2.2-1.4 3.5-.3 1.9.3 3 .4 3 .3.5.2 1.1-.3 1.4-.3 0-.5.1-.7.1z" fill="#57d9d9"/><path class="st6" d="M112.8 102.6c-.6.7 4.1 1.8 4.7 1.7.9-.2 4.8-3.1 4.2-4.5-.2-.7-6.4.2-8.9 2.8z"/><path class="st6" d="M117.5 105.3c-1.2 0-4.9-.8-5.6-1.9-.3-.5-.2-1 .2-1.4 2.3-2.5 7.7-3.7 9.5-3.3.7.1 1 .5 1.1.8.2.6.1 1.2-.3 1.9-.9 1.6-3.7 3.7-4.7 3.9h-.2zm-3.1-2.7c1 .3 2.6.7 3 .7.6-.2 2.6-1.8 3.2-2.7-1.4 0-4.3.7-6.2 2z"/><path class="st8" d="M103.1 104.6c-.3 0-.6-.2-.8-.4 0-.1-.7-1.1-2.1-1.1-1.4 0-2.1 1-2.1 1-.3.5-.9.6-1.4.3-.5-.3-.6-.9-.3-1.4.1-.1 1.3-2 3.8-2s3.7 1.9 3.8 2c.3.5.2 1.1-.3 1.4-.2.1-.4.2-.6.2zm21.2-.1c-.2 0-.4-.1-.5-.2-.5-.3-.6-.9-.3-1.4.1-.1 1.3-1.9 3.7-1.9s3.6 1.8 3.7 1.9c.3.5.2 1.1-.3 1.4-.5.3-1.1.2-1.4-.3 0-.1-.7-1-2-1s-2 1-2 1c-.3.4-.6.5-.9.5z"/><path class="st8" d="M128.5 113.7c-.6 0-1-.4-1-1v-9.3c0-.6.4-1 1-1s1 .4 1 1v9.3c0 .6-.5 1-1 1zM98.6 108.3c-.6 0-1-.4-1-1v-4.1c0-.6.4-1 1-1s1 .4 1 1v4.1c0 .5-.5 1-1 1z"/><path class="st2" d="M91.8 136.9c-1.9 0-3.8-.3-5.8-1.1-3.2-1.3-4.3-3.4-4.7-5-1.1-4.8 3.5-10 4-10.5.9-1 2.5-1.1 3.5-.2 1 .9 1.1 2.5.2 3.5-1.4 1.5-3.2 4.5-2.8 6.1 0 .2.2.9 1.7 1.4 5.1 2 11.2-.7 15.2-2.6 1.1-.5 2-.9 2.8-1.2 5.6-2 10-2.2 13.1-.6 2.7 1.4 3.4 3.8 3.4 4.1l-4.9 1.2v.1c-.4-1.1-3-2.6-10-.1-.6.2-1.4.6-2.4 1-3.2 1.7-8.1 3.9-13.3 3.9z"/><path class="st2" d="M126.9 138.7c-1.8 0-3.7-.5-5.4-1.4-16.4-9-21.8-4.9-21.9-4.8l.1-.1-3.5-3.6c.7-.7 7.9-6.7 27.7 4.1 1.9 1.1 3.9 1.1 5.9.1 2.3-1.2 3.8-3.3 3.9-4.5.3-1.9-1.3-2.9-1.5-3-1.2-.7-1.6-2.2-.9-3.4.7-1.2 2.1-1.6 3.3-1 1.8 1 4.6 3.7 4 8-.4 3.1-3.1 6.5-6.6 8.3-1.6.8-3.3 1.3-5.1 1.3z"/><path class="st8" d="M98.7 112c-.3 0-.5-.1-.7-.3-.2-.2-.3-.4-.3-.7 0-.3.1-.5.3-.7.4-.4 1-.4 1.4 0 .2.2.3.4.3.7 0 .3-.1.5-.3.7-.2.2-.4.3-.7.3zM128.3 117.6c-.6 0-1-.4-1-1v-.6c0-.6.4-1 1-1s1 .4 1 1v.6c0 .6-.4 1-1 1z"/><path class="st9" d="M117.2 79.6l-1.8 4 4.2-1.2v2.2l8.4 2.2 1.2-1.2c1.2-1.2 2.7-1.8 4.2-1.8s3.1.6 4.2 1.8c2.3 2.3 2.3 6.1 0 8.5l-1.7 1.7c1 8.4.9 17.7.3 26.5 1.5 1.4 2.8 3.7 2.4 6.8-.3 2.2-1.7 4.5-3.8 6.3-.9 6.3-1.8 11.6-2.6 14.9-.5 2.7-1 5.5-1.7 7.4-1.8 5.1-3.8 7.9-4.9 7.9-.1 0-.3 0-.4-.1-.5-.4-.5-4.7-.4-9.1-3.8.7-8.8 1-13.8 1-5.6 0-11.2-.4-15.2-1 .1 4.4.1 8.7-.4 9.1-.1.1-.2.1-.4.1-1.1 0-3.2-2.8-4.9-7.9-.4-1.3-.8-2.8-1.2-4.5-1.6-3.1-2.8-9.8-3.5-17.7-2.7-1.3-3.7-3.2-4-4.7-.8-3.7 1.7-7.6 3.1-9.5-.4-10-.2-19.6.5-24.8l-2.8-2.8c-2.3-2.3-2.3-6.1 0-8.5 1.2-1.2 2.7-1.8 4.2-1.8s3.1.6 4.2 1.8l2 2c3.8-1.1 11-3.2 13.5-3.5 3.6-.3 11.1-4.1 11.1-4.1m0-1c-.2 0-.3 0-.4.1-.1 0-7.4 3.7-10.7 4.2-2.4.3-9 2.2-13.1 3.4l-1.6-1.6c-1.3-1.3-3.1-2.1-5-2.1s-3.6.7-4.9 2c-2.7 2.7-2.7 7.2 0 9.9l2.4 2.4c-.6 5.4-.8 14.5-.4 24.2-1.6 2.2-4 6.2-3.1 10 .3 1.5 1.3 3.6 4.1 5.1.6 6 1.7 13.7 3.5 17.4.4 1.8.8 3.4 1.2 4.5.7 2 3.2 8.5 5.9 8.5.4 0 .7-.1 1-.4.5-.4.9-.8.8-8.7 4 .5 9.1.8 14.2.8 3.5 0 8.4-.1 12.7-.8-.2 7.9.3 8.3.8 8.7.3.2.6.4 1 .4 2.7 0 5.2-6.5 5.9-8.5.6-1.8 1.2-4.3 1.7-7.5.9-3.8 1.8-9.1 2.6-14.6 2.1-2 3.5-4.4 3.8-6.7.5-3.6-1.1-6-2.4-7.3.7-9.7.6-18.4-.2-25.8l1.3-1.3c1.3-1.3 2.1-3.1 2.1-4.9s-.7-3.6-2.1-4.9c-1.3-1.3-3.1-2.1-4.9-2.1-1.9 0-3.6.7-4.9 2.1l-.7.7-7.1-1.9v-1.5c0-.3-.1-.6-.4-.8-.2-.1-.4-.2-.6-.2h-.3l-2.2.6.9-2c.2-.4.1-.8-.2-1.1-.2-.2-.5-.3-.7-.3zm0 2z"/><path class="st9" d="M87.3 92.4s-.1 0 0 0c-.4-.1-.5-.3-.5-.6 0-.2.8-4.2 6.1-5.6.3-.1.5.1.6.4.1.3-.1.5-.4.6-4.7 1.2-5.4 4.6-5.4 4.8 0 .3-.2.4-.4.4z"/><g><path class="st9" d="M133 91c-.2 0-.4-.1-.5-.4 0-.1-.8-2.8-4.7-3.8-.3-.1-.4-.4-.3-.6.1-.3.3-.4.6-.3 4.4 1.2 5.3 4.4 5.3 4.5.1.3-.1.5-.3.6h-.1z"/></g><g><path class="st9" d="M91.4 137.5c-2 0-4.3-.3-6.6-1-.3-.1-.4-.4-.3-.6s.4-.4.6-.3c8.5 2.6 15.7-1.1 15.8-1.1.2-.1.5 0 .7.2.1.2 0 .5-.2.7-.3 0-4.3 2.1-10 2.1z"/></g><g><path class="st9" d="M127.6 139.3h-.7c-3.4-.2-5.1-1.2-8.1-2.7-1.4-.7-3.2-1.6-5.5-2.7-7.1-3.2-14.5-2.5-14.6-2.5-.3 0-.5-.2-.5-.5s.2-.5.5-.5 7.8-.6 15.1 2.6c2.4 1.1 4.2 2 5.6 2.7 2.9 1.5 4.5 2.3 7.7 2.6 4.6.3 8.3-3.2 8.4-3.2.2-.2.5-.2.7 0 .2.2.2.5 0 .7-.3.2-3.9 3.5-8.6 3.5z"/></g><g><path class="st9" d="M119.8 134.4h-.3c-2.4-.2-4.1-2.1-5.4-3.9-1.4-1.8-4-2.6-4.1-2.6-.3-.1-.4-.3-.4-.6.1-.3.3-.4.6-.4.1 0 3 .8 4.6 2.9 1.5 2 2.9 3.4 4.7 3.6 1.8.1 2.6-1.5 2.7-1.6.1-.2.4-.3.7-.2.2.1.3.4.2.7 0 0-1 2.1-3.3 2.1z"/></g><g><path class="st9" d="M96.6 157.7c-3.2-.5-4.9-2.4-5-2.5-.2-.2-.2-.5.1-.7.2-.2.5-.2.7 0 0 0 1.5 1.7 4.3 2.2.3 0 .5.3.4.6 0 .2-.2.4-.5.4z"/></g><g><path class="st9" d="M123.9 157.8c-.2 0-.5-.2-.5-.4 0-.3.2-.5.4-.6 2.8-.3 4.8-1.7 4.9-1.7.2-.1.5-.1.7.1.2.2.1.5-.1.7-.2.1-2.4 1.5-5.4 1.9z"/></g></svg>