<svg id="Layer_1" xmlns="http://www.w3.org/2000/svg" viewBox="0 0 216 216"><style>.st0{fill:#fff}.st2{fill:#e1e1e6}.st3{fill:#c8c8cc}.st4{fill:#5ce6e6}.st9{fill:#535a80}.st11{fill:#2bb0cc}</style><path class="st0" d="M149.2 28c0-.1 0 0 0 0zM18.9 47.3h19.5s-6.1-13.6 6.8-15.4c11.5-1.6 16.1 10.3 16.1 10.3s1.4-6.8 8.2-5.5c6.8 1.3 11.8 12.2 11.8 12.2h17"/><path class="st2" d="M98.6 45.7h-17c-.2 0-.4-.1-.4-.3 0-.1-5-9.7-11.4-10.9-6.3-1.2-7.6 4.9-7.6 5.1 0 .2-.2.4-.4.4s-.4-.1-.5-.3c0 0-1.1-2.9-3.6-5.6-3.3-3.5-7.3-5-11.9-4.4-3.4.5-5.7 1.8-6.9 3.9-2.4 4.3.4 10.7.4 10.8.1.2.1.3 0 .5s-.2.2-.4.2H19.2c-.3 0-.5-.2-.5-.5s.2-.5.5-.5H38c-.7-1.9-2.3-7-.1-10.9 1.4-2.4 3.9-3.9 7.6-4.4 9.6-1.3 14.5 6.4 16.1 9.4.8-2 3.1-5.7 8.4-4.7 6.4 1.2 11.1 9.5 12 11.2h16.7c.3 0 .5.2.5.5s-.3.5-.6.5z"/><path class="st0" d="M99.2 49.2H18.9c-.6 0-1-.4-1-1s.4-1 1-1h80.3c.6 0 1 .4 1 1s-.5 1-1 1z"/><path class="st2" d="M178.9 88.2h-60.7c-.6 0-1-.4-1-1s.4-1 1-1h60.7c.6 0 1 .4 1 1s-.5 1-1 1zM75.6 76H43.8c-.6 0-1-.4-1-1s.4-1 1-1h31.8c.6 0 1 .4 1 1s-.4 1-1 1zm-15.5-4.7h-9c-.3 0-.5-.2-.5-.5s.2-.5.5-.5h9c.3 0 .5.2.5.5s-.2.5-.5.5zm22.5 45.5h-64c-.6 0-1-.4-1-1s.4-1 1-1h64c.6 0 1 .4 1 1s-.4 1-1 1zm-10.4-4.5H41.4c-.3 0-.5-.2-.5-.5s.2-.5.5-.5h30.7c.3 0 .5.2.5.5s-.1.5-.4.5zm98.4-29.4h-26.9c-.3 0-.5-.2-.5-.5s.2-.5.5-.5h26.9c.3 0 .5.2.5.5s-.2.5-.5.5zm23.9 9.5h-91.3c-.3 0-.5-.2-.5-.5s.2-.5.5-.5h91.3c.3 0 .5.2.5.5s-.2.5-.5.5z"/><path class="st0" d="M152.5 59.7h10.8s-3.4-7.6 3.8-8.6c6.4-.9 9 5.7 9 5.7s.8-3.8 4.6-3.1c3.8.7 6.5 6.8 6.5 6.8h9.4"/><path class="st2" d="M163.6 58.5h-10.8c-.3 0-.5-.2-.5-.5s.2-.5.5-.5h10.1c-.4-1.2-1.1-3.9.1-6 .8-1.4 2.3-2.3 4.4-2.6 5.1-.7 7.9 3 8.9 4.9.7-1.4 2.1-2.8 4.8-2.3 3.5.7 6.1 4.7 6.7 5.8h9.1c.3 0 .5.2.5.5s-.2.5-.5.5h-9.4c-.2 0-.4-.1-.4-.3 0 0-2.7-4.9-6.2-5.5-3.3-.6-4 2.6-4 2.7 0 .2-.2.4-.4.4s-.4-.1-.5-.3c-.1-.3-2.5-6.2-8.4-5.4-1.8.2-3 .9-3.7 2.1-1.3 2.3.2 5.7.2 5.8.1.2.1.3 0 .5s-.3.2-.5.2z"/><path class="st0" d="M197.3 61.6h-44.6c-.6 0-1-.4-1-1s.4-1 1-1h44.6c.6 0 1 .4 1 1s-.4 1-1 1z"/><path class="st2" d="M73.8 148.4H22.1c-.6 0-1-.4-1-1s.4-1 1-1h51.7c.6 0 1 .4 1 1s-.5 1-1 1zm115.4 0h-56.4c-.6 0-1-.4-1-1s.4-1 1-1h56.4c.6 0 1 .4 1 1s-.4 1-1 1z"/><path class="st4" d="M78.3 133.1c-1 0-1.8-.7-2-1.7L74.2 116c-.2-1.1.6-2.1 1.7-2.3 1.1-.2 2.1.6 2.3 1.7l2.2 15.3c.2 1.1-.6 2.1-1.7 2.3-.2.1-.3.1-.4.1z"/><path class="st4" d="M77.3 126.6c-.2-.4-5-8-6.5-8s-5.5 3.3-5.5 3.8 1.2 2.5 3.8 1.8 2.7-.7 2.7-.7 3.8 7.2 4.7 8.2c.8 1.1 3.9 1.2.8-5.1z"/><path d="M67.9 122.6c-.2 0-.4-.1-.6-.2l-2.5-1.7c-.5-.3-.6-.9-.3-1.4s.9-.6 1.4-.3l2.5 1.7c.5.3.6.9.3 1.4-.1.4-.4.5-.8.5z" fill="#0d96ff"/><path class="st4" d="M76.1 115.3l2.7.7m0 2c-.2 0-.3 0-.5-.1l-2.7-.6c-1.1-.3-1.7-1.3-1.5-2.4.3-1.1 1.3-1.7 2.4-1.5l2.7.6c1.1.3 1.7 1.3 1.5 2.4-.1.9-1 1.6-1.9 1.6zM129.5 133.1h-.2c-1.1-.1-1.9-1.1-1.7-2.2l1.8-14.7c.1-1.1 1.1-1.9 2.2-1.7 1.1.1 1.9 1.1 1.7 2.2l-1.8 14.7c-.1.9-1 1.7-2 1.7z"/><path class="st4" d="M130.3 126.6c.2-.4 5-8 6.5-8s5.5 3.3 5.5 3.8-1.2 2.5-3.8 1.8l-2.7-.7s-3.8 7.2-4.7 8.2-4 1.2-.8-5.1z"/><path class="st4" d="M140.1 123.1c-.5 0-.9-.3-1-.8-.1-.5.3-1.1.8-1.2l2.9-.5c.6-.1 1.1.3 1.2.8.1.5-.3 1.1-.8 1.2l-2.9.5c-.1-.1-.2 0-.2 0z"/><path class="st4" d="M138.5 122.1c-.4 0-.8-.3-.9-.7-.2-.5.1-1.1.6-1.3l3.2-1.2c.5-.2 1.1.1 1.3.6.2.5-.1 1.1-.6 1.3l-3.2 1.2c-.2 0-.3.1-.4.1zm-10.1-3.2c-.9 0-1.7-.6-1.9-1.5-.2-1.1.4-2.2 1.5-2.4l2.7-.6c1.1-.2 2.2.4 2.4 1.5.2 1.1-.4 2.2-1.5 2.4l-2.7.6h-.5z"/><path class="st2" d="M166.5 197.5h-3c-.6 0-1-.4-1-1s.4-1 1-1h2v-2c0-.6.4-1 1-1s1 .4 1 1v3c0 .5-.5 1-1 1zm-8.8 0h-5.8c-.6 0-1-.4-1-1s.4-1 1-1h5.8c.6 0 1 .4 1 1s-.5 1-1 1zm-11.6 0h-5.8c-.6 0-1-.4-1-1s.4-1 1-1h5.8c.6 0 1 .4 1 1s-.5 1-1 1zm-11.6 0h-5.8c-.6 0-1-.4-1-1s.4-1 1-1h5.8c.6 0 1 .4 1 1s-.5 1-1 1zm-11.6 0h-5.8c-.6 0-1-.4-1-1s.4-1 1-1h5.8c.6 0 1 .4 1 1s-.5 1-1 1zm-11.6 0h-5.8c-.6 0-1-.4-1-1s.4-1 1-1h5.8c.6 0 1 .4 1 1s-.5 1-1 1zm-11.6 0h-5.8c-.6 0-1-.4-1-1s.4-1 1-1h5.8c.6 0 1 .4 1 1s-.5 1-1 1zm-11.6 0h-5.8c-.6 0-1-.4-1-1s.4-1 1-1h5.8c.6 0 1 .4 1 1s-.5 1-1 1zm-11.6 0h-5.8c-.6 0-1-.4-1-1s.4-1 1-1h5.8c.6 0 1 .4 1 1s-.5 1-1 1zm-11.6 0h-5.8c-.6 0-1-.4-1-1s.4-1 1-1h5.8c.6 0 1 .4 1 1s-.5 1-1 1zm-11.6 0h-5.8c-.6 0-1-.4-1-1s.4-1 1-1h5.8c.6 0 1 .4 1 1s-.5 1-1 1zm-11.6 0h-3c-.6 0-1-.4-1-1v-3c0-.6.4-1 1-1s1 .4 1 1v2h2c.6 0 1 .4 1 1s-.5 1-1 1zm-3-9c-.6 0-1-.4-1-1v-6c0-.6.4-1 1-1s1 .4 1 1v6c0 .5-.5 1-1 1zm0-11.9c-.6 0-1-.4-1-1v-6c0-.6.4-1 1-1s1 .4 1 1v6c0 .5-.5 1-1 1zm0-12c-.6 0-1-.4-1-1v-6c0-.6.4-1 1-1s1 .4 1 1v6c0 .6-.5 1-1 1zm0-11.9c-.6 0-1-.4-1-1v-6c0-.6.4-1 1-1s1 .4 1 1v6c0 .5-.5 1-1 1zm0-12c-.6 0-1-.4-1-1v-6c0-.6.4-1 1-1s1 .4 1 1v6c0 .6-.5 1-1 1zm0-11.9c-.6 0-1-.4-1-1v-6c0-.6.4-1 1-1s1 .4 1 1v6c0 .6-.5 1-1 1zm0-11.9c-.6 0-1-.4-1-1v-6c0-.6.4-1 1-1s1 .4 1 1v6c0 .5-.5 1-1 1zm0-12c-.6 0-1-.4-1-1v-6c0-.6.4-1 1-1s1 .4 1 1v6c0 .6-.5 1-1 1zm0-11.9c-.6 0-1-.4-1-1v-6c0-.6.4-1 1-1s1 .4 1 1v6c0 .6-.5 1-1 1zm0-11.9c-.6 0-1-.4-1-1v-6c0-.6.4-1 1-1s1 .4 1 1v6c0 .5-.5 1-1 1zm0-12c-.6 0-1-.4-1-1v-6c0-.6.4-1 1-1s1 .4 1 1v6c0 .6-.5 1-1 1zm0-11.9c-.6 0-1-.4-1-1v-6c0-.6.4-1 1-1s1 .4 1 1v6c0 .6-.5 1-1 1zm0-11.9c-.6 0-1-.4-1-1v-6c0-.6.4-1 1-1s1 .4 1 1v6c0 .5-.5 1-1 1zm0-12c-.6 0-1-.4-1-1v-6c0-.6.4-1 1-1s1 .4 1 1v6c0 .6-.5 1-1 1zm0-11.9c-.6 0-1-.4-1-1v-3c0-.6.4-1 1-1h3c.6 0 1 .4 1 1s-.4 1-1 1h-2v2c0 .5-.5 1-1 1zm119-3h-5.8c-.6 0-1-.4-1-1s.4-1 1-1h5.8c.6 0 1 .4 1 1s-.5 1-1 1zm-11.6 0h-5.8c-.6 0-1-.4-1-1s.4-1 1-1h5.8c.6 0 1 .4 1 1s-.5 1-1 1zm-11.6 0h-5.8c-.6 0-1-.4-1-1s.4-1 1-1h5.8c.6 0 1 .4 1 1s-.5 1-1 1zm-11.6 0h-5.8c-.6 0-1-.4-1-1s.4-1 1-1h5.8c.6 0 1 .4 1 1s-.5 1-1 1zm-11.6 0h-5.8c-.6 0-1-.4-1-1s.4-1 1-1h5.8c.6 0 1 .4 1 1s-.5 1-1 1zm-11.6 0h-5.8c-.6 0-1-.4-1-1s.4-1 1-1h5.8c.6 0 1 .4 1 1s-.5 1-1 1zm-11.6 0h-5.8c-.6 0-1-.4-1-1s.4-1 1-1h5.8c.6 0 1 .4 1 1s-.5 1-1 1zm-11.6 0h-5.8c-.6 0-1-.4-1-1s.4-1 1-1h5.8c.6 0 1 .4 1 1s-.5 1-1 1zm-11.6 0h-5.8c-.6 0-1-.4-1-1s.4-1 1-1h5.8c.6 0 1 .4 1 1s-.5 1-1 1zm-11.6 0h-5.8c-.6 0-1-.4-1-1s.4-1 1-1h5.8c.6 0 1 .4 1 1s-.5 1-1 1zm113.2 3c-.6 0-1-.4-1-1v-2h-2c-.6 0-1-.4-1-1s.4-1 1-1h3c.6 0 1 .4 1 1v3c0 .5-.5 1-1 1zm0 167.1c-.6 0-1-.4-1-1v-6c0-.6.4-1 1-1s1 .4 1 1v6c0 .5-.5 1-1 1zm0-11.9c-.6 0-1-.4-1-1v-6c0-.6.4-1 1-1s1 .4 1 1v6c0 .5-.5 1-1 1zm0-12c-.6 0-1-.4-1-1v-6c0-.6.4-1 1-1s1 .4 1 1v6c0 .6-.5 1-1 1zm0-11.9c-.6 0-1-.4-1-1v-6c0-.6.4-1 1-1s1 .4 1 1v6c0 .5-.5 1-1 1zm0-12c-.6 0-1-.4-1-1v-6c0-.6.4-1 1-1s1 .4 1 1v6c0 .6-.5 1-1 1zm0-11.9c-.6 0-1-.4-1-1v-6c0-.6.4-1 1-1s1 .4 1 1v6c0 .6-.5 1-1 1zm0-11.9c-.6 0-1-.4-1-1v-6c0-.6.4-1 1-1s1 .4 1 1v6c0 .5-.5 1-1 1zm0-12c-.6 0-1-.4-1-1v-6c0-.6.4-1 1-1s1 .4 1 1v6c0 .6-.5 1-1 1zm0-11.9c-.6 0-1-.4-1-1v-6c0-.6.4-1 1-1s1 .4 1 1v6c0 .6-.5 1-1 1zm0-11.9c-.6 0-1-.4-1-1v-6c0-.6.4-1 1-1s1 .4 1 1v6c0 .5-.5 1-1 1zm0-12c-.6 0-1-.4-1-1v-6c0-.6.4-1 1-1s1 .4 1 1v6c0 .6-.5 1-1 1zm0-11.9c-.6 0-1-.4-1-1v-6c0-.6.4-1 1-1s1 .4 1 1v6c0 .6-.5 1-1 1zm0-11.9c-.6 0-1-.4-1-1v-6c0-.6.4-1 1-1s1 .4 1 1v6c0 .5-.5 1-1 1zm0-12c-.6 0-1-.4-1-1v-6c0-.6.4-1 1-1s1 .4 1 1v6c0 .6-.5 1-1 1z"/><path class="st4" d="M89.3 102.9c-1.5 0-3.1-.6-4.2-1.8l-9.3-9.3c-2.3-2.3-2.3-6.1 0-8.5 2.3-2.3 6.1-2.3 8.5 0l9.3 9.3c2.3 2.3 2.3 6.1 0 8.5-1.2 1.2-2.8 1.8-4.3 1.8zm28.3.3c-1.5 0-3.1-.6-4.2-1.8-2.3-2.3-2.3-6.1 0-8.5l9.3-9.3c2.3-2.3 6.1-2.3 8.5 0 2.3 2.3 2.3 6.1 0 8.5l-9.3 9.3c-1.2 1.2-2.8 1.8-4.3 1.8z"/><ellipse cx="104.4" cy="163.5" rx="29" ry="4.4" fill="#ededf2"/><path class="st4" d="M79.6 90.6c-3 1.9-2.4 58 4.1 62.3 4.5 3 36 4 40.8-.7 1.4-1.4 8.2-35.7 4.8-60-.9-6.3-38.8-8.6-49.7-1.6z"/><path class="st4" d="M80.6 137.9s1 12.2 3 17.9 4.3 8.5 5.3 7.7c1-.8 0-18.7 0-18.7l-8.3-6.9zm46.4 0s-1 12.2-3 17.9-4.3 8.5-5.3 7.7c-1-.8 0-18.7 0-18.7l8.3-6.9zM83.7 86.1s12.5-3.8 16-4.2 11-4.2 11-4.2l-1.8 4 4.2-1.2v2.2l10.2 2.8-2.2 3H87.9l-4.2-2.4z"/><path d="M85.6 90.3c-7.2 4.8-2.7 49.9 1.9 55.5 7.5 9.2 30.4 8.5 34.8-1.8.7-1.7 7.6-34 2.4-51.8-1.7-5.7-21.8-13.4-39.1-1.9z" fill="#9ff"/><path class="st9" d="M88.7 96c.6 0 1.1.5 1.1 1.1v2.4c0 .6-.5 1.1-1.1 1.1-.6 0-1.1-.5-1.1-1.1v-2.4c0-.6.5-1.1 1.1-1.1zm26.9 0c.6 0 1.1.5 1.1 1.1v2.4c0 .6-.5 1.1-1.1 1.1-.6 0-1.1-.5-1.1-1.1v-2.4c0-.6.5-1.1 1.1-1.1z"/><path d="M88.7 105.6c-2.5 0-3.7-1.9-3.8-2-.3-.5-.2-1.1.3-1.4.5-.3 1.1-.2 1.4.3 0 .1.7 1.1 2.1 1.1 1.4 0 2.1-1 2.1-1 .3-.5.9-.6 1.4-.3.5.3.6.9.3 1.4-.1 0-1.3 1.9-3.8 1.9zm26.9 0c-2.5 0-3.7-1.9-3.8-2-.3-.5-.2-1.1.3-1.4.5-.3 1.1-.2 1.4.3 0 .1.7 1.1 2.1 1.1 1.4 0 2.1-1 2.1-1 .3-.5.9-.6 1.4-.3.5.3.6.9.3 1.4-.1 0-1.4 1.9-3.8 1.9zm-12.4 5.1c-.4 0-.8-.3-1-.7-.2-.5.1-1.1.7-1.2.1 0 1.8-.6 2.2-2.3.3-1.3-.1-2.9-.1-2.9-.1-.5.2-1 .6-1.2.5-.2 1 .1 1.2.5.4.8 1.1 2.1 1.6 2.4 1 .6 1.8.3 1.8.3.5-.2 1.1 0 1.3.6.2.5 0 1.1-.6 1.3-.6.3-2.1.4-3.6-.5-.1-.1-.3-.2-.4-.3 0 .1 0 .2-.1.2-.7 2.9-3.4 3.7-3.6 3.7.2.1.1.1 0 .1z" fill="#57d9d9"/><path class="st9" d="M101.3 102.6c-.6.7 4.1 1.8 4.7 1.7.9-.2 4.8-3.1 4.2-4.5-.2-.7-6.4.2-8.9 2.8z"/><path class="st9" d="M106 105.3c-1.2 0-4.9-.8-5.6-1.9-.3-.5-.2-1 .2-1.4 2.3-2.5 7.7-3.7 9.5-3.3.7.1 1 .5 1.1.8.2.6.1 1.2-.3 1.9-.9 1.6-3.7 3.7-4.7 3.9h-.2zm-3.1-2.7c1 .3 2.6.7 3 .7.6-.2 2.6-1.8 3.2-2.7-1.4 0-4.4.7-6.2 2z"/><path class="st4" d="M127.7 113.8s-.5 4-3 6.2 3.2 5.5 3 10.5c-.3 5.1 0-16.7 0-16.7zm-47.1-2.2s.5 4 3 6.2-3.2 5.5-3 10.5c.2 5 0-16.7 0-16.7z"/><path class="st11" d="M110.7 77.8l-1.7 4 4.2-1.2v2.2l8.4 2.2 1.2-1.2c1.2-1.2 2.7-1.8 4.2-1.8s3.1.6 4.2 1.8c2.3 2.3 2.3 6.1 0 8.5l-1.7 1.7c.8 6.5.9 13.7.6 20.7l.5-.1c.1 0 .3-.1.4-.1.3 0 .5.1.8.2.9.3 1.5 1.2 1.4 2.1l-.8 6.6c1.5-2.2 3.4-4.6 4.3-4.6.6 0 1.5.5 2.5 1.1l2.1-.8c.1 0 .2-.1.3-.1.4 0 .8.2.9.7.2.4 0 .9-.3 1.1l.6-.1h.2c.5 0 .9.3 1 .8.1.5-.3 1.1-.8 1.2l-.9.2c-.2.6-1.1 1.7-2.7 1.7-.3 0-.7 0-1-.1l-2.7-.7s-3 5.5-4.2 7.5v.2c-.1 1-1 1.8-2 1.8h-.2c-.3 0-.6-.1-.8-.3-.9 6.6-1.9 12.1-2.7 15.6-.5 2.7-1 5.4-1.7 7.4-1.8 5-3.8 7.9-4.9 7.9-.1 0-.3 0-.4-.1-.5-.4-.5-4.7-.4-9.1-3.8.7-8.8 1-13.7 1-5.6 0-11.1-.4-15.2-1 .1 4.4.1 8.7-.4 9.1-.1.1-.2.1-.4.1-1.1 0-3.2-2.8-4.9-7.9-.4-1.3-.8-2.8-1.2-4.5-1.7-3.2-2.8-10.1-3.6-18.2-.1 0-.2 0-.2.1h-.3c-.9 0-1.6-.5-1.9-1.3-.9-1-4.6-8.1-4.6-8.1l-2.7.7c-.4.1-.7.1-1 .1-1.2 0-1.9-.6-2.4-1.1l-2.4-.6c-.5-.1-.9-.7-.7-1.2.1-.5.5-.8 1-.8h.3l1.7.4-.6-.4c-.5-.3-.6-.9-.3-1.4.2-.3.5-.4.8-.4.2 0 .4.1.6.2l1.6 1.1c1.1-.9 2.4-1.6 3.2-1.6.9 0 2.9 2.6 4.4 4.8l-1-7.4v-1.1c.2-.9 1-1.5 1.9-1.5.1 0 .3 0 .5.1l1.2.3c-.1-7.8.1-14.9.6-19.1L75.8 92c-2.3-2.3-2.3-6.1 0-8.5 1.2-1.2 2.7-1.8 4.2-1.8s3.1.6 4.2 1.8l2 2c3.8-1.1 11-3.1 13.5-3.5 3.5-.5 11-4.2 11-4.2m0-1c-.2 0-.3 0-.4.1-.1 0-7.4 3.7-10.7 4.1-2.4.3-9 2.2-13 3.4L85 82.8c-1.3-1.3-3.1-2-4.9-2-1.9 0-3.6.7-4.9 2-2.7 2.7-2.7 7.2 0 9.9l2.4 2.4c-.5 4-.7 10.3-.6 17.5-.2-.1-.5-.1-.7-.1-1.4 0-2.6 1-2.9 2.3-.1.3-.1.5-.1.8v.7l.5 3.5c-1.8-2.1-2.5-2.1-2.9-2.1-.8 0-1.8.5-3.2 1.4l-1-.7c-.3-.2-.7-.3-1.1-.3-.7 0-1.3.3-1.7.9-.2.3-.3.6-.3.9-.9 0-1.6.6-1.9 1.5-.3 1.1.4 2.2 1.4 2.4l2.1.5c.5.5 1.5 1.2 2.9 1.2.4 0 .8-.1 1.3-.2l1.9-.5c1 1.8 3.4 6.3 4.3 7.5.4 1 1.3 1.7 2.4 1.8.6 6.2 1.7 13.8 3.5 17.5.4 1.8.8 3.3 1.2 4.5.7 2 3.2 8.5 5.9 8.5.4 0 .7-.1 1-.4.5-.4.9-.8.8-8.7 4 .5 9.1.8 14.2.8 3.5 0 8.4-.1 12.7-.8-.2 7.9.3 8.3.8 8.6.3.2.6.4 1 .4 2.7 0 5.2-6.5 5.9-8.5.6-1.8 1.2-4.3 1.7-7.5.9-3.8 1.8-9 2.6-14.5h.2c1.5 0 2.8-1.1 3-2.6 1.1-1.7 3-5.2 3.8-6.7l1.9.5c.4.1.9.2 1.3.2 1.6 0 2.8-.9 3.4-1.8l.5-.1c.5-.1 1-.4 1.3-.8.3-.4.4-1 .3-1.5-.1-.7-.6-1.3-1.3-1.6 0-.2-.1-.3-.1-.5-.3-.8-1-1.3-1.9-1.3-.2 0-.5 0-.7.1l-1.6.6c-1.6-1-2.3-1-2.6-1-.4 0-1.1 0-2.9 2.1l.4-2.9c.2-1.4-.7-2.7-2-3.2-.3-.1-.7-.2-1.1-.2.3-7.1.1-13.5-.6-19.1l1.3-1.3c1.3-1.3 2-3.1 2-4.9 0-1.9-.7-3.6-2-4.9-1.3-1.3-3.1-2-4.9-2-1.9 0-3.6.7-4.9 2l-.7.7-7.1-1.9v-1.5c0-.3-.1-.6-.4-.8-.2-.1-.4-.2-.6-.2h-.3l-2.2.6.9-2c.2-.4.1-.8-.2-1.1-.3 0-.5-.1-.8-.1zm0 2z"/><g><path class="st3" d="M42.7 96c4.7-4.7 12.4-4.7 17.1 0 4.3 4.3 4.7 11.1 1.1 15.9l1.9 1.9-2.4 2.4-1.9-1.9c-4.7 3.6-11.5 3.2-15.9-1.1-4.6-4.8-4.6-12.5.1-17.2z" id="Layer_2_1_"/><defs><circle id="XMLID_38_" cx="51.3" cy="104.6" r="9.9"/></defs><use href="#XMLID_38_" overflow="visible" fill="#f5f5f7"/><clipPath id="XMLID_2_"><use href="#XMLID_38_" overflow="visible"/></clipPath><path class="st3" d="M51.9 95.9c-5.5 0-9.9 4.4-9.9 9.9 0 1.5.3 2.9.9 4.2-1-1.5-1.6-3.4-1.6-5.3 0-5.5 4.4-9.9 9.9-9.9 3.9 0 7.3 2.3 8.9 5.7-1.7-2.8-4.7-4.6-8.2-4.6z" id="Layer_4_1_" opacity=".5"/><path d="M72.8 126.1c1.1-1.1 1.6-2.6 1-3.2l-10.5-9.7c-.6-.6-1.6-.6-2.7.5s-1.1 2.1-.5 2.7l9.7 10.5c.4.8 1.8.3 3-.8z" fill="#737eb3" id="Layer_5_1_"/><path class="st9" d="M71.6 121l-3.9 3.9-4.8-5.2 3.5-3.5z" id="Layer_6_1_"/></g><path class="st4" d="M66.1 118.7s-4.3 1-4.2 2.3c.2 1.3 2.6 5.4 4.2 4.7 1.6-.8 4.1-6.3 0-7z"/><g><path class="st11" d="M81.6 89.7h-.1c-.3-.1-.4-.3-.3-.6 0-.1 1-3.4 5.6-4.7.3-.1.5.1.6.3.1.3-.1.5-.3.6-4 1.2-4.9 3.9-4.9 4-.2.3-.4.4-.6.4z"/></g><g><path class="st11" d="M127.1 89.6c-.2 0-.3-.1-.4-.3-2.1-3.8-5.6-4.5-5.6-4.5-.3 0-.5-.3-.4-.6 0-.3.3-.5.6-.4.2 0 4 .7 6.4 5 .1.2 0 .5-.2.7-.2.1-.3.1-.4.1z"/></g><g><path class="st11" d="M90.9 155.9c-.1 0-.1 0 0 0-2.7-.3-5.3-2.4-5.4-2.5-.2-.2-.2-.5-.1-.7.2-.2.5-.2.7-.1 0 0 2.5 2 4.9 2.3.3 0 .5.3.4.5-.1.3-.3.5-.5.5z"/></g><g><path class="st11" d="M117.7 155.7c-.2 0-.4-.2-.5-.4-.1-.3.1-.5.4-.6 1.7-.4 4.5-1.6 4.5-1.6.3-.1.5 0 .7.3.1.3 0 .5-.3.7-.1.1-2.9 1.3-4.7 1.7 0-.1 0-.1-.1-.1z"/></g><g><path class="st11" d="M128.9 134.1c-.4 0-.8-.2-1-.5-1.2-1.6-.1-7.1.6-10.1l-.5.5c-.2.2-.5.2-.7 0-.2-.2-.2-.5 0-.7l1.8-1.6c.2-.2.4-.2.6-.1.2.1.3.3.2.6-1 3.6-2.1 9.7-1.2 10.9.1.1.1.1.2.1.3 0 .5.2.5.5s-.3.4-.5.4z"/></g><g><path class="st11" d="M78.6 134.2c-.3 0-.5-.2-.5-.5s.2-.5.5-.5c.1 0 .2 0 .3-.2 1.1-1.5.1-8.9-.8-13.2 0-.2.1-.4.3-.5.2-.1.4-.1.6.1l1.4 1.4c.2.2.2.5 0 .7s-.5.2-.7 0l-.2-.2c.6 3.3 1.7 10.6.2 12.4-.3.3-.7.5-1.1.5z"/></g><g><path class="st11" d="M65.5 126.3c-.4 0-.8-.1-1.3-.4-1.7-1.1-3.3-3.1-3-4.8.1-.7.6-1.6 2.3-2.1.3-.1.5.1.6.4.1.3-.1.5-.4.6-.9.2-1.5.7-1.6 1.3-.2 1.1.9 2.7 2.6 3.8.4.3.8.3 1.1.2 1.1-.4 1.8-2.6 2-3.4.1-.3.3-.4.6-.4.3.1.4.3.4.6-.1.3-.9 3.4-2.6 4.1-.1.1-.4.1-.7.1z"/></g></svg>