<?xml version="1.0" encoding="utf-8"?>
<!-- Generator: Adobe Illustrator 20.0.0, SVG Export Plug-In . SVG Version: 6.00 Build 0)  -->
<!DOCTYPE svg PUBLIC "-//W3C//DTD SVG 1.1//EN" "http://www.w3.org/Graphics/SVG/1.1/DTD/svg11.dtd">
<svg version="1.1" id="Layer_1" xmlns="http://www.w3.org/2000/svg" x="0px" y="0px"
	 viewBox="0 0 216 216" style="enable-background:new 0 0 216 216;" xml:space="preserve">
<style type="text/css">
	.st0{fill:#FFFFFF;}
	.st1{fill:none;stroke:#E1E1E6;stroke-width:2;stroke-linecap:round;stroke-linejoin:round;stroke-miterlimit:10;}
	.st2{fill:#E1E1E6;}
	.st3{fill:#C8C8CC;}
	.st4{fill:#5CE6E6;}
	.st5{fill:#EDEDF2;}
	.st6{fill:#99FFFF;}
	.st7{fill:#363959;stroke:#70C7DD;stroke-width:11;stroke-linecap:round;stroke-linejoin:round;stroke-miterlimit:10;}
	.st8{fill:#535A80;}
	.st9{fill:#57D9D9;}
	.st10{fill:#2BB0CC;}
	.st11{fill:#FFAA00;}
	.st12{clip-path:url(#XMLID_2_);fill:#FF66ED;}
	.st13{fill:#FF66ED;}
</style>
<g>
	<path class="st0" d="M152.7,29.1L152.7,29.1C152.7,29.1,152.7,29.1,152.7,29.1z"/>
	<g>
		<path class="st1" d="M48.2,146"/>
	</g>
	<g>
		<path class="st1" d="M15.5,146"/>
	</g>
	<g>
		<path class="st1" d="M112.2,146"/>
	</g>
	<g>
		<path class="st0" d="M22.3,48.5h19.5c0,0-6.1-13.6,6.8-15.4c11.5-1.6,16.1,10.3,16.1,10.3s1.4-6.8,8.2-5.5
			C79.8,39.1,84.8,50,84.8,50h17"/>
		<g>
			<path class="st2" d="M102.1,46.8h-17c-0.2,0-0.4-0.1-0.4-0.3c0-0.1-5-9.7-11.4-10.9c-6.3-1.2-7.6,4.9-7.6,5.1
				c0,0.2-0.2,0.4-0.4,0.4c-0.2,0-0.4-0.1-0.5-0.3c0,0-1.1-2.9-3.6-5.6c-3.3-3.5-7.3-5-11.9-4.4c-3.4,0.5-5.7,1.8-6.9,3.9
				c-2.4,4.3,0.4,10.7,0.4,10.8c0.1,0.2,0.1,0.3,0,0.5c-0.1,0.1-0.2,0.2-0.4,0.2H22.7c-0.3,0-0.5-0.2-0.5-0.5s0.2-0.5,0.5-0.5h18.7
				c-0.7-1.9-2.3-7-0.1-10.9c1.4-2.4,3.9-3.9,7.6-4.4c9.6-1.3,14.5,6.4,16.1,9.4c0.8-2,3.1-5.7,8.4-4.7c6.4,1.2,11.1,9.5,12,11.2
				h16.7c0.3,0,0.5,0.2,0.5,0.5S102.3,46.8,102.1,46.8z"/>
		</g>
		<g>
			<path class="st0" d="M102.6,50.4H22.3c-0.6,0-1-0.4-1-1s0.4-1,1-1h80.3c0.6,0,1,0.4,1,1S103.2,50.4,102.6,50.4z"/>
		</g>
	</g>
	<g>
		<g>
			<path class="st2" d="M182.3,89.3h-60.7c-0.6,0-1-0.4-1-1s0.4-1,1-1h60.7c0.6,0,1,0.4,1,1S182.8,89.3,182.3,89.3z"/>
		</g>
		<g>
			<path class="st2" d="M79.1,77.1H47.3c-0.6,0-1-0.4-1-1s0.4-1,1-1h31.8c0.6,0,1,0.4,1,1S79.6,77.1,79.1,77.1z"/>
		</g>
		<g>
			<path class="st2" d="M63.6,72.4h-9c-0.3,0-0.5-0.2-0.5-0.5s0.2-0.5,0.5-0.5h9c0.3,0,0.5,0.2,0.5,0.5S63.9,72.4,63.6,72.4z"/>
		</g>
		<g>
			<path class="st2" d="M86.1,117.9H22c-0.6,0-1-0.4-1-1s0.4-1,1-1h64c0.6,0,1,0.4,1,1S86.6,117.9,86.1,117.9z"/>
		</g>
		<g>
			<path class="st2" d="M75.6,113.4H44.9c-0.3,0-0.5-0.2-0.5-0.5s0.2-0.5,0.5-0.5h30.7c0.3,0,0.5,0.2,0.5,0.5S75.9,113.4,75.6,113.4
				z"/>
		</g>
		<g>
			<path class="st2" d="M174.1,84.1h-26.9c-0.3,0-0.5-0.2-0.5-0.5s0.2-0.5,0.5-0.5h26.9c0.3,0,0.5,0.2,0.5,0.5
				S174.3,84.1,174.1,84.1z"/>
		</g>
		<g>
			<path class="st2" d="M198,93.5h-91.3c-0.3,0-0.5-0.2-0.5-0.5s0.2-0.5,0.5-0.5H198c0.3,0,0.5,0.2,0.5,0.5S198.2,93.5,198,93.5z"/>
		</g>
	</g>
	<g>
		<path class="st0" d="M155.9,60.8h10.8c0,0-3.4-7.6,3.8-8.6c6.4-0.9,9,5.7,9,5.7s0.8-3.8,4.6-3.1c3.8,0.7,6.5,6.8,6.5,6.8h9.4"/>
		<g>
			<path class="st2" d="M167.1,59.7h-10.8c-0.3,0-0.5-0.2-0.5-0.5s0.2-0.5,0.5-0.5h10.1c-0.4-1.2-1.1-3.9,0.1-6
				c0.8-1.4,2.3-2.3,4.4-2.6c5.1-0.7,7.9,3,8.9,4.9c0.7-1.4,2.1-2.8,4.7-2.3c3.5,0.7,6.1,4.7,6.7,5.8h9.1c0.3,0,0.5,0.2,0.5,0.5
				s-0.2,0.5-0.5,0.5h-9.4c-0.2,0-0.4-0.1-0.4-0.3c0,0-2.7-4.9-6.2-5.5c-3.3-0.6-4,2.5-4,2.7c0,0.2-0.2,0.4-0.4,0.4
				c-0.2,0-0.4-0.1-0.5-0.3c-0.1-0.3-2.5-6.2-8.4-5.4c-1.8,0.2-3,0.9-3.7,2.1c-1.3,2.3,0.2,5.7,0.2,5.8c0.1,0.2,0.1,0.3,0,0.5
				C167.4,59.6,167.2,59.7,167.1,59.7z"/>
		</g>
		<g>
			<path class="st0" d="M200.7,62.7h-44.6c-0.6,0-1-0.4-1-1s0.4-1,1-1h44.6c0.6,0,1,0.4,1,1S201.3,62.7,200.7,62.7z"/>
		</g>
	</g>
	<path class="st3" d="M116,105.7"/>
	<g>
		<path class="st2" d="M77.2,149.5H25.5c-0.6,0-1-0.4-1-1s0.4-1,1-1h51.7c0.6,0,1,0.4,1,1S77.7,149.5,77.2,149.5z"/>
	</g>
	<g>
		<path class="st2" d="M192.7,149.5h-56.4c-0.6,0-1-0.4-1-1s0.4-1,1-1h56.4c0.6,0,1,0.4,1,1S193.2,149.5,192.7,149.5z"/>
	</g>
	<g>
		<g>
			<path class="st2" d="M169.9,198.6h-3c-0.6,0-1-0.4-1-1s0.4-1,1-1h2v-2c0-0.6,0.4-1,1-1s1,0.4,1,1v3
				C170.9,198.1,170.5,198.6,169.9,198.6z"/>
		</g>
		<g>
			<path class="st2" d="M161.1,198.6h-5.8c-0.6,0-1-0.4-1-1s0.4-1,1-1h5.8c0.6,0,1,0.4,1,1S161.7,198.6,161.1,198.6z M149.5,198.6
				h-5.8c-0.6,0-1-0.4-1-1s0.4-1,1-1h5.8c0.6,0,1,0.4,1,1S150.1,198.6,149.5,198.6z M137.9,198.6h-5.8c-0.6,0-1-0.4-1-1s0.4-1,1-1
				h5.8c0.6,0,1,0.4,1,1S138.5,198.6,137.9,198.6z M126.3,198.6h-5.8c-0.6,0-1-0.4-1-1s0.4-1,1-1h5.8c0.6,0,1,0.4,1,1
				S126.9,198.6,126.3,198.6z M114.7,198.6h-5.8c-0.6,0-1-0.4-1-1s0.4-1,1-1h5.8c0.6,0,1,0.4,1,1S115.3,198.6,114.7,198.6z
				 M103.1,198.6h-5.8c-0.6,0-1-0.4-1-1s0.4-1,1-1h5.8c0.6,0,1,0.4,1,1S103.7,198.6,103.1,198.6z M91.5,198.6h-5.8c-0.6,0-1-0.4-1-1
				s0.4-1,1-1h5.8c0.6,0,1,0.4,1,1S92.1,198.6,91.5,198.6z M79.9,198.6h-5.8c-0.6,0-1-0.4-1-1s0.4-1,1-1h5.8c0.6,0,1,0.4,1,1
				S80.5,198.6,79.9,198.6z M68.3,198.6h-5.8c-0.6,0-1-0.4-1-1s0.4-1,1-1h5.8c0.6,0,1,0.4,1,1S68.9,198.6,68.3,198.6z M56.7,198.6
				h-5.8c-0.6,0-1-0.4-1-1s0.4-1,1-1h5.8c0.6,0,1,0.4,1,1S57.3,198.6,56.7,198.6z"/>
		</g>
		<g>
			<path class="st2" d="M45.1,198.6h-3c-0.6,0-1-0.4-1-1v-3c0-0.6,0.4-1,1-1s1,0.4,1,1v2h2c0.6,0,1,0.4,1,1S45.7,198.6,45.1,198.6z"
				/>
		</g>
		<g>
			<path class="st2" d="M42.1,189.6c-0.6,0-1-0.4-1-1v-6c0-0.6,0.4-1,1-1s1,0.4,1,1v6C43.1,189.2,42.7,189.6,42.1,189.6z
				 M42.1,177.7c-0.6,0-1-0.4-1-1v-6c0-0.6,0.4-1,1-1s1,0.4,1,1v6C43.1,177.2,42.7,177.7,42.1,177.7z M42.1,165.7c-0.6,0-1-0.4-1-1
				v-6c0-0.6,0.4-1,1-1s1,0.4,1,1v6C43.1,165.3,42.7,165.7,42.1,165.7z M42.1,153.8c-0.6,0-1-0.4-1-1v-6c0-0.6,0.4-1,1-1s1,0.4,1,1
				v6C43.1,153.3,42.7,153.8,42.1,153.8z M42.1,141.9c-0.6,0-1-0.4-1-1v-6c0-0.6,0.4-1,1-1s1,0.4,1,1v6
				C43.1,141.4,42.7,141.9,42.1,141.9z M42.1,129.9c-0.6,0-1-0.4-1-1v-6c0-0.6,0.4-1,1-1s1,0.4,1,1v6
				C43.1,129.5,42.7,129.9,42.1,129.9z M42.1,118c-0.6,0-1-0.4-1-1v-6c0-0.6,0.4-1,1-1s1,0.4,1,1v6C43.1,117.5,42.7,118,42.1,118z
				 M42.1,106.1c-0.6,0-1-0.4-1-1v-6c0-0.6,0.4-1,1-1s1,0.4,1,1v6C43.1,105.6,42.7,106.1,42.1,106.1z M42.1,94.1c-0.6,0-1-0.4-1-1
				v-6c0-0.6,0.4-1,1-1s1,0.4,1,1v6C43.1,93.7,42.7,94.1,42.1,94.1z M42.1,82.2c-0.6,0-1-0.4-1-1v-6c0-0.6,0.4-1,1-1s1,0.4,1,1v6
				C43.1,81.7,42.7,82.2,42.1,82.2z M42.1,70.2c-0.6,0-1-0.4-1-1v-6c0-0.6,0.4-1,1-1s1,0.4,1,1v6C43.1,69.8,42.7,70.2,42.1,70.2z
				 M42.1,58.3c-0.6,0-1-0.4-1-1v-6c0-0.6,0.4-1,1-1s1,0.4,1,1v6C43.1,57.9,42.7,58.3,42.1,58.3z M42.1,46.4c-0.6,0-1-0.4-1-1v-6
				c0-0.6,0.4-1,1-1s1,0.4,1,1v6C43.1,45.9,42.7,46.4,42.1,46.4z M42.1,34.4c-0.6,0-1-0.4-1-1v-6c0-0.6,0.4-1,1-1s1,0.4,1,1v6
				C43.1,34,42.7,34.4,42.1,34.4z"/>
		</g>
		<g>
			<path class="st2" d="M42.1,22.5c-0.6,0-1-0.4-1-1v-3c0-0.6,0.4-1,1-1h3c0.6,0,1,0.4,1,1s-0.4,1-1,1h-2v2
				C43.1,22.1,42.7,22.5,42.1,22.5z"/>
		</g>
		<g>
			<path class="st2" d="M161.1,19.5h-5.8c-0.6,0-1-0.4-1-1s0.4-1,1-1h5.8c0.6,0,1,0.4,1,1S161.7,19.5,161.1,19.5z M149.5,19.5h-5.8
				c-0.6,0-1-0.4-1-1s0.4-1,1-1h5.8c0.6,0,1,0.4,1,1S150.1,19.5,149.5,19.5z M137.9,19.5h-5.8c-0.6,0-1-0.4-1-1s0.4-1,1-1h5.8
				c0.6,0,1,0.4,1,1S138.5,19.5,137.9,19.5z M126.3,19.5h-5.8c-0.6,0-1-0.4-1-1s0.4-1,1-1h5.8c0.6,0,1,0.4,1,1
				S126.9,19.5,126.3,19.5z M114.7,19.5h-5.8c-0.6,0-1-0.4-1-1s0.4-1,1-1h5.8c0.6,0,1,0.4,1,1S115.3,19.5,114.7,19.5z M103.1,19.5
				h-5.8c-0.6,0-1-0.4-1-1s0.4-1,1-1h5.8c0.6,0,1,0.4,1,1S103.7,19.5,103.1,19.5z M91.5,19.5h-5.8c-0.6,0-1-0.4-1-1s0.4-1,1-1h5.8
				c0.6,0,1,0.4,1,1S92.1,19.5,91.5,19.5z M79.9,19.5h-5.8c-0.6,0-1-0.4-1-1s0.4-1,1-1h5.8c0.6,0,1,0.4,1,1S80.5,19.5,79.9,19.5z
				 M68.3,19.5h-5.8c-0.6,0-1-0.4-1-1s0.4-1,1-1h5.8c0.6,0,1,0.4,1,1S68.9,19.5,68.3,19.5z M56.7,19.5h-5.8c-0.6,0-1-0.4-1-1
				s0.4-1,1-1h5.8c0.6,0,1,0.4,1,1S57.3,19.5,56.7,19.5z"/>
		</g>
		<g>
			<path class="st2" d="M169.9,22.5c-0.6,0-1-0.4-1-1v-2h-2c-0.6,0-1-0.4-1-1s0.4-1,1-1h3c0.6,0,1,0.4,1,1v3
				C170.9,22.1,170.5,22.5,169.9,22.5z"/>
		</g>
		<g>
			<path class="st2" d="M169.9,189.6c-0.6,0-1-0.4-1-1v-6c0-0.6,0.4-1,1-1s1,0.4,1,1v6C170.9,189.2,170.5,189.6,169.9,189.6z
				 M169.9,177.7c-0.6,0-1-0.4-1-1v-6c0-0.6,0.4-1,1-1s1,0.4,1,1v6C170.9,177.2,170.5,177.7,169.9,177.7z M169.9,165.7
				c-0.6,0-1-0.4-1-1v-6c0-0.6,0.4-1,1-1s1,0.4,1,1v6C170.9,165.3,170.5,165.7,169.9,165.7z M169.9,153.8c-0.6,0-1-0.4-1-1v-6
				c0-0.6,0.4-1,1-1s1,0.4,1,1v6C170.9,153.3,170.5,153.8,169.9,153.8z M169.9,141.9c-0.6,0-1-0.4-1-1v-6c0-0.6,0.4-1,1-1s1,0.4,1,1
				v6C170.9,141.4,170.5,141.9,169.9,141.9z M169.9,129.9c-0.6,0-1-0.4-1-1v-6c0-0.6,0.4-1,1-1s1,0.4,1,1v6
				C170.9,129.5,170.5,129.9,169.9,129.9z M169.9,118c-0.6,0-1-0.4-1-1v-6c0-0.6,0.4-1,1-1s1,0.4,1,1v6
				C170.9,117.5,170.5,118,169.9,118z M169.9,106.1c-0.6,0-1-0.4-1-1v-6c0-0.6,0.4-1,1-1s1,0.4,1,1v6
				C170.9,105.6,170.5,106.1,169.9,106.1z M169.9,94.1c-0.6,0-1-0.4-1-1v-6c0-0.6,0.4-1,1-1s1,0.4,1,1v6
				C170.9,93.7,170.5,94.1,169.9,94.1z M169.9,82.2c-0.6,0-1-0.4-1-1v-6c0-0.6,0.4-1,1-1s1,0.4,1,1v6
				C170.9,81.7,170.5,82.2,169.9,82.2z M169.9,70.2c-0.6,0-1-0.4-1-1v-6c0-0.6,0.4-1,1-1s1,0.4,1,1v6
				C170.9,69.8,170.5,70.2,169.9,70.2z M169.9,58.3c-0.6,0-1-0.4-1-1v-6c0-0.6,0.4-1,1-1s1,0.4,1,1v6
				C170.9,57.9,170.5,58.3,169.9,58.3z M169.9,46.4c-0.6,0-1-0.4-1-1v-6c0-0.6,0.4-1,1-1s1,0.4,1,1v6
				C170.9,45.9,170.5,46.4,169.9,46.4z M169.9,34.4c-0.6,0-1-0.4-1-1v-6c0-0.6,0.4-1,1-1s1,0.4,1,1v6
				C170.9,34,170.5,34.4,169.9,34.4z"/>
		</g>
	</g>
</g>
<g>
	<path class="st4" d="M116.2,99.3c-0.8,0-1.5-0.1-2.3-0.4l-11-4.5c-3.1-1.3-4.5-4.8-3.3-7.8c1.3-3.1,4.8-4.5,7.8-3.3l11,4.5
		c3.1,1.3,4.5,4.8,3.3,7.8C120.8,97.9,118.5,99.3,116.2,99.3z"/>
</g>
<ellipse class="st5" cx="124.8" cy="164.6" rx="29" ry="4.4"/>
<g>
	<path class="st4" d="M139.4,98.5c-2,0-4-1-5.1-2.8l-7-11.2c-1.8-2.8-0.9-6.5,1.9-8.3c2.8-1.8,6.5-0.9,8.3,1.9l7,11.2
		c1.8,2.8,0.9,6.5-1.9,8.3C141.6,98.2,140.5,98.5,139.4,98.5z"/>
</g>
<path class="st4" d="M110.7,84.9c-1.5,0.6-8.7,7.1-7.5,25.3c1.2,17.8-14.7,14.9-2.6,36.4c2.6,4.7,34.2,12.1,39.9,8.6
	c1.7-1,21.5-37.1,13-61.1C150.7,86.2,134.1,74.9,110.7,84.9z"/>
<path class="st4" d="M100.9,131.3c0,0-1.8,12.1-1.1,18.1s2.3,9.3,3.4,8.7c1.2-0.6,4.3-18.2,4.3-18.2L100.9,131.3z"/>
<path class="st4" d="M146.2,141.8c0,0-3.7,11.7-7,16.8c-3.2,5.1-6.2,7.3-7,6.3c-0.8-1,4.3-18.2,4.3-18.2L146.2,141.8z"/>
<path class="st4" d="M114,84.6c5.3-2.7,19.6-1.8,26.2-2.8c3.5-0.5,13,1,13,1l-4.1,2.1l5.6,0.9l-3.1,2.6l1.2,5l-0.9-0.5l-31.5-8.7
	L114,84.6z"/>
<g>
	<path class="st4" d="M167.1,143.2c-1.6,0-4.1-0.4-7.8-1.9c-6.8-2.7-11.3-14.3-11.8-15.6c-0.4-1,0.1-2.2,1.2-2.6
		c1-0.4,2.2,0.1,2.6,1.2c1.2,3.1,5.2,11.5,9.6,13.3c4.8,2,6.9,1.6,6.9,1.6c1-0.4,2.2,0.1,2.6,1.1s-0.1,2.2-1.1,2.6
		C168.9,143,168.2,143.2,167.1,143.2z"/>
</g>
<path class="st6" d="M115.3,92c-5.7,3.8-2.2,49.4,1.8,54.4c6.5,8,21.6,6.3,23.6,2.1c0.7-1.6,17.7-32.8,9.7-54.3
	C148.4,88.6,135.2,78.8,115.3,92z"/>
<g>
	<path class="st7" d="M146.9,101.3"/>
</g>
<g>
	<path class="st7" d="M120.8,95.2"/>
</g>
<g>
	<path class="st8" d="M125.5,101.5c0.6,0.1,0.9,0.7,0.8,1.3l-0.6,2.4c-0.1,0.6-0.7,0.9-1.3,0.8l0,0c-0.6-0.1-0.9-0.7-0.8-1.3
		l0.6-2.4C124.3,101.7,124.9,101.4,125.5,101.5L125.5,101.5z"/>
</g>
<g>
	<path class="st8" d="M146.6,102.2c0.6,0.1,0.9,0.7,0.8,1.3l-0.6,2.4c-0.1,0.6-0.7,0.9-1.3,0.8l0,0c-0.6-0.1-0.9-0.7-0.8-1.3
		l0.6-2.4C145.5,102.4,146,102.1,146.6,102.2L146.6,102.2z"/>
</g>
<g>
	<path class="st9" d="M124.5,110.9c-0.3,0-0.7,0-1-0.1c-2.4-0.6-3.2-2.7-3.2-2.8c-0.2-0.5,0.1-1.1,0.6-1.3c0.5-0.2,1.1,0.1,1.3,0.6
		c0,0.1,0.5,1.2,1.8,1.5c1.3,0.3,2.3-0.5,2.3-0.5c0.4-0.4,1-0.4,1.4,0c0.4,0.4,0.4,1,0,1.4C127.5,109.8,126.3,110.9,124.5,110.9z"/>
</g>
<g>
	<path class="st9" d="M146.1,108c-0.3,0-0.7,0-1-0.1c-2.4-0.6-3.2-2.7-3.2-2.8c-0.2-0.5,0.1-1.1,0.6-1.3c0.5-0.2,1.1,0.1,1.3,0.6
		c0,0.1,0.5,1.2,1.8,1.5c1.3,0.3,2.2-0.5,2.3-0.6c0.4-0.4,1-0.4,1.4,0c0.4,0.4,0.4,1,0,1.4C149.1,106.9,147.9,108,146.1,108z"/>
</g>
<path class="st10" d="M132.4,75.3c2,0,4,1,5.1,2.8l2.3,3.8c0.1,0,0.2,0,0.3,0c0.5-0.1,1.2-0.1,1.9-0.1c4.2,0,11.1,1.1,11.1,1.1
	L149,85l5.6,0.9l-3.1,2.6l0.9,3.6c0.4,0.7,0.7,1.3,1,2c3.6,10.2,2.1,22.5-0.9,33.4c1.8,3.8,4.9,8.8,8.2,10.1
	c3.5,1.4,5.5,1.6,6.4,1.6c0.4,0,0.5,0,0.5,0c0.2-0.1,0.5-0.1,0.8-0.1c0.8,0,1.5,0.5,1.9,1.2c0.4,1-0.1,2.2-1.1,2.6
	c-0.3,0.1-1,0.3-2.1,0.3c-1.6,0-4.1-0.4-7.8-1.9c-3.4-1.4-6.3-5-8.4-8.5c-3,9.1-6.8,16.7-8.9,20.2c-0.9,2.1-1.9,4.1-2.8,5.5
	c-2.7,4.3-5.2,6.6-6.4,6.6c-0.2,0-0.4-0.1-0.5-0.2c-0.4-0.5,0.6-4.6,1.7-8.8c-8.2-0.3-21.1-3.3-28.3-6.3c-0.9,4.1-1.8,8.1-2.4,8.3
	c-0.1,0-0.2,0.1-0.3,0.1c-1.1,0-2.6-3.2-3.2-8.8c-0.1-1.3-0.2-2.8-0.1-4.4c-10.4-19.8,4.6-17.4,3.5-34.8c-0.4-6.4,0.2-11.4,1.3-15.2
	l-1.5-0.6c-3.1-1.3-4.5-4.8-3.3-7.8c1-2.3,3.2-3.7,5.6-3.7c0.8,0,1.5,0.1,2.3,0.4l3.7,1.5c5.5-2.3,10.7-3.4,15.4-3.7
	c0.1-1.9,1.1-3.8,2.8-4.9C130.3,75.6,131.4,75.3,132.4,75.3 M132.4,74.3c-1.3,0-2.6,0.4-3.7,1.1c-1.7,1.1-2.9,2.8-3.2,4.8
	c-4.7,0.4-9.6,1.6-14.5,3.6l-3.3-1.3c-0.8-0.3-1.7-0.5-2.6-0.5c-2.9,0-5.4,1.7-6.5,4.4c-1.5,3.6,0.3,7.7,3.8,9.1l0.7,0.3
	c-1.1,4.3-1.4,9.2-1.1,14.7c0.5,7-1.8,10.5-3.9,14c-2.9,4.7-5.7,9.2,0.4,21c0,1.7,0,3.1,0.1,4.3c0.2,2.3,1.3,9.7,4.2,9.7
	c0.2,0,0.5-0.1,0.7-0.2c0.5-0.3,1.1-0.5,2.6-7.9c7.2,2.8,18.6,5.3,26.3,5.8c-1.9,7.6-1.5,8-1.2,8.5c0.3,0.4,0.8,0.6,1.3,0.6
	c2.6,0,6.2-5.4,7.3-7c0.9-1.3,1.8-3.2,2.8-5.6c2.1-3.6,5.5-10.4,8.3-18.4c2.5,3.6,5,6,7.7,7.1c3.2,1.3,6,2,8.2,2
	c1.3,0,2-0.2,2.5-0.4c1.5-0.6,2.3-2.4,1.7-3.9c-0.5-1.1-1.6-1.9-2.8-1.9c-0.3,0-0.7,0.1-1,0.2c-0.1,0-0.2,0-0.3,0
	c-0.7,0-2.6-0.1-6-1.5c-2.3-0.9-5-4.3-7.5-9.3c3.7-13.4,3.9-24.8,0.8-33.7c-0.2-0.6-0.6-1.3-1-2l-0.7-2.9l2.6-2.2
	c0.3-0.3,0.4-0.7,0.3-1c-0.1-0.4-0.4-0.7-0.8-0.7l-2.6-0.4l1.4-0.7c0.4-0.2,0.6-0.6,0.5-1c-0.1-0.4-0.4-0.8-0.8-0.8
	c-0.3,0-7-1.1-11.2-1.1c-0.6,0-1.2,0-1.7,0.1l-2-3.2C137.1,75.6,134.9,74.3,132.4,74.3L132.4,74.3z"/>
<g>
	<path class="st9" d="M129.8,118.8c-0.5,0-1-0.4-1-0.9c0-0.6,0.4-1,0.9-1.1c6-0.5,11.7-1.7,12.3-2.6c0.7-1.1,0.8-2.7,0.8-2.8
		c0-0.5,0.5-0.9,1-0.9c0.5,0,1,0.4,1,0.9c0.1,0.9,0.4,2.3,0.8,2.8c0.7,0.9,1.6,0.8,1.6,0.9c0.6,0,1,0.4,1.1,0.9c0,0.6-0.4,1-0.9,1.1
		c-0.7,0-2.2-0.2-3.3-1.6c-0.1-0.1-0.2-0.3-0.3-0.4c0,0.1-0.1,0.1-0.1,0.2C142.3,117.6,133.5,118.5,129.8,118.8
		C129.8,118.8,129.8,118.8,129.8,118.8z"/>
</g>
<g>
	<path class="st8" d="M140.5,110c-0.8,0.5,3.6,2.7,4.2,2.7c0.9,0,5.3-1.9,5.1-3.4C149.8,108.5,143.5,108,140.5,110z"/>
	<path class="st8" d="M144.8,113.7C144.7,113.7,144.7,113.7,144.8,113.7c-0.8,0-4.8-1.8-5.2-3.2c-0.2-0.5,0-1,0.5-1.3l0,0
		c2.8-1.9,8.3-1.8,10-1.1c0.7,0.3,0.8,0.7,0.9,1.1c0.1,0.6-0.2,1.2-0.7,1.8C149,112.3,145.8,113.7,144.8,113.7z M142.1,110.3
		c0.9,0.6,2.4,1.3,2.8,1.4c0.6,0,2.9-1.1,3.7-1.9C147.3,109.5,144.2,109.4,142.1,110.3z M141.1,110.8
		C141.1,110.8,141.1,110.8,141.1,110.8C141.1,110.8,141.1,110.8,141.1,110.8L141.1,110.8z"/>
</g>
<g>
	<g id="Layer_2_71_">
		<path class="st3" d="M169.5,134.9l-4.9,0.1l-0.3-27.7c0-2.3,1.7-4.1,3.9-4.3c0.2,0,0.3,0.1,0.3,0.3L169.5,134.9z"/>
	</g>
	<g id="Layer_3_101_">
		<path class="st2" d="M179.8,108c0.1-0.1,0.3-0.1,0.5,0.1c1.3,1.8,1,4.3-0.8,5.8l-21.3,17.7l-3.1-3.7L179.8,108z"/>
	</g>
	<g id="Layer_4_71_">
		<path class="st11" d="M144.2,129.6c-0.3,1.8,0.2,3.5,1.3,4.9c0.5,0.7,1.2,1.2,2,1.5c2.4,1.1,5.3,0.7,7.5-1.2
			c0.2-0.1,0.3-0.3,0.5-0.4l6.9-5.7c0.3-0.2,0.5-0.6,0.5-1c0-0.4-0.1-0.8-0.3-1l-1.9-2.3c-0.1-0.2-0.3-0.3-0.5-0.4
			c-0.2-0.1-0.3-0.1-0.5-0.1c-0.4,0-0.8,0.1-1,0.3l-2,1.6c-0.1-0.1-0.2-0.2-0.3-0.3c-0.5-0.7-1.2-1.2-2-1.5
			c-2.4-1.1-5.3-0.7-7.5,1.2C145.4,126.2,144.4,127.8,144.2,129.6z M148.6,127.3c1.3-1.1,3.1-1.4,4.4-0.8c0.4,0.2,0.7,0.4,1,0.8
			c0.9,1.1,0.9,2.8,0.1,4.1c-0.3,0.5-0.8,0.9-1.4,1.5l0,0c0,0,0,0,0,0c-1.3,0.9-2.8,1.1-4,0.5c-0.4-0.2-0.7-0.4-1-0.8
			c-0.6-0.7-0.8-1.6-0.6-2.6C147.2,129,147.7,128,148.6,127.3z"/>
	</g>
	<g id="Layer_5_91_">
		<path class="st11" d="M164.1,129.9l0.1,9c0,0.2,0,0.4,0,0.6c0,2.8,1.5,5.3,3.8,6.4c0.8,0.4,1.7,0.6,2.6,0.6c3.5,0,6.3-3.2,6.3-7.1
			c0-2.8-1.5-5.3-3.8-6.4l0,0c-0.8-0.4-1.7-0.6-2.6-0.6c-0.1,0-0.3,0-0.4,0l0-2.6c0-0.6-0.3-1-0.8-1.3c-0.2-0.1-0.4-0.1-0.6-0.1
			l-3,0c-0.4,0-0.7,0.2-1,0.4C164.2,129.2,164.1,129.5,164.1,129.9z M171.8,135.6c1.3,0.6,2.2,2.1,2.2,3.8c0,2.3-1.5,4.2-3.4,4.2
			c-0.5,0-0.9-0.1-1.3-0.3c-1.2-0.6-2-1.9-2.2-3.3c0,0,0,0,0,0c0-0.8,0.1-1.4,0.2-2c0.5-1.5,1.7-2.6,3.2-2.6
			C170.9,135.3,171.3,135.4,171.8,135.6z"/>
	</g>
	<g id="Layer_6_67_">
		<path class="st3" d="M167,119.8c0.9,0.1,1.5,0.9,1.4,1.7c-0.1,0.9-0.9,1.5-1.7,1.4c-0.9-0.1-1.5-0.9-1.4-1.7
			C165.4,120.4,166.1,119.7,167,119.8z"/>
	</g>
</g>
<g>
	<defs>
		<path id="XMLID_40_" d="M131,118.7l-0.8,2.5c-0.7,2.1,0.5,4.4,2.6,5s4.4-0.5,5-2.6l2-6.3L131,118.7z"/>
	</defs>
	<use href="#XMLID_40_"  style="overflow:visible;fill:#FF99F8;"/>
	<clipPath id="XMLID_2_">
		<use href="#XMLID_40_"  style="overflow:visible;"/>
	</clipPath>
	<polygon class="st12" points="128.8,120.7 141.1,118.6 141.9,115.3 133.7,114.1 	"/>
</g>
<g>
	<path class="st13" d="M133.7,124c-0.1,0-0.1,0-0.2,0c-0.3-0.1-0.4-0.4-0.3-0.6l1.5-4.6c0.1-0.3,0.4-0.4,0.6-0.3
		c0.3,0.1,0.4,0.4,0.3,0.6l-1.5,4.6C134.1,123.9,133.9,124,133.7,124z"/>
</g>
<g>
	<path class="st4" d="M131.2,138.5c-11.9,0-22.4-18.9-22.9-19.7c-0.5-1-0.2-2.2,0.8-2.7c1-0.5,2.2-0.2,2.7,0.8
		c2.8,5.1,11.9,18.4,20,17.6c10.3-0.9,15.2-4.7,15.3-4.7c0.9-0.7,2.1-0.5,2.8,0.3s0.6,2.1-0.3,2.8c-0.2,0.2-5.8,4.6-17.4,5.6
		C131.9,138.5,131.5,138.5,131.2,138.5z"/>
</g>
<path class="st4" d="M167.8,138.3c0,0-5.4,2.2-5.5,4c-0.1,1.9,5.6,4.1,8,0.5C172.8,139.2,168.8,137.9,167.8,138.3z"/>
<path class="st4" d="M112,116.2c0,0,0.5,4,3,6.2s-3.2,5.5-3,10.5S112,116.2,112,116.2z"/>
<g>
	<path class="st10" d="M131.2,139c-0.2,0-0.5,0-0.7,0c-9.3-0.3-17.5-12.2-17.8-12.7c-0.2-0.2-0.1-0.5,0.1-0.7
		c0.2-0.2,0.5-0.1,0.7,0.1c0.1,0.1,8.2,12,17,12.3c8.7,0.2,17.2-4.2,18.4-5.2c0.4-0.3,0.6-1.8,0.1-2.5c-0.5-0.7-1.6-0.2-2.4,0.3
		c-0.2,0.1-0.5,0.1-0.7-0.2c-0.1-0.2-0.1-0.5,0.2-0.7c2.3-1.4,3.3-0.6,3.8,0c0.8,1.1,0.5,3.2-0.3,3.9
		C148.8,134.3,140.5,139,131.2,139z"/>
</g>
<g>
	<path class="st10" d="M166.6,145.4c-0.9,0-1.9-0.2-3-0.9c-1.3-0.7-1.9-1.5-1.8-2.4c0.1-1.8,3.2-3.1,3.6-3.2c0.3-0.1,0.5,0,0.6,0.3
		c0.1,0.3,0,0.5-0.3,0.6c-1.1,0.4-2.9,1.4-2.9,2.4c0,0.6,0.7,1.1,1.3,1.5c1.5,0.8,2.9,1,4.2,0.4c1.4-0.7,2.1-1.9,2.2-2.2
		c0.1-0.4,0.3-1.6-0.3-2.3c-0.5-0.6-1.4-0.8-2.8-0.6c-0.3,0-0.5-0.2-0.5-0.5c0-0.3,0.2-0.5,0.5-0.5c1.7-0.2,2.9,0.2,3.6,1
		c1,1.1,0.7,2.7,0.6,3.2c-0.1,0.6-1.1,2.2-2.7,2.9C168.2,145.2,167.5,145.4,166.6,145.4z"/>
</g>
<g>
	<path class="st10" d="M132.9,157.1c-0.3,0-0.5-0.2-0.5-0.5s0.2-0.5,0.5-0.5c2.2,0,5.5-0.7,5.6-0.7c0.3-0.1,0.5,0.1,0.6,0.4
		c0.1,0.3-0.1,0.5-0.4,0.6C138.5,156.5,135.1,157.1,132.9,157.1z"/>
</g>
<g>
	<path class="st10" d="M106.6,89.3c0,0-0.1,0-0.1,0c-0.3-0.1-0.4-0.3-0.4-0.6c0.1-0.5,1.6-3.4,5.3-5c0.3-0.1,0.5,0,0.7,0.3
		c0.1,0.3,0,0.5-0.3,0.7c-3.2,1.4-4.6,3.9-4.7,4.3C107,89.1,106.8,89.3,106.6,89.3z"/>
</g>
<g>
	<path class="st10" d="M138.4,82c-6.1,0-12.4-0.8-12.5-0.8c-0.3,0-0.5-0.3-0.4-0.6c0-0.3,0.3-0.5,0.6-0.4c0.1,0,9.6,1.2,16.4,0.7
		c0.3,0,0.5,0.2,0.5,0.5c0,0.3-0.2,0.5-0.5,0.5C141.2,82,139.8,82,138.4,82z"/>
</g>
<g>
	<path class="st10" d="M151.7,132.3c-0.1,0-0.1,0-0.2,0c-0.3-0.1-0.4-0.4-0.3-0.6l1.3-4.1c0.1-0.3,0.4-0.4,0.6-0.3
		c0.3,0.1,0.4,0.4,0.3,0.6l-1.3,4.1C152.1,132.1,151.9,132.3,151.7,132.3z"/>
</g>
<g>
	<path class="st10" d="M105.5,152.8C105.5,152.8,105.5,152.8,105.5,152.8c-0.4-0.1-0.5-0.3-0.5-0.6l1.2-5.8c0.1-0.3,0.3-0.4,0.6-0.4
		c0.3,0.1,0.4,0.3,0.4,0.6l-1.2,5.8C106,152.6,105.8,152.8,105.5,152.8z"/>
</g>
</svg>
