<?xml version="1.0" encoding="utf-8"?>
<!-- Generator: Adobe Illustrator 20.0.0, SVG Export Plug-In . SVG Version: 6.00 Build 0)  -->
<!DOCTYPE svg PUBLIC "-//W3C//DTD SVG 1.1//EN" "http://www.w3.org/Graphics/SVG/1.1/DTD/svg11.dtd">
<svg version="1.1" id="Layer_1" xmlns="http://www.w3.org/2000/svg" x="0px" y="0px"
	 viewBox="0 0 216 216" style="enable-background:new 0 0 216 216;" xml:space="preserve">
<style type="text/css">
	.st0{fill:#FFFFFF;}
	.st1{fill:none;stroke:#E1E1E6;stroke-width:2;stroke-linecap:round;stroke-linejoin:round;stroke-miterlimit:10;}
	.st2{fill:#E1E1E6;}
	.st3{fill:#C8C8CC;}
	.st4{fill:#5CE6E6;}
	.st5{fill:#0D96FF;}
	.st6{fill:#EDEDF2;}
	.st7{fill:#99FFFF;}
	.st8{fill:#363959;stroke:#70C7DD;stroke-width:11;stroke-linecap:round;stroke-linejoin:round;stroke-miterlimit:10;}
	.st9{fill:#535A80;}
	.st10{fill:#57D9D9;}
	.st11{fill:#2BB0CC;}
	.st12{opacity:0.5;}
	.st13{fill:#737EB3;}
</style>
<path class="st0" d="M149.2,28L149.2,28C149.2,27.9,149.2,28,149.2,28z"/>
<g>
	<path class="st1" d="M44.8,144.9"/>
</g>
<g>
	<path class="st1" d="M108.7,144.9"/>
</g>
<g>
	<path class="st0" d="M18.9,47.3h19.5c0,0-6.1-13.6,6.8-15.4c11.5-1.6,16.1,10.3,16.1,10.3s1.4-6.8,8.2-5.5
		c6.8,1.3,11.8,12.2,11.8,12.2h17"/>
	<g>
		<path class="st2" d="M98.6,45.7h-17c-0.2,0-0.4-0.1-0.4-0.3c0-0.1-5-9.7-11.4-10.9c-6.3-1.2-7.6,4.9-7.6,5.1
			c0,0.2-0.2,0.4-0.4,0.4c-0.2,0-0.4-0.1-0.5-0.3c0,0-1.1-2.9-3.6-5.6c-3.3-3.5-7.3-5-11.9-4.4c-3.4,0.5-5.7,1.8-6.9,3.9
			c-2.4,4.3,0.4,10.7,0.4,10.8c0.1,0.2,0.1,0.3,0,0.5s-0.2,0.2-0.4,0.2H19.2c-0.3,0-0.5-0.2-0.5-0.5s0.2-0.5,0.5-0.5H38
			c-0.7-1.9-2.3-7-0.1-10.9c1.4-2.4,3.9-3.9,7.6-4.4c9.6-1.3,14.5,6.4,16.1,9.4c0.8-2,3.1-5.7,8.4-4.7c6.4,1.2,11.1,9.5,12,11.2
			h16.7c0.3,0,0.5,0.2,0.5,0.5S98.9,45.7,98.6,45.7z"/>
	</g>
	<g>
		<path class="st0" d="M99.2,49.2H18.9c-0.6,0-1-0.4-1-1s0.4-1,1-1h80.3c0.6,0,1,0.4,1,1S99.7,49.2,99.2,49.2z"/>
	</g>
</g>
<g>
	<g>
		<path class="st2" d="M178.9,88.2h-60.7c-0.6,0-1-0.4-1-1s0.4-1,1-1h60.7c0.6,0,1,0.4,1,1S179.4,88.2,178.9,88.2z"/>
	</g>
	<g>
		<path class="st2" d="M75.6,76H43.8c-0.6,0-1-0.4-1-1s0.4-1,1-1h31.8c0.6,0,1,0.4,1,1S76.2,76,75.6,76z"/>
	</g>
	<g>
		<path class="st2" d="M60.1,71.3h-9c-0.3,0-0.5-0.2-0.5-0.5s0.2-0.5,0.5-0.5h9c0.3,0,0.5,0.2,0.5,0.5S60.4,71.3,60.1,71.3z"/>
	</g>
	<g>
		<path class="st2" d="M82.6,116.8h-64c-0.6,0-1-0.4-1-1s0.4-1,1-1h64c0.6,0,1,0.4,1,1S83.2,116.8,82.6,116.8z"/>
	</g>
	<g>
		<path class="st2" d="M72.2,112.3H41.4c-0.3,0-0.5-0.2-0.5-0.5s0.2-0.5,0.5-0.5h30.7c0.3,0,0.5,0.2,0.5,0.5S72.5,112.3,72.2,112.3z
			"/>
	</g>
	<g>
		<path class="st2" d="M170.6,82.9h-26.9c-0.3,0-0.5-0.2-0.5-0.5s0.2-0.5,0.5-0.5h26.9c0.3,0,0.5,0.2,0.5,0.5S170.9,82.9,170.6,82.9
			z"/>
	</g>
	<g>
		<path class="st2" d="M194.5,92.4h-91.3c-0.3,0-0.5-0.2-0.5-0.5s0.2-0.5,0.5-0.5h91.3c0.3,0,0.5,0.2,0.5,0.5S194.8,92.4,194.5,92.4
			z"/>
	</g>
</g>
<g>
	<path class="st0" d="M152.5,59.7h10.8c0,0-3.4-7.6,3.8-8.6c6.4-0.9,9,5.7,9,5.7s0.8-3.8,4.6-3.1c3.8,0.7,6.5,6.8,6.5,6.8h9.4"/>
	<g>
		<path class="st2" d="M163.6,58.5h-10.8c-0.3,0-0.5-0.2-0.5-0.5s0.2-0.5,0.5-0.5h10.1c-0.4-1.2-1.1-3.9,0.1-6
			c0.8-1.4,2.3-2.3,4.4-2.6c5.1-0.7,7.9,3,8.9,4.9c0.7-1.4,2.1-2.8,4.8-2.3c3.5,0.7,6.1,4.7,6.7,5.8h9.1c0.3,0,0.5,0.2,0.5,0.5
			s-0.2,0.5-0.5,0.5h-9.4c-0.2,0-0.4-0.1-0.4-0.3c0,0-2.7-4.9-6.2-5.5c-3.3-0.6-4,2.6-4,2.7c0,0.2-0.2,0.4-0.4,0.4
			c-0.2,0-0.4-0.1-0.5-0.3c-0.1-0.3-2.5-6.2-8.4-5.4c-1.8,0.2-3,0.9-3.7,2.1c-1.3,2.3,0.2,5.7,0.2,5.8c0.1,0.2,0.1,0.3,0,0.5
			C164,58.5,163.8,58.5,163.6,58.5z"/>
	</g>
	<g>
		<path class="st0" d="M197.3,61.6h-44.6c-0.6,0-1-0.4-1-1s0.4-1,1-1h44.6c0.6,0,1,0.4,1,1S197.9,61.6,197.3,61.6z"/>
	</g>
</g>
<path class="st3" d="M112.6,104.6"/>
<g>
	<path class="st2" d="M73.8,148.4H22.1c-0.6,0-1-0.4-1-1s0.4-1,1-1h51.7c0.6,0,1,0.4,1,1S74.3,148.4,73.8,148.4z"/>
</g>
<g>
	<path class="st2" d="M189.2,148.4h-56.4c-0.6,0-1-0.4-1-1s0.4-1,1-1h56.4c0.6,0,1,0.4,1,1S189.8,148.4,189.2,148.4z"/>
</g>
<g>
	<g>
		<path class="st4" d="M78.3,133.1c-1,0-1.8-0.7-2-1.7L74.2,116c-0.2-1.1,0.6-2.1,1.7-2.3c1.1-0.2,2.1,0.6,2.3,1.7l2.2,15.3
			c0.2,1.1-0.6,2.1-1.7,2.3C78.5,133.1,78.4,133.1,78.3,133.1z"/>
	</g>
	<path class="st4" d="M77.3,126.6c-0.2-0.4-5-8-6.5-8s-5.5,3.3-5.5,3.8s1.2,2.5,3.8,1.8s2.7-0.7,2.7-0.7s3.8,7.2,4.7,8.2
		C77.3,132.8,80.4,132.9,77.3,126.6z"/>
	<g>
		<path class="st5" d="M67.9,122.6c-0.2,0-0.4-0.1-0.6-0.2l-2.5-1.7c-0.5-0.3-0.6-0.9-0.3-1.4s0.9-0.6,1.4-0.3l2.5,1.7
			c0.5,0.3,0.6,0.9,0.3,1.4C68.6,122.5,68.3,122.6,67.9,122.6z"/>
	</g>
	<g>
		<line class="st4" x1="76.1" y1="115.3" x2="78.8" y2="116"/>
		<path class="st4" d="M78.8,118c-0.2,0-0.3,0-0.5-0.1l-2.7-0.6c-1.1-0.3-1.7-1.3-1.5-2.4c0.3-1.1,1.3-1.7,2.4-1.5l2.7,0.6
			c1.1,0.3,1.7,1.3,1.5,2.4C80.6,117.3,79.7,118,78.8,118z"/>
	</g>
</g>
<g>
	<g>
		<path class="st4" d="M129.5,133.1c-0.1,0-0.2,0-0.2,0c-1.1-0.1-1.9-1.1-1.7-2.2l1.8-14.7c0.1-1.1,1.1-1.9,2.2-1.7
			c1.1,0.1,1.9,1.1,1.7,2.2l-1.8,14.7C131.4,132.3,130.5,133.1,129.5,133.1z"/>
	</g>
	<path class="st4" d="M130.3,126.6c0.2-0.4,5-8,6.5-8s5.5,3.3,5.5,3.8s-1.2,2.5-3.8,1.8c-2.7-0.7-2.7-0.7-2.7-0.7s-3.8,7.2-4.7,8.2
		S127.1,132.9,130.3,126.6z"/>
	<g>
		<path class="st4" d="M140.1,123.1c-0.5,0-0.9-0.3-1-0.8c-0.1-0.5,0.3-1.1,0.8-1.2l2.9-0.5c0.6-0.1,1.1,0.3,1.2,0.8
			c0.1,0.5-0.3,1.1-0.8,1.2l-2.9,0.5C140.2,123,140.1,123.1,140.1,123.1z"/>
	</g>
	<g>
		<path class="st4" d="M138.5,122.1c-0.4,0-0.8-0.3-0.9-0.7c-0.2-0.5,0.1-1.1,0.6-1.3l3.2-1.2c0.5-0.2,1.1,0.1,1.3,0.6
			c0.2,0.5-0.1,1.1-0.6,1.3l-3.2,1.2C138.7,122,138.6,122.1,138.5,122.1z"/>
	</g>
	<g>
		<path class="st4" d="M128.4,118.9c-0.9,0-1.7-0.6-1.9-1.5c-0.2-1.1,0.4-2.2,1.5-2.4l2.7-0.6c1.1-0.2,2.2,0.4,2.4,1.5
			c0.2,1.1-0.4,2.2-1.5,2.4l-2.7,0.6C128.7,118.9,128.6,118.9,128.4,118.9z"/>
	</g>
</g>
<g>
	<g>
		<path class="st2" d="M166.5,197.5h-3c-0.6,0-1-0.4-1-1s0.4-1,1-1h2v-2c0-0.6,0.4-1,1-1s1,0.4,1,1v3
			C167.5,197,167,197.5,166.5,197.5z"/>
	</g>
	<g>
		<path class="st2" d="M157.7,197.5h-5.8c-0.6,0-1-0.4-1-1s0.4-1,1-1h5.8c0.6,0,1,0.4,1,1S158.2,197.5,157.7,197.5z M146.1,197.5
			h-5.8c-0.6,0-1-0.4-1-1s0.4-1,1-1h5.8c0.6,0,1,0.4,1,1S146.6,197.5,146.1,197.5z M134.5,197.5h-5.8c-0.6,0-1-0.4-1-1s0.4-1,1-1
			h5.8c0.6,0,1,0.4,1,1S135,197.5,134.5,197.5z M122.9,197.5h-5.8c-0.6,0-1-0.4-1-1s0.4-1,1-1h5.8c0.6,0,1,0.4,1,1
			S123.4,197.5,122.9,197.5z M111.3,197.5h-5.8c-0.6,0-1-0.4-1-1s0.4-1,1-1h5.8c0.6,0,1,0.4,1,1S111.8,197.5,111.3,197.5z
			 M99.7,197.5h-5.8c-0.6,0-1-0.4-1-1s0.4-1,1-1h5.8c0.6,0,1,0.4,1,1S100.2,197.5,99.7,197.5z M88.1,197.5h-5.8c-0.6,0-1-0.4-1-1
			s0.4-1,1-1h5.8c0.6,0,1,0.4,1,1S88.6,197.5,88.1,197.5z M76.5,197.5h-5.8c-0.6,0-1-0.4-1-1s0.4-1,1-1h5.8c0.6,0,1,0.4,1,1
			S77,197.5,76.5,197.5z M64.9,197.5h-5.8c-0.6,0-1-0.4-1-1s0.4-1,1-1h5.8c0.6,0,1,0.4,1,1S65.4,197.5,64.9,197.5z M53.3,197.5h-5.8
			c-0.6,0-1-0.4-1-1s0.4-1,1-1h5.8c0.6,0,1,0.4,1,1S53.8,197.5,53.3,197.5z"/>
	</g>
	<g>
		<path class="st2" d="M41.7,197.5h-3c-0.6,0-1-0.4-1-1v-3c0-0.6,0.4-1,1-1s1,0.4,1,1v2h2c0.6,0,1,0.4,1,1S42.2,197.5,41.7,197.5z"
			/>
	</g>
	<g>
		<path class="st2" d="M38.7,188.5c-0.6,0-1-0.4-1-1v-6c0-0.6,0.4-1,1-1s1,0.4,1,1v6C39.7,188,39.2,188.5,38.7,188.5z M38.7,176.6
			c-0.6,0-1-0.4-1-1v-6c0-0.6,0.4-1,1-1s1,0.4,1,1v6C39.7,176.1,39.2,176.6,38.7,176.6z M38.7,164.6c-0.6,0-1-0.4-1-1v-6
			c0-0.6,0.4-1,1-1s1,0.4,1,1v6C39.7,164.2,39.2,164.6,38.7,164.6z M38.7,152.7c-0.6,0-1-0.4-1-1v-6c0-0.6,0.4-1,1-1s1,0.4,1,1v6
			C39.7,152.2,39.2,152.7,38.7,152.7z M38.7,140.7c-0.6,0-1-0.4-1-1v-6c0-0.6,0.4-1,1-1s1,0.4,1,1v6
			C39.7,140.3,39.2,140.7,38.7,140.7z M38.7,128.8c-0.6,0-1-0.4-1-1v-6c0-0.6,0.4-1,1-1s1,0.4,1,1v6
			C39.7,128.4,39.2,128.8,38.7,128.8z M38.7,116.9c-0.6,0-1-0.4-1-1v-6c0-0.6,0.4-1,1-1s1,0.4,1,1v6
			C39.7,116.4,39.2,116.9,38.7,116.9z M38.7,104.9c-0.6,0-1-0.4-1-1v-6c0-0.6,0.4-1,1-1s1,0.4,1,1v6
			C39.7,104.5,39.2,104.9,38.7,104.9z M38.7,93c-0.6,0-1-0.4-1-1v-6c0-0.6,0.4-1,1-1s1,0.4,1,1v6C39.7,92.6,39.2,93,38.7,93z
			 M38.7,81.1c-0.6,0-1-0.4-1-1v-6c0-0.6,0.4-1,1-1s1,0.4,1,1v6C39.7,80.6,39.2,81.1,38.7,81.1z M38.7,69.1c-0.6,0-1-0.4-1-1v-6
			c0-0.6,0.4-1,1-1s1,0.4,1,1v6C39.7,68.7,39.2,69.1,38.7,69.1z M38.7,57.2c-0.6,0-1-0.4-1-1v-6c0-0.6,0.4-1,1-1s1,0.4,1,1v6
			C39.7,56.8,39.2,57.2,38.7,57.2z M38.7,45.3c-0.6,0-1-0.4-1-1v-6c0-0.6,0.4-1,1-1s1,0.4,1,1v6C39.7,44.8,39.2,45.3,38.7,45.3z
			 M38.7,33.3c-0.6,0-1-0.4-1-1v-6c0-0.6,0.4-1,1-1s1,0.4,1,1v6C39.7,32.9,39.2,33.3,38.7,33.3z"/>
	</g>
	<g>
		<path class="st2" d="M38.7,21.4c-0.6,0-1-0.4-1-1v-3c0-0.6,0.4-1,1-1h3c0.6,0,1,0.4,1,1s-0.4,1-1,1h-2v2
			C39.7,20.9,39.2,21.4,38.7,21.4z"/>
	</g>
	<g>
		<path class="st2" d="M157.7,18.4h-5.8c-0.6,0-1-0.4-1-1s0.4-1,1-1h5.8c0.6,0,1,0.4,1,1S158.2,18.4,157.7,18.4z M146.1,18.4h-5.8
			c-0.6,0-1-0.4-1-1s0.4-1,1-1h5.8c0.6,0,1,0.4,1,1S146.6,18.4,146.1,18.4z M134.5,18.4h-5.8c-0.6,0-1-0.4-1-1s0.4-1,1-1h5.8
			c0.6,0,1,0.4,1,1S135,18.4,134.5,18.4z M122.9,18.4h-5.8c-0.6,0-1-0.4-1-1s0.4-1,1-1h5.8c0.6,0,1,0.4,1,1S123.4,18.4,122.9,18.4z
			 M111.3,18.4h-5.8c-0.6,0-1-0.4-1-1s0.4-1,1-1h5.8c0.6,0,1,0.4,1,1S111.8,18.4,111.3,18.4z M99.7,18.4h-5.8c-0.6,0-1-0.4-1-1
			s0.4-1,1-1h5.8c0.6,0,1,0.4,1,1S100.2,18.4,99.7,18.4z M88.1,18.4h-5.8c-0.6,0-1-0.4-1-1s0.4-1,1-1h5.8c0.6,0,1,0.4,1,1
			S88.6,18.4,88.1,18.4z M76.5,18.4h-5.8c-0.6,0-1-0.4-1-1s0.4-1,1-1h5.8c0.6,0,1,0.4,1,1S77,18.4,76.5,18.4z M64.9,18.4h-5.8
			c-0.6,0-1-0.4-1-1s0.4-1,1-1h5.8c0.6,0,1,0.4,1,1S65.4,18.4,64.9,18.4z M53.3,18.4h-5.8c-0.6,0-1-0.4-1-1s0.4-1,1-1h5.8
			c0.6,0,1,0.4,1,1S53.8,18.4,53.3,18.4z"/>
	</g>
	<g>
		<path class="st2" d="M166.5,21.4c-0.6,0-1-0.4-1-1v-2h-2c-0.6,0-1-0.4-1-1s0.4-1,1-1h3c0.6,0,1,0.4,1,1v3
			C167.5,20.9,167,21.4,166.5,21.4z"/>
	</g>
	<g>
		<path class="st2" d="M166.5,188.5c-0.6,0-1-0.4-1-1v-6c0-0.6,0.4-1,1-1s1,0.4,1,1v6C167.5,188,167,188.5,166.5,188.5z
			 M166.5,176.6c-0.6,0-1-0.4-1-1v-6c0-0.6,0.4-1,1-1s1,0.4,1,1v6C167.5,176.1,167,176.6,166.5,176.6z M166.5,164.6
			c-0.6,0-1-0.4-1-1v-6c0-0.6,0.4-1,1-1s1,0.4,1,1v6C167.5,164.2,167,164.6,166.5,164.6z M166.5,152.7c-0.6,0-1-0.4-1-1v-6
			c0-0.6,0.4-1,1-1s1,0.4,1,1v6C167.5,152.2,167,152.7,166.5,152.7z M166.5,140.7c-0.6,0-1-0.4-1-1v-6c0-0.6,0.4-1,1-1s1,0.4,1,1v6
			C167.5,140.3,167,140.7,166.5,140.7z M166.5,128.8c-0.6,0-1-0.4-1-1v-6c0-0.6,0.4-1,1-1s1,0.4,1,1v6
			C167.5,128.4,167,128.8,166.5,128.8z M166.5,116.9c-0.6,0-1-0.4-1-1v-6c0-0.6,0.4-1,1-1s1,0.4,1,1v6
			C167.5,116.4,167,116.9,166.5,116.9z M166.5,104.9c-0.6,0-1-0.4-1-1v-6c0-0.6,0.4-1,1-1s1,0.4,1,1v6
			C167.5,104.5,167,104.9,166.5,104.9z M166.5,93c-0.6,0-1-0.4-1-1v-6c0-0.6,0.4-1,1-1s1,0.4,1,1v6C167.5,92.6,167,93,166.5,93z
			 M166.5,81.1c-0.6,0-1-0.4-1-1v-6c0-0.6,0.4-1,1-1s1,0.4,1,1v6C167.5,80.6,167,81.1,166.5,81.1z M166.5,69.1c-0.6,0-1-0.4-1-1v-6
			c0-0.6,0.4-1,1-1s1,0.4,1,1v6C167.5,68.7,167,69.1,166.5,69.1z M166.5,57.2c-0.6,0-1-0.4-1-1v-6c0-0.6,0.4-1,1-1s1,0.4,1,1v6
			C167.5,56.8,167,57.2,166.5,57.2z M166.5,45.3c-0.6,0-1-0.4-1-1v-6c0-0.6,0.4-1,1-1s1,0.4,1,1v6C167.5,44.8,167,45.3,166.5,45.3z
			 M166.5,33.3c-0.6,0-1-0.4-1-1v-6c0-0.6,0.4-1,1-1s1,0.4,1,1v6C167.5,32.9,167,33.3,166.5,33.3z"/>
	</g>
</g>
<g>
	<g>
		<path class="st4" d="M89.3,102.9c-1.5,0-3.1-0.6-4.2-1.8l-9.3-9.3c-2.3-2.3-2.3-6.1,0-8.5c2.3-2.3,6.1-2.3,8.5,0l9.3,9.3
			c2.3,2.3,2.3,6.1,0,8.5C92.4,102.3,90.8,102.9,89.3,102.9z"/>
	</g>
	<g>
		<path class="st4" d="M117.6,103.2c-1.5,0-3.1-0.6-4.2-1.8c-2.3-2.3-2.3-6.1,0-8.5l9.3-9.3c2.3-2.3,6.1-2.3,8.5,0
			c2.3,2.3,2.3,6.1,0,8.5l-9.3,9.3C120.7,102.6,119.1,103.2,117.6,103.2z"/>
	</g>
	<ellipse class="st6" cx="104.4" cy="163.5" rx="29" ry="4.4"/>
	<path class="st4" d="M79.6,90.6c-3,1.9-2.4,58,4.1,62.3c4.5,3,36,4,40.8-0.7c1.4-1.4,8.2-35.7,4.8-60
		C128.4,85.9,90.5,83.6,79.6,90.6z"/>
	<path class="st4" d="M80.6,137.9c0,0,1,12.2,3,17.9s4.3,8.5,5.3,7.7c1-0.8,0-18.7,0-18.7L80.6,137.9z"/>
	<path class="st4" d="M127,137.9c0,0-1,12.2-3,17.9s-4.3,8.5-5.3,7.7c-1-0.8,0-18.7,0-18.7L127,137.9z"/>
	<path class="st4" d="M83.7,86.1c0,0,12.5-3.8,16-4.2s11-4.2,11-4.2l-1.8,4l4.2-1.2v2.2l10.2,2.8l-2.2,3H87.9L83.7,86.1z"/>
	<path class="st7" d="M85.6,90.3c-7.2,4.8-2.7,49.9,1.9,55.5c7.5,9.2,30.4,8.5,34.8-1.8c0.7-1.7,7.6-34,2.4-51.8
		C123,86.5,102.9,78.8,85.6,90.3z"/>
	<g>
		<path class="st8" d="M118.6,98.3"/>
	</g>
	<g>
		<path class="st8" d="M91.7,98.3"/>
	</g>
	<g>
		<path class="st9" d="M88.7,96c0.6,0,1.1,0.5,1.1,1.1v2.4c0,0.6-0.5,1.1-1.1,1.1l0,0c-0.6,0-1.1-0.5-1.1-1.1v-2.4
			C87.6,96.5,88.1,96,88.7,96L88.7,96z"/>
	</g>
	<g>
		<path class="st9" d="M115.6,96c0.6,0,1.1,0.5,1.1,1.1v2.4c0,0.6-0.5,1.1-1.1,1.1l0,0c-0.6,0-1.1-0.5-1.1-1.1v-2.4
			C114.5,96.5,115,96,115.6,96L115.6,96z"/>
	</g>
	<g>
		<path class="st10" d="M88.7,105.6c-2.5,0-3.7-1.9-3.8-2c-0.3-0.5-0.2-1.1,0.3-1.4c0.5-0.3,1.1-0.2,1.4,0.3c0,0.1,0.7,1.1,2.1,1.1
			c1.4,0,2.1-1,2.1-1c0.3-0.5,0.9-0.6,1.4-0.3c0.5,0.3,0.6,0.9,0.3,1.4C92.4,103.7,91.2,105.6,88.7,105.6z"/>
	</g>
	<g>
		<path class="st10" d="M115.6,105.6c-2.5,0-3.7-1.9-3.8-2c-0.3-0.5-0.2-1.1,0.3-1.4c0.5-0.3,1.1-0.2,1.4,0.3c0,0.1,0.7,1.1,2.1,1.1
			c1.4,0,2.1-1,2.1-1c0.3-0.5,0.9-0.6,1.4-0.3c0.5,0.3,0.6,0.9,0.3,1.4C119.3,103.7,118,105.6,115.6,105.6z"/>
	</g>
	<g>
		<path class="st10" d="M103.2,110.7c-0.4,0-0.8-0.3-1-0.7c-0.2-0.5,0.1-1.1,0.7-1.2c0.1,0,1.8-0.6,2.2-2.3c0.3-1.3-0.1-2.9-0.1-2.9
			c-0.1-0.5,0.2-1,0.6-1.2c0.5-0.2,1,0.1,1.2,0.5c0.4,0.8,1.1,2.1,1.6,2.4c1,0.6,1.8,0.3,1.8,0.3c0.5-0.2,1.1,0,1.3,0.6
			c0.2,0.5,0,1.1-0.6,1.3c-0.6,0.3-2.1,0.4-3.6-0.5c-0.1-0.1-0.3-0.2-0.4-0.3c0,0.1,0,0.2-0.1,0.2c-0.7,2.9-3.4,3.7-3.6,3.7
			C103.4,110.7,103.3,110.7,103.2,110.7z"/>
	</g>
	<g>
		<path class="st9" d="M101.3,102.6c-0.6,0.7,4.1,1.8,4.7,1.7c0.9-0.2,4.8-3.1,4.2-4.5C110,99.1,103.8,100,101.3,102.6z"/>
		<path class="st9" d="M106,105.3c-1.2,0-4.9-0.8-5.6-1.9c-0.3-0.5-0.2-1,0.2-1.4c2.3-2.5,7.7-3.7,9.5-3.3c0.7,0.1,1,0.5,1.1,0.8
			c0.2,0.6,0.1,1.2-0.3,1.9c-0.9,1.6-3.7,3.7-4.7,3.9C106.1,105.3,106.1,105.3,106,105.3z M102.9,102.6c1,0.3,2.6,0.7,3,0.7
			c0.6-0.2,2.6-1.8,3.2-2.7C107.7,100.6,104.7,101.3,102.9,102.6z"/>
	</g>
	<path class="st4" d="M127.7,113.8c0,0-0.5,4-3,6.2s3.2,5.5,3,10.5C127.4,135.6,127.7,113.8,127.7,113.8z"/>
	<path class="st4" d="M80.6,111.6c0,0,0.5,4,3,6.2s-3.2,5.5-3,10.5C80.8,133.3,80.6,111.6,80.6,111.6z"/>
</g>
<path class="st11" d="M110.7,77.8l-1.7,4l4.2-1.2v2.2l8.4,2.2l1.2-1.2c1.2-1.2,2.7-1.8,4.2-1.8c1.5,0,3.1,0.6,4.2,1.8
	c2.3,2.3,2.3,6.1,0,8.5l-1.7,1.7c0.8,6.5,0.9,13.7,0.6,20.7l0.5-0.1c0.1,0,0.3-0.1,0.4-0.1c0.3,0,0.5,0.1,0.8,0.2
	c0.9,0.3,1.5,1.2,1.4,2.1l-0.8,6.6c1.5-2.2,3.4-4.6,4.3-4.6c0.6,0,1.5,0.5,2.5,1.1l2.1-0.8c0.1,0,0.2-0.1,0.3-0.1
	c0.4,0,0.8,0.2,0.9,0.7c0.2,0.4,0,0.9-0.3,1.1l0.6-0.1c0.1,0,0.1,0,0.2,0c0.5,0,0.9,0.3,1,0.8c0.1,0.5-0.3,1.1-0.8,1.2l-0.9,0.2
	c-0.2,0.6-1.1,1.7-2.7,1.7c-0.3,0-0.7,0-1-0.1c-2.7-0.7-2.7-0.7-2.7-0.7s-3,5.5-4.2,7.5l0,0.2c-0.1,1-1,1.8-2,1.8
	c-0.1,0-0.2,0-0.2,0c-0.3,0-0.6-0.1-0.8-0.3c-0.9,6.6-1.9,12.1-2.7,15.6c-0.5,2.7-1,5.4-1.7,7.4c-1.8,5-3.8,7.9-4.9,7.9
	c-0.1,0-0.3,0-0.4-0.1c-0.5-0.4-0.5-4.7-0.4-9.1c-3.8,0.7-8.8,1-13.7,1c-5.6,0-11.1-0.4-15.2-1c0.1,4.4,0.1,8.7-0.4,9.1
	c-0.1,0.1-0.2,0.1-0.4,0.1c-1.1,0-3.2-2.8-4.9-7.9c-0.4-1.3-0.8-2.8-1.2-4.5c-1.7-3.2-2.8-10.1-3.6-18.2c-0.1,0-0.2,0-0.2,0.1
	c-0.1,0-0.2,0-0.3,0c-0.9,0-1.6-0.5-1.9-1.3c-0.9-1-4.6-8.1-4.6-8.1s0,0-2.7,0.7c-0.4,0.1-0.7,0.1-1,0.1c-1.2,0-1.9-0.6-2.4-1.1
	l-2.4-0.6c-0.5-0.1-0.9-0.7-0.7-1.2c0.1-0.5,0.5-0.8,1-0.8c0.1,0,0.2,0,0.3,0l1.7,0.4l-0.6-0.4c-0.5-0.3-0.6-0.9-0.3-1.4
	c0.2-0.3,0.5-0.4,0.8-0.4c0.2,0,0.4,0.1,0.6,0.2l1.6,1.1c1.1-0.9,2.4-1.6,3.2-1.6c0.9,0,2.9,2.6,4.4,4.8l-1-7.4c0-0.2,0-0.3,0-0.5
	c0-0.2,0-0.4,0-0.6c0.2-0.9,1-1.5,1.9-1.5c0.1,0,0.3,0,0.5,0.1l1.2,0.3c-0.1-7.8,0.1-14.9,0.6-19.1L75.8,92c-2.3-2.3-2.3-6.1,0-8.5
	c1.2-1.2,2.7-1.8,4.2-1.8c1.5,0,3.1,0.6,4.2,1.8l2,2c3.8-1.1,11-3.1,13.5-3.5C103.2,81.5,110.7,77.8,110.7,77.8 M110.7,76.8
	c-0.2,0-0.3,0-0.4,0.1c-0.1,0-7.4,3.7-10.7,4.1c-2.4,0.3-9,2.2-13,3.4L85,82.8c-1.3-1.3-3.1-2-4.9-2c-1.9,0-3.6,0.7-4.9,2
	c-2.7,2.7-2.7,7.2,0,9.9l2.4,2.4c-0.5,4-0.7,10.3-0.6,17.5c-0.2-0.1-0.5-0.1-0.7-0.1c-1.4,0-2.6,1-2.9,2.3c-0.1,0.3-0.1,0.5-0.1,0.8
	c0,0.2,0,0.5,0,0.7l0.5,3.5c-1.8-2.1-2.5-2.1-2.9-2.1c-0.8,0-1.8,0.5-3.2,1.4l-1-0.7c-0.3-0.2-0.7-0.3-1.1-0.3
	c-0.7,0-1.3,0.3-1.7,0.9c-0.2,0.3-0.3,0.6-0.3,0.9c-0.9,0-1.6,0.6-1.9,1.5c-0.3,1.1,0.4,2.2,1.4,2.4l2.1,0.5
	c0.5,0.5,1.5,1.2,2.9,1.2c0.4,0,0.8-0.1,1.3-0.2l1.9-0.5c1,1.8,3.4,6.3,4.3,7.5c0.4,1,1.3,1.7,2.4,1.8c0.6,6.2,1.7,13.8,3.5,17.5
	c0.4,1.8,0.8,3.3,1.2,4.5c0.7,2,3.2,8.5,5.9,8.5c0.4,0,0.7-0.1,1-0.4c0.5-0.4,0.9-0.8,0.8-8.7c4,0.5,9.1,0.8,14.2,0.8
	c3.5,0,8.4-0.1,12.7-0.8c-0.2,7.9,0.3,8.3,0.8,8.6c0.3,0.2,0.6,0.4,1,0.4c2.7,0,5.2-6.5,5.9-8.5c0.6-1.8,1.2-4.3,1.7-7.5
	c0.9-3.8,1.8-9,2.6-14.5c0.1,0,0.1,0,0.2,0c1.5,0,2.8-1.1,3-2.6c1.1-1.7,3-5.2,3.8-6.7l1.9,0.5c0.4,0.1,0.9,0.2,1.3,0.2
	c1.6,0,2.8-0.9,3.4-1.8l0.5-0.1c0.5-0.1,1-0.4,1.3-0.8c0.3-0.4,0.4-1,0.3-1.5c-0.1-0.7-0.6-1.3-1.3-1.6c0-0.2-0.1-0.3-0.1-0.5
	c-0.3-0.8-1-1.3-1.9-1.3c-0.2,0-0.5,0-0.7,0.1l-1.6,0.6c-1.6-1-2.3-1-2.6-1c-0.4,0-1.1,0-2.9,2.1l0.4-2.9c0.2-1.4-0.7-2.7-2-3.2
	c-0.3-0.1-0.7-0.2-1.1-0.2c0.3-7.1,0.1-13.5-0.6-19.1l1.3-1.3c1.3-1.3,2-3.1,2-4.9c0-1.9-0.7-3.6-2-4.9c-1.3-1.3-3.1-2-4.9-2
	c-1.9,0-3.6,0.7-4.9,2l-0.7,0.7l-7.1-1.9v-1.5c0-0.3-0.1-0.6-0.4-0.8c-0.2-0.1-0.4-0.2-0.6-0.2c-0.1,0-0.2,0-0.3,0l-2.2,0.6l0.9-2
	c0.2-0.4,0.1-0.8-0.2-1.1C111.2,76.9,111,76.8,110.7,76.8L110.7,76.8z M110.7,78.8L110.7,78.8L110.7,78.8L110.7,78.8z"/>
<g>
	<g id="Layer_2_1_">
		<path class="st3" d="M42.7,96c4.7-4.7,12.4-4.7,17.1,0c4.3,4.3,4.7,11.1,1.1,15.9l1.9,1.9l-2.4,2.4l-1.9-1.9
			c-4.7,3.6-11.5,3.2-15.9-1.1C38,108.4,38,100.7,42.7,96z"/>
	</g>
	<g>
		<defs>
			<circle id="XMLID_38_" cx="51.3" cy="104.6" r="9.9"/>
		</defs>
		<use href="#XMLID_38_"  style="overflow:visible;fill:#F5F5F7;"/>
		<clipPath id="XMLID_2_">
			<use href="#XMLID_38_"  style="overflow:visible;"/>
		</clipPath>
	</g>
	<g id="Layer_4_1_" class="st12">
		<path class="st3" d="M51.9,95.9c-5.5,0-9.9,4.4-9.9,9.9c0,1.5,0.3,2.9,0.9,4.2c-1-1.5-1.6-3.4-1.6-5.3c0-5.5,4.4-9.9,9.9-9.9
			c3.9,0,7.3,2.3,8.9,5.7C58.4,97.7,55.4,95.9,51.9,95.9z"/>
	</g>
	<g id="Layer_5_1_">
		<path class="st13" d="M72.8,126.1L72.8,126.1c1.1-1.1,1.6-2.6,1-3.2l-10.5-9.7c-0.6-0.6-1.6-0.6-2.7,0.5l0,0
			c-1.1,1.1-1.1,2.1-0.5,2.7l9.7,10.5C70.2,127.7,71.6,127.2,72.8,126.1z"/>
	</g>
	<g id="Layer_6_1_">
		<polygon class="st9" points="71.6,121 67.7,124.9 62.9,119.7 66.4,116.2 		"/>
	</g>
</g>
<path class="st4" d="M66.1,118.7c0,0-4.3,1-4.2,2.3c0.2,1.3,2.6,5.4,4.2,4.7C67.7,124.9,70.2,119.4,66.1,118.7z"/>
<g>
	<path class="st11" d="M81.6,89.7c0,0-0.1,0-0.1,0c-0.3-0.1-0.4-0.3-0.3-0.6c0-0.1,1-3.4,5.6-4.7c0.3-0.1,0.5,0.1,0.6,0.3
		c0.1,0.3-0.1,0.5-0.3,0.6c-4,1.2-4.9,3.9-4.9,4C82,89.6,81.8,89.7,81.6,89.7z"/>
</g>
<g>
	<path class="st11" d="M127.1,89.6c-0.2,0-0.3-0.1-0.4-0.3c-2.1-3.8-5.6-4.5-5.6-4.5c-0.3,0-0.5-0.3-0.4-0.6c0-0.3,0.3-0.5,0.6-0.4
		c0.2,0,4,0.7,6.4,5c0.1,0.2,0,0.5-0.2,0.7C127.3,89.6,127.2,89.6,127.1,89.6z"/>
</g>
<g>
	<path class="st11" d="M90.9,155.9C90.8,155.9,90.8,155.9,90.9,155.9c-2.7-0.3-5.3-2.4-5.4-2.5c-0.2-0.2-0.2-0.5-0.1-0.7
		c0.2-0.2,0.5-0.2,0.7-0.1c0,0,2.5,2,4.9,2.3c0.3,0,0.5,0.3,0.4,0.5C91.3,155.7,91.1,155.9,90.9,155.9z"/>
</g>
<g>
	<path class="st11" d="M117.7,155.7c-0.2,0-0.4-0.2-0.5-0.4c-0.1-0.3,0.1-0.5,0.4-0.6c1.7-0.4,4.5-1.6,4.5-1.6
		c0.3-0.1,0.5,0,0.7,0.3c0.1,0.3,0,0.5-0.3,0.7c-0.1,0.1-2.9,1.3-4.7,1.7C117.8,155.7,117.8,155.7,117.7,155.7z"/>
</g>
<g>
	<path class="st11" d="M128.9,134.1c-0.4,0-0.8-0.2-1-0.5c-1.2-1.6-0.1-7.1,0.6-10.1L128,124c-0.2,0.2-0.5,0.2-0.7,0
		c-0.2-0.2-0.2-0.5,0-0.7l1.8-1.6c0.2-0.2,0.4-0.2,0.6-0.1c0.2,0.1,0.3,0.3,0.2,0.6c-1,3.6-2.1,9.7-1.2,10.9
		c0.1,0.1,0.1,0.1,0.2,0.1c0.3,0,0.5,0.2,0.5,0.5S129.1,134.1,128.9,134.1z"/>
</g>
<g>
	<path class="st11" d="M78.6,134.2c-0.3,0-0.5-0.2-0.5-0.5c0-0.3,0.2-0.5,0.5-0.5c0.1,0,0.2,0,0.3-0.2c1.1-1.5,0.1-8.9-0.8-13.2
		c0-0.2,0.1-0.4,0.3-0.5c0.2-0.1,0.4-0.1,0.6,0.1l1.4,1.4c0.2,0.2,0.2,0.5,0,0.7s-0.5,0.2-0.7,0l-0.2-0.2c0.6,3.3,1.7,10.6,0.2,12.4
		C79.4,134,79,134.2,78.6,134.2C78.6,134.2,78.6,134.2,78.6,134.2z"/>
</g>
<g>
	<path class="st11" d="M65.5,126.3c-0.4,0-0.8-0.1-1.3-0.4c-1.7-1.1-3.3-3.1-3-4.8c0.1-0.7,0.6-1.6,2.3-2.1c0.3-0.1,0.5,0.1,0.6,0.4
		c0.1,0.3-0.1,0.5-0.4,0.6c-0.9,0.2-1.5,0.7-1.6,1.3c-0.2,1.1,0.9,2.7,2.6,3.8c0.4,0.3,0.8,0.3,1.1,0.2c1.1-0.4,1.8-2.6,2-3.4
		c0.1-0.3,0.3-0.4,0.6-0.4c0.3,0.1,0.4,0.3,0.4,0.6c-0.1,0.3-0.9,3.4-2.6,4.1C66.1,126.3,65.8,126.3,65.5,126.3z"/>
</g>
</svg>
