<?xml version="1.0" encoding="UTF-8" standalone="no"?>
<svg width="78px" height="78px" viewBox="0 0 78 78" version="1.1" xmlns="http://www.w3.org/2000/svg" xmlns:xlink="http://www.w3.org/1999/xlink">
    <!-- Generator: Sketch 43.2 (39069) - http://www.bohemiancoding.com/sketch -->
    <title>Combined Shape</title>
    <desc>Created with Sketch.</desc>
    <defs></defs>
    <g id="Landing-page" stroke="none" stroke-width="1" fill="none" fill-rule="evenodd">
        <g id="Landing-Page_Desktop" transform="translate(-300.000000, -3505.000000)" fill="#4A4A4A">
            <g id="Coming-soon" transform="translate(0.000000, 3367.000000)">
                <g id="screenshot=chrome" transform="translate(300.000000, 132.000000)">
                    <path d="M14.4732522,76.3626765 C10.4786346,76.3626765 7.23662609,73.1324642 7.23662609,69.1523813 C7.23662609,65.1674914 10.4786346,61.9420861 14.4732522,61.9420861 C18.4678698,61.9420861 21.7098783,65.1674914 21.7098783,69.1523813 C21.7098783,73.1324642 18.4678698,76.3626765 14.4732522,76.3626765 M28.5759865,38.6373987 L39.6184479,46.3858445 L60.3032876,31.8761164 C62.4790999,30.3571475 65.5040096,30.8907094 67.0237011,33.053798 C68.5433925,35.2216934 68.0127066,38.2307899 65.8417188,39.7497588 L47.9990117,52.2664486 L48.0077775,52.2725995 L39.9488865,57.9136253 L28.5751904,65.8922927 C28.8181173,66.9398827 28.9465044,68.0311778 28.9465044,69.1523813 C28.9465044,77.1125472 22.4673118,83.5729717 14.4732522,83.5729717 C6.47919256,83.5729717 0,77.1125472 0,69.1523813 C0,61.1874085 6.47919256,54.7317908 14.4732522,54.7317908 C17.8299948,54.7317908 20.9196362,55.8700447 23.37463,57.7803433 L31.2399659,52.2630713 L23.3783058,46.7499435 C20.9227206,48.6625942 17.8316703,49.802833 14.4732522,49.802833 C6.47919256,49.802833 0,43.3424085 0,35.3822426 C0,27.4172698 6.47919256,20.9616522 14.4732522,20.9616522 C22.4673118,20.9616522 28.9465044,27.4172698 28.9465044,35.3822426 C28.9465044,36.5015448 28.8183978,37.591194 28.5759865,38.6373987 Z M65.8412364,64.781981 C68.0122242,66.296143 68.5477345,69.3052395 67.0232186,71.4779418 C65.5035271,73.6410304 62.4786174,74.1697854 60.3076296,72.6556234 L44.4787161,61.5517687 L52.8587292,55.6681679 L65.8412364,64.781981 Z M72.3662609,64.3431144 L72.3662609,54.7293874 L77.1906783,54.7293874 L77.1906783,64.3431144 L72.3662609,64.3431144 Z M21.7098783,35.3822426 C21.7098783,31.3973528 18.4678698,28.1719474 14.4732522,28.1719474 C10.4786346,28.1719474 7.23662609,31.3973528 7.23662609,35.3822426 C7.23662609,39.3623256 10.4786346,42.5925378 14.4732522,42.5925378 C18.4678698,42.5925378 21.7098783,39.3623256 21.7098783,35.3822426 Z M48.2441739,11.4676162 L48.2441739,6.66075269 L57.8930087,6.66075269 L57.8930087,11.4676162 L48.2441739,11.4676162 Z M72.3662609,35.5019335 L72.3662609,25.8882066 L77.1906783,25.8882066 L77.1906783,35.5019335 L72.3662609,35.5019335 Z M72.3662609,49.9225239 L72.3662609,40.308797 L77.1906783,40.308797 L77.1906783,49.9225239 L72.3662609,49.9225239 Z M72.3662609,76.3439297 L72.3662609,69.152862 L77.1906783,69.152862 L77.1906783,78.7665889 C77.1906783,81.4199775 75.0341637,83.5734524 72.3662609,83.5734524 L62.7174261,83.5734524 L62.7174261,78.7665889 L69.9395789,78.7665889 C71.2759425,78.7665889 72.3662609,77.6802378 72.3662609,76.3439297 Z M4.82441739,13.8777775 L4.82441739,21.0832659 L0,21.0832659 L0,11.4695389 C0,8.81134341 2.15651457,6.66267543 4.82441739,6.66267543 L14.4732522,6.66267543 L14.4732522,11.4695389 L7.2414505,11.4695389 C5.9099113,11.4695389 4.82441739,12.5462763 4.82441739,13.8777775 Z M33.7709217,83.5705683 L33.7709217,78.7637048 L43.4197565,78.7637048 L43.4197565,83.5705683 L33.7709217,83.5705683 Z M72.3662609,6.66315612 C75.0341637,6.66315612 77.1906783,8.81182409 77.1906783,11.4700196 L77.1906783,21.0837465 L72.3662609,21.0837465 L72.3662609,13.8590307 C72.3662609,12.5419501 71.2904158,11.4700196 69.9685254,11.4700196 L62.7174261,11.4700196 L62.7174261,6.66315612 L72.3662609,6.66315612 Z M33.7709217,11.4676162 L33.7709217,6.66075269 L43.4197565,6.66075269 L43.4197565,11.4676162 L33.7709217,11.4676162 Z M48.2441739,83.5705683 L48.2441739,78.7637048 L57.8930087,78.7637048 L57.8930087,83.5705683 L48.2441739,83.5705683 Z M19.2976696,11.4676162 L19.2976696,6.66075269 L28.9465044,6.66075269 L28.9465044,11.4676162 L19.2976696,11.4676162 Z" id="Combined-Shape"></path>
                </g>
            </g>
        </g>
    </g>
</svg>