<?xml version="1.0" encoding="UTF-8" standalone="no"?>
<svg width="476px" height="519px" viewBox="0 0 476 519" version="1.1" xmlns="http://www.w3.org/2000/svg" xmlns:xlink="http://www.w3.org/1999/xlink">
    <!-- Generator: Sketch 43.2 (39069) - http://www.bohemiancoding.com/sketch -->
    <title>image</title>
    <desc>Created with Sketch.</desc>
    <defs>
        <circle id="path-1" cx="238" cy="238" r="238"></circle>
        <polygon id="path-3" points="10 0 582 0 572 496 0 496"></polygon>
        <rect id="path-5" x="0" y="0" width="394.391892" height="294.032787" rx="3"></rect>
        <filter x="-0.8%" y="-1.0%" width="101.5%" height="102.0%" filterUnits="objectBoundingBox" id="filter-6">
            <feMorphology radius="1" operator="dilate" in="SourceAlpha" result="shadowSpreadOuter1"></feMorphology>
            <feOffset dx="0" dy="0" in="shadowSpreadOuter1" result="shadowOffsetOuter1"></feOffset>
            <feColorMatrix values="0 0 0 0 0   0 0 0 0 0   0 0 0 0 0  0 0 0 0.3 0" type="matrix" in="shadowOffsetOuter1"></feColorMatrix>
        </filter>
        <rect id="path-7" x="118.844595" y="178.754098" width="370.060811" height="212.786885" rx="2"></rect>
        <mask id="mask-8" maskContentUnits="userSpaceOnUse" maskUnits="objectBoundingBox" x="0" y="0" width="370.060811" height="212.786885" fill="white">
            <use xlink:href="#path-7"></use>
        </mask>
    </defs>
    <g id="Landing-page" stroke="none" stroke-width="1" fill="none" fill-rule="evenodd">
        <g id="Landing-Page_Desktop" transform="translate(-794.000000, -2153.000000)">
            <g id="Sec-3" transform="translate(0.000000, 2067.000000)">
                <g id="image" transform="translate(794.000000, 86.000000)">
                    <g id="Circle">
                        <mask id="mask-2" fill="white">
                            <use xlink:href="#path-1"></use>
                        </mask>
                        <use id="Mask" fill="#D8D8D8" xlink:href="#path-1"></use>
                        <g id="Group-4" mask="url(#mask-2)">
                            <g transform="translate(-66.000000, -20.000000)">
                                <mask id="mask-4" fill="white">
                                    <use xlink:href="#path-3"></use>
                                </mask>
                                <use id="Rectangle-4" stroke="none" fill="#A1F6FF" fill-rule="evenodd" xlink:href="#path-3"></use>
                                <g id="Group-7" stroke="none" stroke-width="1" fill="none" fill-rule="evenodd" mask="url(#mask-4)">
                                    <g transform="translate(106.021734, 112.986815)">
                                        <g id="Rectangle" fill="none">
                                            <use fill="black" fill-opacity="1" filter="url(#filter-6)" xlink:href="#path-5"></use>
                                            <use fill="#FFFFFF" fill-rule="evenodd" xlink:href="#path-5"></use>
                                        </g>
                                        <rect id="Rectangle-5" fill="#D8D8D8" fill-rule="evenodd" x="262" y="26" width="132" height="25"></rect>
                                        <rect id="Rectangle-6" fill="#D8D8D8" fill-rule="evenodd" x="244.522973" y="28.3221362" width="34.8379505" height="17.1250126"></rect>
                                        <g id="Lorem-Ipsum" fill="none" transform="translate(109.772410, 77.594403)" stroke-width="1" fill-rule="evenodd">
                                            <g id="Group-5">
                                                <rect id="Rectangle-8" fill="#D4D4D4" x="0" y="0" width="174" height="29.6767241"></rect>
                                                <rect id="Rectangle-8-Copy" fill="#EBEBEB" x="0" y="36.2715517" width="174" height="10.5517241"></rect>
                                                <polygon id="Rectangle-8-Copy-3" fill="#EBEBEB" points="0 70.5646552 167.748503 70.5646552 167.748503 81.1163793 0 81.1163793"></polygon>
                                                <rect id="Rectangle-8-Copy-2" fill="#EBEBEB" x="0" y="53.4181034" width="160.976048" height="10.5517241"></rect>
                                                <rect id="Rectangle-8-Copy-4" fill="#EBEBEB" x="0" y="87.7112069" width="156.287425" height="10.5517241"></rect>
                                                <rect id="Rectangle-8-Copy-5" fill="#EBEBEB" x="52.0958084" y="104.857759" width="108.88024" height="10.5517241"></rect>
                                                <rect id="Rectangle-8-Copy-8" fill="#D4D4D4" x="0" y="104.857759" width="46.8862275" height="48.1422414"></rect>
                                                <rect id="Rectangle-8-Copy-6" fill="#EBEBEB" x="52.0958084" y="122.00431" width="112.526946" height="10.5517241"></rect>
                                                <rect id="Rectangle-8-Copy-7" fill="#EBEBEB" x="52.0958084" y="139.150862" width="100.023952" height="10.5517241"></rect>
                                            </g>
                                        </g>
                                    </g>
                                </g>
                                <rect id="Combined-Shape" stroke="none" fill-opacity="0.6" fill="#000000" fill-rule="evenodd" mask="url(#mask-4)" x="106.021734" y="164.326274" width="394.391892" height="242.690119"></rect>
                                <g id="Group" stroke="none" stroke-width="1" fill="none" fill-rule="evenodd" mask="url(#mask-4)">
                                    <g transform="translate(270.000000, 188.000000)" id="Menu">
                                        <g>
                                            <rect id="panel" fill="#F5F5F5" x="0" y="0" width="207.942519" height="61.984875" rx="1.3"></rect>
                                            <rect id="divider" fill="#C9C9C9" x="135.366502" y="0" width="1" height="61.984875"></rect>
                                            <g id="hover" transform="translate(8.154609, 6.524724)"></g>
                                            <g id="Page-shot-/-Menu-button" transform="translate(144.336572, 6.524724)" fill="#3E3D40">
                                                <text id="My-Shot" font-family="SFUIText-Regular, SF UI Text" font-size="10" font-weight="normal" line-spacing="12">
                                                    <tspan x="5.51025391" y="43.9166667">My Shots</tspan>
                                                </text>
                                                <g id="Page-shot-/-Menu-/-My-shot" transform="translate(8.897059, 0.000000)" fill-rule="evenodd">
                                                    <path d="M21.6956522,14.8695652 L16.1086957,14.8695652 L16.1086957,16.5217391 L21.6956522,16.5217391 L21.6956522,22.3043478 L16.1086957,22.3043478 L16.1086957,23.9565217 L21.6956522,23.9565217 L21.6956522,29.4673913 L23.3478261,29.4673913 L23.3478261,20.6521739 L28.9565217,20.6521739 L28.9565217,19 L23.3478261,19 L23.3478261,9.35869565 L21.6956522,9.35869565 L21.6956522,14.8695652 Z M14.4565217,19 L8.84782609,19 L8.84782609,20.6521739 L14.4565217,20.6521739 L14.4565217,19 Z M8.84782609,10.0830538 C8.84782609,9.53292446 9.28652579,9.08695652 9.84501943,9.08695652 L27.9593284,9.08695652 C28.5100631,9.08695652 28.9565217,9.53751297 28.9565217,10.0830538 L28.9565217,28.7430332 C28.9565217,29.2931625 28.517822,29.7391304 27.9593284,29.7391304 L9.84501943,29.7391304 C9.29428475,29.7391304 8.84782609,29.288574 8.84782609,28.7430332 L8.84782609,10.0830538 Z M14.4565217,19 L14.4782609,19 L14.4782609,20.6521739 L14.4565217,20.6521739 L14.4565217,29.4673913 L16.1086957,29.4673913 L16.1086957,23.9565217 L16.0869565,23.9565217 L16.0869565,22.3043478 L16.1086957,22.3043478 L16.1086957,16.5217391 L16.0869565,16.5217391 L16.0869565,14.8695652 L16.1086957,14.8695652 L16.1086957,9.35869565 L14.4565217,9.35869565 L14.4565217,19 Z" id="Combined-Shape"></path>
                                                </g>
                                            </g>
                                            <g id="Page-shot-/-Menu-button" transform="translate(71.760556, 6.524724)">
                                                <text id="My-Shot" font-family="SFUIText-Regular, SF UI Text" font-size="10" font-weight="normal" line-spacing="12" fill="#3E3D40">
                                                    <tspan x="11.8652344" y="43.9166667">Visible</tspan>
                                                </text>
                                                <g id="Page-shot-/-Menu-/-Visible" transform="translate(8.897059, 0.000000)" stroke-width="1" fill-rule="evenodd">
                                                    <g id="Page-1" transform="translate(5.630435, 8.260870)">
                                                        <polygon id="bg" fill="#00FDFF" points="1.60869565 19.8698696 24.1304348 19.8698696 24.1304348 1.69595652 1.60869565 1.69595652"></polygon>
                                                        <g id="frame">
                                                            <path d="M25.0241546,0 C25.4173913,0 25.7391304,0.37173913 25.7391304,0.826086957 L25.7391304,20.6521739 C25.7391304,21.1065217 25.4173913,21.4782609 25.0241546,21.4782609 L0.714975845,21.4782609 C0.32173913,21.4782609 0,21.1065217 0,20.6521739 L0,0.826086957 C0,0.37173913 0.32173913,0 0.714975845,0 L25.0241546,0 Z M1.60869565,19.826087 L24.1304348,19.826087 L24.1304348,1.65217391 L1.60869565,1.65217391 L1.60869565,19.826087 Z" fill="#3E3D40"></path>
                                                            <polygon id="Fill-6" fill="#004C66" points="1.60869565 21.4782609 24.1304348 21.4782609 24.1304348 19.826087 1.60869565 19.826087"></polygon>
                                                        </g>
                                                        <path d="M4.02173913,19.826087 L5.63043478,19.826087 L5.63043478,19 L4.02173913,19 L4.02173913,19.826087 Z M1.60869565,19.826087 L2.41304348,19.826087 L2.41304348,18.173913 L1.60869565,18.173913 L1.60869565,19.826087 Z M23.326087,19.826087 L24.1304348,19.826087 L24.1304348,18.173913 L23.326087,18.173913 L23.326087,19.826087 Z M2.40217391,19.0108696 L2.40217391,19.8152174 L3.22826087,19.8152174 L3.22826087,19.0108696 L2.40217391,19.0108696 Z M22.5108696,19.0108696 L22.5108696,19.8152174 L23.3369565,19.8152174 L23.3369565,19.0108696 L22.5108696,19.0108696 Z M1.60869565,17.3478261 L2.41304348,17.3478261 L2.41304348,14.8695652 L1.60869565,14.8695652 L1.60869565,17.3478261 Z M1.60869565,14.0434783 L2.41304348,14.0434783 L2.41304348,11.5652174 L1.60869565,11.5652174 L1.60869565,14.0434783 Z M1.60869565,7.43478261 L2.41304348,7.43478261 L2.41304348,4.95652174 L1.60869565,4.95652174 L1.60869565,7.43478261 Z M1.60869565,10.7391304 L2.41304348,10.7391304 L2.41304348,8.26086957 L1.60869565,8.26086957 L1.60869565,10.7391304 Z M23.326087,17.3478261 L24.1304348,17.3478261 L24.1304348,14.8695652 L23.326087,14.8695652 L23.326087,17.3478261 Z M23.326087,14.0434783 L24.1304348,14.0434783 L24.1304348,11.5652174 L23.326087,11.5652174 L23.326087,14.0434783 Z M23.326087,7.43478261 L24.1304348,7.43478261 L24.1304348,4.95652174 L23.326087,4.95652174 L23.326087,7.43478261 Z M23.326087,10.7391304 L24.1304348,10.7391304 L24.1304348,8.26086957 L23.326087,8.26086957 L23.326087,10.7391304 Z M3.2173913,1.65217391 L1.60869565,1.65217391 L1.60869565,2.47826087 L1.60869565,4.13043478 L2.41304348,4.13043478 L2.41304348,2.47826087 L3.2173913,2.47826087 L3.2173913,1.65217391 Z M4.02173913,2.47826087 L5.63043478,2.47826087 L5.63043478,1.65217391 L4.02173913,1.65217391 L4.02173913,2.47826087 Z M6.43478261,2.47826087 L8.84782609,2.47826087 L8.84782609,1.65217391 L6.43478261,1.65217391 L6.43478261,2.47826087 Z M12.8695652,2.47826087 L15.2826087,2.47826087 L15.2826087,1.65217391 L12.8695652,1.65217391 L12.8695652,2.47826087 Z M9.65217391,2.47826087 L12.0652174,2.47826087 L12.0652174,1.65217391 L9.65217391,1.65217391 L9.65217391,2.47826087 Z M19.3043478,2.47826087 L21.7173913,2.47826087 L21.7173913,1.65217391 L19.3043478,1.65217391 L19.3043478,2.47826087 Z M16.0869565,2.47826087 L18.5,2.47826087 L18.5,1.65217391 L16.0869565,1.65217391 L16.0869565,2.47826087 Z M6.43478261,19.826087 L8.84782609,19.826087 L8.84782609,19 L6.43478261,19 L6.43478261,19.826087 Z M12.8695652,19.826087 L15.2826087,19.826087 L15.2826087,19 L12.8695652,19 L12.8695652,19.826087 Z M9.65217391,19.826087 L12.0652174,19.826087 L12.0652174,19 L9.65217391,19 L9.65217391,19.826087 Z M19.3043478,19.826087 L21.7173913,19.826087 L21.7173913,19 L19.3043478,19 L19.3043478,19.826087 Z M16.0869565,19.826087 L18.5,19.826087 L18.5,19 L16.0869565,19 L16.0869565,19.826087 Z M24.1304348,1.65217391 L22.5217391,1.65217391 L22.5217391,2.47826087 L23.326087,2.47826087 L23.326087,4.13043478 L24.1304348,4.13043478 L24.1304348,1.65217391 Z" id="dash" fill="#00D1E6"></path>
                                                    </g>
                                                </g>
                                            </g>
                                            <g id="Page-shot-/-Menu-button" transform="translate(8.154609, 6.524724)">
                                                <text id="My-Shot" font-family="SFUIText-Regular, SF UI Text" font-size="10" font-weight="normal" line-spacing="12" fill="#3E3D40">
                                                    <tspan x="6.04736328" y="43.9166667">Full Page</tspan>
                                                </text>
                                                <g id="Page-shot-/-Menu-/-Full-page" transform="translate(8.897059, 0.000000)" stroke-width="1" fill-rule="evenodd">
                                                    <g id="Page-1" transform="translate(5.630435, 4.130435)">
                                                        <polygon id="bg" fill="#00FDFF" points="1.60869565 29.782913 24.1304348 29.782913 24.1304348 0.0437826087 1.60869565 0.0437826087"></polygon>
                                                        <g id="frame" transform="translate(0.000000, 4.130435)">
                                                            <path d="M25.0241546,0 C25.4173913,0 25.7391304,0.37173913 25.7391304,0.826086957 L25.7391304,20.6521739 C25.7391304,21.1065217 25.4173913,21.4782609 25.0241546,21.4782609 L0.714975845,21.4782609 C0.32173913,21.4782609 0,21.1065217 0,20.6521739 L0,0.826086957 C0,0.37173913 0.32173913,0 0.714975845,0 L25.0241546,0 Z M1.60869565,19.826087 L24.1304348,19.826087 L24.1304348,1.65217391 L1.60869565,1.65217391 L1.60869565,19.826087 Z" fill="#3E3D40"></path>
                                                            <polygon id="Fill-4" fill="#004C66" points="1.60869565 1.65217391 24.1304348 1.65217391 24.1304348 0 1.60869565 0"></polygon>
                                                            <polygon id="Fill-6" fill="#004C66" points="1.60869565 21.4782609 24.1304348 21.4782609 24.1304348 19.826087 1.60869565 19.826087"></polygon>
                                                        </g>
                                                        <path d="M4.02173913,29.7391304 L5.63043478,29.7391304 L5.63043478,28.9130435 L4.02173913,28.9130435 L4.02173913,29.7391304 Z M2.41304348,27.2608696 L1.60869565,27.2608696 L1.60869565,28.9130435 L1.60869565,29.7391304 L3.2173913,29.7391304 L3.2173913,28.9130435 L2.41304348,28.9130435 L2.41304348,27.2608696 Z M23.326087,27.2608696 L24.1304348,27.2608696 L24.1304348,28.9130435 L24.1304348,29.7391304 L22.5217391,29.7391304 L22.5217391,28.9130435 L23.326087,28.9130435 L23.326087,27.2608696 Z M1.60869565,26.4347826 L2.41304348,26.4347826 L2.41304348,23.9565217 L1.60869565,23.9565217 L1.60869565,26.4347826 Z M1.60869565,23.1304348 L2.41304348,23.1304348 L2.41304348,20.6521739 L1.60869565,20.6521739 L1.60869565,23.1304348 Z M1.60869565,19.826087 L2.41304348,19.826087 L2.41304348,17.3478261 L1.60869565,17.3478261 L1.60869565,19.826087 Z M1.60869565,16.5217391 L2.41304348,16.5217391 L2.41304348,14.0434783 L1.60869565,14.0434783 L1.60869565,16.5217391 Z M1.60869565,13.2173913 L2.41304348,13.2173913 L2.41304348,10.7391304 L1.60869565,10.7391304 L1.60869565,13.2173913 Z M1.60869565,5.7826087 L2.41304348,5.7826087 L2.41304348,3.30434783 L1.60869565,3.30434783 L1.60869565,5.7826087 Z M1.60869565,9.91304348 L2.41304348,9.91304348 L2.41304348,7.43478261 L1.60869565,7.43478261 L1.60869565,9.91304348 Z M23.326087,26.4347826 L24.1304348,26.4347826 L24.1304348,23.9565217 L23.326087,23.9565217 L23.326087,26.4347826 Z M23.326087,23.1304348 L24.1304348,23.1304348 L24.1304348,20.6521739 L23.326087,20.6521739 L23.326087,23.1304348 Z M23.326087,19.826087 L24.1304348,19.826087 L24.1304348,17.3478261 L23.326087,17.3478261 L23.326087,19.826087 Z M23.326087,16.5217391 L24.1304348,16.5217391 L24.1304348,14.0434783 L23.326087,14.0434783 L23.326087,16.5217391 Z M23.326087,13.2173913 L24.1304348,13.2173913 L24.1304348,10.7391304 L23.326087,10.7391304 L23.326087,13.2173913 Z M23.326087,5.7826087 L24.1304348,5.7826087 L24.1304348,3.30434783 L23.326087,3.30434783 L23.326087,5.7826087 Z M23.326087,9.91304348 L24.1304348,9.91304348 L24.1304348,7.43478261 L23.326087,7.43478261 L23.326087,9.91304348 Z M3.2173913,0 L1.60869565,0 L1.60869565,0.826086957 L1.60869565,2.47826087 L2.41304348,2.47826087 L2.41304348,0.826086957 L3.2173913,0.826086957 L3.2173913,0 Z M4.02173913,0.826086957 L5.63043478,0.826086957 L5.63043478,0 L4.02173913,0 L4.02173913,0.826086957 Z M6.43478261,0.826086957 L8.84782609,0.826086957 L8.84782609,0 L6.43478261,0 L6.43478261,0.826086957 Z M12.8695652,0.826086957 L15.2826087,0.826086957 L15.2826087,0 L12.8695652,0 L12.8695652,0.826086957 Z M9.65217391,0.826086957 L12.0652174,0.826086957 L12.0652174,0 L9.65217391,0 L9.65217391,0.826086957 Z M19.3043478,0.826086957 L21.7173913,0.826086957 L21.7173913,0 L19.3043478,0 L19.3043478,0.826086957 Z M16.0869565,0.826086957 L18.5,0.826086957 L18.5,0 L16.0869565,0 L16.0869565,0.826086957 Z M6.43478261,29.7391304 L8.84782609,29.7391304 L8.84782609,28.9130435 L6.43478261,28.9130435 L6.43478261,29.7391304 Z M12.8695652,29.7391304 L15.2826087,29.7391304 L15.2826087,28.9130435 L12.8695652,28.9130435 L12.8695652,29.7391304 Z M9.65217391,29.7391304 L12.0652174,29.7391304 L12.0652174,28.9130435 L9.65217391,28.9130435 L9.65217391,29.7391304 Z M19.3043478,29.7391304 L21.7173913,29.7391304 L21.7173913,28.9130435 L19.3043478,28.9130435 L19.3043478,29.7391304 Z M16.0869565,29.7391304 L18.5,29.7391304 L18.5,28.9130435 L16.0869565,28.9130435 L16.0869565,29.7391304 Z M24.1304348,0 L22.5217391,0 L22.5217391,0.826086957 L23.326087,0.826086957 L23.326087,2.47826087 L24.1304348,2.47826087 L24.1304348,0 Z" id="dash" fill="#00D1E6"></path>
                                                    </g>
                                                </g>
                                            </g>
                                        </g>
                                    </g>
                                </g>
                                <g id="Rectangle-7" stroke="none" fill="none" stroke-dasharray="8" mask="url(#mask-4)" stroke-width="6">
                                    <use stroke="#00FDFF" mask="url(#mask-8)" xlink:href="#path-7"></use>
                                </g>
                                <path d="M474.37314,354.023364 L457.588009,356.16197 C455.256549,356.458138 454.281951,359.306169 455.945311,360.966085 L459.075735,364.096509 L451.888503,371.283741 C450.703832,372.468412 450.703832,374.386614 451.888503,375.571285 L456.365456,380.048238 C457.550127,381.232909 459.468329,381.232909 460.653,380.048238 L467.840232,372.861006 L470.591836,375.61261 C472.255197,377.275971 475.099784,376.301372 475.395952,373.973357 L477.534558,357.184782 C477.768737,355.349231 476.208691,353.789185 474.37314,354.023364" id="Fill-1-Copy-2" stroke="none" fill="#FEC34D" fill-rule="evenodd" mask="url(#mask-4)" transform="translate(464.278961, 367.468370) scale(1, -1) translate(-464.278961, -367.468370) "></path>
                                <path d="M152.37314,188.023364 L135.588009,190.16197 C133.256549,190.458138 132.281951,193.306169 133.945311,194.966085 L137.075735,198.096509 L129.888503,205.283741 C128.703832,206.468412 128.703832,208.386614 129.888503,209.571285 L134.365456,214.048238 C135.550127,215.232909 137.468329,215.232909 138.653,214.048238 L145.840232,206.861006 L148.591836,209.61261 C150.255197,211.275971 153.099784,210.301372 153.395952,207.973357 L155.534558,191.184782 C155.768737,189.349231 154.208691,187.789185 152.37314,188.023364" id="Fill-1-Copy" stroke="none" fill="#FEC34D" fill-rule="evenodd" mask="url(#mask-4)" transform="translate(142.278961, 201.468370) scale(-1, 1) translate(-142.278961, -201.468370) "></path>
                                <path d="M135.588009,356.16197 C133.256549,356.458138 132.281951,359.306169 133.945311,360.966085 L137.075735,364.096509 L129.888503,371.283741 C128.703832,372.468412 128.703832,374.386614 129.888503,375.571285 L134.365456,380.048238 C135.550127,381.232909 137.468329,381.232909 138.653,380.048238 L145.840232,372.861006 L148.591836,375.61261 C150.255197,377.275971 153.099784,376.301372 153.395952,373.973357 L155.534558,357.184782 C155.768737,355.349231 154.208691,353.789185 152.37314,354.023364 L135.588009,356.16197 Z" id="Fill-1-Copy-3" stroke="none" fill="#FEC34D" fill-rule="evenodd" mask="url(#mask-4)" transform="translate(142.278961, 367.468370) scale(-1, -1) translate(-142.278961, -367.468370) "></path>
                                <g id="Group-9" stroke="none" stroke-width="1" fill="none" fill-rule="evenodd" mask="url(#mask-4)">
                                    <g transform="translate(105.000000, 110.212872)">
                                        <path d="M0.766216701,3.19744786 C0.766216701,1.54304174 2.11722351,0.201880594 3.77054171,0.201880594 L392.228849,0.201880594 C393.888092,0.201880594 395.233174,1.54839676 395.233174,3.19744786 L395.233174,54.1299843 L0.766216701,54.1299843 L0.766216701,3.19744786 Z" id="Rectangle" fill="#EBEBEB"></path>
                                        <path d="M0.766216701,26.4242639 L395.233174,26.4242639 L395.233174,54.0797017 L0.766216701,54.0797017 L0.766216701,26.4242639 Z M153.278914,17.4362466 C154.308473,23.2272953 156.090806,26.4242639 161.825698,26.4242639 L31.6661284,26.4242639 C37.4010205,26.4242639 39.1694851,23.2272953 40.1983864,17.4362466 C40.8558313,13.7311093 41.8742135,7.06545743 50.5123824,7.06545743 L142.883395,7.06545743 C151.65371,7.06545743 152.621469,13.7311093 153.278914,17.4362466 Z" id="Browser" fill="#D8D8D8"></path>
                                        <circle id="Oval-4" fill="#C8C8CC" cx="297.5" cy="41.5" r="6.5"></circle>
                                        <circle id="Oval-4-Copy" fill="#C8C8CC" cx="322.5" cy="41.5" r="6.5"></circle>
                                        <circle id="Oval-4-Copy-2" fill="#C8C8CC" cx="347.5" cy="41.5" r="6.5"></circle>
                                        <circle id="Oval-4-Copy-3" fill="#C8C8CC" cx="372.5" cy="41.5" r="6.5"></circle>
                                        <rect id="Rectangle-4" fill="#FFFFFF" x="21.09831" y="33.5392538" width="221.558941" height="13.8277189" rx="3"></rect>
                                    </g>
                                </g>
                            </g>
                        </g>
                        <g id="Group-6" mask="url(#mask-2)">
                            <g transform="translate(139.000000, 225.000000)">
                                <path d="M32.6029363,6.56898903 C29.4927146,5.78050501 27.0516079,3.33839479 26.2634479,0.22689449 C26.1881896,-0.0756314966 25.7982146,-0.0756314966 25.7229563,0.22689449 C24.9347963,3.33839479 22.4936896,5.78050501 19.3834679,6.56898903 C19.0810663,6.64427831 19.0810663,7.03304473 19.3834679,7.1097029 C22.4936896,7.89818692 24.9347963,10.3402971 25.7229563,13.4517974 C25.7982146,13.7543234 26.1881896,13.7543234 26.2634479,13.4517974 C27.0516079,10.3402971 29.4927146,7.89818692 32.6029363,7.1097029 C32.9053379,7.03304473 32.9053379,6.64427831 32.6029363,6.56898903" id="Fill-48" fill="#FFC44D"></path>
                                <path d="M55.2184075,19.8151099 C49.7313908,18.4215739 45.4115625,14.0999696 44.0185992,8.61069722 C43.8776608,8.08093452 43.1975992,8.08093452 43.0676075,8.61069722 C41.6855908,14.0999696 37.3657625,18.4215739 31.8677992,19.8041587 C31.3396225,19.945155 31.3396225,20.6254962 31.8677992,20.7555413 C37.3548158,22.1490773 41.6746442,26.4706816 43.0676075,31.959954 C43.2085458,32.4897167 43.8886075,32.4897167 44.0185992,31.959954 C45.4115625,26.4706816 49.7313908,22.1490773 55.2184075,20.7555413 C55.7479525,20.6254962 55.7479525,19.945155 55.2184075,19.8151099" id="Fill-50" fill="#FFAA00"></path>
                                <path d="M35.50825,36.5139283 C27.2996183,34.4400511 20.841085,27.9679114 18.7571133,19.7559051 C18.56281,18.9674211 17.5475067,18.9674211 17.3422567,19.7559051 C15.2678633,27.9679114 8.79975167,34.4290999 0.59112,36.5139283 C-0.19704,36.7083115 -0.19704,37.7240323 0.59112,37.9293666 C8.79975167,40.0032439 15.258285,46.4753835 17.3422567,54.6873898 C17.53656,55.4758738 18.5518633,55.4758738 18.7571133,54.6873898 C20.8301383,46.4753835 27.2996183,40.014195 35.50825,37.9293666 C36.29641,37.7240323 36.29641,36.7083115 35.50825,36.5139283" id="Fill-52" fill="#FFC44D"></path>
                            </g>
                        </g>
                    </g>
                    <g id="bear" transform="translate(96.000000, 310.000000)" fill-rule="nonzero">
                        <ellipse id="Oval" fill="#D9F2F6" cx="138.381617" cy="194.592076" rx="89.3816166" ry="13.592076"></ellipse>
                        <g id="Group" transform="translate(72.000000, 0.000000)">
                            <path d="M34.6151553,57.2047942 C31.2435493,57.2047942 27.6471695,55.8519001 25.1746584,53.1461119 L4.27070098,32.1762534 C-0.899094943,26.9901594 -0.899094943,18.4218302 4.27070098,13.0102538 C9.4404969,7.82415977 17.9818989,7.82415977 23.3764685,13.0102538 L44.280426,33.9801122 C49.4502219,39.1662063 49.4502219,47.7345355 44.280426,53.1461119 C41.3583674,55.8519001 37.9867614,57.2047942 34.6151553,57.2047942 Z" id="Shape" fill="#009EC0"></path>
                            <path d="M98.2261226,58.1067236 C94.8545165,58.1067236 91.2581367,56.7538295 88.7856257,54.0480413 C83.6158297,48.8619473 83.6158297,40.293618 88.7856257,34.8820416 L109.689583,13.9121832 C114.859379,8.72608917 123.400781,8.72608917 128.795351,13.9121832 C133.965147,19.0982772 133.965147,27.6666065 128.795351,33.0781828 L107.891393,54.0480413 C105.194108,56.7538295 101.597729,58.1067236 98.2261226,58.1067236 Z" id="Shape" fill="#009EC0"></path>
                            <path d="M12.5873292,29.4704653 C5.84411713,33.7546299 7.19275955,160.250228 21.8030524,169.945969 C31.9178705,176.710439 102.721597,178.965263 113.510737,168.367592 C116.657569,165.210839 131.942183,87.8703936 124.299876,33.0781828 C122.501686,18.8727949 37.3124401,13.6867008 12.5873292,29.4704653 Z" id="Shape" fill="#009EC0"></path>
                            <path d="M15.0598403,136.123616 C15.0598403,136.123616 17.3075777,163.632463 21.8030524,176.484957 C26.2985271,189.337451 31.468323,195.650956 33.7160604,193.847098 C35.9637977,192.043239 33.7160604,151.681898 33.7160604,151.681898 L15.0598403,136.123616 Z" id="Shape" fill="#009EC0"></path>
                            <path d="M119.354854,136.123616 C119.354854,136.123616 117.107116,163.632463 112.611642,176.484957 C108.116167,189.337451 102.946371,195.650956 100.698634,193.847098 C98.4508963,192.043239 100.698634,151.681898 100.698634,151.681898 L119.354854,136.123616 Z" id="Shape" fill="#009EC0"></path>
                            <path d="M22.0278261,19.3237596 C22.0278261,19.3237596 50.1245431,10.7554303 57.9916238,9.85350091 C65.8587046,8.95157152 82.7167348,0.383242259 82.7167348,0.383242259 L78.6708075,9.40253621 L88.1113044,6.69674803 L88.1113044,11.6573597 L111.038225,17.9708655 L106.093203,24.7353359 L31.468323,24.7353359 L22.0278261,19.3237596 Z" id="Shape" fill="#009EC0"></path>
                            <path d="M26.2985271,28.7940182 C10.1148181,39.617171 20.2296362,141.30971 30.5692281,153.936722 C47.4272583,174.681098 98.9004438,173.102721 108.790488,149.87804 C110.363904,146.04484 125.873292,73.2140409 114.185058,33.0781828 C110.363904,20.225689 65.1843834,3.08903045 26.2985271,28.7940182 Z" id="Shape" fill="#00C6DB"></path>
                            <path d="M33.2665129,41.8719944 C34.6151553,41.8719944 35.739024,42.9994062 35.739024,44.3523003 L35.739024,49.7638767 C35.739024,51.1167708 34.6151553,52.2441825 33.2665129,52.2441825 L33.2665129,52.2441825 C31.9178705,52.2441825 30.7940018,51.1167708 30.7940018,49.7638767 L30.7940018,44.3523003 C30.7940018,42.9994062 31.9178705,41.8719944 33.2665129,41.8719944 L33.2665129,41.8719944 Z" id="Shape" fill="#363959"></path>
                            <path d="M93.7306478,41.8719944 C95.0792903,41.8719944 96.2031589,42.9994062 96.2031589,44.3523003 L96.2031589,49.7638767 C96.2031589,51.1167708 95.0792903,52.2441825 93.7306478,52.2441825 L93.7306478,52.2441825 C92.3820054,52.2441825 91.2581367,51.1167708 91.2581367,49.7638767 L91.2581367,44.3523003 C91.2581367,42.9994062 92.3820054,41.8719944 93.7306478,41.8719944 L93.7306478,41.8719944 Z" id="Shape" fill="#363959"></path>
                            <path d="M33.3336855,59.0225111 C27.7143421,59.0225111 25.0170572,54.7383465 24.7922835,54.5128641 C24.1179623,53.3854524 24.342736,52.0325583 25.4666047,51.3561112 C26.5904734,50.6796642 27.9391158,50.9051465 28.613437,52.0325583 C28.613437,52.2580406 30.1868532,54.5128641 33.3336855,54.5128641 C36.4805178,54.5128641 38.0539339,52.2580406 38.0539339,52.2580406 C38.7282551,51.1306289 40.0768976,50.9051465 41.2007662,51.5815936 C42.3246349,52.2580406 42.5494086,53.6109347 41.8750874,54.7383465 C41.6503137,54.7383465 38.9530289,59.0225111 33.3336855,59.0225111 Z" id="Shape" fill="#009EC0" transform="translate(33.333685, 54.999060) rotate(-180.000000) translate(-33.333685, -54.999060) "></path>
                            <path d="M94.4885866,58.8921888 C88.8692432,58.8921888 86.1719583,54.6080242 85.9471846,54.3825418 C85.2728634,53.2551301 85.4976371,51.902236 86.6215058,51.2257889 C87.7453745,50.5493419 89.0940169,50.7748242 89.7683381,51.902236 C89.7683381,52.1277183 91.3417543,54.3825418 94.4885866,54.3825418 C97.6354189,54.3825418 99.208835,52.1277183 99.208835,52.1277183 C99.8831562,51.0003066 101.231799,50.7748242 102.355667,51.4512713 C103.479536,52.1277183 103.70431,53.4806124 103.029989,54.6080242 C102.805215,54.6080242 99.8831562,58.8921888 94.4885866,58.8921888 Z" id="Shape" fill="#009EC0" transform="translate(94.488587, 54.868738) rotate(-180.000000) translate(-94.488587, -54.868738) "></path>
                            <path d="M54.6536996,73.3081168 C54.2041521,72.180705 54.8784734,70.8278109 56.2271158,70.6023286 C56.4518895,70.6023286 69.1187499,70.3574839 70.0178449,66.524284 C70.6921661,63.5930135 69.873091,61.7391569 69.873091,61.7391569 C69.6483173,60.6117452 70.3226385,59.4843334 71.2217334,59.0333687 C72.3456021,58.582404 73.4694708,59.2588511 73.9190183,60.1607805 C74.8181132,61.9646393 76.3915294,64.8959098 77.515398,65.5723568 C79.7631354,66.9252509 83.9966978,63.7763707 88.016191,61.7554078 C88.016191,61.7554078 90.2529796,60.9278003 90.9382496,63.1083019 C91.4677868,64.2387313 90.4662167,65.5840293 89.5896071,66.0395724 C85.4542704,68.8803468 78.414493,71.4348979 75.0428869,69.4055568 C74.8181132,69.1800744 74.143792,68.7291097 74.143792,68.7291097 C71.419852,75.273 58.2089812,74.6879602 57.7594338,74.6879602 C57.3098863,74.6879602 55.4996784,74.9179264 54.6536996,73.3081168 Z" id="Shape" fill="#009EC0" transform="translate(72.800332, 66.795624) rotate(13.000000) translate(-72.800332, -66.795624) "></path>
                            <g transform="translate(58.441171, 47.477957)" id="Shape" fill="#363959">
                                <path d="M3.1468323,9.27587237 C1.79818989,10.8542488 12.3625555,13.3345546 13.7111979,13.1090723 C15.7341615,12.6581076 24.5003372,6.11911948 23.1516948,2.9623666 C22.7021473,1.15850781 8.54140196,3.41333129 3.1468323,9.27587237 Z"></path>
                                <path d="M13.4864241,15.1384134 C10.7891393,15.1384134 2.47251109,13.3345546 0.899094943,10.8542488 C0.224773736,9.72683706 0.449547472,8.59942532 1.34864241,7.69749592 L1.34864241,7.69749592 C6.51843834,2.0604372 18.6562201,-0.645350984 22.7021473,0.256578411 C24.2755635,0.48206076 24.9498847,1.38399016 25.1746584,2.0604372 C25.6242059,3.41333129 25.3994321,4.76622539 24.5003372,6.34460183 C22.4773736,9.95231941 16.183709,14.6874487 13.9359716,15.1384134 C13.9359716,15.1384134 13.9359716,15.1384134 13.4864241,15.1384134 Z M6.51843834,9.27587237 C8.7661757,9.95231941 12.3625555,10.8542488 13.2616504,10.8542488 C14.6102928,10.4032841 19.1057675,6.79556653 20.45441,4.76622539 C17.5323514,4.76622539 10.7891393,6.11911948 6.51843834,9.27587237 Z"></path>
                            </g>
                        </g>
                        <path d="M254.912228,37.5114308 C251.94832,35.5230221 248.965786,33.9668857 247.159478,33.9668857 C237.294947,24.1033043 210.771842,93.8603264 210.155417,95.0959697 C200.292618,114.866262 209.847205,113.93953 212.621117,110.850421 C215.395029,107.761313 244.077354,49.1035157 244.077354,49.1035157 L252.39909,51.2658915 C259.018228,53.0520047 262.693391,49.1475903 263.771969,46.8643066 L266.980674,46.3098281 C268.521736,46.0009173 269.754586,44.1474524 269.446373,42.6028983 C269.138161,41.0583442 267.288886,39.822701 265.747824,40.1316118 L264.294136,40.3828154 C265.178663,39.5286673 265.585432,38.1938382 265.122299,37.0333837 C264.505875,35.4888296 262.6566,34.5620972 261.115537,35.1799188 L254.912228,37.5114308 Z" id="Combined-Shape" fill="#009EC0" transform="translate(237.643328, 72.779802) rotate(34.000000) translate(-237.643328, -72.779802) "></path>
                        <path d="M61.9039328,46.144192 C58.9400256,44.1557834 55.9574915,42.5996469 54.1511836,42.5996469 C44.2866527,32.7360655 19.3361539,96.9580334 18.719729,98.1936767 C8.85692992,117.963969 18.4115165,117.037237 21.1854288,113.948128 C23.959341,110.85902 51.0690589,57.736277 51.0690589,57.736277 L59.3907956,59.8986527 C66.0099327,61.6847659 69.6850964,57.7803516 70.7636737,55.4970679 L73.9723788,54.9425894 C75.5134411,54.6336786 76.746291,52.7802137 76.4380785,51.2356596 C76.1298661,49.6911055 74.2805912,48.4554622 72.7395289,48.764373 L71.2858414,49.0155767 C72.1703678,48.1614286 72.5771371,46.8265995 72.1140047,45.666145 C71.4975797,44.1215909 69.6483049,43.1948584 68.1072425,43.81268 L61.9039328,46.144192 Z" id="Combined-Shape-Copy" fill="#009EC0" transform="translate(45.421336, 78.607774) scale(-1, 1) rotate(30.000000) translate(-45.421336, -78.607774) "></path>
                    </g>
                </g>
            </g>
        </g>
    </g>
</svg>