<?xml version="1.0" encoding="UTF-8" standalone="no"?>
<svg width="1230px" height="458px" viewBox="0 0 1230 458" version="1.1" xmlns="http://www.w3.org/2000/svg" xmlns:xlink="http://www.w3.org/1999/xlink">
    <!-- Generator: Sketch 43.2 (39069) - http://www.bohemiancoding.com/sketch -->
    <title>Image</title>
    <desc>Created with Sketch.</desc>
    <defs>
        <polygon id="path-1" points="176.407551 0 176.407551 37.6040793 0 37.6040793 0 0"></polygon>
        <polygon id="path-3" points="136.884548 0 136.884548 29.1791217 0 29.1791217 0 0"></polygon>
        <polygon id="path-5" points="0 13.2763063 0 26.4602171 318.961853 26.4602171 318.961853 13.2763063 318.961853 0.0923955737 0 0.0923955737"></polygon>
        <rect id="path-7" x="0" y="0" width="254" height="154"></rect>
        <path d="M166.761765,156.40202 C166.761765,145.759596 150.009109,89 127.380882,89 C104.752656,89 88,145.759596 88,156.40202 C88,167.044444 166.761765,167.044444 166.761765,156.40202 Z" id="path-9"></path>
        <mask id="mask-10" maskContentUnits="userSpaceOnUse" maskUnits="objectBoundingBox" x="-3" y="-3" width="84.7617647" height="81.3838384">
            <rect x="85" y="86" width="84.7617647" height="81.3838384" fill="white"></rect>
            <use xlink:href="#path-9" fill="black"></use>
        </mask>
        <mask id="mask-11" maskContentUnits="userSpaceOnUse" maskUnits="objectBoundingBox" x="0" y="0" width="78.7617647" height="75.3838384" fill="white">
            <use xlink:href="#path-9"></use>
        </mask>
        <path d="M262,152.545455 C262,137.272727 230.5,35.4545455 199,35.4545455 C167.5,35.4545455 136,137.272727 136,152.545455 C136,167.818182 262,167.818182 262,152.545455 Z" id="path-12"></path>
        <polygon id="path-13" points="128 192 382 192 382 221 382 346 128 346"></polygon>
        <mask id="mask-14" maskContentUnits="userSpaceOnUse" maskUnits="objectBoundingBox" x="0" y="0" width="254" height="154" fill="white">
            <use xlink:href="#path-13"></use>
        </mask>
        <mask id="mask-16" maskContentUnits="userSpaceOnUse" maskUnits="objectBoundingBox" x="0" y="0" width="254" height="154" fill="white">
            <use xlink:href="#path-13"></use>
        </mask>
        <polygon id="path-17" points="93.5056419 0 93.5056419 20.2009304 0 20.2009304 0 0"></polygon>
    </defs>
    <g id="Landing-page" stroke="none" stroke-width="1" fill="none" fill-rule="evenodd">
        <g id="Landing-Page_Desktop" transform="translate(-163.000000, -143.000000)">
            <g id="Banner" transform="translate(1.000000, 83.000000)">
                <g id="Image" transform="translate(162.000000, 60.000000)">
                    <g id="left-Cloud" transform="translate(0.000000, 2.000000)">
                        <path d="M3,42.6944279 L45.3279659,42.6944279 C45.3279659,42.6944279 32.0860683,13.1315583 60.203122,9.31133007 C85.2802829,5.90083007 95.1931463,31.635667 95.1931463,31.635667 C95.1931463,31.635667 98.1666146,16.7878953 113.080844,19.6286779 C127.784078,22.4304388 138.642512,46.0502975 138.642512,46.0502975 L175.504141,46.0502975" id="Fill-12" fill="#A1F5FD"></path>
                        <g id="Group-16" transform="translate(2.590244, 0.119661)">
                            <mask id="mask-2" fill="white">
                                <use xlink:href="#path-1"></use>
                            </mask>
                            <g id="Clip-15"></g>
                            <path d="M44.2816244,37.6057962 L1.95365854,37.6057962 C0.871331707,37.6057962 0,36.7317092 0,35.6547092 C0,34.5777092 0.871331707,33.7036223 1.95365854,33.7036223 L41.4449122,33.7036223 C39.7921171,28.8376114 37.2250098,18.4968505 41.726239,10.407644 C44.8169268,4.85094835 50.5919415,1.46386139 58.8910829,0.336133131 C78.6191268,-2.38758426 89.5674293,12.112894 93.8381268,19.6128723 C96.4911951,14.2981114 102.227137,8.72190487 112.397883,10.6729918 C126.026605,13.2679375 136.209073,28.9468723 138.721478,33.1534157 L174.453893,33.1534157 C175.532312,33.1534157 176.407551,34.0275027 176.407551,35.1045027 C176.407551,36.1854049 175.532312,37.0555897 174.453893,37.0555897 L137.592263,37.0555897 C136.881132,37.0555897 136.224702,36.6692744 135.880859,36.0488288 C135.779268,35.8576223 125.284215,17.0998723 111.667215,14.5049266 C98.7769756,12.0153397 96.1668878,24.4476657 96.0574829,24.9783614 C95.8894683,25.8290353 95.1744293,26.4650897 94.3109122,26.539231 C93.4552098,26.6094701 92.6346732,26.1099918 92.3220878,25.2983397 C91.9352634,24.3110897 82.6280341,1.05413313 59.4185707,4.1992853 C52.4127512,5.15531791 47.6106585,7.8790353 45.1490488,12.292394 C40.124239,21.2986114 46.0047512,34.7259918 46.0672683,34.8586657 C46.3329659,35.4635027 46.2782634,36.1619918 45.9187902,36.7161005 C45.5593171,37.2702092 44.941961,37.6057962 44.2816244,37.6057962" id="Fill-14" fill="#04BFD3" mask="url(#mask-2)"></path>
                        </g>
                        <path d="M3.90731707,49.8043478 C1.74657073,49.8043478 1.42108547e-14,48.0600761 1.42108547e-14,45.9021739 C1.42108547e-14,43.7442717 1.74657073,42 3.90731707,42 L178.36121,42 C180.518049,42 182.268527,43.7442717 182.268527,45.9021739 C182.268527,48.0600761 180.518049,49.8043478 178.36121,49.8043478 L3.90731707,49.8043478 Z" id="Fill-17" fill="#A1F5FD"></path>
                    </g>
                    <g id="Cloud" transform="translate(1050.000000, 76.000000)">
                        <path d="M2.32786885,33.1290096 L35.17252,33.1290096 C35.17252,33.1290096 24.8973863,10.1895152 46.7149908,7.22518508 C66.1737715,4.57878617 73.8657201,24.5478946 73.8657201,24.5478946 C73.8657201,24.5478946 76.1730015,13.0266728 87.7457914,15.230996 C99.1548584,17.4050399 107.580529,35.7330177 107.580529,35.7330177 L136.183541,35.7330177" id="Fill-12" fill="#A1F5FD"></path>
                        <g id="Group-16" transform="translate(2.009916, 0.092852)">
                            <mask id="mask-4" fill="white">
                                <use xlink:href="#path-3"></use>
                            </mask>
                            <g id="Clip-15"></g>
                            <path d="M34.3606047,29.1804539 L1.51595362,29.1804539 C0.676115314,29.1804539 0,28.5022006 0,27.6664957 C0,26.8307908 0.676115314,26.1525375 1.51595362,26.1525375 L32.1594401,26.1525375 C30.8769433,22.3767258 28.8849802,14.3527474 32.3777374,8.07587677 C34.775976,3.76412385 39.2571349,1.13589245 45.6969059,0.260824615 C61.0050055,-1.85266101 69.5004096,9.39907622 72.8142842,15.2187315 C74.8729492,11.0947094 79.323789,6.76781689 87.2158436,8.28177508 C97.791136,10.2953395 105.692286,22.4615074 107.641803,25.7256013 L135.368594,25.7256013 C136.205401,25.7256013 136.884548,26.4038546 136.884548,27.2395595 C136.884548,28.0782923 136.205401,28.7535177 135.368594,28.7535177 L106.765581,28.7535177 C106.213774,28.7535177 105.704414,28.4537539 105.437606,27.9723152 C105.358776,27.8239473 97.2150737,13.2687533 86.6488769,11.255189 C76.646615,9.32337831 74.6213009,18.9703199 74.5364075,19.3821165 C74.4060355,20.0422023 73.8511965,20.5357526 73.181145,20.593283 C72.5171573,20.6477855 71.8804568,20.2602122 71.6379042,19.6304056 C71.3377454,18.8643428 64.1157423,0.817961227 46.1062134,3.25846182 C40.6700037,4.00030133 36.9437897,6.11378696 35.0336881,9.53836037 C31.1346554,16.5267914 35.6976758,26.9458516 35.7461863,27.0488007 C35.952356,27.5181278 35.9099093,28.0601248 35.6309739,28.4900889 C35.3520384,28.9200531 34.872997,29.1804539 34.3606047,29.1804539" id="Fill-14" fill="#04BFD3" mask="url(#mask-4)"></path>
                        </g>
                        <path d="M3.03190724,38.6459967 C1.35526253,38.6459967 -1.42108547e-14,37.2925181 -1.42108547e-14,35.6180803 C-1.42108547e-14,33.9436426 1.35526253,32.5901639 3.03190724,32.5901639 L138.400502,32.5901639 C140.074114,32.5901639 141.432409,33.9436426 141.432409,35.6180803 C141.432409,37.2925181 140.074114,38.6459967 138.400502,38.6459967 L3.03190724,38.6459967 Z" id="Fill-17" fill="#A1F5FD"></path>
                    </g>
                    <g id="Line-" transform="translate(412.000000, 85.000000)" fill="#04BFD3">
                        <path d="M3.90731707,21.8043478 C1.75047805,21.8043478 0,20.0600761 0,17.9021739 C0,15.7442717 1.75047805,14 3.90731707,14 L254.108459,14 C256.265298,14 258.015776,15.7442717 258.015776,17.9021739 C258.015776,20.0600761 256.265298,21.8043478 254.108459,21.8043478 L3.90731707,21.8043478 Z" id="Fill-1"></path>
                        <path d="M92.9536585,3.90217391 C91.875239,3.90217391 91,3.02808696 91,1.95108696 C91,0.874086957 91.875239,0 92.9536585,0 L213.088029,0 C214.166449,0 215.041688,0.874086957 215.041688,1.95108696 C215.041688,3.02808696 214.166449,3.90217391 213.088029,3.90217391 L92.9536585,3.90217391 Z" id="Fill-3"></path>
                    </g>
                    <g id="Line" transform="translate(869.000000, 279.000000)" fill="#04BFD3">
                        <path d="M297.034576,24.8043478 L59.9073171,24.8043478 C57.7465707,24.8043478 56,23.0600761 56,20.9021739 C56,18.7442717 57.7465707,17 59.9073171,17 L297.034576,17 C299.191415,17 300.941893,18.7442717 300.941893,20.9021739 C300.941893,23.0600761 299.191415,24.8043478 297.034576,24.8043478" id="Fill-19"></path>
                        <path d="M264.943268,3.90217391 L159.953659,3.90217391 C158.875239,3.90217391 158,3.02808696 158,1.95108696 C158,0.874086957 158.875239,0 159.953659,0 L264.943268,0 C266.021688,0 266.896927,0.874086957 266.896927,1.95108696 C266.896927,3.02808696 266.021688,3.90217391 264.943268,3.90217391" id="Fill-21"></path>
                        <path d="M358.820649,40.9021739 L1.95365854,40.9021739 C0.875239024,40.9021739 0,40.028087 0,38.951087 C0,37.874087 0.875239024,37 1.95365854,37 L358.820649,37 C359.899068,37 360.774307,37.874087 360.774307,38.951087 C360.774307,40.028087 359.899068,40.9021739 358.820649,40.9021739" id="Fill-23"></path>
                    </g>
                    <g id="Bear-and-window" transform="translate(557.000000, 0.000000)">
                        <g id="Page-1">
                            <path d="M2.3793926,64.9270556 L2.3793926,392.016466 C2.3793926,398.479989 7.97855873,403.722718 14.8823849,403.722718 L421.003829,403.722718 C427.907655,403.722718 433.506822,398.48417 433.506822,392.016466 L433.506822,65.6127075 L2.3793926,64.9270556 Z" id="Fill-1" fill="#5EE0ED"></path>
                            <path d="M4.47186663,67.0162035 L4.47186663,392.015211 C4.47186663,397.320652 9.13853534,401.635242 14.879876,401.635242 L421.00132,401.635242 C426.742661,401.635242 431.417693,397.320652 431.417693,392.015211 L431.417693,67.0162035 L4.47186663,67.0162035 Z M421.00132,405.816047 L14.879876,405.816047 C6.83447221,405.816047 0.290263847,399.628456 0.290263847,392.015211 L0.290263847,62.8353991 L435.599296,62.8353991 L435.599296,392.015211 C435.599296,399.628456 429.050906,405.816047 421.00132,405.816047 L421.00132,405.816047 Z" id="Fill-3" fill="#04BFD3"></path>
                            <path d="M433.505149,62.9758742 L433.505149,15.5739143 C433.505149,8.12790176 427.466915,2.09082026 420.01948,2.09082026 L15.8633889,2.09082026 C8.41595438,2.09082026 2.37771996,8.12790176 2.37771996,15.5739143 L2.37771996,62.9758742 L2.37771996,64.9283098 L433.505149,64.9283098 L433.505149,62.9758742 Z" id="Fill-5" fill="#04D1E6"></path>
                            <path d="M4.47186663,62.8353991 L431.417693,62.8353991 L431.417693,15.5714058 C431.413511,9.29183769 426.299411,4.18289476 420.018644,4.18289476 L15.8667342,4.18289476 C9.58596684,4.18289476 4.47186663,9.29183769 4.47186663,15.5714058 L4.47186663,62.8353991 Z M435.599296,67.0162035 L0.290263847,67.0162035 L0.290263847,15.5714058 C0.290263847,6.98821449 7.2777221,0.00209040218 15.8667342,0.00209040218 L420.018644,0.00209040218 C428.603474,0.00209040218 435.595114,6.98821449 435.599296,15.5714058 L435.599296,67.0162035 Z" id="Fill-7" fill="#04BFD3"></path>
                            <path d="M29.4059277,65.6135436 L29.4059277,363.88885 C29.4059277,369.930112 34.3025846,374.830015 40.340819,374.830015 L395.542886,374.830015 C401.581121,374.830015 406.477777,369.930112 406.477777,363.88885 L406.477777,65.6135436 L29.4059277,65.6135436 Z" id="Fill-9" fill="#A1F7FF"></path>
                            <rect id="Rectangle-2-Copy-2" fill="#5FDFEC" opacity="0.328999534" x="46" y="85" width="343.110745" height="62.8374895" rx="2"></rect>
                            <rect id="Rectangle-2-Copy-3" fill="#5FDFEC" opacity="0.328999534" x="46" y="171" width="59" height="76.4493408" rx="2"></rect>
                            <rect id="Rectangle-2-Copy-4" fill="#5FDFEC" opacity="0.328999534" x="46" y="263" width="59" height="20.5904615" rx="2"></rect>
                            <rect id="Rectangle-2-Copy-5" fill="#5FDFEC" opacity="0.328999534" x="46" y="297" width="59" height="20.5904615" rx="2"></rect>
                            <rect id="Rectangle-2-Copy-6" fill="#5FDFEC" opacity="0.328999534" x="46" y="330" width="59" height="20.5904615" rx="2"></rect>
                            <path d="M31.4971473,67.7060362 L31.4971473,363.88676 C31.4971473,368.769939 35.4654883,372.741703 40.3412372,372.741703 L395.547486,372.741703 C400.423235,372.741703 404.387394,368.769939 404.387394,363.88676 L404.387394,67.7060362 L31.4971473,67.7060362 Z M395.547486,376.922508 L40.3412372,376.922508 C33.1572436,376.922508 27.3155445,371.077743 27.3155445,363.88676 L27.3155445,63.5252319 L408.568997,63.5252319 L408.568997,363.88676 C408.568997,371.077743 402.723116,376.922508 395.547486,376.922508 L395.547486,376.922508 Z" id="Fill-11" fill="#04BFD3"></path>
                            <path d="M37.6662659,24.5647341 C42.696734,24.5647341 46.7737968,28.6410184 46.7737968,33.670526 C46.7737968,38.6958528 42.696734,42.7721371 37.6662659,42.7721371 C32.6357977,42.7721371 28.558735,38.6958528 28.558735,33.670526 C28.558735,28.6410184 32.6357977,24.5647341 37.6662659,24.5647341" id="Fill-13" fill="#04BFD3"></path>
                            <path d="M67.0374257,24.5647341 C72.0678939,24.5647341 76.1449566,28.6410184 76.1449566,33.670526 C76.1449566,38.6958528 72.0678939,42.7721371 67.0374257,42.7721371 C62.0069575,42.7721371 57.9298948,38.6958528 57.9298948,33.670526 C57.9298948,28.6410184 62.0069575,24.5647341 67.0374257,24.5647341" id="Fill-15" fill="#04BFD3"></path>
                            <path d="M319.49584,43.9636663 L116.387029,43.9636663 C110.946764,43.9636663 106.530991,39.5529177 106.530991,34.1095105 L106.530991,33.2273607 C106.530991,27.7881343 110.946764,23.3732049 116.387029,23.3732049 L319.49584,23.3732049 C324.940287,23.3732049 329.351878,27.7881343 329.351878,33.2273607 L329.351878,34.1095105 C329.351878,39.5529177 324.940287,43.9636663 319.49584,43.9636663" id="Fill-17" fill="#04BFD3"></path>
                            <path d="M368.847116,24.5647341 C373.877584,24.5647341 377.954647,28.6410184 377.954647,33.670526 C377.954647,38.6958528 373.877584,42.7721371 368.847116,42.7721371 C363.816648,42.7721371 359.739585,38.6958528 359.739585,33.670526 C359.739585,28.6410184 363.816648,24.5647341 368.847116,24.5647341" id="Fill-19" fill="#04BFD3"></path>
                            <path d="M398.218276,24.5647341 C403.248744,24.5647341 407.325807,28.6410184 407.325807,33.670526 C407.325807,38.6958528 403.248744,42.7721371 398.218276,42.7721371 C393.187808,42.7721371 389.110745,38.6958528 389.110745,33.670526 C389.110745,28.6410184 393.187808,24.5647341 398.218276,24.5647341" id="Fill-21" fill="#04BFD3"></path>
                            <g id="Group-25" opacity="0.7" transform="translate(57.500000, 430.812148)">
                                <mask id="mask-6" fill="white">
                                    <use xlink:href="#path-5"></use>
                                </mask>
                                <g id="Clip-24"></g>
                                <path d="M0,13.2769153 C0,20.5573279 71.40187,26.461435 159.480927,26.461435 C247.559983,26.461435 318.961853,20.5573279 318.961853,13.2769153 C318.961853,5.99650267 247.559983,0.0923955737 159.480927,0.0923955737 C71.40187,0.0923955737 0,5.99650267 0,13.2769153" id="Fill-23" fill="#03C0D3" mask="url(#mask-6)"></path>
                            </g>
                        </g>
                        <g id="Shadow" transform="translate(132.000000, 103.000000)" fill-opacity="0.7" fill-rule="nonzero" fill="#8AE1E9">
                            <path d="M38.0807747,18.6538932 C35.8798914,19.5211397 25.3156514,28.9163105 27.0763581,55.2227885 C28.8370647,80.9511021 5.50770144,76.7594106 23.2614936,107.835744 C27.0763581,114.629176 73.4416335,125.325216 81.8049901,120.266278 C84.2993246,118.820867 113.350985,66.6415344 100.879312,31.9516733 C96.7709968,20.5329274 72.4145546,4.19978441 38.0807747,18.6538932 Z" id="Shape-Copy" transform="translate(60.267580, 67.275637) scale(-1, 1) rotate(21.000000) translate(-60.267580, -67.275637) "></path>
                            <path d="M72.5332052,32.0980124 C71.3594008,32.0980124 70.3323219,31.9534713 69.1585175,31.5198481 L53.0187064,25.0154991 C48.4702142,23.136465 46.4160564,18.0775269 48.1767631,13.7412942 C50.0841953,9.26052051 55.2195897,7.23694528 59.6213564,8.97143834 L75.7611675,15.4757873 C80.3096597,17.3548214 82.3638174,22.4137595 80.6031108,26.7499922 C79.2825808,30.0744372 76.0546186,32.0980124 72.5332052,32.0980124 Z" id="Shape" transform="translate(64.389937, 20.226010) scale(-1, 1) rotate(24.000000) translate(-64.389937, -20.226010) "></path>
                        </g>
                        <g id="Group-11" transform="translate(173.614915, 180.364296) scale(-1, 1) rotate(19.000000) translate(-173.614915, -180.364296) translate(118.114915, 112.364296)" fill-rule="nonzero">
                            <path d="M30.478031,34.9178382 C29.3042265,34.9178382 28.2771476,34.7732971 27.1033432,34.3396738 L10.9635321,27.8353249 C6.41503991,25.9562907 4.36088214,20.8973526 6.1215888,16.56112 C8.02902102,12.0803463 13.1644154,10.056771 17.5661821,11.7912641 L33.7059932,18.295613 C38.2544854,20.1746472 40.3086432,25.2335853 38.5479365,29.5698179 C37.2274065,32.8942629 33.9994443,34.9178382 30.478031,34.9178382 Z" id="Shape" fill="#009EC0"></path>
                            <ellipse id="Oval" fill-opacity="0.184584466" fill="#000000" cx="42.7177463" cy="129.057363" rx="42.550411" ry="6.35980787"></ellipse>
                            <path d="M64.5723897,33.6013476 C61.6378786,33.6013476 58.7033675,32.1559368 57.0893864,29.5541972 L46.8185975,13.3655953 C44.1775375,9.31844486 45.4980675,3.9704246 49.6063831,1.36868502 C53.7146986,-1.23305457 59.1435441,0.0678152257 61.7846041,4.11496569 L72.055393,20.3035675 C74.696453,24.350718 73.375923,29.6987383 69.2676075,32.3004778 C67.8003519,33.1677244 66.1863708,33.6013476 64.5723897,33.6013476 Z" id="Shape" fill="#009EC0"></path>
                            <path d="M22.5224824,14.6840178 C20.3215991,15.5512643 9.75735909,24.946435 11.5180658,51.2529131 C13.2787724,76.9812267 -10.0505909,72.7895352 7.70320132,103.865869 C11.5180658,110.6593 57.8833412,121.355341 66.2466978,116.296403 C68.7410323,114.850992 97.7926922,62.671659 85.32102,27.9817979 C81.2127045,16.5630519 56.8562623,0.229908996 22.5224824,14.6840178 Z" id="Shape" fill="#009EC0"></path>
                            <path d="M8.01193342,80.7121543 C8.01193342,80.7121543 5.37087343,98.2016259 6.39795232,106.874091 C7.4250312,115.546556 9.77264009,120.316412 11.3866212,119.449166 C13.1473279,118.581919 17.6958201,93.1426879 17.6958201,93.1426879 L8.01193342,80.7121543 Z" id="Shape" fill="#009EC0"></path>
                            <path d="M74.1087749,96.4566798 C74.1087749,96.4566798 68.6799294,113.367987 63.8379861,120.739583 C59.1427683,128.111178 54.7410016,131.291082 53.5671972,129.845671 C52.3933928,128.40026 59.8763961,103.539193 59.8763961,103.539193 L74.1087749,96.4566798 Z" id="Shape" fill="#009EC0"></path>
                            <path d="M27.4707291,13.400409 C35.2471835,9.49779966 56.2289379,10.7986695 65.9128246,9.35325858 C71.048219,8.63055314 84.9871468,10.7986695 84.9871468,10.7986695 L78.971399,13.8340323 L87.1880301,15.1349021 L82.6395379,18.8929704 L84.4002445,26.1200248 L83.0797145,25.3973193 L36.8611647,12.8222447 L27.4707291,13.400409 Z" id="Shape" fill="#009EC0"></path>
                            <path d="M29.1942367,23.9708144 C20.8308801,29.4633757 25.9662745,95.3741119 31.8352967,102.601166 C41.3724578,114.164453 63.5280166,111.707255 66.4625277,105.636529 C67.4896066,103.323872 92.432951,58.2270523 80.6949066,27.1507183 C77.7603955,19.0564174 58.2458966,4.89139078 29.1942367,23.9708144 Z" id="Shape" fill="#00C6DB"></path>
                            <path d="M43.6050479,38.0981217 C44.4854013,38.2426628 44.9255779,39.1099093 44.7788524,39.9771558 L43.898499,43.4461419 C43.7517735,44.3133885 42.8714201,44.7470117 41.9910668,44.6024706 L41.9910668,44.6024706 C41.1107135,44.4579295 40.6705368,43.590683 40.8172624,42.7234365 L41.6976157,39.2544504 C41.9910668,38.3872038 42.8714201,37.9535806 43.6050479,38.0981217 L43.6050479,38.0981217 Z" id="Shape" fill="#363959"></path>
                            <path d="M74.9040604,38.8019518 C75.7844137,38.9464929 76.2245904,39.8137394 76.0778648,40.6809859 L75.1975115,44.1499721 C75.0507859,45.0172186 74.1704326,45.4508418 73.2900793,45.3063008 L73.2900793,45.3063008 C72.4097259,45.1617597 71.9695493,44.2945131 72.1162748,43.4272666 L72.9966281,39.9582805 C73.1433537,39.091034 74.023707,38.5128696 74.9040604,38.8019518 L74.9040604,38.8019518 Z" id="Shape" fill="#363959"></path>
                            <path d="M42.3822941,51.4482472 C41.9421174,51.4482472 41.3552152,51.4482472 40.9150386,51.3037061 C37.3936252,50.4364595 36.2198208,47.4010967 36.2198208,47.2565556 C35.9263697,46.5338502 36.3665463,45.6666036 37.1001741,45.3775215 C37.8338019,45.0884393 38.7141552,45.5220625 39.0076063,46.244768 C39.0076063,46.3893091 39.7412341,47.979261 41.6486663,48.4128843 C43.5560986,48.8465076 44.8766285,47.6901789 45.0233541,47.5456378 C45.6102563,46.9674734 46.4906097,46.9674734 47.0775119,47.5456378 C47.6644141,48.1238021 47.6644141,48.9910487 47.0775119,49.569213 C46.7840608,49.8582952 45.1700797,51.4482472 42.3822941,51.4482472 Z" id="Shape" fill="#009EC0"></path>
                            <path d="M74.347243,47.5121158 C73.9070663,47.5121158 73.3201641,47.5121158 72.8799874,47.3675747 C69.3585741,46.5003282 68.1847697,43.4649653 68.1847697,43.3204242 C67.8913186,42.5977188 68.3314952,41.7304723 69.065123,41.4413901 C69.7987508,41.1523079 70.6791041,41.5859312 70.9725552,42.3086366 C70.9725552,42.4531777 71.706183,44.0431297 73.6136152,44.4767529 C75.5210474,44.9103762 76.988303,43.7540475 76.988303,43.7540475 C77.5752052,43.1758831 78.4555585,43.1758831 79.0424608,43.7540475 C79.629363,44.3322118 79.629363,45.1994584 79.0424608,45.7776227 C78.7490096,45.9221638 76.988303,47.5121158 74.347243,47.5121158 Z" id="Shape" fill="#009EC0"></path>
                            <path d="M50.2479506,63.1880793 C49.5143228,63.1880793 48.780695,62.6099149 48.780695,61.8872095 C48.780695,61.019963 49.3675973,60.4417986 50.101225,60.2972575 C58.9047584,59.5745521 67.268115,57.840059 68.1484683,56.5391892 C69.1755472,54.9492373 69.3222728,52.6365799 69.3222728,52.4920388 C69.3222728,51.7693333 70.0559005,51.191169 70.7895283,51.191169 C71.5231561,51.191169 72.2567839,51.7693333 72.2567839,52.4920388 C72.4035094,53.7929086 72.8436861,55.8164838 73.4305883,56.5391892 C74.4576672,57.840059 75.7781972,57.840059 75.7781972,57.840059 C76.6585505,57.840059 77.2454528,58.4182234 77.3921783,59.1409288 C77.3921783,60.0081754 76.8052761,60.5863397 76.0716483,60.7308808 C75.0445694,60.7308808 72.8436861,60.4417986 71.229705,58.4182234 C71.0829794,58.2736823 70.9362539,57.9846001 70.7895283,57.840059 C70.7895283,57.9846001 70.6428028,57.9846001 70.6428028,58.1291412 C68.588645,61.3090451 55.8235217,62.754456 50.2479506,63.1880793 L50.2479506,63.1880793 Z" id="Shape" fill="#009EC0"></path>
                            <g id="Group" transform="translate(64.097233, 46.599016)" fill="#363959">
                                <path d="M1.76070666,3.53566966 C0.586902221,4.2583751 7.04282665,7.43827903 7.92317998,7.43827903 C9.24370998,7.43827903 15.6996344,4.69199836 15.4061833,2.52388204 C15.2594577,1.36755334 6.16247332,0.644847896 1.76070666,3.53566966 Z" id="Shape"></path>
                                <path d="M7.92317998,8.88368991 L7.92317998,8.88368991 C6.74937554,8.88368991 0.880353331,6.28195033 0.29345111,4.2583751 C0.146725555,3.53566966 0.29345111,2.81296422 1.02707889,2.37934095 L1.02707889,2.37934095 C5.13539443,-0.36693972 13.2053,-0.222398632 15.6996344,0.789388984 C16.7267133,1.22301225 16.8734388,1.8011766 17.0201644,2.37934095 C17.16689,3.24658748 16.7267133,4.11383401 15.9930855,4.98108054 C14.0856533,6.86011468 9.53716109,8.88368991 7.92317998,8.88368991 Z M3.96158999,3.96929292 C5.28211999,4.69199836 7.33627776,5.70378598 7.92317998,5.84832706 C9.09698442,5.70378598 12.3249466,4.2583751 13.4987511,3.10204639 C11.5913189,2.81296422 7.1895522,2.66842313 3.96158999,3.96929292 Z" id="Shape"></path>
                            </g>
                            <g id="SVGID_1_-link" transform="translate(50.778504, 60.375476)">
                                <path d="M1.6041994,2.31265741 L0.430394962,5.92618461 C-0.596683924,8.96154746 1.16402274,12.2859925 4.2452594,13.153239 C7.32649606,14.1650266 10.7011838,12.4305336 11.5815372,9.39517072 L14.5160483,0.289082176 L1.6041994,2.31265741 Z" id="SVGID_1_" fill="#FF1AD9"></path>
                                <path d="M13.7737355,2.59255457 L14.5160483,0.289082176 L1.6041994,2.31265741 L0.840320492,4.66423926 L13.7737355,2.59255457 Z" id="Combined-Shape" fill="#E100BB"></path>
                            </g>
                            <path d="M56.2287093,70.347504 L55.9352581,70.347504 C55.4950815,70.2029629 55.3483559,69.7693396 55.4950815,69.4802574 L57.6959648,62.8313674 C57.8426904,62.3977441 58.282867,62.253203 58.5763181,62.3977441 C59.0164948,62.5422852 59.1632204,62.9759085 59.0164948,63.2649907 L56.8156115,69.9138807 C56.8156115,70.2029629 56.5221604,70.347504 56.2287093,70.347504 Z" id="Shape" fill="#E100BB"></path>
                            <path d="M106.131803,91.3091637 C106.131803,91.3091637 98.2086227,94.4890676 98.0618972,97.0908072 C97.9151716,99.8370879 106.278528,103.016992 109.799942,97.8135127 C113.321355,92.6100335 107.452333,90.7309993 106.131803,91.3091637 Z" id="Shape" fill="#009EC0"></path>
                            <path d="M24.1486115,59.0634317 C24.1486115,59.0634317 24.8822393,64.8450753 28.5503781,68.0249792 C32.218517,71.2048831 23.8551604,75.974739 24.1486115,83.2017934 C24.5887882,90.5733889 24.1486115,59.0634317 24.1486115,59.0634317 Z" id="Shape" fill="#009EC0"></path>
                        </g>
                        <g id="Group-4" transform="translate(122.957746, 207.558060) scale(-1, 1) rotate(-16.000000) translate(-122.957746, -207.558060) translate(97.957746, 186.058060)" fill="#009EC0">
                            <path d="M41.7774854,42.7698478 C38.3907167,42.7698478 33.0988906,41.9244602 25.2669879,38.7542568 C10.8732209,33.0478907 1.34793395,8.53165132 0.289568725,5.78414173 C-0.557123452,3.67067281 0.501241769,1.13451011 2.82964526,0.289122548 C4.9463757,-0.556265019 7.48645223,0.500469439 8.33314441,2.82528525 C10.8732209,9.37703889 19.3401427,27.1301778 28.6537567,30.9344218 C38.8140628,35.1613597 43.2591967,34.3159721 43.2591967,34.3159721 C45.3759271,33.4705845 47.9160037,34.527319 48.7626959,36.6407879 C49.609388,38.7542568 48.5510228,41.2904195 46.4342924,42.1358071 C45.7992732,42.347154 44.3175619,42.7698478 41.7774854,42.7698478" id="Fill-1"></path>
                        </g>
                        <path d="M144,200.003453 C144,198.896976 144.890219,198 145.994636,198 L362.95216,198 C364.053767,198 364.946796,198.904384 364.946796,200.003453 L364.946796,349.996547 C364.946796,351.103024 364.056577,352 362.95216,352 L145.994636,352 C144.893029,352 144,351.095616 144,349.996547 L144,200.003453 Z" id="Rectangle-8-Copy-9" fill="#8AE1E9"></path>
                        <g id="Group-6" transform="translate(128.000000, 192.000000)">
                            <mask id="mask-8" fill="white">
                                <use xlink:href="#path-7"></use>
                            </mask>
                            <use id="Rectangle-8-Copy-8" fill="#FFFFFF" xlink:href="#path-7"></use>
                            <g id="Path-Copy" stroke-linecap="square" stroke-linejoin="round" stroke-dasharray="1" mask="url(#mask-8)">
                                <use stroke="#C6F1F6" mask="url(#mask-10)" stroke-width="6" fill="#E9FDFF" fill-rule="evenodd" xlink:href="#path-9"></use>
                                <use stroke="#FFFFFF" mask="url(#mask-11)" stroke-width="4" xlink:href="#path-9"></use>
                            </g>
                            <g id="Group-3" mask="url(#mask-8)" fill="#04BFD3">
                                <g transform="translate(-333.000000, 132.000000)">
                                    <path d="M3.90731707,21.8043478 C1.75047805,21.8043478 0,20.0600761 0,17.9021739 C0,15.7442717 1.75047805,14 3.90731707,14 L254.108459,14 C256.265298,14 258.015776,15.7442717 258.015776,17.9021739 C258.015776,20.0600761 256.265298,21.8043478 254.108459,21.8043478 L3.90731707,21.8043478 Z" id="Fill-1"></path>
                                    <path d="M92.9536585,3.90217391 C91.875239,3.90217391 91,3.02808696 91,1.95108696 C91,0.874086957 91.875239,0 92.9536585,0 L213.088029,0 C214.166449,0 215.041688,0.874086957 215.041688,1.95108696 C215.041688,3.02808696 214.166449,3.90217391 213.088029,3.90217391 L92.9536585,3.90217391 Z" id="Fill-3"></path>
                                </g>
                            </g>
                            <g id="Path" stroke-linecap="square" stroke-linejoin="round" mask="url(#mask-8)">
                                <use fill="#E9FDFF" fill-rule="evenodd" xlink:href="#path-12"></use>
                                <path stroke="#C6F1F6" stroke-width="3" d="M263.5,152.545455 C263.5,143.37745 254.39639,112.480348 243.68966,87.6782266 C229.316263,54.3822775 213.902045,33.9545455 199,33.9545455 C184.097955,33.9545455 168.683737,54.3822775 154.31034,87.6782266 C143.60361,112.480348 134.5,143.37745 134.5,152.545455 C134.5,161.038578 162.105051,165.5 199,165.5 C235.894949,165.5 263.5,161.038578 263.5,152.545455 Z"></path>
                                <path stroke="#FFFFFF" stroke-width="3" d="M260.5,152.545455 C260.5,158.052331 232.980051,162.5 199,162.5 C165.019949,162.5 137.5,158.052331 137.5,152.545455 C137.5,143.895277 146.50889,113.319652 157.06466,88.8672279 C170.938546,56.7283945 185.859362,36.9545455 199,36.9545455 C212.140638,36.9545455 227.061454,56.7283945 240.93534,88.8672279 C251.49111,113.319652 260.5,143.895277 260.5,152.545455 Z"></path>
                            </g>
                            <g id="Group-3" mask="url(#mask-8)">
                                <g transform="translate(38.000000, 112.000000)">
                                    <path d="M1.23706564,7.92885375 C0.554205405,7.92885375 0,7.29457312 0,6.50988142 C0,5.72518972 0.554205405,5.09090909 1.23706564,5.09090909 L80.4513266,5.09090909 C81.1341869,5.09090909 81.6883923,5.72518972 81.6883923,6.50988142 C81.6883923,7.29457312 81.1341869,7.92885375 80.4513266,7.92885375 L1.23706564,7.92885375 Z" id="Fill-1" fill="#C8F2F7"></path>
                                    <path d="M29.4293436,1.41897233 C29.0879135,1.41897233 28.8108108,1.10112253 28.8108108,0.709486166 C28.8108108,0.317849802 29.0879135,0 29.4293436,0 L67.4641637,0 C67.8055938,0 68.0826965,0.317849802 68.0826965,0.709486166 C68.0826965,1.10112253 67.8055938,1.41897233 67.4641637,1.41897233 L29.4293436,1.41897233 Z" id="Fill-3" fill="#C6F1F6"></path>
                                </g>
                            </g>
                            <g id="Group-3-Copy" mask="url(#mask-8)">
                                <g transform="translate(136.000000, 127.000000)">
                                    <path d="M0.769394482,7.92885375 C0.344688728,7.92885375 0,7.29457312 0,6.50988142 C0,5.72518972 0.344688728,5.09090909 0.769394482,5.09090909 L50.0368007,5.09090909 C50.4615065,5.09090909 50.8061952,5.72518972 50.8061952,6.50988142 C50.8061952,7.29457312 50.4615065,7.92885375 50.0368007,7.92885375 L0.769394482,7.92885375 Z" id="Fill-1" fill="#C8F2F7"></path>
                                    <path d="M18.3036162,1.41897233 C18.0912633,1.41897233 17.9189189,1.10112253 17.9189189,0.709486166 C17.9189189,0.317849802 18.0912633,0 18.3036162,0 L41.9594189,0 C42.1717718,0 42.3441161,0.317849802 42.3441161,0.709486166 C42.3441161,1.10112253 42.1717718,1.41897233 41.9594189,1.41897233 L18.3036162,1.41897233 Z" id="Fill-3" fill="#C6F1F6"></path>
                                </g>
                            </g>
                        </g>
                        <mask id="mask-15" fill="white">
                            <use xlink:href="#path-13"></use>
                        </mask>
                        <g id="Rectangle-8-Copy-8" stroke="#04D1E6" mask="url(#mask-14)" stroke-width="6" stroke-linecap="square" stroke-linejoin="round" stroke-dasharray="1.080000042915344,21.04000091552734">
                            <use mask="url(#mask-16)" xlink:href="#path-13"></use>
                        </g>
                        <g id="Group-2-Copy" opacity="0.240030317" transform="translate(204.000000, 212.000000)">
                            <path d="M1.59016393,22.9354682 L24.0262988,22.9354682 C24.0262988,22.9354682 17.0073695,7.05427976 31.9109444,5.00205121 C45.2032101,3.16992889 50.4575694,16.9946963 50.4575694,16.9946963 C50.4575694,16.9946963 52.0336701,9.01846582 59.9390265,10.5445357 C67.7325441,12.049643 73.4881076,24.738243 73.4881076,24.738243 L93.0267854,24.738243" id="Fill-12" fill="#A1F5FD"></path>
                            <g id="Group-16" transform="translate(1.372971, 0.064282)">
                                <mask id="mask-18" fill="white">
                                    <use xlink:href="#path-17"></use>
                                </mask>
                                <g id="Clip-15"></g>
                                <path d="M23.4716807,20.2018527 L1.03554578,20.2018527 C0.461853419,20.2018527 0,19.7322927 0,19.1537278 C0,18.5751628 0.461853419,18.1056029 1.03554578,18.1056029 L21.9680682,18.1056029 C21.0919965,15.4915794 19.7312893,9.93651743 22.1171868,5.59099161 C23.7554202,2.6059319 26.8164936,0.786387078 31.215492,0.180570887 C41.6724333,-1.28261147 47.4756319,6.50705277 49.739335,10.5360449 C51.1456062,7.68095265 54.1859686,4.6854117 59.5770199,5.73353659 C66.8009873,7.12754271 72.1982519,15.5502744 73.5299638,17.8100317 L92.4700961,17.8100317 C93.0417174,17.8100317 93.5056419,18.2795916 93.5056419,18.8581566 C93.5056419,19.4388177 93.0417174,19.9062815 92.4700961,19.9062815 L72.9314183,19.9062815 C72.5544796,19.9062815 72.2065363,19.6987527 72.0242802,19.365449 C71.9704318,19.2627328 66.4074799,9.18606 59.1897258,7.79205389 C52.3571947,6.45464652 50.9737056,13.1332984 50.915715,13.4183883 C50.8266581,13.8753708 50.4476483,14.2170595 49.9899371,14.2568883 C49.536368,14.2946208 49.1014388,14.0263008 48.9357515,13.5902808 C48.7307134,13.0599296 43.7973733,0.56628085 31.4950894,2.25585818 C27.7816222,2.76943938 25.2362507,4.23262174 23.931463,6.60348026 C21.2680393,11.4416248 24.3850321,18.6548203 24.4181695,18.7260928 C24.5590038,19.0510115 24.5300085,19.4262402 24.3394681,19.7239077 C24.1489276,20.0215752 23.8216952,20.2018527 23.4716807,20.2018527" id="Fill-14" fill="#04BFD3" mask="url(#mask-18)"></path>
                            </g>
                            <path d="M2.07109156,26.7549208 C0.925777929,26.7549208 7.10542736e-15,25.8178971 7.10542736e-15,24.658671 C7.10542736e-15,23.4994448 0.925777929,22.5624212 2.07109156,22.5624212 L94.5411877,22.5624212 C95.6844302,22.5624212 96.6122792,23.4994448 96.6122792,24.658671 C96.6122792,25.8178971 95.6844302,26.7549208 94.5411877,26.7549208 L2.07109156,26.7549208 Z" id="Fill-17" fill="#A1F5FD"></path>
                        </g>
                        <circle id="Oval-3-Copy-2" stroke="#04D1E6" stroke-width="3" fill="#FFFFFF" cx="132" cy="341" r="10"></circle>
                        <circle id="Oval-3-Copy-3" stroke="#04D1E6" stroke-width="3" fill="#FFFFFF" cx="379" cy="341" r="10"></circle>
                        <circle id="Oval-3-Copy-4" stroke="#04D1E6" stroke-width="3" fill="#FFFFFF" cx="379" cy="195" r="10"></circle>
                        <g id="Group" transform="translate(134.053204, 248.366590) scale(-1, -1) rotate(-29.000000) translate(-134.053204, -248.366590) translate(85.553204, 191.366590)" fill-rule="nonzero">
                            <g id="Layer_2_71_" transform="translate(53.111689, -0.000000)" fill="#C8C8CC">
                                <path d="M13.4419824,82.6230203 L0.775498987,82.8815199 L6.66133815e-14,11.2771135 C6.66133815e-14,5.33162125 4.39449426,0.67862733 10.0814868,0.161628005 C10.5984862,0.161628005 10.8569858,0.420127668 10.8569858,0.937126992 L13.4419824,82.6230203 Z" id="Shape"></path>
                            </g>
                            <g id="Layer_3_101_" transform="translate(28.434963, 11.933355)" fill="#E1E1E6">
                                <path d="M64.4856739,1.1532566 C64.7441735,0.894756936 65.2611728,0.894756936 65.7781722,1.41175626 C69.1386678,6.06475018 68.3631688,12.5272417 63.7101749,16.4047367 L8.6497468,62.1591769 L0.636257273,52.5946894 L64.4856739,1.1532566 Z" id="Shape"></path>
                            </g>
                            <g id="Layer_4_71_" transform="translate(0.000000, 52.120060)" fill="#FFAA00">
                                <path d="M0.894756936,16.802478 C0.119257949,21.455472 1.41175626,25.8499662 4.25525255,29.4689615 C5.54775086,31.2784591 7.35724849,32.5709574 9.42524579,33.3464564 C15.6292377,36.1899527 23.1257279,35.1559541 28.8127205,30.2444605 C29.3297198,29.9859608 29.5882194,29.4689615 30.1052188,29.2104618 L47.9416955,14.4759811 C48.7171945,13.9589818 49.2341938,12.9249831 49.2341938,11.8909845 C49.2341938,10.8569858 48.9756941,9.82298717 48.4586948,9.30598784 L43.5472012,3.36049561 C43.2887015,2.84349629 42.7717022,2.58499662 42.2547029,2.32649696 C41.7377036,2.0679973 41.4792039,2.0679973 40.9622046,2.0679973 C39.9282059,2.0679973 38.8942073,2.32649696 38.377208,2.84349629 L33.2072147,6.97949088 C32.9487151,6.72099122 32.6902154,6.46249156 32.4317157,6.20399189 C31.1392174,4.39449426 29.3297198,3.10199595 27.2617225,2.32649696 C21.0577306,-0.516999325 13.5612404,0.516999325 7.87424782,5.42849291 C3.99675288,8.01348953 1.67025592,12.1494841 0.894756936,16.802478 Z M12.5272417,10.5984862 C15.8877373,7.75498987 20.5407313,6.97949088 23.9012269,8.53048886 C24.9352255,9.04748818 25.7107245,9.5644875 26.4862235,10.5984862 C28.8127205,13.4419824 28.8127205,17.8364767 26.7447232,21.1969723 C25.9692242,22.4894706 24.6767259,23.5234693 23.1257279,25.0744672 L23.1257279,25.0744672 L23.1257279,25.0744672 C19.7652323,27.4009642 15.8877373,27.9179635 12.7857414,26.3669656 C11.7517428,25.8499662 10.9762438,25.3329669 10.2007448,24.2989683 C8.6497468,22.4894706 8.13274748,20.1629737 8.6497468,17.577977 C8.6497468,15.2514801 10.2007448,12.6664835 12.5272417,10.5984862 Z" id="Shape"></path>
                            </g>
                            <g id="Layer_5_91_" transform="translate(51.699932, 65.045043)" fill="#FFAA00">
                                <path d="M0.636257273,4.65299392 L0.894756936,27.9179635 L0.894756936,29.4689615 C0.894756936,36.706952 4.77225187,43.1694436 10.7177441,46.0129399 C12.7857414,47.0469385 15.1122384,47.5639379 17.4387353,47.5639379 C26.4862235,47.5639379 33.724214,39.2919487 33.724214,29.2104618 C33.724214,21.9724713 29.8467191,15.5099797 23.9012269,12.6664835 L23.9012269,12.6664835 C21.8332296,11.6324848 19.5067326,11.1154855 17.1802357,11.1154855 L16.146237,11.1154855 L16.146237,4.39449426 C16.146237,2.84349629 15.370738,1.80949764 14.0782397,1.03399865 C13.5612404,0.775498987 13.0442411,0.775498987 12.5272417,0.775498987 L4.77225187,0.775498987 C3.73825322,0.775498987 2.96275423,1.29249831 2.18725525,1.80949764 C0.894756936,2.84349629 0.636257273,3.61899527 0.636257273,4.65299392 Z M20.5407313,19.128975 C23.9012269,20.679973 26.2277238,24.5574679 26.2277238,28.9519622 C26.2277238,34.8974544 22.3502289,39.808948 17.4387353,39.808948 C16.146237,39.808948 15.1122384,39.5504483 14.0782397,39.033449 C10.9762438,37.482451 8.90824647,34.1219554 8.39124714,30.5029601 L8.39124714,30.5029601 C8.39124714,28.4349629 8.6497468,26.8839649 8.90824647,25.3329669 C10.2007448,21.455472 13.3027407,18.6119757 17.1802357,18.6119757 C18.2142343,18.353476 19.5067326,18.6119757 20.5407313,19.128975 Z" id="Shape"></path>
                            </g>
                            <g id="Layer_6_67_" transform="translate(55.276558, 42.953314)" fill="#C8C8CC">
                                <path d="M4.55612226,0.636257273 C6.88261922,0.894756936 8.4336172,2.96275423 8.17511754,5.03075153 C7.91661787,7.35724849 5.84862058,8.90824647 3.78062328,8.6497468 C1.45412632,8.39124714 -0.096871657,6.32324984 0.161628005,4.25525255 C0.420127668,1.92875558 2.48812497,0.377757611 4.55612226,0.636257273 Z" id="Shape"></path>
                            </g>
                        </g>
                        <path d="M107.644767,212.147183 C107.644767,212.147183 96.2144227,216.796815 96.0027496,220.601059 C95.7910766,224.61665 107.85644,229.266281 112.936593,221.657793 C118.016746,214.049305 109.549824,211.301795 107.644767,212.147183" id="Fill-4" fill="#009EC0"></path>
                        <g id="Page-1" transform="translate(134.000000, 153.000000)" fill="#009EC0">
                            <g id="Group-55" transform="translate(46.232767, 40.772107) scale(-1, 1) rotate(34.000000) translate(-46.232767, -40.772107) translate(4.732767, 20.772107)">
                                <path d="M44.1086208,39.356901 C21.422845,39.356901 1.40598398,6.49793788 0.452800126,5.1070823 C-0.500383731,3.36851283 0.0715265827,1.28222946 1.9778943,0.412944717 C3.88426201,-0.456340021 6.17190327,0.0652308222 7.12508712,1.8038003 C12.4629167,10.6705046 29.8108629,33.7934787 45.2524414,32.4026231 C64.8880289,30.8379105 75.6745605,26.3289349 75.8651973,26.3289349 C77.5809282,25.1119363 79.8685695,25.4596502 81.2030269,26.8505057 C82.5374843,28.4152183 82.3468475,30.5015016 80.6311166,31.7185003 C80.249843,32.0662142 68.128854,37.6183315 46.0149885,39.356901" id="Fill-51"></path>
                            </g>
                        </g>
                    </g>
                </g>
            </g>
        </g>
    </g>
</svg>