<?xml version="1.0" encoding="UTF-8" standalone="no"?>
<svg width="476px" height="476px" viewBox="0 0 476 476" version="1.1" xmlns="http://www.w3.org/2000/svg" xmlns:xlink="http://www.w3.org/1999/xlink">
    <!-- Generator: Sketch 46.2 (44496) - http://www.bohemiancoding.com/sketch -->
    <title>Image</title>
    <desc>Created with Sketch.</desc>
    <defs>
        <circle id="path-1" cx="238" cy="238" r="238"></circle>
        <rect id="path-3" x="0" y="0" width="793.885714" height="454.186937"></rect>
        <rect id="path-5" x="34.8828571" y="57.739365" width="721.714286" height="481.140535" rx="3"></rect>
        <filter x="-0.4%" y="-0.6%" width="100.8%" height="101.2%" filterUnits="objectBoundingBox" id="filter-6">
            <feMorphology radius="1" operator="dilate" in="SourceAlpha" result="shadowSpreadOuter1"></feMorphology>
            <feOffset dx="0" dy="0" in="shadowSpreadOuter1" result="shadowOffsetOuter1"></feOffset>
            <feColorMatrix values="0 0 0 0 0   0 0 0 0 0   0 0 0 0 0  0 0 0 0.1 0" type="matrix" in="shadowOffsetOuter1"></feColorMatrix>
        </filter>
        <polygon id="path-7" points="0.0819807752 5.70166548 1.12701809 2.69245314 16.2525581 0.47513879 14.4518986 5.70166548 0.0819807752 5.70166548"></polygon>
        <polygon id="path-9" points="34.8828571 116.757439 756.597143 116.757439 756.597143 222.681713 34.8828571 222.681713"></polygon>
        <rect id="path-10" x="34.8828571" y="221.478028" width="721.714286" height="261.199631"></rect>
        <path d="M34.8828571,137.220083 L478.548571,137.220083 L478.548571,137.220083 C481.309995,137.220083 483.548571,139.458659 483.548571,142.220083 L483.548571,197.219069 L483.548571,197.219069 C483.548571,199.980493 481.309995,202.219069 478.548571,202.219069 L34.8828571,202.219069 L34.8828571,137.220083 Z" id="path-11"></path>
        <path d="M305.281935,9.89440032 L118.99373,9.89440032 C115.679321,9.89440032 113,12.5806378 113,15.8942796 L113,196.000121 C113,199.321007 115.683485,202 118.99373,202 L398.777698,202 C402.092108,202 404.771429,199.313763 404.771429,196.000121 L404.771429,15.8942796 C404.771429,12.5733935 402.087944,9.89440032 398.777698,9.89440032 L322.551528,9.89440032 C322.08715,9.61423414 321.825651,9.36523389 321.825651,9.36523389 L314.470042,0.595588888 C314.113773,0.170830849 313.543063,0.17053759 313.190127,0.588735798 L305.509111,9.69007875 C305.509111,9.69007875 305.431616,9.77094615 305.281935,9.89440032 Z" id="path-12"></path>
        <filter x="-6.9%" y="-7.4%" width="113.7%" height="119.8%" filterUnits="objectBoundingBox" id="filter-14">
            <feMorphology radius="1" operator="dilate" in="SourceAlpha" result="shadowSpreadOuter1"></feMorphology>
            <feOffset dx="0" dy="5" in="shadowSpreadOuter1" result="shadowOffsetOuter1"></feOffset>
            <feGaussianBlur stdDeviation="5.5" in="shadowOffsetOuter1" result="shadowBlurOuter1"></feGaussianBlur>
            <feComposite in="shadowBlurOuter1" in2="SourceAlpha" operator="out" result="shadowBlurOuter1"></feComposite>
            <feColorMatrix values="0 0 0 0 0   0 0 0 0 0   0 0 0 0 0  0 0 0 0.1 0" type="matrix" in="shadowBlurOuter1"></feColorMatrix>
        </filter>
        <path d="M550.807326,347.014906 L558.585455,347.014906 C559.679618,347.014906 560.23046,346.195975 559.794536,345.185772 L547.784645,317.354252 C547.35181,316.351207 546.641948,316.344049 546.206024,317.354252 L534.196133,345.185772 C533.763298,346.188817 534.301533,347.014906 535.405214,347.014906 L543.183344,347.014906 L543.183344,365.524218 C543.183344,366.626231 544.080167,367.517934 545.186455,367.517934 L548.804214,367.517934 C549.902816,367.517934 550.807326,366.625317 550.807326,365.524218 L550.807326,347.014906 Z" id="path-15"></path>
    </defs>
    <g id="Landing-page" stroke="none" stroke-width="1" fill="none" fill-rule="evenodd">
        <g id="Landing-Page_Desktop" transform="translate(-794.000000, -854.000000)">
            <g id="Sec-1" transform="translate(0.000000, 767.000000)">
                <g id="Image" transform="translate(794.000000, 87.000000)">
                    <mask id="mask-2" fill="white">
                        <use xlink:href="#path-1"></use>
                    </mask>
                    <use id="Mask" fill="#A1F6FF" xlink:href="#path-1"></use>
                    <g id="Group-2" mask="url(#mask-2)">
                        <g transform="translate(-193.000000, 37.000000)">
                            <g id="Group-4" stroke-width="1" fill="none" fill-rule="evenodd">
                                <rect id="Rectangle-4" x="0" y="0" width="842" height="433.326577"></rect>
                                <g id="Group-3" transform="translate(22.854286, 13.240534)">
                                    <mask id="mask-4" fill="white">
                                        <use xlink:href="#path-3"></use>
                                    </mask>
                                    <g id="Rectangle-4-Copy"></g>
                                    <g id="Rectangle-Copy-2" mask="url(#mask-4)">
                                        <use fill="black" fill-opacity="1" filter="url(#filter-6)" xlink:href="#path-5"></use>
                                        <use fill="#FFFFFF" fill-rule="evenodd" xlink:href="#path-5"></use>
                                    </g>
                                    <polygon id="Rectangle-9-Copy" fill="#E3E1E3" mask="url(#mask-4)" points="34.8828571 57.7768769 756.597143 57.7768769 756.597143 116.757439 34.8828571 116.757439"></polygon>
                                    <g id="Page-1" mask="url(#mask-4)">
                                        <g transform="translate(339.000000, 14.000000)">
                                            <g id="Group-47" stroke-width="1" fill="none">
                                                <path d="M42.0171939,41.4943621 C40.6537978,41.4943621 39.4608262,41.3236034 38.09743,40.8113273 L19.3507331,33.1271862 C14.0675731,30.9073232 11.6816299,24.930769 13.7267241,19.8080082 C15.9422428,14.5144888 21.9071009,12.1238671 27.0198364,14.1729714 L45.7665333,21.8571125 C51.0496933,24.0769755 53.4356366,30.0535297 51.3905424,35.1762905 C49.8567217,39.1037404 46.1073823,41.4943621 42.0171939,41.4943621" id="Fill-1" fill="#009EC0"></path>
                                                <path d="M56.8441269,145.486405 C84.1393176,145.486405 106.267237,148.850351 106.267237,152.999788 C106.267237,157.149224 84.1393176,160.51317 56.8441269,160.51317 C29.5489363,160.51317 7.42101695,157.149224 7.42101695,152.999788 C7.42101695,148.850351 29.5489363,145.486405 56.8441269,145.486405" id="Fill-3" fill="#EDEDF2"></path>
                                                <g id="Group-7" transform="translate(59.475999, 0.000000)" fill="#009EC0">
                                                    <path d="M22.2501072,40.1282925 C18.8416169,40.1282925 15.4331265,38.4207056 13.5584568,35.3470492 L1.62874064,16.2220757 C-1.43890067,11.4408323 0.0949199842,5.12276075 4.86680646,2.0491043 C9.63869294,-1.02455215 15.9444001,0.512276075 19.0120414,5.29351944 L30.9417576,24.4184929 C34.0093989,29.1997363 32.4755782,35.5178079 27.7036918,38.5914643 C25.9994466,39.6160165 24.1247769,40.1282925 22.2501072,40.1282925" id="Fill-5"></path>
                                                </g>
                                                <path d="M74.1540804,43.5021353 C71.5977127,44.6101802 9.27627119,43.5021353 9.27627119,43.5021353 C9.27627119,43.5021353 14.8420339,56.5348537 11.1315254,67.5625384 C-0.927627119,83.6028071 -2.72204728,103.848355 6.15469807,120.939883 C10.5857355,129.619568 64.4398829,143.285455 74.1540804,136.82186 C77.0512972,134.975118 100.183729,43.5021353 100.183729,43.5021353 C100.183729,43.5021353 76.9930508,44.5046521 75.1377966,43.5021353" id="Fill-8" fill-opacity="0.6" fill="#CACACA"></path>
                                                <path d="M32.6438455,16.9051105 C30.0874777,17.9296626 17.8169125,29.0289776 19.8620067,60.1070594 C21.9071009,90.5021066 -5.19039732,85.5501045 15.4309693,122.263223 C19.8620067,130.288882 73.7161541,142.925025 83.4303516,136.948471 C86.3275684,135.240884 120.071623,73.5969961 105.585539,32.6149101 C100.813652,19.1249735 72.5231825,-0.170758692 32.6438455,16.9051105" id="Fill-8" fill="#009EC0"></path>
                                                <path d="M16.1126673,95.9663847 C16.1126673,95.9663847 13.045026,116.628186 14.2379976,126.873708 C15.4309693,137.119229 18.1577615,142.754266 20.0324312,141.729714 C22.0775254,140.705162 27.3606855,110.651632 27.3606855,110.651632 L16.1126673,95.9663847 Z" id="Fill-10" fill="#009EC0"></path>
                                                <path d="M93.1445491,114.066806 C93.1445491,114.066806 86.8388419,134.045573 81.2148329,142.754266 C75.7612483,151.462959 70.6485128,155.219651 69.2851167,153.512064 C67.9217205,151.804477 76.6133709,122.433982 76.6133709,122.433982 L93.1445491,114.066806 Z" id="Fill-12" fill="#009EC0"></path>
                                                <path d="M38.4382791,16.3928344 C47.4707785,11.7823497 71.8414844,13.3191779 83.0895026,11.611591 C89.0543607,10.7577976 105.24469,13.3191779 105.24469,13.3191779 L98.2572846,16.9051105 L107.801058,18.4419387 L102.517898,22.8816647 L104.562992,31.4195993 L103.029171,30.5658058 L49.3454482,15.7097996 L38.4382791,16.3928344 Z" id="Fill-14" fill="#009EC0"></path>
                                                <path d="M40.6537978,29.0289776 C30.9396003,35.5178079 36.9044584,113.383771 43.7214391,121.921706 C54.7990327,135.582401 80.5331348,132.679503 83.9416251,125.507638 C85.1345968,122.775499 114.106765,69.4987875 100.472803,32.7856688 C97.064313,23.2231821 74.3978522,6.48883028 40.6537978,29.0289776" id="Fill-18" fill="#00C6DB"></path>
                                                <path d="M57.866674,45.2510533 C58.8892211,45.421812 59.4004947,46.4463641 59.2300702,47.4709163 L58.2075231,51.5691249 C58.0370985,52.593677 57.0145514,53.1059531 55.9920043,52.9351944 C54.9694572,52.7644357 54.4581837,51.7398836 54.6286082,50.7153314 L55.6511553,46.6171228 C55.9920043,45.5925707 57.0145514,45.0802946 57.866674,45.2510533" id="Fill-20" fill="#363959"></path>
                                                <path d="M93.9966717,46.4463641 C95.0192188,46.6171228 95.5304923,47.641675 95.3600678,48.6662271 L94.3375207,52.7644357 C94.1670962,53.7889879 93.1445491,54.3012639 92.122002,54.1305052 C91.0994549,53.9597466 90.5881813,52.9351944 90.7586058,51.9106423 L91.7811529,47.8124337 C91.9515775,46.7878815 92.9741246,46.1048467 93.9966717,46.4463641" id="Fill-22" fill="#363959"></path>
                                                <path d="M57.365286,58.8950004 C56.8540124,58.8950004 56.1723144,58.8950004 55.6610408,58.7242417 C51.5708524,57.6996896 50.2074563,54.1137571 50.2074563,53.9429984 C49.8666072,53.0892049 50.3778808,52.0646528 51.2300034,51.7231354 C52.082126,51.381618 53.1046731,51.8938941 53.4455221,52.7476875 C53.4455221,52.9184462 54.2976447,54.7967918 56.5131634,55.3090679 C58.7286821,55.821344 60.2625028,54.4552744 60.4329273,54.2845157 C61.1146254,53.601481 62.1371725,53.601481 62.8188705,54.2845157 C63.5005686,54.9675505 63.5005686,55.9921027 62.8188705,56.6751374 C62.4780215,57.0166548 60.6033518,58.8950004 57.365286,58.8950004" id="Fill-24" fill="#009EC0" transform="translate(56.715418, 55.255581) scale(1, -1) translate(-56.715418, -55.255581) "></path>
                                                <path d="M92.9741246,56.3503682 C92.462851,56.3503682 91.7811529,56.3503682 91.2698794,56.1796095 C87.179691,55.1550574 85.8162948,51.5691249 85.8162948,51.3983662 C85.4754458,50.5445727 85.9867194,49.5200206 86.8388419,49.1785032 C87.6909645,48.8369858 88.7135116,49.3492619 89.0543607,50.2030553 C89.0543607,50.373814 89.9064832,52.2521596 92.122002,52.7644357 C94.3375207,53.2767118 96.0417659,51.9106423 96.0417659,51.9106423 C96.7234639,51.2276075 97.746011,51.2276075 98.4277091,51.9106423 C99.1094072,52.593677 99.1094072,53.6182292 98.4277091,54.3012639 C98.0868601,54.4720226 96.0417659,56.3503682 92.9741246,56.3503682" id="Fill-26" fill="#009EC0"></path>
                                                <path d="M65.1949283,74.7923069 C64.3428057,74.7923069 63.4906831,74.1092722 63.4906831,73.2554787 C63.4906831,72.2309266 64.1723812,71.5478918 65.0245037,71.3771331 C75.2499748,70.5233396 84.9641723,68.4742353 85.9867194,66.9374071 C87.179691,65.0590615 87.3501155,62.3269224 87.3501155,62.1561637 C87.3501155,61.3023703 88.2022381,60.6193355 89.0543607,60.6193355 C89.9064832,60.6193355 90.7586058,61.3023703 90.7586058,62.1561637 C90.9290304,63.692992 91.4403039,66.0836137 92.122002,66.9374071 C93.3149736,68.4742353 94.8487942,68.4742353 94.8487942,68.4742353 C95.8713413,68.4742353 96.5530394,69.1572701 96.7234639,70.0110636 C96.7234639,71.0356157 96.0417659,71.7186505 95.1896433,71.8894092 C93.9966717,71.8894092 91.4403039,71.5478918 89.5656342,69.1572701 C89.3952097,68.9865114 89.2247852,68.644994 89.0543607,68.4742353 C89.0543607,68.644994 88.8839361,68.644994 88.8839361,68.8157527 C86.4979929,72.5724439 71.6710599,74.2800309 65.1949283,74.7923069 L65.1949283,74.7923069" id="Fill-28" fill="#009EC0"></path>
                                                <path d="M83.6007761,59.7655421 C82.23738,60.6193355 89.7360587,64.3760267 90.7586058,64.3760267 C92.2924265,64.3760267 99.7911052,61.1316116 99.4502562,58.5702312 C99.2798317,57.2041617 88.7135116,56.3503682 83.6007761,59.7655421" id="Fill-30" fill="#363959"></path>
                                                <path d="M86.1571439,60.2778181 C87.6909645,61.1316116 90.0769078,62.3269224 90.7586058,62.4976811 C92.122002,62.3269224 95.8713413,60.6193355 97.2347375,59.253266 C95.0192188,58.9117486 89.9064832,58.7409899 86.1571439,60.2778181 M90.7586058,66.0836137 L90.7586058,66.0836137 C89.3952097,66.0836137 82.578229,63.0099572 81.8965309,60.6193355 C81.7261064,59.7655421 81.8965309,58.9117486 82.7486535,58.3994725 C87.52054,55.1550574 96.8938885,55.3258161 99.7911052,56.5211269 C100.984077,57.033403 101.154501,57.7164378 101.324926,58.3994725 C101.49535,59.4240247 100.984077,60.4485768 100.131954,61.473129 C97.9164356,63.692992 92.6332755,66.0836137 90.7586058,66.0836137" id="Fill-32" fill="#363959"></path>
                                                <path d="M67.410447,74.6215482 L66.0470508,78.8905155 C64.8540792,82.4764481 66.8991734,86.403898 70.4780883,87.4284501 C74.0570032,88.6237609 77.976767,86.5746566 78.9993142,82.9887241 L82.4078045,72.2309266 L67.410447,74.6215482 Z" id="Fill-45" fill="#FF1AD9"></path>
                                            </g>
                                            <g id="Group-50" stroke-width="1" fill="none" transform="translate(66.157143, 72.221096)">
                                                <mask id="mask-8" fill="white">
                                                    <use xlink:href="#path-7"></use>
                                                </mask>
                                                <g id="Clip-49"></g>
                                                <polygon id="Fill-48" fill="#E100BB" mask="url(#mask-8)" points="-2.65436693 5.70166548 18.4870129 2.53407355 19.6901809 -2.69245314 5.59592765 -4.5930083"></polygon>
                                            </g>
                                            <path d="M72.0134776,84.2579454 L71.6246753,84.2579454 C71.0414719,84.0840497 70.8470707,83.5623623 71.0414719,83.2145707 L73.9574892,75.2153643 C74.1518903,74.6936769 74.7350938,74.5197811 75.1238961,74.6936769 C75.7070996,74.8675727 75.9015007,75.3892601 75.7070996,75.7370516 L72.7910823,83.7362581 C72.7910823,84.0840497 72.4022799,84.2579454 72.0134776,84.2579454" id="Fill-51" fill="#E100BB"></path>
                                        </g>
                                    </g>
                                    <g id="Group" mask="url(#mask-4)" stroke-linecap="round" stroke="#363959" stroke-width="3">
                                        <g transform="translate(465.000000, 88.000000)">
                                            <path d="M6.01428571,0 C6.01428571,0 18.1238503,1.00982485 18.1238503,11.1080734" id="Path-5-Copy"></path>
                                            <path d="M0,6.01842467 C0,6.01842467 12.1095646,7.02824953 12.1095646,17.126498" id="Path-5-Copy-2"></path>
                                        </g>
                                    </g>
                                    <g id="Rectangle-9" mask="url(#mask-4)">
                                        <use fill="#F5F5F5" fill-rule="evenodd" xlink:href="#path-9"></use>
                                        <path stroke="#D4D4D4" stroke-width="1" d="M756.097143,222.181713 L756.597143,222.181713 L756.097143,222.681713 L756.097143,222.181713 Z M35.3828571,117.257439 L35.3828571,222.181713 L756.097143,222.181713 L756.097143,117.257439 L35.3828571,117.257439 Z"></path>
                                    </g>
                                    <g id="Glyph-/-Add---on-/-Page-shot" mask="url(#mask-4)">
                                        <g transform="translate(259.145714, 291.759466)" id="screenshot-16">
                                            <g transform="translate(0.000000, 0.937500)">
                                                <path d="M9.375,3.75 L13.125,3.75 L13.125,0 L9.375,0 L9.375,3.75 Z M3.75,3.75 L7.5,3.75 L7.5,0 C5.42893219,-2.08166817e-16 3.75,1.67893219 3.75,3.75 L3.75,3.75 Z M15,3.75 L18.75,3.75 L18.75,0 L15,0 L15,3.75 Z M20.625,3.75 L24.375,3.75 L24.375,0 L20.625,0 L20.625,3.75 Z M26.25,0 L26.25,3.75 L30,3.75 C30,1.67893219 28.3210678,0 26.25,0 Z M26.25,9.375 L30,9.375 L30,5.625 L26.25,5.625 L26.25,9.375 Z M26.25,15 L30,15 L30,11.25 L26.25,11.25 L26.25,15 Z M26.25,20.625 C28.3210678,20.625 30,18.9460678 30,16.875 L26.25,16.875 L26.25,20.625 Z M3.75,9.375 L7.5,9.375 L7.5,5.625 L3.75,5.625 L3.75,9.375 Z" id="Shape" fill="#3E3D40" fill-rule="nonzero"></path>
                                                <path d="M4.6875,7.5 C2.09866524,7.5 3.17040821e-16,9.59866524 0,12.1875 C-3.17040821e-16,14.7763348 2.09866524,16.875 4.6875,16.875 C7.27633476,16.875 9.375,14.7763348 9.375,12.1875 C9.375,10.9442977 8.88113981,9.75201374 8.00206304,8.87293696 C7.12298626,7.99386019 5.9307023,7.5 4.6875,7.5 Z M4.6875,14.53125 C3.39308262,14.53125 2.34375,13.4819174 2.34375,12.1875 C2.34375,10.8930826 3.39308262,9.84375 4.6875,9.84375 C5.98191738,9.84375 7.03125,10.8930826 7.03125,12.1875 C7.03125,13.4819174 5.98191738,14.53125 4.6875,14.53125 Z" id="Shape" fill="#3E3D40" fill-rule="nonzero"></path>
                                                <path d="M4.6875,18.75 C2.09866524,18.75 3.17040821e-16,20.8486652 0,23.4375 C-3.17040821e-16,26.0263348 2.09866524,28.125 4.6875,28.125 C7.27633476,28.125 9.375,26.0263348 9.375,23.4375 C9.375,20.8486652 7.27633476,18.75 4.6875,18.75 Z M4.6875,25.78125 C3.39308262,25.78125 2.34375,24.7319174 2.34375,23.4375 C2.34375,22.1430826 3.39308262,21.09375 4.6875,21.09375 C5.98191738,21.09375 7.03125,22.1430826 7.03125,23.4375 C7.03125,24.7319174 5.98191738,25.78125 4.6875,25.78125 Z" id="Shape" fill="#3E3D40" fill-rule="nonzero"></path>
                                                <path d="M14.8125,21.226875 L20.469375,25.539375 C22.1661491,26.7263806 24.5038815,26.3133952 25.69125,24.616875 L18.075,18.9375 L14.8125,21.226875 Z M8.83125,22.843125 L25.430625,10.936875 C24.2432565,9.24035481 21.9055241,8.8273694 20.20875,10.014375 L13.010625,15.3225 L8.9625,12.48375 L7.059375,15.729375 L9.740625,17.604375 L6.66,19.78125 L8.83125,22.843125 Z" id="Shape" fill="#3E3D40" fill-rule="nonzero"></path>
                                            </g>
                                        </g>
                                    </g>
                                    <g id="Rectangle-10" mask="url(#mask-4)">
                                        <use fill="#E9FDFF" fill-rule="evenodd" xlink:href="#path-10"></use>
                                        <rect stroke="#D4D4D4" stroke-width="1" x="35.3828571" y="221.978028" width="720.714286" height="260.199631"></rect>
                                    </g>
                                    <ellipse id="Oval-3-Copy" fill="#E1E1E6" mask="url(#mask-4)" cx="535.854286" cy="169.870014" rx="22.8542857" ry="22.8700138"></ellipse>
                                    <ellipse id="Oval-3-Copy-5" fill="#E1E1E6" mask="url(#mask-4)" cx="611.854286" cy="169.870014" rx="22.8542857" ry="22.8700138"></ellipse>
                                    <g id="Rectangle-8" mask="url(#mask-4)">
                                        <use fill="#FFFFFF" fill-rule="evenodd" xlink:href="#path-11"></use>
                                        <path stroke-opacity="0.47412817" stroke="#979797" stroke-width="1" d="M35.3828571,137.720083 L35.3828571,201.719069 L478.548571,201.719069 C481.033853,201.719069 483.048571,199.70435 483.048571,197.219069 L483.048571,142.220083 C483.048571,139.734801 481.033853,137.720083 478.548571,137.720083 L35.3828571,137.720083 Z"></path>
                                    </g>
                                    <path d="M473.705241,147.71152 C470.169401,147.71152 464.64465,146.824594 456.468019,143.498623 C441.440696,137.511874 431.496145,111.791028 430.391195,108.908519 C429.507234,106.691205 430.612185,104.030427 433.043075,103.143502 C435.252975,102.256576 437.904856,103.365233 438.788816,105.804279 C441.440696,112.677953 450.280298,131.303394 460.003859,135.29456 C470.611381,139.729188 475.252171,138.842263 475.252171,138.842263 C477.462072,137.955337 480.113952,139.063994 480.997912,141.281308 C481.881872,143.498623 480.776922,146.1594 478.567022,147.046326 C477.904052,147.268057 476.357122,147.71152 473.705241,147.71152" id="Fill-16" fill="#009EC0" mask="url(#mask-4)" transform="translate(455.695947, 125.275821) scale(-1, 1) rotate(71.000000) translate(-455.695947, -125.275821) "></path>
                                    <path d="M367.724894,89.2626748 C367.724894,89.2626748 400.011673,146.000428 411.036427,148.364501 C418.911251,153.880671 414.973839,160.97289 407.099015,158.608817 C399.224191,156.244744 369.299859,118.419576 363,96.3548939 C363.787482,86.8986017 367.724894,89.2626748 367.724894,89.2626748 Z" id="Path-2" fill="#009EC0" mask="url(#mask-4)"></path>
                                </g>
                            </g>
                            <g id="Context-Menu-Copy-2" stroke-width="1" fill="none" fill-rule="evenodd" transform="translate(148.000000, 184.000000)">
                                <g id="Group-5" transform="translate(0.000000, 83.675000)" fill="#DDF4F6">
                                    <path d="M536.469593,25.7950126 C527.212351,25.7950126 522.537924,23.2651993 518.020547,20.8183308 C513.793276,18.5264379 509.7994,16.3655103 501.645873,16.3655103 C493.492345,16.3655103 489.50065,18.5264379 485.271198,20.8161481 C480.753821,23.2651993 476.079394,25.7950126 466.819971,25.7950126 C457.562728,25.7950126 452.890482,23.2651993 448.370924,20.8183308 C444.143654,18.5264379 440.151959,16.3655103 431.99625,16.3655103 C423.844903,16.3655103 419.853209,18.5286207 415.625938,20.8183308 C411.10638,23.2651993 406.436315,25.7950126 397.181254,25.7950126 C395.975021,25.7950126 395,24.819321 395,23.6122574 C395,22.4051938 395.975021,21.4295023 397.181254,21.4295023 C405.3326,21.4295023 409.322114,19.2685747 413.547203,16.9788645 C418.068943,14.5298132 422.739008,12 431.99625,12 C441.255673,12 445.927919,14.5298132 450.445296,16.9766817 C454.674748,19.2685747 458.666443,21.4295023 466.819971,21.4295023 C474.975679,21.4295023 478.969556,19.2663919 483.196826,16.9766817 C487.714203,14.5298132 492.38863,12 501.645873,12 C510.903115,12 515.577542,14.5298132 520.094919,16.9766817 C524.324371,19.2685747 528.316066,21.4295023 536.469593,21.4295023 C544.623121,21.4295023 548.614816,19.2685747 552.844267,16.9766817 C557.361644,14.5298132 562.036072,12 571.293314,12 C572.499548,12 573.474568,12.9756916 573.474568,14.1827552 C573.474568,15.387636 572.499548,16.3655103 571.293314,16.3655103 C563.139786,16.3655103 559.14591,18.5264379 554.91864,20.8183308 C550.401263,23.2651993 545.726835,25.7950126 536.469593,25.7950126" id="Fill-1-Copy"></path>
                                    <path d="M36.4321665,43.6122574 C27.4497624,43.6122574 22.9018477,41.1479268 18.5022583,38.7643582 C14.1484752,36.4069827 10.0368114,34.1827552 1.61062702,34.1827552 C1.0086009,34.1827552 0.52,33.693818 0.52,33.0913776 C0.52,32.4867544 1.0086009,32 1.61062702,32 C10.5908499,32 15.1387646,34.4621478 19.538354,36.8435337 C23.892137,39.203092 28.0038009,41.4295023 36.4321665,41.4295023 C44.8605321,41.4295023 48.972196,39.203092 53.3237978,36.8478992 C57.729931,34.4621478 62.2778456,32 71.2602498,32 C71.8622759,32 72.3508768,32.4867544 72.3508768,33.0913776 C72.3508768,33.693818 71.8622759,34.1827552 71.2602498,34.1827552 C62.8318842,34.1827552 58.7202203,36.4069827 54.3686185,38.7621755 C49.9624853,41.1501096 45.4145707,43.6122574 36.4321665,43.6122574" id="Fill-3"></path>
                                    <path d="M466.912167,11.6122574 C457.929762,11.6122574 453.381848,9.14792685 448.982258,6.76435822 C444.628475,4.40698265 440.516811,2.18275515 432.090627,2.18275515 C431.488601,2.18275515 431,1.693818 431,1.09137758 C431,0.486754399 431.488601,0 432.090627,0 C441.07085,0 445.618765,2.46214781 450.018354,4.84353369 C454.372137,7.20309201 458.483801,9.42950226 466.912167,9.42950226 C475.340532,9.42950226 479.452196,7.20309201 483.803798,4.8478992 C488.209931,2.46214781 492.757846,0 501.74025,0 C502.342276,0 502.830877,0.486754399 502.830877,1.09137758 C502.830877,1.693818 502.342276,2.18275515 501.74025,2.18275515 C493.311884,2.18275515 489.20022,4.40698265 484.848618,6.76217547 C480.442485,9.1501096 475.894571,11.6122574 466.912167,11.6122574" id="Fill-3-Copy"></path>
                                    <path d="M535.912167,37.6122574 C526.929762,37.6122574 522.381848,35.1479268 517.982258,32.7643582 C513.628475,30.4069827 509.516811,28.1827552 501.090627,28.1827552 C500.488601,28.1827552 500,27.693818 500,27.0913776 C500,26.4867544 500.488601,26 501.090627,26 C510.07085,26 514.618765,28.4621478 519.018354,30.8435337 C523.372137,33.203092 527.483801,35.4295023 535.912167,35.4295023 C544.340532,35.4295023 548.452196,33.203092 552.801617,30.8457164 C557.205568,28.4621478 561.753483,26 570.733706,26 C571.335732,26 571.824333,26.4867544 571.824333,27.0913776 C571.824333,27.693818 571.335732,28.1827552 570.733706,28.1827552 C562.307522,28.1827552 558.195858,30.4069827 553.844256,32.7621755 C549.442485,35.1479268 544.894571,37.6122574 535.912167,37.6122574" id="Fill-5-Copy"></path>
                                </g>
                                <mask id="mask-13" fill="white">
                                    <use xlink:href="#path-12"></use>
                                </mask>
                                <g id="Combined-Shape-Copy">
                                    <use fill="black" fill-opacity="1" filter="url(#filter-14)" xlink:href="#path-12"></use>
                                    <use fill-opacity="0.844910553" fill="#FFFFFF" fill-rule="evenodd" xlink:href="#path-12"></use>
                                    <path stroke-opacity="0.1" stroke="#000000" stroke-width="1" d="M305.096913,9.39440032 C305.11474,9.37848444 305.125216,9.36890303 305.127002,9.36760016 L312.808018,0.266257213 C313.362273,-0.390487587 314.298589,-0.386871921 314.853128,0.274271912 L322.170445,9.00313303 C322.262866,9.09113723 322.441069,9.23352176 322.693813,9.39440032 L398.777698,9.39440032 C402.366609,9.39440032 405.271429,12.2997745 405.271429,15.8942796 L405.271429,196.000121 C405.271429,199.591177 402.366981,202.5 398.777698,202.5 L118.99373,202.5 C115.404819,202.5 112.5,199.594626 112.5,196.000121 L112.5,15.8942796 C112.5,12.3032236 115.404448,9.39440032 118.99373,9.39440032 L305.096913,9.39440032 Z"></path>
                                </g>
                            </g>
                            <g id="Combined-Shape" fill="none" transform="translate(546.995335, 342.207144) rotate(-21.000000) translate(-546.995335, -342.207144) ">
                                <use fill="#555555" fill-rule="evenodd" xlink:href="#path-15"></use>
                                <path stroke="#FFFFFF" stroke-width="2" d="M551.807326,348.014906 L551.807326,365.524218 C551.807326,367.176618 550.456117,368.517934 548.804214,368.517934 L545.186455,368.517934 C543.528685,368.517934 542.183344,367.179326 542.183344,365.524218 L542.183344,348.014906 L535.405214,348.014906 C533.585408,348.014906 532.559136,346.455382 533.277972,344.789566 L545.287863,316.958046 C546.070895,315.143461 547.922273,315.149252 548.702806,316.958046 L560.712698,344.789566 C561.433215,346.459281 560.399336,348.014906 558.585455,348.014906 L551.807326,348.014906 Z"></path>
                            </g>
                            <g id="Group-10" stroke-width="1" fill="none" fill-rule="evenodd" transform="translate(282.000000, 214.000000)">
                                <ellipse id="Oval-3" fill="#E1E1E6" cx="13.9542857" cy="13.9638889" rx="13.9542857" ry="13.9638889"></ellipse>
                                <ellipse id="Oval-3-Copy-2" fill="#E1E1E6" cx="13.9542857" cy="54.9638889" rx="13.9542857" ry="13.9638889"></ellipse>
                                <ellipse id="Oval-3-Copy-3" fill="#E1E1E6" cx="13.9542857" cy="141.963889" rx="13.9542857" ry="13.9638889"></ellipse>
                                <text id="Take-a-Screenshot" font-family="-apple-system, BlinkMacSystemFont, 'segoe ui', 'helvetica neue', helvetica, ubuntu, roboto, noto, arial, sans-serif" font-size="22" font-weight="500" letter-spacing="-0.146666706" fill="#4D4D4D">
                                    <tspan x="47" y="107">Take a Screenshot</tspan>
                                </text>
                                <g id="Glyph-/-Add---on-/-Page-shot" transform="translate(1.000000, 88.000000)" fill="#3E3D40">
                                    <g id="screenshot-16" transform="translate(0.000000, 0.812500)">
                                        <path d="M8.125,3.25 L11.375,3.25 L11.375,0 L8.125,0 L8.125,3.25 Z M3.25,3.25 L6.5,3.25 L6.5,0 C4.70507456,-1.80411242e-16 3.25,1.45507456 3.25,3.25 L3.25,3.25 Z M13,3.25 L16.25,3.25 L16.25,0 L13,0 L13,3.25 Z M17.875,3.25 L21.125,3.25 L21.125,0 L17.875,0 L17.875,3.25 Z M22.75,0 L22.75,3.25 L26,3.25 C26,1.45507456 24.5449254,0 22.75,0 Z M22.75,8.125 L26,8.125 L26,4.875 L22.75,4.875 L22.75,8.125 Z M22.75,13 L26,13 L26,9.75 L22.75,9.75 L22.75,13 Z M22.75,17.875 C24.5449254,17.875 26,16.4199254 26,14.625 L22.75,14.625 L22.75,17.875 Z M3.25,8.125 L6.5,8.125 L6.5,4.875 L3.25,4.875 L3.25,8.125 Z" id="Shape" fill-rule="nonzero"></path>
                                        <path d="M4.0625,6.5 C1.8188432,6.5 2.74768711e-16,8.3188432 0,10.5625 C-2.74768711e-16,12.8061568 1.8188432,14.625 4.0625,14.625 C6.3061568,14.625 8.125,12.8061568 8.125,10.5625 C8.125,9.48505801 7.69698784,8.45174524 6.9351213,7.6898787 C6.17325476,6.92801216 5.13994199,6.5 4.0625,6.5 Z M4.0625,12.59375 C2.9406716,12.59375 2.03125,11.6843284 2.03125,10.5625 C2.03125,9.4406716 2.9406716,8.53125 4.0625,8.53125 C5.1843284,8.53125 6.09375,9.4406716 6.09375,10.5625 C6.09375,11.6843284 5.1843284,12.59375 4.0625,12.59375 Z" id="Shape" fill-rule="nonzero"></path>
                                        <path d="M4.0625,16.25 C1.8188432,16.25 2.74768711e-16,18.0688432 0,20.3125 C-2.74768711e-16,22.5561568 1.8188432,24.375 4.0625,24.375 C6.3061568,24.375 8.125,22.5561568 8.125,20.3125 C8.125,18.0688432 6.3061568,16.25 4.0625,16.25 Z M4.0625,22.34375 C2.9406716,22.34375 2.03125,21.4343284 2.03125,20.3125 C2.03125,19.1906716 2.9406716,18.28125 4.0625,18.28125 C5.1843284,18.28125 6.09375,19.1906716 6.09375,20.3125 C6.09375,21.4343284 5.1843284,22.34375 4.0625,22.34375 Z" id="Shape" fill-rule="nonzero"></path>
                                        <path d="M12.8375,18.396625 L17.740125,22.134125 C19.2106626,23.1628632 21.2366973,22.8049425 22.26575,21.334625 L15.665,16.4125 L12.8375,18.396625 Z M7.65375,19.797375 L22.039875,9.478625 C21.0108223,8.0083075 18.9847876,7.65038682 17.51425,8.679125 L11.275875,13.2795 L7.7675,10.81925 L6.118125,13.632125 L8.441875,15.257125 L5.772,17.14375 L7.65375,19.797375 Z" id="Shape" fill-rule="nonzero"></path>
                                    </g>
                                </g>
                                <rect id="Rectangle-3" fill="#F5F5F7" x="47" y="130" width="59.6228571" height="24.1194444"></rect>
                                <rect id="Rectangle-3-Copy-7" fill="#F5F5F7" x="116" y="130" width="106.56" height="24.1194444"></rect>
                                <rect id="Rectangle-3-Copy" fill="#F5F5F7" x="48" y="43" width="59.6228571" height="24.1194444"></rect>
                                <rect id="Rectangle-3-Copy-5" fill="#F5F5F7" x="116" y="43" width="59.6228571" height="24.1194444"></rect>
                                <rect id="Rectangle-3-Copy-6" fill="#F5F5F7" x="186" y="43" width="30.4457143" height="24.1194444"></rect>
                                <rect id="Rectangle-3-Copy-2" fill="#F5F5F7" x="47.8457143" y="2.54166667" width="30.4457143" height="24.1194444"></rect>
                                <rect id="Rectangle-3-Copy-3" fill="#F5F5F7" x="88.44" y="2.54166667" width="106.56" height="24.1194444"></rect>
                                <rect id="Rectangle-3-Copy-4" fill="#F5F5F7" x="203.88" y="2.54166667" width="49.4742857" height="24.1194444"></rect>
                            </g>
                            <g id="Group-6" stroke-width="1" fill="none" fill-rule="evenodd" transform="translate(535.954286, 288.598611) scale(-1, 1) translate(-535.954286, -288.598611) translate(522.000000, 274.000000)">
                                <path d="M17.6337459,3.65779126 C15.9023696,3.21874197 14.5434716,1.85890876 14.1047243,0.126341006 C14.06283,-0.0421136686 13.8457414,-0.0421136686 13.8038472,0.126341006 C13.3650998,1.85890876 12.0062018,3.21874197 10.2748255,3.65779126 C10.1064867,3.69971437 10.1064867,3.91619006 10.2748255,3.95887541 C12.0062018,4.39792469 13.3650998,5.7577579 13.8038472,7.49032566 C13.8457414,7.65878034 14.06283,7.65878034 14.1047243,7.49032566 C14.5434716,5.7577579 15.9023696,4.39792469 17.6337459,3.95887541 C17.8020847,3.91619006 17.8020847,3.69971437 17.6337459,3.65779126" id="Fill-48" fill="#FFC44D"></path>
                                <path d="M27.6998958,9.29832518 C24.8169015,8.63889783 22.5471726,6.5938957 21.8152802,3.99634786 C21.7412282,3.74566182 21.3839095,3.74566182 21.3156091,3.99634786 C20.5894684,6.5938957 18.3197395,8.63889783 15.4309935,9.29314304 C15.1534784,9.3598631 15.1534784,9.68180357 15.4309935,9.74334148 C18.3139879,10.4027688 20.5837168,12.447771 21.3156091,15.0453188 C21.3896611,15.2960048 21.7469799,15.2960048 21.8152802,15.0453188 C22.5471726,12.447771 24.8169015,10.4027688 27.6998958,9.74334148 C27.97813,9.68180357 27.97813,9.3598631 27.6998958,9.29832518" id="Fill-50" fill="#FFAA00"></path>
                                <path d="M18.7169824,19.3032352 C14.3900777,18.2097576 10.9856785,14.7972415 9.88718282,10.4673591 C9.78476234,10.0516211 9.24957926,10.0516211 9.14138861,10.4673591 C8.04794178,14.7972415 4.63849378,18.2039835 0.31158907,19.3032352 C-0.103863023,19.4057261 -0.103863023,19.9412775 0.31158907,20.0495426 C4.63849378,21.1430202 8.04289288,24.5555363 9.14138861,28.8854187 C9.24380909,29.3011567 9.77899217,29.3011567 9.88718282,28.8854187 C10.9799084,24.5555363 14.3900777,21.1487943 18.7169824,20.0495426 C19.1324345,19.9412775 19.1324345,19.4057261 18.7169824,19.3032352" id="Fill-52" fill="#FFC44D"></path>
                            </g>
                            <ellipse id="Oval-4" fill="#4D4D4D" fill-rule="evenodd" cx="481.44" cy="176.443056" rx="4.44" ry="4.44305556"></ellipse>
                        </g>
                    </g>
                    <circle id="Oval-4-Copy" fill="#4D4D4D" mask="url(#mask-2)" cx="267.5" cy="213.5" r="4.5"></circle>
                    <circle id="Oval-4-Copy-2" fill="#4D4D4D" mask="url(#mask-2)" cx="247.5" cy="213.5" r="4.5"></circle>
                </g>
            </g>
        </g>
    </g>
</svg>
