<svg width="37" height="37" xmlns="http://www.w3.org/2000/svg"><path d="M33.531 0H3.47A3.469 3.469 0 0 0 0 3.469V33.53A3.469 3.469 0 0 0 3.469 37H33.53A3.469 3.469 0 0 0 37 33.531V3.47A3.469 3.469 0 0 0 33.531 0zM27.75 13.783v.616A13.49 13.49 0 0 1 6.937 25.761c.375.022.751.022 1.126 0a9.53 9.53 0 0 0 5.89-2.035 4.748 4.748 0 0 1-4.425-3.222 4.178 4.178 0 0 0 2.066-.077 4.81 4.81 0 0 1-3.886-4.625c0 .355 1.45.57 2.236.586a4.733 4.733 0 0 1-1.403-6.336 13.49 13.49 0 0 0 9.79 4.964 4.748 4.748 0 0 1 8.093-4.332 9.512 9.512 0 0 0 3.083-1.156 4.764 4.764 0 0 1-2.08 2.62 9.466 9.466 0 0 0 2.728-.74 9.65 9.65 0 0 1-2.405 2.375z" fill="#4A4A4A" fill-rule="evenodd"/></svg>