<svg width="37" height="37" xmlns="http://www.w3.org/2000/svg"><path d="M33.531 0H3.47A3.469 3.469 0 0 0 0 3.469V33.53A3.469 3.469 0 0 0 3.469 37h9.697a.894.894 0 0 0 .709-.894v-3.207c-5.242 1.141-6.352-2.528-6.352-2.528a4.995 4.995 0 0 0-2.096-2.76c-1.712-1.171.123-1.14.123-1.14a3.962 3.962 0 0 1 2.883 1.942 4.008 4.008 0 0 0 5.488 1.542 4.024 4.024 0 0 1 1.203-2.513c-4.178-.478-8.572-2.097-8.572-9.25a7.277 7.277 0 0 1 1.866-5.088 6.768 6.768 0 0 1 .184-4.98s1.542-.508 5.18 1.928a17.852 17.852 0 0 1 9.435 0c3.593-2.436 5.18-1.927 5.18-1.927a6.768 6.768 0 0 1 .185 4.98 7.261 7.261 0 0 1 1.943 5.056c0 7.23-4.41 8.834-8.602 9.25a4.502 4.502 0 0 1 1.202 3.53v5.165a.879.879 0 0 0 .663.894h9.697A3.469 3.469 0 0 0 37 33.531V3.47A3.469 3.469 0 0 0 33.531 0z" fill="#4A4A4A" fill-rule="evenodd"/></svg>