<?xml version="1.0" encoding="UTF-8" standalone="no"?>
<svg width="315px" height="30px" viewBox="0 0 315 30" version="1.1" xmlns="http://www.w3.org/2000/svg" xmlns:xlink="http://www.w3.org/1999/xlink">
    <!-- Generator: Sketch 43.2 (39069) - http://www.bohemiancoding.com/sketch -->
    <title>Screenshot logo</title>
    <desc>Created with Sketch.</desc>
    <defs></defs>
    <g id="Landing-page" stroke="none" stroke-width="1" fill="none" fill-rule="evenodd">
        <g id="Landing-Page_Desktop" transform="translate(-140.000000, -28.000000)">
            <g id="Screenshot-logo" transform="translate(140.000000, 28.000000)">
                <rect id="Rectangle-4" fill="#00D1E6" x="289.180328" y="2.25" width="25.2295082" height="11.475" rx="0.9"></rect>
                <path d="M292.074235,5.54282227 L294.528977,5.54282227 C294.889474,5.54282227 295.200042,5.60017032 295.460689,5.71486816 C295.721337,5.829566 295.921034,5.9937001 296.059786,6.20727539 C296.198539,6.42085068 296.267914,6.67397315 296.267914,6.96665039 C296.267914,7.16440529 296.223177,7.35161044 296.133701,7.52827148 C296.044225,7.70493252 295.922332,7.85126895 295.768018,7.96728516 C295.613705,8.08330136 295.441887,8.1558104 295.252561,8.18481445 L295.252561,8.25600586 C295.496351,8.27446298 295.716148,8.3449945 295.911957,8.46760254 C296.107767,8.59021057 296.260782,8.75170798 296.371006,8.95209961 C296.48123,9.15249124 296.536341,9.3739734 296.536341,9.61655273 C296.536341,9.94878096 296.457889,10.2374988 296.300981,10.4827148 C296.144074,10.7279309 295.919739,10.9171136 295.62797,11.0502686 C295.3362,11.1834235 294.991917,11.25 294.595111,11.25 L292.074235,11.25 L292.074235,5.54282227 Z M294.132172,7.90795898 C294.44858,7.90795898 294.691069,7.84467837 294.859647,7.71811523 C295.028225,7.5915521 295.112513,7.41357537 295.112513,7.18417969 C295.112513,6.95478401 295.035357,6.7761481 294.881043,6.6482666 C294.72673,6.5203851 294.509527,6.45644531 294.229428,6.45644531 L293.249087,6.45644531 L293.249087,7.90795898 L294.132172,7.90795898 Z M295.06972,10.1247803 C295.248672,9.98371511 295.338147,9.78003063 295.338147,9.5137207 C295.338147,9.25268424 295.246727,9.05427314 295.063885,8.91848145 C294.881043,8.78268975 294.61586,8.71479492 294.268331,8.71479492 L293.249087,8.71479492 L293.249087,10.336377 L294.295562,10.336377 C294.632718,10.336377 294.890768,10.2658454 295.06972,10.1247803 Z M297.542606,11.25 L297.542606,5.54282227 L301.261676,5.54282227 L301.261676,6.56323242 L298.717459,6.56323242 L298.717459,7.89609375 L301.117737,7.89609375 L301.117737,8.84135742 L298.717459,8.84135742 L298.717459,10.2295898 L301.261676,10.2295898 L301.261676,11.25 L297.542606,11.25 Z M303.804587,6.56323242 L302.120112,6.56323242 L302.120112,5.54282227 L306.663914,5.54282227 L306.663914,6.56323242 L304.979439,6.56323242 L304.979439,11.25 L303.804587,11.25 L303.804587,6.56323242 Z M308.253715,9.88945312 L307.821898,11.25 L306.643155,11.25 L308.592166,5.54282227 L309.973201,5.54282227 L311.922212,11.25 L310.650103,11.25 L310.226067,9.88945312 L308.253715,9.88945312 Z M309.977092,8.96791992 L309.280739,6.7293457 L309.210714,6.7293457 L308.506581,8.96791992 L309.977092,8.96791992 Z" id="BETA" fill="#FFFFFF"></path>
                <g id="Group-8" stroke-width="1" fill="#3E3D40">
                    <path d="M5.42256544,26.6468029 C3.92593738,26.6468029 2.71128272,25.411904 2.71128272,23.8903321 C2.71128272,22.3669226 3.92593738,21.1338613 5.42256544,21.1338613 C6.9191935,21.1338613 8.13384816,22.3669226 8.13384816,23.8903321 C8.13384816,25.411904 6.9191935,26.6468029 5.42256544,26.6468029 M10.7063122,12.2245605 L14.8434936,15.1867643 L22.5932996,9.63974579 C23.408492,9.05904928 24.5418082,9.26302812 25.1111775,10.0899693 C25.6805469,10.9187482 25.4817195,12.0691154 24.6683347,12.6498119 L17.9833654,17.4348988 L17.9866496,17.4372503 L14.9672961,19.5937948 L10.706014,22.6440116 C10.7970292,23.0445016 10.8451309,23.4616999 10.8451309,23.8903321 C10.8451309,26.9334758 8.41762908,29.4032736 5.42256544,29.4032736 C2.42750179,29.4032736 0,26.9334758 0,23.8903321 C0,20.8453507 2.42750179,18.3773906 5.42256544,18.3773906 C6.68020652,18.3773906 7.83777516,18.8125411 8.75756598,19.5428416 L11.7044018,17.4336077 L8.75894316,15.3259581 C7.83893075,16.0571578 6.68083428,16.4930672 5.42256544,16.4930672 C2.42750179,16.4930672 0,14.0232694 0,10.9801256 C0,7.93514427 2.42750179,5.46718411 5.42256544,5.46718411 C8.41762908,5.46718411 10.8451309,7.93514427 10.8451309,10.9801256 C10.8451309,11.4080309 10.7971343,11.8246001 10.7063122,12.2245605 Z M24.6681539,22.2195433 C25.4815387,22.7984022 25.6821737,23.9487693 25.1109968,24.7793858 C24.5416274,25.606327 23.4083112,25.8084682 22.5949264,25.2296094 L16.6644473,20.9846444 L19.8041127,18.7353643 L24.6681539,22.2195433 Z M27.1128272,22.0517661 L27.1128272,18.3764718 L28.920349,18.3764718 L28.920349,22.0517661 L27.1128272,22.0517661 Z M8.13384816,10.9801256 C8.13384816,9.45671613 6.9191935,8.22365488 5.42256544,8.22365488 C3.92593738,8.22365488 2.71128272,9.45671613 2.71128272,10.9801256 C2.71128272,12.5016975 3.92593738,13.7365964 5.42256544,13.7365964 C6.9191935,13.7365964 8.13384816,12.5016975 8.13384816,10.9801256 Z M18.0752181,1.83764718 L18.0752181,0 L21.6902617,0 L21.6902617,1.83764718 L18.0752181,1.83764718 Z M27.1128272,11.0258831 L27.1128272,7.3505887 L28.920349,7.3505887 L28.920349,11.0258831 L27.1128272,11.0258831 Z M27.1128272,16.5388246 L27.1128272,12.8635302 L28.920349,12.8635302 L28.920349,16.5388246 L27.1128272,16.5388246 Z M27.1128272,26.639636 L27.1128272,23.8905159 L28.920349,23.8905159 L28.920349,27.5658102 C28.920349,28.5801915 28.1123867,29.4034574 27.1128272,29.4034574 L23.4977836,29.4034574 L23.4977836,27.5658102 L26.2036437,27.5658102 C26.7043273,27.5658102 27.1128272,27.150502 27.1128272,26.639636 Z M1.80752181,2.75904347 L1.80752181,5.51367659 L0,5.51367659 L0,1.83838223 C0,0.822163346 0.80796225,0.00073505887 1.80752181,0.00073505887 L5.42256544,0.00073505887 L5.42256544,1.83838223 L2.71309024,1.83838223 C2.21421422,1.83838223 1.80752181,2.2500152 1.80752181,2.75904347 Z M12.6526527,29.4023548 L12.6526527,27.5647076 L16.2676963,27.5647076 L16.2676963,29.4023548 L12.6526527,29.4023548 Z M27.1128272,0.000918823588 C28.1123867,0.000918823588 28.920349,0.822347111 28.920349,1.838566 L28.920349,5.51386035 L27.1128272,5.51386035 L27.1128272,2.75187665 C27.1128272,2.24836132 26.7097498,1.838566 26.2144888,1.838566 L23.4977836,1.838566 L23.4977836,0.000918823588 L27.1128272,0.000918823588 Z M12.6526527,1.83764718 L12.6526527,0 L16.2676963,0 L16.2676963,1.83764718 L12.6526527,1.83764718 Z M18.0752181,29.4023548 L18.0752181,27.5647076 L21.6902617,27.5647076 L21.6902617,29.4023548 L18.0752181,29.4023548 Z M7.23008725,1.83764718 L7.23008725,0 L10.8451309,0 L10.8451309,1.83764718 L7.23008725,1.83764718 Z" id="Combined-Shape"></path>
                </g>
                <path d="M36.147541,5.23201893 L48.9026219,5.23201893 L48.9026219,8.77239748 L40.2237679,8.77239748 L40.2237679,13.9320189 L48.1467653,13.9320189 L48.1467653,17.3214511 L40.2237679,17.3214511 L40.2237679,25.0334385 L36.147541,25.0334385 L36.147541,5.23201893 Z M51.8423643,7.22176656 C51.4194424,6.84668582 51.2079847,6.36183263 51.2079847,5.76719243 C51.2079847,5.16340392 51.4194424,4.67626368 51.8423643,4.3057571 C52.2652863,3.93525051 52.827674,3.75 53.5295444,3.75 C54.2314148,3.75 54.7938025,3.93525051 55.2167244,4.3057571 C55.6396463,4.67626368 55.8511041,5.16340392 55.8511041,5.76719243 C55.8511041,6.36183263 55.6373967,6.84668582 55.2099757,7.22176656 C54.7825546,7.5968473 54.2224164,7.78438486 53.5295444,7.78438486 C52.827674,7.78438486 52.2652863,7.5968473 51.8423643,7.22176656 Z M55.4866732,9.89763407 L55.4866732,25.0334385 L51.5589181,25.0334385 L51.5589181,9.89763407 L55.4866732,9.89763407 Z M62.51614,9.89763407 L62.51614,12.312776 L62.7590939,12.312776 C62.8850706,11.8096189 63.1325212,11.3567843 63.5014531,10.9542587 C63.870385,10.551733 64.3202952,10.233834 64.8511971,10.0005521 C65.3820991,9.76727013 65.9579841,9.65063091 66.5788695,9.65063091 C66.8668163,9.65063091 67.1547588,9.66892726 67.4427056,9.7055205 C67.7306525,9.74211375 67.9556075,9.78785462 68.1175776,9.84274448 L68.1175776,13.4791798 C67.9646059,13.4151416 67.6946598,13.3579656 67.3077312,13.3076498 C66.9208027,13.2573341 66.5698727,13.2321767 66.2549309,13.2321767 C65.5440622,13.2321767 64.9141879,13.3693993 64.3652893,13.6438486 C63.8163906,13.9182979 63.3912255,14.3139564 63.0897812,14.830836 C62.7883368,15.3477155 62.6376169,15.953782 62.6376169,16.6490536 L62.6376169,25.0334385 L58.7098619,25.0334385 L58.7098619,9.89763407 L62.51614,9.89763407 Z M81.7202978,23.187776 C81.1084108,23.8876218 80.3255671,24.425077 79.3717432,24.8001577 C78.4179193,25.1752385 77.3381349,25.362776 76.1323576,25.362776 C74.629635,25.362776 73.3383928,25.0517381 72.2585922,24.429653 C71.1787916,23.8075679 70.3532065,22.9110469 69.781812,21.7400631 C69.2104175,20.5690793 68.9247245,19.1694088 68.9247245,17.5410095 C68.9247245,15.9126102 69.212667,14.4992173 69.7885607,13.3007886 C70.3644543,12.1023599 71.1900395,11.1806815 72.265341,10.5357256 C73.3406424,9.89076965 74.6116386,9.56829653 76.0783678,9.56829653 C77.5360986,9.56829653 78.7868489,9.87018626 79.8306562,10.4739748 C80.8744634,11.0777633 81.673054,11.9537009 82.2264518,13.1018139 C82.7798496,14.2499269 83.0565443,15.6198659 83.0565443,17.2116719 L83.0565443,18.4329653 L72.8389822,18.4329653 L72.8389822,18.6388013 C72.8659772,19.7640435 73.1831638,20.6537034 73.7905517,21.3078076 C74.3979395,21.9619118 75.2145265,22.288959 76.2403371,22.288959 C77.0141942,22.288959 77.6620648,22.1540234 78.1839685,21.8841483 C78.7058721,21.6142731 79.0702993,21.2277628 79.2772611,20.7246057 L82.9350674,20.7246057 C82.7371039,21.6668817 82.3321848,22.4879303 81.7202978,23.187776 Z M74.4789211,13.0332019 C74.0065084,13.3030771 73.6285838,13.6827263 73.3451362,14.1721609 C73.0616885,14.6615955 72.8974713,15.2310693 72.8524796,15.8805994 L79.1962765,15.8805994 C79.1512848,14.8742852 78.8520945,14.0806811 78.2986967,13.4997634 C77.7452989,12.9188457 77.0096958,12.6283912 76.0918652,12.6283912 C75.4889766,12.6283912 74.9513339,12.7633267 74.4789211,13.0332019 Z M84.2686144,13.1910095 L84.2686144,10.0485804 L86.6711588,10.0485804 L86.6711588,8.56656151 C86.6711588,7.06623856 87.1075716,5.97074478 87.9804105,5.28004732 C88.8532493,4.58934986 90.1804843,4.24400631 91.9621553,4.24400631 C92.5740423,4.24400631 93.1859202,4.29432126 93.7978072,4.39495268 L93.7978072,7.26293375 C93.4558703,7.18974727 93.0284557,7.15315457 92.5155504,7.15315457 C91.8226783,7.15315457 91.3165294,7.29723831 90.9970883,7.58541009 C90.6776473,7.87358188 90.5179292,8.32412943 90.5179292,8.93706625 L90.5179292,10.0485804 L93.6763302,10.0485804 L93.6763302,13.1910095 L90.5989139,13.1910095 L90.5989139,25.0334385 L86.6711588,25.0334385 L86.6711588,13.1910095 L84.2686144,13.1910095 Z M98.222268,24.4227918 C97.1244707,23.7961325 96.2831387,22.8881763 95.6982467,21.6988959 C95.1133547,20.5096155 94.8209131,19.0962227 94.8209131,17.4586751 C94.8209131,15.8394241 95.1156043,14.4374665 95.7049954,13.2527603 C96.2943866,12.068054 97.1402177,11.1578108 98.2425142,10.5220032 C99.3448106,9.88619556 100.647301,9.56829653 102.150023,9.56829653 C103.652746,9.56829653 104.955236,9.88390852 106.057532,10.515142 C107.159828,11.1463754 108.00566,12.0543316 108.595051,13.2390379 C109.184442,14.4237441 109.479133,15.8302758 109.479133,17.4586751 C109.479133,19.0962227 109.186691,20.5096155 108.601799,21.6988959 C108.016907,22.8881763 107.175575,23.7961325 106.077778,24.4227918 C104.979981,25.0494511 103.670742,25.362776 102.150023,25.362776 C100.629304,25.362776 99.3200653,25.0494511 98.222268,24.4227918 Z M104.579562,20.8824132 C105.155456,20.0727877 105.443398,18.9315531 105.443398,17.4586751 C105.443398,16.0040937 105.153206,14.8697202 104.572814,14.0555205 C103.992421,13.2413209 103.184832,12.8342271 102.150023,12.8342271 C101.106216,12.8342271 100.296378,13.2413209 99.7204839,14.0555205 C99.1445902,14.8697202 98.8566477,16.0040937 98.8566477,17.4586751 C98.8566477,18.9315531 99.1423407,20.0727877 99.7137352,20.8824132 C100.28513,21.6920387 101.097218,22.0968454 102.150023,22.0968454 C103.19383,22.0968454 104.003669,21.6920387 104.579562,20.8824132 Z M114.214035,25.0334385 L110.043326,25.0334385 L114.71344,17.5547319 L110.016331,9.89763407 L114.524476,9.89763407 L117.156477,14.865142 L117.399431,14.865142 L120.031432,9.89763407 L124.323618,9.89763407 L119.653503,17.3763407 L124.36411,25.0334385 L119.990939,25.0334385 L117.223964,20.0933754 L116.98101,20.0933754 L114.214035,25.0334385 Z M135.669566,21.6577287 C136.110484,22.1700341 136.690869,22.5634056 137.410736,22.8378549 C138.130603,23.1123042 138.949439,23.2495268 139.86727,23.2495268 C140.73111,23.2495268 141.509455,23.103156 142.202327,22.8104101 C142.895199,22.5176642 143.437341,22.1128575 143.828768,21.5959779 C144.220196,21.0790984 144.415907,20.4959023 144.415907,19.8463722 C144.415907,19.0047277 144.10097,18.3071794 143.471086,17.7537066 C142.841203,17.2002338 141.855899,16.7496863 140.515147,16.4020505 L138.01812,15.7433754 C136.254446,15.2951082 134.972202,14.6455879 134.17135,13.794795 C133.370498,12.9440021 132.970078,11.8142026 132.970078,10.4053628 C132.970078,9.29841718 133.25802,8.31727557 133.833914,7.46190852 C134.409808,6.60654146 135.217396,5.94329889 136.256704,5.47216088 C137.296013,5.00102288 138.495023,4.76545741 139.853772,4.76545741 C141.095543,4.76545741 142.218069,4.99873584 143.221384,5.46529968 C144.224698,5.93186353 145.027788,6.58138385 145.630677,7.41388013 C146.233565,8.2463764 146.566499,9.18863827 146.629487,10.240694 L144.186451,10.240694 C144.015482,9.22523152 143.540827,8.43162746 142.762471,7.85985804 C141.984114,7.28808862 140.987563,7.0022082 139.772788,7.0022082 C138.917945,7.0022082 138.164346,7.1394308 137.511966,7.41388013 C136.859587,7.68832945 136.355687,8.07712682 136.000253,8.58028391 C135.644819,9.083441 135.467104,9.66435002 135.467104,10.3230284 C135.467104,11.1006348 135.757296,11.7318588 136.337689,12.2167192 C136.918082,12.7015797 137.87864,13.1178216 139.219393,13.4654574 L141.257506,14.0143533 C142.616255,14.3619891 143.707287,14.778231 144.530635,15.2630915 C145.353983,15.747952 145.956863,16.3380091 146.339292,17.0332808 C146.721722,17.7285524 146.912933,18.5656102 146.912933,19.5444795 C146.912933,20.7429082 146.615993,21.7926611 146.022102,22.6937697 C145.428212,23.5948783 144.584631,24.2878525 143.491332,24.7727129 C142.398034,25.2575734 141.113541,25.5 139.637813,25.5 C138.270066,25.5 137.055308,25.2667216 135.993504,24.8001577 C134.9317,24.3335939 134.088119,23.6749254 133.462734,22.8241325 C132.83735,21.9733396 132.48417,20.9853369 132.403185,19.8600946 L134.859719,19.8600946 C134.958701,20.5462179 135.228647,21.1454233 135.669566,21.6577287 Z M158.32232,12.8548107 C157.66994,12.3562278 156.844355,12.1069401 155.845539,12.1069401 C154.981699,12.1069401 154.228099,12.3310703 153.584718,12.7793375 C152.941337,13.2276048 152.446436,13.8634028 152.1,14.6867508 C151.753564,15.5100988 151.580348,16.4752311 151.580348,17.5821767 C151.580348,18.7074189 151.755813,19.6908475 152.106748,20.5324921 C152.457684,21.3741367 152.954834,22.023657 153.598216,22.4810726 C154.241597,22.9384881 154.990697,23.1671924 155.845539,23.1671924 C156.826358,23.1671924 157.642945,22.9430622 158.295325,22.494795 C158.947704,22.0465277 159.381868,21.4061556 159.597828,20.5736593 L161.946382,20.5736593 C161.802409,21.4884904 161.469475,22.3026778 160.947572,23.0162461 C160.425668,23.7298143 159.730557,24.2878529 158.862217,24.6903785 C157.993878,25.0929042 156.992827,25.294164 155.859037,25.294164 C154.509286,25.294164 153.330521,24.9785521 152.322707,24.3473186 C151.314894,23.7160852 150.538799,22.8195642 149.994399,21.6577287 C149.45,20.4958932 149.177804,19.1373895 149.177804,17.5821767 C149.177804,16.0544088 149.45,14.7187754 149.994399,13.5752366 C150.538799,12.4316978 151.314894,11.546612 152.322707,10.9199527 C153.330521,10.2932934 154.504787,9.97996845 155.845539,9.97996845 C156.988328,9.97996845 157.996127,10.1926635 158.868966,10.6180599 C159.741805,11.0434564 160.439166,11.6175043 160.961069,12.3402208 C161.482973,13.0629374 161.811407,13.8725507 161.946382,14.7690852 L159.597828,14.7690852 C159.399864,13.9914788 158.974699,13.3533937 158.32232,12.8548107 Z M166.843254,10.240694 L166.843254,12.4362776 L167.059213,12.4362776 C167.203186,11.9605654 167.470883,11.5374624 167.86231,11.1669558 C168.253738,10.7964493 168.730643,10.5059947 169.293039,10.2955836 C169.855435,10.0851724 170.456065,9.97996845 171.094947,9.97996845 C171.535866,9.97996845 171.922788,10.0028389 172.255727,10.0485804 L172.255727,12.4088328 C172.156745,12.3813879 171.940788,12.3516563 171.60785,12.3196372 C171.274911,12.2876181 170.995967,12.2716088 170.771009,12.2716088 C170.042143,12.2716088 169.387524,12.4248407 168.807131,12.7313091 C168.226738,13.0377776 167.772329,13.4654547 167.44389,14.0143533 C167.11545,14.563252 166.951233,15.1807537 166.951233,15.866877 L166.951233,25.0334385 L164.629673,25.0334385 L164.629673,10.240694 L166.843254,10.240694 Z M183.827082,24.2100946 C182.751781,24.9328112 181.422296,25.294164 179.838589,25.294164 C178.506835,25.294164 177.346067,24.9831261 176.356249,24.361041 C175.366432,23.7389559 174.606084,22.8515831 174.075182,21.6988959 C173.54428,20.5462087 173.278833,19.1968532 173.278833,17.6507886 C173.278833,16.1138724 173.546529,14.7668039 174.081931,13.6095426 C174.617332,12.4522813 175.37993,11.5580473 176.369747,10.9268139 C177.359564,10.2955804 178.515833,9.97996845 179.838589,9.97996845 C181.13435,9.97996845 182.256875,10.2795711 183.2062,10.8787855 C184.155525,11.4779998 184.884379,12.3379282 185.392785,13.4585962 C185.901192,14.5792643 186.155391,15.8988883 186.155391,17.4175079 L186.155391,18.3231861 L175.694875,18.3231861 L175.694875,18.4329653 C175.730868,19.4026862 175.926579,20.2466052 176.282013,20.9647476 C176.637448,21.68289 177.123351,22.2363545 177.739737,22.6251577 C178.356123,23.0139609 179.07373,23.2083596 179.892579,23.2083596 C180.828406,23.2083596 181.61125,23.0391184 182.241133,22.7006309 C182.871017,22.3621434 183.338923,21.863568 183.644867,21.2048896 L185.966427,21.2048896 C185.615491,22.4856531 184.902384,23.4873781 183.827082,24.2100946 Z M177.759983,12.6078076 C177.157094,12.9691658 176.675691,13.4768895 176.315757,14.1309937 C175.955823,14.7850979 175.748865,15.5466834 175.694875,16.4157729 L183.712354,16.4157729 C183.694357,15.5466834 183.521142,14.7850979 183.192703,14.1309937 C182.864263,13.4768895 182.409854,12.9691658 181.829461,12.6078076 C181.249068,12.2464493 180.576453,12.0657729 179.811594,12.0657729 C179.046735,12.0657729 178.362872,12.2464493 177.759983,12.6078076 Z M198.874029,24.2100946 C197.798727,24.9328112 196.469243,25.294164 194.885535,25.294164 C193.553781,25.294164 192.393013,24.9831261 191.403196,24.361041 C190.413378,23.7389559 189.65303,22.8515831 189.122128,21.6988959 C188.591226,20.5462087 188.325779,19.1968532 188.325779,17.6507886 C188.325779,16.1138724 188.593476,14.7668039 189.128877,13.6095426 C189.664278,12.4522813 190.426876,11.5580473 191.416693,10.9268139 C192.40651,10.2955804 193.562779,9.97996845 194.885535,9.97996845 C196.181296,9.97996845 197.303822,10.2795711 198.253146,10.8787855 C199.202471,11.4779998 199.931326,12.3379282 200.439732,13.4585962 C200.948138,14.5792643 201.202337,15.8988883 201.202337,17.4175079 L201.202337,18.3231861 L190.741821,18.3231861 L190.741821,18.4329653 C190.777814,19.4026862 190.973525,20.2466052 191.32896,20.9647476 C191.684394,21.68289 192.170297,22.2363545 192.786683,22.6251577 C193.403069,23.0139609 194.120676,23.2083596 194.939525,23.2083596 C195.875352,23.2083596 196.658196,23.0391184 197.288079,22.7006309 C197.917963,22.3621434 198.38587,21.863568 198.691813,21.2048896 L201.013373,21.2048896 C200.662438,22.4856531 199.94933,23.4873781 198.874029,24.2100946 Z M192.806929,12.6078076 C192.204041,12.9691658 191.722637,13.4768895 191.362703,14.1309937 C191.00277,14.7850979 190.795811,15.5466834 190.741821,16.4157729 L198.7593,16.4157729 C198.741304,15.5466834 198.568088,14.7850979 198.239649,14.1309937 C197.91121,13.4768895 197.4568,12.9691658 196.876408,12.6078076 C196.296015,12.2464493 195.623399,12.0657729 194.85854,12.0657729 C194.093681,12.0657729 193.409818,12.2464493 192.806929,12.6078076 Z M206.315167,10.240694 L206.315167,12.5735016 L206.531126,12.5735016 C206.909057,11.731857 207.460197,11.0891978 208.184563,10.6455047 C208.908929,10.2018117 209.815498,9.97996845 210.904297,9.97996845 C212.532996,9.97996845 213.788246,10.4533864 214.670083,11.4002366 C215.55192,12.3470868 215.992832,13.6987294 215.992832,15.455205 L215.992832,25.0334385 L213.671272,25.0334385 L213.671272,16.0315457 C213.671272,14.7050407 213.390078,13.719325 212.827682,13.0743691 C212.265286,12.4294132 211.403708,12.1069401 210.242922,12.1069401 C209.469065,12.1069401 208.79645,12.2738942 208.225055,12.6078076 C207.653661,12.9417209 207.210499,13.4242871 206.895557,14.0555205 C206.580615,14.6867539 206.423147,15.427756 206.423147,16.2785489 L206.423147,25.0334385 L204.101587,25.0334385 L204.101587,10.240694 L206.315167,10.240694 Z M219.857149,12.0932177 C220.329562,11.4345393 220.979682,10.9176675 221.807529,10.5425868 C222.635376,10.167506 223.557692,9.97996845 224.574504,9.97996845 C225.582318,9.97996845 226.482139,10.1423485 227.273992,10.4671136 C228.065846,10.7918786 228.702469,11.2515743 229.18388,11.8462145 C229.665291,12.4408547 229.955483,13.14069 230.054465,13.9457413 L227.7599,13.9457413 C227.59793,13.3419528 227.240252,12.8639608 226.686854,12.5117508 C226.133456,12.1595408 225.424847,11.9834385 224.561007,11.9834385 C223.985113,11.9834385 223.463217,12.0772073 222.995304,12.2647476 C222.52739,12.452288 222.158464,12.7130109 221.888514,13.0469243 C221.618564,13.3808376 221.483591,13.7627739 221.483591,14.1927445 C221.483591,14.6959016 221.6883,15.1144305 222.097724,15.4483438 C222.507148,15.7822572 223.143771,16.0544154 224.007612,16.2648265 L226.248187,16.8137224 C227.633931,17.1522099 228.657477,17.6416372 229.318855,18.2820189 C229.980232,18.9224007 230.310916,19.7686067 230.310916,20.8206625 C230.310916,21.689752 230.056717,22.4627726 229.548311,23.1397476 C229.039905,23.8167226 228.342544,24.3450296 227.456208,24.7246845 C226.569871,25.1043394 225.57782,25.294164 224.480022,25.294164 C223.40922,25.294164 222.45766,25.1294969 221.625314,24.8001577 C220.792967,24.4708185 220.1271,24.0019747 219.627693,23.393612 C219.128285,22.7852493 218.838093,22.0739788 218.757108,21.2597792 L221.146155,21.2597792 C221.344118,21.9001609 221.73554,22.4010234 222.320432,22.7623817 C222.905324,23.12374 223.652175,23.3044164 224.561007,23.3044164 C225.208887,23.3044164 225.787022,23.2060735 226.295428,23.0093849 C226.803834,22.8126962 227.202005,22.540538 227.489951,22.1929022 C227.777898,21.8452664 227.92187,21.4473209 227.92187,20.9990536 C227.92187,19.9927394 227.152523,19.2974783 225.613807,18.9132492 L223.116781,18.2957413 C221.740035,17.9572538 220.734486,17.4701136 220.100103,16.834306 C219.46572,16.1984984 219.148533,15.3500053 219.148533,14.2888013 C219.148533,13.4837499 219.384736,12.751896 219.857149,12.0932177 Z M235.666701,4.36750789 L235.666701,12.5735016 L235.88266,12.5735016 C236.251592,11.7410053 236.816229,11.1006332 237.576588,10.6523659 C238.336948,10.2040987 239.266013,9.97996845 240.36381,9.97996845 C241.38962,9.97996845 242.278193,10.1949505 243.029554,10.6249211 C243.780915,11.0548917 244.3613,11.6815416 244.770724,12.5048896 C245.180148,13.3282376 245.384858,14.3116662 245.384858,15.455205 L245.384858,25.0334385 L243.063298,25.0334385 L243.063298,16.0315457 C243.063298,14.7233373 242.779854,13.7421957 242.212959,13.0880915 C241.646064,12.4339873 240.809231,12.1069401 239.702435,12.1069401 C238.847593,12.1069401 238.118739,12.2784683 237.51585,12.62153 C236.912961,12.9645916 236.454053,13.4517319 236.139111,14.0829653 C235.824169,14.7141987 235.666701,15.4460526 235.666701,16.2785489 L235.666701,25.0334385 L233.345141,25.0334385 L233.345141,4.36750789 L235.666701,4.36750789 Z M251.287288,24.3679022 C250.274975,23.7503912 249.49888,22.8675925 248.95898,21.7194795 C248.419079,20.5713665 248.149133,19.2105757 248.149133,17.6370662 C248.149133,16.0635568 248.419079,14.7004789 248.95898,13.5477918 C249.49888,12.3951046 250.272725,11.5123059 251.280539,10.8993691 C252.288353,10.2864323 253.480615,9.97996845 254.857361,9.97996845 C256.234107,9.97996845 257.426369,10.2864323 258.434183,10.8993691 C259.441997,11.5123059 260.215842,12.3951046 260.755742,13.5477918 C261.295643,14.7004789 261.565589,16.0635568 261.565589,17.6370662 C261.565589,19.2105757 261.295643,20.5713665 260.755742,21.7194795 C260.215842,22.8675925 259.439747,23.7503912 258.427434,24.3679022 C257.415121,24.9854132 256.225108,25.294164 254.857361,25.294164 C253.489614,25.294164 252.299601,24.9854132 251.287288,24.3679022 Z M258.042757,21.7194795 C258.789619,20.7543327 259.163044,19.3935419 259.163044,17.6370662 C259.163044,15.8805906 258.789619,14.5197998 258.042757,13.554653 C257.295895,12.5895062 256.234107,12.1069401 254.857361,12.1069401 C253.480615,12.1069401 252.418827,12.5895062 251.671965,13.554653 C250.925103,14.5197998 250.551678,15.8805906 250.551678,17.6370662 C250.551678,19.3935419 250.925103,20.7543327 251.671965,21.7194795 C252.418827,22.6846263 253.480615,23.1671924 254.857361,23.1671924 C256.234107,23.1671924 257.295895,22.6846263 258.042757,21.7194795 Z M267.758214,10.240694 L270.9976,10.240694 L270.9976,12.2167192 L267.758214,12.2167192 L267.758214,20.5873817 C267.758214,21.4564712 267.92918,22.0876952 268.271117,22.4810726 C268.613054,22.8744499 269.161944,23.0711356 269.917805,23.0711356 C270.250743,23.0711356 270.610671,23.0528393 270.9976,23.0162461 L270.9976,25.0059937 C270.484695,25.0974768 270.030285,25.1432177 269.634358,25.1432177 C268.626545,25.1432177 267.816706,25.0105691 267.204819,24.7452681 C266.592932,24.4799671 266.145272,24.0591511 265.861824,23.4828076 C265.578376,22.906464 265.436655,22.1425915 265.436655,21.1911672 L265.436655,12.2167192 L263.0881,12.2167192 L263.0881,10.240694 L265.436655,10.240694 L265.436655,6.41214511 L267.758214,6.41214511 L267.758214,10.240694 Z M273.863106,12.0932177 C274.335519,11.4345393 274.985639,10.9176675 275.813486,10.5425868 C276.641334,10.167506 277.563649,9.97996845 278.580462,9.97996845 C279.588276,9.97996845 280.488096,10.1423485 281.27995,10.4671136 C282.071804,10.7918786 282.708426,11.2515743 283.189838,11.8462145 C283.671249,12.4408547 283.961441,13.14069 284.060422,13.9457413 L281.765858,13.9457413 C281.603887,13.3419528 281.246209,12.8639608 280.692811,12.5117508 C280.139413,12.1595408 279.430805,11.9834385 278.566964,11.9834385 C277.991071,11.9834385 277.469175,12.0772073 277.001261,12.2647476 C276.533348,12.452288 276.164421,12.7130109 275.894471,13.0469243 C275.624521,13.3808376 275.489548,13.7627739 275.489548,14.1927445 C275.489548,14.6959016 275.694257,15.1144305 276.103681,15.4483438 C276.513106,15.7822572 277.149729,16.0544154 278.013569,16.2648265 L280.254144,16.8137224 C281.639888,17.1522099 282.663434,17.6416372 283.324812,18.2820189 C283.98619,18.9224007 284.316874,19.7686067 284.316874,20.8206625 C284.316874,21.689752 284.062675,22.4627726 283.554268,23.1397476 C283.045862,23.8167226 282.348502,24.3450296 281.462165,24.7246845 C280.575829,25.1043394 279.583777,25.294164 278.48598,25.294164 C277.415177,25.294164 276.463617,25.1294969 275.631271,24.8001577 C274.798925,24.4708185 274.133058,24.0019747 273.63365,23.393612 C273.134242,22.7852493 272.84405,22.0739788 272.763065,21.2597792 L275.152112,21.2597792 C275.350075,21.9001609 275.741497,22.4010234 276.326389,22.7623817 C276.911281,23.12374 277.658132,23.3044164 278.566964,23.3044164 C279.214845,23.3044164 279.792979,23.2060735 280.301385,23.0093849 C280.809791,22.8126962 281.207962,22.540538 281.495909,22.1929022 C281.783856,21.8452664 281.927827,21.4473209 281.927827,20.9990536 C281.927827,19.9927394 281.15848,19.2974783 279.619765,18.9132492 L277.122738,18.2957413 C275.745992,17.9572538 274.740443,17.4701136 274.10606,16.834306 C273.471677,16.1984984 273.154491,15.3500053 273.154491,14.2888013 C273.154491,13.4837499 273.390694,12.751896 273.863106,12.0932177 Z" id="Firefox-Screenshots" fill="#313131"></path>
            </g>
        </g>
    </g>
</svg>