<svg width="256" height="124" xmlns="http://www.w3.org/2000/svg"><defs><path id="a" d="M91.578 0v19.554H0V0z"/></defs><g fill="none" fill-rule="evenodd"><path d="M140.415 52.267c-.781 0-1.415-.73-1.415-1.633 0-.904.634-1.634 1.415-1.634H231c.781 0 1.415.73 1.415 1.634 0 .903-.634 1.633-1.415 1.633h-90.586zm32.292-7.633c-.39 0-.707-.366-.707-.817 0-.451.317-.817.707-.817h43.496c.39 0 .707.366.707.817 0 .45-.317.817-.707.817h-43.496z" fill="#04BFD3"/><path d="M240.17 26.717c.675-.39 1.214-.822 1.735-1.481l6.958-9.407c1.945-2.68 1.312-6.506-1.257-8.616-2.706-2.15-6.388-1.7-8.3.84l-6.959 9.407c-1.944 2.68-1.312 6.506 1.257 8.616 1.953 1.627 4.538 1.811 6.565.64zm-20.102 10.515a5.765 5.765 0 0 0 2.856-5.003l.105-13.474c.068-3.393-2.61-6.277-5.91-6.528-3.298-.252-5.957 2.361-6.025 5.754l-.105 13.474c-.069 3.393 2.61 6.278 5.909 6.529a5.783 5.783 0 0 0 3.17-.752z" fill="#009EC0" fill-rule="nonzero"/><path d="M237.49 11.498c1.578-.192 11.031 2.135 19.456 19.068 8.217 16.573 20.144 6.214 21.073 31.427.24 5.49 34.166 43.136-23.04 31.844-1.954-.07-43.607-27.498-48.873-53.2-1.732-8.462 6.431-26.708 31.384-29.139z" fill="#009EC0" fill-rule="nonzero"/><path d="M228.073 60.26c-1.048 1.816-3.14 4.391-7.262 7.608-7.513 5.95-23.602 3.468-25.402 3.185-1.395-.2-2.427-1.552-2.16-3.062.203-1.396 1.555-2.43 3.063-2.165 4.298.666 16.434 1.622 21.356-2.193 5.41-4.138 6.332-6.782 6.332-6.782.202-1.397 1.554-2.431 2.95-2.23 1.394.2 2.426 1.551 2.224 2.948-.083.405-.315 1.33-1.101 2.692" fill="#009EC0"/><path d="M234.18 12.346c-5.877.16-17.49 7.942-23.584 10.263-3.216 1.258-10.463 7.238-10.463 7.238l4.553-.113-4.264 3.54 3.967.823 1.58 5.076.5-.888 22.098-23.177 5.614-2.762z" fill="#009EC0" fill-rule="nonzero"/><path d="M236.98 19.487c6.786.634 30.182 45.318 29.396 51.76-1.342 10.356-17.684 14.175-21.552 11.378-1.42-1.096-31.961-20.83-36.353-44.043-1.214-6.005 4.938-21.295 28.51-19.095z" fill="#00C6DB" fill-rule="nonzero"/><path d="M233.753 33.056c-.455.383-.398 1.068-.002 1.558l1.751 1.863c.396.49 1.059.467 1.513.085.455-.382.398-1.068.002-1.558l-1.751-1.863c-.48-.441-1.143-.418-1.513-.085zm-17.768 10.842c-.455.382-.397 1.067-.001 1.557l1.751 1.864c.396.49 1.058.467 1.513.084.455-.382.397-1.068.002-1.558l-1.752-1.863c-.395-.49-1.11-.557-1.513-.084z" fill="#363959" fill-rule="nonzero"/><path d="M239.246 40.946c.254-.146.592-.341.793-.577 1.717-1.71 1.303-3.986 1.251-4.076-.09-.547-.655-.94-1.18-.875-.527.064-.878.626-.788 1.173.052.09.2 1.322-.742 2.225-.943.904-2.118.624-2.254.583-.546-.164-1.053.128-1.183.683-.13.554.18 1.093.726 1.257.273.082 1.772.534 3.377-.393zm-19.815 8.179c.253-.146.591-.341.793-.577 1.716-1.71 1.303-3.986 1.251-4.076-.09-.547-.655-.94-1.181-.875-.526.064-.877.626-.787 1.173.052.09.2 1.322-.743 2.225-.942.904-2.202.673-2.202.673-.545-.164-1.052.128-1.183.683-.13.554.181 1.093.727 1.257.22-.008 1.804.395 3.325-.483zm19.499 1.731c.422-.244.637-.847.378-1.296-.311-.539-.857-.703-1.33-.549-5.329 2.477-10.766 4.18-11.74 3.663-1.161-.646-2.075-2.035-2.127-2.124-.26-.45-.89-.565-1.312-.321-.422.244-.637.847-.378 1.296.382.857.855 2.261.776 2.905-.124 1.15-.884 1.589-.884 1.589-.507.293-.638.847-.463 1.345.311.539.857.703 1.33.549a3.986 3.986 0 0 0 1.959-3.047c.032-.138.013-.367.046-.505.052.09.136.04.188.13 2.323 1.294 10.191-2.051 13.557-3.635z" fill="#009EC0" fill-rule="nonzero"/><g fill-rule="nonzero" fill="#363959"><path d="M225.26 47.933c.935.06-1.641 4.181-2.148 4.474-.76.439-5.463.878-6.072-.567-.33-.767 4.648-4.24 8.22-3.907z"/><path d="M223.63 53.305c.676-.39 3.122-3.958 2.734-5.41-.175-.498-.52-.899-1.097-.924-3.35-.341-7.945 2.431-9.018 3.889-.436.61-.313 1.019-.19 1.427.227.588.792.98 1.525 1.275 1.772.534 5.117.28 6.046-.257zm.518-4.37c-.501.887-1.32 2.199-1.607 2.484-.727.3-3.104.475-4.195.146.994-.813 3.477-2.366 5.802-2.63z"/></g><g fill-rule="nonzero"><path d="M237.522 51.255l1.972 1.855c1.68 1.545 1.86 4.197.396 5.76-1.41 1.653-3.976 1.696-5.572.103l-4.956-4.684 8.16-3.034z" fill="#FF1AD9"/><path d="M230.616 55.474l-1.254-1.185 8.16-3.034 1.283 1.208-8.19 3.011z" fill="#E100BB"/></g><path d="M238.055 57.293l.17-.097c.2-.236.13-.555-.058-.686l-3.653-3.4c-.24-.22-.545-.164-.663.023-.201.237-.13.555.058.686l3.653 3.4c.104.18.324.172.493.074z" fill="#E100BB" fill-rule="nonzero"/><path d="M252.476 39.618s1.652 3.836.681 7.032c-.97 3.195 5.556 3.38 7.98 7.968 2.391 4.727-8.66-15-8.66-15z" fill="#009EC0" fill-rule="nonzero"/><g fill-rule="nonzero"><path d="M198.965 81.118l5.885-2.296 14.044 37.456c1.136 3.121-.034 6.313-2.6 7.554-.242.088-.412-.003-.511-.275l-16.818-42.439z" fill="#C8C8CC"/><path d="M199.896 122.117c-.071.18-.314.268-.655.085-2.463-1.87-3.335-5.394-1.895-8.223l17.056-33.408 5.582 3.654-20.088 37.892z" fill="#E1E1E6"/><path d="M232.347 77.113c-.526-2.575-1.971-4.661-3.995-6.076a5.597 5.597 0 0 0-3.163-1.154c-3.45-.435-6.765 1.387-8.492 4.935-.192.223-.215.539-.408.763l-5.542 10.776c-.264.404-.309 1.035-.111 1.578.197.542.516 1.041.857 1.224l3.437 2.284c.22.227.512.275.803.322.292.048.413.004.655-.085.485-.176.92-.488 1.063-.847l1.632-3.053.512.275a5.595 5.595 0 0 0 3.163 1.153c3.45.435 6.765-1.386 8.491-4.934 1.323-2.019 1.623-4.586 1.098-7.161zm-4.265 5.24c-1.032 2.066-3.064 3.267-4.935 3.026-.583-.096-1.045-.235-1.606-.645-1.633-1.096-2.473-3.403-2.146-5.52.116-.81.524-1.574.955-2.652 1.13-1.795 2.848-2.727 4.598-2.442.583.095 1.045.234 1.606.645 1.072.685 1.76 1.818 2.01 3.263.445 1.221.212 2.843-.482 4.325zm-19.986 3.125L203.53 73.31l-.297-.814c-1.383-3.8-4.434-6.531-7.763-7.01a6.863 6.863 0 0 0-3.446.332c-4.239 1.543-6.05 7.12-4.124 12.412 1.383 3.8 4.435 6.53 7.764 7.01a6.863 6.863 0 0 0 3.445-.333l.485-.176 1.284 3.528c.296.814.857 1.225 1.611 1.411.292.048.534-.04.776-.128l3.634-1.323c.484-.176.749-.58 1.013-.983.408-.764.381-1.215.184-1.758zm-12.092-4.204c-1.871-.241-3.702-1.88-4.542-4.187-1.136-3.12-.257-6.36 2.044-7.198a3.258 3.258 0 0 1 1.723-.166c1.75.285 3.36 1.697 4.294 3.508.395 1.086.57 1.944.746 2.802.135 2.256-.775 4.278-2.592 4.94-.435.311-1.09.396-1.673.3z" fill="#FA0"/><path d="M209.572 100.462c-1.14.261-2.262-.56-2.536-1.69-.323-1.265.35-2.432 1.368-2.649 1.14-.26 2.261.56 2.535 1.69.324 1.265-.35 2.432-1.367 2.65z" fill="#C8C8CC"/></g><path d="M193.741 64.098s-7.598 3.09-7.74 5.62c-.14 2.67 7.881 5.76 11.258.702 3.378-5.058-2.251-6.884-3.518-6.322M246.676 73.598c11.898-8.026 10.86-32.21 10.871-33.272-.11-1.242-1.142-2.126-2.447-1.904-1.306.222-2.322 1.303-2.212 2.545.314 6.504-.666 24.677-9.253 29.416-10.848 6.131-18.088 7.6-18.188 7.668-1.328-.027-2.405.964-2.617 2.16-.15 1.286.682 2.305 2.01 2.331.321.046 8.628-1.352 20.836-8.27" fill="#009EC0"/><path d="M1.557 22.201h21.974s-6.874-15.373 7.722-17.36c13.018-1.773 18.164 11.61 18.164 11.61s1.544-7.721 9.286-6.244c7.633 1.457 13.27 13.74 13.27 13.74h19.136" fill="#A1F5FD"/><g transform="translate(1.345 .062)"><mask id="b" fill="#fff"><use href="#a"/></mask><path d="M22.988 19.555H1.014a1.013 1.013 0 1 1 0-2.03h20.501c-.858-2.53-2.19-7.907.146-12.113 1.605-2.89 4.603-4.65 8.91-5.237 10.242-1.417 15.926 6.124 18.143 10.024 1.377-2.764 4.355-5.664 9.635-4.649 7.075 1.35 12.36 9.502 13.665 11.69h18.55a1.015 1.015 0 0 1 0 2.029H71.427c-.37 0-.71-.201-.889-.524-.052-.099-5.5-9.853-12.57-11.202-6.691-1.295-8.046 5.17-8.103 5.446a1.013 1.013 0 0 1-1.94.166c-.2-.513-5.032-12.607-17.08-10.971-3.637.497-6.13 1.913-7.408 4.208-2.608 4.683.444 11.666.477 11.735a1.014 1.014 0 0 1-.927 1.429" fill="#04BFD3" mask="url(#b)"/></g><path d="M2.028 25.898A2.027 2.027 0 0 1 0 23.87c0-1.122.907-2.029 2.028-2.029h90.564a2.028 2.028 0 1 1 0 4.058H2.028z" fill="#A1F5FD"/></g></svg>