<?xml version="1.0" encoding="UTF-8" standalone="no"?>
<svg width="37px" height="37px" viewBox="0 0 37 37" version="1.1" xmlns="http://www.w3.org/2000/svg">
    <!-- Generator: Sketch 43.2 (39069) - http://www.bohemiancoding.com/sketch -->
    <title>icon-github</title>
    <desc>Created with Sketch.</desc>
    <defs></defs>
    <g id="Landing-page" stroke="none" stroke-width="1" fill="none" fill-rule="evenodd">
        <g id="Landing-Page_Desktop" transform="translate(-1172.000000, -3752.000000)" fill="#4A4A4A">
            <g id="Footer" transform="translate(0.000000, 3717.000000)">
                <g id="Group" transform="translate(222.000000, 35.000000)">
                    <path d="M983.53125,0 L953.46875,0 C951.553012,-1.17305104e-16 950,1.55301227 950,3.46875 L950,33.53125 C950,35.4469877 951.553012,37 953.46875,37 L963.165833,37 C963.586427,36.9111608 963.88428,36.5356066 963.875,36.1058333 L963.875,32.8991667 C958.633333,34.04 957.523333,30.3708333 957.523333,30.3708333 C957.176188,29.2302228 956.432503,28.2514025 955.426667,27.61125 C953.715417,26.4395833 955.55,26.4704167 955.55,26.4704167 C956.758887,26.6392697 957.822467,27.3559063 958.432917,28.4129167 C958.95188,29.349747 959.824162,30.0399389 960.855226,30.3295634 C961.886289,30.6191879 962.990376,30.4841561 963.92125,29.9545833 C964.01008,29.0004821 964.436487,28.109401 965.12375,27.4416667 C960.945833,26.96375 956.552083,25.345 956.552083,18.1916667 C956.495737,16.3189198 957.163918,14.4966065 958.4175,13.1041667 C957.843632,11.481183 957.909787,9.70051136 958.6025,8.12458333 C958.6025,8.12458333 960.144167,7.61583333 963.7825,10.0516667 C966.870593,9.205567 970.129407,9.205567 973.2175,10.0516667 C976.809583,7.61583333 978.3975,8.12458333 978.3975,8.12458333 C979.090213,9.70051136 979.156368,11.481183 978.5825,13.1041667 C979.858014,14.4760613 980.553993,16.287817 980.525,18.1608333 C980.525,25.39125 976.115833,26.9945833 971.9225,27.4108333 C972.814895,28.3584414 973.253431,29.645937 973.125,30.94125 L973.125,36.1058333 C973.104968,36.5236853 973.382278,36.8977317 973.787917,37 L983.485,37 C984.412957,37.0123739 985.307175,36.6523872 985.96773,36.0005244 C986.628284,35.3486616 987.000082,34.4592894 987,33.53125 L987,3.46875 C987,2.5487803 986.634543,1.66649017 985.984027,1.01597335 C985.33351,0.36545654 984.45122,-1.57786257e-15 983.53125,0 Z" id="icon-github"></path>
                </g>
            </g>
        </g>
    </g>
</svg>