<?xml version="1.0" encoding="UTF-8" standalone="no"?>
<svg width="256px" height="124px" viewBox="0 0 256 124" version="1.1" xmlns="http://www.w3.org/2000/svg">
    <!-- Generator: Sketch 43.2 (39069) - http://www.bohemiancoding.com/sketch -->
    <title>Group 17</title>
    <desc>Created with Sketch.</desc>
    <defs>
        <polygon id="path-1" points="91.5776905 0 91.5776905 19.5541213 0 19.5541213 0 0"></polygon>
    </defs>
    <g id="Landing-page" stroke="none" stroke-width="1" fill="none" fill-rule="evenodd">
        <g id="Mobile" transform="translate(-64.000000, -95.000000)">
            <g id="Group-17" transform="translate(64.000000, 89.000000)">
                <g id="Group-8" transform="translate(139.000000, 49.000000)" fill="#04BFD3">
                    <path d="M1.41466228,9.26728873 C0.633768699,9.26728873 0,8.5370497 0,7.63364436 C0,6.73023903 0.633768699,6 1.41466228,6 L92.0011464,6 C92.78204,6 93.4158087,6.73023903 93.4158087,7.63364436 C93.4158087,8.5370497 92.78204,9.26728873 92.0011464,9.26728873 L1.41466228,9.26728873 Z" id="Fill-1"></path>
                    <path d="M33.7073311,1.63364436 C33.3168843,1.63364436 33,1.26770803 33,0.816822182 C33,0.365936337 33.3168843,0 33.7073311,0 L77.2025375,0 C77.5929842,0 77.9098686,0.365936337 77.9098686,0.816822182 C77.9098686,1.26770803 77.5929842,1.63364436 77.2025375,1.63364436 L33.7073311,1.63364436 Z" id="Fill-3"></path>
                </g>
                <g id="Group-11" transform="translate(232.284325, 69.536347) scale(-1, 1) rotate(30.000000) translate(-232.284325, -69.536347) translate(186.784325, 16.536347)">
                    <path d="M20.2616844,25.055773 C19.4813435,25.055773 18.7985451,24.9520556 18.0182042,24.6409033 L7.28851637,19.9736186 C4.26469525,18.6252919 2.89909862,14.9951816 4.06961002,11.8836585 C5.33766404,8.66841792 8.75165562,7.2163738 11.6779341,8.46098305 L22.407622,13.1282677 C25.4314431,14.4765944 26.7970397,18.1067047 25.6265283,21.2182279 C24.7486448,23.6037289 22.6027072,25.055773 20.2616844,25.055773 Z" id="Shape" fill="#009EC0" fill-rule="nonzero"></path>
                    <path d="M42.9274904,24.1111072 C40.976638,24.1111072 39.0257857,23.0739329 37.9528169,21.207019 L31.1248337,9.59066599 C29.3690666,6.68657774 30.2469502,2.84903255 32.9781435,0.982118681 C35.7093367,-0.884795193 39.3184135,0.048661744 41.0741806,2.95274999 L47.9021638,14.569103 C49.6579309,17.4731912 48.7800474,21.3107364 46.0488541,23.1776503 C45.0734279,23.7999549 44.0004591,24.1111072 42.9274904,24.1111072 Z" id="Shape" fill="#009EC0" fill-rule="nonzero"></path>
                    <path d="M14.9728646,10.5367181 C13.5097253,11.1590227 6.48665692,17.9006561 7.65716832,36.7772298 C8.82767972,55.2389336 -6.68159633,52.2311279 5.12106028,74.530377 C7.65716832,79.4050965 -2.89998326,128.970647 40.9955204,90.5885577 C42.6537449,89.5513834 65.0122269,44.9709073 56.7211045,20.0787223 C53.9899112,11.8850448 37.7978369,0.164974349 14.9728646,10.5367181 Z" id="Shape" fill="#009EC0" fill-rule="nonzero"></path>
                    <g id="Group-4" transform="translate(63.639777, 41.741235) scale(-1, 1) rotate(-52.000000) translate(-63.639777, -41.741235) translate(43.639777, 23.241235)" fill="#009EC0">
                        <path d="M30.6889854,32.0637701 C28.5928114,32.0637701 25.3175395,31.540534 20.4701372,29.5783989 C11.5613977,26.0465557 5.66590835,10.8727107 5.01085398,9.17219358 C4.48681048,7.86410349 5.14186486,6.29439539 6.58298447,5.77115935 C7.89309322,5.24792332 9.46522371,5.90196836 9.98926721,7.34086746 C11.5613977,11.3959467 16.8018327,22.3839034 22.5663111,24.7384656 C28.8548331,27.3546458 31.6060615,26.8314097 31.6060615,26.8314097 C32.9161702,26.3081737 34.4883007,26.9622187 35.0123442,28.2703088 C35.5363877,29.5783989 34.8813333,31.148107 33.5712246,31.6713431 C33.178192,31.8021521 32.2611158,32.0637701 30.6889854,32.0637701" id="Fill-1" transform="translate(20.012425, 18.827976) rotate(22.000000) translate(-20.012425, -18.827976) "></path>
                    </g>
                    <path d="M18.262441,9.61564705 C23.4321997,6.81527624 37.3807939,7.74873317 43.8186066,6.7115588 C47.2325982,6.19297161 56.4991468,7.74873317 56.4991468,7.74873317 L52.4998995,9.92679936 L57.962286,10.8602563 L54.9384649,13.5569097 L56.1089763,18.7427815 L55.2310928,18.2241944 L24.5051685,9.2007773 L18.262441,9.61564705 Z" id="Shape" fill="#009EC0" fill-rule="nonzero"></path>
                    <path d="M19.4082226,17.2005862 C13.8482935,21.1418488 15.9295677,71.5377073 19.8312723,76.7235791 C26.1715424,85.0209741 42.2331949,80.1570707 44.1840473,75.8009383 C44.8668456,74.1414593 61.4490904,41.7816189 53.6456811,19.4823698 C51.6948287,13.6741933 38.7216607,3.50988445 19.4082226,17.2005862 Z" id="Shape" fill="#00C6DB" fill-rule="nonzero"></path>
                    <path d="M28.9884776,27.337829 C29.5737333,27.4415465 29.8663612,28.0638511 29.7688186,28.6861557 L29.1835629,31.1753742 C29.0860202,31.7976788 28.5007645,32.1088311 27.9155088,32.0051137 L27.9155088,32.0051137 C27.3302531,31.9013963 27.0376253,31.2790916 27.1351679,30.656787 L27.7204236,28.1675685 C27.9155088,27.5452639 28.5007645,27.2341116 28.9884776,27.337829 L28.9884776,27.337829 Z" id="Shape" fill="#363959" fill-rule="nonzero"></path>
                    <path d="M49.7959475,27.842872 C50.3812032,27.9465894 50.6738311,28.568894 50.5762885,29.1911987 L49.9910328,31.6804172 C49.8934901,32.3027218 49.3082344,32.6138741 48.7229787,32.5101567 L48.7229787,32.5101567 C48.137723,32.4064392 47.8450952,31.7841346 47.9426378,31.16183 L48.5278935,28.6726115 C48.6254361,28.0503068 49.2106918,27.6354371 49.7959475,27.842872 L49.7959475,27.842872 Z" id="Shape" fill="#363959" fill-rule="nonzero"></path>
                    <path d="M28.1755953,36.9173944 C27.8829675,36.9173944 27.492797,36.9173944 27.2001692,36.813677 C24.8591464,36.1913724 24.0788054,34.0133062 24.0788054,33.9095887 C23.8837202,33.3910015 24.176348,32.7686969 24.6640611,32.561262 C25.1517742,32.3538272 25.7370299,32.6649795 25.9321151,33.1835667 C25.9321151,33.2872841 26.4198282,34.4281759 27.6878822,34.7393282 C28.9559363,35.0504805 29.8338198,34.220741 29.9313624,34.1170236 C30.3215329,33.7021539 30.9067886,33.7021539 31.2969591,34.1170236 C31.6871295,34.5318934 31.6871295,35.154198 31.2969591,35.5690677 C31.1018738,35.7765026 30.028905,36.9173944 28.1755953,36.9173944 Z" id="Shape" fill="#009EC0" fill-rule="nonzero"></path>
                    <path d="M49.4257774,34.0929694 C49.1331495,34.0929694 48.742979,34.0929694 48.4503512,33.989252 C46.1093284,33.3669474 45.3289875,31.1888812 45.3289875,31.0851638 C45.1339022,30.5665766 45.4265301,29.9442719 45.9142432,29.7368371 C46.4019562,29.5294022 46.9872119,29.8405545 47.1822972,30.3591417 C47.1822972,30.4628591 47.6700103,31.6037509 48.9380643,31.9149033 C50.2061183,32.2260556 51.1815445,31.3963161 51.1815445,31.3963161 C51.5717149,30.9814463 52.1569706,30.9814463 52.5471411,31.3963161 C52.9373116,31.8111858 52.9373116,32.4334904 52.5471411,32.8483602 C52.3520559,32.9520776 51.1815445,34.0929694 49.4257774,34.0929694 Z" id="Shape" fill="#009EC0" fill-rule="nonzero"></path>
                    <path d="M33.4046552,45.3414718 C32.9169421,45.3414718 32.4292291,44.926602 32.4292291,44.4080148 C32.4292291,43.7857102 32.8193995,43.3708405 33.3071126,43.267123 C39.1596696,42.7485358 44.7195988,41.5039266 45.3048545,40.5704696 C45.9876528,39.4295778 46.0851954,37.7700988 46.0851954,37.6663814 C46.0851954,37.1477942 46.5729085,36.7329245 47.0606216,36.7329245 C47.5483346,36.7329245 48.0360477,37.1477942 48.0360477,37.6663814 C48.1335903,38.5998383 48.4262182,40.0518825 48.8163887,40.5704696 C49.499187,41.5039266 50.3770705,41.5039266 50.3770705,41.5039266 C50.9623262,41.5039266 51.3524967,41.9187963 51.4500393,42.4373835 C51.4500393,43.0596881 51.0598688,43.4745579 50.5721558,43.5782753 C49.8893574,43.5782753 48.4262182,43.3708405 47.3532494,41.9187963 C47.2557068,41.8150789 47.1581642,41.607644 47.0606216,41.5039266 C47.0606216,41.607644 46.9630789,41.607644 46.9630789,41.7113615 C45.5974823,43.9931451 37.1112747,45.0303195 33.4046552,45.3414718 L33.4046552,45.3414718 Z" id="Shape" fill="#009EC0" fill-rule="nonzero"></path>
                    <g id="Group" transform="translate(42.611608, 33.437762)" fill-rule="nonzero" fill="#363959">
                        <path d="M1.1705114,2.53706819 C0.390170467,3.05565538 4.6820456,5.337439 5.2673013,5.337439 C6.14518485,5.337439 10.43706,3.36680769 10.2419748,1.81104613 C10.1444321,0.981306627 4.0967899,0.46271944 1.1705114,2.53706819 Z" id="Shape"></path>
                        <path d="M5.2673013,6.37461337 L5.2673013,6.37461337 C4.48696037,6.37461337 0.5852557,4.5076995 0.195085233,3.05565538 C0.0975426167,2.53706819 0.195085233,2.018481 0.682798317,1.70732869 L0.682798317,1.70732869 C3.41399158,-0.263302622 8.7788355,-0.159585184 10.43706,0.566436878 C11.1198583,0.87758919 11.2174009,1.29245894 11.3149435,1.70732869 C11.4124862,2.32963331 11.1198583,2.95193794 10.6321452,3.57424256 C9.3640912,4.92256925 6.34027008,6.37461337 5.2673013,6.37461337 Z M2.63365065,2.8482205 C3.5115342,3.36680769 4.87713083,4.09282975 5.2673013,4.19654719 C6.04764223,4.09282975 8.1935798,3.05565538 8.97392073,2.22591588 C7.70586672,2.018481 4.77958822,1.91476356 2.63365065,2.8482205 Z" id="Shape"></path>
                    </g>
                    <g id="SVGID_1_-link" transform="translate(33.757365, 43.323249)" fill-rule="nonzero">
                        <path d="M1.06646594,1.659479 L0.286125009,4.25241493 C-0.396673308,6.43048112 0.773838092,8.81598218 2.82223304,9.43828681 C4.87062799,10.1643089 7.11410818,8.91969962 7.69936388,6.74163343 L9.65021621,0.207434875 L1.06646594,1.659479 Z" id="SVGID_1_" fill="#FF1AD9"></path>
                        <path d="M9.15672941,1.86032304 L9.65021621,0.207434875 L1.06646594,1.659479 L0.558642014,3.34688877 L9.15672941,1.86032304 Z" id="Combined-Shape" fill="#E100BB"></path>
                    </g>
                    <path d="M37.3806419,50.478815 L37.1855566,50.478815 C36.8929288,50.3750976 36.7953862,50.0639452 36.8929288,49.8565104 L38.356068,45.0855083 C38.4536107,44.7743559 38.7462385,44.6706385 38.9413237,44.7743559 C39.2339516,44.8780734 39.3314942,45.1892257 39.2339516,45.3966606 L37.7708123,50.1676627 C37.7708123,50.3750976 37.5757271,50.478815 37.3806419,50.478815 Z" id="Shape" fill="#E100BB" fill-rule="nonzero"></path>
                    <path d="M16.0539093,42.3817744 C16.0539093,42.3817744 16.5416224,46.5304719 18.9801878,48.8122555 C21.4187532,51.0940392 15.8588241,54.5167146 16.0539093,59.7025865 C16.3465371,64.9921758 16.0539093,42.3817744 16.0539093,42.3817744 Z" id="Shape" fill="#009EC0" fill-rule="nonzero"></path>
                </g>
                <g id="Group" transform="translate(211.967114, 97.449657) scale(-1, -1) rotate(-20.000000) translate(-211.967114, -97.449657) translate(187.467114, 65.449657)" fill-rule="nonzero">
                    <g id="Layer_2_71_" transform="translate(26.482301, -0.000000)" fill="#C8C8CC">
                        <path d="M6.70237814,46.1555696 L0.386675662,46.2999749 L6.66133815e-14,6.29971641 C6.66133815e-14,2.97839531 2.19116208,0.379100532 5.0267836,0.0902900018 C5.28456738,0.0902900018 5.41345926,0.234695267 5.41345926,0.523505797 L6.70237814,46.1555696 Z" id="Shape"></path>
                    </g>
                    <g id="Layer_3_101_" transform="translate(14.178108, 6.666311)" fill="#E1E1E6">
                        <path d="M32.1535438,0.644241944 C32.2824356,0.499836679 32.5402194,0.499836679 32.7980032,0.788647209 C34.4735977,3.38794198 34.0869221,6.99807361 31.7668681,9.16415259 L4.31289612,34.7238845 L0.317247613,29.3808897 L32.1535438,0.644241944 Z" id="Shape"></path>
                    </g>
                    <g id="Layer_4_71_" transform="translate(0.000000, 29.115748)" fill="#FFAA00">
                        <path d="M0.4461395,9.38634224 C0.0594638382,11.985637 0.703923274,14.4405265 2.12173403,16.4622002 C2.76619347,17.4730371 3.66843668,18.1950634 4.69957178,18.6282792 C7.79297707,20.2167371 11.5308418,19.6391161 14.3664633,16.895416 C14.6242471,16.7510108 14.753139,16.4622002 15.0109228,16.317795 L23.904463,8.08669485 C24.2911386,7.79788432 24.5489224,7.22026326 24.5489224,6.6426422 C24.5489224,6.06502114 24.4200305,5.48740008 24.1622467,5.19858955 L21.7133009,1.87726845 C21.584409,1.58845792 21.3266252,1.44405265 21.0688415,1.29964739 C20.8110577,1.15524212 20.6821658,1.15524212 20.424382,1.15524212 C19.9088145,1.15524212 19.3932469,1.29964739 19.1354631,1.58845792 L16.5576254,3.89894216 C16.4287335,3.7545369 16.2998416,3.61013163 16.1709497,3.46572636 C15.5264903,2.45488951 14.6242471,1.73286318 13.593112,1.29964739 C10.4997067,-0.28881053 6.76184197,0.28881053 3.92622046,3.03251057 C1.99284215,4.47656322 0.832815162,6.78704746 0.4461395,9.38634224 Z M6.24627443,5.92061587 C7.92186896,4.33215796 10.2419229,3.89894216 11.9175175,4.76537375 C12.433085,5.05418428 12.8197607,5.34299481 13.2064363,5.92061587 C14.3664633,7.50907379 14.3664633,9.9639633 13.3353282,11.8412317 C12.9486526,12.5632581 12.3041931,13.1408791 11.5308418,14.0073107 L11.5308418,14.0073107 L11.5308418,14.0073107 C9.85524727,15.3069581 7.92186896,15.5957686 6.37516631,14.7293371 C5.85959876,14.4405265 5.4729231,14.151716 5.08624744,13.5740949 C4.31289612,12.5632581 4.05511234,11.2636107 4.31289612,9.81955803 C4.31289612,8.51991065 5.08624744,7.075858 6.24627443,5.92061587 Z" id="Shape"></path>
                    </g>
                    <g id="Layer_5_91_" transform="translate(25.778377, 36.336012)" fill="#FFAA00">
                        <path d="M0.317247613,2.59929477 L0.4461395,15.5957686 L0.4461395,16.4622002 C0.4461395,20.5055477 2.37951781,24.1156793 5.34403121,25.7041372 C6.37516631,26.2817583 7.5351933,26.5705688 8.69522028,26.5705688 C13.2064363,26.5705688 16.8154092,21.9496003 16.8154092,16.317795 C16.8154092,12.2744475 14.8820309,8.66431591 11.9175175,7.075858 L11.9175175,7.075858 C10.8863824,6.49823693 9.72635538,6.2094264 8.5663284,6.2094264 L8.05076085,6.2094264 L8.05076085,2.45488951 C8.05076085,1.58845792 7.66408518,1.01083686 7.01962575,0.577621061 C6.76184197,0.433215796 6.5040582,0.433215796 6.24627443,0.433215796 L2.37951781,0.433215796 C1.86395026,0.433215796 1.4772746,0.722026326 1.09059894,1.01083686 C0.4461395,1.58845792 0.317247613,2.02167371 0.317247613,2.59929477 Z M10.2419229,10.6859896 C11.9175175,11.5524212 13.0775444,13.7185002 13.0775444,16.1733897 C13.0775444,19.4947108 11.1441661,22.2384108 8.69522028,22.2384108 C8.05076085,22.2384108 7.5351933,22.0940056 7.01962575,21.805195 C5.4729231,20.9387635 4.441788,19.061495 4.18400423,17.0398213 L4.18400423,17.0398213 C4.18400423,15.8845792 4.31289612,15.0181476 4.441788,14.151716 C5.08624744,11.985637 6.63295009,10.3971791 8.5663284,10.3971791 C9.08189594,10.2527738 9.72635538,10.3971791 10.2419229,10.6859896 Z" id="Shape"></path>
                    </g>
                    <g id="Layer_6_67_" transform="translate(27.561738, 23.994943)" fill="#C8C8CC">
                        <path d="M2.27175228,0.355431413 C3.43177926,0.499836679 4.20513059,1.6550788 4.0762387,2.81032092 C3.94734681,4.10996831 2.91621172,4.9763999 1.88507662,4.83199463 C0.725049633,4.68758937 -0.0483016905,3.53234725 0.0805901967,2.37710513 C0.209482084,1.07745774 1.24061718,0.211026148 2.27175228,0.355431413 Z" id="Shape"></path>
                    </g>
                </g>
                <path d="M193.741399,70.0978467 C193.741399,70.0978467 186.142547,73.1889049 186.001828,75.7179525 C185.861108,78.3875028 193.882118,81.4785611 197.259386,76.4204658 C200.636653,71.3623705 195.007874,69.5358361 193.741399,70.0978467" id="Fill-4" fill="#009EC0"></path>
                <g id="Page-1" transform="translate(212.000000, 43.000000)" fill="#009EC0">
                    <g id="Group-55" transform="translate(29.426812, 25.409744) scale(-1, 1) rotate(34.000000) translate(-29.426812, -25.409744) translate(3.426812, 12.909744)">
                        <path d="M27.9043841,24.7107513 C13.5527088,24.7107513 0.889465967,4.07981633 0.286454402,3.20654924 C-0.316557162,2.11496538 0.0452497766,0.80506474 1.25127291,0.259272808 C2.45729603,-0.286519124 3.90452379,0.0409560354 4.50753535,1.1325399 C7.88440011,6.6996176 18.8592106,21.217683 28.6279979,20.3444159 C41.0500362,19.3619904 47.8739068,16.5309704 47.9945091,16.5309704 C49.0799299,15.7668617 50.5271577,15.9851784 51.3713739,16.8584455 C52.21559,17.840871 52.0949877,19.1507716 51.0095669,19.9148803 C50.7683623,20.1331971 43.1002755,23.6191675 29.1104072,24.7107513" id="Fill-51"></path>
                    </g>
                </g>
                <g id="left-Cloud" transform="translate(0.000000, 6.000000)">
                    <path d="M1.55737705,22.2011025 L23.5309112,22.2011025 C23.5309112,22.2011025 16.6567021,6.82841033 31.2529868,4.84189164 C44.2711851,3.06843164 49.4172071,16.4505469 49.4172071,16.4505469 C49.4172071,16.4505469 50.9608109,8.72970555 58.7031703,10.2069125 C66.3359968,11.6638282 71.9728888,23.9461547 71.9728888,23.9461547 L91.1087073,23.9461547" id="Fill-12" fill="#A1F5FD"></path>
                    <g id="Group-16" transform="translate(1.344662, 0.062224)">
                        <mask id="mask-2" fill="white">
                            <use href="#path-1"></use>
                        </mask>
                        <g id="Clip-15"></g>
                        <path d="M22.9877285,19.555014 L1.01419432,19.555014 C0.452330668,19.555014 0,19.1004888 0,18.5404488 C0,17.9804088 0.452330668,17.5258836 1.01419432,17.5258836 L21.5151184,17.5258836 C20.65711,14.9955579 19.3244586,9.61836227 21.6611623,5.41197488 C23.2656178,2.52249314 26.2635762,0.761207924 30.5718737,0.174789228 C40.8132079,-1.24154382 46.4967529,6.29870488 48.7137817,10.1986936 C50.0910576,7.43501792 53.0687321,4.53539053 58.3486277,5.54995575 C65.4236473,6.89932749 70.7096281,15.0523736 72.013882,17.2397762 L90.5634962,17.2397762 C91.1233315,17.2397762 91.5776905,17.6943014 91.5776905,18.2543414 C91.5776905,18.8164105 91.1233315,19.2689066 90.5634962,19.2689066 L71.4276777,19.2689066 C71.058511,19.2689066 70.7177417,19.0680227 70.5392435,18.745391 C70.4865054,18.6459636 65.0382535,8.89193358 57.9693191,7.54256184 C51.2776649,6.24797662 49.9227013,12.7127862 49.8659064,12.9887479 C49.7786857,13.4310984 49.4074906,13.7618466 48.9592167,13.8004001 C48.5149996,13.8369244 48.089038,13.5771957 47.9267669,13.1551366 C47.7259564,12.6417666 42.8943347,0.548149228 30.8457061,2.18362836 C27.2088053,2.68076531 24.7159156,4.09709836 23.4380308,6.39204488 C20.829523,11.0752779 23.8822479,18.0575157 23.9147021,18.1265062 C24.0526325,18.4410214 24.0242351,18.8042357 23.8376234,19.0923723 C23.6510116,19.3805088 23.3305262,19.555014 22.9877285,19.555014" id="Fill-14" fill="#04BFD3" mask="url(#mask-2)"></path>
                    </g>
                    <path d="M2.02838864,25.8982609 C0.906689724,25.8982609 1.42108547e-14,24.9912396 1.42108547e-14,23.8691304 C1.42108547e-14,22.7470213 0.906689724,21.84 2.02838864,21.84 L92.5918848,21.84 C93.7115554,21.84 94.6202735,22.7470213 94.6202735,23.8691304 C94.6202735,24.9912396 93.7115554,25.8982609 92.5918848,25.8982609 L2.02838864,25.8982609 Z" id="Fill-17" fill="#A1F5FD"></path>
                </g>
            </g>
        </g>
    </g>
</svg>