<svg width="476" height="519" xmlns="http://www.w3.org/2000/svg"><defs><circle id="b" cx="238" cy="238" r="238"/><path id="d" d="M10 0h572l-10 496H0z"/><rect id="g" width="394.392" height="294.033" rx="3"/><filter x="-.8%" y="-1%" width="101.5%" height="102%" filterUnits="objectBoundingBox" id="f"><feMorphology radius="1" operator="dilate" in="SourceAlpha" result="shadowSpreadOuter1"/><feOffset in="shadowSpreadOuter1" result="shadowOffsetOuter1"/><feColorMatrix values="0 0 0 0 0 0 0 0 0 0 0 0 0 0 0 0 0 0 0.3 0" in="shadowOffsetOuter1"/></filter><rect id="a" x="118.845" y="178.754" width="370.061" height="212.787" rx="2"/><mask id="h" x="0" y="0" width="370.061" height="212.787" fill="#fff"><use href="#a"/></mask></defs><g fill="none" fill-rule="evenodd"><mask id="c" fill="#fff"><use href="#b"/></mask><use fill="#D8D8D8" href="#b"/><g mask="url(#c)"><g transform="translate(-66 -20)"><mask id="e" fill="#fff"><use href="#d"/></mask><use fill="#A1F6FF" href="#d"/><g mask="url(#e)"><g transform="translate(106.022 112.987)"><use fill="#000" filter="url(#f)" href="#g"/><use fill="#FFF" href="#g"/></g><path fill="#D8D8D8" d="M368.022 138.987h132v25h-132z"/><path fill="#D8D8D8" d="M350.545 141.309h34.838v17.125h-34.838z"/><path fill="#D4D4D4" d="M215.794 190.581h174v29.677h-174z"/><path fill="#EBEBEB" d="M215.794 226.853h174v10.552h-174zm0 34.293h167.749v10.552H215.794zm0-17.146H376.77v10.551H215.794zm0 34.292h156.287v10.552H215.794zm52.096 17.148h108.88v10.551H267.89z"/><path fill="#D4D4D4" d="M215.794 295.44h46.886v48.141h-46.886z"/><path fill="#EBEBEB" d="M267.89 312.585h112.527v10.552H267.89zm0 17.147h100.024v10.552H267.89z"/></g><path fill-opacity=".6" fill="#000" mask="url(#e)" d="M106.022 164.326h394.392v242.69H106.022z"/><g mask="url(#e)"><g transform="translate(270 188)"><rect fill="#F5F5F5" width="207.943" height="61.985" rx="1.3"/><path fill="#C9C9C9" d="M135.367 0h1v61.985h-1z"/><g fill="#3E3D40"><text font-family="-apple-system, BlinkMacSystemFont, 'segoe ui', 'helvetica neue', helvetica, ubuntu, roboto, noto, arial, sans-serif" font-size="10" transform="translate(144.337 6.525)"><tspan x="5.51" y="43.917">My Shots</tspan></text><path d="M174.93 21.394h-5.588v1.652h5.587v5.783h-5.587v1.652h5.587v5.511h1.652v-8.815h5.61v-1.652h-5.61v-9.642h-1.652v5.511zm-7.24 4.13h-5.609v1.653h5.61v-1.652zm-5.609-8.916c0-.55.44-.996.998-.996h18.114a1 1 0 0 1 .997.996v18.66c0 .55-.439.996-.997.996h-18.114a1 1 0 0 1-.998-.996v-18.66zm5.61 8.917h.02v1.652h-.02v8.815h1.651v-5.51h-.021v-1.653h.021v-5.783h-.021v-1.652h.021v-5.51h-1.652v9.64z"/></g><text font-family="-apple-system, BlinkMacSystemFont, 'segoe ui', 'helvetica neue', helvetica, ubuntu, roboto, noto, arial, sans-serif" font-size="10" fill="#3E3D40" transform="translate(71.76 6.525)"><tspan x="11.865" y="43.917">Visible</tspan></text><path fill="#00FDFF" d="M87.897 34.655h22.521V16.482H87.897z"/><path d="M111.312 14.786c.393 0 .715.371.715.826v19.826c0 .454-.322.826-.715.826H87.003c-.393 0-.715-.372-.715-.826V15.612c0-.455.322-.826.715-.826h24.31zM87.897 34.612h22.521V16.438H87.897v18.174z" fill="#3E3D40"/><path fill="#004C66" d="M87.897 36.264h22.521v-1.652H87.897z"/><path d="M90.31 34.612h1.608v-.826H90.31v.826zm-2.413 0h.804V32.96h-.804v1.652zm21.717 0h.804V32.96h-.804v1.652zm-20.924-.816v.805h.826v-.805h-.826zm20.109 0v.805h.826v-.805h-.826zm-20.902-1.663h.804v-2.478h-.804v2.478zm0-3.304h.804v-2.478h-.804v2.478zm0-6.609h.804v-2.478h-.804v2.478zm0 3.305h.804v-2.479h-.804v2.479zm21.717 6.608h.804v-2.478h-.804v2.478zm0-3.304h.804v-2.478h-.804v2.478zm0-6.609h.804v-2.478h-.804v2.478zm0 3.305h.804v-2.479h-.804v2.479zm-20.109-9.087h-1.608v2.478h.804v-1.652h.804v-.826zm.805.826h1.608v-.826H90.31v.826zm2.413 0h2.413v-.826h-2.413v.826zm6.435 0h2.413v-.826h-2.413v.826zm-3.218 0h2.413v-.826H95.94v.826zm9.652 0h2.413v-.826h-2.413v.826zm-3.217 0h2.413v-.826h-2.413v.826zm-9.652 17.348h2.413v-.826h-2.413v.826zm6.435 0h2.413v-.826h-2.413v.826zm-3.218 0h2.413v-.826H95.94v.826zm9.652 0h2.413v-.826h-2.413v.826zm-3.217 0h2.413v-.826h-2.413v.826zm8.043-18.174h-1.608v.826h.804v1.652h.804v-2.478z" fill="#00D1E6"/><text font-family="-apple-system, BlinkMacSystemFont, 'segoe ui', 'helvetica neue', helvetica, ubuntu, roboto, noto, arial, sans-serif" font-size="10" fill="#3E3D40" transform="translate(8.155 6.525)"><tspan x="6.047" y="43.917">Full Page</tspan></text><path fill="#00FDFF" d="M24.29 40.438h22.523v-29.74H24.29z"/><path d="M47.706 14.786c.393 0 .715.371.715.826v19.826c0 .454-.322.826-.715.826H23.397c-.393 0-.715-.372-.715-.826V15.612c0-.455.322-.826.715-.826h24.31zM24.291 34.612h22.522V16.438H24.29v18.174z" fill="#3E3D40"/><path fill="#004C66" d="M24.29 16.438h22.523v-1.652H24.29zm0 19.826h22.523v-1.652H24.29z"/><path d="M26.704 40.394h1.609v-.826h-1.61v.826zm-1.609-2.478h-.804v2.478h1.608v-.826h-.804v-1.652zm20.913 0h.805v2.478h-1.61v-.826h.805v-1.652zm-21.717-.826h.804v-2.478h-.804v2.478zm0-3.304h.804v-2.479h-.804v2.479zm0-3.305h.804v-2.478h-.804v2.478zm0-3.304h.804v-2.478h-.804v2.478zm0-3.304h.804v-2.479h-.804v2.479zm0-7.435h.804V13.96h-.804v2.478zm0 4.13h.804V18.09h-.804v2.478zM46.008 37.09h.805v-2.478h-.805v2.478zm0-3.304h.805v-2.479h-.805v2.479zm0-3.305h.805v-2.478h-.805v2.478zm0-3.304h.805v-2.478h-.805v2.478zm0-3.304h.805v-2.479h-.805v2.479zm0-7.435h.805V13.96h-.805v2.478zm0 4.13h.805V18.09h-.805v2.478zM25.9 10.655h-1.608v2.478h.804v-1.652h.804v-.826zm.805.826h1.609v-.826h-1.61v.826zm2.413 0h2.413v-.826h-2.413v.826zm6.435 0h2.413v-.826h-2.413v.826zm-3.218 0h2.413v-.826h-2.413v.826zm9.652 0H44.4v-.826h-2.413v.826zm-3.217 0h2.413v-.826H38.77v.826zm-9.652 28.913h2.413v-.826h-2.413v.826zm6.435 0h2.413v-.826h-2.413v.826zm-3.218 0h2.413v-.826h-2.413v.826zm9.652 0H44.4v-.826h-2.413v.826zm-3.217 0h2.413v-.826H38.77v.826zm8.044-29.739h-1.61v.826h.805v1.652h.805v-2.478z" fill="#00D1E6"/></g></g><g stroke-dasharray="8" mask="url(#e)" stroke-width="6"><use stroke="#00FDFF" mask="url(#h)" href="#a"/></g><path d="M474.373 354.023l-16.785 2.139c-2.331.296-3.306 3.144-1.643 4.804l3.13 3.13-7.186 7.188a3.03 3.03 0 0 0 0 4.287l4.476 4.477a3.03 3.03 0 0 0 4.288 0l7.187-7.187 2.752 2.752c1.663 1.663 4.508.688 4.804-1.64l2.139-16.788a2.825 2.825 0 0 0-3.162-3.162" fill="#FEC34D" mask="url(#e)" transform="matrix(1 0 0 -1 0 734.937)"/><path d="M152.373 188.023l-16.785 2.139c-2.331.296-3.306 3.144-1.643 4.804l3.13 3.13-7.186 7.188a3.03 3.03 0 0 0 0 4.287l4.476 4.477a3.03 3.03 0 0 0 4.288 0l7.187-7.187 2.752 2.752c1.663 1.663 4.508.688 4.804-1.64l2.139-16.788a2.825 2.825 0 0 0-3.162-3.162" fill="#FEC34D" mask="url(#e)" transform="matrix(-1 0 0 1 284.558 0)"/><path d="M135.588 356.162c-2.331.296-3.306 3.144-1.643 4.804l3.13 3.13-7.186 7.188a3.03 3.03 0 0 0 0 4.287l4.476 4.477a3.03 3.03 0 0 0 4.288 0l7.187-7.187 2.752 2.752c1.663 1.663 4.508.688 4.804-1.64l2.139-16.788a2.825 2.825 0 0 0-3.162-3.162l-16.785 2.139z" fill="#FEC34D" mask="url(#e)" transform="rotate(180 142.279 367.468)"/><g mask="url(#e)"><g transform="translate(105 110.213)"><path d="M.766 3.197A3.004 3.004 0 0 1 3.771.202h388.458a3.003 3.003 0 0 1 3.004 2.995V54.13H.766V3.197z" fill="#EBEBEB"/><path d="M.766 26.424h394.467V54.08H.766V26.424zm152.513-8.988c1.03 5.791 2.812 8.988 8.547 8.988H31.666c5.735 0 7.503-3.197 8.532-8.988.658-3.705 1.676-10.37 10.314-10.37h92.371c8.77 0 9.738 6.665 10.396 10.37z" fill="#D8D8D8"/><circle fill="#C8C8CC" cx="297.5" cy="41.5" r="6.5"/><circle fill="#C8C8CC" cx="322.5" cy="41.5" r="6.5"/><circle fill="#C8C8CC" cx="347.5" cy="41.5" r="6.5"/><circle fill="#C8C8CC" cx="372.5" cy="41.5" r="6.5"/><rect fill="#FFF" x="21.098" y="33.539" width="221.559" height="13.828" rx="3"/></g></g></g></g><g mask="url(#c)"><path d="M171.603 231.569a8.776 8.776 0 0 1-6.34-6.342c-.075-.303-.465-.303-.54 0a8.776 8.776 0 0 1-6.34 6.342c-.302.075-.302.464 0 .54a8.776 8.776 0 0 1 6.34 6.343c.075.302.465.302.54 0a8.776 8.776 0 0 1 6.34-6.342c.302-.077.302-.466 0-.541" fill="#FFC44D"/><path d="M194.218 244.815a15.532 15.532 0 0 1-11.2-11.204c-.14-.53-.82-.53-.95 0a15.465 15.465 0 0 1-11.2 11.193c-.528.141-.528.821 0 .952a15.532 15.532 0 0 1 11.2 11.204c.14.53.82.53.95 0a15.532 15.532 0 0 1 11.2-11.204c.53-.13.53-.81 0-.94" fill="#FA0"/><path d="M174.508 261.514c-8.208-2.074-14.667-8.546-16.75-16.758-.195-.789-1.21-.789-1.416 0-2.074 8.212-8.542 14.673-16.75 16.758-.789.194-.789 1.21 0 1.415 8.208 2.074 14.666 8.546 16.75 16.758.195.789 1.21.789 1.415 0 2.073-8.212 8.543-14.673 16.751-16.758.788-.205.788-1.22 0-1.415" fill="#FFC44D"/></g><g transform="translate(96 310)" fill-rule="nonzero"><ellipse fill="#D9F2F6" cx="138.382" cy="194.592" rx="89.382" ry="13.592"/><path d="M106.615 57.205c-3.371 0-6.968-1.353-9.44-4.059L76.27 32.176c-5.17-5.186-5.17-13.754 0-19.166 5.17-5.186 13.71-5.186 19.105 0l20.904 20.97c5.17 5.186 5.17 13.755 0 19.166-2.922 2.706-6.293 4.059-9.665 4.059zm63.611.902c-3.371 0-6.968-1.353-9.44-4.059-5.17-5.186-5.17-13.754 0-19.166l20.904-20.97c5.17-5.186 13.71-5.186 19.105 0 5.17 5.186 5.17 13.755 0 19.166l-20.904 20.97c-2.697 2.706-6.293 4.059-9.665 4.059z" fill="#009EC0"/><path d="M84.587 29.47c-6.743 4.285-5.394 130.78 9.216 140.476 10.115 6.764 80.919 9.02 91.708-1.578 3.147-3.157 18.431-80.498 10.789-135.29-1.798-14.205-86.988-19.391-111.713-3.608z" fill="#009EC0"/><path d="M87.06 136.124s2.248 27.508 6.743 40.361c4.496 12.852 9.665 19.166 11.913 17.362 2.248-1.804 0-42.165 0-42.165L87.06 136.124zm104.295 0s-2.248 27.508-6.743 40.361c-4.496 12.852-9.666 19.166-11.913 17.362-2.248-1.804 0-42.165 0-42.165l18.656-15.558zm-97.327-116.8s28.097-8.569 35.964-9.47c7.867-.902 24.725-9.47 24.725-9.47l-4.046 9.019 9.44-2.706v4.96l22.927 6.314-4.945 6.764h-74.625l-9.44-5.411z" fill="#009EC0"/><path d="M98.299 28.794c-16.184 10.823-6.07 112.516 4.27 125.143 16.858 20.744 68.331 19.166 78.221-4.059 1.574-3.833 17.083-76.664 5.395-116.8-3.821-12.852-49-29.989-87.886-4.284z" fill="#00C6DB"/><path d="M105.267 41.872c1.348 0 2.472 1.127 2.472 2.48v5.412c0 1.353-1.124 2.48-2.472 2.48-1.35 0-2.473-1.127-2.473-2.48v-5.412c0-1.353 1.124-2.48 2.473-2.48zm60.463 0c1.35 0 2.473 1.127 2.473 2.48v5.412c0 1.353-1.124 2.48-2.472 2.48-1.349 0-2.473-1.127-2.473-2.48v-5.412c0-1.353 1.124-2.48 2.473-2.48z" fill="#363959"/><path d="M105.334 50.976c5.619 0 8.316 4.284 8.541 4.51.674 1.127.45 2.48-.674 3.156-1.124.676-2.473.451-3.147-.676 0-.226-1.573-2.48-4.72-2.48s-4.72 2.254-4.72 2.254c-.675 1.127-2.024 1.353-3.147.677-1.124-.677-1.349-2.03-.675-3.157.225 0 2.922-4.284 8.542-4.284zm61.155-.131c5.619 0 8.316 4.284 8.541 4.51.674 1.127.45 2.48-.674 3.157-1.124.676-2.473.45-3.147-.677 0-.225-1.574-2.48-4.72-2.48-3.147 0-4.72 2.255-4.72 2.255-.675 1.127-2.024 1.353-3.147.676-1.124-.676-1.35-2.03-.675-3.157.225 0 3.147-4.284 8.542-4.284zM125.654 69.06a2.002 2.002 0 0 1 2.142-2.283c.219.05 12.616 2.661 14.354-.872 1.317-2.704.936-4.695.936-4.695.034-1.149.945-2.096 1.922-2.333 1.197-.186 2.14.726 2.375 1.705.47 1.96 1.344 5.17 2.287 6.082 1.886 1.824 6.719-.292 11.09-1.357 0 0 2.366-.303 2.543 1.976.262 1.22-1.017 2.306-1.974 2.553-4.668 1.837-12.102 2.743-14.93.007-.169-.27-.725-.861-.725-.861-4.126 5.763-16.866 2.221-17.304 2.12-.438-.1-2.254-.284-2.716-2.043z" fill="#009EC0"/><g fill="#363959"><path d="M133.588 56.754c-1.349 1.578 9.216 4.059 10.564 3.833 2.023-.45 10.79-6.99 9.44-10.147-.449-1.804-14.61.451-20.004 6.314z"/><path d="M143.928 62.616c-2.698 0-11.014-1.803-12.588-4.284-.674-1.127-.45-2.255.45-3.157 5.17-5.637 17.307-8.342 21.353-7.44 1.574.225 2.248 1.127 2.473 1.803.45 1.353.225 2.706-.674 4.285-2.023 3.607-8.317 8.342-10.565 8.793h-.45zm-6.968-5.862c2.247.676 5.844 1.578 6.743 1.578 1.348-.45 5.844-4.058 7.193-6.088-2.922 0-9.666 1.353-13.936 4.51z"/></g><path d="M271.682 53.198c-1.346-3.306-2.948-6.264-4.446-7.274-2.662-13.694-63.658 29.306-64.86 29.986-19.232 10.875-10.793 15.45-6.766 14.44 4.027-1.01 60.607-33.6 60.607-33.6l5.69 6.445c4.489 5.182 9.719 4 11.89 2.71l2.97 1.335c1.45.606 3.509-.241 4.117-1.694.608-1.453-.234-3.511-1.684-4.117l-1.346-.605c1.211-.213 2.295-1.092 2.56-2.313.352-1.625-.663-3.428-2.286-3.777l-6.446-1.536zM14.915 58.735c1.573-3.204 3.378-6.043 4.942-6.946 3.611-13.475 57.33 29.668 58.482 30.43 18.426 12.19 9.688 16.165 5.741 14.876-3.946-1.288-53.985-33.739-53.985-33.739l-6.126 6.034c-4.84 4.856-9.974 3.313-12.05 1.874L8.863 72.39c-1.49.503-3.484-.486-3.989-1.978-.505-1.492.478-3.486 1.967-3.99l1.385-.509c-1.193-.297-2.213-1.25-2.392-2.486-.238-1.646.9-3.373 2.543-3.609l6.538-1.082z" fill="#009EC0"/></g></g></svg>