<svg width="476" height="476" viewBox="0 0 476 476" xmlns="http://www.w3.org/2000/svg" xmlns:xlink="http://www.w3.org/1999/xlink"><title>landing-screenshots_image_01</title><defs><circle id="a" cx="238" cy="238" r="238"/><circle id="c" cx="238" cy="238" r="238"/><circle id="e" cx="238" cy="238" r="238"/><path id="g" d="M.088 6.632l1.117-3.5L17.372.552l-1.925 6.08z"/><circle id="i" cx="238" cy="238" r="238"/><circle id="k" cx="238" cy="238" r="238"/><circle id="m" cx="238" cy="238" r="238"/><circle id="o" cx="238" cy="238" r="238"/><circle id="q" cx="238" cy="238" r="238"/><circle id="s" cx="238" cy="238" r="238"/><circle id="u" cx="238" cy="238" r="238"/><circle id="w" cx="238" cy="238" r="238"/><circle id="y" cx="238" cy="238" r="238"/><circle id="A" cx="238" cy="238" r="238"/></defs><g fill="none" fill-rule="evenodd"><circle cx="238" cy="238" r="238" fill-rule="nonzero" fill="#A1F6FF"/><mask id="b" fill="#fff"><use xlink:href="#a"/></mask><g fill="#C8FAFF" fill-rule="nonzero" mask="url(#b)"><path d="M232.045 78.804H57.976c-1.586 0-2.868-1.744-2.868-3.902 0-2.158 1.282-3.902 2.868-3.902h174.069c1.583 0 2.868 1.744 2.868 3.902 0 2.158-1.285 3.902-2.868 3.902M208.487 57.902h-77.07c-.791 0-1.434-.874-1.434-1.95 0-1.078.643-1.952 1.435-1.952h77.07c.791 0 1.434.874 1.434 1.951s-.643 1.951-1.435 1.951M277.4 94.902H15.434c-.792 0-1.434-.874-1.434-1.95 0-1.078.642-1.952 1.434-1.952H277.4c.792 0 1.434.874 1.434 1.951s-.642 1.951-1.434 1.951"/></g><mask id="d" fill="#fff"><use xlink:href="#c"/></mask><path d="M-55 176h438.992c5.527 0 10.008 4.478 10.008 10.005V225H-55v-49z" fill="#E3E1E3" fill-rule="nonzero" mask="url(#d)"/><mask id="f" fill="#fff"><use xlink:href="#e"/></mask><g mask="url(#f)"><g fill-rule="nonzero"><path d="M202.295 166.112c-1.47 0-2.755-.184-4.225-.737l-20.21-8.29c-5.695-2.394-8.267-8.842-6.062-14.368 2.388-5.71 8.818-8.29 14.33-6.079l20.21 8.29c5.695 2.394 8.267 8.842 6.062 14.368-1.653 4.237-5.695 6.816-10.105 6.816" fill="#009EC0"/><path d="M218.28 278.296c29.424 0 53.278 3.629 53.278 8.105 0 4.477-23.854 8.105-53.279 8.105-29.425 0-53.279-3.628-53.279-8.105 0-4.476 23.854-8.105 53.28-8.105" fill="#EDEDF2"/><path d="M245.102 164.638c-3.674 0-7.349-1.842-9.37-5.158l-12.86-20.631c-3.307-5.158-1.653-11.974 3.49-15.29 5.145-3.316 11.943-1.658 15.25 3.5l12.86 20.632c3.307 5.158 1.654 11.973-3.49 15.29-1.838 1.104-3.859 1.657-5.88 1.657" fill="#009EC0"/><path d="M236.94 176c-2.756 1.105-69.94 0-69.94 0s6 13 2 24c-13 16-14.934 36.195-5.365 53.243 4.777 8.658 62.832 22.29 73.305 15.842C240.063 267.243 265 176 265 176s-25 1-27 0" fill-opacity=".6" fill="#CACACA"/><path d="M192.19 139.585c-2.755 1.106-15.983 13.08-13.778 46.606 2.204 32.79-27.007 27.447-4.777 67.052 4.777 8.658 62.832 22.29 73.305 15.842 3.123-1.842 39.5-68.342 23.883-112.552-5.144-14.553-35.642-35.369-78.632-16.948" fill="#009EC0"/><path d="M174.37 224.875s-3.307 22.29-2.021 33.342c1.286 11.053 4.225 17.132 6.246 16.026 2.205-1.105 7.9-33.526 7.9-33.526l-12.125-15.842zM257.412 244.401s-6.798 21.553-12.86 30.948c-5.88 9.394-11.392 13.447-12.861 11.605-1.47-1.842 7.9-33.526 7.9-33.526l17.82-9.027zM198.437 139.033c9.737-4.974 36.01-3.316 48.135-5.158 6.43-.921 23.884 1.842 23.884 1.842l-7.533 3.868 10.289 1.658-5.696 4.79 2.205 9.21-1.654-.92-57.872-16.027-11.758.737z" fill="#009EC0"/><path d="M200.826 152.664c-10.473 7-4.042 91 3.307 100.21 11.941 14.738 39.683 11.606 43.358 3.87 1.286-2.948 32.518-60.422 17.82-100.027-3.674-10.316-28.109-28.368-64.485-4.053" fill="#00C6DB"/><path d="M219.381 170.164c1.103.185 1.654 1.29 1.47 2.395l-1.102 4.421c-.184 1.105-1.286 1.658-2.389 1.474-1.102-.184-1.653-1.29-1.47-2.395l1.103-4.42c.367-1.106 1.47-1.659 2.388-1.475M258.33 171.454c1.103.184 1.654 1.29 1.47 2.395l-1.102 4.42c-.184 1.106-1.286 1.659-2.389 1.474-1.102-.184-1.653-1.29-1.47-2.394l1.103-4.421c.184-1.106 1.286-1.843 2.388-1.474" fill="#363959"/><path d="M217.544 187.48c-.551 0-1.286 0-1.837-.184-4.41-1.105-5.88-4.974-5.88-5.158-.367-.921.185-2.026 1.103-2.395.919-.368 2.021.185 2.389 1.106 0 .184.918 2.21 3.307 2.763 2.388.552 4.041-.921 4.225-1.106.735-.736 1.837-.736 2.572 0 .735.737.735 1.843 0 2.58-.367.368-2.388 2.394-5.879 2.394M257.228 182.138c-.551 0-1.286 0-1.837-.184-4.41-1.105-5.88-4.974-5.88-5.158-.367-.921.184-2.026 1.103-2.395.919-.368 2.02.184 2.388 1.105 0 .185.919 2.211 3.307 2.764 2.389.552 4.226-.921 4.226-.921.735-.737 1.837-.737 2.572 0 .735.736.735 1.842 0 2.579-.367.184-2.572 2.21-5.88 2.21M227.281 202.033c-.918 0-1.837-.737-1.837-1.658 0-1.105.735-1.842 1.654-2.026 11.023-.921 21.495-3.132 22.597-4.79 1.286-2.026 1.47-4.974 1.47-5.158 0-.92.919-1.658 1.837-1.658.919 0 1.838.737 1.838 1.658.183 1.658.734 4.237 1.47 5.158 1.285 1.658 2.939 1.658 2.939 1.658 1.102 0 1.837.737 2.02 1.658 0 1.105-.734 1.842-1.653 2.026-1.286 0-4.042-.368-6.063-2.947-.183-.184-.367-.553-.55-.737 0 .184-.184.184-.184.368-2.572 4.053-18.556 5.895-25.538 6.448" fill="#009EC0"/><path d="M247.123 185.822c-1.47.921 6.614 4.974 7.717 4.974 1.653 0 9.737-3.5 9.37-6.263-.184-1.474-11.575-2.395-17.087 1.29" fill="#363959"/><path d="M249.88 186.375c1.653.921 4.225 2.21 4.96 2.395 1.47-.185 5.511-2.027 6.98-3.5-2.387-.369-7.9-.553-11.94 1.105m4.96 6.263c-1.47 0-8.82-3.316-9.554-5.895-.184-.92 0-1.842.919-2.394 5.144-3.5 15.248-3.316 18.372-2.027 1.286.553 1.47 1.29 1.653 2.027.184 1.105-.367 2.21-1.286 3.315-2.388 2.395-8.084 4.974-10.104 4.974" fill="#363959"/><path d="M229.67 201.849l-1.47 4.605c-1.286 3.868.919 8.105 4.777 9.21 3.858 1.29 8.083-.92 9.186-4.79l3.674-11.604-16.167 2.579z" fill="#FF1AD9"/></g><g transform="translate(228.465 198.717)"><mask id="h" fill="#fff"><use xlink:href="#g"/></mask><path fill="#E100BB" fill-rule="nonzero" mask="url(#h)" d="M-2.837 6.632L19.76 2.947l1.287-6.079L5.98-5.342z"/></g><path d="M234.63 211.612h-.367c-.551-.184-.735-.737-.551-1.106l2.755-8.473c.184-.553.735-.737 1.103-.553.55.184.735.737.55 1.105l-2.755 8.474c0 .369-.367.553-.735.553" fill="#E100BB" fill-rule="nonzero"/></g><mask id="j" fill="#fff"><use xlink:href="#i"/></mask><g mask="url(#j)"><path fill="#F5F5F5" d="M-55 225h449v88H-55z"/><path stroke="#D4D4D4" d="M-54.5 225.5h448v87h-448z"/></g><mask id="l" fill="#fff"><use xlink:href="#k"/></mask><g mask="url(#l)"><path fill="#E9FDFF" d="M-12 312h406v217H-12z"/><path stroke="#D4D4D4" d="M-11.5 312.5h405v216h-405z"/></g><g><mask id="n" fill="#fff"><use xlink:href="#m"/></mask><circle fill="#D8D8D8" fill-rule="nonzero" mask="url(#n)" cx="190" cy="270" r="21"/></g><g><mask id="p" fill="#fff"><use xlink:href="#o"/></mask><circle fill="#D8D8D8" fill-rule="nonzero" mask="url(#p)" cx="120" cy="270" r="21"/></g><g><mask id="r" fill="#fff"><use xlink:href="#q"/></mask><g mask="url(#r)"><g transform="translate(-347 242)"><rect fill="#FFF" width="418" height="54" rx="5"/><rect stroke-opacity=".474" stroke="#979797" x=".5" y=".5" width="417" height="53" rx="5"/></g></g></g><g><mask id="t" fill="#fff"><use xlink:href="#s"/></mask><path d="M304 225.5v86.023" stroke="#E3E3E3" stroke-width="2" stroke-linecap="square" mask="url(#t)"/></g><g><mask id="v" fill="#fff"><use xlink:href="#u"/></mask><g fill-rule="nonzero" mask="url(#v)"><g fill="#4D4D4D"><path d="M363 256h-30c-1.659 0-3-1.341-3-3s1.341-3 3-3h30c1.659 0 3 1.341 3 3s-1.341 3-3 3M363 271h-30c-1.659 0-3-1.341-3-3s1.341-3 3-3h30c1.659 0 3 1.341 3 3s-1.341 3-3 3M363 286h-30c-1.659 0-3-1.341-3-3s1.341-3 3-3h30c1.659 0 3 1.341 3 3s-1.341 3-3 3M249.028 253a4.999 4.999 0 0 0-4.999 4.999h4.999V253zm14.996 0h-4.999v4.999h4.999V253zm9.997 0v4.999h4.999a4.999 4.999 0 0 0-4.999-4.999zm-17.495 0h-4.999v4.999h4.999V253zm14.996 0h-4.999v4.999h4.999V253zm2.5 12.497h4.998v-4.999h-4.999v4.999zm0 14.996a4.999 4.999 0 0 0 4.998-4.999h-4.999v4.999zm0-7.498h4.998v-4.999h-4.999v4.999zm-1.103-5.416a4.999 4.999 0 0 0-6.96-1.23l-9.586 7.076-4.918-3.45c.039-.24.062-.484.072-.73a6.218 6.218 0 0 0-2.5-4.97v-3.777h-4.998v2.624a6.248 6.248 0 1 0 4.894 11.182l3.104 2.172-3.499 2.455a6.233 6.233 0 1 0 2.874 4.081l21.517-15.433zm-27.64 4.79a3.124 3.124 0 1 1 0-6.247 3.124 3.124 0 0 1 0 6.248zm0 14.997a3.124 3.124 0 1 1 0-6.248 3.124 3.124 0 0 1 0 6.248zm13.496-6.071l7.54 5.749a4.999 4.999 0 0 0 6.962-1.23l-10.153-7.57-4.349 3.051z"/></g><path d="M291.304 251.422c.957-2.78 1.755-7.362 1.356-14.69-.635-13.43-18.148-28.205-20.113-29.853-1.503-1.295-3.892-1.146-5.247.525-1.294 1.497-1.141 3.882.535 5.236 4.682 3.944 16.92 15.93 17.424 24.653.612 9.538-1.34 12.946-1.34 12.946-1.296 1.497-1.143 3.881.36 5.176 1.502 1.295 3.892 1.146 5.186-.351.354-.462 1.121-1.558 1.839-3.642M195.928 209.218s26.842 47.137 36.007 49.101c6.547 4.583 3.274 10.475-3.273 8.51-6.547-1.963-31.425-33.388-36.662-51.719.655-7.856 3.928-5.892 3.928-5.892z" fill="#009EC0"/></g></g><g><mask id="x" fill="#fff"><use xlink:href="#w"/></mask><g fill-rule="nonzero" mask="url(#x)"><path d="M289.959 293.223a5.642 5.642 0 0 1-4.075-4.077c-.049-.195-.3-.195-.348 0a5.642 5.642 0 0 1-4.075 4.077c-.195.048-.195.298 0 .348a5.642 5.642 0 0 1 4.075 4.077c.049.194.3.194.348 0 .506-2 2.076-3.57 4.075-4.077.194-.05.194-.3 0-.348" fill="#FFC44D"/><path d="M304.498 301.738a9.985 9.985 0 0 1-7.2-7.203c-.09-.34-.528-.34-.612 0a9.941 9.941 0 0 1-7.2 7.196c-.34.09-.34.528 0 .612a9.985 9.985 0 0 1 7.2 7.203c.09.34.528.34.612 0a9.985 9.985 0 0 1 7.2-7.203c.34-.084.34-.521 0-.605" fill="#FA0"/><path d="M291.827 312.473c-5.277-1.333-9.43-5.494-10.769-10.773-.125-.507-.777-.507-.91 0a14.921 14.921 0 0 1-10.768 10.773c-.507.125-.507.778 0 .91 5.277 1.333 9.429 5.494 10.769 10.773.125.507.777.507.91 0 1.332-5.279 5.49-9.433 10.768-10.773.506-.132.506-.785 0-.91" fill="#FFC44D"/></g></g><g><mask id="z" fill="#fff"><use xlink:href="#y"/></mask><path d="M287 208s12 1 12 11" stroke="#363959" stroke-width="3" stroke-linecap="round" mask="url(#z)"/></g><g><mask id="B" fill="#fff"><use xlink:href="#A"/></mask><path d="M293 203s12 1 12 11" stroke="#363959" stroke-width="3" stroke-linecap="round" mask="url(#B)"/></g></g></svg>