<?xml version="1.0" encoding="UTF-8" standalone="no"?>
<svg width="476px" height="476px" viewBox="0 0 476 476" version="1.1" xmlns="http://www.w3.org/2000/svg" xmlns:xlink="http://www.w3.org/1999/xlink">
    <!-- Generator: Sketch 43.2 (39069) - http://www.bohemiancoding.com/sketch -->
    <title>Image</title>
    <desc>Created with Sketch.</desc>
    <defs>
        <circle id="path-1" cx="238" cy="238" r="238"></circle>
        <polygon id="path-3" points="0.087627907 6.63157895 1.20465116 3.13157895 17.372093 0.552631579 15.4473976 6.63157895 0.087627907 6.63157895"></polygon>
        <rect id="path-5" x="-55" y="225" width="449" height="88"></rect>
        <rect id="path-6" x="-12" y="312" width="406" height="217"></rect>
        <rect id="path-7" x="-347" y="242" width="418" height="54" rx="5"></rect>
        <filter x="-0.7%" y="-0.7%" width="101.4%" height="102.8%" filterUnits="objectBoundingBox" id="filter-8">
            <feOffset dx="0" dy="0.5" in="SourceAlpha" result="shadowOffsetOuter1"></feOffset>
            <feColorMatrix values="0 0 0 0 1   0 0 0 0 1   0 0 0 0 1  0 0 0 1 0" type="matrix" in="shadowOffsetOuter1" result="shadowMatrixOuter1"></feColorMatrix>
            <feMerge>
                <feMergeNode in="shadowMatrixOuter1"></feMergeNode>
                <feMergeNode in="SourceGraphic"></feMergeNode>
            </feMerge>
        </filter>
    </defs>
    <g id="Landing-page" stroke="none" stroke-width="1" fill="none" fill-rule="evenodd">
        <g id="Landing-Page_Desktop" transform="translate(-794.000000, -854.000000)">
            <g id="Sec-1" transform="translate(0.000000, 767.000000)">
                <g id="Image" transform="translate(794.000000, 87.000000)">
                    <mask id="mask-2" fill="white">
                        <use xlink:href="#path-1"></use>
                    </mask>
                    <use id="Mask" fill="#A1F6FF" xlink:href="#path-1"></use>
                    <g id="Group-5" mask="url(#mask-2)" fill="#C8FAFF">
                        <g transform="translate(14.000000, 54.000000)">
                            <path d="M218.044772,24.8043478 L43.9762854,24.8043478 C42.3901419,24.8043478 41.1080332,23.0600761 41.1080332,20.9021739 C41.1080332,18.7442717 42.3901419,17 43.9762854,17 L218.044772,17 C219.628047,17 220.913024,18.7442717 220.913024,20.9021739 C220.913024,23.0600761 219.628047,24.8043478 218.044772,24.8043478" id="Fill-19"></path>
                            <path d="M194.487441,3.90217391 L117.417506,3.90217391 C116.625868,3.90217391 115.98338,3.02808696 115.98338,1.95108696 C115.98338,0.874086957 116.625868,0 117.417506,0 L194.487441,0 C195.279078,0 195.921567,0.874086957 195.921567,1.95108696 C195.921567,3.02808696 195.279078,3.90217391 194.487441,3.90217391" id="Fill-21"></path>
                            <path d="M263.400199,40.9021739 L1.43412607,40.9021739 C0.642488481,40.9021739 0,40.028087 0,38.951087 C0,37.874087 0.642488481,37 1.43412607,37 L263.400199,37 C264.191837,37 264.834325,37.874087 264.834325,38.951087 C264.834325,40.028087 264.191837,40.9021739 263.400199,40.9021739" id="Fill-23"></path>
                        </g>
                    </g>
                    <path d="M-55,176 L383.992465,176 C389.519474,176 394,180.478321 394,186.004518 L394,225 L-55,225 L-55,176 Z" id="Rectangle-9-Copy" fill="#E3E1E3" mask="url(#mask-2)"></path>
                    <g id="Page-1" mask="url(#mask-2)">
                        <g transform="translate(157.000000, 121.000000)">
                            <g id="Group-47" stroke-width="1" fill="none" transform="translate(0.000000, 0.348605)">
                                <path d="M45.2953488,44.7631579 C43.8255814,44.7631579 42.5395349,44.5789474 41.0697674,44.0263158 L20.8604651,35.7368421 C15.1651163,33.3421053 12.5930233,26.8947368 14.7976744,21.3684211 C17.1860465,15.6578947 23.6162791,13.0789474 29.127907,15.2894737 L49.3372093,23.5789474 C55.0325581,25.9736842 57.6046512,32.4210526 55.4,37.9473684 C53.7465116,42.1842105 49.7046512,44.7631579 45.2953488,44.7631579" id="Fill-1" fill="#009EC0"></path>
                                <path d="M61.2790698,156.947368 C90.703814,156.947368 114.55814,160.576316 114.55814,165.052632 C114.55814,169.528947 90.703814,173.157895 61.2790698,173.157895 C31.8543256,173.157895 8,169.528947 8,165.052632 C8,160.576316 31.8543256,156.947368 61.2790698,156.947368" id="Fill-3" fill="#EDEDF2"></path>
                                <g id="Group-7" transform="translate(64.116279, 0.000000)" fill="#009EC0">
                                    <path d="M23.9860465,43.2894737 C20.3116279,43.2894737 16.6372093,41.4473684 14.6162791,38.1315789 L1.75581395,17.5 C-1.55116279,12.3421053 0.102325581,5.52631579 5.24651163,2.21052632 C10.3906977,-1.10526316 17.1883721,0.552631579 20.4953488,5.71052632 L33.355814,26.3421053 C36.6627907,31.5 35.0093023,38.3157895 29.8651163,41.6315789 C28.027907,42.7368421 26.0069767,43.2894737 23.9860465,43.2894737" id="Fill-5"></path>
                                </g>
                                <path d="M79.9395349,54.6513947 C77.1837209,55.7566579 10,54.6513947 10,54.6513947 C10,54.6513947 16,67.6513947 12,78.6513947 C-1,94.6513947 -2.93441968,114.846117 6.63488372,131.894737 C11.4116279,140.552632 69.4674419,154.184211 79.9395349,147.736842 C83.0627907,145.894737 108,54.6513947 108,54.6513947 C108,54.6513947 83,55.6513947 81,54.6513947" id="Fill-8" fill-opacity="0.6" fill="#CACACA"></path>
                                <path d="M35.1906977,18.2368421 C32.4348837,19.3421053 19.2069767,31.3157895 21.4116279,64.8421053 C23.6162791,97.6315789 -5.59534884,92.2894737 16.6348837,131.894737 C21.4116279,140.552632 79.4674419,154.184211 89.9395349,147.736842 C93.0627907,145.894737 129.439535,79.3947368 113.823256,35.1842105 C108.67907,20.6315789 78.1813953,-0.184210526 35.1906977,18.2368421" id="Fill-8" fill="#009EC0"></path>
                                <path d="M17.3697674,103.526316 C17.3697674,103.526316 14.0627907,125.815789 15.3488372,136.868421 C16.6348837,147.921053 19.5744186,154 21.5953488,152.894737 C23.8,151.789474 29.4953488,119.368421 29.4953488,119.368421 L17.3697674,103.526316 Z" id="Fill-10" fill="#009EC0"></path>
                                <path d="M100.411628,123.052632 C100.411628,123.052632 93.6139535,144.605263 87.5511628,154 C81.672093,163.394737 76.1604651,167.447368 74.6906977,165.605263 C73.2209302,163.763158 82.5906977,132.078947 82.5906977,132.078947 L100.411628,123.052632 Z" id="Fill-12" fill="#009EC0"></path>
                                <path d="M41.4372093,17.6842105 C51.1744186,12.7105263 77.4465116,14.3684211 89.572093,12.5263158 C96.0023256,11.6052632 113.455814,14.3684211 113.455814,14.3684211 L105.923256,18.2368421 L116.211628,19.8947368 L110.516279,24.6842105 L112.72093,33.8947368 L111.067442,32.9736842 L53.1953488,16.9473684 L41.4372093,17.6842105 Z" id="Fill-14" fill="#009EC0"></path>
                                <path d="M43.8255814,31.3157895 C33.3534884,38.3157895 39.7837209,122.315789 47.1325581,131.526316 C59.0744186,146.263158 86.8162791,143.131579 90.4906977,135.394737 C91.7767442,132.447368 123.009302,74.9736842 108.311628,35.3684211 C104.637209,25.0526316 80.2023256,7 43.8255814,31.3157895" id="Fill-18" fill="#00C6DB"></path>
                                <path d="M62.3813953,48.8157895 C63.4837209,49 64.0348837,50.1052632 63.8511628,51.2105263 L62.7488372,55.6315789 C62.5651163,56.7368421 61.4627907,57.2894737 60.3604651,57.1052632 C59.2581395,56.9210526 58.7069767,55.8157895 58.8906977,54.7105263 L59.9930233,50.2894737 C60.3604651,49.1842105 61.4627907,48.6315789 62.3813953,48.8157895" id="Fill-20" fill="#363959"></path>
                                <path d="M101.330233,50.1052632 C102.432558,50.2894737 102.983721,51.3947368 102.8,52.5 L101.697674,56.9210526 C101.513953,58.0263158 100.411628,58.5789474 99.3093023,58.3947368 C98.2069767,58.2105263 97.655814,57.1052632 97.8395349,56 L98.9418605,51.5789474 C99.1255814,50.4736842 100.227907,49.7368421 101.330233,50.1052632" id="Fill-22" fill="#363959"></path>
                                <path d="M60.544186,66.1315789 C59.9930233,66.1315789 59.2581395,66.1315789 58.7069767,65.9473684 C54.2976744,64.8421053 52.827907,60.9736842 52.827907,60.7894737 C52.4604651,59.8684211 53.0116279,58.7631579 53.9302326,58.3947368 C54.8488372,58.0263158 55.9511628,58.5789474 56.3186047,59.5 C56.3186047,59.6842105 57.2372093,61.7105263 59.6255814,62.2631579 C62.0139535,62.8157895 63.6674419,61.3421053 63.8511628,61.1578947 C64.5860465,60.4210526 65.6883721,60.4210526 66.4232558,61.1578947 C67.1581395,61.8947368 67.1581395,63 66.4232558,63.7368421 C66.055814,64.1052632 64.0348837,66.1315789 60.544186,66.1315789" id="Fill-24" fill="#009EC0"></path>
                                <path d="M100.227907,60.7894737 C99.6767442,60.7894737 98.9418605,60.7894737 98.3906977,60.6052632 C93.9813953,59.5 92.5116279,55.6315789 92.5116279,55.4473684 C92.144186,54.5263158 92.6953488,53.4210526 93.6139535,53.0526316 C94.5325581,52.6842105 95.6348837,53.2368421 96.0023256,54.1578947 C96.0023256,54.3421053 96.9209302,56.3684211 99.3093023,56.9210526 C101.697674,57.4736842 103.534884,56 103.534884,56 C104.269767,55.2631579 105.372093,55.2631579 106.106977,56 C106.84186,56.7368421 106.84186,57.8421053 106.106977,58.5789474 C105.739535,58.7631579 103.534884,60.7894737 100.227907,60.7894737" id="Fill-26" fill="#009EC0"></path>
                                <path d="M70.2813953,80.6842105 C69.3627907,80.6842105 68.444186,79.9473684 68.444186,79.0263158 C68.444186,77.9210526 69.1790698,77.1842105 70.0976744,77 C81.1209302,76.0789474 91.5930233,73.8684211 92.6953488,72.2105263 C93.9813953,70.1842105 94.1651163,67.2368421 94.1651163,67.0526316 C94.1651163,66.1315789 95.0837209,65.3947368 96.0023256,65.3947368 C96.9209302,65.3947368 97.8395349,66.1315789 97.8395349,67.0526316 C98.0232558,68.7105263 98.5744186,71.2894737 99.3093023,72.2105263 C100.595349,73.8684211 102.248837,73.8684211 102.248837,73.8684211 C103.351163,73.8684211 104.086047,74.6052632 104.269767,75.5263158 C104.269767,76.6315789 103.534884,77.3684211 102.616279,77.5526316 C101.330233,77.5526316 98.5744186,77.1842105 96.5534884,74.6052632 C96.3697674,74.4210526 96.1860465,74.0526316 96.0023256,73.8684211 C96.0023256,74.0526316 95.8186047,74.0526316 95.8186047,74.2368421 C93.2465116,78.2894737 77.2627907,80.1315789 70.2813953,80.6842105 L70.2813953,80.6842105" id="Fill-28" fill="#009EC0"></path>
                                <path d="M90.1232558,64.4736842 C88.6534884,65.3947368 96.7372093,69.4473684 97.8395349,69.4473684 C99.4930233,69.4473684 107.576744,65.9473684 107.209302,63.1842105 C107.025581,61.7105263 95.6348837,60.7894737 90.1232558,64.4736842" id="Fill-30" fill="#363959"></path>
                                <path d="M92.8790698,65.0263158 C94.5325581,65.9473684 97.1046512,67.2368421 97.8395349,67.4210526 C99.3093023,67.2368421 103.351163,65.3947368 104.82093,63.9210526 C102.432558,63.5526316 96.9209302,63.3684211 92.8790698,65.0263158 M97.8395349,71.2894737 L97.8395349,71.2894737 C96.3697674,71.2894737 89.0209302,67.9736842 88.2860465,65.3947368 C88.1023256,64.4736842 88.2860465,63.5526316 89.2046512,63 C94.3488372,59.5 104.453488,59.6842105 107.576744,60.9736842 C108.862791,61.5263158 109.046512,62.2631579 109.230233,63 C109.413953,64.1052632 108.862791,65.2105263 107.944186,66.3157895 C105.555814,68.7105263 99.8604651,71.2894737 97.8395349,71.2894737" id="Fill-32" fill="#363959"></path>
                                <path d="M72.6697674,80.5 L71.2,85.1052632 C69.9139535,88.9736842 72.1186047,93.2105263 75.9767442,94.3157895 C79.8348837,95.6052632 84.0604651,93.3947368 85.1627907,89.5263158 L88.8372093,77.9210526 L72.6697674,80.5 Z" id="Fill-45" fill="#FF1AD9"></path>
                            </g>
                            <g id="Group-50" stroke-width="1" fill="none" transform="translate(71.465116, 77.717026)">
                                <mask id="mask-4" fill="white">
                                    <use xlink:href="#path-3"></use>
                                </mask>
                                <g id="Clip-49"></g>
                                <polygon id="Fill-48" fill="#E100BB" mask="url(#mask-4)" points="-2.8372093 6.63157895 19.7604651 2.94736842 21.0465116 -3.13157895 5.98139535 -5.34210526"></polygon>
                            </g>
                            <path d="M77.6302326,90.6117632 L77.2627907,90.6117632 C76.7116279,90.4275526 76.527907,89.8749211 76.7116279,89.5065 L79.4674419,81.0328158 C79.6511628,80.4801842 80.2023256,80.2959737 80.5697674,80.4801842 C81.1209302,80.6643947 81.3046512,81.2170263 81.1209302,81.5854474 L78.3651163,90.0591316 C78.3651163,90.4275526 77.9976744,90.6117632 77.6302326,90.6117632" id="Fill-51" fill="#E100BB"></path>
                        </g>
                    </g>
                    <g id="Rectangle-9" mask="url(#mask-2)">
                        <use fill="#F5F5F5" fill-rule="evenodd" xlink:href="#path-5"></use>
                        <rect stroke="#D4D4D4" stroke-width="1" x="-54.5" y="225.5" width="448" height="87"></rect>
                    </g>
                    <g id="Rectangle-10" mask="url(#mask-2)">
                        <use fill="#E9FDFF" fill-rule="evenodd" xlink:href="#path-6"></use>
                        <rect stroke="#D4D4D4" stroke-width="1" x="-11.5" y="312.5" width="405" height="216"></rect>
                    </g>
                    <circle id="Oval-3" fill="#D8D8D8" mask="url(#mask-2)" cx="190" cy="270" r="21"></circle>
                    <circle id="Oval-3-Copy" fill="#D8D8D8" mask="url(#mask-2)" cx="120" cy="270" r="21"></circle>
                    <g id="Rectangle-8" mask="url(#mask-2)">
                        <use fill="#FFFFFF" fill-rule="evenodd" xlink:href="#path-7"></use>
                        <rect stroke-opacity="0.47412817" stroke="#979797" stroke-width="1" x="-346.5" y="242.5" width="417" height="53" rx="5"></rect>
                    </g>
                    <path d="M304,225.5 L304,311.523253" id="Line" stroke="#E3E3E3" stroke-width="2" stroke-linecap="square" mask="url(#mask-2)"></path>
                    <g id="Group-10" mask="url(#mask-2)">
                        <g transform="translate(192.000000, 205.000000)">
                            <g id="Icon-1-Copy-3" filter="url(#filter-8)" stroke-width="1" fill="none" transform="translate(138.000000, 45.000000)">
                                <g id="Page-1" fill="#4D4D4D">
                                    <path d="M33,6 L3,6 C1.341,6 0,4.659 0,3 C0,1.341 1.341,0 3,0 L33,0 C34.659,0 36,1.341 36,3 C36,4.659 34.659,6 33,6" id="Fill-1"></path>
                                    <path d="M33,21 L3,21 C1.341,21 0,19.659 0,18 C0,16.341 1.341,15 3,15 L33,15 C34.659,15 36,16.341 36,18 C36,19.659 34.659,21 33,21" id="Fill-3"></path>
                                    <path d="M33,36 L3,36 C1.341,36 0,34.659 0,33 C0,31.341 1.341,30 3,30 L33,30 C34.659,30 36,31.341 36,33 C36,34.659 34.659,36 33,36" id="Fill-5"></path>
                                </g>
                            </g>
                            <g id="Glyph-/-Add---on-/-Page-shot" fill="none" transform="translate(47.000000, 45.000000)" stroke-width="1">
                                <g id="Pageshot-2" fill="#3E3D40">
                                    <path d="M7.125,34.4386875 C5.1585,34.4386875 3.5625,32.8426875 3.5625,30.8761875 C3.5625,28.9073125 5.1585,27.3136875 7.125,27.3136875 C9.0915,27.3136875 10.6875,28.9073125 10.6875,30.8761875 C10.6875,32.8426875 9.0915,34.4386875 7.125,34.4386875 M14.0675987,15.7991869 L19.5036636,19.6275791 L29.68655,12.4585375 C30.757675,11.7080375 32.2468,11.9716625 32.994925,13.0404125 C33.74305,14.1115375 33.4818,15.5982875 32.41305,16.3487875 L23.6293097,22.5330984 L23.633625,22.5361375 L19.6663343,25.3232847 L14.0672068,29.265426 C14.1867967,29.7830248 14.25,30.3222175 14.25,30.8761875 C14.25,34.8091875 11.060375,38.0011875 7.125,38.0011875 C3.189625,38.0011875 0,34.8091875 0,30.8761875 C0,26.9408125 3.189625,23.7511875 7.125,23.7511875 C8.77748218,23.7511875 10.2984738,24.3135819 11.5070364,25.2574321 L15.3790423,22.5314298 L11.5088459,19.807475 C10.2999922,20.7524874 8.77830702,21.3158625 7.125,21.3158625 C3.189625,21.3158625 0,18.1238625 0,14.1908625 C0,10.2554875 3.189625,7.0658625 7.125,7.0658625 C11.060375,7.0658625 14.25,10.2554875 14.25,14.1908625 C14.25,14.7438931 14.1869348,15.2822726 14.0675987,15.7991869 Z M32.4128125,28.7168375 C33.4815625,29.4649625 33.7451875,30.9517125 32.9946875,32.0252125 C32.2465625,33.0939625 30.7574375,33.3552125 29.6886875,32.6070875 L21.8963125,27.1208375 L26.0216875,24.2138375 L32.4128125,28.7168375 Z M35.625,28.5 L35.625,23.75 L38,23.75 L38,28.5 L35.625,28.5 Z M10.6875,14.1908625 C10.6875,12.2219875 9.0915,10.6283625 7.125,10.6283625 C5.1585,10.6283625 3.5625,12.2219875 3.5625,14.1908625 C3.5625,16.1573625 5.1585,17.7533625 7.125,17.7533625 C9.0915,17.7533625 10.6875,16.1573625 10.6875,14.1908625 Z M23.75,2.375 L23.75,0 L28.5,0 L28.5,2.375 L23.75,2.375 Z M35.625,14.25 L35.625,9.5 L38,9.5 L38,14.25 L35.625,14.25 Z M35.625,21.375 L35.625,16.625 L38,16.625 L38,21.375 L35.625,21.375 Z M35.625,34.429425 L35.625,30.876425 L38,30.876425 L38,35.626425 C38,36.937425 36.938375,38.001425 35.625,38.001425 L30.875,38.001425 L30.875,35.626425 L34.430375,35.626425 C35.08825,35.626425 35.625,35.089675 35.625,34.429425 Z M2.375,3.565825 L2.375,7.12595 L0,7.12595 L0,2.37595 C0,1.062575 1.061625,0.00095 2.375,0.00095 L7.125,0.00095 L7.125,2.37595 L3.564875,2.37595 C2.909375,2.37595 2.375,2.90795 2.375,3.565825 Z M16.625,38 L16.625,35.625 L21.375,35.625 L21.375,38 L16.625,38 Z M35.625,0.0011875 C36.938375,0.0011875 38,1.0628125 38,2.3761875 L38,7.1261875 L35.625,7.1261875 L35.625,3.5565625 C35.625,2.9058125 35.095375,2.3761875 34.444625,2.3761875 L30.875,2.3761875 L30.875,0.0011875 L35.625,0.0011875 Z M16.625,2.375 L16.625,0 L21.375,0 L21.375,2.375 L16.625,2.375 Z M23.75,38 L23.75,35.625 L28.5,35.625 L28.5,38 L23.75,38 Z M9.5,2.375 L9.5,0 L14.25,0 L14.25,2.375 L9.5,2.375 Z" id="Combined-Shape"></path>
                                </g>
                            </g>
                            <path d="M101.526671,44.8362485 C98.5871357,44.8362485 93.9941125,44.0994064 87.1964381,41.3362485 C74.7034148,36.3625642 66.4359729,14.9941432 65.5173683,12.5994064 C64.7824846,10.7573011 65.7010892,8.54677477 67.7220195,7.80993267 C69.5592288,7.07309056 71.7638799,7.99414319 72.4987636,10.020459 C74.7034148,15.7309853 82.052252,31.2046695 90.1359729,34.520459 C98.9545776,38.2046695 102.812717,37.4678274 102.812717,37.4678274 C104.649926,36.7309853 106.854578,37.6520379 107.589461,39.4941432 C108.324345,41.3362485 107.40574,43.5467748 105.568531,44.2836169 C105.017368,44.4678274 103.731322,44.8362485 101.526671,44.8362485" id="Fill-16" fill="#009EC0" transform="translate(86.554573, 26.197069) scale(-1, 1) rotate(71.000000) translate(-86.554573, -26.197069) "></path>
                            <path d="M3.92805952,4.21822553 C3.92805952,4.21822553 30.7697996,51.3549398 39.9352718,53.3189695 C46.4820376,57.9017056 43.2086547,63.7937949 36.6618888,61.8297651 C30.115123,59.8657354 5.23741269,28.4412592 0,10.1103148 C0.654676586,2.25419577 3.92805952,4.21822553 3.92805952,4.21822553 Z" id="Path-2" fill="#009EC0"></path>
                        </g>
                    </g>
                    <g id="Shine" mask="url(#mask-2)">
                        <g transform="translate(269.000000, 289.000000)">
                            <path d="M20.9590304,4.22292152 C18.9596022,3.71603894 17.3903194,2.14611094 16.8836451,0.145860743 C16.8352647,-0.0486202478 16.5845665,-0.0486202478 16.5361862,0.145860743 C16.0295119,2.14611094 14.460229,3.71603894 12.4608008,4.22292152 C12.2663997,4.27132177 12.2663997,4.52124304 12.4608008,4.57052329 C14.460229,5.07740588 16.0295119,6.64733388 16.5361862,8.64758407 C16.5845665,8.84206506 16.8352647,8.84206506 16.8836451,8.64758407 C17.3903194,6.64733388 18.9596022,5.07740588 20.9590304,4.57052329 C21.1534315,4.52124304 21.1534315,4.27132177 20.9590304,4.22292152" id="Fill-48" fill="#FFC44D"></path>
                            <path d="M35.4975477,12.7382849 C31.9701798,11.8424404 29.1931473,9.06426619 28.2976709,5.53544821 C28.2070677,5.19488647 27.7698852,5.19488647 27.6863191,5.53544821 C26.7978798,9.06426619 24.0208473,11.8424404 20.4864423,12.7312449 C20.1469002,12.8218853 20.1469002,13.2592476 20.4864423,13.342848 C24.0138102,14.2386926 26.7908427,17.0168667 27.6863191,20.5456847 C27.7769223,20.8862464 28.2141048,20.8862464 28.2976709,20.5456847 C29.1931473,17.0168667 31.9701798,14.2386926 35.4975477,13.342848 C35.8379695,13.2592476 35.8379695,12.8218853 35.4975477,12.7382849" id="Fill-50" fill="#FFAA00"></path>
                            <path d="M22.8267321,23.4732396 C17.5497546,22.1400328 13.3978404,17.9793716 12.0581443,12.7002247 C11.933235,12.1933421 11.28054,12.1933421 11.1485936,12.7002247 C9.815055,17.9793716 5.65698321,22.1329928 0.380005714,23.4732396 C-0.126668571,23.5982003 -0.126668571,24.2511636 0.380005714,24.3831643 C5.65698321,25.7163711 9.8088975,29.8770323 11.1485936,35.1561792 C11.2735029,35.6630618 11.9261979,35.6630618 12.0581443,35.1561792 C13.3908032,29.8770323 17.5497546,25.7234111 22.8267321,24.3831643 C23.3334064,24.2511636 23.3334064,23.5982003 22.8267321,23.4732396" id="Fill-52" fill="#FFC44D"></path>
                        </g>
                    </g>
                    <path d="M287,208 C287,208 299,209 299,219" id="Path-5" stroke="#363959" stroke-width="3" stroke-linecap="round" mask="url(#mask-2)"></path>
                    <path d="M293,203 C293,203 305,204 305,214" id="Path-5-Copy" stroke="#363959" stroke-width="3" stroke-linecap="round" mask="url(#mask-2)"></path>
                </g>
            </g>
        </g>
    </g>
</svg>