<svg width="84" height="78" viewBox="0 0 84 78" xmlns="http://www.w3.org/2000/svg"><title>Shape</title><path d="M20.861 0c-5.743 0-10.399 4.656-10.399 10.399h10.4V0zm31.197 0H41.66v10.399h10.4V0zm20.798 0v10.399h10.399C83.255 4.656 78.599 0 72.855 0zM36.46 0h-10.4v10.399h10.4V0zm31.196 0H57.258v10.399h10.398V0zm5.2 25.997h10.399V15.598h-10.4v10.4zm0 31.197c5.743 0 10.399-4.656 10.399-10.399h-10.4v10.399zm0-15.598h10.399v-10.4h-10.4v10.4zm-2.293-11.268c-3.293-4.704-9.775-5.85-14.48-2.558l-19.94 14.72-10.233-7.175c.08-.502.13-1.009.15-1.519a12.936 12.936 0 0 0-5.199-10.341v-7.857H10.462v5.46A12.999 12.999 0 1 0 20.643 44.32l6.458 4.518-7.28 5.106a12.967 12.967 0 1 0 5.98 8.491l44.762-32.107zm-57.5 9.968a6.5 6.5 0 1 1 0-12.999 6.5 6.5 0 0 1 0 12.999zm0 31.196a6.5 6.5 0 1 1 0-12.998 6.5 6.5 0 0 1 0 12.998zm28.076-12.629l15.687 11.959c4.705 3.291 11.188 2.146 14.48-2.558l-21.12-15.75-9.047 6.349z" fill="#313131" fill-rule="nonzero"/></svg>