<svg width="476" height="476" xmlns="http://www.w3.org/2000/svg"><defs><circle id="a" cx="238" cy="238" r="238"/><path id="c" d="M0 0h793.886v454.187H0z"/><rect id="f" x="34.883" y="57.739" width="721.714" height="481.141" rx="3"/><filter x="-.4%" y="-.6%" width="100.8%" height="101.2%" filterUnits="objectBoundingBox" id="e"><feMorphology radius="1" operator="dilate" in="SourceAlpha" result="shadowSpreadOuter1"/><feOffset in="shadowSpreadOuter1" result="shadowOffsetOuter1"/><feColorMatrix values="0 0 0 0 0 0 0 0 0 0 0 0 0 0 0 0 0 0 0.1 0" in="shadowOffsetOuter1"/></filter><path id="g" d="M.082 5.702l1.045-3.01L16.253.475l-1.801 5.227H.082z"/><path id="i" d="M34.883 116.757h721.714v105.925H34.883z"/><path id="j" d="M34.883 221.478h721.714v261.2H34.883z"/><path d="M34.883 137.22h443.666a5 5 0 0 1 5 5v55a5 5 0 0 1-5 5H34.883v-65z" id="k"/><path d="M305.282 9.894H118.994a5.994 5.994 0 0 0-5.994 6V196c0 3.321 2.683 6 5.994 6h279.784a5.994 5.994 0 0 0 5.993-6V15.894c0-3.32-2.683-6-5.993-6h-76.226a4.556 4.556 0 0 1-.726-.529L314.47.595c-.356-.424-.927-.424-1.28-.006l-7.68 9.101s-.078.08-.228.204z" id="m"/><filter x="-6.9%" y="-7.4%" width="113.7%" height="119.8%" filterUnits="objectBoundingBox" id="l"><feMorphology radius="1" operator="dilate" in="SourceAlpha" result="shadowSpreadOuter1"/><feOffset dy="5" in="shadowSpreadOuter1" result="shadowOffsetOuter1"/><feGaussianBlur stdDeviation="5.5" in="shadowOffsetOuter1" result="shadowBlurOuter1"/><feComposite in="shadowBlurOuter1" in2="SourceAlpha" operator="out" result="shadowBlurOuter1"/><feColorMatrix values="0 0 0 0 0 0 0 0 0 0 0 0 0 0 0 0 0 0 0.1 0" in="shadowBlurOuter1"/></filter><path d="M550.807 347.015h7.778c1.095 0 1.645-.819 1.21-1.83l-12.01-27.83c-.433-1.004-1.143-1.011-1.579 0l-12.01 27.83c-.433 1.004.106 1.83 1.21 1.83h7.777v18.51c0 1.101.897 1.993 2.003 1.993h3.618a2.003 2.003 0 0 0 2.003-1.994v-18.51z" id="n"/></defs><g fill="none" fill-rule="evenodd"><mask id="b" fill="#fff"><use href="#a"/></mask><use fill="#A1F6FF" href="#a"/><g mask="url(#b)"><g transform="translate(-193 37)"><path d="M0 0h842v433.327H0z"/><g transform="translate(22.854 13.24)"><mask id="d" fill="#fff"><use href="#c"/></mask><g mask="url(#d)"><use fill="#000" filter="url(#e)" href="#f"/><use fill="#FFF" href="#f"/></g><path fill="#E3E1E3" mask="url(#d)" d="M34.883 57.777h721.714v58.98H34.883z"/><g mask="url(#d)"><path d="M381.017 55.494c-1.363 0-2.556-.17-3.92-.683l-18.746-7.684c-5.283-2.22-7.67-8.196-5.624-13.319 2.215-5.294 8.18-7.684 13.293-5.635l18.747 7.684c5.283 2.22 7.669 8.197 5.624 13.32-1.534 3.927-5.284 6.317-9.374 6.317" fill="#009EC0"/><path d="M395.844 159.486c27.295 0 49.423 3.364 49.423 7.514s-22.128 7.513-49.423 7.513-49.423-3.364-49.423-7.513c0-4.15 22.128-7.514 49.423-7.514" fill="#EDEDF2"/><path d="M420.726 54.128c-3.408 0-6.817-1.707-8.692-4.781l-11.93-19.125c-3.067-4.781-1.533-11.1 3.239-14.173 4.772-3.074 11.077-1.537 14.145 3.245l11.93 19.124c3.067 4.782 1.534 11.1-3.238 14.173a10.557 10.557 0 0 1-5.454 1.537" fill="#009EC0"/><path d="M413.154 57.502c-2.556 1.108-64.878 0-64.878 0s5.566 13.033 1.856 24.06c-12.06 16.04-13.854 36.286-4.977 53.378 4.43 8.68 58.285 22.345 68 15.882 2.896-1.847 26.029-93.32 26.029-93.32s-23.19 1.003-25.046 0" fill-opacity=".6" fill="#CACACA"/><path d="M371.644 30.905c-2.557 1.025-14.827 12.124-12.782 43.202 2.045 30.395-25.052 25.443-4.431 62.156 4.431 8.026 58.285 20.662 68 14.685 2.897-1.707 36.64-63.351 22.155-104.333-4.772-13.49-33.063-32.786-72.942-15.71" fill="#009EC0"/><path d="M355.113 109.966s-3.068 20.662-1.875 30.908c1.193 10.245 3.92 15.88 5.794 14.856 2.046-1.025 7.329-31.078 7.329-31.078l-11.248-14.686zm77.032 18.101s-6.306 19.979-11.93 28.687c-5.454 8.709-10.566 12.466-11.93 10.758-1.363-1.708 7.328-31.078 7.328-31.078l16.532-8.367zm-54.707-97.674c9.033-4.61 33.403-3.074 44.652-4.781 5.964-.854 22.155 1.707 22.155 1.707l-6.988 3.586 9.544 1.537-5.283 4.44 2.045 8.538-1.534-.854-53.684-14.856-10.907.683z" fill="#009EC0"/><path d="M379.654 43.029c-9.714 6.489-3.75 84.355 3.067 92.893 11.078 13.66 36.812 10.758 40.22 3.586 1.194-2.733 30.166-56.01 16.532-92.722-3.409-9.563-26.075-26.297-59.82-3.757" fill="#00C6DB"/><path d="M396.867 59.251c1.022.17 1.533 1.195 1.363 2.22l-1.022 4.098c-.17 1.025-1.193 1.537-2.216 1.366-1.023-.17-1.534-1.195-1.363-2.22l1.022-4.098c.341-1.024 1.364-1.537 2.216-1.366m36.13 1.195c1.022.171 1.533 1.196 1.363 2.22l-1.022 4.098c-.17 1.025-1.193 1.537-2.216 1.367-1.023-.171-1.534-1.196-1.363-2.22l1.022-4.099c.17-1.024 1.193-1.707 2.216-1.366" fill="#363959"/><path d="M396.365 65.616c-.511 0-1.193 0-1.704.17-4.09 1.025-5.454 4.611-5.454 4.782-.34.854.17 1.879 1.023 2.22.852.342 1.875-.17 2.216-1.025 0-.17.852-2.049 3.067-2.56 2.216-.513 3.75.853 3.92 1.024.682.683 1.704.683 2.386 0 .682-.683.682-1.708 0-2.391-.341-.341-2.216-2.22-5.454-2.22m35.609 4.734c-.511 0-1.193 0-1.704-.17-4.09-1.025-5.454-4.61-5.454-4.782-.34-.853.17-1.878 1.023-2.22.852-.341 1.875.171 2.215 1.025 0 .17.852 2.05 3.068 2.561 2.216.513 3.92-.853 3.92-.853.681-.683 1.704-.683 2.386 0 .681.683.681 1.707 0 2.39-.341.171-2.386 2.05-5.454 2.05m-27.779 18.441c-.852 0-1.704-.683-1.704-1.537 0-1.024.681-1.707 1.534-1.878 10.225-.854 19.94-2.903 20.962-4.44 1.193-1.878 1.363-4.61 1.363-4.78 0-.855.852-1.538 1.704-1.538s1.705.683 1.705 1.537c.17 1.537.681 3.928 1.363 4.781 1.193 1.537 2.727 1.537 2.727 1.537 1.022 0 1.704.683 1.874 1.537 0 1.025-.681 1.708-1.533 1.878-1.193 0-3.75-.341-5.624-2.732-.17-.17-.341-.512-.512-.683 0 .171-.17.171-.17.342-2.386 3.756-17.213 5.464-23.69 5.976" fill="#009EC0"/><path d="M422.6 73.766c-1.363.853 6.136 4.61 7.159 4.61 1.533 0 9.032-3.244 8.691-5.806-.17-1.366-10.736-2.22-15.85 1.196" fill="#363959"/><path d="M425.157 74.278c1.534.854 3.92 2.049 4.602 2.22 1.363-.171 5.112-1.879 6.476-3.245-2.216-.341-7.329-.512-11.078 1.025m4.602 5.806c-1.364 0-8.18-3.074-8.862-5.465-.17-.853 0-1.707.852-2.22 4.772-3.244 14.145-3.073 17.042-1.878 1.193.512 1.364 1.195 1.534 1.878.17 1.025-.34 2.05-1.193 3.074-2.216 2.22-7.499 4.61-9.373 4.61" fill="#363959"/><path d="M406.41 88.622l-1.363 4.269c-1.193 3.585.852 7.513 4.431 8.537 3.579 1.196 7.499-.853 8.521-4.44l3.409-10.757-14.998 2.39z" fill="#FF1AD9"/><g transform="translate(405.157 86.221)"><mask id="h" fill="#fff"><use href="#g"/></mask><path fill="#E100BB" mask="url(#h)" d="M-2.654 5.702l21.141-3.168 1.203-5.226L5.596-4.593z"/></g><path d="M411.013 98.258h-.388c-.584-.174-.778-.696-.584-1.043l2.916-8c.195-.521.778-.695 1.167-.521.583.174.778.695.583 1.043l-2.916 8c0 .347-.389.52-.778.52" fill="#E100BB"/></g><g mask="url(#d)" stroke-linecap="round" stroke="#363959" stroke-width="3"><path d="M471.014 88s12.11 1.01 12.11 11.108M465 94.018s12.11 1.01 12.11 11.108"/></g><g mask="url(#d)"><use fill="#F5F5F5" href="#i"/><path stroke="#D4D4D4" d="M756.097 222.182h.5l-.5.5v-.5zM35.383 117.257v104.925h720.714V117.257H35.383z"/></g><g fill="#3E3D40" fill-rule="nonzero" mask="url(#d)"><path d="M268.52 296.447h3.75v-3.75h-3.75v3.75zm-5.624 0h3.75v-3.75a3.75 3.75 0 0 0-3.75 3.75zm11.25 0h3.75v-3.75h-3.75v3.75zm5.625 0h3.75v-3.75h-3.75v3.75zm5.625-3.75v3.75h3.75a3.75 3.75 0 0 0-3.75-3.75zm0 9.375h3.75v-3.75h-3.75v3.75zm0 5.625h3.75v-3.75h-3.75v3.75zm0 5.625a3.75 3.75 0 0 0 3.75-3.75h-3.75v3.75zm-22.5-11.25h3.75v-3.75h-3.75v3.75z"/><path d="M263.833 300.197a4.688 4.688 0 1 0 0 9.375 4.688 4.688 0 0 0 0-9.375zm0 7.031a2.344 2.344 0 1 1 0-4.687 2.344 2.344 0 0 1 0 4.687zm0 4.219a4.687 4.687 0 1 0 0 9.375 4.687 4.687 0 0 0 0-9.375zm0 7.031a2.344 2.344 0 1 1 0-4.687 2.344 2.344 0 0 1 0 4.687z"/><path d="M273.958 313.924l5.657 4.312a3.75 3.75 0 0 0 5.222-.922l-7.616-5.68-3.263 2.29zm-5.981 1.616l16.6-11.906a3.75 3.75 0 0 0-5.223-.923l-7.198 5.308-4.048-2.838-1.903 3.245 2.681 1.875-3.08 2.177 2.171 3.062z"/></g><g mask="url(#d)"><use fill="#E9FDFF" href="#j"/><path stroke="#D4D4D4" d="M35.383 221.978h720.714v260.2H35.383z"/></g><ellipse fill="#E1E1E6" mask="url(#d)" cx="535.854" cy="169.87" rx="22.854" ry="22.87"/><ellipse fill="#E1E1E6" mask="url(#d)" cx="611.854" cy="169.87" rx="22.854" ry="22.87"/><g mask="url(#d)"><use fill="#FFF" href="#k"/><path stroke-opacity=".474" stroke="#979797" d="M35.383 137.72v64h443.166a4.5 4.5 0 0 0 4.5-4.5v-55a4.5 4.5 0 0 0-4.5-4.5H35.383z"/></g><path d="M473.705 147.712c-3.536 0-9.06-.887-17.237-4.213-15.027-5.987-24.972-31.708-26.077-34.59-.884-2.218.221-4.879 2.652-5.765 2.21-.887 4.862.221 5.746 2.66 2.652 6.874 11.491 25.5 21.215 29.49 10.607 4.435 15.248 3.548 15.248 3.548 2.21-.887 4.862.222 5.746 2.44.884 2.217-.221 4.877-2.431 5.764-.663.222-2.21.666-4.862.666" fill="#009EC0" mask="url(#d)" transform="scale(-1 1) rotate(71 0 -513.586)"/><path d="M367.725 89.263s32.287 56.737 43.311 59.102c7.875 5.516 3.938 12.608-3.937 10.244-7.875-2.364-37.8-40.19-44.099-62.254.787-9.456 4.725-7.092 4.725-7.092z" fill="#009EC0" mask="url(#d)"/></g><path d="M684.47 293.47c-9.258 0-13.932-2.53-18.45-4.977-4.227-2.292-8.22-4.452-16.374-4.452-8.154 0-12.145 2.16-16.375 4.45-4.517 2.45-9.192 4.979-18.451 4.979-9.257 0-13.93-2.53-18.45-4.977-4.226-2.292-8.218-4.452-16.374-4.452-8.151 0-12.143 2.163-16.37 4.452-4.52 2.447-9.19 4.977-18.445 4.977a2.18 2.18 0 0 1-2.181-2.183 2.18 2.18 0 0 1 2.181-2.182c8.152 0 12.141-2.161 16.366-4.451 4.522-2.45 9.192-4.979 18.45-4.979 9.259 0 13.93 2.53 18.448 4.977 4.23 2.292 8.221 4.453 16.375 4.453 8.156 0 12.15-2.164 16.377-4.453 4.517-2.447 9.192-4.977 18.449-4.977 9.257 0 13.932 2.53 18.449 4.977 4.23 2.292 8.221 4.453 16.375 4.453 8.153 0 12.145-2.161 16.374-4.453 4.518-2.447 9.192-4.977 18.45-4.977a2.18 2.18 0 0 1 2.18 2.183 2.181 2.181 0 0 1-2.18 2.183c-8.154 0-12.148 2.16-16.375 4.452-4.518 2.447-9.192 4.977-18.45 4.977m-500.037 17.817c-8.982 0-13.53-2.464-17.93-4.848-4.354-2.357-8.465-4.581-16.891-4.581a1.091 1.091 0 0 1 0-2.183c8.98 0 13.528 2.462 17.927 4.844 4.354 2.36 8.466 4.586 16.894 4.586 8.429 0 12.54-2.227 16.892-4.582 4.406-2.386 8.954-4.848 17.936-4.848a1.091 1.091 0 0 1 0 2.183c-8.428 0-12.54 2.224-16.891 4.58-4.407 2.387-8.954 4.85-17.937 4.85m430.48-32.001c-8.982 0-13.53-2.464-17.93-4.848-4.354-2.357-8.465-4.581-16.891-4.581a1.091 1.091 0 0 1 0-2.183c8.98 0 13.528 2.462 17.927 4.844 4.354 2.36 8.466 4.586 16.894 4.586 8.429 0 12.54-2.227 16.892-4.582 4.406-2.386 8.954-4.848 17.936-4.848a1.091 1.091 0 0 1 0 2.183c-8.428 0-12.54 2.224-16.891 4.58-4.407 2.387-8.954 4.85-17.937 4.85m69 25.999c-8.982 0-13.53-2.464-17.93-4.848-4.354-2.357-8.465-4.581-16.891-4.581a1.091 1.091 0 0 1 0-2.183c8.98 0 13.528 2.462 17.927 4.844 4.354 2.36 8.466 4.586 16.894 4.586 8.429 0 12.54-2.227 16.89-4.584 4.404-2.384 8.951-4.846 17.932-4.846a1.091 1.091 0 0 1 0 2.183c-8.426 0-12.538 2.224-16.89 4.58-4.402 2.385-8.95 4.85-17.932 4.85" fill="#DDF4F6"/><g transform="translate(148 184)"><use fill="#000" filter="url(#l)" href="#m"/><use fill-opacity=".845" fill="#FFF" href="#m"/><path stroke-opacity=".1" stroke="#000" d="M305.097 9.394l.03-.026 7.681-9.102c.554-.656 1.49-.653 2.045.008l7.317 8.73c.093.087.271.23.524.39h76.084a6.492 6.492 0 0 1 6.493 6.5V196c0 3.591-2.904 6.5-6.493 6.5H118.994a6.492 6.492 0 0 1-6.494-6.5V15.894c0-3.59 2.904-6.5 6.494-6.5h186.103z"/></g><g transform="rotate(-21 546.995 342.207)"><use fill="#555" href="#n"/><path stroke="#FFF" stroke-width="2" d="M551.807 348.015v17.51a3.003 3.003 0 0 1-3.003 2.993h-3.618a2.998 2.998 0 0 1-3.003-2.994v-17.51h-6.778c-1.82 0-2.846-1.559-2.127-3.224l12.01-27.832c.783-1.815 2.634-1.809 3.415 0l12.01 27.832c.72 1.67-.314 3.225-2.128 3.225h-6.778z"/></g><g transform="translate(282 214)"><ellipse fill="#E1E1E6" cx="13.954" cy="13.964" rx="13.954" ry="13.964"/><ellipse fill="#E1E1E6" cx="13.954" cy="54.964" rx="13.954" ry="13.964"/><ellipse fill="#E1E1E6" cx="13.954" cy="141.964" rx="13.954" ry="13.964"/><text font-family="-apple-system, BlinkMacSystemFont, 'segoe ui', 'helvetica neue', helvetica, ubuntu, roboto, noto, arial, sans-serif" font-size="22" font-weight="500" letter-spacing="-.147" fill="#4D4D4D"><tspan x="47" y="107">Take a Screenshot</tspan></text><g fill-rule="nonzero" fill="#3E3D40"><path d="M9.125 92.063h3.25v-3.25h-3.25v3.25zm-4.875 0H7.5v-3.25a3.25 3.25 0 0 0-3.25 3.25zm9.75 0h3.25v-3.25H14v3.25zm4.875 0h3.25v-3.25h-3.25v3.25zm4.875-3.25v3.25H27a3.25 3.25 0 0 0-3.25-3.25zm0 8.124H27v-3.25h-3.25v3.25zm0 4.876H27v-3.25h-3.25v3.25zm0 4.874a3.25 3.25 0 0 0 3.25-3.25h-3.25v3.25zm-19.5-9.75H7.5v-3.25H4.25v3.25z"/><path d="M5.063 95.313a4.062 4.062 0 1 0 0 8.124 4.062 4.062 0 0 0 0-8.124zm0 6.093a2.031 2.031 0 1 1 0-4.062 2.031 2.031 0 0 1 0 4.062zm0 3.657a4.062 4.062 0 1 0 0 8.124 4.062 4.062 0 0 0 0-8.124zm0 6.093a2.031 2.031 0 1 1 0-4.062 2.031 2.031 0 0 1 0 4.062z"/><path d="M13.838 107.21l4.902 3.737a3.25 3.25 0 0 0 4.526-.8l-6.601-4.922-2.827 1.984zm-5.184 1.4L23.04 98.29a3.25 3.25 0 0 0-4.526-.8l-6.238 4.601-3.508-2.46-1.65 2.813 2.324 1.625-2.67 1.886 1.882 2.654z"/></g><path fill="#F5F5F7" d="M47 130h59.623v24.119H47zm69 0h106.56v24.119H116zM48 43h59.623v24.119H48zm68 0h59.623v24.119H116zm70 0h30.446v24.119H186zM47.846 2.542h30.446v24.119H47.846zm40.594 0H195v24.119H88.44zm115.44 0h49.474v24.119H203.88z"/></g><path d="M532.275 277.658a4.886 4.886 0 0 0 3.529-3.532c.042-.168.259-.168.3 0a4.886 4.886 0 0 0 3.53 3.532c.168.042.168.258 0 .3a4.886 4.886 0 0 0-3.53 3.532c-.041.169-.258.169-.3 0a4.886 4.886 0 0 0-3.53-3.531c-.168-.043-.168-.26 0-.301" fill="#FFC44D"/><path d="M522.209 283.298c2.883-.66 5.152-2.704 5.884-5.302.074-.25.432-.25.5 0 .726 2.598 2.996 4.643 5.885 5.297.277.067.277.389 0 .45-2.883.66-5.153 2.705-5.885 5.302-.074.251-.431.251-.5 0-.732-2.597-3.001-4.642-5.884-5.302-.279-.061-.279-.383 0-.445" fill="#FA0"/><path d="M531.192 293.303a12.235 12.235 0 0 0 8.83-8.836c.102-.415.637-.415.745 0a12.236 12.236 0 0 0 8.83 8.836c.415.103.415.638 0 .747a12.235 12.235 0 0 0-8.83 8.835c-.102.416-.637.416-.746 0a12.235 12.235 0 0 0-8.83-8.835c-.415-.109-.415-.644 0-.747" fill="#FFC44D"/><ellipse fill="#4D4D4D" cx="481.44" cy="176.443" rx="4.44" ry="4.443"/></g></g><circle fill="#4D4D4D" mask="url(#b)" cx="267.5" cy="213.5" r="4.5"/><circle fill="#4D4D4D" mask="url(#b)" cx="247.5" cy="213.5" r="4.5"/></g></svg>