<svg xmlns="http://www.w3.org/2000/svg" xmlns:xlink="http://www.w3.org/1999/xlink" width="492" height="476"><defs><path id="a" d="M0 .969h290v174H0z"/><linearGradient id="c" x1="86.846%" x2="86.846%" y1="2.894%" y2="100%"><stop offset="0%" stop-color="#79BFEF"/><stop offset="15.976%" stop-color="#89CBF9"/><stop offset="77.242%" stop-color="#85C8F6"/><stop offset="100%" stop-color="#BCD8EF"/></linearGradient><path id="d" d="M0 0h114.063v76.682H0z"/><linearGradient id="f" x1="50%" x2="50%" y1="50%" y2="100%"><stop offset="0%" stop-color="#F9FAF7"/><stop offset="100%" stop-color="#F1F4EC"/></linearGradient><path id="g" d="M0 0h114.063v76.682H0z"/><path id="i" d="M0 0h114.063v76.682H0z"/><path id="k" d="M0 0h114.063v76.682H0z"/><linearGradient id="m" x1="54.882%" x2="54.882%" y1="194.923%" y2="13.706%"><stop offset="0%" stop-opacity="0"/><stop offset="14.33%" stop-color="#9CD0F5"/><stop offset="100%" stop-color="#FFF"/></linearGradient><path id="n" d="M0 0h114.063v76.682H0z"/><path id="p" d="M0 0h114.063v76.682H0z"/><path id="r" d="M0 0h114.063v76.682H0z"/><path id="t" d="M0 0h249v149H0z"/><path id="u" d="M0 0h249v149H0z"/><path id="w" d="M0 0h114.063v76.682H0z"/><path id="y" d="M0 0h114.063v76.682H0z"/><path id="A" d="M0 0h114.063v76.682H0z"/><path id="C" d="M0 0h114.063v76.682H0z"/><path id="E" d="M0 0h114.063v76.682H0z"/><path id="G" d="M0 0h114.063v76.682H0z"/><path id="I" d="M0 0h114.063v76.682H0z"/></defs><g fill="none" fill-rule="evenodd"><circle cx="245" cy="238" r="238" fill="#A1F6FF" fill-rule="nonzero"/><g transform="translate(0 102)"><rect width="300" height="162" x="5" y="5" fill="#CDE7FA" stroke="#3E3D40" stroke-width="10" rx="8"/><g transform="translate(10 9)"><mask id="b" fill="#fff"><use xlink:href="#a"/></mask><g mask="url(#b)"><g fill-rule="nonzero"><path fill="#80C4CC" d="M-36.74-35.128H77.323V77.237H-36.74z"/><path fill="#90DCE5" d="M-36.74 42.313H77.323v34.924H-36.74z"/></g><g fill-rule="nonzero"><path fill="#80C4CC" d="M221.803-35.128h114.063V77.237H221.803z"/><path fill="#90DCE5" d="M221.803 42.313h114.063v34.924H221.803z"/></g><g fill-rule="nonzero"><path fill="#80C4CC" d="M-36.74 92.421H77.323v112.365H-36.74z"/><path fill="#5E5E5E" d="M-36.74 169.862H77.323v34.924H-36.74z"/></g><path fill="#5E5E5E" fill-rule="nonzero" d="M221.803 169.862h114.063v34.924H221.803z"/><g fill-rule="nonzero"><path fill="#80C4CC" d="M92.531 148.604h114.063v112.365H92.531z"/><path fill="#5E5E5E" d="M92.531 226.045h114.063v34.924H92.531z"/></g><g fill-rule="nonzero"><path fill="#545454" d="M92.531-106.495h114.063V5.87H92.531z"/><path fill="#90DCE5" d="M92.531-29.054h114.063V5.87H92.531z"/></g><g transform="translate(92.531 21.055)"><rect width="114.063" height="40.239" fill="#FFF" fill-rule="nonzero" rx="1.68" transform="translate(0 72.126)"/><path d="M27.64 95.523V85.448c0-.649.581-1.174 1.298-1.174.716 0 1.297.525 1.297 1.174v10.075l4.27-3.864a1.396 1.396 0 0 1 1.835 0 1.096 1.096 0 0 1 0 1.66l-6.485 5.867a1.396 1.396 0 0 1-1.834 0l-6.486-5.867a1.096 1.096 0 0 1 0-1.66 1.396 1.396 0 0 1 1.835 0l4.27 3.864zm-5.188 7.527c-.716 0-1.297-.525-1.297-1.173s.581-1.174 1.297-1.174h12.971c.716 0 1.297.526 1.297 1.174 0 .648-.58 1.173-1.297 1.173h-12.97zm55.11-7.177c0-.641.535-1.16 1.196-1.16.66 0 1.195.519 1.195 1.16v3.48c0 .641.534 1.16 1.195 1.16h9.56c.66 0 1.194-.519 1.194-1.16v-3.48c0-.641.534-1.16 1.195-1.16.66 0 1.195.519 1.195 1.16v4.64c0 1.28-1.07 2.32-2.39 2.32h-11.95c-1.319 0-2.39-1.04-2.39-2.32v-4.64zm9.56-7.63v8.822c0 .641-.535 1.16-1.195 1.16s-1.195-.519-1.195-1.16v-8.83l-2.748 2.668a1.22 1.22 0 0 1-1.69 0 1.136 1.136 0 0 1 0-1.64l4.79-4.65a1.22 1.22 0 0 1 1.69 0c.01.012.017.026.027.037l4.77 4.63a1.136 1.136 0 0 1 0 1.641 1.22 1.22 0 0 1-1.69 0l-2.759-2.678z" fill="#3E3D40" fill-rule="nonzero"/><path fill="url(#c)" fill-rule="nonzero" d="M0 0h114.063v76.682H0z"/><mask id="e" fill="#fff"><use xlink:href="#d"/></mask><g mask="url(#e)"><path fill="#000" fill-rule="nonzero" d="M38.423 31.198H3.757s4.012-.842 11.568-2.35c7.556-1.507 10.1-5.856 13.02-5.319 2.92.538 7.513 2.97 10.078 7.669z"/><path fill="url(#f)" d="M35.423 8.198H.757s4.012-.842 11.568-2.35C19.88 4.341 22.425-.008 25.345.53c2.92.538 7.513 2.97 10.078 7.669z" transform="translate(3 23)"/></g><mask id="h" fill="#fff"><use xlink:href="#g"/></mask><g mask="url(#h)"><path fill="#000" fill-rule="nonzero" d="M137.118 17.404H97.671s4.565-.957 13.163-2.673c8.598-1.715 11.493-6.664 14.816-6.052 3.324.611 8.55 3.38 11.468 8.725z"/><path fill="url(#f)" d="M40.118 9.404H.671s4.565-.957 13.163-2.673C22.433 5.016 25.327.067 28.65.68c3.324.611 8.55 3.38 11.468 8.725z" transform="translate(97 8)"/></g><mask id="j" fill="#fff"><use xlink:href="#i"/></mask><g mask="url(#j)"><path fill="#000" fill-rule="nonzero" d="M102.184 11.653H92.89s1.075-.225 3.101-.63c2.026-.404 2.708-1.57 3.49-1.426.784.145 2.015.797 2.703 2.056z"/><path fill="url(#f)" d="M10.184 2.653H.89s1.075-.225 3.101-.63C6.017 1.62 6.699.453 7.481.597c.784.145 2.015.797 2.703 2.056z" transform="translate(92 9)"/></g><mask id="l" fill="#fff"><use xlink:href="#k"/></mask><g mask="url(#l)"><path fill="#000" fill-rule="nonzero" d="M70.009 79.078C60.594 69.69 40.88 49.679 29.71 41.216c-4.227-3.202-4.781-2.875-9.22-5.272-8.35-4.506-26.638 25.88-26.638 25.88L-4.44 83.87s87.426 8.148 74.449-4.792z"/><path fill="url(#m)" fill-opacity=".54" d="M77.009 44.078C67.594 34.69 47.88 14.679 36.71 6.216c-4.227-3.202-4.781-2.875-9.22-5.272C19.14-3.562.852 26.824.852 26.824L2.56 48.87s87.426 8.148 74.449-4.792z" transform="translate(-7 35)"/></g><mask id="o" fill="#fff"><use xlink:href="#n"/></mask><g mask="url(#o)"><path fill="#000" fill-rule="nonzero" d="M56.02 55.326H8.88s19.091-3.039 25.96-5.271c6.869-2.233 10.186-6.478 16.74-5.272 6.555 1.206 4.44 10.543 4.44 10.543z"/><path fill="url(#f)" d="M48.02 11.326H.88S19.97 8.287 26.84 6.055C33.71 3.822 37.026-.423 43.58.783c6.555 1.206 4.44 10.543 4.44 10.543z" transform="translate(8 44)"/></g><mask id="q" fill="#fff"><use xlink:href="#p"/></mask><g mask="url(#q)"><path fill="#000" fill-rule="nonzero" d="M33.882 42.326h-9.294s1.076-.226 3.102-.63 2.708-1.57 3.49-1.426c.784.144 2.015.796 2.702 2.056z"/><path fill="url(#f)" d="M9.882 2.326H.588s1.076-.226 3.102-.63S6.398.126 7.18.27c.784.144 2.015.796 2.702 2.056z" transform="translate(24 40)"/></g><g><mask id="s" fill="#fff"><use xlink:href="#r"/></mask><g mask="url(#s)"><path fill="#000" fill-rule="nonzero" d="M71.789 14.107c1.47-3.446 10.172 1.424 18.368 5.715 8.197 4.292 49.519 56.86 49.519 56.86H19.466s44.396-43.986 52.323-62.575z"/><path fill="url(#m)" d="M52.789 2.107c1.47-3.446 10.172 1.424 18.368 5.715 8.197 4.292 49.519 56.86 49.519 56.86H.466S44.862 20.696 52.789 2.107z" transform="translate(19 12)"/></g></g><g fill-rule="nonzero" transform="translate(71.48 6.074)"><ellipse cx="18.25" cy="18.221" fill="#FFF" rx="18.25" ry="18.221"/><path fill="#B5007F" d="M25.647 11.665c-1.868-1.58-4.647-1.295-6.362.46l-.671.687-.672-.687c-1.711-1.755-4.493-2.04-6.362-.46-2.14 1.813-2.253 5.066-.337 7.03l6.597 6.758a1.075 1.075 0 0 0 1.544 0l6.597-6.757c1.92-1.965 1.807-5.218-.334-7.03z"/></g></g></g></g><path fill="#000" fill-opacity=".09" fill-rule="nonzero" d="M157.45 257.322c45.76 0 82.856-4.378 82.856-13.13S203.21 225.63 157.45 225.63c-45.761 0-82.857 9.811-82.857 18.563 0 8.752 37.096 13.13 82.857 13.13z"/><path fill="#D8D8D8" fill-rule="nonzero" d="M132.76 177h45.478a5.972 5.972 0 0 1 5.468 3.581l22.787 52.013c1.328 3.03-.044 6.567-3.063 7.9a5.955 5.955 0 0 1-2.404.506h-91.053c-3.299 0-5.973-2.683-5.973-5.993 0-.83.172-1.652.505-2.413l22.788-52.013A5.972 5.972 0 0 1 132.76 177z"/><path fill="#EBEBEB" fill-rule="nonzero" d="M0 172h310v26.362c0 3.666-2.941 6.638-6.57 6.638H6.57C2.94 205 0 202.028 0 198.362V172z"/><g fill-rule="nonzero"><path fill="#FFC44D" d="M74.92 73.86a7.828 7.828 0 0 0 5.655-5.658c.067-.27.415-.27.482 0a7.828 7.828 0 0 0 5.654 5.658c.27.067.27.414 0 .482a7.828 7.828 0 0 0-5.654 5.657c-.067.27-.415.27-.482 0a7.828 7.828 0 0 0-5.654-5.657c-.27-.068-.27-.415 0-.482"/><path fill="#FA0" d="M54.75 85.675a13.854 13.854 0 0 0 9.989-9.994c.126-.473.732-.473.848 0a13.794 13.794 0 0 0 9.99 9.985c.47.125.47.732 0 .848a13.854 13.854 0 0 0-9.99 9.995c-.126.472-.732.472-.848 0a13.854 13.854 0 0 0-9.99-9.995c-.472-.116-.472-.723 0-.839"/><path fill="#FFC44D" d="M72.33 100.571c7.32-1.85 13.081-7.623 14.94-14.948.173-.704 1.079-.704 1.262 0 1.85 7.325 7.62 13.088 14.94 14.948.704.174.704 1.08 0 1.263-7.32 1.85-13.081 7.623-14.94 14.948-.173.704-1.079.704-1.262 0-1.849-7.325-7.62-13.089-14.94-14.948-.704-.183-.704-1.09 0-1.263"/></g><path fill="#3E3D40" fill-rule="nonzero" d="M0 162h310v10H0z"/></g><g fill-rule="nonzero" transform="scale(-1 1) rotate(17 -483.76 -1085.44)"><path fill="#009EC0" d="M29.158 33.553c-1.127 0-2.114-.139-3.242-.556l-15.507-6.25c-4.37-1.805-6.344-6.666-4.652-10.833 1.832-4.306 6.766-6.25 10.996-4.584l15.507 6.25c4.37 1.806 6.344 6.667 4.652 10.834-1.269 3.195-4.37 5.139-7.754 5.139z"/><ellipse cx="40.918" cy="124.013" fill="#000" fill-opacity=".185" rx="40.883" ry="6.111"/><path fill="#009EC0" d="M61.917 32.288c-2.82 0-5.64-1.389-7.19-3.889l-9.868-15.556c-2.538-3.889-1.27-9.028 2.678-11.528 3.947-2.5 9.163-1.25 11.701 2.64l9.868 15.555c2.538 3.889 1.269 9.028-2.678 11.528a8.844 8.844 0 0 1-4.511 1.25z"/><path fill="#009EC0" d="M21.355 13.677c-2.115.834-12.265 9.862-10.574 35.14C12.473 73.54-9.942 69.512 7.116 99.373c3.665 6.528 48.213 16.806 56.249 11.945 2.397-1.389 30.31-51.529 18.327-84.863-3.948-10.972-27.35-26.667-60.337-12.778z"/><path fill="#009EC0" d="M7.573 77.557s-2.538 16.806-1.55 25.14c.986 8.333 3.242 12.917 4.792 12.083 1.692-.833 6.062-25.278 6.062-25.278L7.573 77.557zm63.506 15.13s-5.216 16.25-9.868 23.333c-4.511 7.084-8.74 10.14-9.868 8.75-1.128-1.388 6.062-25.278 6.062-25.278l13.674-6.805zm-44.81-79.81c7.472-3.75 27.631-2.5 36.935-3.89 4.935-.694 18.327 1.39 18.327 1.39l-5.78 2.916 7.895 1.25-4.37 3.612 1.691 6.944-1.269-.694L35.291 12.32l-9.022.556z"/><path fill="#00C6DB" d="M27.925 23.034c-8.036 5.278-3.101 68.612 2.538 75.557 9.163 11.111 30.45 8.75 33.27 2.917.986-2.223 24.952-45.557 13.674-75.419-2.82-7.777-21.569-21.389-49.482-3.055z"/><path fill="#363959" d="M41.771 36.609c.846.139 1.269.972 1.128 1.806l-.846 3.333c-.141.833-.987 1.25-1.833 1.111s-1.269-.972-1.128-1.805l.846-3.334c.282-.833 1.128-1.25 1.833-1.111zm30.072.676c.846.14 1.269.973 1.128 1.806l-.846 3.333c-.14.834-.987 1.25-1.832 1.111-.846-.138-1.27-.972-1.128-1.805l.846-3.334a1.41 1.41 0 0 1 1.832-1.11z"/><path fill="#009EC0" d="M40.596 49.437c-.423 0-.987 0-1.41-.139-3.383-.833-4.51-3.75-4.51-3.889-.283-.694.14-1.527.845-1.805s1.55.139 1.833.833c0 .14.705 1.667 2.537 2.084 1.833.416 3.102-.695 3.243-.834a1.377 1.377 0 0 1 1.973 0c.564.556.564 1.39 0 1.945-.282.278-1.832 1.805-4.51 1.805zm30.712-3.782c-.423 0-.987 0-1.41-.139-3.383-.833-4.51-3.75-4.51-3.889-.283-.694.14-1.528.845-1.805.705-.278 1.55.138 1.833.833 0 .139.705 1.667 2.537 2.083 1.833.417 3.243-.694 3.243-.694a1.377 1.377 0 0 1 1.973 0c.564.555.564 1.389 0 1.944-.281.14-1.973 1.667-4.51 1.667zM48.154 60.718c-.705 0-1.41-.555-1.41-1.25 0-.833.564-1.389 1.269-1.528 8.458-.694 16.494-2.36 17.34-3.61.986-1.529 1.127-3.75 1.127-3.89 0-.694.705-1.25 1.41-1.25s1.41.556 1.41 1.25c.14 1.25.564 3.195 1.128 3.89.986 1.25 2.255 1.25 2.255 1.25.846 0 1.41.555 1.55 1.25 0 .833-.563 1.388-1.268 1.527-.987 0-3.101-.278-4.652-2.222-.141-.139-.282-.417-.423-.556 0 .14-.141.14-.141.278-1.974 3.056-14.238 4.445-19.595 4.861z"/><g fill="#363959"><path d="M63.152 48.175c-1.128.695 5.075 3.75 5.92 3.75 1.27 0 7.472-2.638 7.19-4.722-.14-1.11-8.881-1.805-13.11.972z"/><path d="M69.073 53.314c-1.128 0-6.767-2.5-7.331-4.444-.141-.695 0-1.389.705-1.806 3.947-2.639 11.7-2.5 14.097-1.527.987.416 1.128.972 1.27 1.527.14.834-.283 1.667-.988 2.5-1.832 1.806-6.203 3.75-7.753 3.75zm-3.807-4.722c1.27.695 3.243 1.667 3.807 1.806 1.127-.14 4.229-1.528 5.357-2.64-1.833-.277-6.062-.416-9.164.834z"/></g><path fill="#FF1AD9" d="M50.204 60.238l-1.127 3.473c-.987 2.916.704 6.11 3.665 6.944 2.96.972 6.203-.694 7.049-3.611l2.82-8.75-12.407 1.944z"/><path fill="#E100BB" d="M61.897 60.507L49.47 62.498l.734-2.26 12.406-1.944z"/><path fill="#E100BB" d="M53.9 67.598h-.282c-.423-.139-.564-.556-.423-.833l2.115-6.39c.14-.416.564-.555.845-.416.423.139.564.555.423.833l-2.114 6.39c0 .277-.282.416-.564.416z"/><path fill="#009EC0" d="M23.077 56.755s.705 5.555 4.23 8.611c3.524 3.056-4.512 7.64-4.23 14.584.423 7.083 0-23.195 0-23.195z"/></g><path stroke="#009EC0" stroke-linecap="round" stroke-width="7.2" d="M278.504 178.65c-30.757 4.099-52.23 1.476-64.42-7.869"/><g><path fill="#E9FDFF" fill-rule="nonzero" stroke="#3E3D40" stroke-linecap="round" stroke-linejoin="round" stroke-width="10" d="M213 202h259v169H213z"/><path fill="#3E3D40" fill-rule="nonzero" d="M213 356h259v10H213z"/><path fill="#DDD" fill-rule="nonzero" d="M192 366h300v3.93c0 6.666-5.64 12.07-12.599 12.07H204.6C197.64 382 192 376.596 192 369.93V366z"/><g transform="translate(218 207)"><use fill="#CDE7FA" fill-rule="nonzero" xlink:href="#t"/><mask id="v" fill="#fff"><use xlink:href="#u"/></mask><g mask="url(#v)"><g fill-rule="nonzero"><path fill="#80C4CC" d="M-57.74-30.128H56.323V82.237H-57.74z"/><path fill="#90DCE5" d="M-57.74 47.313H56.323v34.924H-57.74z"/></g><g fill-rule="nonzero"><path fill="#80C4CC" d="M200.803-30.128h114.063V82.237H200.803z"/><path fill="#3E3D40" d="M237.793 19.721h-2.853a6.747 6.747 0 0 0-.994-2.38l2.024-2.025a1.358 1.358 0 0 0-1.92-1.92l-2.025 2.024a6.748 6.748 0 0 0-2.382-.996V11.57a1.358 1.358 0 0 0-2.717 0v2.853a6.748 6.748 0 0 0-2.38.994l-2.025-2.024a1.359 1.359 0 0 0-1.92 1.922l2.024 2.024a6.747 6.747 0 0 0-.996 2.381h-2.853a1.358 1.358 0 1 0 0 2.717h2.853a6.748 6.748 0 0 0 1.001 2.395c-.019.017-.043.023-.061.04l-1.97 1.97a1.358 1.358 0 1 0 1.921 1.92l1.97-1.969c.017-.018.024-.042.04-.061.726.486 1.54.826 2.396 1.002v2.853a1.358 1.358 0 1 0 2.717 0v-2.853a6.748 6.748 0 0 0 2.381-.994l2.024 2.024a1.358 1.358 0 0 0 1.92-1.92l-2.023-2.025c.482-.722.82-1.531.995-2.382h2.853a1.358 1.358 0 0 0 0-2.717zM224.21 21.08a4.075 4.075 0 1 1 8.15 0 4.075 4.075 0 0 1-8.15 0z"/><path fill="#80C4CC" d="M200.803 97.872h114.063v112.365H200.803z"/><path fill="#90DCE5" d="M200.803 47.313h114.063v34.924H200.803z"/></g><g fill-rule="nonzero"><path fill="#80C4CC" d="M-57.74 97.505H56.323V209.87H-57.74z"/><path fill="#5E5E5E" d="M-57.74 174.946H56.323v34.924H-57.74z"/></g><path fill="#5E5E5E" fill-rule="nonzero" d="M200.803 174.862h114.063v34.924H200.803z"/><g fill-rule="nonzero"><path fill="#80C4CC" d="M71.531 153.604h114.063v112.365H71.531z"/><path fill="#5E5E5E" d="M71.531 231.045h114.063v34.924H71.531z"/></g><g fill-rule="nonzero"><path fill="#545454" d="M71.531-101.495h114.063V10.87H71.531z"/><path fill="#90DCE5" d="M71.531-24.054h114.063V10.87H71.531z"/></g><g transform="translate(71.531 26.055)"><rect width="114.063" height="40.239" fill="#FFF" fill-rule="nonzero" rx="1.68" transform="translate(0 72.126)"/><path d="M27.64 95.523V85.448c0-.649.581-1.174 1.298-1.174.716 0 1.297.525 1.297 1.174v10.075l4.27-3.864a1.396 1.396 0 0 1 1.835 0 1.096 1.096 0 0 1 0 1.66l-6.485 5.867a1.396 1.396 0 0 1-1.834 0l-6.486-5.867a1.096 1.096 0 0 1 0-1.66 1.396 1.396 0 0 1 1.835 0l4.27 3.864zm-5.188 7.527c-.716 0-1.297-.525-1.297-1.173s.581-1.174 1.297-1.174h12.971c.716 0 1.297.526 1.297 1.174 0 .648-.58 1.173-1.297 1.173h-12.97zm55.11-7.177c0-.641.535-1.16 1.196-1.16.66 0 1.195.519 1.195 1.16v3.48c0 .641.534 1.16 1.195 1.16h9.56c.66 0 1.194-.519 1.194-1.16v-3.48c0-.641.534-1.16 1.195-1.16.66 0 1.195.519 1.195 1.16v4.64c0 1.28-1.07 2.32-2.39 2.32h-11.95c-1.319 0-2.39-1.04-2.39-2.32v-4.64zm9.56-7.63v8.822c0 .641-.535 1.16-1.195 1.16s-1.195-.519-1.195-1.16v-8.83l-2.748 2.668a1.22 1.22 0 0 1-1.69 0 1.136 1.136 0 0 1 0-1.64l4.79-4.65a1.22 1.22 0 0 1 1.69 0c.01.012.017.026.027.037l4.77 4.63a1.136 1.136 0 0 1 0 1.641 1.22 1.22 0 0 1-1.69 0l-2.759-2.678z" fill="#3E3D40" fill-rule="nonzero"/><path fill="url(#c)" fill-rule="nonzero" d="M0 0h114.063v76.682H0z"/><mask id="x" fill="#fff"><use xlink:href="#w"/></mask><g mask="url(#x)"><path fill="#000" fill-rule="nonzero" d="M38.423 31.198H3.757s4.012-.842 11.568-2.35c7.556-1.507 10.1-5.856 13.02-5.319 2.92.538 7.513 2.97 10.078 7.669z"/><path fill="url(#f)" d="M35.423 8.198H.757s4.012-.842 11.568-2.35C19.88 4.341 22.425-.008 25.345.53c2.92.538 7.513 2.97 10.078 7.669z" transform="translate(3 23)"/></g><mask id="z" fill="#fff"><use xlink:href="#y"/></mask><g mask="url(#z)"><path fill="#000" fill-rule="nonzero" d="M137.118 17.404H97.671s4.565-.957 13.163-2.673c8.598-1.715 11.493-6.664 14.816-6.052 3.324.611 8.55 3.38 11.468 8.725z"/><path fill="url(#f)" d="M40.118 9.404H.671s4.565-.957 13.163-2.673C22.433 5.016 25.327.067 28.65.68c3.324.611 8.55 3.38 11.468 8.725z" transform="translate(97 8)"/></g><mask id="B" fill="#fff"><use xlink:href="#A"/></mask><g mask="url(#B)"><path fill="#000" fill-rule="nonzero" d="M102.184 11.653H92.89s1.075-.225 3.101-.63c2.026-.404 2.708-1.57 3.49-1.426.784.145 2.015.797 2.703 2.056z"/><path fill="url(#f)" d="M10.184 2.653H.89s1.075-.225 3.101-.63C6.017 1.62 6.699.453 7.481.597c.784.145 2.015.797 2.703 2.056z" transform="translate(92 9)"/></g><mask id="D" fill="#fff"><use xlink:href="#C"/></mask><g mask="url(#D)"><path fill="#000" fill-rule="nonzero" d="M70.009 79.078C60.594 69.69 40.88 49.679 29.71 41.216c-4.227-3.202-4.781-2.875-9.22-5.272-8.35-4.506-26.638 25.88-26.638 25.88L-4.44 83.87s87.426 8.148 74.449-4.792z"/><path fill="url(#m)" fill-opacity=".54" d="M77.009 44.078C67.594 34.69 47.88 14.679 36.71 6.216c-4.227-3.202-4.781-2.875-9.22-5.272C19.14-3.562.852 26.824.852 26.824L2.56 48.87s87.426 8.148 74.449-4.792z" transform="translate(-7 35)"/></g><mask id="F" fill="#fff"><use xlink:href="#E"/></mask><g mask="url(#F)"><path fill="#000" fill-rule="nonzero" d="M56.02 55.326H8.88s19.091-3.039 25.96-5.271c6.869-2.233 10.186-6.478 16.74-5.272 6.555 1.206 4.44 10.543 4.44 10.543z"/><path fill="url(#f)" d="M48.02 11.326H.88S19.97 8.287 26.84 6.055C33.71 3.822 37.026-.423 43.58.783c6.555 1.206 4.44 10.543 4.44 10.543z" transform="translate(8 44)"/></g><mask id="H" fill="#fff"><use xlink:href="#G"/></mask><g mask="url(#H)"><path fill="#000" fill-rule="nonzero" d="M33.882 42.326h-9.294s1.076-.226 3.102-.63 2.708-1.57 3.49-1.426c.784.144 2.015.796 2.702 2.056z"/><path fill="url(#f)" d="M9.882 2.326H.588s1.076-.226 3.102-.63S6.398.126 7.18.27c.784.144 2.015.796 2.702 2.056z" transform="translate(24 40)"/></g><g><mask id="J" fill="#fff"><use xlink:href="#I"/></mask><g mask="url(#J)"><path fill="#000" fill-rule="nonzero" d="M71.789 14.107c1.47-3.446 10.172 1.424 18.368 5.715 8.197 4.292 49.519 56.86 49.519 56.86H19.466s44.396-43.986 52.323-62.575z"/><path fill="url(#m)" d="M52.789 2.107c1.47-3.446 10.172 1.424 18.368 5.715 8.197 4.292 49.519 56.86 49.519 56.86H.466S44.862 20.696 52.789 2.107z" transform="translate(19 12)"/></g></g><g fill-rule="nonzero" transform="translate(71.48 6.074)"><ellipse cx="18.25" cy="18.221" fill="#FFF" rx="18.25" ry="18.221"/><path fill="#555" stroke="#FFF" stroke-width="2" d="M33.63 44.527l2.864 7.46a2.996 2.996 0 0 1-1.722 3.878l-.09.035a3 3 0 0 1-3.874-1.73l-2.864-7.46-2.1.806c-1.703.654-3.214-.43-3.139-2.26l.591-14.375c.082-1.982 1.805-2.651 3.197-1.227L36.551 39.94c1.275 1.305.884 3.127-.821 3.781l-2.1.806z"/><path fill="#B5007F" d="M25.647 11.665c-1.868-1.58-4.647-1.295-6.362.46l-.671.687-.672-.687c-1.711-1.755-4.493-2.04-6.362-.46-2.14 1.813-2.253 5.066-.337 7.03l6.597 6.758a1.075 1.075 0 0 0 1.544 0l6.597-6.757c1.92-1.965 1.807-5.218-.334-7.03z"/></g></g><g fill-rule="nonzero"><path fill="#FFC44D" d="M194.18 97.365a7.828 7.828 0 0 0 5.655-5.658c.067-.27.415-.27.482 0a7.828 7.828 0 0 0 5.654 5.658c.27.067.27.414 0 .482a7.828 7.828 0 0 0-5.654 5.657c-.067.27-.415.27-.482 0a7.828 7.828 0 0 0-5.654-5.657c-.27-.068-.27-.415 0-.482"/><path fill="#FA0" d="M174.01 109.18a13.854 13.854 0 0 0 9.989-9.994c.126-.473.732-.473.848 0a13.794 13.794 0 0 0 9.99 9.985c.47.125.47.732 0 .848a13.854 13.854 0 0 0-9.99 9.995c-.126.472-.732.472-.848 0a13.854 13.854 0 0 0-9.99-9.995c-.472-.116-.472-.723 0-.839"/><path fill="#FFC44D" d="M191.59 124.076c7.32-1.85 13.081-7.623 14.94-14.948.173-.704 1.079-.704 1.262 0 1.85 7.325 7.62 13.088 14.94 14.948.704.174.704 1.08 0 1.263-7.32 1.85-13.081 7.623-14.94 14.948-.173.704-1.079.704-1.262 0-1.849-7.325-7.62-13.089-14.94-14.948-.704-.183-.704-1.09 0-1.263"/></g></g></g></g><path stroke="#009EC0" stroke-linecap="round" stroke-width="7.2" d="M333.982 166.962c-3.944 32.441-15.846 51.505-35.706 57.19"/></g></svg>