<svg width="79" height="79" xmlns="http://www.w3.org/2000/svg"><g fill="none"><path d="M6.31 17.613C14.052 6.387 27.613-.787 41.355.116c13.974.232 26.58 9.032 33.484 20.878-11.174 0-22.387-.517-33.536.529-7.458-.646-15.11 3.587-18.116 10.503-1.961 3.961-1.613 8.477-1.07 12.722-5.11-9.135-10.556-18.077-15.807-27.135z" fill="#DA4D40"/><path d="M4.413 57.548c-6.71-12.425-5.445-28.064 1.897-39.935 5.251 9.058 10.696 18 15.806 27.135 2.516 6.452 8.284 11.755 15.368 12.4 5.91.878 11.432-2.064 15.703-5.87-5.497 9.07-10.658 18.348-15.91 27.56-13.638-.941-26.658-8.993-32.864-21.29z" fill="#159F5C"/><path d="M44.98 21.82c9.988-.181 19.975.064 29.962-.155 5.497 11.483 5.432 25.78-.916 36.916-7.071 13.11-21.987 20.916-36.749 20.258 5.252-9.213 10.413-18.49 15.91-27.562 4.168-5.432 5.716-13.045 2.594-19.342-2.04-4.748-6.568-7.574-10.8-10.116z" fill="#FECB40"/><path d="M36.632 25.213c10.155-2.503 20.103 8.18 16.813 18.142-2.568 10.71-17.961 14.077-24.851 5.535-7.368-7.716-2.517-22.064 8.038-23.677z" fill="#4889F4"/></g></svg>