<svg width="318" height="30" viewBox="0 0 318 30" xmlns="http://www.w3.org/2000/svg"><title>landing-Screenshot-logo</title><g transform="translate(-1)" fill-rule="nonzero" fill="none"><rect fill="#00D1E6" x="293.18" y=".25" width="25.23" height="11.475" rx=".9"/><path d="M296.074 3.543h2.455c.36 0 .671.057.932.172.26.115.46.279.599.492.139.214.208.467.208.76 0 .197-.045.385-.134.561-.09.177-.212.323-.366.44a1.13 1.13 0 0 1-.515.217v.071c.243.018.463.089.659.212.196.122.349.284.459.484.11.2.165.422.165.665 0 .332-.078.62-.235.866a1.528 1.528 0 0 1-.673.567 2.47 2.47 0 0 1-1.033.2h-2.52V3.543zm2.058 2.365c.317 0 .56-.063.728-.19a.629.629 0 0 0 .253-.534c0-.23-.078-.408-.232-.536-.154-.128-.371-.192-.652-.192h-.98v1.452h.883zm.938 2.217c.179-.141.268-.345.268-.611 0-.261-.091-.46-.274-.596-.183-.135-.448-.203-.796-.203h-1.019v1.621h1.047c.337 0 .595-.07.774-.211zm2.473 1.125V3.543h3.719v1.02h-2.545v1.333h2.4v.945h-2.4V8.23h2.545v1.02h-3.72zm6.262-4.687h-1.685v-1.02h4.544v1.02h-1.685V9.25h-1.174V4.563zm4.449 3.326l-.432 1.361h-1.179l1.95-5.707h1.38l1.95 5.707h-1.273l-.424-1.36h-1.972zm1.723-.921l-.696-2.239h-.07l-.704 2.239h1.47z" fill="#FFF"/><path d="M40.148 3.232h12.755v3.54h-8.68v5.16h7.924v3.39h-7.923v7.711h-4.076V3.232zm15.694 1.99c-.423-.375-.634-.86-.634-1.455 0-.604.211-1.09.634-1.461.423-.37.986-.556 1.688-.556.701 0 1.264.185 1.687.556.423.37.634.857.634 1.461 0 .595-.214 1.08-.641 1.455-.427.375-.988.562-1.68.562-.702 0-1.265-.187-1.688-.562zm3.645 2.676v15.135h-3.928V7.898h3.928zm7.03 0v2.415h.242c.126-.503.374-.956.742-1.359.37-.402.82-.72 1.35-.953a4.247 4.247 0 0 1 1.728-.35c.288 0 .576.018.864.055.288.036.513.082.675.137v3.636c-.153-.064-.423-.121-.81-.171a8.23 8.23 0 0 0-1.053-.076c-.71 0-1.34.137-1.89.412a2.99 2.99 0 0 0-1.275 1.187c-.302.517-.452 1.123-.452 1.818v8.384H62.71V7.898h3.806zm19.203 13.29c-.612.7-1.394 1.237-2.348 1.612s-2.034.563-3.24.563c-1.502 0-2.794-.311-3.873-.933-1.08-.622-1.906-1.519-2.477-2.69-.572-1.17-.857-2.57-.857-4.199 0-1.628.288-3.042.864-4.24.575-1.199 1.401-2.12 2.476-2.765 1.076-.645 2.347-.968 3.813-.968 1.458 0 2.709.302 3.753.906 1.043.604 1.842 1.48 2.395 2.628.554 1.148.83 2.518.83 4.11v1.221H76.84v.206c.027 1.125.344 2.015.952 2.669.607.654 1.424.981 2.45.981.773 0 1.421-.135 1.943-.405s.886-.656 1.093-1.16h3.658a5.344 5.344 0 0 1-1.215 2.464zM78.48 11.033c-.472.27-.85.65-1.134 1.14-.283.489-.448 1.058-.493 1.708h6.344c-.045-1.007-.344-1.8-.897-2.381-.554-.581-1.29-.872-2.207-.872-.603 0-1.14.135-1.613.405zm9.79.158V8.049h2.402V6.567c0-1.5.437-2.596 1.31-3.287.872-.69 2.2-1.036 3.981-1.036.612 0 1.224.05 1.836.151v2.868a6.268 6.268 0 0 0-1.282-.11c-.693 0-1.2.144-1.519.432-.32.289-.48.74-.48 1.352V8.05h3.16v3.142h-3.078v11.842H90.67V11.191H88.27zm13.953 11.232c-1.098-.627-1.939-1.535-2.524-2.724-.585-1.19-.877-2.603-.877-4.24 0-1.62.295-3.022.884-4.206.59-1.185 1.435-2.095 2.538-2.731 1.102-.636 2.404-.954 3.907-.954 1.503 0 2.805.316 3.908.947 1.102.631 1.948 1.54 2.537 2.724.59 1.185.884 2.591.884 4.22 0 1.637-.292 3.05-.877 4.24-.585 1.19-1.426 2.097-2.524 2.724-1.098.626-2.407.94-3.928.94-1.52 0-2.83-.314-3.928-.94zm6.358-3.54c.575-.81.863-1.951.863-3.424 0-1.455-.29-2.59-.87-3.403-.58-.815-1.388-1.222-2.423-1.222-1.044 0-1.854.407-2.43 1.222-.575.814-.863 1.948-.863 3.403 0 1.473.285 2.614.857 3.423.571.81 1.383 1.215 2.436 1.215 1.044 0 1.854-.405 2.43-1.215zm9.634 4.15h-4.17l4.67-7.478-4.698-7.657h4.508l2.632 4.967h.243l2.632-4.967h4.293l-4.67 7.478 4.71 7.657h-4.373l-2.767-4.94h-.243l-2.767 4.94zm21.456-3.375c.44.512 1.02.905 1.74 1.18.72.274 1.54.412 2.457.412.864 0 1.642-.147 2.335-.44.693-.292 1.235-.697 1.627-1.214.391-.517.587-1.1.587-1.75 0-.841-.315-1.539-.945-2.092-.63-.554-1.615-1.004-2.956-1.352l-2.497-.659c-1.764-.448-3.046-1.097-3.847-1.948-.8-.851-1.2-1.98-1.2-3.39 0-1.107.287-2.088.863-2.943.576-.855 1.383-1.519 2.423-1.99 1.039-.471 2.238-.707 3.597-.707 1.242 0 2.364.234 3.367.7 1.004.467 1.807 1.116 2.41 1.949.603.832.935 1.775.998 2.827h-2.443c-.17-1.016-.645-1.81-1.424-2.381-.778-.572-1.774-.858-2.99-.858-.854 0-1.608.137-2.26.412-.652.274-1.156.663-1.512 1.166-.355.503-.533 1.084-.533 1.743 0 .778.29 1.409.87 1.894.581.485 1.542.9 2.882 1.248l2.039.55c1.358.347 2.45.763 3.273 1.248s1.426 1.075 1.808 1.77c.383.696.574 1.533.574 2.511 0 1.199-.297 2.249-.89 3.15-.595.9-1.438 1.594-2.532 2.079-1.093.485-2.377.727-3.853.727-1.368 0-2.583-.233-3.644-.7-1.062-.466-1.906-1.125-2.531-1.976-.626-.85-.979-1.839-1.06-2.964h2.457c.099.686.369 1.285.81 1.798zm22.652-8.803c-.652-.499-1.478-.748-2.476-.748-.864 0-1.618.224-2.261.672-.644.449-1.139 1.084-1.485 1.908-.346.823-.52 1.788-.52 2.895 0 1.125.176 2.109.527 2.95.35.842.848 1.492 1.491 1.95.644.456 1.393.685 2.248.685.98 0 1.797-.224 2.45-.672.652-.448 1.086-1.089 1.302-1.921h2.348a5.528 5.528 0 0 1-.998 2.442c-.522.714-1.217 1.272-2.086 1.674-.868.403-1.87.604-3.003.604-1.35 0-2.528-.315-3.536-.947-1.008-.63-1.784-1.527-2.329-2.69-.544-1.161-.816-2.52-.816-4.075 0-1.528.272-2.863.816-4.007.545-1.143 1.32-2.028 2.329-2.655 1.008-.627 2.182-.94 3.523-.94 1.142 0 2.15.213 3.023.638.873.425 1.57 1 2.092 1.722.522.723.85 1.533.985 2.43h-2.348a3.41 3.41 0 0 0-1.276-1.915zm8.521-2.614v2.195h.216c.144-.475.412-.899.803-1.269.392-.37.869-.661 1.431-.871a5.1 5.1 0 0 1 1.802-.316c.44 0 .828.023 1.16.069v2.36a4.844 4.844 0 0 0-.647-.09 9.002 9.002 0 0 0-.837-.047c-.729 0-1.383.153-1.964.46a3.41 3.41 0 0 0-1.363 1.282 3.538 3.538 0 0 0-.493 1.853v9.166h-2.321V8.241h2.213zm16.984 13.97c-1.075.722-2.405 1.083-3.988 1.083-1.332 0-2.493-.31-3.483-.933-.99-.622-1.75-1.51-2.28-2.662-.532-1.153-.797-2.502-.797-4.048 0-1.537.268-2.884.803-4.041.535-1.158 1.298-2.052 2.288-2.683.99-.631 2.146-.947 3.469-.947 1.295 0 2.418.3 3.367.899.95.599 1.678 1.459 2.187 2.58.508 1.12.762 2.44.762 3.959v.905h-10.46v.11c.036.97.232 1.814.587 2.532s.841 1.271 1.458 1.66c.616.389 1.334.583 2.153.583.935 0 1.718-.169 2.348-.507a3.166 3.166 0 0 0 1.404-1.496h2.321c-.35 1.28-1.064 2.282-2.139 3.005zm-6.067-11.603a3.958 3.958 0 0 0-1.444 1.523c-.36.654-.567 1.416-.621 2.285h8.017c-.018-.87-.19-1.63-.52-2.285a3.708 3.708 0 0 0-1.363-1.523c-.58-.362-1.253-.542-2.017-.542-.765 0-1.45.18-2.052.542zm21.114 11.602c-1.075.723-2.405 1.084-3.988 1.084-1.332 0-2.493-.31-3.483-.933-.99-.622-1.75-1.51-2.28-2.662-.532-1.153-.797-2.502-.797-4.048 0-1.537.267-2.884.803-4.041.535-1.158 1.298-2.052 2.288-2.683.99-.631 2.146-.947 3.469-.947 1.295 0 2.418.3 3.367.899.95.599 1.678 1.459 2.187 2.58.508 1.12.762 2.44.762 3.959v.905h-10.46v.11c.036.97.232 1.814.587 2.532s.841 1.271 1.458 1.66c.616.389 1.334.583 2.153.583.935 0 1.718-.169 2.348-.507a3.166 3.166 0 0 0 1.404-1.496h2.321c-.35 1.28-1.064 2.282-2.139 3.005zm-6.067-11.602a3.958 3.958 0 0 0-1.444 1.523c-.36.654-.567 1.416-.621 2.285h8.017c-.018-.87-.19-1.63-.52-2.285a3.708 3.708 0 0 0-1.363-1.523c-.58-.362-1.253-.542-2.017-.542-.765 0-1.45.18-2.052.542zm13.508-2.367v2.333h.216c.378-.842.93-1.485 1.654-1.928.724-.444 1.63-.666 2.72-.666 1.628 0 2.883.473 3.765 1.42.882.947 1.323 2.299 1.323 4.055v9.578h-2.322v-9.001c0-1.327-.28-2.313-.843-2.958s-1.424-.967-2.585-.967c-.774 0-1.447.167-2.018.5a3.374 3.374 0 0 0-1.33 1.449c-.314.63-.472 1.372-.472 2.223v8.754h-2.321V8.241h2.213zm13.542 1.852c.473-.658 1.123-1.175 1.95-1.55.828-.375 1.75-.563 2.768-.563 1.007 0 1.907.162 2.699.487.792.325 1.428.785 1.91 1.38.481.594.771 1.294.87 2.099h-2.294c-.162-.604-.52-1.082-1.073-1.434-.554-.352-1.262-.529-2.126-.529-.576 0-1.098.094-1.566.282-.468.187-.837.448-1.106.782-.27.334-.405.716-.405 1.146 0 .503.204.921.614 1.255.41.334 1.046.606 1.91.817l2.24.549c1.386.338 2.41.828 3.07 1.468.662.64.993 1.487.993 2.539a3.76 3.76 0 0 1-.763 2.319c-.508.677-1.205 1.205-2.092 1.585-.886.38-1.878.57-2.976.57-1.07 0-2.022-.166-2.855-.495-.832-.33-1.498-.798-1.997-1.406-.5-.609-.79-1.32-.87-2.134h2.388c.198.64.59 1.141 1.174 1.502.585.362 1.332.542 2.241.542.648 0 1.226-.098 1.734-.295.509-.196.907-.468 1.195-.816.288-.348.432-.746.432-1.194 0-1.006-.77-1.702-2.308-2.086l-2.497-.617c-1.377-.339-2.383-.826-3.017-1.462-.634-.636-.951-1.484-.951-2.545 0-.805.236-1.537.708-2.196zm15.81-7.725v8.206h.216a4.095 4.095 0 0 1 1.694-1.922c.76-.448 1.689-.672 2.787-.672 1.026 0 1.914.215 2.666.645.75.43 1.331 1.057 1.74 1.88.41.823.615 1.807.615 2.95v9.578h-2.322v-9.001c0-1.309-.283-2.29-.85-2.944-.567-.654-1.404-.981-2.51-.981-.855 0-1.584.171-2.187.515a3.376 3.376 0 0 0-1.377 1.461c-.315.631-.472 1.363-.472 2.196v8.754h-2.322V2.368h2.322zm15.62 20c-1.012-.618-1.788-1.5-2.328-2.649-.54-1.148-.81-2.508-.81-4.082 0-1.573.27-2.937.81-4.09.54-1.152 1.314-2.035 2.322-2.648 1.007-.613 2.2-.919 3.576-.919 1.377 0 2.57.306 3.577.92 1.008.612 1.782 1.495 2.322 2.648.54 1.152.81 2.516.81 4.09 0 1.573-.27 2.933-.81 4.081-.54 1.149-1.316 2.031-2.329 2.649-1.012.617-2.202.926-3.57.926-1.367 0-2.557-.309-3.57-.926zm6.756-2.649c.747-.965 1.12-2.325 1.12-4.082 0-1.756-.373-3.117-1.12-4.082-.747-.965-1.809-1.448-3.186-1.448-1.376 0-2.438.483-3.185 1.448-.747.965-1.12 2.326-1.12 4.082 0 1.757.373 3.117 1.12 4.082.747.966 1.809 1.448 3.185 1.448 1.377 0 2.439-.482 3.186-1.448zm9.715-11.478h3.24v1.976h-3.24v8.37c0 .87.171 1.5.513 1.894.342.393.89.59 1.647.59.333 0 .693-.018 1.08-.055v1.99a7.868 7.868 0 0 1-1.364.137c-1.007 0-1.817-.132-2.43-.398a2.592 2.592 0 0 1-1.342-1.262c-.284-.577-.425-1.34-.425-2.292v-8.974h-2.349V8.24h2.349V4.412h2.321v3.829zm6.105 1.852c.473-.658 1.123-1.175 1.95-1.55.828-.375 1.75-.563 2.767-.563 1.008 0 1.908.162 2.7.487.792.325 1.428.785 1.91 1.38.481.594.771 1.294.87 2.099h-2.294c-.162-.604-.52-1.082-1.073-1.434-.554-.352-1.262-.529-2.126-.529-.576 0-1.098.094-1.566.282-.468.187-.837.448-1.107.782s-.404.716-.404 1.146c0 .503.204.921.614 1.255.41.334 1.046.606 1.91.817l2.24.549c1.386.338 2.41.828 3.07 1.468.662.64.993 1.487.993 2.539a3.76 3.76 0 0 1-.763 2.319c-.508.677-1.205 1.205-2.092 1.585-.886.38-1.878.57-2.976.57-1.07 0-2.022-.166-2.855-.495-.832-.33-1.498-.798-1.997-1.406-.5-.609-.79-1.32-.87-2.134h2.388c.198.64.59 1.141 1.174 1.502.585.362 1.332.542 2.241.542.648 0 1.226-.098 1.734-.295.509-.196.907-.468 1.195-.816.288-.348.432-.746.432-1.194 0-1.006-.77-1.702-2.308-2.086l-2.497-.617c-1.377-.339-2.383-.826-3.017-1.462-.634-.636-.952-1.484-.952-2.545 0-.805.237-1.537.71-2.196zM9 0a4 4 0 0 0-4 4h4V0zm12 0h-4v4h4V0zm8 0v4h4a4 4 0 0 0-4-4zM15 0h-4v4h4V0zm12 0h-4v4h4V0zm2 10h4V6h-4v4zm0 12a4 4 0 0 0 4-4h-4v4zm0-6h4v-4h-4v4zm-.882-4.334a4 4 0 0 0-5.57-.984l-7.67 5.662-3.936-2.76c.031-.193.05-.388.058-.584a4.976 4.976 0 0 0-2-3.978V6H5v2.1a5 5 0 1 0 3.916 8.948l2.484 1.738-2.8 1.964a4.988 4.988 0 1 0 2.3 3.266l17.218-12.35zM6 15.5a2.5 2.5 0 1 1 0-5 2.5 2.5 0 0 1 0 5zm0 12a2.5 2.5 0 1 1 0-5 2.5 2.5 0 0 1 0 5zm10.8-4.858l6.034 4.6a4 4 0 0 0 5.57-.984L20.28 20.2l-3.48 2.442z" fill="#313131"/></g></svg>