<?xml version="1.0" encoding="UTF-8" standalone="no"?>
<svg width="79px" height="79px" viewBox="0 0 79 79" version="1.1" xmlns="http://www.w3.org/2000/svg">
    <!-- Generator: Sketch 43.2 (39069) - http://www.bohemiancoding.com/sketch -->
    <title>Google_Chrome</title>
    <desc>Created with Sketch.</desc>
    <defs></defs>
    <g id="Landing-page" stroke="none" stroke-width="1" fill="none" fill-rule="evenodd">
        <g id="Landing-Page_Desktop" transform="translate(-462.000000, -3503.000000)" fill-rule="nonzero">
            <g id="Google_Chrome" transform="translate(462.000000, 3503.000000)">
                <g id="#da4d40ff" transform="translate(6.186931, 0.000000)" fill="#DA4D40">
                    <path d="M0.122746071,17.6129032 C7.86468156,6.38709677 21.4259719,-0.787096774 35.1679074,0.116129032 C49.1421009,0.348387097 61.7485525,9.1483871 68.6517783,20.9935484 C57.4775848,20.9935484 46.2646816,20.4774194 35.1162945,21.5225806 C27.6582299,20.8774194 20.006617,25.1096774 17.0001654,32.0258065 C15.0388751,35.9870968 15.3872622,40.5032258 15.9291977,44.7483871 C10.8195203,35.6129032 5.37435897,26.6709677 0.122746071,17.6129032 Z" id="Shape"></path>
                </g>
                <g id="#159f5cff" transform="translate(0.000000, 16.774194)" fill="#159F5C">
                    <path d="M4.41290323,40.7741935 C-2.29677419,28.3483871 -1.03225806,12.7096774 6.30967742,0.838709677 C11.5612903,9.89677419 17.0064516,18.8387097 22.116129,27.9741935 C24.6322581,34.4258065 30.4,39.7290323 37.483871,40.3741935 C43.3935484,41.2516129 48.916129,38.3096774 53.1870968,34.5032258 C47.6903226,43.5741935 42.5290323,52.8516129 37.2774194,62.0645161 C23.6387097,61.1225806 10.6193548,53.0709677 4.41290323,40.7741935 Z" id="Shape"></path>
                </g>
                <g id="#fecb40ff" transform="translate(37.154673, 20.645161)" fill="#FECB40">
                    <path d="M7.82597188,1.17419355 C17.8130687,0.993548387 27.8001654,1.23870968 37.7872622,1.01935484 C43.2840364,12.5032258 43.2195203,26.8 36.8711332,37.9354839 C29.8001654,51.0451613 14.8840364,58.8516129 0.122746071,58.1935484 C5.37435897,48.9806452 10.5356493,39.7032258 16.0324235,30.6322581 C20.2001654,25.2 21.7485525,17.5870968 18.6259719,11.2903226 C16.5872622,6.54193548 12.0582299,3.71612903 7.82597188,1.17419355 Z" id="Shape"></path>
                </g>
                <g id="#4889f4ff" transform="translate(24.516129, 24.516129)" fill="#4889F4">
                    <path d="M12.116129,0.696774194 C22.2709677,-1.80645161 32.2193548,8.87741935 28.9290323,18.8387097 C26.3612903,29.5483871 10.9677419,32.916129 4.07741935,24.3741935 C-3.29032258,16.6580645 1.56129032,2.30967742 12.116129,0.696774194 Z" id="Shape"></path>
                </g>
            </g>
        </g>
    </g>
</svg>