<?xml version="1.0" encoding="UTF-8" standalone="no"?>
<svg width="37px" height="37px" viewBox="0 0 37 37" version="1.1" xmlns="http://www.w3.org/2000/svg">
    <!-- Generator: Sketch 43.2 (39069) - http://www.bohemiancoding.com/sketch -->
    <title>icon-Twitter</title>
    <desc>Created with Sketch.</desc>
    <defs></defs>
    <g id="Landing-page" stroke="none" stroke-width="1" fill="none" fill-rule="evenodd">
        <g id="Landing-Page_Desktop" transform="translate(-1221.000000, -3752.000000)" fill="#4A4A4A">
            <g id="Footer" transform="translate(0.000000, 3717.000000)">
                <g id="Group" transform="translate(222.000000, 35.000000)">
                    <path d="M1032.53125,0 L1002.46875,0 C1000.55301,-1.17305104e-16 999,1.55301227 999,3.46875 L999,33.53125 C999,35.4469877 1000.55301,37 1002.46875,37 L1032.53125,37 C1034.44699,37 1036,35.4469877 1036,33.53125 L1036,3.46875 C1036,1.55301227 1034.44699,1.17305104e-16 1032.53125,0 Z M1026.75,13.7825 L1026.75,14.3991667 C1026.76218,19.3457393 1024.066,23.9022237 1019.72427,26.2724849 C1015.38255,28.642746 1010.09176,28.4465554 1005.9375,25.76125 C1006.31232,25.7831417 1006.6881,25.7831417 1007.06292,25.76125 C1009.19857,25.7621366 1011.27259,25.0454592 1012.95208,23.72625 C1010.94429,23.6958192 1009.1727,22.4057077 1008.5275,20.5041667 C1008.82195,20.5632996 1009.12135,20.5942726 1009.42167,20.5966667 C1009.81829,20.5960409 1010.21281,20.53894 1010.59333,20.4270833 C1008.37112,19.9920692 1006.75325,18.0660275 1006.70833,15.8020833 L1006.70833,15.8020833 C1006.70833,16.1566667 1008.1575,16.3725 1008.94375,16.3879167 C1006.87375,14.9793901 1006.25889,12.2023512 1007.54083,10.0516667 C1009.95287,13.0192094 1013.51109,14.823539 1017.33042,15.0158333 C1016.83396,12.9195651 1017.81091,10.7517423 1019.71022,9.73515981 C1021.60953,8.7185773 1023.95522,9.10799268 1025.42417,10.68375 C1026.51135,10.4805212 1027.55476,10.0892425 1028.5075,9.5275 C1028.15355,10.6240713 1027.41414,11.5551851 1026.42625,12.1483333 C1027.36775,12.0396633 1028.28759,11.7902148 1029.155,11.4083333 C1028.49921,12.3350155 1027.68507,13.138724 1026.75,13.7825 L1026.75,13.7825 Z" id="icon-Twitter"></path>
                </g>
            </g>
        </g>
    </g>
</svg>