<?xml version="1.0" encoding="utf-8"?>
<!DOCTYPE svg PUBLIC "-//W3C//DTD SVG 1.1//EN" "http://www.w3.org/Graphics/SVG/1.1/DTD/svg11.dtd">

<!-- This Source Code Form is subject to the terms of the Mozilla Public
   - License, v. 2.0. If a copy of the MPL was not distributed with this
   - file, You can obtain one at http://mozilla.org/MPL/2.0/. -->

<svg version="1.1"
     xmlns="http://www.w3.org/2000/svg"
     xmlns:xlink="http://www.w3.org/1999/xlink"
     width="16"
     height="16"
     viewBox="0 0 16 16"
     fill="#4d4d4d">

  <path d="M12,12 L16,12 L16,14 C16,15.1045695 15.1122704,16 14,16 L12,16 L12,12 L12,12 Z M6,13.0093689 C6,12.4519098 6.44335318,12 7.0093689,12 L8.9906311,12 C9.54809015,12 10,12.4433532 10,13.0093689 L10,14.9906311 C10,15.5480902 9.55664682,16 8.9906311,16 L7.0093689,16 C6.45190985,16 6,15.5566468 6,14.9906311 L6,13.0093689 L6,13.0093689 Z M0,12 L4,12 L4,16 L2,16 C0.8954305,16 0,15.1122704 0,14 L0,12 L0,12 Z M12,6 L16,6 L16,10 L12,10 L12,6 L12,6 Z M6,6 L10,6 L10,10 L6,10 L6,6 L6,6 Z M0,6 L4,6 L4,10 L0,10 L0,6 L0,6 Z M12,0 L14,0 C15.1045695,0 16,0.887729645 16,2 L16,4 L12,4 L12,0 L12,0 Z M6,0 L10,0 L10,4 L6,4 L6,0 L6,0 Z M0,2 C0,0.8954305 0.887729645,0 2,0 L4,0 L4,4 L0,4 L0,2 L0,2 Z"/>

</svg>
