<?xml version="1.0" encoding="utf-8"?>
<!-- Generator: Adobe Illustrator 20.0.0, SVG Export Plug-In . SVG Version: 6.00 Build 0)  -->
<svg version="1.1" id="Layer_1" xmlns="http://www.w3.org/2000/svg" xmlns:xlink="http://www.w3.org/1999/xlink" x="0px" y="0px"
	 viewBox="0 0 16 16" style="enable-background:new 0 0 16 16;" xml:space="preserve">
<style type="text/css">
	.st0{fill:#4D4D4D;}
</style>
<path class="st0" d="M12,12h4v2c0,1.1-0.9,2-2,2h-2V12L12,12z M0,12h4v4H2c-1.1,0-2-0.9-2-2V12L0,12z M12,6h4v4h-4V6L12,6z M6,6h4v4
	H6V6L6,6z M0,6h4v4H0V6L0,6z M12,0h2c1.1,0,2,0.9,2,2v2h-4V0L12,0z M6,0h4v4H6V0L6,0z M6,12h4v4H6V12L6,12z M0,2c0-1.1,0.9-2,2-2h2
	v4H0V2L0,2z"/>
</svg>
