<?xml version="1.0" encoding="utf-8"?>
<!-- Generator: Adobe Illustrator 20.1.0, SVG Export Plug-In . SVG Version: 6.00 Build 0)  -->
<svg version="1.1" id="Layer_1" xmlns="http://www.w3.org/2000/svg" xmlns:xlink="http://www.w3.org/1999/xlink" x="0px" y="0px"
	 viewBox="0 0 350 270" style="enable-background:new 0 0 350 270;" xml:space="preserve">
<style type="text/css">
	.st0{clip-path:url(#SVGID_2_);}
	.st1{clip-path:url(#SVGID_4_);fill:#D8D8D8;}
	.st2{fill:#D8D8D8;}
	.st3{fill:#040000;}
	.st4{display:none;fill:#D8D8D8;}
</style>
<g>
	<g>
		<defs>
			<path id="SVGID_1_" d="M510.1,95.2c22.4,0,40.6-18.2,40.6-40.6c0-22.4-18.2-40.6-40.6-40.6c-22.4,0-40.6,18.2-40.6,40.6
				C469.5,77,487.7,95.2,510.1,95.2z M540.7,91.5c-8.3,6.9-19,11.1-30.7,11.1c-26.5,0-48-21.5-48-48s21.5-48,48-48
				c26.5,0,48,21.5,48,48c0,11.7-4.2,22.3-11.1,30.7l29.3,29.3c1.7,1.7,1.7,4.5,0,6.3c-1.7,1.7-4.5,1.7-6.3,0L540.7,91.5z"/>
		</defs>
		<clipPath id="SVGID_2_">
			<use xlink:href="#SVGID_1_"  style="overflow:visible;"/>
		</clipPath>
		<g class="st0">
			<defs>
				<rect id="SVGID_3_" x="207.4" y="-190.5" width="605.3" height="466.5"/>
			</defs>
			<clipPath id="SVGID_4_">
				<use xlink:href="#SVGID_3_"  style="overflow:visible;"/>
			</clipPath>
			<rect x="458.4" y="2.9" class="st1" width="122.9" height="122.9"/>
		</g>
	</g>
	<g>
		<path class="st2" d="M469.7,142.4c0,0-0.8-27.2,3.4-31.9l3.6,5.6V113c0,0,3.4,7.6,5.3,14.9c0,0,28.6-3.4,43.2-1.4
			c0,0,2-9.8,2.8-14.3l1,3.1c0,0,1.4-9,2.4-14c0,0,5.3,8.8,6.6,18.1l0.6-2.9c0,0,2,10.1,2.2,18.1c0,0,8.1-0.3,10.2,0.1l-7.1,3.2
			c0,0,14.7-0.1,19.6,4.6c0,0-3.2,0.8-5,2.2h2.5c0,0-3.1,2.9-9.9,4.2l5,2.2c0,0-5.9,3.6-7.7,3.6h4.2c0,0-5.9,3.6-9.9,3.9
			c0,0,0.8,28.9,1.4,37.3c0,0,2.1,9,12.3,0c10.2-9,21.4-18.4,26.3-24.5c0,0-1.4,7.3-5.2,14.2c0,0,4.6-5.5,8.1-12.6
			c3.5-7.1,8.1-19.9,22.7-25.1c14.6-5.2,27.5-6.4,27.5-6.4s-10.9,5.7-18.1,12.6c0,0,31.9-14.7,42.9-11.2
			c10.9,3.5,33.2,15.3,33.2,15.3s-40.6-5-58.7,4.8c0,0,18.6,0.4,30.3,10.4c0,0-33.1-4.5-42,1.4c-9,5.9-26.6,23.7-26.6,23.7
			s8.5-2.8,22.1-13c0,0,1.3,17.7-16.7,24.9c-17.9,7.3-34.5,12.2-34.5,12.2s14.2,1.8,26.9-4.8c0,0-19.1,21.9-53.9,14.6l-0.4,8.7h7.6
			c0,0,2,0.8,0.6,4.1s-13.3,1.4-13.3,1.4s-1,0.4-1-4.5c0-4.9,0.4-13,0.4-13s-31,2.5-45.3,2.8l0.4,13.5c0,0,0.4,1.9-1.7,1.8
			c-2.1-0.1-11.5,0-11.5,0s-1.8-2.5-0.1-4.9s5.9,0,5.9,0l-0.8-9.4c0,0-8.8-23.5-11.7-67c0,0-4.6,0-6.9-0.4l1.8-1
			c0,0-7.3-1.4-10.2-2.2l2.5-0.3l-6.2-3.4l10.5-2c0,0-11.1-2.2-15.4-5.7l13.9-1.8c0,0-7.4-1.4-9.4-2.7
			C450.2,146.2,461.8,143.7,469.7,142.4z"/>
		<path class="st2" d="M471.8,179.3c0,0-13.6,0.3-16.7,1.8c-3.1,1.5-7,2.1-5.9,10.8c1.1,8.7,1.3,16.5,2.4,17.8s8.8,1,8.8,1
			s2.5-2.8,3.4-4.5l2.5-1.1c0,0,1.8-2.7,0.1-5.3s-4.5-1.5-4.5-1.5l-0.4-10.5c0,0,1.4-2.3,9.8-2.9
			C479.7,184.3,471.8,179.3,471.8,179.3z"/>
		<path class="st2" d="M535.1,174.5c0,0,25.9-6.3,32.1-14.8s5.5-22.2,3.2-34.9c0,0-9.3-0.9-12.9-2.6s-3-11.3-3-11.3s1.9-3.2,5.6-4.2
			l-0.3-10.4l5.7-2.6l3,2l1.8-2.6c0,0,6.3-1.3,8.5,0.2c2.3,1.5,1.9,2.5,1.9,2.5l1.4-2.7c0,0,4,1.2,4.8,2.4
			c0.8,1.2,4.3,10.7,3.7,14.2c-0.6,3.5-1.6,39-17.5,54.8c0,0-10.1,9.1-38.9,15.5C534.2,179.9,527.3,179.1,535.1,174.5z"/>
	</g>
	<path class="st2" d="M423.5,246.9c0,0,154.9-9.5,195.7,3.4h-49.5l23.9,5.2c0,0-23.9,2.1-52.1,10.4l47.3,2.4c0,0-48.7,0-57.8,0
		l16.7-9.4l-33.1-3c0,0,7.3-2.9,12.9-3.9C527.6,252,462.1,249.6,423.5,246.9z"/>
	<path class="st2" d="M506.6,21.3v12c0,0,19.2,6,24.8,15.7c5.5,9.7-1.5,23-1.5,23l3.6,4.7l9.7-15.1c0,0,0.5-9.7-4.4-23
		s-23-19.8-23-19.8S514,18.2,506.6,21.3z"/>
	<path class="st2" d="M527,79.3l1.6,3.1c0,0-2.1,6-3.6,6s-5.1-2.6-5.1-2.6L527,79.3z"/>
</g>
<path class="st3" d="M206.3,229.6c11.3-6.4,14.3-13.4,15.3-9.7c0.6,2.5-4.1,10.8-4.1,10.8c-0.4,4.9,0.6,4.5,0.6,4.5
	s11.7,2.7,13.4-0.4s-0.2-4.1-0.2-4.1l-7.5-0.6l4.1-6.8c9.8-24.4-10.5-13.6-10.5-13.6c0-11.6,0-41.4,0-41.4
	c4.1-0.1,10.1-3.4,10.1-3.4l-4.2-0.2c1.8,0.1,7.9-3.2,7.9-3.2l-4.9-2.5c6.9-0.9,10.2-3.7,10.2-3.7l-2.5-0.1c1.9-1.3,5.2-2,5.2-2
	c-4.6-5-19.3-5.7-19.3-5.7l7.3-2.8c-2.1-0.5-10.2-0.7-10.2-0.7c0.2-8-1.3-18.2-1.3-18.2l-0.7,2.9c-0.8-9.3-5.6-18.4-5.6-18.4
	c-1.3,5-3.1,13.9-3.1,13.9l-0.8-3.1c-1.1,4.4-3.6,14.1-3.6,14.1c-14.4-2.7-43.2-0.9-43.2-0.9c-1.6-7.4-4.5-15.1-4.5-15.1l-0.2,3.1
	l-3.3-5.8c-4.5,4.5-5.1,31.7-5.1,31.7c-7.9,0.8-19.7,2.7-19.7,2.7c1.9,1.4,9.2,3.2,9.2,3.2l-13.9,1.1c4.1,3.7,15.1,6.6,15.1,6.6
	l-10.6,1.4l6,3.7l-2.5,0.1c2.9,1,10.1,2.8,10.1,2.8l-1.9,0.9c2.4,0.5,6.9,0.8,6.9,0.8C144.5,215,152,239,152,239l0.3,9.4
	c0,0-4.1-2.6-5.9-0.3c-1.8,2.3-0.1,4.9-0.1,4.9s9.4,0.4,11.5,0.6s1.8-1.7,1.8-1.7l0.3-13.5C159.9,238.5,187.8,239.6,206.3,229.6z"/>
<path class="st4" d="M-147.8,199.4c0,0,2.1,9,12.3,0c10.2-9,21.4-18.4,26.3-24.5c0,0-1.4,7.3-5.2,14.2c0,0,4.6-5.5,8.1-12.6
	c3.5-7.1,8.1-19.9,22.7-25.1c14.6-5.2,27.5-6.4,27.5-6.4s-10.9,5.7-18.1,12.6c0,0,31.9-14.7,42.9-11.2S2,161.6,2,161.6
	s-40.6-5-58.7,4.8c0,0,18.6,0.4,30.3,10.4c0,0-33.1-4.5-42,1.4s-26.6,23.7-26.6,23.7s8.5-2.8,22.1-13c0,0,1.3,17.7-16.7,24.9
	c-17.9,7.3-34.5,12.2-34.5,12.2s14.2,1.8,26.9-4.8c0,0-19.1,21.9-53.9,14.6"/>
<path class="st3" d="M114.3,162c0,0,3,0.2,3.8-2.8s-1.7-5-1.7-5l-2.7-0.3c-1.3-1.4-4.6-3.3-4.6-3.3s-7.4,2-8.1,3.5
	c0,0-6.3,4.5-0.1,16.4c10.6,20.4,46.2,22.7,46.2,22.7s8.5-4.7,2.6-5.8C121.8,182,111.5,163.3,114.3,162z"/>
<g>
	<polygon class="st3" points="50.1,130.3 51.4,126.5 83.1,119.3 111.4,139.5 113.2,148.4 81.8,124.6 	"/>
	<polygon class="st3" points="38.3,134.6 81.9,131.5 110.9,155.6 113.2,168.4 81.4,139 	"/>
	<polygon class="st3" points="39.3,139.3 65,140.1 81.5,144.3 109.9,170 101.2,172.4 82.1,155.9 55,142.4 	"/>
	<polygon class="st3" points="32.3,142 51.1,145 78.9,158.2 92.8,169.8 84.6,171.9 52.8,153.3 28.1,149.5 	"/>
	<polygon class="st3" points="26.7,152.3 38.7,152.6 55.8,159.3 67.9,167 66.9,174.6 40.1,160.6 23.2,162.3 	"/>
	<polygon class="st3" points="22.1,166.7 40.7,164 55.4,171.9 48.7,176.1 33,167.9 23.7,168.6 	"/>
	<polygon class="st3" points="22.2,171.5 31.4,172.2 39.3,176.6 35.2,180.1 24.8,173.5 	"/>
</g>
<g>
	<polygon class="st3" points="74.2,182.2 77.9,182.6 88.6,188.9 98.4,194.8 99.8,199 85.7,192.7 	"/>
	<polygon class="st3" points="59.6,182.2 68.7,181 92.6,201.7 96,231.3 90.2,235.3 92.3,229.6 87.7,203.8 	"/>
	<polygon class="st3" points="57.2,183.7 84.4,206.3 87.3,229.6 81.8,226.6 80.5,208.3 	"/>
	<path class="st3" d="M47.9,182.1c0.4,0,7.7,3.1,7.7,3.1l20.2,23.6l1.6,13.1l-5.3-3.7l-4.4-12.4L47.9,182.1z"/>
	<polygon class="st3" points="45,183.5 64.9,209 40.3,186.7 38.1,185.7 	"/>
</g>
<g>
	<path class="st3" d="M36.2,100.5l6.7-6.8l29.9,17.7l-8.5,1.9C64.2,113.3,41.5,102.7,36.2,100.5z"/>
	<polygon class="st3" points="32.2,107.3 64.6,117.3 53.9,120.3 29.9,113.9 	"/>
	<polygon class="st3" points="48.2,89.6 53.8,84.7 85.1,109 75.2,108.6 	"/>
	<path class="st3" d="M58.7,80.9c0.4-0.2,6.4-2.8,6.4-2.8l23.8,20l-9.2,2L58.7,80.9z"/>
	<polygon class="st3" points="70.9,74.4 80.2,73 96.6,93.7 85.2,88.3 	"/>
	<polygon class="st3" points="85.8,72.4 92.9,71.8 108.1,92.5 92.3,80.1 	"/>
	<path class="st3" d="M95.3,69.5c0.3,0,10.5-1.9,10.5-1.9l14.9,15.5l-4.3,7.6L95.3,69.5z"/>
	<polygon class="st3" points="110.7,66.4 115.2,65 131.7,72.5 124.2,76.6 	"/>
	<polygon class="st3" points="123.7,66 132.3,62.8 142.4,70.3 	"/>
	<polygon class="st3" points="116.1,60.2 119.5,51.6 136.2,59.3 	"/>
	<polygon class="st3" points="111.8,62.9 115.4,48.2 108,44 106.6,62.7 	"/>
	<polygon class="st3" points="100.8,64.4 94.4,66.2 97.3,42.7 101.9,43.2 	"/>
	<polygon class="st3" points="90.2,68 91.4,38.5 85.7,34.7 84.3,68.9 	"/>
	<polygon class="st3" points="79.4,69.5 79.9,31.7 73.6,32.8 68.2,71.5 	"/>
	<polygon class="st3" points="61.9,73.8 67.4,33.6 60.5,41.3 54.5,77.9 	"/>
	<polygon class="st3" points="50.4,81.7 54,52.5 45.5,64.7 42.6,87.9 	"/>
	<polygon class="st3" points="39.4,91.3 38.5,76.6 34.3,86.9 33.8,96.7 	"/>
</g>
<g>
	<polygon class="st3" points="314.7,78.2 315.1,74.2 289.7,53.9 255.4,59.7 250,66.9 288.6,59.3 	"/>
	<polygon class="st3" points="323.3,87.3 285.5,65.4 248.8,74.4 241.2,84.9 282.7,72.4 	"/>
	<polygon class="st3" points="320.4,91 296.9,80.5 280.2,77.1 243.5,87.8 250.2,93.8 274.6,87.2 304.9,87 	"/>
	<polygon class="st3" points="325.5,96.6 307.3,91 276.5,90.7 259,95.1 265.4,100.5 302.1,97.7 326,105.1 	"/>
	<polygon class="st3" points="326.1,108.3 315.1,103.3 296.8,101.9 282.6,103.5 280.2,110.8 310.3,109.8 324.9,118.8 	"/>
	<polygon class="st3" points="323.9,123.2 308.4,112.6 291.7,113.3 295.8,120.1 313.5,119.5 321.6,124.2 	"/>
	<polygon class="st3" points="321.7,127.5 313.1,124.1 304.1,124.6 306.3,129.5 318.4,128.1 	"/>
</g>
<g>
	<polygon class="st3" points="266.7,213.8 262.9,214.3 252.2,220.6 242.5,226.5 241.1,230.7 255.2,224.4 	"/>
	<polygon class="st3" points="281.3,213.9 272.1,212.7 248.3,233.3 244.9,263 250.7,267 248.6,261.3 253.2,235.5 	"/>
	<polygon class="st3" points="283.6,215.4 256.5,238 253.6,261.3 259.1,258.2 260.4,240 	"/>
	<path class="st3" d="M292.9,213.8c-0.4,0-7.7,3.1-7.7,3.1L265,240.5l-1.6,13.1l5.3-3.7l4.4-12.4L292.9,213.8z"/>
	<polygon class="st3" points="295.9,215.2 275.9,240.7 300.5,218.4 302.7,217.4 	"/>
</g>
<g>
	<path class="st3" d="M321.6,192.9l-6.7-6.8l-29.9,17.7l8.5,1.9C293.6,205.7,316.3,195.2,321.6,192.9z"/>
	<polygon class="st3" points="325.6,199.8 293.2,209.7 303.9,212.7 327.9,206.4 	"/>
	<polygon class="st3" points="309.6,182 304,177.1 272.7,201.4 282.6,201 	"/>
	<path class="st3" d="M299.1,173.4c-0.4-0.2-6.4-2.8-6.4-2.8l-23.8,20l9.2,2L299.1,173.4z"/>
	<polygon class="st3" points="286.8,166.8 277.5,165.5 261.2,186.1 272.6,180.8 	"/>
	<polygon class="st3" points="271.9,164.8 264.8,164.3 249.6,184.9 265.5,172.5 	"/>
	<path class="st3" d="M262.4,162c-0.3,0-10.5-1.9-10.5-1.9L237,175.6l4.3,7.6L262.4,162z"/>
	<polygon class="st3" points="247,158.9 242.6,157.4 226.1,164.9 233.5,169 	"/>
	<polygon class="st3" points="234,158.5 225.4,155.2 215.3,162.7 	"/>
	<polygon class="st3" points="241.6,152.6 238.2,144.1 221.5,151.8 	"/>
	<polygon class="st3" points="245.9,155.3 242.3,140.6 249.7,136.4 251.2,155.1 	"/>
	<polygon class="st3" points="257,156.9 263.4,158.7 260.5,135.1 255.9,135.7 	"/>
	<polygon class="st3" points="267.6,160.5 266.4,130.9 272.1,127.2 273.5,161.3 	"/>
	<polygon class="st3" points="278.4,161.9 277.8,124.1 284.1,125.3 289.6,164 	"/>
	<polygon class="st3" points="295.9,166.2 290.3,126.1 297.3,133.7 303.3,170.3 	"/>
	<polygon class="st3" points="307.4,174.1 303.7,144.9 312.3,157.1 315.1,180.3 	"/>
	<polygon class="st3" points="318.3,183.7 319.3,169.1 323.4,179.3 324,189.2 	"/>
</g>
<path class="st3" d="M239.8,143l0.1,3.5l5.1,2.3c0,0,8.3,3.7,1.9,15.3c-7.2,13.1-24.3,15.7-31.1,16.6c0,0-2.7,0.2-3,3.7
	c-0.3,3.5,1.5,4,1.5,4s29.1-5,39.1-16.4c12.9-14.7,16.8-26.7,14.4-35.6c-2.5-8.9-5-8.4-5-8.4l-14.2-2.1l-3.3,2.6
	c-0.4,0.3-0.6,0.8-0.5,1.3c0.3,2,0.8,6.9-1.1,7.7C241.3,138.7,239.5,137.2,239.8,143z"/>
<path class="st3" d="M141.6,211l-10.3-4.4c0,0-12-2.6-17.1-1.9l5.2,4.9c0,0-18.6,3.4-24.7,5.2c0,0,12.4,2.5,14,4.2
	c0,0-22.1,5.3-22.1,5.7c0,0.4-8.1,9.6-8.1,9.6l7.2-1.3c0,0-15.4,15.3-16.6,17.7l27.8-8.5l-7.2,9c0,0,15.2-0.7,16.8-2.2
	c1.5-1.5,8.8-10,8.8-10s-0.3,8.1-1.9,9.9c-1.7,1.7-7.4,5.4-7.4,5.4s11.8-2.9,13.2-3.8s10.2-11.9,10.2-11.9l-3.6,11
	c0,0,15.1-8.1,17.5-10.2s14.2-7.8,16.4-13.9S141.6,211,141.6,211z"/>
<polygon class="st3" points="199.5,256.5 218.2,254.9 222.2,247.4 221.7,251.6 227,246.7 234,244.7 225.6,252.2 236.3,249.2 
	243.7,250.2 226.5,254.3 235.8,254.3 225.2,256.5 "/>
<path class="st3" d="M141.3,254.8c0,0,4-1.4,20.7-0.5l-2.4-0.8l6.7-1.3h-7.1l-13.1,0.4c0,0-1.5-4.5-4.4-5.9l1.9,5.1l-6.4-2.7
	l-4.4-0.1c0,0,4,2.5,5.5,3.7l-6.7-1.3l5.6,2l-6.8,0.5l7.8,0.4l-4.8,3.3L141.3,254.8z"/>
</svg>
