<?xml version="1.0" encoding="utf-8"?>
<!-- Generator: Adobe Illustrator 20.1.0, SVG Export Plug-In . SVG Version: 6.00 Build 0)  -->
<svg version="1.1" id="Layer_1" xmlns="http://www.w3.org/2000/svg" xmlns:xlink="http://www.w3.org/1999/xlink" x="0px" y="0px"
	 viewBox="0 0 350 270" style="enable-background:new 0 0 350 270;" xml:space="preserve">
<style type="text/css">
	.st0{clip-path:url(#SVGID_2_);}
	.st1{clip-path:url(#SVGID_4_);}
	.st2{fill:#040000;}
	.st3{display:none;fill:#D8D8D8;}
</style>
<g>
	<g>
		<defs>
			<path id="SVGID_1_" d="M155.6,95.2c22.4,0,40.6-18.2,40.6-40.6c0-22.4-18.2-40.6-40.6-40.6S115,32.1,115,54.6
				C115,77,133.2,95.2,155.6,95.2z M186.2,91.5c-8.3,6.9-19,11.1-30.7,11.1c-26.5,0-48-21.5-48-48s21.5-48,48-48s48,21.5,48,48
				c0,11.7-4.2,22.3-11.1,30.7l29.3,29.3c1.7,1.7,1.7,4.5,0,6.3c-1.7,1.7-4.5,1.7-6.3,0L186.2,91.5z"/>
		</defs>
		<use xlink:href="#SVGID_1_"  style="overflow:visible;fill-rule:evenodd;clip-rule:evenodd;"/>
		<clipPath id="SVGID_2_">
			<use xlink:href="#SVGID_1_"  style="overflow:visible;"/>
		</clipPath>
		<g class="st0">
			<defs>
				<rect id="SVGID_3_" x="-147.1" y="-190.5" width="605.3" height="466.5"/>
			</defs>
			<use xlink:href="#SVGID_3_"  style="overflow:visible;"/>
			<clipPath id="SVGID_4_">
				<use xlink:href="#SVGID_3_"  style="overflow:visible;"/>
			</clipPath>
			<rect x="103.9" y="2.9" class="st1" width="122.9" height="122.9"/>
		</g>
	</g>
	<g>
		<path d="M115.2,142.4c0,0-0.8-27.2,3.4-31.9l3.6,5.6V113c0,0,3.4,7.6,5.3,14.9c0,0,28.6-3.4,43.2-1.4c0,0,2-9.8,2.8-14.3l1,3.1
			c0,0,1.4-9,2.4-14c0,0,5.3,8.8,6.6,18.1l0.6-2.9c0,0,2,10.1,2.2,18.1c0,0,8.1-0.3,10.2,0.1l-7.1,3.2c0,0,14.7-0.1,19.6,4.6
			c0,0-3.2,0.8-5,2.2h2.5c0,0-3.1,2.9-9.9,4.2l5,2.2c0,0-5.9,3.6-7.7,3.6h4.2c0,0-5.9,3.6-9.9,3.9c0,0,0.8,28.9,1.4,37.3
			c0,0,2.1,9,12.3,0c10.2-9,21.4-18.4,26.3-24.5c0,0-1.4,7.3-5.2,14.2c0,0,4.6-5.5,8.1-12.6c3.5-7.1,8.1-19.9,22.7-25.1
			s27.5-6.4,27.5-6.4s-10.9,5.7-18.1,12.6c0,0,31.9-14.7,42.9-11.2c10.9,3.5,33.2,15.3,33.2,15.3s-40.6-5-58.7,4.8
			c0,0,18.6,0.4,30.3,10.4c0,0-33.1-4.5-42,1.4c-9,5.9-26.6,23.7-26.6,23.7s8.5-2.8,22.1-13c0,0,1.3,17.7-16.7,24.9
			c-17.9,7.3-34.5,12.2-34.5,12.2s14.2,1.8,26.9-4.8c0,0-19.1,21.9-53.9,14.6l-0.4,8.7h7.6c0,0,2,0.8,0.6,4.1
			c-1.4,3.2-13.3,1.4-13.3,1.4s-1,0.4-1-4.5c0-4.9,0.4-13,0.4-13s-31,2.5-45.3,2.8l0.4,13.5c0,0,0.4,1.9-1.7,1.8
			c-2.1-0.1-11.5,0-11.5,0s-1.8-2.5-0.1-4.9c1.7-2.4,5.9,0,5.9,0l-0.8-9.4c0,0-8.8-23.5-11.7-67c0,0-4.6,0-6.9-0.4l1.8-1
			c0,0-7.3-1.4-10.2-2.2l2.5-0.3l-6.2-3.4l10.5-2c0,0-11.1-2.2-15.4-5.7l13.9-1.8c0,0-7.4-1.4-9.4-2.7
			C95.7,146.2,107.3,143.7,115.2,142.4z"/>
		<path d="M117.3,179.3c0,0-13.6,0.3-16.7,1.8c-3.1,1.5-7,2.1-5.9,10.8c1.1,8.7,1.3,16.5,2.4,17.8s8.8,1,8.8,1s2.5-2.8,3.4-4.5
			l2.5-1.1c0,0,1.8-2.7,0.1-5.3s-4.5-1.5-4.5-1.5l-0.4-10.5c0,0,1.4-2.3,9.8-2.9C125.2,184.3,117.3,179.3,117.3,179.3z"/>
		<path d="M180.6,174.5c0,0,25.9-6.3,32.1-14.8c6.1-8.5,5.5-22.2,3.2-34.9c0,0-9.3-0.9-12.9-2.6c-3.7-1.7-3-11.3-3-11.3
			s1.9-3.2,5.6-4.2l-0.3-10.4l5.7-2.6l3,2l1.8-2.6c0,0,6.3-1.3,8.5,0.2c2.3,1.5,1.9,2.5,1.9,2.5l1.4-2.7c0,0,4,1.2,4.8,2.4
			s4.3,10.7,3.7,14.2c-0.6,3.5-1.6,39-17.5,54.8c0,0-10.1,9.1-38.9,15.5C179.7,179.9,172.8,179.1,180.6,174.5z"/>
	</g>
	<path d="M69,246.9c0,0,154.9-9.5,195.7,3.4h-49.5l23.9,5.2c0,0-23.9,2.1-52.1,10.4l47.3,2.4c0,0-48.7,0-57.8,0l16.7-9.4l-33.1-3
		c0,0,7.3-2.9,12.9-3.9C173.1,252,107.6,249.6,69,246.9z"/>
	<path d="M152.1,21.3v12c0,0,19.2,6,24.8,15.7s-1.5,23-1.5,23l3.6,4.7l9.7-15.1c0,0,0.5-9.7-4.4-23c-5-13.3-23-19.8-23-19.8
		S159.5,18.2,152.1,21.3z"/>
	<path d="M172.5,79.3l1.6,3.1c0,0-2.1,6-3.6,6s-5.1-2.6-5.1-2.6L172.5,79.3z"/>
</g>
<path class="st2" d="M-175.7,229.6c11.3-6.4,14.3-13.4,15.3-9.7c0.6,2.5-4.1,10.8-4.1,10.8c-0.4,4.9,0.6,4.5,0.6,4.5
	s11.7,2.7,13.4-0.4s-0.2-4.1-0.2-4.1l-7.5-0.6l4.1-6.8c9.8-24.4-10.5-13.6-10.5-13.6c0-11.6,0-41.4,0-41.4
	c4.1-0.1,10.1-3.4,10.1-3.4l-4.2-0.2c1.8,0.1,7.9-3.2,7.9-3.2l-4.9-2.5c6.9-0.9,10.2-3.7,10.2-3.7l-2.5-0.1c1.9-1.3,5.2-2,5.2-2
	c-4.6-5-19.3-5.7-19.3-5.7l7.3-2.8c-2.1-0.5-10.2-0.7-10.2-0.7c0.2-8-1.3-18.2-1.3-18.2l-0.7,2.9c-0.8-9.3-5.6-18.4-5.6-18.4
	c-1.3,5-3.1,13.9-3.1,13.9l-0.8-3.1c-1.1,4.4-3.6,14.1-3.6,14.1c-14.4-2.7-43.2-0.9-43.2-0.9c-1.6-7.4-4.5-15.1-4.5-15.1l-0.2,3.1
	l-3.3-5.8c-4.5,4.5-5.1,31.7-5.1,31.7c-7.9,0.8-19.7,2.7-19.7,2.7c1.9,1.4,9.2,3.2,9.2,3.2l-13.9,1.1c4.1,3.7,15.1,6.6,15.1,6.6
	l-10.6,1.4l6,3.7l-2.5,0.1c2.9,1,10.1,2.8,10.1,2.8l-1.9,0.9c2.4,0.5,6.9,0.8,6.9,0.8c0.5,43.5,8.1,67.5,8.1,67.5l0.3,9.4
	c0,0-4.1-2.6-5.9-0.3c-1.8,2.3-0.1,4.9-0.1,4.9s9.4,0.4,11.5,0.6s1.8-1.7,1.8-1.7l0.3-13.5C-222.1,238.5-194.2,239.6-175.7,229.6z"
	/>
<path class="st3" d="M-147.8,199.4c0,0,2.1,9,12.3,0c10.2-9,21.4-18.4,26.3-24.5c0,0-1.4,7.3-5.2,14.2c0,0,4.6-5.5,8.1-12.6
	c3.5-7.1,8.1-19.9,22.7-25.1c14.6-5.2,27.5-6.4,27.5-6.4s-10.9,5.7-18.1,12.6c0,0,31.9-14.7,42.9-11.2S2,161.6,2,161.6
	s-40.6-5-58.7,4.8c0,0,18.6,0.4,30.3,10.4c0,0-33.1-4.5-42,1.4s-26.6,23.7-26.6,23.7s8.5-2.8,22.1-13c0,0,1.3,17.7-16.7,24.9
	c-17.9,7.3-34.5,12.2-34.5,12.2s14.2,1.8,26.9-4.8c0,0-19.1,21.9-53.9,14.6"/>
<path class="st2" d="M-267.7,162c0,0,3,0.2,3.8-2.8c0.8-3-1.7-5-1.7-5l-2.7-0.3c-1.3-1.4-4.6-3.3-4.6-3.3s-7.4,2-8.1,3.5
	c0,0-6.3,4.5-0.1,16.4c10.6,20.4,46.2,22.7,46.2,22.7s8.5-4.7,2.6-5.8C-260.2,182-270.5,163.3-267.7,162z"/>
<g>
	<polygon class="st2" points="-331.9,130.3 -330.6,126.5 -298.9,119.3 -270.6,139.5 -268.8,148.4 -300.2,124.6 	"/>
	<polygon class="st2" points="-343.7,134.6 -300.1,131.5 -271.1,155.6 -268.8,168.4 -300.6,139 	"/>
	<polygon class="st2" points="-342.7,139.3 -317,140.1 -300.5,144.3 -272.1,170 -280.8,172.4 -299.9,155.9 -327,142.4 	"/>
	<polygon class="st2" points="-349.7,142 -330.9,145 -303.1,158.2 -289.2,169.8 -297.4,171.9 -329.2,153.3 -353.9,149.5 	"/>
	<polygon class="st2" points="-355.3,152.3 -343.3,152.6 -326.2,159.3 -314.1,167 -315.1,174.6 -341.9,160.6 -358.8,162.3 	"/>
	<polygon class="st2" points="-359.9,166.7 -341.3,164 -326.6,171.9 -333.3,176.1 -349,167.9 -358.3,168.6 	"/>
	<polygon class="st2" points="-359.8,171.5 -350.6,172.2 -342.7,176.6 -346.8,180.1 -357.2,173.5 	"/>
</g>
<g>
	<polygon class="st2" points="-307.8,182.2 -304.1,182.6 -293.4,188.9 -283.6,194.8 -282.2,199 -296.3,192.7 	"/>
	<polygon class="st2" points="-322.4,182.2 -313.3,181 -289.4,201.7 -286,231.3 -291.8,235.3 -289.7,229.6 -294.3,203.8 	"/>
	<polygon class="st2" points="-324.8,183.7 -297.6,206.3 -294.7,229.6 -300.2,226.6 -301.5,208.3 	"/>
	<path class="st2" d="M-334.1,182.1c0.4,0,7.7,3.1,7.7,3.1l20.2,23.6l1.6,13.1l-5.3-3.7l-4.4-12.4L-334.1,182.1z"/>
	<polygon class="st2" points="-337,183.5 -317.1,209 -341.7,186.7 -343.9,185.7 	"/>
</g>
<g>
	<path class="st2" d="M-345.8,100.5l6.7-6.8l29.9,17.7l-8.5,1.9C-317.8,113.3-340.5,102.7-345.8,100.5z"/>
	<polygon class="st2" points="-349.8,107.3 -317.4,117.3 -328.1,120.3 -352.1,113.9 	"/>
	<polygon class="st2" points="-333.8,89.6 -328.2,84.7 -296.9,109 -306.8,108.6 	"/>
	<path class="st2" d="M-323.3,80.9c0.4-0.2,6.4-2.8,6.4-2.8l23.8,20l-9.2,2L-323.3,80.9z"/>
	<polygon class="st2" points="-311.1,74.4 -301.8,73 -285.4,93.7 -296.8,88.3 	"/>
	<polygon class="st2" points="-296.2,72.4 -289.1,71.8 -273.9,92.5 -289.7,80.1 	"/>
	<path class="st2" d="M-286.7,69.5c0.3,0,10.5-1.9,10.5-1.9l14.9,15.5l-4.3,7.6L-286.7,69.5z"/>
	<polygon class="st2" points="-271.3,66.4 -266.8,65 -250.3,72.5 -257.8,76.6 	"/>
	<polygon class="st2" points="-258.3,66 -249.7,62.8 -239.6,70.3 	"/>
	<polygon class="st2" points="-265.9,60.2 -262.5,51.6 -245.8,59.3 	"/>
	<polygon class="st2" points="-270.2,62.9 -266.6,48.2 -274,44 -275.4,62.7 	"/>
	<polygon class="st2" points="-281.2,64.4 -287.6,66.2 -284.7,42.7 -280.1,43.2 	"/>
	<polygon class="st2" points="-291.8,68 -290.6,38.5 -296.3,34.7 -297.7,68.9 	"/>
	<polygon class="st2" points="-302.6,69.5 -302.1,31.7 -308.4,32.8 -313.8,71.5 	"/>
	<polygon class="st2" points="-320.1,73.8 -314.6,33.6 -321.5,41.3 -327.5,77.9 	"/>
	<polygon class="st2" points="-331.6,81.7 -328,52.5 -336.5,64.7 -339.4,87.9 	"/>
	<polygon class="st2" points="-342.6,91.3 -343.5,76.6 -347.7,86.9 -348.2,96.7 	"/>
</g>
<g>
	<polygon class="st2" points="-67.3,78.2 -66.9,74.2 -92.3,53.9 -126.6,59.7 -132,66.9 -93.4,59.3 	"/>
	<polygon class="st2" points="-58.7,87.3 -96.5,65.4 -133.2,74.4 -140.8,84.9 -99.3,72.4 	"/>
	<polygon class="st2" points="-61.6,91 -85.1,80.5 -101.8,77.1 -138.5,87.8 -131.8,93.8 -107.4,87.2 -77.1,87 	"/>
	<polygon class="st2" points="-56.5,96.6 -74.7,91 -105.5,90.7 -123,95.1 -116.6,100.5 -79.9,97.7 -56,105.1 	"/>
	<polygon class="st2" points="-55.9,108.3 -66.9,103.3 -85.2,101.9 -99.4,103.5 -101.8,110.8 -71.7,109.8 -57.1,118.8 	"/>
	<polygon class="st2" points="-58.1,123.2 -73.6,112.6 -90.3,113.3 -86.2,120.1 -68.5,119.5 -60.4,124.2 	"/>
	<polygon class="st2" points="-60.3,127.5 -68.9,124.1 -77.9,124.6 -75.7,129.5 -63.6,128.1 	"/>
</g>
<g>
	<polygon class="st2" points="-115.3,213.8 -119.1,214.3 -129.8,220.6 -139.5,226.5 -140.9,230.7 -126.8,224.4 	"/>
	<polygon class="st2" points="-100.7,213.9 -109.9,212.7 -133.7,233.3 -137.1,263 -131.3,267 -133.4,261.3 -128.8,235.5 	"/>
	<polygon class="st2" points="-98.4,215.4 -125.5,238 -128.4,261.3 -122.9,258.2 -121.6,240 	"/>
	<path class="st2" d="M-89.1,213.8c-0.4,0-7.7,3.1-7.7,3.1l-20.2,23.6l-1.6,13.1l5.3-3.7l4.4-12.4L-89.1,213.8z"/>
	<polygon class="st2" points="-86.1,215.2 -106.1,240.7 -81.5,218.4 -79.3,217.4 	"/>
</g>
<g>
	<path class="st2" d="M-60.4,192.9l-6.7-6.8l-29.9,17.7l8.5,1.9C-88.4,205.7-65.7,195.2-60.4,192.9z"/>
	<polygon class="st2" points="-56.4,199.8 -88.8,209.7 -78.1,212.7 -54.1,206.4 	"/>
	<polygon class="st2" points="-72.4,182 -78,177.1 -109.3,201.4 -99.4,201 	"/>
	<path class="st2" d="M-82.9,173.4c-0.4-0.2-6.4-2.8-6.4-2.8l-23.8,20l9.2,2L-82.9,173.4z"/>
	<polygon class="st2" points="-95.2,166.8 -104.5,165.5 -120.8,186.1 -109.4,180.8 	"/>
	<polygon class="st2" points="-110.1,164.8 -117.2,164.3 -132.4,184.9 -116.5,172.5 	"/>
	<path class="st2" d="M-119.6,162c-0.3,0-10.5-1.9-10.5-1.9l-14.9,15.5l4.3,7.6L-119.6,162z"/>
	<polygon class="st2" points="-135,158.9 -139.4,157.4 -155.9,164.9 -148.5,169 	"/>
	<polygon class="st2" points="-148,158.5 -156.6,155.2 -166.7,162.7 	"/>
	<polygon class="st2" points="-140.4,152.6 -143.8,144.1 -160.5,151.8 	"/>
	<polygon class="st2" points="-136.1,155.3 -139.7,140.6 -132.3,136.4 -130.8,155.1 	"/>
	<polygon class="st2" points="-125,156.9 -118.6,158.7 -121.5,135.1 -126.1,135.7 	"/>
	<polygon class="st2" points="-114.4,160.5 -115.6,130.9 -109.9,127.2 -108.5,161.3 	"/>
	<polygon class="st2" points="-103.6,161.9 -104.2,124.1 -97.9,125.3 -92.4,164 	"/>
	<polygon class="st2" points="-86.1,166.2 -91.7,126.1 -84.7,133.7 -78.7,170.3 	"/>
	<polygon class="st2" points="-74.6,174.1 -78.3,144.9 -69.7,157.1 -66.9,180.3 	"/>
	<polygon class="st2" points="-63.7,183.7 -62.7,169.1 -58.6,179.3 -58,189.2 	"/>
</g>
<path class="st2" d="M-142.2,143l0.1,3.5l5.1,2.3c0,0,8.3,3.7,1.9,15.3c-7.2,13.1-24.3,15.7-31.1,16.6c0,0-2.7,0.2-3,3.7
	c-0.3,3.5,1.5,4,1.5,4s29.1-5,39.1-16.4c12.9-14.7,16.8-26.7,14.4-35.6s-5-8.4-5-8.4l-14.2-2.1l-3.3,2.6c-0.4,0.3-0.6,0.8-0.5,1.3
	c0.3,2,0.8,6.9-1.1,7.7C-140.7,138.7-142.5,137.2-142.2,143z"/>
<path class="st2" d="M-240.4,211l-10.3-4.4c0,0-12-2.6-17.1-1.9l5.2,4.9c0,0-18.6,3.4-24.7,5.2c0,0,12.4,2.5,14,4.2
	c0,0-22.1,5.3-22.1,5.7s-8.1,9.6-8.1,9.6l7.2-1.3c0,0-15.4,15.3-16.6,17.7l27.8-8.5l-7.2,9c0,0,15.2-0.7,16.8-2.2s8.8-10,8.8-10
	s-0.3,8.1-1.9,9.9c-1.7,1.7-7.4,5.4-7.4,5.4s11.8-2.9,13.2-3.8s10.2-11.9,10.2-11.9l-3.6,11c0,0,15.1-8.1,17.5-10.2
	s14.2-7.8,16.4-13.9S-240.4,211-240.4,211z"/>
<polygon class="st2" points="-182.5,256.5 -163.8,254.9 -159.8,247.4 -160.3,251.6 -155,246.7 -148,244.7 -156.4,252.2 
	-145.7,249.2 -138.3,250.2 -155.5,254.3 -146.2,254.3 -156.8,256.5 "/>
<path class="st2" d="M-240.7,254.8c0,0,4-1.4,20.7-0.5l-2.4-0.8l6.7-1.3h-7.1l-13.1,0.4c0,0-1.5-4.5-4.4-5.9l1.9,5.1l-6.4-2.7
	l-4.4-0.1c0,0,4,2.5,5.5,3.7l-6.7-1.3l5.6,2l-6.8,0.5l7.8,0.4l-4.8,3.3L-240.7,254.8z"/>
</svg>
