<?xml version="1.0" encoding="utf-8"?>
<!-- Generator: Adobe Illustrator 21.0.0, SVG Export Plug-In . SVG Version: 6.00 Build 0)  -->
<svg version="1.1" id="Layer_1" xmlns="http://www.w3.org/2000/svg" x="0px" y="0px"
	 viewBox="0 0 20 20" style="enable-background:new 0 0 20 20;" xml:space="preserve">
<style type="text/css">
	.st0{fill:#3E3D40;}
</style>
<path id="Combined-Shape" class="st0" d="M4,13.5c0-0.1,0-0.2,0.1-0.3l2.8,2.8C6.8,16,6.7,16,6.5,16H4.6C4.3,16,4,15.7,4,15.4V13.5z
	 M19.8,1.7c0.4,0.4,0.4,1,0,1.4L8.4,14.5l-2.8-2.8L16.9,0.3c0.4-0.4,1-0.4,1.4,0L19.8,1.7z M15.5,16.7V8.9L18,6.4V18
	c0,1.1-0.9,2-2,2H2c-1.1,0-2-0.9-2-2V4c0-1.1,0.9-2,2-2h11.7l-2.5,2.5H3.4c-0.5,0-0.9,0.4-0.9,0.9v11.3c0,0.5,0.4,0.9,0.9,0.9h11.3
	C15.1,17.5,15.5,17.1,15.5,16.7z"/>
</svg>
