<svg xmlns="http://www.w3.org/2000/svg" width="18" height="17"><defs><path id="a" d="M0 .001h17.429v16.264H0z"/></defs><g fill="none" fill-rule="evenodd" transform="matrix(-1 0 0 1 18 0)"><mask id="b" fill="#fff"><use href="#a"/></mask><path fill="#3E3D40" d="M16.267 0c-.642 0-1.162.52-1.162 1.162V3.97a8.127 8.127 0 1 0-6.97 12.295 8.085 8.085 0 0 0 5.75-2.382 1.162 1.162 0 0 0-1.643-1.643 5.831 5.831 0 1 1 1.177-6.432h-2.96a1.162 1.162 0 1 0 0 2.324h5.808c.642 0 1.162-.52 1.162-1.162V1.16A1.16 1.16 0 0 0 16.267 0" mask="url(#b)"/></g></svg>