<!-- This Source Code Form is subject to the terms of the Mozilla Public
   - License, v. 2.0. If a copy of the MPL was not distributed with this
   - file, You can obtain one at http://mozilla.org/MPL/2.0/. -->
<svg xmlns="http://www.w3.org/2000/svg" width="16px" height="15px" viewBox="0 0 16 15" version="1.1">
  <path fill="#333333" fill-rule="evenodd" d="M4.66026767,9.40497492 C4.37052329,9.15370936 4.08670075,8.89538052 3.8090652,8.63018891 C3.42645524,8.86580226 2.97565456,9.00118703 2.4933866,8.99991125 C1.11529276,8.99626569 4.40998684e-05,7.87809866 -4.4408921e-16,6.5 C-2.13290173e-05,5.83347896 0.266114429,5.19454436 0.739289916,4.72512423 C1.0924283,4.37478853 1.53906226,4.14052001 2.02,4.04642221 L2.02,3 L3.02,3 L3.02,4.05409958 C4.15666652,4.29453089 5.00638762,5.30651762 4.99996458,6.51322675 C4.99927083,6.643563 4.98861398,6.77152142 4.96871893,6.89638283 L6.55913659,7.98570999 C7.24849186,7.51539069 7.95948148,7.07631258 8.69,6.67 C12.15,4.67 13.15,6.4 13.15,6.4 L4.92157753,11.8762218 C4.97385714,12.0797569 5.00113544,12.2932566 4.99996458,12.5132267 C4.99262938,13.8913059 3.87148044,15.0035568 2.4933866,14.9999113 C1.11529276,14.9962657 4.40998684e-05,13.8780987 -4.4408921e-16,12.5 C-2.13290173e-05,11.833479 0.266114429,11.1945444 0.739289916,10.7251242 C1.2124654,10.2557041 1.85350029,9.99466783 2.52,10 C2.92532591,10.0032427 3.30739661,10.1027817 3.64464,10.2767554 C3.9762239,9.97781151 4.31487348,9.68714052 4.66026767,9.40497492 L4.66026767,9.40497492 Z M7.83347023,11.7290811 C8.11531583,11.9018476 8.40088226,12.0688633 8.69,12.23 C12.15,14.23 13.15,12.5 13.15,12.5 L10.0248366,10.3594771 L7.83347023,11.7290811 L7.83347023,11.7290811 Z M16,8 L16,6 L15,6 L15,8 L16,8 L16,8 Z M16,9 L16,10.5 C16,10.7761424 15.7761424,11 15.5,11 L14,11 L14,10 L15,10 L15,9 L16,9 L16,9 Z M16,5 L16,3 L15,3 L15,5 L16,5 L16,5 Z M2,2 L2,0.5 C2,0.223857625 2.22385763,-6.66133815e-16 2.5,-6.66133815e-16 L4,-6.66133815e-16 L4,1 L3,1 L3,2 L2,2 L2,2 Z M16,2 L16,0.5 C16,0.223857625 15.7761424,-6.66133815e-16 15.5,-6.66133815e-16 L14,-6.66133815e-16 L14,1 L15,1 L15,2 L16,2 L16,2 Z M5,-6.66133815e-16 L7,-6.66133815e-16 L7,1 L5,1 L5,-7.77156117e-16 L5,-6.66133815e-16 Z M13,-6.66133815e-16 L11,-6.66133815e-16 L11,1 L13,1 L13,-1.22124533e-15 L13,-6.66133815e-16 Z M10,-6.66133815e-16 L8,-6.66133815e-16 L8,1 L10,1 L10,-1.22124533e-15 L10,-6.66133815e-16 Z M2.52,5 C3.345734,5.01101077 4.00725729,5.68738078 3.99994113,6.51315577 C3.99262496,7.33893077 3.31922151,8.00347365 2.49342204,7.99985224 C1.66762258,7.99623082 1.00007341,7.3258074 1,6.5 C0.999964326,6.09868567 1.16074206,5.71409228 1.44638717,5.43220566 C1.73203227,5.15031904 2.11872134,4.99464914 2.52,5 L2.52,5 L2.52,5 Z M2.51,11 C3.33710295,11.0055141 4.00365522,11.6795091 3.99998523,12.5066222 C3.99631525,13.3337354 3.32380818,14.0017888 2.49668887,13.999963 C1.66956955,13.9981372 1.00001838,13.3271213 1,12.5 C0.999991121,12.1004366 1.15939836,11.7173824 1.44286945,11.4357886 C1.72634054,11.1541948 2.11044546,10.9973362 2.51,11 L2.51,11 Z"/>
</svg>
