<?xml version="1.0" encoding="utf-8"?>
<!-- Generator: Adobe Illustrator 20.1.0, SVG Export Plug-In . SVG Version: 6.00 Build 0)  -->
<svg version="1.1" id="Layer_3" xmlns="http://www.w3.org/2000/svg" xmlns:xlink="http://www.w3.org/1999/xlink" x="0px" y="0px"
	 viewBox="0 0 60 60" style="enable-background:new 0 0 60 60;" xml:space="preserve">
<style type="text/css">
	.st0{fill-rule:evenodd;clip-rule:evenodd;fill:#E85B0D;}
	.st1{fill-rule:evenodd;clip-rule:evenodd;fill:#FFFFFF;}
</style>
<path class="st0" d="M0,4.4C0,2,2,0,4.4,0h51.1C58,0,60,2,60,4.4v51.1c0,2.5-2,4.4-4.4,4.4H4.4C2,60,0,58,0,55.6V4.4z"/>
<path class="st1" d="M25.5,34.4c0.9,0.8,2,2,4.5,2c2.4,0,3.6-1.1,4.5-2c3.8-3.5,15.5-14,15.5-14v20.8c0,2.3-2,4.4-4.5,4.4h-31
	c-2.5,0-4.5-2.1-4.5-4.4V20.4C10,20.4,21.7,30.8,25.5,34.4z M34.5,30c0,0-2.3,2.1-4.5,2.1c-2.3,0-4.5-2.1-4.5-2.1l-15-13.2
	c0.8-1.3,2.3-2.3,4-2.3h31c1.8,0,3.3,1,4,2.3L34.5,30z"/>
</svg>
