<?xml version="1.0" encoding="utf-8"?>
<!-- Generator: Adobe Illustrator 16.0.4, SVG Export Plug-In . SVG Version: 6.00 Build 0)  -->
<!DOCTYPE svg PUBLIC "-//W3C//DTD SVG 1.1//EN" "http://www.w3.org/Graphics/SVG/1.1/DTD/svg11.dtd">
<svg version="1.1" xmlns="http://www.w3.org/2000/svg" xmlns:xlink="http://www.w3.org/1999/xlink" x="0px" y="0px"
	 width="16px" height="16px" viewBox="0 0 16 16" enable-background="new 0 0 16 16" xml:space="preserve" fill="#fff" stroke="#008bc4">
<path d="M12.245,9.92c-0.812,0-1.526,0.39-1.988,0.984L6.232,8.546c0.015-0.112,0.034-0.224,0.034-0.34
	c0-0.188-0.023-0.37-0.062-0.546l4.192-2.419c0.461,0.498,1.115,0.815,1.849,0.815c1.395,0,2.526-1.132,2.526-2.527
	c0-1.396-1.132-2.527-2.526-2.527c-1.396,0-2.527,1.131-2.527,2.527c0,0.006,0.002,0.011,0.002,0.017L5.207,6.15
	C4.792,5.852,4.288,5.672,3.739,5.672c-1.396,0-2.527,1.134-2.527,2.534c0,1.388,1.131,2.522,2.527,2.522
	c0.622,0,1.184-0.234,1.624-0.606l4.38,2.574c0.127,1.276,1.191,2.278,2.502,2.278c1.395,0,2.526-1.133,2.526-2.527
	C14.771,11.051,13.64,9.92,12.245,9.92z"/>
</svg>
