<svg id="Layer_1" data-name="Layer 1" xmlns="http://www.w3.org/2000/svg" width="60" height="60" viewBox="0 0 60 60"><defs><style>.cls-1{fill:#bd081c;}</style></defs><title>Artboard 1</title><path class="cls-1" d="M57,0H3A3,3,0,0,0,0,3V57a3,3,0,0,0,3,3H18.26a28.74,28.74,0,0,1,.19-8.38c.58-2.5,3.75-15.91,3.75-15.91a11.55,11.55,0,0,1-1-4.75c0-4.45,2.58-7.77,5.79-7.77,2.73,0,4,2,4,4.51,0,2.75-1.75,6.85-2.65,10.65a4.65,4.65,0,0,0,4.74,5.78c5.69,0,10.06-6,10.06-14.65,0-7.66-5.51-13-13.37-13-9.1,0-14.45,6.83-14.45,13.89a12.45,12.45,0,0,0,2.38,7.3,1,1,0,0,1,.22.92c-.24,1-.78,3.18-.89,3.63s-.46.71-1.07.43c-4-1.86-6.5-7.7-6.5-12.4,0-10.09,7.33-19.36,21.14-19.36,11.1,0,19.73,7.91,19.73,18.48,0,11-7,19.9-16.61,19.9-3.24,0-6.29-1.68-7.33-3.67,0,0-1.6,6.11-2,7.61a30.9,30.9,0,0,1-3,6.82H57a3,3,0,0,0,3-3V3A3,3,0,0,0,57,0Z"/></svg>
