<svg width="61" height="60" viewBox="0 0 61 60" xmlns="http://www.w3.org/2000/svg"><title>Twitter</title><g transform="translate(.947)" fill="none" fill-rule="evenodd"><rect fill="#2AA8DF" width="60" height="60" rx="3"/><path d="M49.578 17.447a16.245 16.245 0 0 1-4.673 1.281 8.15 8.15 0 0 0 3.578-4.501 16.256 16.256 0 0 1-5.166 1.975 8.128 8.128 0 0 0-5.94-2.57 8.138 8.138 0 0 0-8.139 8.137c0 .64.073 1.259.21 1.854-6.761-.338-12.757-3.577-16.771-8.503a8.118 8.118 0 0 0-1.101 4.092 8.133 8.133 0 0 0 3.618 6.773 8.1 8.1 0 0 1-3.685-1.018v.102a8.144 8.144 0 0 0 6.527 7.98 8.082 8.082 0 0 1-3.674.139 8.147 8.147 0 0 0 7.6 5.652 16.32 16.32 0 0 1-10.107 3.483c-.655 0-1.303-.04-1.939-.113a23.048 23.048 0 0 0 12.475 3.654c14.966 0 23.152-12.397 23.152-23.152 0-.351-.01-.703-.023-1.054a16.576 16.576 0 0 0 4.058-4.21" fill="#FEFEFE"/></g></svg>