<?xml version="1.0" encoding="utf-8"?>
<!-- Generator: Adobe Illustrator 21.0.0, SVG Export Plug-In . SVG Version: 6.00 Build 0)  -->
<svg version="1.1" id="Layer_1" xmlns="http://www.w3.org/2000/svg" xmlns:xlink="http://www.w3.org/1999/xlink" x="0px" y="0px"
	 viewBox="0 0 20 20" style="enable-background:new 0 0 20 20;" xml:space="preserve">
<style type="text/css">
	.st0{fill:#3E3D40;}
</style>
<path id="Combined-Shape" class="st0" d="M1,12.5c0-0.7,0.6-1.2,1.3-1.2s1.3,0.6,1.3,1.2v3.8c0,0.7,0.6,1.2,1.3,1.2h10.3
	c0.7,0,1.3-0.6,1.3-1.2v-3.8c0-0.7,0.6-1.2,1.3-1.2c0.7,0,1.3,0.6,1.3,1.2v5c0,1.4-1.2,2.5-2.6,2.5H3.6C2.2,20,1,18.9,1,17.5V12.5z
	 M11.3,4.3v9.5c0,0.7-0.6,1.2-1.3,1.2s-1.3-0.6-1.3-1.2V4.3l-3,2.9c-0.5,0.5-1.3,0.5-1.8,0s-0.5-1.3,0-1.8l5.2-5
	c0.5-0.5,1.3-0.5,1.8,0c0,0,0,0,0,0l5.1,5c0.5,0.5,0.5,1.3,0,1.8c-0.5,0.5-1.3,0.5-1.8,0L11.3,4.3z"/>
</svg>
