<svg width="61" height="60" viewBox="0 0 61 60" xmlns="http://www.w3.org/2000/svg" xmlns:xlink="http://www.w3.org/1999/xlink"><title>Email</title><defs><rect id="a" x="7.5" y="19.5" width="45" height="30" rx="2"/></defs><g transform="translate(.895)" fill="none" fill-rule="evenodd"><rect fill="#F25B07" width="60" height="60" rx="3"/><mask id="b" fill="#fff"><use xlink:href="#a"/></mask><use fill="#B6BFC6" xlink:href="#a"/><path d="M53.67 43.159l.017.072c-.015-.045-.176.446-.401 1.207a11.618 11.618 0 0 0-.049-.303c.063-.923.037-1.916-.147-2.86-.29-1.491-1.425-2.787-2.026-3.204.03.022.061.049.093.078-.068-.054-.11-.082-.11-.082l.069.377c-.652-1.04-1.644-1.529-1.644-1.529s.031.174.08.538a11.362 11.362 0 0 0-7.644-2.953 11.367 11.367 0 0 0-7.75 3.05c.112.138.229.296.35.481 0 0 .778-.141 1.726-.05a9.692 9.692 0 0 1 5.674-1.82 9.728 9.728 0 0 1 7.263 3.24c-.56-.429-1.237-.784-1.738-.823 1.026.775 2.553 2.711 2.395 6.117-.263-.561-.58-1.002-.921-1.31.368 3.42.046 4.154-.178 5.063-.05-.418-.197-.732-.283-.922 0 0-.04 1.068-.723 2.59-.518 1.154-1.053 1.51-1.29 1.47-.21-.036-.066-.24-.105-.44 0 0-.355.173-.71.547-.337.354-.64.745-.797.634.119-.1.204-.267.296-.42-.131.093-.467.347-1.217.46-.306.046-1.611.287-3.348-.594.253-.03.632-.12.92.053-.288-.32-.986-.253-1.486-.414-.435-.14-1.004-.76-1.331-1.074 1.336.332 2.755.093 3.576-.477.829-.575 1.32-.996 1.76-.896.44.1.733-.349.39-.747-.341-.399-1.172-.947-2.297-.648-.793.21-1.775 1.101-3.275.2-1.28-.77-1.271-1.395-1.271-1.793 0-.273.163-.643.47-.817.167.06.27.115.27.115s-.077-.12-.126-.178c.17.037.475.15.63.23.209.106.28.215.28.215s.048-.03-.003-.14c-.02-.045-.096-.177-.303-.305.12.043.234.099.362.172.04-.187.12-.381.066-.721-.038-.24-.033-.3-.092-.388-.051-.074.013-.106.092-.04a1.071 1.071 0 0 0-.077-.177.19.19 0 0 1 .032-.065c.245-.344 1.772-1.159 1.893-1.25a1.65 1.65 0 0 0 .416-.47c.155-.097.266-.503.295-.809.011-.122-.25-.267-.388-.293a1.646 1.646 0 0 0-.56-.034c-.252-.003-.633-.01-1.15-.007-.504.005-.833-.294-1.03-.578a2.069 2.069 0 0 1-.207-.38 4.037 4.037 0 0 1 1.355-2.087c.042-.035-.165.025-.125-.013.046-.045.338-.186.393-.217.07-.04-.318-.147-.65-.077-.332.07-.398.11-.569.2.069-.073.295-.189.24-.176-.362.082-.788.324-1.151.584a.487.487 0 0 1 .006-.114c-.171.09-.585.414-.69.661 0-.053 0-.08-.007-.14a2.57 2.57 0 0 0-.333.383c-1.083-.266-1.999-.2-2.764.049a4.422 4.422 0 0 1-.939-1.068c-.027-.044-.03.1-.056.054-.165-.302-.308-.797-.344-1.188a2.116 2.116 0 0 1-.008-.115s-.142.084-.294.341a2.162 2.162 0 0 0-.197.456 2.71 2.71 0 0 1-.084.235c-.008.02.015-.2.006-.182-.037.078-.143.2-.177.34-.026.107-.069.17-.084.304-.007-.025-.009-.148-.018-.124a5.74 5.74 0 0 0-.235.812c-.057.224-.1.48-.125.77a7.319 7.319 0 0 0-.003 1.142l-.005.189c-.29.406-.467.756-.541.928-.354.7-.716 1.778-1.009 3.452 0 0 .193-.62.58-1.328-.287.929-.505 2.316-.374 4.381.005-.069.066-.599.22-1.314.076 1.396.468 3.096 1.539 4.956.786 1.367 1.71 2.392 2.745 3.155.19.155.386.305.586.448 1.28.947 3.27 2.115 4.967 2.362a2.58 2.58 0 0 1-.96-.52s2.015.657 3.486.6c-.46-.08-.553-.307-.553-.307s4.19.24 6.366-1.504c.487-.373.808-.804.903-1.198a8.69 8.69 0 0 0 2.046-1.531c1.184-1.183 1.313-2.083 1.44-2.925-.004.027-.01.053-.015.079.054-.338.018-.635-.113-.853.662-1.336 1.662-4.341.806-6.798z" fill="#CAD3DA" mask="url(#b)"/><path d="M9.997 10.5A1 1 0 0 0 9 11.501v9.505c0 .553.4 1.22.876 1.479l18.014 9.82c1.165.636 3.053.637 4.22 0l18.014-9.82c.484-.264.876-.929.876-1.479v-9.505a.997.997 0 0 0-.997-1.001H9.997z" fill="#F1F1F1"/><rect fill="#E66000" x="12" y="13.5" width="12" height="2.25" rx="1"/><rect fill="#E66000" x="12" y="17.25" width="16.5" height="2.25" rx="1"/></g></svg>