<svg xmlns="http://www.w3.org/2000/svg" width="13020" height="60">
    <svg xmlns="http://www.w3.org/2000/svg" width="217" height="60" viewBox="0 0 217 60" preserveAspectRatio="xMidYMid meet" style="width: 100%; height: 100%;" x="0" y="0">
        <defs>
            <clipPath id="f0_animationMask_qWvwQjdKpP">
                <rect width="217" height="60" x="0" y="0" />
            </clipPath>
        </defs>
        <g clip-path="url(#f0_animationMask_qWvwQjdKpP)">
            <g style="-moz-user-select: none;" transform="matrix(7.5,0,0,7.5,4893.75,4815)">
                <g transform="matrix(1,0,0,1,-648,-638)">
                    <path fill="#fff" d=" M0,-4 C2.2076,-4 4,-2.2076 4,0 C4,2.2076 2.2076,4 0,4 C-2.2076,4 -4,2.2076 -4,0 C-4,-2.2076 -2.2076,-4 0,-4z" />
                </g>
            </g>
        </g>
    </svg>
    <svg xmlns="http://www.w3.org/2000/svg" width="217" height="60" viewBox="0 0 217 60" preserveAspectRatio="xMidYMid meet" style="width: 100%; height: 100%;" x="217" y="0">
        <defs>
            <clipPath id="f1_animationMask_qWvwQjdKpP">
                <rect width="217" height="60" x="0" y="0" />
            </clipPath>
        </defs>
        <g clip-path="url(#f1_animationMask_qWvwQjdKpP)">
            <g style="-moz-user-select: none;" transform="matrix(7.5,0,0,7.5,4898.28917666151,4815)">
                <g transform="matrix(1,0,0,1,-648,-638)">
                    <path fill="#fff" d=" M0,-4 C2.2076,-4 4,-2.2076 4,0 C4,2.2076 2.2076,4 0,4 C-2.2076,4 -4,2.2076 -4,0 C-4,-2.2076 -2.2076,-4 0,-4z" />
                </g>
            </g>
        </g>
    </svg>
    <svg xmlns="http://www.w3.org/2000/svg" width="217" height="60" viewBox="0 0 217 60" preserveAspectRatio="xMidYMid meet" style="width: 100%; height: 100%;" x="434" y="0">
        <defs>
            <clipPath id="f2_animationMask_qWvwQjdKpP">
                <rect width="217" height="60" x="0" y="0" />
            </clipPath>
        </defs>
        <g clip-path="url(#f2_animationMask_qWvwQjdKpP)">
            <g style="-moz-user-select: none;" transform="matrix(7.5,0,0,7.5,4912.432777618943,4815)">
                <g transform="matrix(1,0,0,1,-648,-638)">
                    <path fill="#fff" d=" M0,-4 C2.2076,-4 4,-2.2076 4,0 C4,2.2076 2.2076,4 0,4 C-2.2076,4 -4,2.2076 -4,0 C-4,-2.2076 -2.2076,-4 0,-4z" />
                </g>
            </g>
        </g>
    </svg>
    <svg xmlns="http://www.w3.org/2000/svg" width="217" height="60" viewBox="0 0 217 60" preserveAspectRatio="xMidYMid meet" style="width: 100%; height: 100%;" x="651" y="0">
        <defs>
            <clipPath id="f3_animationMask_qWvwQjdKpP">
                <rect width="217" height="60" x="0" y="0" />
            </clipPath>
        </defs>
        <g clip-path="url(#f3_animationMask_qWvwQjdKpP)">
            <g style="-moz-user-select: none;" transform="matrix(8.13984375,0,0,7.3171875,5344.795500653517,4698.365625)">
                <g transform="matrix(1,0,0,1,-648,-638)">
                    <path fill="#fff" d=" M0,-4 C2.2076,-4 4,-2.2076 4,0 C4,2.2076 2.2076,4 0,4 C-2.2076,4 -4,2.2076 -4,0 C-4,-2.2076 -2.2076,-4 0,-4z" />
                </g>
            </g>
        </g>
    </svg>
    <svg xmlns="http://www.w3.org/2000/svg" width="217" height="60" viewBox="0 0 217 60" preserveAspectRatio="xMidYMid meet" style="width: 100%; height: 100%;" x="868" y="0">
        <defs>
            <clipPath id="f4_animationMask_qWvwQjdKpP">
                <rect width="217" height="60" x="0" y="0" />
            </clipPath>
        </defs>
        <g clip-path="url(#f4_animationMask_qWvwQjdKpP)">
            <g style="-moz-user-select: none;" transform="matrix(8.79609375,0,0,7.1296875,5786.018819053409,4578.740625)">
                <g transform="matrix(1,0,0,1,-648,-638)">
                    <path fill="#fff" d=" M0,-4 C2.2076,-4 4,-2.2076 4,0 C4,2.2076 2.2076,4 0,4 C-2.2076,4 -4,2.2076 -4,0 C-4,-2.2076 -2.2076,-4 0,-4z" />
                </g>
            </g>
        </g>
    </svg>
    <svg xmlns="http://www.w3.org/2000/svg" width="217" height="60" viewBox="0 0 217 60" preserveAspectRatio="xMidYMid meet" style="width: 100%; height: 100%;" x="1085" y="0">
        <defs>
            <clipPath id="f5_animationMask_qWvwQjdKpP">
                <rect width="217" height="60" x="0" y="0" />
            </clipPath>
        </defs>
        <g clip-path="url(#f5_animationMask_qWvwQjdKpP)">
            <g style="-moz-user-select: none;" transform="matrix(9.45234375,0,0,6.9421875,6224.676499498762,4459.115625)">
                <g transform="matrix(1,0,0,1,-648,-638)">
                    <path fill="#fff" d=" M0,-4 C2.2076,-4 4,-2.2076 4,0 C4,2.2076 2.2076,4 0,4 C-2.2076,4 -4,2.2076 -4,0 C-4,-2.2076 -2.2076,-4 0,-4z" />
                </g>
            </g>
        </g>
    </svg>
    <svg xmlns="http://www.w3.org/2000/svg" width="217" height="60" viewBox="0 0 217 60" preserveAspectRatio="xMidYMid meet" style="width: 100%; height: 100%;" x="1302" y="0">
        <defs>
            <clipPath id="f6_animationMask_qWvwQjdKpP">
                <rect width="217" height="60" x="0" y="0" />
            </clipPath>
        </defs>
        <g clip-path="url(#f6_animationMask_qWvwQjdKpP)">
            <g style="-moz-user-select: none;" transform="matrix(10.10859375,0,0,6.7546875,6661.186835115869,4339.490625)">
                <g transform="matrix(1,0,0,1,-648,-638)">
                    <path fill="#fff" d=" M0,-4 C2.2076,-4 4,-2.2076 4,0 C4,2.2076 2.2076,4 0,4 C-2.2076,4 -4,2.2076 -4,0 C-4,-2.2076 -2.2076,-4 0,-4z" />
                </g>
            </g>
        </g>
    </svg>
    <svg xmlns="http://www.w3.org/2000/svg" width="217" height="60" viewBox="0 0 217 60" preserveAspectRatio="xMidYMid meet" style="width: 100%; height: 100%;" x="1519" y="0">
        <defs>
            <clipPath id="f7_animationMask_qWvwQjdKpP">
                <rect width="217" height="60" x="0" y="0" />
            </clipPath>
        </defs>
        <g clip-path="url(#f7_animationMask_qWvwQjdKpP)">
            <g style="-moz-user-select: none;" transform="matrix(10.76484375,0,0,6.5671875,7096.011899762878,4219.865625)">
                <g transform="matrix(1,0,0,1,-648,-638)">
                    <path fill="#fff" d=" M0,-4 C2.2076,-4 4,-2.2076 4,0 C4,2.2076 2.2076,4 0,4 C-2.2076,4 -4,2.2076 -4,0 C-4,-2.2076 -2.2076,-4 0,-4z" />
                </g>
            </g>
        </g>
    </svg>
    <svg xmlns="http://www.w3.org/2000/svg" width="217" height="60" viewBox="0 0 217 60" preserveAspectRatio="xMidYMid meet" style="width: 100%; height: 100%;" x="1736" y="0">
        <defs>
            <clipPath id="f8_animationMask_qWvwQjdKpP">
                <rect width="217" height="60" x="0" y="0" />
            </clipPath>
        </defs>
        <g clip-path="url(#f8_animationMask_qWvwQjdKpP)">
            <g style="-moz-user-select: none;" transform="matrix(11.42109375,0,0,6.3796875,7529.503937065572,4100.240625)">
                <g transform="matrix(1,0,0,1,-648,-638)">
                    <path fill="#fff" d=" M0,-4 C2.2076,-4 4,-2.2076 4,0 C4,2.2076 2.2076,4 0,4 C-2.2076,4 -4,2.2076 -4,0 C-4,-2.2076 -2.2076,-4 0,-4z" />
                </g>
            </g>
        </g>
    </svg>
    <svg xmlns="http://www.w3.org/2000/svg" width="217" height="60" viewBox="0 0 217 60" preserveAspectRatio="xMidYMid meet" style="width: 100%; height: 100%;" x="1953" y="0">
        <defs>
            <clipPath id="f9_animationMask_qWvwQjdKpP">
                <rect width="217" height="60" x="0" y="0" />
            </clipPath>
        </defs>
        <g clip-path="url(#f9_animationMask_qWvwQjdKpP)">
            <g style="-moz-user-select: none;" transform="matrix(12.07734375,0,0,6.1921875,7961.919416527724,3980.615625)">
                <g transform="matrix(1,0,0,1,-648,-638)">
                    <path fill="#fff" d=" M0,-4 C2.2076,-4 4,-2.2076 4,0 C4,2.2076 2.2076,4 0,4 C-2.2076,4 -4,2.2076 -4,0 C-4,-2.2076 -2.2076,-4 0,-4z" />
                </g>
            </g>
        </g>
    </svg>
    <svg xmlns="http://www.w3.org/2000/svg" width="217" height="60" viewBox="0 0 217 60" preserveAspectRatio="xMidYMid meet" style="width: 100%; height: 100%;" x="2170" y="0">
        <defs>
            <clipPath id="f10_animationMask_qWvwQjdKpP">
                <rect width="217" height="60" x="0" y="0" />
            </clipPath>
        </defs>
        <g clip-path="url(#f10_animationMask_qWvwQjdKpP)">
            <g style="-moz-user-select: none;" transform="matrix(12.73359375,0,0,6.0046875,8393.446824195838,3860.990625)">
                <g transform="matrix(1,0,0,1,-648,-638)">
                    <path fill="#fff" d=" M0,-4 C2.2076,-4 4,-2.2076 4,0 C4,2.2076 2.2076,4 0,4 C-2.2076,4 -4,2.2076 -4,0 C-4,-2.2076 -2.2076,-4 0,-4z" />
                </g>
            </g>
        </g>
    </svg>
    <svg xmlns="http://www.w3.org/2000/svg" width="217" height="60" viewBox="0 0 217 60" preserveAspectRatio="xMidYMid meet" style="width: 100%; height: 100%;" x="2387" y="0">
        <defs>
            <clipPath id="f11_animationMask_qWvwQjdKpP">
                <rect width="217" height="60" x="0" y="0" />
            </clipPath>
        </defs>
        <g clip-path="url(#f11_animationMask_qWvwQjdKpP)">
            <g style="-moz-user-select: none;" transform="matrix(12.016129032258064,0,0,6.209677419354839,7934.060541040395,3991.7741935483873)">
                <g transform="matrix(1,0,0,1,-648,-638)">
                    <path fill="#fff" d=" M0,-4 C2.2076,-4 4,-2.2076 4,0 C4,2.2076 2.2076,4 0,4 C-2.2076,4 -4,2.2076 -4,0 C-4,-2.2076 -2.2076,-4 0,-4z" />
                </g>
            </g>
        </g>
    </svg>
    <svg xmlns="http://www.w3.org/2000/svg" width="217" height="60" viewBox="0 0 217 60" preserveAspectRatio="xMidYMid meet" style="width: 100%; height: 100%;" x="2604" y="0">
        <defs>
            <clipPath id="f12_animationMask_qWvwQjdKpP">
                <rect width="217" height="60" x="0" y="0" />
            </clipPath>
        </defs>
        <g clip-path="url(#f12_animationMask_qWvwQjdKpP)">
            <g style="-moz-user-select: none;" transform="matrix(11.263440860215054,0,0,6.424731182795699,7451.211605098927,4128.978494623656)">
                <g transform="matrix(1,0,0,1,-648,-638)">
                    <path fill="#fff" d=" M0,-4 C2.2076,-4 4,-2.2076 4,0 C4,2.2076 2.2076,4 0,4 C-2.2076,4 -4,2.2076 -4,0 C-4,-2.2076 -2.2076,-4 0,-4z" />
                </g>
            </g>
        </g>
    </svg>
    <svg xmlns="http://www.w3.org/2000/svg" width="217" height="60" viewBox="0 0 217 60" preserveAspectRatio="xMidYMid meet" style="width: 100%; height: 100%;" x="2821" y="0">
        <defs>
            <clipPath id="f13_animationMask_qWvwQjdKpP">
                <rect width="217" height="60" x="0" y="0" />
            </clipPath>
        </defs>
        <g clip-path="url(#f13_animationMask_qWvwQjdKpP)">
            <g style="-moz-user-select: none;" transform="matrix(10.510752688172042,0,0,6.63978494623656,6967.810093226162,4266.1827956989255)">
                <g transform="matrix(1,0,0,1,-648,-638)">
                    <path fill="#fff" d=" M0,-4 C2.2076,-4 4,-2.2076 4,0 C4,2.2076 2.2076,4 0,4 C-2.2076,4 -4,2.2076 -4,0 C-4,-2.2076 -2.2076,-4 0,-4z" />
                </g>
            </g>
        </g>
    </svg>
    <svg xmlns="http://www.w3.org/2000/svg" width="217" height="60" viewBox="0 0 217 60" preserveAspectRatio="xMidYMid meet" style="width: 100%; height: 100%;" x="3038" y="0">
        <defs>
            <clipPath id="f14_animationMask_qWvwQjdKpP">
                <rect width="217" height="60" x="0" y="0" />
            </clipPath>
        </defs>
        <g clip-path="url(#f14_animationMask_qWvwQjdKpP)">
            <g style="-moz-user-select: none;" transform="matrix(9.758064516129032,0,0,6.85483870967742,6483.924186887612,4403.387096774194)">
                <g transform="matrix(1,0,0,1,-648,-638)">
                    <path fill="#fff" d=" M0,-4 C2.2076,-4 4,-2.2076 4,0 C4,2.2076 2.2076,4 0,4 C-2.2076,4 -4,2.2076 -4,0 C-4,-2.2076 -2.2076,-4 0,-4z" />
                </g>
            </g>
        </g>
    </svg>
    <svg xmlns="http://www.w3.org/2000/svg" width="217" height="60" viewBox="0 0 217 60" preserveAspectRatio="xMidYMid meet" style="width: 100%; height: 100%;" x="3255" y="0">
        <defs>
            <clipPath id="f15_animationMask_qWvwQjdKpP">
                <rect width="217" height="60" x="0" y="0" />
            </clipPath>
        </defs>
        <g clip-path="url(#f15_animationMask_qWvwQjdKpP)">
            <g style="-moz-user-select: none;" transform="matrix(9.005376344086022,0,0,7.06989247311828,5999.6093145059585,4540.591397849463)">
                <g transform="matrix(1,0,0,1,-648,-638)">
                    <path fill="#fff" d=" M0,-4 C2.2076,-4 4,-2.2076 4,0 C4,2.2076 2.2076,4 0,4 C-2.2076,4 -4,2.2076 -4,0 C-4,-2.2076 -2.2076,-4 0,-4z" />
                </g>
            </g>
        </g>
    </svg>
    <svg xmlns="http://www.w3.org/2000/svg" width="217" height="60" viewBox="0 0 217 60" preserveAspectRatio="xMidYMid meet" style="width: 100%; height: 100%;" x="3472" y="0">
        <defs>
            <clipPath id="f16_animationMask_qWvwQjdKpP">
                <rect width="217" height="60" x="0" y="0" />
            </clipPath>
        </defs>
        <g clip-path="url(#f16_animationMask_qWvwQjdKpP)">
            <g style="-moz-user-select: none;" transform="matrix(8.25268817204301,0,0,7.28494623655914,5514.911201920102,4677.795698924731)">
                <g transform="matrix(1,0,0,1,-648,-638)">
                    <path fill="#fff" d=" M0,-4 C2.2076,-4 4,-2.2076 4,0 C4,2.2076 2.2076,4 0,4 C-2.2076,4 -4,2.2076 -4,0 C-4,-2.2076 -2.2076,-4 0,-4z" />
                </g>
            </g>
        </g>
    </svg>
    <svg xmlns="http://www.w3.org/2000/svg" width="217" height="60" viewBox="0 0 217 60" preserveAspectRatio="xMidYMid meet" style="width: 100%; height: 100%;" x="3689" y="0">
        <defs>
            <clipPath id="f17_animationMask_qWvwQjdKpP">
                <rect width="217" height="60" x="0" y="0" />
            </clipPath>
        </defs>
        <g clip-path="url(#f17_animationMask_qWvwQjdKpP)">
            <g style="-moz-user-select: none;" transform="matrix(7.5,0,0,7.5,5029.868060636527,4815)">
                <g transform="matrix(1,0,0,1,-648,-638)">
                    <path fill="#fff" d=" M0,-4 C2.2076,-4 4,-2.2076 4,0 C4,2.2076 2.2076,4 0,4 C-2.2076,4 -4,2.2076 -4,0 C-4,-2.2076 -2.2076,-4 0,-4z" />
                </g>
            </g>
        </g>
    </svg>
    <svg xmlns="http://www.w3.org/2000/svg" width="217" height="60" viewBox="0 0 217 60" preserveAspectRatio="xMidYMid meet" style="width: 100%; height: 100%;" x="3906" y="0">
        <defs>
            <clipPath id="f18_animationMask_qWvwQjdKpP">
                <rect width="217" height="60" x="0" y="0" />
            </clipPath>
        </defs>
        <g clip-path="url(#f18_animationMask_qWvwQjdKpP)">
            <g style="-moz-user-select: none;" transform="matrix(7.5,0,0,7.5,5032.25412446754,4815)">
                <g transform="matrix(1,0,0,1,-648,-638)">
                    <path fill="#fff" d=" M0,-4 C2.2076,-4 4,-2.2076 4,0 C4,2.2076 2.2076,4 0,4 C-2.2076,4 -4,2.2076 -4,0 C-4,-2.2076 -2.2076,-4 0,-4z" />
                </g>
            </g>
        </g>
    </svg>
    <svg xmlns="http://www.w3.org/2000/svg" width="217" height="60" viewBox="0 0 217 60" preserveAspectRatio="xMidYMid meet" style="width: 100%; height: 100%;" x="4123" y="0">
        <defs>
            <clipPath id="f19_animationMask_qWvwQjdKpP">
                <rect width="217" height="60" x="0" y="0" />
            </clipPath>
        </defs>
        <g clip-path="url(#f19_animationMask_qWvwQjdKpP)">
            <g style="-moz-user-select: none;" transform="matrix(7.5,0,0,7.5,5034.355036086703,4815)">
                <g transform="matrix(1,0,0,1,-648,-638)">
                    <path fill="#fff" d=" M0,-4 C2.2076,-4 4,-2.2076 4,0 C4,2.2076 2.2076,4 0,4 C-2.2076,4 -4,2.2076 -4,0 C-4,-2.2076 -2.2076,-4 0,-4z" />
                </g>
            </g>
        </g>
    </svg>
    <svg xmlns="http://www.w3.org/2000/svg" width="217" height="60" viewBox="0 0 217 60" preserveAspectRatio="xMidYMid meet" style="width: 100%; height: 100%;" x="4340" y="0">
        <defs>
            <clipPath id="f20_animationMask_qWvwQjdKpP">
                <rect width="217" height="60" x="0" y="0" />
            </clipPath>
        </defs>
        <g clip-path="url(#f20_animationMask_qWvwQjdKpP)">
            <g style="-moz-user-select: none;" transform="matrix(7.5,0,0,7.5,5036.1945571556,4815)">
                <g transform="matrix(1,0,0,1,-648,-638)">
                    <path fill="#fff" d=" M0,-4 C2.2076,-4 4,-2.2076 4,0 C4,2.2076 2.2076,4 0,4 C-2.2076,4 -4,2.2076 -4,0 C-4,-2.2076 -2.2076,-4 0,-4z" />
                </g>
            </g>
        </g>
    </svg>
    <svg xmlns="http://www.w3.org/2000/svg" width="217" height="60" viewBox="0 0 217 60" preserveAspectRatio="xMidYMid meet" style="width: 100%; height: 100%;" x="4557" y="0">
        <defs>
            <clipPath id="f21_animationMask_qWvwQjdKpP">
                <rect width="217" height="60" x="0" y="0" />
            </clipPath>
        </defs>
        <g clip-path="url(#f21_animationMask_qWvwQjdKpP)">
            <g style="-moz-user-select: none;" transform="matrix(7.5,0,0,7.5,5037.793327672452,4815)">
                <g transform="matrix(1,0,0,1,-648,-638)">
                    <path fill="#fff" d=" M0,-4 C2.2076,-4 4,-2.2076 4,0 C4,2.2076 2.2076,4 0,4 C-2.2076,4 -4,2.2076 -4,0 C-4,-2.2076 -2.2076,-4 0,-4z" />
                </g>
            </g>
        </g>
    </svg>
    <svg xmlns="http://www.w3.org/2000/svg" width="217" height="60" viewBox="0 0 217 60" preserveAspectRatio="xMidYMid meet" style="width: 100%; height: 100%;" x="4774" y="0">
        <defs>
            <clipPath id="f22_animationMask_qWvwQjdKpP">
                <rect width="217" height="60" x="0" y="0" />
            </clipPath>
        </defs>
        <g clip-path="url(#f22_animationMask_qWvwQjdKpP)">
            <g style="-moz-user-select: none;" transform="matrix(7.5,0,0,7.5,5039.169407535705,4815)">
                <g transform="matrix(1,0,0,1,-648,-638)">
                    <path fill="#fff" d=" M0,-4 C2.2076,-4 4,-2.2076 4,0 C4,2.2076 2.2076,4 0,4 C-2.2076,4 -4,2.2076 -4,0 C-4,-2.2076 -2.2076,-4 0,-4z" />
                </g>
            </g>
        </g>
    </svg>
    <svg xmlns="http://www.w3.org/2000/svg" width="217" height="60" viewBox="0 0 217 60" preserveAspectRatio="xMidYMid meet" style="width: 100%; height: 100%;" x="4991" y="0">
        <defs>
            <clipPath id="f23_animationMask_qWvwQjdKpP">
                <rect width="217" height="60" x="0" y="0" />
            </clipPath>
        </defs>
        <g clip-path="url(#f23_animationMask_qWvwQjdKpP)">
            <g style="-moz-user-select: none;" transform="matrix(7.5,0,0,7.5,5040.338703898158,4815)">
                <g transform="matrix(1,0,0,1,-648,-638)">
                    <path fill="#fff" d=" M0,-4 C2.2076,-4 4,-2.2076 4,0 C4,2.2076 2.2076,4 0,4 C-2.2076,4 -4,2.2076 -4,0 C-4,-2.2076 -2.2076,-4 0,-4z" />
                </g>
            </g>
        </g>
    </svg>
    <svg xmlns="http://www.w3.org/2000/svg" width="217" height="60" viewBox="0 0 217 60" preserveAspectRatio="xMidYMid meet" style="width: 100%; height: 100%;" x="5208" y="0">
        <defs>
            <clipPath id="f24_animationMask_qWvwQjdKpP">
                <rect width="217" height="60" x="0" y="0" />
            </clipPath>
        </defs>
        <g clip-path="url(#f24_animationMask_qWvwQjdKpP)">
            <g style="-moz-user-select: none;" transform="matrix(7.5,0,0,7.5,5041.315312220619,4815)">
                <g transform="matrix(1,0,0,1,-648,-638)">
                    <path fill="#fff" d=" M0,-4 C2.2076,-4 4,-2.2076 4,0 C4,2.2076 2.2076,4 0,4 C-2.2076,4 -4,2.2076 -4,0 C-4,-2.2076 -2.2076,-4 0,-4z" />
                </g>
            </g>
        </g>
    </svg>
    <svg xmlns="http://www.w3.org/2000/svg" width="217" height="60" viewBox="0 0 217 60" preserveAspectRatio="xMidYMid meet" style="width: 100%; height: 100%;" x="5425" y="0">
        <defs>
            <clipPath id="f25_animationMask_qWvwQjdKpP">
                <rect width="217" height="60" x="0" y="0" />
            </clipPath>
        </defs>
        <g clip-path="url(#f25_animationMask_qWvwQjdKpP)">
            <g style="-moz-user-select: none;" transform="matrix(7.5,0,0,7.5,5042.111791273323,4815)">
                <g transform="matrix(1,0,0,1,-648,-638)">
                    <path fill="#fff" d=" M0,-4 C2.2076,-4 4,-2.2076 4,0 C4,2.2076 2.2076,4 0,4 C-2.2076,4 -4,2.2076 -4,0 C-4,-2.2076 -2.2076,-4 0,-4z" />
                </g>
            </g>
        </g>
    </svg>
    <svg xmlns="http://www.w3.org/2000/svg" width="217" height="60" viewBox="0 0 217 60" preserveAspectRatio="xMidYMid meet" style="width: 100%; height: 100%;" x="5642" y="0">
        <defs>
            <clipPath id="f26_animationMask_qWvwQjdKpP">
                <rect width="217" height="60" x="0" y="0" />
            </clipPath>
        </defs>
        <g clip-path="url(#f26_animationMask_qWvwQjdKpP)">
            <g style="-moz-user-select: none;" transform="matrix(7.5,0,0,7.5,5042.739386983769,4815)">
                <g transform="matrix(1,0,0,1,-648,-638)">
                    <path fill="#fff" d=" M0,-4 C2.2076,-4 4,-2.2076 4,0 C4,2.2076 2.2076,4 0,4 C-2.2076,4 -4,2.2076 -4,0 C-4,-2.2076 -2.2076,-4 0,-4z" />
                </g>
            </g>
        </g>
    </svg>
    <svg xmlns="http://www.w3.org/2000/svg" width="217" height="60" viewBox="0 0 217 60" preserveAspectRatio="xMidYMid meet" style="width: 100%; height: 100%;" x="5859" y="0">
        <defs>
            <clipPath id="f27_animationMask_qWvwQjdKpP">
                <rect width="217" height="60" x="0" y="0" />
            </clipPath>
        </defs>
        <g clip-path="url(#f27_animationMask_qWvwQjdKpP)">
            <g style="-moz-user-select: none;" transform="matrix(7.5,0,0,7.5,5043.208216237139,4815)">
                <g transform="matrix(1,0,0,1,-648,-638)">
                    <path fill="#fff" d=" M0,-4 C2.2076,-4 4,-2.2076 4,0 C4,2.2076 2.2076,4 0,4 C-2.2076,4 -4,2.2076 -4,0 C-4,-2.2076 -2.2076,-4 0,-4z" />
                </g>
            </g>
        </g>
    </svg>
    <svg xmlns="http://www.w3.org/2000/svg" width="217" height="60" viewBox="0 0 217 60" preserveAspectRatio="xMidYMid meet" style="width: 100%; height: 100%;" x="6076" y="0">
        <defs>
            <clipPath id="f28_animationMask_qWvwQjdKpP">
                <rect width="217" height="60" x="0" y="0" />
            </clipPath>
        </defs>
        <g clip-path="url(#f28_animationMask_qWvwQjdKpP)">
            <g style="-moz-user-select: none;" transform="matrix(7.5,0,0,7.5,5043.5274190087375,4815)">
                <g transform="matrix(1,0,0,1,-648,-638)">
                    <path fill="#fff" d=" M0,-4 C2.2076,-4 4,-2.2076 4,0 C4,2.2076 2.2076,4 0,4 C-2.2076,4 -4,2.2076 -4,0 C-4,-2.2076 -2.2076,-4 0,-4z" />
                </g>
            </g>
        </g>
    </svg>
    <svg xmlns="http://www.w3.org/2000/svg" width="217" height="60" viewBox="0 0 217 60" preserveAspectRatio="xMidYMid meet" style="width: 100%; height: 100%;" x="6293" y="0">
        <defs>
            <clipPath id="f29_animationMask_qWvwQjdKpP">
                <rect width="217" height="60" x="0" y="0" />
            </clipPath>
        </defs>
        <g clip-path="url(#f29_animationMask_qWvwQjdKpP)">
            <g style="-moz-user-select: none;" transform="matrix(7.5,0,0,7.5,5043.705285221527,4815)">
                <g transform="matrix(1,0,0,1,-648,-638)">
                    <path fill="#fff" d=" M0,-4 C2.2076,-4 4,-2.2076 4,0 C4,2.2076 2.2076,4 0,4 C-2.2076,4 -4,2.2076 -4,0 C-4,-2.2076 -2.2076,-4 0,-4z" />
                </g>
            </g>
        </g>
    </svg>
    <svg xmlns="http://www.w3.org/2000/svg" width="217" height="60" viewBox="0 0 217 60" preserveAspectRatio="xMidYMid meet" style="width: 100%; height: 100%;" x="6510" y="0">
        <defs>
            <clipPath id="f30_animationMask_qWvwQjdKpP">
                <rect width="217" height="60" x="0" y="0" />
            </clipPath>
        </defs>
        <g clip-path="url(#f30_animationMask_qWvwQjdKpP)">
            <g style="-moz-user-select: none;" transform="matrix(7.5,0,0,7.5,5043.746995585717,4815)">
                <g transform="matrix(1,0,0,1,-648,-638)">
                    <path fill="#fff" d=" M0,-4 C2.2076,-4 4,-2.2076 4,0 C4,2.2076 2.2076,4 0,4 C-2.2076,4 -4,2.2076 -4,0 C-4,-2.2076 -2.2076,-4 0,-4z" />
                </g>
            </g>
        </g>
    </svg>
    <svg xmlns="http://www.w3.org/2000/svg" width="217" height="60" viewBox="0 0 217 60" preserveAspectRatio="xMidYMid meet" style="width: 100%; height: 100%;" x="6727" y="0">
        <defs>
            <clipPath id="f31_animationMask_qWvwQjdKpP">
                <rect width="217" height="60" x="0" y="0" />
            </clipPath>
        </defs>
        <g clip-path="url(#f31_animationMask_qWvwQjdKpP)">
            <g style="-moz-user-select: none;" transform="matrix(7.5,0,0,7.5,5042.215665809503,4815)">
                <g transform="matrix(1,0,0,1,-648,-638)">
                    <path fill="#fff" d=" M0,-4 C2.2076,-4 4,-2.2076 4,0 C4,2.2076 2.2076,4 0,4 C-2.2076,4 -4,2.2076 -4,0 C-4,-2.2076 -2.2076,-4 0,-4z" />
                </g>
            </g>
        </g>
    </svg>
    <svg xmlns="http://www.w3.org/2000/svg" width="217" height="60" viewBox="0 0 217 60" preserveAspectRatio="xMidYMid meet" style="width: 100%; height: 100%;" x="6944" y="0">
        <defs>
            <clipPath id="f32_animationMask_qWvwQjdKpP">
                <rect width="217" height="60" x="0" y="0" />
            </clipPath>
        </defs>
        <g clip-path="url(#f32_animationMask_qWvwQjdKpP)">
            <g style="-moz-user-select: none;" transform="matrix(7.5,0,0,7.5,5036.537141669948,4815)">
                <g transform="matrix(1,0,0,1,-648,-638)">
                    <path fill="#fff" d=" M0,-4 C2.2076,-4 4,-2.2076 4,0 C4,2.2076 2.2076,4 0,4 C-2.2076,4 -4,2.2076 -4,0 C-4,-2.2076 -2.2076,-4 0,-4z" />
                </g>
            </g>
        </g>
    </svg>
    <svg xmlns="http://www.w3.org/2000/svg" width="217" height="60" viewBox="0 0 217 60" preserveAspectRatio="xMidYMid meet" style="width: 100%; height: 100%;" x="7161" y="0">
        <defs>
            <clipPath id="f33_animationMask_qWvwQjdKpP">
                <rect width="217" height="60" x="0" y="0" />
            </clipPath>
        </defs>
        <g clip-path="url(#f33_animationMask_qWvwQjdKpP)">
            <g style="-moz-user-select: none;" transform="matrix(7.958463949843258,0,0,7.316614420062697,5321.06475630201,4698.000000000001)">
                <g transform="matrix(1,0,0,1,-648,-638)">
                    <path fill="#fff" d=" M0,-4 C2.2076,-4 4,-2.2076 4,0 C4,2.2076 2.2076,4 0,4 C-2.2076,4 -4,2.2076 -4,0 C-4,-2.2076 -2.2076,-4 0,-4z" />
                </g>
            </g>
        </g>
    </svg>
    <svg xmlns="http://www.w3.org/2000/svg" width="217" height="60" viewBox="0 0 217 60" preserveAspectRatio="xMidYMid meet" style="width: 100%; height: 100%;" x="7378" y="0">
        <defs>
            <clipPath id="f34_animationMask_qWvwQjdKpP">
                <rect width="217" height="60" x="0" y="0" />
            </clipPath>
        </defs>
        <g clip-path="url(#f34_animationMask_qWvwQjdKpP)">
            <g style="-moz-user-select: none;" transform="matrix(8.428683385579935,0,0,7.128526645768026,5606.698284811292,4578)">
                <g transform="matrix(1,0,0,1,-648,-638)">
                    <path fill="#fff" d=" M0,-4 C2.2076,-4 4,-2.2076 4,0 C4,2.2076 2.2076,4 0,4 C-2.2076,4 -4,2.2076 -4,0 C-4,-2.2076 -2.2076,-4 0,-4z" />
                </g>
            </g>
        </g>
    </svg>
    <svg xmlns="http://www.w3.org/2000/svg" width="217" height="60" viewBox="0 0 217 60" preserveAspectRatio="xMidYMid meet" style="width: 100%; height: 100%;" x="7595" y="0">
        <defs>
            <clipPath id="f35_animationMask_qWvwQjdKpP">
                <rect width="217" height="60" x="0" y="0" />
            </clipPath>
        </defs>
        <g clip-path="url(#f35_animationMask_qWvwQjdKpP)">
            <g style="-moz-user-select: none;" transform="matrix(8.898902821316613,0,0,6.940438871473354,5892.667197506018,4458)">
                <g transform="matrix(1,0,0,1,-648,-638)">
                    <path fill="#fff" d=" M0,-4 C2.2076,-4 4,-2.2076 4,0 C4,2.2076 2.2076,4 0,4 C-2.2076,4 -4,2.2076 -4,0 C-4,-2.2076 -2.2076,-4 0,-4z" />
                </g>
            </g>
        </g>
    </svg>
    <svg xmlns="http://www.w3.org/2000/svg" width="217" height="60" viewBox="0 0 217 60" preserveAspectRatio="xMidYMid meet" style="width: 100%; height: 100%;" x="7812" y="0">
        <defs>
            <clipPath id="f36_animationMask_qWvwQjdKpP">
                <rect width="217" height="60" x="0" y="0" />
            </clipPath>
        </defs>
        <g clip-path="url(#f36_animationMask_qWvwQjdKpP)">
            <g style="-moz-user-select: none;" transform="matrix(9.369122257053291,0,0,6.752351097178684,6182.245422586333,4338)">
                <g transform="matrix(1,0,0,1,-648,-638)">
                    <path fill="#fff" d=" M0,-4 C2.2076,-4 4,-2.2076 4,0 C4,2.2076 2.2076,4 0,4 C-2.2076,4 -4,2.2076 -4,0 C-4,-2.2076 -2.2076,-4 0,-4z" />
                </g>
            </g>
        </g>
    </svg>
    <svg xmlns="http://www.w3.org/2000/svg" width="217" height="60" viewBox="0 0 217 60" preserveAspectRatio="xMidYMid meet" style="width: 100%; height: 100%;" x="8029" y="0">
        <defs>
            <clipPath id="f37_animationMask_qWvwQjdKpP">
                <rect width="217" height="60" x="0" y="0" />
            </clipPath>
        </defs>
        <g clip-path="url(#f37_animationMask_qWvwQjdKpP)">
            <g style="-moz-user-select: none;" transform="matrix(9.839341692789967,0,0,6.564263322884013,6474.941414530178,4218.000000000001)">
                <g transform="matrix(1,0,0,1,-648,-638)">
                    <path fill="#fff" d=" M0,-4 C2.2076,-4 4,-2.2076 4,0 C4,2.2076 2.2076,4 0,4 C-2.2076,4 -4,2.2076 -4,0 C-4,-2.2076 -2.2076,-4 0,-4z" />
                </g>
            </g>
        </g>
    </svg>
    <svg xmlns="http://www.w3.org/2000/svg" width="217" height="60" viewBox="0 0 217 60" preserveAspectRatio="xMidYMid meet" style="width: 100%; height: 100%;" x="8246" y="0">
        <defs>
            <clipPath id="f38_animationMask_qWvwQjdKpP">
                <rect width="217" height="60" x="0" y="0" />
            </clipPath>
        </defs>
        <g clip-path="url(#f38_animationMask_qWvwQjdKpP)">
            <g style="-moz-user-select: none;" transform="matrix(10.309561128526646,0,0,6.376175548589343,6769.90356561475,4098.000000000001)">
                <g transform="matrix(1,0,0,1,-648,-638)">
                    <path fill="#fff" d=" M0,-4 C2.2076,-4 4,-2.2076 4,0 C4,2.2076 2.2076,4 0,4 C-2.2076,4 -4,2.2076 -4,0 C-4,-2.2076 -2.2076,-4 0,-4z" />
                </g>
            </g>
        </g>
    </svg>
    <svg xmlns="http://www.w3.org/2000/svg" width="217" height="60" viewBox="0 0 217 60" preserveAspectRatio="xMidYMid meet" style="width: 100%; height: 100%;" x="8463" y="0">
        <defs>
            <clipPath id="f39_animationMask_qWvwQjdKpP">
                <rect width="217" height="60" x="0" y="0" />
            </clipPath>
        </defs>
        <g clip-path="url(#f39_animationMask_qWvwQjdKpP)">
            <g style="-moz-user-select: none;" transform="matrix(10.779780564263325,0,0,6.188087774294671,7066.526888692972,3978.0000000000005)">
                <g transform="matrix(1,0,0,1,-648,-638)">
                    <path fill="#fff" d=" M0,-4 C2.2076,-4 4,-2.2076 4,0 C4,2.2076 2.2076,4 0,4 C-2.2076,4 -4,2.2076 -4,0 C-4,-2.2076 -2.2076,-4 0,-4z" />
                </g>
            </g>
        </g>
    </svg>
    <svg xmlns="http://www.w3.org/2000/svg" width="217" height="60" viewBox="0 0 217 60" preserveAspectRatio="xMidYMid meet" style="width: 100%; height: 100%;" x="8680" y="0">
        <defs>
            <clipPath id="f40_animationMask_qWvwQjdKpP">
                <rect width="217" height="60" x="0" y="0" />
            </clipPath>
        </defs>
        <g clip-path="url(#f40_animationMask_qWvwQjdKpP)">
            <g style="-moz-user-select: none;" transform="matrix(11.25,0,0,6,7364.4104816497975,3858)">
                <g transform="matrix(1,0,0,1,-648,-638)">
                    <path fill="#fff" d=" M0,-4 C2.2076,-4 4,-2.2076 4,0 C4,2.2076 2.2076,4 0,4 C-2.2076,4 -4,2.2076 -4,0 C-4,-2.2076 -2.2076,-4 0,-4z" />
                </g>
            </g>
        </g>
    </svg>
    <svg xmlns="http://www.w3.org/2000/svg" width="217" height="60" viewBox="0 0 217 60" preserveAspectRatio="xMidYMid meet" style="width: 100%; height: 100%;" x="8897" y="0">
        <defs>
            <clipPath id="f41_animationMask_qWvwQjdKpP">
                <rect width="217" height="60" x="0" y="0" />
            </clipPath>
        </defs>
        <g clip-path="url(#f41_animationMask_qWvwQjdKpP)">
            <g style="-moz-user-select: none;" transform="matrix(10.714285714285714,0,0,6.214285714285714,7011.43770651047,3994.714285714286)">
                <g transform="matrix(1,0,0,1,-648,-638)">
                    <path fill="#fff" d=" M0,-4 C2.2076,-4 4,-2.2076 4,0 C4,2.2076 2.2076,4 0,4 C-2.2076,4 -4,2.2076 -4,0 C-4,-2.2076 -2.2076,-4 0,-4z" />
                </g>
            </g>
        </g>
    </svg>
    <svg xmlns="http://www.w3.org/2000/svg" width="217" height="60" viewBox="0 0 217 60" preserveAspectRatio="xMidYMid meet" style="width: 100%; height: 100%;" x="9114" y="0">
        <defs>
            <clipPath id="f42_animationMask_qWvwQjdKpP">
                <rect width="217" height="60" x="0" y="0" />
            </clipPath>
        </defs>
        <g clip-path="url(#f42_animationMask_qWvwQjdKpP)">
            <g style="-moz-user-select: none;" transform="matrix(10.178571428571429,0,0,6.428571428571429,6659.262873831717,4131.428571428572)">
                <g transform="matrix(1,0,0,1,-648,-638)">
                    <path fill="#fff" d=" M0,-4 C2.2076,-4 4,-2.2076 4,0 C4,2.2076 2.2076,4 0,4 C-2.2076,4 -4,2.2076 -4,0 C-4,-2.2076 -2.2076,-4 0,-4z" />
                </g>
            </g>
        </g>
    </svg>
    <svg xmlns="http://www.w3.org/2000/svg" width="217" height="60" viewBox="0 0 217 60" preserveAspectRatio="xMidYMid meet" style="width: 100%; height: 100%;" x="9331" y="0">
        <defs>
            <clipPath id="f43_animationMask_qWvwQjdKpP">
                <rect width="217" height="60" x="0" y="0" />
            </clipPath>
        </defs>
        <g clip-path="url(#f43_animationMask_qWvwQjdKpP)">
            <g style="-moz-user-select: none;" transform="matrix(9.642857142857144,0,0,6.642857142857142,6307.747276106856,4268.142857142857)">
                <g transform="matrix(1,0,0,1,-648,-638)">
                    <path fill="#fff" d=" M0,-4 C2.2076,-4 4,-2.2076 4,0 C4,2.2076 2.2076,4 0,4 C-2.2076,4 -4,2.2076 -4,0 C-4,-2.2076 -2.2076,-4 0,-4z" />
                </g>
            </g>
        </g>
    </svg>
    <svg xmlns="http://www.w3.org/2000/svg" width="217" height="60" viewBox="0 0 217 60" preserveAspectRatio="xMidYMid meet" style="width: 100%; height: 100%;" x="9548" y="0">
        <defs>
            <clipPath id="f44_animationMask_qWvwQjdKpP">
                <rect width="217" height="60" x="0" y="0" />
            </clipPath>
        </defs>
        <g clip-path="url(#f44_animationMask_qWvwQjdKpP)">
            <g style="-moz-user-select: none;" transform="matrix(9.107142857142858,0,0,6.857142857142857,5956.786916918806,4404.857142857142)">
                <g transform="matrix(1,0,0,1,-648,-638)">
                    <path fill="#fff" d=" M0,-4 C2.2076,-4 4,-2.2076 4,0 C4,2.2076 2.2076,4 0,4 C-2.2076,4 -4,2.2076 -4,0 C-4,-2.2076 -2.2076,-4 0,-4z" />
                </g>
            </g>
        </g>
    </svg>
    <svg xmlns="http://www.w3.org/2000/svg" width="217" height="60" viewBox="0 0 217 60" preserveAspectRatio="xMidYMid meet" style="width: 100%; height: 100%;" x="9765" y="0">
        <defs>
            <clipPath id="f45_animationMask_qWvwQjdKpP">
                <rect width="217" height="60" x="0" y="0" />
            </clipPath>
        </defs>
        <g clip-path="url(#f45_animationMask_qWvwQjdKpP)">
            <g style="-moz-user-select: none;" transform="matrix(8.571428571428571,0,0,7.071428571428571,5606.301759187927,4541.571428571428)">
                <g transform="matrix(1,0,0,1,-648,-638)">
                    <path fill="#fff" d=" M0,-4 C2.2076,-4 4,-2.2076 4,0 C4,2.2076 2.2076,4 0,4 C-2.2076,4 -4,2.2076 -4,0 C-4,-2.2076 -2.2076,-4 0,-4z" />
                </g>
            </g>
        </g>
    </svg>
    <svg xmlns="http://www.w3.org/2000/svg" width="217" height="60" viewBox="0 0 217 60" preserveAspectRatio="xMidYMid meet" style="width: 100%; height: 100%;" x="9982" y="0">
        <defs>
            <clipPath id="f46_animationMask_qWvwQjdKpP">
                <rect width="217" height="60" x="0" y="0" />
            </clipPath>
        </defs>
        <g clip-path="url(#f46_animationMask_qWvwQjdKpP)">
            <g style="-moz-user-select: none;" transform="matrix(8.035714285714286,0,0,7.285714285714286,5256.228815631972,4678.285714285714)">
                <g transform="matrix(1,0,0,1,-648,-638)">
                    <path fill="#fff" d=" M0,-4 C2.2076,-4 4,-2.2076 4,0 C4,2.2076 2.2076,4 0,4 C-2.2076,4 -4,2.2076 -4,0 C-4,-2.2076 -2.2076,-4 0,-4z" />
                </g>
            </g>
        </g>
    </svg>
    <svg xmlns="http://www.w3.org/2000/svg" width="217" height="60" viewBox="0 0 217 60" preserveAspectRatio="xMidYMid meet" style="width: 100%; height: 100%;" x="10199" y="0">
        <defs>
            <clipPath id="f47_animationMask_qWvwQjdKpP">
                <rect width="217" height="60" x="0" y="0" />
            </clipPath>
        </defs>
        <g clip-path="url(#f47_animationMask_qWvwQjdKpP)">
            <g style="-moz-user-select: none;" transform="matrix(7.5,0,0,7.5,4906.517560247746,4815)">
                <g transform="matrix(1,0,0,1,-648,-638)">
                    <path fill="#fff" d=" M0,-4 C2.2076,-4 4,-2.2076 4,0 C4,2.2076 2.2076,4 0,4 C-2.2076,4 -4,2.2076 -4,0 C-4,-2.2076 -2.2076,-4 0,-4z" />
                </g>
            </g>
        </g>
    </svg>
    <svg xmlns="http://www.w3.org/2000/svg" width="217" height="60" viewBox="0 0 217 60" preserveAspectRatio="xMidYMid meet" style="width: 100%; height: 100%;" x="10416" y="0">
        <defs>
            <clipPath id="f48_animationMask_qWvwQjdKpP">
                <rect width="217" height="60" x="0" y="0" />
            </clipPath>
        </defs>
        <g clip-path="url(#f48_animationMask_qWvwQjdKpP)">
            <g style="-moz-user-select: none;" transform="matrix(7.5,0,0,7.5,4904.269646593391,4815)">
                <g transform="matrix(1,0,0,1,-648,-638)">
                    <path fill="#fff" d=" M0,-4 C2.2076,-4 4,-2.2076 4,0 C4,2.2076 2.2076,4 0,4 C-2.2076,4 -4,2.2076 -4,0 C-4,-2.2076 -2.2076,-4 0,-4z" />
                </g>
            </g>
        </g>
    </svg>
    <svg xmlns="http://www.w3.org/2000/svg" width="217" height="60" viewBox="0 0 217 60" preserveAspectRatio="xMidYMid meet" style="width: 100%; height: 100%;" x="10633" y="0">
        <defs>
            <clipPath id="f49_animationMask_qWvwQjdKpP">
                <rect width="217" height="60" x="0" y="0" />
            </clipPath>
        </defs>
        <g clip-path="url(#f49_animationMask_qWvwQjdKpP)">
            <g style="-moz-user-select: none;" transform="matrix(7.5,0,0,7.5,4902.308131744939,4815)">
                <g transform="matrix(1,0,0,1,-648,-638)">
                    <path fill="#fff" d=" M0,-4 C2.2076,-4 4,-2.2076 4,0 C4,2.2076 2.2076,4 0,4 C-2.2076,4 -4,2.2076 -4,0 C-4,-2.2076 -2.2076,-4 0,-4z" />
                </g>
            </g>
        </g>
    </svg>
    <svg xmlns="http://www.w3.org/2000/svg" width="217" height="60" viewBox="0 0 217 60" preserveAspectRatio="xMidYMid meet" style="width: 100%; height: 100%;" x="10850" y="0">
        <defs>
            <clipPath id="f50_animationMask_qWvwQjdKpP">
                <rect width="217" height="60" x="0" y="0" />
            </clipPath>
        </defs>
        <g clip-path="url(#f50_animationMask_qWvwQjdKpP)">
            <g style="-moz-user-select: none;" transform="matrix(7.5,0,0,7.5,4900.604462623283,4815)">
                <g transform="matrix(1,0,0,1,-648,-638)">
                    <path fill="#fff" d=" M0,-4 C2.2076,-4 4,-2.2076 4,0 C4,2.2076 2.2076,4 0,4 C-2.2076,4 -4,2.2076 -4,0 C-4,-2.2076 -2.2076,-4 0,-4z" />
                </g>
            </g>
        </g>
    </svg>
    <svg xmlns="http://www.w3.org/2000/svg" width="217" height="60" viewBox="0 0 217 60" preserveAspectRatio="xMidYMid meet" style="width: 100%; height: 100%;" x="11067" y="0">
        <defs>
            <clipPath id="f51_animationMask_qWvwQjdKpP">
                <rect width="217" height="60" x="0" y="0" />
            </clipPath>
        </defs>
        <g clip-path="url(#f51_animationMask_qWvwQjdKpP)">
            <g style="-moz-user-select: none;" transform="matrix(7.5,0,0,7.5,4899.134455251855,4815)">
                <g transform="matrix(1,0,0,1,-648,-638)">
                    <path fill="#fff" d=" M0,-4 C2.2076,-4 4,-2.2076 4,0 C4,2.2076 2.2076,4 0,4 C-2.2076,4 -4,2.2076 -4,0 C-4,-2.2076 -2.2076,-4 0,-4z" />
                </g>
            </g>
        </g>
    </svg>
    <svg xmlns="http://www.w3.org/2000/svg" width="217" height="60" viewBox="0 0 217 60" preserveAspectRatio="xMidYMid meet" style="width: 100%; height: 100%;" x="11284" y="0">
        <defs>
            <clipPath id="f52_animationMask_qWvwQjdKpP">
                <rect width="217" height="60" x="0" y="0" />
            </clipPath>
        </defs>
        <g clip-path="url(#f52_animationMask_qWvwQjdKpP)">
            <g style="-moz-user-select: none;" transform="matrix(7.5,0,0,7.5,4897.877424628188,4815)">
                <g transform="matrix(1,0,0,1,-648,-638)">
                    <path fill="#fff" d=" M0,-4 C2.2076,-4 4,-2.2076 4,0 C4,2.2076 2.2076,4 0,4 C-2.2076,4 -4,2.2076 -4,0 C-4,-2.2076 -2.2076,-4 0,-4z" />
                </g>
            </g>
        </g>
    </svg>
    <svg xmlns="http://www.w3.org/2000/svg" width="217" height="60" viewBox="0 0 217 60" preserveAspectRatio="xMidYMid meet" style="width: 100%; height: 100%;" x="11501" y="0">
        <defs>
            <clipPath id="f53_animationMask_qWvwQjdKpP">
                <rect width="217" height="60" x="0" y="0" />
            </clipPath>
        </defs>
        <g clip-path="url(#f53_animationMask_qWvwQjdKpP)">
            <g style="-moz-user-select: none;" transform="matrix(7.5,0,0,7.5,4896.815523200978,4815)">
                <g transform="matrix(1,0,0,1,-648,-638)">
                    <path fill="#fff" d=" M0,-4 C2.2076,-4 4,-2.2076 4,0 C4,2.2076 2.2076,4 0,4 C-2.2076,4 -4,2.2076 -4,0 C-4,-2.2076 -2.2076,-4 0,-4z" />
                </g>
            </g>
        </g>
    </svg>
    <svg xmlns="http://www.w3.org/2000/svg" width="217" height="60" viewBox="0 0 217 60" preserveAspectRatio="xMidYMid meet" style="width: 100%; height: 100%;" x="11718" y="0">
        <defs>
            <clipPath id="f54_animationMask_qWvwQjdKpP">
                <rect width="217" height="60" x="0" y="0" />
            </clipPath>
        </defs>
        <g clip-path="url(#f54_animationMask_qWvwQjdKpP)">
            <g style="-moz-user-select: none;" transform="matrix(7.5,0,0,7.5,4895.933230418568,4815)">
                <g transform="matrix(1,0,0,1,-648,-638)">
                    <path fill="#fff" d=" M0,-4 C2.2076,-4 4,-2.2076 4,0 C4,2.2076 2.2076,4 0,4 C-2.2076,4 -4,2.2076 -4,0 C-4,-2.2076 -2.2076,-4 0,-4z" />
                </g>
            </g>
        </g>
    </svg>
    <svg xmlns="http://www.w3.org/2000/svg" width="217" height="60" viewBox="0 0 217 60" preserveAspectRatio="xMidYMid meet" style="width: 100%; height: 100%;" x="11935" y="0">
        <defs>
            <clipPath id="f55_animationMask_qWvwQjdKpP">
                <rect width="217" height="60" x="0" y="0" />
            </clipPath>
        </defs>
        <g clip-path="url(#f55_animationMask_qWvwQjdKpP)">
            <g style="-moz-user-select: none;" transform="matrix(7.5,0,0,7.5,4895.216953540039,4815)">
                <g transform="matrix(1,0,0,1,-648,-638)">
                    <path fill="#fff" d=" M0,-4 C2.2076,-4 4,-2.2076 4,0 C4,2.2076 2.2076,4 0,4 C-2.2076,4 -4,2.2076 -4,0 C-4,-2.2076 -2.2076,-4 0,-4z" />
                </g>
            </g>
        </g>
    </svg>
    <svg xmlns="http://www.w3.org/2000/svg" width="217" height="60" viewBox="0 0 217 60" preserveAspectRatio="xMidYMid meet" style="width: 100%; height: 100%;" x="12152" y="0">
        <defs>
            <clipPath id="f56_animationMask_qWvwQjdKpP">
                <rect width="217" height="60" x="0" y="0" />
            </clipPath>
        </defs>
        <g clip-path="url(#f56_animationMask_qWvwQjdKpP)">
            <g style="-moz-user-select: none;" transform="matrix(7.5,0,0,7.5,4894.654711649329,4815)">
                <g transform="matrix(1,0,0,1,-648,-638)">
                    <path fill="#fff" d=" M0,-4 C2.2076,-4 4,-2.2076 4,0 C4,2.2076 2.2076,4 0,4 C-2.2076,4 -4,2.2076 -4,0 C-4,-2.2076 -2.2076,-4 0,-4z" />
                </g>
            </g>
        </g>
    </svg>
    <svg xmlns="http://www.w3.org/2000/svg" width="217" height="60" viewBox="0 0 217 60" preserveAspectRatio="xMidYMid meet" style="width: 100%; height: 100%;" x="12369" y="0">
        <defs>
            <clipPath id="f57_animationMask_qWvwQjdKpP">
                <rect width="217" height="60" x="0" y="0" />
            </clipPath>
        </defs>
        <g clip-path="url(#f57_animationMask_qWvwQjdKpP)">
            <g style="-moz-user-select: none;" transform="matrix(7.5,0,0,7.5,4894.235882758026,4815)">
                <g transform="matrix(1,0,0,1,-648,-638)">
                    <path fill="#fff" d=" M0,-4 C2.2076,-4 4,-2.2076 4,0 C4,2.2076 2.2076,4 0,4 C-2.2076,4 -4,2.2076 -4,0 C-4,-2.2076 -2.2076,-4 0,-4z" />
                </g>
            </g>
        </g>
    </svg>
    <svg xmlns="http://www.w3.org/2000/svg" width="217" height="60" viewBox="0 0 217 60" preserveAspectRatio="xMidYMid meet" style="width: 100%; height: 100%;" x="12586" y="0">
        <defs>
            <clipPath id="f58_animationMask_qWvwQjdKpP">
                <rect width="217" height="60" x="0" y="0" />
            </clipPath>
        </defs>
        <g clip-path="url(#f58_animationMask_qWvwQjdKpP)">
            <g style="-moz-user-select: none;" transform="matrix(7.5,0,0,7.5,4893.950999354234,4815)">
                <g transform="matrix(1,0,0,1,-648,-638)">
                    <path fill="#fff" d=" M0,-4 C2.2076,-4 4,-2.2076 4,0 C4,2.2076 2.2076,4 0,4 C-2.2076,4 -4,2.2076 -4,0 C-4,-2.2076 -2.2076,-4 0,-4z" />
                </g>
            </g>
        </g>
    </svg>
    <svg xmlns="http://www.w3.org/2000/svg" width="217" height="60" viewBox="0 0 217 60" preserveAspectRatio="xMidYMid meet" style="width: 100%; height: 100%;" x="12803" y="0">
        <defs>
            <clipPath id="f59_animationMask_qWvwQjdKpP">
                <rect width="217" height="60" x="0" y="0" />
            </clipPath>
        </defs>
        <g clip-path="url(#f59_animationMask_qWvwQjdKpP)">
            <g style="-moz-user-select: none;" transform="matrix(7.5,0,0,7.5,4893.791581586892,4815)">
                <g transform="matrix(1,0,0,1,-648,-638)">
                    <path fill="#fff" d=" M0,-4 C2.2076,-4 4,-2.2076 4,0 C4,2.2076 2.2076,4 0,4 C-2.2076,4 -4,2.2076 -4,0 C-4,-2.2076 -2.2076,-4 0,-4z" />
                </g>
            </g>
        </g>
    </svg>
    <svg xmlns="http://www.w3.org/2000/svg" width="217" height="60" viewBox="0 0 217 60" preserveAspectRatio="xMidYMid meet" style="width: 100%; height: 100%;" x="13020" y="0">
        <defs>
            <clipPath id="f60_animationMask_qWvwQjdKpP">
                <rect width="217" height="60" x="0" y="0" />
            </clipPath>
        </defs>
        <g clip-path="url(#f60_animationMask_qWvwQjdKpP)">
            <g style="-moz-user-select: none;" transform="matrix(7.5,0,0,7.5,4893.75,4815)">
                <g transform="matrix(1,0,0,1,-648,-638)">
                    <path fill="#fff" d=" M0,-4 C2.2076,-4 4,-2.2076 4,0 C4,2.2076 2.2076,4 0,4 C-2.2076,4 -4,2.2076 -4,0 C-4,-2.2076 -2.2076,-4 0,-4z" />
                </g>
            </g>
        </g>
    </svg>
</svg>
