<?xml version="1.0" encoding="utf-8"?>
<!-- Generator: Adobe Illustrator 21.0.0, SVG Export Plug-In . SVG Version: 6.00 Build 0)  -->
<svg version="1.1" id="Layer_1" xmlns="http://www.w3.org/2000/svg" xmlns:xlink="http://www.w3.org/1999/xlink" x="0px" y="0px"
	 viewBox="0 0 20 20" style="enable-background:new 0 0 20 20;" xml:space="preserve">
<style type="text/css">
	.st0{fill:#3E3D40;}
</style>
<path id="Combined-Shape" class="st0" d="M11.3,2.5h7.5c0.7,0,1.3,0.6,1.3,1.3C20,4.5,19.4,5,18.7,5h-0.9l-1.5,12.6
	C16.3,19,15.1,20,13.8,20l-7.5,0c-1.3,0-2.5-1-2.6-2.4L2,5H1.3C0.6,5,0,4.5,0,3.8c0-0.7,0.6-1.3,1.3-1.3h7.5V1.3C8.7,0.6,9.3,0,10,0
	c0.7,0,1.3,0.6,1.3,1.3V2.5z M15.4,5H4.5l1.6,12.3c0,0.1,0.1,0.2,0.2,0.2l7.5,0c0,0,0.1-0.1,0.1-0.1L15.4,5z"/>
</svg>
