<!-- This Source Code Form is subject to the terms of the Mozilla Public
   - License, v. 2.0. If a copy of the MPL was not distributed with this
   - file, You can obtain one at http://mozilla.org/MPL/2.0/. -->
<svg width="34px" height="34px" viewBox="0 0 34 34" version="1.1" xmlns="http://www.w3.org/2000/svg">
  <circle stroke-opacity="0.15" stroke="#000000" fill="#fcfcfc" cx="17" cy="17" r="16"/>
  <path fill="#333333" d="M19.0020458,14.0020458 L24.0020458,9.00204581 L24.5040916,8.5 L23.5,7.49590837 L22.9979542,7.99795419 L17.9979542,12.9979542 L17.4959084,13.5 L18.5,14.5040916 L19.0020458,14.0020458 L19.0020458,14.0020458 Z"/>
  <path fill="#333333" d="M14.0020458,19.0020458 L14.5040916,18.5 L13.5,17.4959084 L12.9979542,17.9979542 L7.99795419,22.9979542 L7.49590837,23.5 L8.5,24.5040916 L9.00204581,24.0020458 L14.0020458,19.0020458 Z"/>
  <path fill="#727272" d="M23.0355339,16.7426407 L21.6213203,18.1568542 L15.9644661,12.5 L21.6213203,6.84314575 L23.0355339,8.25735931 L18.7928932,12.5 L23.0355339,16.7426407 Z" transform="translate(19.500000, 12.500000) scale(-1, -1) rotate(-225.000000) translate(-19.500000, -12.500000) "/>
  <path fill="#727272" d="M16.0355339,23.7426407 L14.6213203,25.1568542 L8.96446609,19.5 L14.6213203,13.8431458 L16.0355339,15.2573593 L11.7928932,19.5 L16.0355339,23.7426407 Z" transform="translate(12.500000, 19.500000) rotate(-225.000000) translate(-12.500000, -19.500000) "/>
</svg>
